M48
; DRILL file {KiCad (6.0.5)} date Sun May 29 01:25:04 2022
; FORMAT={-:-/ absolute / inch / decimal}
; #@! TF.CreationDate,2022-05-29T01:25:04+07:00
; #@! TF.GenerationSoftware,Kicad,Pcbnew,(6.0.5)
; #@! TF.FileFunction,Plated,1,2,PTH
FMAT,2
INCH
; #@! TA.AperFunction,Plated,PTH,ViaDrill
T1C0.0118
; #@! TA.AperFunction,Plated,PTH,ViaDrill
T2C0.0157
; #@! TA.AperFunction,Plated,PTH,ComponentDrill
T3C0.0236
; #@! TA.AperFunction,Plated,PTH,ComponentDrill
T4C0.0433
%
G90
G05
T1
X4.7535Y-2.8105
X4.9154Y-3.0178
X5.1058Y-2.8221
X5.3402Y-4.5182
X5.4216Y-2.7803
X5.5994Y-3.6384
X5.8032Y-3.5036
X5.8274Y-4.4267
X5.861Y-2.8633
X5.9264Y-4.0553
X6.1159Y-2.7211
X6.2304Y-3.5678
X6.3125Y-4.5194
X6.3157Y-4.61
X6.3177Y-4.5757
X6.3354Y-4.5479
X6.3882Y-4.6757
X6.4823Y-3.4523
X6.5016Y-2.8711
X6.528Y-2.8067
X6.5457Y-4.6816
X6.5469Y-3.5365
X6.566Y-3.4743
X6.5723Y-2.8597
X6.6802Y-3.922
X6.8295Y-2.907
X6.9222Y-2.7863
X6.986Y-4.4297
X7.0268Y-4.5157
X7.0368Y-3.4818
X7.0709Y-3.2655
X7.194Y-3.4293
X7.3067Y-3.2247
X7.3432Y-3.9345
X7.3629Y-3.6045
X7.4386Y-4.5491
X7.6061Y-2.907
T2
X6.2Y-2.3
X6.5858Y-2.7237
T4
X4.823Y-3.4739
X4.823Y-3.6511
X4.823Y-4.1614
X4.823Y-4.3386
X4.823Y-3.8177
X4.823Y-3.9948
X5.0789Y-3.4739
X5.0789Y-3.6511
X5.0789Y-4.1614
X5.0789Y-4.3386
X5.0789Y-3.8177
X5.0789Y-3.9948
T3
G00X6.0309Y-2.2079
M15
G01X6.0309Y-2.1843
M16
G05
G00X6.0309Y-2.3823
M15
G01X6.0309Y-2.339
M16
G05
G00X6.3711Y-2.2079
M15
G01X6.3711Y-2.1843
M16
G05
G00X6.3711Y-2.3823
M15
G01X6.3711Y-2.339
M16
G05
T0
M30
