%TF.GenerationSoftware,KiCad,Pcbnew,(6.0.5)*%
%TF.CreationDate,2022-05-29T01:25:08+07:00*%
%TF.ProjectId,atelier-alter,6174656c-6965-4722-9d61-6c7465722e6b,rev?*%
%TF.SameCoordinates,Original*%
%TF.FileFunction,Legend,Bot*%
%TF.FilePolarity,Positive*%
%FSLAX46Y46*%
G04 Gerber Fmt 4.6, Leading zero omitted, Abs format (unit mm)*
G04 Created by KiCad (PCBNEW (6.0.5)) date 2022-05-29 01:25:08*
%MOMM*%
%LPD*%
G01*
G04 APERTURE LIST*
%ADD10C,0.150000*%
%ADD11C,0.120000*%
G04 APERTURE END LIST*
D10*
%TO.C,D5*%
X190786945Y-119832380D02*
X190786945Y-118832380D01*
X190548850Y-118832380D01*
X190405992Y-118880000D01*
X190310754Y-118975238D01*
X190263135Y-119070476D01*
X190215516Y-119260952D01*
X190215516Y-119403809D01*
X190263135Y-119594285D01*
X190310754Y-119689523D01*
X190405992Y-119784761D01*
X190548850Y-119832380D01*
X190786945Y-119832380D01*
X189310754Y-118832380D02*
X189786945Y-118832380D01*
X189834564Y-119308571D01*
X189786945Y-119260952D01*
X189691707Y-119213333D01*
X189453611Y-119213333D01*
X189358373Y-119260952D01*
X189310754Y-119308571D01*
X189263135Y-119403809D01*
X189263135Y-119641904D01*
X189310754Y-119737142D01*
X189358373Y-119784761D01*
X189453611Y-119832380D01*
X189691707Y-119832380D01*
X189786945Y-119784761D01*
X189834564Y-119737142D01*
%TO.C,U1*%
X161429554Y-112308680D02*
X161429554Y-113118204D01*
X161381935Y-113213442D01*
X161334316Y-113261061D01*
X161239078Y-113308680D01*
X161048602Y-113308680D01*
X160953364Y-113261061D01*
X160905745Y-113213442D01*
X160858126Y-113118204D01*
X160858126Y-112308680D01*
X159858126Y-113308680D02*
X160429554Y-113308680D01*
X160143840Y-113308680D02*
X160143840Y-112308680D01*
X160239078Y-112451538D01*
X160334316Y-112546776D01*
X160429554Y-112594395D01*
%TO.C,C7*%
X180697142Y-116673333D02*
X180744761Y-116625714D01*
X180792380Y-116482857D01*
X180792380Y-116387619D01*
X180744761Y-116244761D01*
X180649523Y-116149523D01*
X180554285Y-116101904D01*
X180363809Y-116054285D01*
X180220952Y-116054285D01*
X180030476Y-116101904D01*
X179935238Y-116149523D01*
X179840000Y-116244761D01*
X179792380Y-116387619D01*
X179792380Y-116482857D01*
X179840000Y-116625714D01*
X179887619Y-116673333D01*
X179792380Y-117006666D02*
X179792380Y-117673333D01*
X180792380Y-117244761D01*
%TO.C,C14*%
X184792857Y-76557142D02*
X184840476Y-76604761D01*
X184983333Y-76652380D01*
X185078571Y-76652380D01*
X185221428Y-76604761D01*
X185316666Y-76509523D01*
X185364285Y-76414285D01*
X185411904Y-76223809D01*
X185411904Y-76080952D01*
X185364285Y-75890476D01*
X185316666Y-75795238D01*
X185221428Y-75700000D01*
X185078571Y-75652380D01*
X184983333Y-75652380D01*
X184840476Y-75700000D01*
X184792857Y-75747619D01*
X183840476Y-76652380D02*
X184411904Y-76652380D01*
X184126190Y-76652380D02*
X184126190Y-75652380D01*
X184221428Y-75795238D01*
X184316666Y-75890476D01*
X184411904Y-75938095D01*
X182983333Y-75985714D02*
X182983333Y-76652380D01*
X183221428Y-75604761D02*
X183459523Y-76319047D01*
X182840476Y-76319047D01*
%TO.C,R4*%
X118276666Y-79192380D02*
X118610000Y-78716190D01*
X118848095Y-79192380D02*
X118848095Y-78192380D01*
X118467142Y-78192380D01*
X118371904Y-78240000D01*
X118324285Y-78287619D01*
X118276666Y-78382857D01*
X118276666Y-78525714D01*
X118324285Y-78620952D01*
X118371904Y-78668571D01*
X118467142Y-78716190D01*
X118848095Y-78716190D01*
X117419523Y-78525714D02*
X117419523Y-79192380D01*
X117657619Y-78144761D02*
X117895714Y-78859047D01*
X117276666Y-78859047D01*
%TO.C,C17*%
X192412857Y-81637142D02*
X192460476Y-81684761D01*
X192603333Y-81732380D01*
X192698571Y-81732380D01*
X192841428Y-81684761D01*
X192936666Y-81589523D01*
X192984285Y-81494285D01*
X193031904Y-81303809D01*
X193031904Y-81160952D01*
X192984285Y-80970476D01*
X192936666Y-80875238D01*
X192841428Y-80780000D01*
X192698571Y-80732380D01*
X192603333Y-80732380D01*
X192460476Y-80780000D01*
X192412857Y-80827619D01*
X191460476Y-81732380D02*
X192031904Y-81732380D01*
X191746190Y-81732380D02*
X191746190Y-80732380D01*
X191841428Y-80875238D01*
X191936666Y-80970476D01*
X192031904Y-81018095D01*
X191127142Y-80732380D02*
X190460476Y-80732380D01*
X190889047Y-81732380D01*
%TO.C,R7*%
X122086666Y-114752380D02*
X122420000Y-114276190D01*
X122658095Y-114752380D02*
X122658095Y-113752380D01*
X122277142Y-113752380D01*
X122181904Y-113800000D01*
X122134285Y-113847619D01*
X122086666Y-113942857D01*
X122086666Y-114085714D01*
X122134285Y-114180952D01*
X122181904Y-114228571D01*
X122277142Y-114276190D01*
X122658095Y-114276190D01*
X121753333Y-113752380D02*
X121086666Y-113752380D01*
X121515238Y-114752380D01*
%TO.C,D33*%
X134523725Y-105919487D02*
X133523725Y-105919487D01*
X133523725Y-106157582D01*
X133571345Y-106300439D01*
X133666583Y-106395677D01*
X133761821Y-106443296D01*
X133952297Y-106490915D01*
X134095154Y-106490915D01*
X134285630Y-106443296D01*
X134380868Y-106395677D01*
X134476106Y-106300439D01*
X134523725Y-106157582D01*
X134523725Y-105919487D01*
X133523725Y-106824249D02*
X133523725Y-107443296D01*
X133904678Y-107109963D01*
X133904678Y-107252820D01*
X133952297Y-107348058D01*
X133999916Y-107395677D01*
X134095154Y-107443296D01*
X134333249Y-107443296D01*
X134428487Y-107395677D01*
X134476106Y-107348058D01*
X134523725Y-107252820D01*
X134523725Y-106967106D01*
X134476106Y-106871868D01*
X134428487Y-106824249D01*
X133523725Y-107776630D02*
X133523725Y-108395677D01*
X133904678Y-108062344D01*
X133904678Y-108205201D01*
X133952297Y-108300439D01*
X133999916Y-108348058D01*
X134095154Y-108395677D01*
X134333249Y-108395677D01*
X134428487Y-108348058D01*
X134476106Y-108300439D01*
X134523725Y-108205201D01*
X134523725Y-107919487D01*
X134476106Y-107824249D01*
X134428487Y-107776630D01*
%TO.C,D14*%
X123134285Y-74112380D02*
X123134285Y-73112380D01*
X122896190Y-73112380D01*
X122753333Y-73160000D01*
X122658095Y-73255238D01*
X122610476Y-73350476D01*
X122562857Y-73540952D01*
X122562857Y-73683809D01*
X122610476Y-73874285D01*
X122658095Y-73969523D01*
X122753333Y-74064761D01*
X122896190Y-74112380D01*
X123134285Y-74112380D01*
X121610476Y-74112380D02*
X122181904Y-74112380D01*
X121896190Y-74112380D02*
X121896190Y-73112380D01*
X121991428Y-73255238D01*
X122086666Y-73350476D01*
X122181904Y-73398095D01*
X120753333Y-73445714D02*
X120753333Y-74112380D01*
X120991428Y-73064761D02*
X121229523Y-73779047D01*
X120610476Y-73779047D01*
%TO.C,R1*%
X176982380Y-121753333D02*
X176506190Y-121420000D01*
X176982380Y-121181904D02*
X175982380Y-121181904D01*
X175982380Y-121562857D01*
X176030000Y-121658095D01*
X176077619Y-121705714D01*
X176172857Y-121753333D01*
X176315714Y-121753333D01*
X176410952Y-121705714D01*
X176458571Y-121658095D01*
X176506190Y-121562857D01*
X176506190Y-121181904D01*
X176982380Y-122705714D02*
X176982380Y-122134285D01*
X176982380Y-122420000D02*
X175982380Y-122420000D01*
X176125238Y-122324761D01*
X176220476Y-122229523D01*
X176268095Y-122134285D01*
%TO.C,D13*%
X160631130Y-82905714D02*
X159631130Y-82905714D01*
X159631130Y-83143809D01*
X159678750Y-83286666D01*
X159773988Y-83381904D01*
X159869226Y-83429523D01*
X160059702Y-83477142D01*
X160202559Y-83477142D01*
X160393035Y-83429523D01*
X160488273Y-83381904D01*
X160583511Y-83286666D01*
X160631130Y-83143809D01*
X160631130Y-82905714D01*
X160631130Y-84429523D02*
X160631130Y-83858095D01*
X160631130Y-84143809D02*
X159631130Y-84143809D01*
X159773988Y-84048571D01*
X159869226Y-83953333D01*
X159916845Y-83858095D01*
X159631130Y-84762857D02*
X159631130Y-85381904D01*
X160012083Y-85048571D01*
X160012083Y-85191428D01*
X160059702Y-85286666D01*
X160107321Y-85334285D01*
X160202559Y-85381904D01*
X160440654Y-85381904D01*
X160535892Y-85334285D01*
X160583511Y-85286666D01*
X160631130Y-85191428D01*
X160631130Y-84905714D01*
X160583511Y-84810476D01*
X160535892Y-84762857D01*
%TO.C,R2*%
X176982380Y-110323333D02*
X176506190Y-109990000D01*
X176982380Y-109751904D02*
X175982380Y-109751904D01*
X175982380Y-110132857D01*
X176030000Y-110228095D01*
X176077619Y-110275714D01*
X176172857Y-110323333D01*
X176315714Y-110323333D01*
X176410952Y-110275714D01*
X176458571Y-110228095D01*
X176506190Y-110132857D01*
X176506190Y-109751904D01*
X176077619Y-110704285D02*
X176030000Y-110751904D01*
X175982380Y-110847142D01*
X175982380Y-111085238D01*
X176030000Y-111180476D01*
X176077619Y-111228095D01*
X176172857Y-111275714D01*
X176268095Y-111275714D01*
X176410952Y-111228095D01*
X176982380Y-110656666D01*
X176982380Y-111275714D01*
%TO.C,C9*%
X145547142Y-70953333D02*
X145594761Y-70905714D01*
X145642380Y-70762857D01*
X145642380Y-70667619D01*
X145594761Y-70524761D01*
X145499523Y-70429523D01*
X145404285Y-70381904D01*
X145213809Y-70334285D01*
X145070952Y-70334285D01*
X144880476Y-70381904D01*
X144785238Y-70429523D01*
X144690000Y-70524761D01*
X144642380Y-70667619D01*
X144642380Y-70762857D01*
X144690000Y-70905714D01*
X144737619Y-70953333D01*
X145642380Y-71429523D02*
X145642380Y-71620000D01*
X145594761Y-71715238D01*
X145547142Y-71762857D01*
X145404285Y-71858095D01*
X145213809Y-71905714D01*
X144832857Y-71905714D01*
X144737619Y-71858095D01*
X144690000Y-71810476D01*
X144642380Y-71715238D01*
X144642380Y-71524761D01*
X144690000Y-71429523D01*
X144737619Y-71381904D01*
X144832857Y-71334285D01*
X145070952Y-71334285D01*
X145166190Y-71381904D01*
X145213809Y-71429523D01*
X145261428Y-71524761D01*
X145261428Y-71715238D01*
X145213809Y-71810476D01*
X145166190Y-71858095D01*
X145070952Y-71905714D01*
%TO.C,C15*%
X192537142Y-91432142D02*
X192584761Y-91384523D01*
X192632380Y-91241666D01*
X192632380Y-91146428D01*
X192584761Y-91003571D01*
X192489523Y-90908333D01*
X192394285Y-90860714D01*
X192203809Y-90813095D01*
X192060952Y-90813095D01*
X191870476Y-90860714D01*
X191775238Y-90908333D01*
X191680000Y-91003571D01*
X191632380Y-91146428D01*
X191632380Y-91241666D01*
X191680000Y-91384523D01*
X191727619Y-91432142D01*
X192632380Y-92384523D02*
X192632380Y-91813095D01*
X192632380Y-92098809D02*
X191632380Y-92098809D01*
X191775238Y-92003571D01*
X191870476Y-91908333D01*
X191918095Y-91813095D01*
X191632380Y-93289285D02*
X191632380Y-92813095D01*
X192108571Y-92765476D01*
X192060952Y-92813095D01*
X192013333Y-92908333D01*
X192013333Y-93146428D01*
X192060952Y-93241666D01*
X192108571Y-93289285D01*
X192203809Y-93336904D01*
X192441904Y-93336904D01*
X192537142Y-93289285D01*
X192584761Y-93241666D01*
X192632380Y-93146428D01*
X192632380Y-92908333D01*
X192584761Y-92813095D01*
X192537142Y-92765476D01*
%TO.C,D17*%
X120619385Y-110942380D02*
X120619385Y-109942380D01*
X120381290Y-109942380D01*
X120238433Y-109990000D01*
X120143195Y-110085238D01*
X120095576Y-110180476D01*
X120047957Y-110370952D01*
X120047957Y-110513809D01*
X120095576Y-110704285D01*
X120143195Y-110799523D01*
X120238433Y-110894761D01*
X120381290Y-110942380D01*
X120619385Y-110942380D01*
X119095576Y-110942380D02*
X119667004Y-110942380D01*
X119381290Y-110942380D02*
X119381290Y-109942380D01*
X119476528Y-110085238D01*
X119571766Y-110180476D01*
X119667004Y-110228095D01*
X118762242Y-109942380D02*
X118095576Y-109942380D01*
X118524147Y-110942380D01*
%TO.C,C5*%
X183237142Y-116673333D02*
X183284761Y-116625714D01*
X183332380Y-116482857D01*
X183332380Y-116387619D01*
X183284761Y-116244761D01*
X183189523Y-116149523D01*
X183094285Y-116101904D01*
X182903809Y-116054285D01*
X182760952Y-116054285D01*
X182570476Y-116101904D01*
X182475238Y-116149523D01*
X182380000Y-116244761D01*
X182332380Y-116387619D01*
X182332380Y-116482857D01*
X182380000Y-116625714D01*
X182427619Y-116673333D01*
X182332380Y-117578095D02*
X182332380Y-117101904D01*
X182808571Y-117054285D01*
X182760952Y-117101904D01*
X182713333Y-117197142D01*
X182713333Y-117435238D01*
X182760952Y-117530476D01*
X182808571Y-117578095D01*
X182903809Y-117625714D01*
X183141904Y-117625714D01*
X183237142Y-117578095D01*
X183284761Y-117530476D01*
X183332380Y-117435238D01*
X183332380Y-117197142D01*
X183284761Y-117101904D01*
X183237142Y-117054285D01*
%TO.C,D9*%
X192508095Y-74112380D02*
X192508095Y-73112380D01*
X192270000Y-73112380D01*
X192127142Y-73160000D01*
X192031904Y-73255238D01*
X191984285Y-73350476D01*
X191936666Y-73540952D01*
X191936666Y-73683809D01*
X191984285Y-73874285D01*
X192031904Y-73969523D01*
X192127142Y-74064761D01*
X192270000Y-74112380D01*
X192508095Y-74112380D01*
X191460476Y-74112380D02*
X191270000Y-74112380D01*
X191174761Y-74064761D01*
X191127142Y-74017142D01*
X191031904Y-73874285D01*
X190984285Y-73683809D01*
X190984285Y-73302857D01*
X191031904Y-73207619D01*
X191079523Y-73160000D01*
X191174761Y-73112380D01*
X191365238Y-73112380D01*
X191460476Y-73160000D01*
X191508095Y-73207619D01*
X191555714Y-73302857D01*
X191555714Y-73540952D01*
X191508095Y-73636190D01*
X191460476Y-73683809D01*
X191365238Y-73731428D01*
X191174761Y-73731428D01*
X191079523Y-73683809D01*
X191031904Y-73636190D01*
X190984285Y-73540952D01*
%TO.C,C6*%
X171193903Y-115524195D02*
X171241522Y-115476576D01*
X171289141Y-115333719D01*
X171289141Y-115238481D01*
X171241522Y-115095623D01*
X171146284Y-115000385D01*
X171051046Y-114952766D01*
X170860570Y-114905147D01*
X170717713Y-114905147D01*
X170527237Y-114952766D01*
X170431999Y-115000385D01*
X170336761Y-115095623D01*
X170289141Y-115238481D01*
X170289141Y-115333719D01*
X170336761Y-115476576D01*
X170384380Y-115524195D01*
X170289141Y-116381338D02*
X170289141Y-116190862D01*
X170336761Y-116095623D01*
X170384380Y-116048004D01*
X170527237Y-115952766D01*
X170717713Y-115905147D01*
X171098665Y-115905147D01*
X171193903Y-115952766D01*
X171241522Y-116000385D01*
X171289141Y-116095623D01*
X171289141Y-116286100D01*
X171241522Y-116381338D01*
X171193903Y-116428957D01*
X171098665Y-116476576D01*
X170860570Y-116476576D01*
X170765332Y-116428957D01*
X170717713Y-116381338D01*
X170670094Y-116286100D01*
X170670094Y-116095623D01*
X170717713Y-116000385D01*
X170765332Y-115952766D01*
X170860570Y-115905147D01*
%TO.C,C4*%
X155297142Y-129373333D02*
X155344761Y-129325714D01*
X155392380Y-129182857D01*
X155392380Y-129087619D01*
X155344761Y-128944761D01*
X155249523Y-128849523D01*
X155154285Y-128801904D01*
X154963809Y-128754285D01*
X154820952Y-128754285D01*
X154630476Y-128801904D01*
X154535238Y-128849523D01*
X154440000Y-128944761D01*
X154392380Y-129087619D01*
X154392380Y-129182857D01*
X154440000Y-129325714D01*
X154487619Y-129373333D01*
X154725714Y-130230476D02*
X155392380Y-130230476D01*
X154344761Y-129992380D02*
X155059047Y-129754285D01*
X155059047Y-130373333D01*
%TO.C,D31*%
X134569039Y-89561329D02*
X133569039Y-89561329D01*
X133569039Y-89799424D01*
X133616659Y-89942281D01*
X133711897Y-90037519D01*
X133807135Y-90085138D01*
X133997611Y-90132757D01*
X134140468Y-90132757D01*
X134330944Y-90085138D01*
X134426182Y-90037519D01*
X134521420Y-89942281D01*
X134569039Y-89799424D01*
X134569039Y-89561329D01*
X133569039Y-90466091D02*
X133569039Y-91085138D01*
X133949992Y-90751805D01*
X133949992Y-90894662D01*
X133997611Y-90989900D01*
X134045230Y-91037519D01*
X134140468Y-91085138D01*
X134378563Y-91085138D01*
X134473801Y-91037519D01*
X134521420Y-90989900D01*
X134569039Y-90894662D01*
X134569039Y-90608948D01*
X134521420Y-90513710D01*
X134473801Y-90466091D01*
X134569039Y-92037519D02*
X134569039Y-91466091D01*
X134569039Y-91751805D02*
X133569039Y-91751805D01*
X133711897Y-91656567D01*
X133807135Y-91561329D01*
X133854754Y-91466091D01*
%TO.C,R6*%
X118276666Y-84272380D02*
X118610000Y-83796190D01*
X118848095Y-84272380D02*
X118848095Y-83272380D01*
X118467142Y-83272380D01*
X118371904Y-83320000D01*
X118324285Y-83367619D01*
X118276666Y-83462857D01*
X118276666Y-83605714D01*
X118324285Y-83700952D01*
X118371904Y-83748571D01*
X118467142Y-83796190D01*
X118848095Y-83796190D01*
X117419523Y-83272380D02*
X117610000Y-83272380D01*
X117705238Y-83320000D01*
X117752857Y-83367619D01*
X117848095Y-83510476D01*
X117895714Y-83700952D01*
X117895714Y-84081904D01*
X117848095Y-84177142D01*
X117800476Y-84224761D01*
X117705238Y-84272380D01*
X117514761Y-84272380D01*
X117419523Y-84224761D01*
X117371904Y-84177142D01*
X117324285Y-84081904D01*
X117324285Y-83843809D01*
X117371904Y-83748571D01*
X117419523Y-83700952D01*
X117514761Y-83653333D01*
X117705238Y-83653333D01*
X117800476Y-83700952D01*
X117848095Y-83748571D01*
X117895714Y-83843809D01*
%TO.C,D19*%
X120594285Y-102052380D02*
X120594285Y-101052380D01*
X120356190Y-101052380D01*
X120213333Y-101100000D01*
X120118095Y-101195238D01*
X120070476Y-101290476D01*
X120022857Y-101480952D01*
X120022857Y-101623809D01*
X120070476Y-101814285D01*
X120118095Y-101909523D01*
X120213333Y-102004761D01*
X120356190Y-102052380D01*
X120594285Y-102052380D01*
X119070476Y-102052380D02*
X119641904Y-102052380D01*
X119356190Y-102052380D02*
X119356190Y-101052380D01*
X119451428Y-101195238D01*
X119546666Y-101290476D01*
X119641904Y-101338095D01*
X118594285Y-102052380D02*
X118403809Y-102052380D01*
X118308571Y-102004761D01*
X118260952Y-101957142D01*
X118165714Y-101814285D01*
X118118095Y-101623809D01*
X118118095Y-101242857D01*
X118165714Y-101147619D01*
X118213333Y-101100000D01*
X118308571Y-101052380D01*
X118499047Y-101052380D01*
X118594285Y-101100000D01*
X118641904Y-101147619D01*
X118689523Y-101242857D01*
X118689523Y-101480952D01*
X118641904Y-101576190D01*
X118594285Y-101623809D01*
X118499047Y-101671428D01*
X118308571Y-101671428D01*
X118213333Y-101623809D01*
X118165714Y-101576190D01*
X118118095Y-101480952D01*
%TO.C,C8*%
X151169642Y-91908333D02*
X151217261Y-91860714D01*
X151264880Y-91717857D01*
X151264880Y-91622619D01*
X151217261Y-91479761D01*
X151122023Y-91384523D01*
X151026785Y-91336904D01*
X150836309Y-91289285D01*
X150693452Y-91289285D01*
X150502976Y-91336904D01*
X150407738Y-91384523D01*
X150312500Y-91479761D01*
X150264880Y-91622619D01*
X150264880Y-91717857D01*
X150312500Y-91860714D01*
X150360119Y-91908333D01*
X150693452Y-92479761D02*
X150645833Y-92384523D01*
X150598214Y-92336904D01*
X150502976Y-92289285D01*
X150455357Y-92289285D01*
X150360119Y-92336904D01*
X150312500Y-92384523D01*
X150264880Y-92479761D01*
X150264880Y-92670238D01*
X150312500Y-92765476D01*
X150360119Y-92813095D01*
X150455357Y-92860714D01*
X150502976Y-92860714D01*
X150598214Y-92813095D01*
X150645833Y-92765476D01*
X150693452Y-92670238D01*
X150693452Y-92479761D01*
X150741071Y-92384523D01*
X150788690Y-92336904D01*
X150883928Y-92289285D01*
X151074404Y-92289285D01*
X151169642Y-92336904D01*
X151217261Y-92384523D01*
X151264880Y-92479761D01*
X151264880Y-92670238D01*
X151217261Y-92765476D01*
X151169642Y-92813095D01*
X151074404Y-92860714D01*
X150883928Y-92860714D01*
X150788690Y-92813095D01*
X150741071Y-92765476D01*
X150693452Y-92670238D01*
%TO.C,D2*%
X124905695Y-119832380D02*
X124905695Y-118832380D01*
X124667600Y-118832380D01*
X124524742Y-118880000D01*
X124429504Y-118975238D01*
X124381885Y-119070476D01*
X124334266Y-119260952D01*
X124334266Y-119403809D01*
X124381885Y-119594285D01*
X124429504Y-119689523D01*
X124524742Y-119784761D01*
X124667600Y-119832380D01*
X124905695Y-119832380D01*
X123953314Y-118927619D02*
X123905695Y-118880000D01*
X123810457Y-118832380D01*
X123572361Y-118832380D01*
X123477123Y-118880000D01*
X123429504Y-118927619D01*
X123381885Y-119022857D01*
X123381885Y-119118095D01*
X123429504Y-119260952D01*
X124000933Y-119832380D01*
X123381885Y-119832380D01*
%TO.C,C11*%
X187017857Y-124182142D02*
X187065476Y-124229761D01*
X187208333Y-124277380D01*
X187303571Y-124277380D01*
X187446428Y-124229761D01*
X187541666Y-124134523D01*
X187589285Y-124039285D01*
X187636904Y-123848809D01*
X187636904Y-123705952D01*
X187589285Y-123515476D01*
X187541666Y-123420238D01*
X187446428Y-123325000D01*
X187303571Y-123277380D01*
X187208333Y-123277380D01*
X187065476Y-123325000D01*
X187017857Y-123372619D01*
X186065476Y-124277380D02*
X186636904Y-124277380D01*
X186351190Y-124277380D02*
X186351190Y-123277380D01*
X186446428Y-123420238D01*
X186541666Y-123515476D01*
X186636904Y-123563095D01*
X185113095Y-124277380D02*
X185684523Y-124277380D01*
X185398809Y-124277380D02*
X185398809Y-123277380D01*
X185494047Y-123420238D01*
X185589285Y-123515476D01*
X185684523Y-123563095D01*
%TO.C,D22*%
X163774285Y-107862380D02*
X163774285Y-106862380D01*
X163536190Y-106862380D01*
X163393333Y-106910000D01*
X163298095Y-107005238D01*
X163250476Y-107100476D01*
X163202857Y-107290952D01*
X163202857Y-107433809D01*
X163250476Y-107624285D01*
X163298095Y-107719523D01*
X163393333Y-107814761D01*
X163536190Y-107862380D01*
X163774285Y-107862380D01*
X162821904Y-106957619D02*
X162774285Y-106910000D01*
X162679047Y-106862380D01*
X162440952Y-106862380D01*
X162345714Y-106910000D01*
X162298095Y-106957619D01*
X162250476Y-107052857D01*
X162250476Y-107148095D01*
X162298095Y-107290952D01*
X162869523Y-107862380D01*
X162250476Y-107862380D01*
X161869523Y-106957619D02*
X161821904Y-106910000D01*
X161726666Y-106862380D01*
X161488571Y-106862380D01*
X161393333Y-106910000D01*
X161345714Y-106957619D01*
X161298095Y-107052857D01*
X161298095Y-107148095D01*
X161345714Y-107290952D01*
X161917142Y-107862380D01*
X161298095Y-107862380D01*
%TO.C,C13*%
X161329642Y-70477142D02*
X161377261Y-70429523D01*
X161424880Y-70286666D01*
X161424880Y-70191428D01*
X161377261Y-70048571D01*
X161282023Y-69953333D01*
X161186785Y-69905714D01*
X160996309Y-69858095D01*
X160853452Y-69858095D01*
X160662976Y-69905714D01*
X160567738Y-69953333D01*
X160472500Y-70048571D01*
X160424880Y-70191428D01*
X160424880Y-70286666D01*
X160472500Y-70429523D01*
X160520119Y-70477142D01*
X161424880Y-71429523D02*
X161424880Y-70858095D01*
X161424880Y-71143809D02*
X160424880Y-71143809D01*
X160567738Y-71048571D01*
X160662976Y-70953333D01*
X160710595Y-70858095D01*
X160424880Y-71762857D02*
X160424880Y-72381904D01*
X160805833Y-72048571D01*
X160805833Y-72191428D01*
X160853452Y-72286666D01*
X160901071Y-72334285D01*
X160996309Y-72381904D01*
X161234404Y-72381904D01*
X161329642Y-72334285D01*
X161377261Y-72286666D01*
X161424880Y-72191428D01*
X161424880Y-71905714D01*
X161377261Y-71810476D01*
X161329642Y-71762857D01*
%TO.C,D11*%
X127452380Y-83875714D02*
X126452380Y-83875714D01*
X126452380Y-84113809D01*
X126500000Y-84256666D01*
X126595238Y-84351904D01*
X126690476Y-84399523D01*
X126880952Y-84447142D01*
X127023809Y-84447142D01*
X127214285Y-84399523D01*
X127309523Y-84351904D01*
X127404761Y-84256666D01*
X127452380Y-84113809D01*
X127452380Y-83875714D01*
X127452380Y-85399523D02*
X127452380Y-84828095D01*
X127452380Y-85113809D02*
X126452380Y-85113809D01*
X126595238Y-85018571D01*
X126690476Y-84923333D01*
X126738095Y-84828095D01*
X127452380Y-86351904D02*
X127452380Y-85780476D01*
X127452380Y-86066190D02*
X126452380Y-86066190D01*
X126595238Y-85970952D01*
X126690476Y-85875714D01*
X126738095Y-85780476D01*
%TO.C,R5*%
X118276666Y-81732380D02*
X118610000Y-81256190D01*
X118848095Y-81732380D02*
X118848095Y-80732380D01*
X118467142Y-80732380D01*
X118371904Y-80780000D01*
X118324285Y-80827619D01*
X118276666Y-80922857D01*
X118276666Y-81065714D01*
X118324285Y-81160952D01*
X118371904Y-81208571D01*
X118467142Y-81256190D01*
X118848095Y-81256190D01*
X117371904Y-80732380D02*
X117848095Y-80732380D01*
X117895714Y-81208571D01*
X117848095Y-81160952D01*
X117752857Y-81113333D01*
X117514761Y-81113333D01*
X117419523Y-81160952D01*
X117371904Y-81208571D01*
X117324285Y-81303809D01*
X117324285Y-81541904D01*
X117371904Y-81637142D01*
X117419523Y-81684761D01*
X117514761Y-81732380D01*
X117752857Y-81732380D01*
X117848095Y-81684761D01*
X117895714Y-81637142D01*
%TO.C,C1*%
X171807142Y-129373333D02*
X171854761Y-129325714D01*
X171902380Y-129182857D01*
X171902380Y-129087619D01*
X171854761Y-128944761D01*
X171759523Y-128849523D01*
X171664285Y-128801904D01*
X171473809Y-128754285D01*
X171330952Y-128754285D01*
X171140476Y-128801904D01*
X171045238Y-128849523D01*
X170950000Y-128944761D01*
X170902380Y-129087619D01*
X170902380Y-129182857D01*
X170950000Y-129325714D01*
X170997619Y-129373333D01*
X171902380Y-130325714D02*
X171902380Y-129754285D01*
X171902380Y-130040000D02*
X170902380Y-130040000D01*
X171045238Y-129944761D01*
X171140476Y-129849523D01*
X171188095Y-129754285D01*
%TO.C,C10*%
X122562857Y-124817142D02*
X122610476Y-124864761D01*
X122753333Y-124912380D01*
X122848571Y-124912380D01*
X122991428Y-124864761D01*
X123086666Y-124769523D01*
X123134285Y-124674285D01*
X123181904Y-124483809D01*
X123181904Y-124340952D01*
X123134285Y-124150476D01*
X123086666Y-124055238D01*
X122991428Y-123960000D01*
X122848571Y-123912380D01*
X122753333Y-123912380D01*
X122610476Y-123960000D01*
X122562857Y-124007619D01*
X121610476Y-124912380D02*
X122181904Y-124912380D01*
X121896190Y-124912380D02*
X121896190Y-123912380D01*
X121991428Y-124055238D01*
X122086666Y-124150476D01*
X122181904Y-124198095D01*
X120991428Y-123912380D02*
X120896190Y-123912380D01*
X120800952Y-123960000D01*
X120753333Y-124007619D01*
X120705714Y-124102857D01*
X120658095Y-124293333D01*
X120658095Y-124531428D01*
X120705714Y-124721904D01*
X120753333Y-124817142D01*
X120800952Y-124864761D01*
X120896190Y-124912380D01*
X120991428Y-124912380D01*
X121086666Y-124864761D01*
X121134285Y-124817142D01*
X121181904Y-124721904D01*
X121229523Y-124531428D01*
X121229523Y-124293333D01*
X121181904Y-124102857D01*
X121134285Y-124007619D01*
X121086666Y-123960000D01*
X120991428Y-123912380D01*
%TO.C,Y1*%
X163812590Y-129706190D02*
X163812590Y-130182380D01*
X164145923Y-129182380D02*
X163812590Y-129706190D01*
X163479257Y-129182380D01*
X162622114Y-130182380D02*
X163193542Y-130182380D01*
X162907828Y-130182380D02*
X162907828Y-129182380D01*
X163003066Y-129325238D01*
X163098304Y-129420476D01*
X163193542Y-129468095D01*
%TO.C,D18*%
X120594285Y-94432380D02*
X120594285Y-93432380D01*
X120356190Y-93432380D01*
X120213333Y-93480000D01*
X120118095Y-93575238D01*
X120070476Y-93670476D01*
X120022857Y-93860952D01*
X120022857Y-94003809D01*
X120070476Y-94194285D01*
X120118095Y-94289523D01*
X120213333Y-94384761D01*
X120356190Y-94432380D01*
X120594285Y-94432380D01*
X119070476Y-94432380D02*
X119641904Y-94432380D01*
X119356190Y-94432380D02*
X119356190Y-93432380D01*
X119451428Y-93575238D01*
X119546666Y-93670476D01*
X119641904Y-93718095D01*
X118499047Y-93860952D02*
X118594285Y-93813333D01*
X118641904Y-93765714D01*
X118689523Y-93670476D01*
X118689523Y-93622857D01*
X118641904Y-93527619D01*
X118594285Y-93480000D01*
X118499047Y-93432380D01*
X118308571Y-93432380D01*
X118213333Y-93480000D01*
X118165714Y-93527619D01*
X118118095Y-93622857D01*
X118118095Y-93670476D01*
X118165714Y-93765714D01*
X118213333Y-93813333D01*
X118308571Y-93860952D01*
X118499047Y-93860952D01*
X118594285Y-93908571D01*
X118641904Y-93956190D01*
X118689523Y-94051428D01*
X118689523Y-94241904D01*
X118641904Y-94337142D01*
X118594285Y-94384761D01*
X118499047Y-94432380D01*
X118308571Y-94432380D01*
X118213333Y-94384761D01*
X118165714Y-94337142D01*
X118118095Y-94241904D01*
X118118095Y-94051428D01*
X118165714Y-93956190D01*
X118213333Y-93908571D01*
X118308571Y-93860952D01*
%TO.C,D23*%
X182444285Y-103862380D02*
X182444285Y-102862380D01*
X182206190Y-102862380D01*
X182063333Y-102910000D01*
X181968095Y-103005238D01*
X181920476Y-103100476D01*
X181872857Y-103290952D01*
X181872857Y-103433809D01*
X181920476Y-103624285D01*
X181968095Y-103719523D01*
X182063333Y-103814761D01*
X182206190Y-103862380D01*
X182444285Y-103862380D01*
X181491904Y-102957619D02*
X181444285Y-102910000D01*
X181349047Y-102862380D01*
X181110952Y-102862380D01*
X181015714Y-102910000D01*
X180968095Y-102957619D01*
X180920476Y-103052857D01*
X180920476Y-103148095D01*
X180968095Y-103290952D01*
X181539523Y-103862380D01*
X180920476Y-103862380D01*
X180587142Y-102862380D02*
X179968095Y-102862380D01*
X180301428Y-103243333D01*
X180158571Y-103243333D01*
X180063333Y-103290952D01*
X180015714Y-103338571D01*
X179968095Y-103433809D01*
X179968095Y-103671904D01*
X180015714Y-103767142D01*
X180063333Y-103814761D01*
X180158571Y-103862380D01*
X180444285Y-103862380D01*
X180539523Y-103814761D01*
X180587142Y-103767142D01*
%TO.C,D12*%
X145962380Y-82605714D02*
X144962380Y-82605714D01*
X144962380Y-82843809D01*
X145010000Y-82986666D01*
X145105238Y-83081904D01*
X145200476Y-83129523D01*
X145390952Y-83177142D01*
X145533809Y-83177142D01*
X145724285Y-83129523D01*
X145819523Y-83081904D01*
X145914761Y-82986666D01*
X145962380Y-82843809D01*
X145962380Y-82605714D01*
X145962380Y-84129523D02*
X145962380Y-83558095D01*
X145962380Y-83843809D02*
X144962380Y-83843809D01*
X145105238Y-83748571D01*
X145200476Y-83653333D01*
X145248095Y-83558095D01*
X145057619Y-84510476D02*
X145010000Y-84558095D01*
X144962380Y-84653333D01*
X144962380Y-84891428D01*
X145010000Y-84986666D01*
X145057619Y-85034285D01*
X145152857Y-85081904D01*
X145248095Y-85081904D01*
X145390952Y-85034285D01*
X145962380Y-84462857D01*
X145962380Y-85081904D01*
%TO.C,SW4*%
X151193333Y-114704761D02*
X151050476Y-114752380D01*
X150812380Y-114752380D01*
X150717142Y-114704761D01*
X150669523Y-114657142D01*
X150621904Y-114561904D01*
X150621904Y-114466666D01*
X150669523Y-114371428D01*
X150717142Y-114323809D01*
X150812380Y-114276190D01*
X151002857Y-114228571D01*
X151098095Y-114180952D01*
X151145714Y-114133333D01*
X151193333Y-114038095D01*
X151193333Y-113942857D01*
X151145714Y-113847619D01*
X151098095Y-113800000D01*
X151002857Y-113752380D01*
X150764761Y-113752380D01*
X150621904Y-113800000D01*
X150288571Y-113752380D02*
X150050476Y-114752380D01*
X149860000Y-114038095D01*
X149669523Y-114752380D01*
X149431428Y-113752380D01*
X148621904Y-114085714D02*
X148621904Y-114752380D01*
X148860000Y-113704761D02*
X149098095Y-114419047D01*
X148479047Y-114419047D01*
%TO.C,R3*%
X191936666Y-114752380D02*
X192270000Y-114276190D01*
X192508095Y-114752380D02*
X192508095Y-113752380D01*
X192127142Y-113752380D01*
X192031904Y-113800000D01*
X191984285Y-113847619D01*
X191936666Y-113942857D01*
X191936666Y-114085714D01*
X191984285Y-114180952D01*
X192031904Y-114228571D01*
X192127142Y-114276190D01*
X192508095Y-114276190D01*
X191603333Y-113752380D02*
X190984285Y-113752380D01*
X191317619Y-114133333D01*
X191174761Y-114133333D01*
X191079523Y-114180952D01*
X191031904Y-114228571D01*
X190984285Y-114323809D01*
X190984285Y-114561904D01*
X191031904Y-114657142D01*
X191079523Y-114704761D01*
X191174761Y-114752380D01*
X191460476Y-114752380D01*
X191555714Y-114704761D01*
X191603333Y-114657142D01*
%TO.C,U2*%
X184891904Y-85652380D02*
X184891904Y-86461904D01*
X184844285Y-86557142D01*
X184796666Y-86604761D01*
X184701428Y-86652380D01*
X184510952Y-86652380D01*
X184415714Y-86604761D01*
X184368095Y-86557142D01*
X184320476Y-86461904D01*
X184320476Y-85652380D01*
X183891904Y-85747619D02*
X183844285Y-85700000D01*
X183749047Y-85652380D01*
X183510952Y-85652380D01*
X183415714Y-85700000D01*
X183368095Y-85747619D01*
X183320476Y-85842857D01*
X183320476Y-85938095D01*
X183368095Y-86080952D01*
X183939523Y-86652380D01*
X183320476Y-86652380D01*
%TO.C,C16*%
X183647142Y-70477142D02*
X183694761Y-70429523D01*
X183742380Y-70286666D01*
X183742380Y-70191428D01*
X183694761Y-70048571D01*
X183599523Y-69953333D01*
X183504285Y-69905714D01*
X183313809Y-69858095D01*
X183170952Y-69858095D01*
X182980476Y-69905714D01*
X182885238Y-69953333D01*
X182790000Y-70048571D01*
X182742380Y-70191428D01*
X182742380Y-70286666D01*
X182790000Y-70429523D01*
X182837619Y-70477142D01*
X183742380Y-71429523D02*
X183742380Y-70858095D01*
X183742380Y-71143809D02*
X182742380Y-71143809D01*
X182885238Y-71048571D01*
X182980476Y-70953333D01*
X183028095Y-70858095D01*
X182742380Y-72286666D02*
X182742380Y-72096190D01*
X182790000Y-72000952D01*
X182837619Y-71953333D01*
X182980476Y-71858095D01*
X183170952Y-71810476D01*
X183551904Y-71810476D01*
X183647142Y-71858095D01*
X183694761Y-71905714D01*
X183742380Y-72000952D01*
X183742380Y-72191428D01*
X183694761Y-72286666D01*
X183647142Y-72334285D01*
X183551904Y-72381904D01*
X183313809Y-72381904D01*
X183218571Y-72334285D01*
X183170952Y-72286666D01*
X183123333Y-72191428D01*
X183123333Y-72000952D01*
X183170952Y-71905714D01*
X183218571Y-71858095D01*
X183313809Y-71810476D01*
%TO.C,C12*%
X173487142Y-91432142D02*
X173534761Y-91384523D01*
X173582380Y-91241666D01*
X173582380Y-91146428D01*
X173534761Y-91003571D01*
X173439523Y-90908333D01*
X173344285Y-90860714D01*
X173153809Y-90813095D01*
X173010952Y-90813095D01*
X172820476Y-90860714D01*
X172725238Y-90908333D01*
X172630000Y-91003571D01*
X172582380Y-91146428D01*
X172582380Y-91241666D01*
X172630000Y-91384523D01*
X172677619Y-91432142D01*
X173582380Y-92384523D02*
X173582380Y-91813095D01*
X173582380Y-92098809D02*
X172582380Y-92098809D01*
X172725238Y-92003571D01*
X172820476Y-91908333D01*
X172868095Y-91813095D01*
X172677619Y-92765476D02*
X172630000Y-92813095D01*
X172582380Y-92908333D01*
X172582380Y-93146428D01*
X172630000Y-93241666D01*
X172677619Y-93289285D01*
X172772857Y-93336904D01*
X172868095Y-93336904D01*
X173010952Y-93289285D01*
X173582380Y-92717857D01*
X173582380Y-93336904D01*
%TO.C,D32*%
X134501068Y-97173990D02*
X133501068Y-97173990D01*
X133501068Y-97412085D01*
X133548688Y-97554942D01*
X133643926Y-97650180D01*
X133739164Y-97697799D01*
X133929640Y-97745418D01*
X134072497Y-97745418D01*
X134262973Y-97697799D01*
X134358211Y-97650180D01*
X134453449Y-97554942D01*
X134501068Y-97412085D01*
X134501068Y-97173990D01*
X133501068Y-98078752D02*
X133501068Y-98697799D01*
X133882021Y-98364466D01*
X133882021Y-98507323D01*
X133929640Y-98602561D01*
X133977259Y-98650180D01*
X134072497Y-98697799D01*
X134310592Y-98697799D01*
X134405830Y-98650180D01*
X134453449Y-98602561D01*
X134501068Y-98507323D01*
X134501068Y-98221609D01*
X134453449Y-98126371D01*
X134405830Y-98078752D01*
X133596307Y-99078752D02*
X133548688Y-99126371D01*
X133501068Y-99221609D01*
X133501068Y-99459704D01*
X133548688Y-99554942D01*
X133596307Y-99602561D01*
X133691545Y-99650180D01*
X133786783Y-99650180D01*
X133929640Y-99602561D01*
X134501068Y-99031133D01*
X134501068Y-99650180D01*
%TO.C,C2*%
X169267142Y-129607083D02*
X169314761Y-129559464D01*
X169362380Y-129416607D01*
X169362380Y-129321369D01*
X169314761Y-129178511D01*
X169219523Y-129083273D01*
X169124285Y-129035654D01*
X168933809Y-128988035D01*
X168790952Y-128988035D01*
X168600476Y-129035654D01*
X168505238Y-129083273D01*
X168410000Y-129178511D01*
X168362380Y-129321369D01*
X168362380Y-129416607D01*
X168410000Y-129559464D01*
X168457619Y-129607083D01*
X168457619Y-129988035D02*
X168410000Y-130035654D01*
X168362380Y-130130892D01*
X168362380Y-130368988D01*
X168410000Y-130464226D01*
X168457619Y-130511845D01*
X168552857Y-130559464D01*
X168648095Y-130559464D01*
X168790952Y-130511845D01*
X169362380Y-129940416D01*
X169362380Y-130559464D01*
%TO.C,C3*%
X157837142Y-129607083D02*
X157884761Y-129559464D01*
X157932380Y-129416607D01*
X157932380Y-129321369D01*
X157884761Y-129178511D01*
X157789523Y-129083273D01*
X157694285Y-129035654D01*
X157503809Y-128988035D01*
X157360952Y-128988035D01*
X157170476Y-129035654D01*
X157075238Y-129083273D01*
X156980000Y-129178511D01*
X156932380Y-129321369D01*
X156932380Y-129416607D01*
X156980000Y-129559464D01*
X157027619Y-129607083D01*
X156932380Y-129940416D02*
X156932380Y-130559464D01*
X157313333Y-130226130D01*
X157313333Y-130368988D01*
X157360952Y-130464226D01*
X157408571Y-130511845D01*
X157503809Y-130559464D01*
X157741904Y-130559464D01*
X157837142Y-130511845D01*
X157884761Y-130464226D01*
X157932380Y-130368988D01*
X157932380Y-130083273D01*
X157884761Y-129988035D01*
X157837142Y-129940416D01*
%TO.C,D21*%
X144724285Y-103862380D02*
X144724285Y-102862380D01*
X144486190Y-102862380D01*
X144343333Y-102910000D01*
X144248095Y-103005238D01*
X144200476Y-103100476D01*
X144152857Y-103290952D01*
X144152857Y-103433809D01*
X144200476Y-103624285D01*
X144248095Y-103719523D01*
X144343333Y-103814761D01*
X144486190Y-103862380D01*
X144724285Y-103862380D01*
X143771904Y-102957619D02*
X143724285Y-102910000D01*
X143629047Y-102862380D01*
X143390952Y-102862380D01*
X143295714Y-102910000D01*
X143248095Y-102957619D01*
X143200476Y-103052857D01*
X143200476Y-103148095D01*
X143248095Y-103290952D01*
X143819523Y-103862380D01*
X143200476Y-103862380D01*
X142248095Y-103862380D02*
X142819523Y-103862380D01*
X142533809Y-103862380D02*
X142533809Y-102862380D01*
X142629047Y-103005238D01*
X142724285Y-103100476D01*
X142819523Y-103148095D01*
D11*
%TO.C,MX6*%
X183017600Y-91937500D02*
X183317600Y-91937500D01*
X183317600Y-91937500D02*
X183317600Y-91637500D01*
%TO.C,MX5*%
X164267600Y-92000000D02*
X164267600Y-91700000D01*
X163967600Y-92000000D02*
X164267600Y-92000000D01*
%TO.C,MX4*%
X144917600Y-92000000D02*
X145217600Y-92000000D01*
X145217600Y-92000000D02*
X145217600Y-91700000D01*
%TO.C,MX3*%
X173792600Y-72950000D02*
X173792600Y-72650000D01*
X173492600Y-72950000D02*
X173792600Y-72950000D01*
%TO.C,MX1*%
X135392600Y-72887500D02*
X135692600Y-72887500D01*
X135692600Y-72887500D02*
X135692600Y-72587500D01*
%TO.C,MX2*%
X154442600Y-72950000D02*
X154742600Y-72950000D01*
X154742600Y-72950000D02*
X154742600Y-72650000D01*
%TO.C,D5*%
X193698900Y-116630000D02*
X193698900Y-117780000D01*
X186398900Y-116630000D02*
X193698900Y-116630000D01*
X186398900Y-122130000D02*
X193698900Y-122130000D01*
D10*
%TO.C,U1*%
X157886400Y-109918800D02*
X158561400Y-109918800D01*
X168236400Y-109918800D02*
X167561400Y-109918800D01*
X168236400Y-120268800D02*
X167561400Y-120268800D01*
X157886400Y-120268800D02*
X157886400Y-119593800D01*
X168236400Y-109918800D02*
X168236400Y-110493800D01*
X168236400Y-120268800D02*
X168236400Y-119593800D01*
X157886400Y-109918800D02*
X157886400Y-110593800D01*
X168236400Y-110493800D02*
X169511400Y-110493800D01*
X157886400Y-120268800D02*
X158561400Y-120268800D01*
D11*
%TO.C,C7*%
X179605000Y-114561252D02*
X179605000Y-114038748D01*
X181075000Y-114561252D02*
X181075000Y-114038748D01*
%TO.C,C14*%
X184411252Y-78005000D02*
X183888748Y-78005000D01*
X184411252Y-79475000D02*
X183888748Y-79475000D01*
%TO.C,R4*%
X120422936Y-78005000D02*
X120877064Y-78005000D01*
X120422936Y-79475000D02*
X120877064Y-79475000D01*
%TO.C,C17*%
X191508748Y-79475000D02*
X192031252Y-79475000D01*
X191508748Y-78005000D02*
X192031252Y-78005000D01*
%TO.C,R7*%
X125957064Y-113565000D02*
X125502936Y-113565000D01*
X125957064Y-115035000D02*
X125502936Y-115035000D01*
%TO.C,D33*%
X133105100Y-109406300D02*
X131105100Y-109406300D01*
X131105100Y-109406300D02*
X131105100Y-105506300D01*
X133105100Y-109406300D02*
X133105100Y-105506300D01*
%TO.C,D14*%
X125570000Y-70910000D02*
X125570000Y-72060000D01*
X118270000Y-76410000D02*
X125570000Y-76410000D01*
X118270000Y-70910000D02*
X125570000Y-70910000D01*
%TO.C,R1*%
X175775000Y-119249564D02*
X175775000Y-118795436D01*
X177245000Y-119249564D02*
X177245000Y-118795436D01*
%TO.C,D13*%
X161560000Y-86070000D02*
X161560000Y-82170000D01*
X163560000Y-86070000D02*
X163560000Y-82170000D01*
X163560000Y-86070000D02*
X161560000Y-86070000D01*
%TO.C,R2*%
X175795000Y-114072936D02*
X175795000Y-114527064D01*
X177265000Y-114072936D02*
X177265000Y-114527064D01*
%TO.C,C9*%
X142775000Y-71381252D02*
X142775000Y-70858748D01*
X144245000Y-71381252D02*
X144245000Y-70858748D01*
%TO.C,C15*%
X191235000Y-92336252D02*
X191235000Y-91813748D01*
X189765000Y-92336252D02*
X189765000Y-91813748D01*
%TO.C,D17*%
X120405100Y-109343800D02*
X118405100Y-109343800D01*
X120405100Y-109343800D02*
X120405100Y-105443800D01*
X118405100Y-109343800D02*
X118405100Y-105443800D01*
%TO.C,C5*%
X182145000Y-114038748D02*
X182145000Y-114561252D01*
X183615000Y-114038748D02*
X183615000Y-114561252D01*
%TO.C,D9*%
X195420000Y-70910000D02*
X195420000Y-72060000D01*
X188120000Y-70910000D02*
X195420000Y-70910000D01*
X188120000Y-76410000D02*
X195420000Y-76410000D01*
%TO.C,C6*%
X173455000Y-115308748D02*
X173455000Y-115831252D01*
X171985000Y-115308748D02*
X171985000Y-115831252D01*
%TO.C,C4*%
X154205000Y-126418748D02*
X154205000Y-126941252D01*
X155675000Y-126418748D02*
X155675000Y-126941252D01*
%TO.C,D31*%
X133105100Y-92737500D02*
X133105100Y-88837500D01*
X133105100Y-92737500D02*
X131105100Y-92737500D01*
X131105100Y-92737500D02*
X131105100Y-88837500D01*
%TO.C,R6*%
X120877064Y-83085000D02*
X120422936Y-83085000D01*
X120877064Y-84555000D02*
X120422936Y-84555000D01*
%TO.C,D19*%
X120405100Y-100612600D02*
X120405100Y-96712600D01*
X118405100Y-100612600D02*
X118405100Y-96712600D01*
X120405100Y-100612600D02*
X118405100Y-100612600D01*
%TO.C,C8*%
X153135000Y-92336252D02*
X153135000Y-91813748D01*
X151665000Y-92336252D02*
X151665000Y-91813748D01*
%TO.C,D2*%
X120517600Y-122130000D02*
X120517600Y-120980000D01*
X127817600Y-116630000D02*
X120517600Y-116630000D01*
X127817600Y-122130000D02*
X120517600Y-122130000D01*
%TO.C,C11*%
X189288748Y-124560000D02*
X189811252Y-124560000D01*
X189288748Y-123090000D02*
X189811252Y-123090000D01*
%TO.C,D22*%
X160310000Y-106410000D02*
X160310000Y-104410000D01*
X160310000Y-104410000D02*
X164210000Y-104410000D01*
X160310000Y-106410000D02*
X164210000Y-106410000D01*
%TO.C,C13*%
X163295000Y-71381252D02*
X163295000Y-70858748D01*
X161825000Y-71381252D02*
X161825000Y-70858748D01*
%TO.C,D11*%
X123460000Y-86070000D02*
X123460000Y-82170000D01*
X125460000Y-86070000D02*
X123460000Y-86070000D01*
X125460000Y-86070000D02*
X125460000Y-82170000D01*
%TO.C,R5*%
X120422936Y-80545000D02*
X120877064Y-80545000D01*
X120422936Y-82015000D02*
X120877064Y-82015000D01*
%TO.C,C1*%
X170715000Y-126941252D02*
X170715000Y-126418748D01*
X172185000Y-126941252D02*
X172185000Y-126418748D01*
%TO.C,C10*%
X126016352Y-124560000D02*
X125493848Y-124560000D01*
X126016352Y-123090000D02*
X125493848Y-123090000D01*
%TO.C,Y1*%
X160498900Y-128930000D02*
X160498900Y-124430000D01*
X160498900Y-124430000D02*
X165898900Y-124430000D01*
%TO.C,D18*%
X120405100Y-92737500D02*
X120405100Y-88837500D01*
X118405100Y-92737500D02*
X118405100Y-88837500D01*
X120405100Y-92737500D02*
X118405100Y-92737500D01*
%TO.C,D23*%
X183480000Y-104410000D02*
X179580000Y-104410000D01*
X183480000Y-106410000D02*
X179580000Y-106410000D01*
X183480000Y-104410000D02*
X183480000Y-106410000D01*
%TO.C,D12*%
X144510000Y-86070000D02*
X142510000Y-86070000D01*
X144510000Y-86070000D02*
X144510000Y-82170000D01*
X142510000Y-86070000D02*
X142510000Y-82170000D01*
D10*
%TO.C,SW4*%
X146110000Y-111700000D02*
X140910000Y-111700000D01*
X140910000Y-116900000D02*
X146110000Y-116900000D01*
X140910000Y-111700000D02*
X140910000Y-116900000D01*
X146110000Y-116900000D02*
X146110000Y-111700000D01*
X144510000Y-114300000D02*
G75*
G03*
X144510000Y-114300000I-1000000J0D01*
G01*
D11*
%TO.C,R3*%
X189457064Y-113565000D02*
X189002936Y-113565000D01*
X189457064Y-115035000D02*
X189002936Y-115035000D01*
%TO.C,U2*%
X184800000Y-85380000D02*
X181800000Y-85380000D01*
X183500000Y-82260000D02*
X184800000Y-82260000D01*
%TO.C,C16*%
X182345000Y-71381252D02*
X182345000Y-70858748D01*
X180875000Y-71381252D02*
X180875000Y-70858748D01*
%TO.C,C12*%
X170715000Y-92336252D02*
X170715000Y-91813748D01*
X172185000Y-92336252D02*
X172185000Y-91813748D01*
%TO.C,D32*%
X131105100Y-100675000D02*
X131105100Y-96775000D01*
X133105100Y-100675000D02*
X131105100Y-100675000D01*
X133105100Y-100675000D02*
X133105100Y-96775000D01*
%TO.C,C2*%
X168175000Y-126418748D02*
X168175000Y-126941252D01*
X169645000Y-126418748D02*
X169645000Y-126941252D01*
%TO.C,C3*%
X158215000Y-126941252D02*
X158215000Y-126418748D01*
X156745000Y-126941252D02*
X156745000Y-126418748D01*
%TO.C,D21*%
X145760000Y-106410000D02*
X141860000Y-106410000D01*
X145760000Y-104410000D02*
X145760000Y-106410000D01*
X145760000Y-104410000D02*
X141860000Y-104410000D01*
%TD*%
M02*
