%TF.GenerationSoftware,KiCad,Pcbnew,(6.0.5)*%
%TF.CreationDate,2022-06-03T20:07:04+07:00*%
%TF.ProjectId,atelier-alter,6174656c-6965-4722-9d61-6c7465722e6b,rev?*%
%TF.SameCoordinates,Original*%
%TF.FileFunction,Soldermask,Bot*%
%TF.FilePolarity,Negative*%
%FSLAX46Y46*%
G04 Gerber Fmt 4.6, Leading zero omitted, Abs format (unit mm)*
G04 Created by KiCad (PCBNEW (6.0.5)) date 2022-06-03 20:07:04*
%MOMM*%
%LPD*%
G01*
G04 APERTURE LIST*
G04 Aperture macros list*
%AMRoundRect*
0 Rectangle with rounded corners*
0 $1 Rounding radius*
0 $2 $3 $4 $5 $6 $7 $8 $9 X,Y pos of 4 corners*
0 Add a 4 corners polygon primitive as box body*
4,1,4,$2,$3,$4,$5,$6,$7,$8,$9,$2,$3,0*
0 Add four circle primitives for the rounded corners*
1,1,$1+$1,$2,$3*
1,1,$1+$1,$4,$5*
1,1,$1+$1,$6,$7*
1,1,$1+$1,$8,$9*
0 Add four rect primitives between the rounded corners*
20,1,$1+$1,$2,$3,$4,$5,0*
20,1,$1+$1,$4,$5,$6,$7,0*
20,1,$1+$1,$6,$7,$8,$9,0*
20,1,$1+$1,$8,$9,$2,$3,0*%
G04 Aperture macros list end*
%ADD10RoundRect,0.250000X-0.475000X0.250000X-0.475000X-0.250000X0.475000X-0.250000X0.475000X0.250000X0*%
%ADD11C,1.700000*%
%ADD12C,4.000000*%
%ADD13C,3.000000*%
%ADD14R,1.800000X0.900000*%
%ADD15R,2.550000X2.500000*%
%ADD16C,2.000000*%
%ADD17C,5.300000*%
%ADD18C,0.650000*%
%ADD19O,1.000000X2.100000*%
%ADD20O,1.000000X1.600000*%
%ADD21R,1.500000X1.000000*%
%ADD22R,1.500000X0.550000*%
%ADD23R,0.550000X1.500000*%
%ADD24RoundRect,0.250000X-0.450000X0.262500X-0.450000X-0.262500X0.450000X-0.262500X0.450000X0.262500X0*%
%ADD25RoundRect,0.250000X0.262500X0.450000X-0.262500X0.450000X-0.262500X-0.450000X0.262500X-0.450000X0*%
%ADD26R,1.200000X0.900000*%
%ADD27RoundRect,0.250000X0.475000X-0.250000X0.475000X0.250000X-0.475000X0.250000X-0.475000X-0.250000X0*%
%ADD28RoundRect,0.250000X0.450000X-0.262500X0.450000X0.262500X-0.450000X0.262500X-0.450000X-0.262500X0*%
%ADD29R,0.900000X1.200000*%
%ADD30R,2.100000X1.800000*%
%ADD31R,1.800000X1.100000*%
G04 APERTURE END LIST*
D10*
%TO.C,C6*%
X173355000Y-119700000D03*
X173355000Y-121600000D03*
%TD*%
D11*
%TO.C,MX6*%
X176530000Y-100330000D03*
X186690000Y-100330000D03*
D12*
X181610000Y-100330000D03*
D13*
X179070000Y-105410000D03*
X185420000Y-102870000D03*
D14*
X184210000Y-96030000D03*
X184210000Y-94530000D03*
X179010000Y-96030000D03*
X179010000Y-94530000D03*
D15*
X189020000Y-102870000D03*
X175595000Y-105410000D03*
%TD*%
D16*
%TO.C,SW2*%
X122480000Y-103160000D03*
X128980000Y-103160000D03*
X122480000Y-107660000D03*
X128980000Y-107660000D03*
%TD*%
D11*
%TO.C,MX5*%
X157480000Y-100330000D03*
D13*
X160020000Y-105410000D03*
D12*
X162560000Y-100330000D03*
D11*
X167640000Y-100330000D03*
D13*
X166370000Y-102870000D03*
D14*
X165160000Y-96030000D03*
X165160000Y-94530000D03*
X159960000Y-96030000D03*
X159960000Y-94530000D03*
D15*
X169970000Y-102870000D03*
X156545000Y-105410000D03*
%TD*%
D11*
%TO.C,MX4*%
X138430000Y-100330000D03*
D13*
X147320000Y-102870000D03*
D11*
X148590000Y-100330000D03*
D12*
X143510000Y-100330000D03*
D13*
X140970000Y-105410000D03*
D14*
X146110000Y-96030000D03*
X146110000Y-94530000D03*
X140910000Y-96030000D03*
X140910000Y-94530000D03*
D15*
X150920000Y-102870000D03*
X137495000Y-105410000D03*
%TD*%
D16*
%TO.C,SW3*%
X122479900Y-111891200D03*
X128979900Y-111891200D03*
X122479900Y-116391200D03*
X128979900Y-116391200D03*
%TD*%
D17*
%TO.C,H4*%
X121920000Y-129540000D03*
%TD*%
%TO.C,H2*%
X193040000Y-66040000D03*
%TD*%
D16*
%TO.C,SW1*%
X122479900Y-94428700D03*
X128979900Y-94428700D03*
X122479900Y-98928700D03*
X128979900Y-98928700D03*
%TD*%
D17*
%TO.C,H1*%
X121920000Y-66040000D03*
%TD*%
D11*
%TO.C,MX3*%
X167005000Y-80645000D03*
D13*
X169545000Y-85725000D03*
X175895000Y-83185000D03*
D11*
X177165000Y-80645000D03*
D12*
X172085000Y-80645000D03*
D14*
X174685000Y-76345000D03*
X174685000Y-74845000D03*
X169485000Y-76345000D03*
X169485000Y-74845000D03*
D15*
X179495000Y-83185000D03*
X166070000Y-85725000D03*
%TD*%
D11*
%TO.C,MX1*%
X139065000Y-80645000D03*
X128905000Y-80645000D03*
D13*
X137795000Y-83185000D03*
X131445000Y-85725000D03*
D12*
X133985000Y-80645000D03*
D14*
X136585000Y-76345000D03*
X136585000Y-74845000D03*
X131385000Y-76345000D03*
X131385000Y-74845000D03*
D15*
X141395000Y-83185000D03*
X127970000Y-85725000D03*
%TD*%
D18*
%TO.C,USB1*%
X160370000Y-65800000D03*
X154590000Y-65800000D03*
D19*
X161800000Y-66330000D03*
D20*
X153160000Y-62150000D03*
D19*
X153160000Y-66330000D03*
D20*
X161800000Y-62150000D03*
%TD*%
D17*
%TO.C,H3*%
X193040000Y-129540000D03*
%TD*%
D11*
%TO.C,MX2*%
X158115000Y-80645000D03*
D13*
X156845000Y-83185000D03*
D11*
X147955000Y-80645000D03*
D12*
X153035000Y-80645000D03*
D13*
X150495000Y-85725000D03*
D14*
X155635000Y-76345000D03*
X155635000Y-74845000D03*
X150435000Y-76345000D03*
X150435000Y-74845000D03*
D15*
X160445000Y-83185000D03*
X147020000Y-85725000D03*
%TD*%
D21*
%TO.C,D5*%
X181065000Y-122250000D03*
X181065000Y-119050000D03*
X185965000Y-119050000D03*
X185965000Y-122250000D03*
%TD*%
D22*
%TO.C,U1*%
X168761400Y-114745000D03*
X168761400Y-115545000D03*
X168761400Y-116345000D03*
X168761400Y-117145000D03*
X168761400Y-117945000D03*
X168761400Y-118745000D03*
X168761400Y-119545000D03*
X168761400Y-120345000D03*
X168761400Y-121145000D03*
X168761400Y-121945000D03*
X168761400Y-122745000D03*
D23*
X167061400Y-124445000D03*
X166261400Y-124445000D03*
X165461400Y-124445000D03*
X164661400Y-124445000D03*
X163861400Y-124445000D03*
X163061400Y-124445000D03*
X162261400Y-124445000D03*
X161461400Y-124445000D03*
X160661400Y-124445000D03*
X159861400Y-124445000D03*
X159061400Y-124445000D03*
D22*
X157361400Y-122745000D03*
X157361400Y-121945000D03*
X157361400Y-121145000D03*
X157361400Y-120345000D03*
X157361400Y-119545000D03*
X157361400Y-118745000D03*
X157361400Y-117945000D03*
X157361400Y-117145000D03*
X157361400Y-116345000D03*
X157361400Y-115545000D03*
X157361400Y-114745000D03*
D23*
X159061400Y-113045000D03*
X159861400Y-113045000D03*
X160661400Y-113045000D03*
X161461400Y-113045000D03*
X162261400Y-113045000D03*
X163061400Y-113045000D03*
X163861400Y-113045000D03*
X164661400Y-113045000D03*
X165461400Y-113045000D03*
X166261400Y-113045000D03*
X167061400Y-113045000D03*
%TD*%
D10*
%TO.C,C7*%
X151130000Y-127955000D03*
X151130000Y-129855000D03*
%TD*%
D24*
%TO.C,R4*%
X145415000Y-68302500D03*
X145415000Y-70127500D03*
%TD*%
D25*
%TO.C,R7*%
X131087500Y-125730000D03*
X129262500Y-125730000D03*
%TD*%
D26*
%TO.C,D33*%
X132079900Y-114997500D03*
X132079900Y-111697500D03*
%TD*%
D21*
%TO.C,D14*%
X137070000Y-67615000D03*
X137070000Y-70815000D03*
X132170000Y-70815000D03*
X132170000Y-67615000D03*
%TD*%
D26*
%TO.C,D13*%
X162560000Y-90550000D03*
X162560000Y-87250000D03*
%TD*%
D27*
%TO.C,C5*%
X174625000Y-129855000D03*
X174625000Y-127955000D03*
%TD*%
D21*
%TO.C,D9*%
X182790000Y-67615000D03*
X182790000Y-70815000D03*
X177890000Y-70815000D03*
X177890000Y-67615000D03*
%TD*%
D10*
%TO.C,C4*%
X154305000Y-127955000D03*
X154305000Y-129855000D03*
%TD*%
D26*
%TO.C,D31*%
X132079900Y-98328700D03*
X132079900Y-95028700D03*
%TD*%
D28*
%TO.C,R6*%
X153670000Y-114577500D03*
X153670000Y-112752500D03*
%TD*%
D21*
%TO.C,D2*%
X129630000Y-122885000D03*
X129630000Y-119685000D03*
X134530000Y-119685000D03*
X134530000Y-122885000D03*
%TD*%
D29*
%TO.C,D22*%
X164845000Y-109220000D03*
X161545000Y-109220000D03*
%TD*%
D26*
%TO.C,D11*%
X124460000Y-90550000D03*
X124460000Y-87250000D03*
%TD*%
D24*
%TO.C,R5*%
X148590000Y-68302500D03*
X148590000Y-70127500D03*
%TD*%
D27*
%TO.C,C1*%
X171450000Y-129855000D03*
X171450000Y-127955000D03*
%TD*%
D30*
%TO.C,Y1*%
X164648900Y-130175000D03*
X161748900Y-130175000D03*
X161748900Y-127875000D03*
X164648900Y-127875000D03*
%TD*%
D29*
%TO.C,D23*%
X183895000Y-109220000D03*
X180595000Y-109220000D03*
%TD*%
D26*
%TO.C,D12*%
X143510000Y-90550000D03*
X143510000Y-87250000D03*
%TD*%
D31*
%TO.C,SW4*%
X142315000Y-119960000D03*
X148515000Y-116260000D03*
X142315000Y-116260000D03*
X148515000Y-119960000D03*
%TD*%
D25*
%TO.C,R3*%
X186332500Y-125095000D03*
X184507500Y-125095000D03*
%TD*%
D26*
%TO.C,D32*%
X132079900Y-106266200D03*
X132079900Y-102966200D03*
%TD*%
D27*
%TO.C,C2*%
X157480000Y-129855000D03*
X157480000Y-127955000D03*
%TD*%
D10*
%TO.C,C3*%
X168275000Y-129855000D03*
X168275000Y-127955000D03*
%TD*%
D29*
%TO.C,D21*%
X145160000Y-109220000D03*
X141860000Y-109220000D03*
%TD*%
M02*
