%TF.GenerationSoftware,KiCad,Pcbnew,(6.0.5)*%
%TF.CreationDate,2022-06-18T08:00:55+07:00*%
%TF.ProjectId,atelier-alter,6174656c-6965-4722-9d61-6c7465722e6b,rev?*%
%TF.SameCoordinates,Original*%
%TF.FileFunction,Legend,Bot*%
%TF.FilePolarity,Positive*%
%FSLAX46Y46*%
G04 Gerber Fmt 4.6, Leading zero omitted, Abs format (unit mm)*
G04 Created by KiCad (PCBNEW (6.0.5)) date 2022-06-18 08:00:55*
%MOMM*%
%LPD*%
G01*
G04 APERTURE LIST*
%ADD10C,0.150000*%
%ADD11C,0.120000*%
G04 APERTURE END LIST*
D10*
%TO.C,D2*%
X188698095Y-122372380D02*
X188698095Y-121372380D01*
X188460000Y-121372380D01*
X188317142Y-121420000D01*
X188221904Y-121515238D01*
X188174285Y-121610476D01*
X188126666Y-121800952D01*
X188126666Y-121943809D01*
X188174285Y-122134285D01*
X188221904Y-122229523D01*
X188317142Y-122324761D01*
X188460000Y-122372380D01*
X188698095Y-122372380D01*
X187745714Y-121467619D02*
X187698095Y-121420000D01*
X187602857Y-121372380D01*
X187364761Y-121372380D01*
X187269523Y-121420000D01*
X187221904Y-121467619D01*
X187174285Y-121562857D01*
X187174285Y-121658095D01*
X187221904Y-121800952D01*
X187793333Y-122372380D01*
X187174285Y-122372380D01*
X179079285Y-123972380D02*
X179650714Y-123972380D01*
X179365000Y-123972380D02*
X179365000Y-122972380D01*
X179460238Y-123115238D01*
X179555476Y-123210476D01*
X179650714Y-123258095D01*
%TO.C,U1*%
X163956904Y-118197380D02*
X163956904Y-119006904D01*
X163909285Y-119102142D01*
X163861666Y-119149761D01*
X163766428Y-119197380D01*
X163575952Y-119197380D01*
X163480714Y-119149761D01*
X163433095Y-119102142D01*
X163385476Y-119006904D01*
X163385476Y-118197380D01*
X162385476Y-119197380D02*
X162956904Y-119197380D01*
X162671190Y-119197380D02*
X162671190Y-118197380D01*
X162766428Y-118340238D01*
X162861666Y-118435476D01*
X162956904Y-118483095D01*
%TO.C,C7*%
X151487142Y-131913333D02*
X151534761Y-131865714D01*
X151582380Y-131722857D01*
X151582380Y-131627619D01*
X151534761Y-131484761D01*
X151439523Y-131389523D01*
X151344285Y-131341904D01*
X151153809Y-131294285D01*
X151010952Y-131294285D01*
X150820476Y-131341904D01*
X150725238Y-131389523D01*
X150630000Y-131484761D01*
X150582380Y-131627619D01*
X150582380Y-131722857D01*
X150630000Y-131865714D01*
X150677619Y-131913333D01*
X150582380Y-132246666D02*
X150582380Y-132913333D01*
X151582380Y-132484761D01*
%TO.C,R4*%
X145867380Y-65873333D02*
X145391190Y-65540000D01*
X145867380Y-65301904D02*
X144867380Y-65301904D01*
X144867380Y-65682857D01*
X144915000Y-65778095D01*
X144962619Y-65825714D01*
X145057857Y-65873333D01*
X145200714Y-65873333D01*
X145295952Y-65825714D01*
X145343571Y-65778095D01*
X145391190Y-65682857D01*
X145391190Y-65301904D01*
X145200714Y-66730476D02*
X145867380Y-66730476D01*
X144819761Y-66492380D02*
X145534047Y-66254285D01*
X145534047Y-66873333D01*
%TO.C,D33*%
X135072380Y-112110687D02*
X134072380Y-112110687D01*
X134072380Y-112348782D01*
X134120000Y-112491639D01*
X134215238Y-112586877D01*
X134310476Y-112634496D01*
X134500952Y-112682115D01*
X134643809Y-112682115D01*
X134834285Y-112634496D01*
X134929523Y-112586877D01*
X135024761Y-112491639D01*
X135072380Y-112348782D01*
X135072380Y-112110687D01*
X134072380Y-113015449D02*
X134072380Y-113634496D01*
X134453333Y-113301163D01*
X134453333Y-113444020D01*
X134500952Y-113539258D01*
X134548571Y-113586877D01*
X134643809Y-113634496D01*
X134881904Y-113634496D01*
X134977142Y-113586877D01*
X135024761Y-113539258D01*
X135072380Y-113444020D01*
X135072380Y-113158306D01*
X135024761Y-113063068D01*
X134977142Y-113015449D01*
X134072380Y-113967830D02*
X134072380Y-114586877D01*
X134453333Y-114253544D01*
X134453333Y-114396401D01*
X134500952Y-114491639D01*
X134548571Y-114539258D01*
X134643809Y-114586877D01*
X134881904Y-114586877D01*
X134977142Y-114539258D01*
X135024761Y-114491639D01*
X135072380Y-114396401D01*
X135072380Y-114110687D01*
X135024761Y-114015449D01*
X134977142Y-113967830D01*
%TO.C,D4*%
X135358095Y-66167380D02*
X135358095Y-65167380D01*
X135120000Y-65167380D01*
X134977142Y-65215000D01*
X134881904Y-65310238D01*
X134834285Y-65405476D01*
X134786666Y-65595952D01*
X134786666Y-65738809D01*
X134834285Y-65929285D01*
X134881904Y-66024523D01*
X134977142Y-66119761D01*
X135120000Y-66167380D01*
X135358095Y-66167380D01*
X133929523Y-65500714D02*
X133929523Y-66167380D01*
X134167619Y-65119761D02*
X134405714Y-65834047D01*
X133786666Y-65834047D01*
X138484285Y-68067380D02*
X139055714Y-68067380D01*
X138770000Y-68067380D02*
X138770000Y-67067380D01*
X138865238Y-67210238D01*
X138960476Y-67305476D01*
X139055714Y-67353095D01*
%TO.C,D13*%
X160631130Y-87985714D02*
X159631130Y-87985714D01*
X159631130Y-88223809D01*
X159678750Y-88366666D01*
X159773988Y-88461904D01*
X159869226Y-88509523D01*
X160059702Y-88557142D01*
X160202559Y-88557142D01*
X160393035Y-88509523D01*
X160488273Y-88461904D01*
X160583511Y-88366666D01*
X160631130Y-88223809D01*
X160631130Y-87985714D01*
X160631130Y-89509523D02*
X160631130Y-88938095D01*
X160631130Y-89223809D02*
X159631130Y-89223809D01*
X159773988Y-89128571D01*
X159869226Y-89033333D01*
X159916845Y-88938095D01*
X159631130Y-89842857D02*
X159631130Y-90461904D01*
X160012083Y-90128571D01*
X160012083Y-90271428D01*
X160059702Y-90366666D01*
X160107321Y-90414285D01*
X160202559Y-90461904D01*
X160440654Y-90461904D01*
X160535892Y-90414285D01*
X160583511Y-90366666D01*
X160631130Y-90271428D01*
X160631130Y-89985714D01*
X160583511Y-89890476D01*
X160535892Y-89842857D01*
%TO.C,C6*%
X172032142Y-120483333D02*
X172079761Y-120435714D01*
X172127380Y-120292857D01*
X172127380Y-120197619D01*
X172079761Y-120054761D01*
X171984523Y-119959523D01*
X171889285Y-119911904D01*
X171698809Y-119864285D01*
X171555952Y-119864285D01*
X171365476Y-119911904D01*
X171270238Y-119959523D01*
X171175000Y-120054761D01*
X171127380Y-120197619D01*
X171127380Y-120292857D01*
X171175000Y-120435714D01*
X171222619Y-120483333D01*
X171127380Y-121340476D02*
X171127380Y-121150000D01*
X171175000Y-121054761D01*
X171222619Y-121007142D01*
X171365476Y-120911904D01*
X171555952Y-120864285D01*
X171936904Y-120864285D01*
X172032142Y-120911904D01*
X172079761Y-120959523D01*
X172127380Y-121054761D01*
X172127380Y-121245238D01*
X172079761Y-121340476D01*
X172032142Y-121388095D01*
X171936904Y-121435714D01*
X171698809Y-121435714D01*
X171603571Y-121388095D01*
X171555952Y-121340476D01*
X171508333Y-121245238D01*
X171508333Y-121054761D01*
X171555952Y-120959523D01*
X171603571Y-120911904D01*
X171698809Y-120864285D01*
%TO.C,D1*%
X132818095Y-118872380D02*
X132818095Y-117872380D01*
X132580000Y-117872380D01*
X132437142Y-117920000D01*
X132341904Y-118015238D01*
X132294285Y-118110476D01*
X132246666Y-118300952D01*
X132246666Y-118443809D01*
X132294285Y-118634285D01*
X132341904Y-118729523D01*
X132437142Y-118824761D01*
X132580000Y-118872380D01*
X132818095Y-118872380D01*
X131294285Y-118872380D02*
X131865714Y-118872380D01*
X131580000Y-118872380D02*
X131580000Y-117872380D01*
X131675238Y-118015238D01*
X131770476Y-118110476D01*
X131865714Y-118158095D01*
X135944285Y-120772380D02*
X136515714Y-120772380D01*
X136230000Y-120772380D02*
X136230000Y-119772380D01*
X136325238Y-119915238D01*
X136420476Y-120010476D01*
X136515714Y-120058095D01*
%TO.C,C5*%
X174982142Y-131913333D02*
X175029761Y-131865714D01*
X175077380Y-131722857D01*
X175077380Y-131627619D01*
X175029761Y-131484761D01*
X174934523Y-131389523D01*
X174839285Y-131341904D01*
X174648809Y-131294285D01*
X174505952Y-131294285D01*
X174315476Y-131341904D01*
X174220238Y-131389523D01*
X174125000Y-131484761D01*
X174077380Y-131627619D01*
X174077380Y-131722857D01*
X174125000Y-131865714D01*
X174172619Y-131913333D01*
X174077380Y-132818095D02*
X174077380Y-132341904D01*
X174553571Y-132294285D01*
X174505952Y-132341904D01*
X174458333Y-132437142D01*
X174458333Y-132675238D01*
X174505952Y-132770476D01*
X174553571Y-132818095D01*
X174648809Y-132865714D01*
X174886904Y-132865714D01*
X174982142Y-132818095D01*
X175029761Y-132770476D01*
X175077380Y-132675238D01*
X175077380Y-132437142D01*
X175029761Y-132341904D01*
X174982142Y-132294285D01*
%TO.C,D3*%
X181078095Y-66167380D02*
X181078095Y-65167380D01*
X180840000Y-65167380D01*
X180697142Y-65215000D01*
X180601904Y-65310238D01*
X180554285Y-65405476D01*
X180506666Y-65595952D01*
X180506666Y-65738809D01*
X180554285Y-65929285D01*
X180601904Y-66024523D01*
X180697142Y-66119761D01*
X180840000Y-66167380D01*
X181078095Y-66167380D01*
X180173333Y-65167380D02*
X179554285Y-65167380D01*
X179887619Y-65548333D01*
X179744761Y-65548333D01*
X179649523Y-65595952D01*
X179601904Y-65643571D01*
X179554285Y-65738809D01*
X179554285Y-65976904D01*
X179601904Y-66072142D01*
X179649523Y-66119761D01*
X179744761Y-66167380D01*
X180030476Y-66167380D01*
X180125714Y-66119761D01*
X180173333Y-66072142D01*
X184204285Y-68067380D02*
X184775714Y-68067380D01*
X184490000Y-68067380D02*
X184490000Y-67067380D01*
X184585238Y-67210238D01*
X184680476Y-67305476D01*
X184775714Y-67353095D01*
%TO.C,C4*%
X154662142Y-131913333D02*
X154709761Y-131865714D01*
X154757380Y-131722857D01*
X154757380Y-131627619D01*
X154709761Y-131484761D01*
X154614523Y-131389523D01*
X154519285Y-131341904D01*
X154328809Y-131294285D01*
X154185952Y-131294285D01*
X153995476Y-131341904D01*
X153900238Y-131389523D01*
X153805000Y-131484761D01*
X153757380Y-131627619D01*
X153757380Y-131722857D01*
X153805000Y-131865714D01*
X153852619Y-131913333D01*
X154090714Y-132770476D02*
X154757380Y-132770476D01*
X153709761Y-132532380D02*
X154424047Y-132294285D01*
X154424047Y-132913333D01*
%TO.C,D31*%
X135178839Y-95752529D02*
X134178839Y-95752529D01*
X134178839Y-95990624D01*
X134226459Y-96133481D01*
X134321697Y-96228719D01*
X134416935Y-96276338D01*
X134607411Y-96323957D01*
X134750268Y-96323957D01*
X134940744Y-96276338D01*
X135035982Y-96228719D01*
X135131220Y-96133481D01*
X135178839Y-95990624D01*
X135178839Y-95752529D01*
X134178839Y-96657291D02*
X134178839Y-97276338D01*
X134559792Y-96943005D01*
X134559792Y-97085862D01*
X134607411Y-97181100D01*
X134655030Y-97228719D01*
X134750268Y-97276338D01*
X134988363Y-97276338D01*
X135083601Y-97228719D01*
X135131220Y-97181100D01*
X135178839Y-97085862D01*
X135178839Y-96800148D01*
X135131220Y-96704910D01*
X135083601Y-96657291D01*
X135178839Y-98228719D02*
X135178839Y-97657291D01*
X135178839Y-97943005D02*
X134178839Y-97943005D01*
X134321697Y-97847767D01*
X134416935Y-97752529D01*
X134464554Y-97657291D01*
%TO.C,R6*%
X151582380Y-112979655D02*
X151106190Y-112646322D01*
X151582380Y-112408226D02*
X150582380Y-112408226D01*
X150582380Y-112789179D01*
X150630000Y-112884417D01*
X150677619Y-112932036D01*
X150772857Y-112979655D01*
X150915714Y-112979655D01*
X151010952Y-112932036D01*
X151058571Y-112884417D01*
X151106190Y-112789179D01*
X151106190Y-112408226D01*
X150582380Y-113836798D02*
X150582380Y-113646322D01*
X150630000Y-113551083D01*
X150677619Y-113503464D01*
X150820476Y-113408226D01*
X151010952Y-113360607D01*
X151391904Y-113360607D01*
X151487142Y-113408226D01*
X151534761Y-113455845D01*
X151582380Y-113551083D01*
X151582380Y-113741560D01*
X151534761Y-113836798D01*
X151487142Y-113884417D01*
X151391904Y-113932036D01*
X151153809Y-113932036D01*
X151058571Y-113884417D01*
X151010952Y-113836798D01*
X150963333Y-113741560D01*
X150963333Y-113551083D01*
X151010952Y-113455845D01*
X151058571Y-113408226D01*
X151153809Y-113360607D01*
%TO.C,D22*%
X160599285Y-109672380D02*
X160599285Y-108672380D01*
X160361190Y-108672380D01*
X160218333Y-108720000D01*
X160123095Y-108815238D01*
X160075476Y-108910476D01*
X160027857Y-109100952D01*
X160027857Y-109243809D01*
X160075476Y-109434285D01*
X160123095Y-109529523D01*
X160218333Y-109624761D01*
X160361190Y-109672380D01*
X160599285Y-109672380D01*
X159646904Y-108767619D02*
X159599285Y-108720000D01*
X159504047Y-108672380D01*
X159265952Y-108672380D01*
X159170714Y-108720000D01*
X159123095Y-108767619D01*
X159075476Y-108862857D01*
X159075476Y-108958095D01*
X159123095Y-109100952D01*
X159694523Y-109672380D01*
X159075476Y-109672380D01*
X158694523Y-108767619D02*
X158646904Y-108720000D01*
X158551666Y-108672380D01*
X158313571Y-108672380D01*
X158218333Y-108720000D01*
X158170714Y-108767619D01*
X158123095Y-108862857D01*
X158123095Y-108958095D01*
X158170714Y-109100952D01*
X158742142Y-109672380D01*
X158123095Y-109672380D01*
%TO.C,D11*%
X123007380Y-87685714D02*
X122007380Y-87685714D01*
X122007380Y-87923809D01*
X122055000Y-88066666D01*
X122150238Y-88161904D01*
X122245476Y-88209523D01*
X122435952Y-88257142D01*
X122578809Y-88257142D01*
X122769285Y-88209523D01*
X122864523Y-88161904D01*
X122959761Y-88066666D01*
X123007380Y-87923809D01*
X123007380Y-87685714D01*
X123007380Y-89209523D02*
X123007380Y-88638095D01*
X123007380Y-88923809D02*
X122007380Y-88923809D01*
X122150238Y-88828571D01*
X122245476Y-88733333D01*
X122293095Y-88638095D01*
X123007380Y-90161904D02*
X123007380Y-89590476D01*
X123007380Y-89876190D02*
X122007380Y-89876190D01*
X122150238Y-89780952D01*
X122245476Y-89685714D01*
X122293095Y-89590476D01*
%TO.C,R5*%
X149042380Y-65873333D02*
X148566190Y-65540000D01*
X149042380Y-65301904D02*
X148042380Y-65301904D01*
X148042380Y-65682857D01*
X148090000Y-65778095D01*
X148137619Y-65825714D01*
X148232857Y-65873333D01*
X148375714Y-65873333D01*
X148470952Y-65825714D01*
X148518571Y-65778095D01*
X148566190Y-65682857D01*
X148566190Y-65301904D01*
X148042380Y-66778095D02*
X148042380Y-66301904D01*
X148518571Y-66254285D01*
X148470952Y-66301904D01*
X148423333Y-66397142D01*
X148423333Y-66635238D01*
X148470952Y-66730476D01*
X148518571Y-66778095D01*
X148613809Y-66825714D01*
X148851904Y-66825714D01*
X148947142Y-66778095D01*
X148994761Y-66730476D01*
X149042380Y-66635238D01*
X149042380Y-66397142D01*
X148994761Y-66301904D01*
X148947142Y-66254285D01*
%TO.C,C1*%
X171807142Y-131913333D02*
X171854761Y-131865714D01*
X171902380Y-131722857D01*
X171902380Y-131627619D01*
X171854761Y-131484761D01*
X171759523Y-131389523D01*
X171664285Y-131341904D01*
X171473809Y-131294285D01*
X171330952Y-131294285D01*
X171140476Y-131341904D01*
X171045238Y-131389523D01*
X170950000Y-131484761D01*
X170902380Y-131627619D01*
X170902380Y-131722857D01*
X170950000Y-131865714D01*
X170997619Y-131913333D01*
X171902380Y-132865714D02*
X171902380Y-132294285D01*
X171902380Y-132580000D02*
X170902380Y-132580000D01*
X171045238Y-132484761D01*
X171140476Y-132389523D01*
X171188095Y-132294285D01*
%TO.C,Y1*%
X163675090Y-132056190D02*
X163675090Y-132532380D01*
X164008423Y-131532380D02*
X163675090Y-132056190D01*
X163341757Y-131532380D01*
X162484614Y-132532380D02*
X163056042Y-132532380D01*
X162770328Y-132532380D02*
X162770328Y-131532380D01*
X162865566Y-131675238D01*
X162960804Y-131770476D01*
X163056042Y-131818095D01*
%TO.C,R8*%
X151582380Y-123023333D02*
X151106190Y-122690000D01*
X151582380Y-122451904D02*
X150582380Y-122451904D01*
X150582380Y-122832857D01*
X150630000Y-122928095D01*
X150677619Y-122975714D01*
X150772857Y-123023333D01*
X150915714Y-123023333D01*
X151010952Y-122975714D01*
X151058571Y-122928095D01*
X151106190Y-122832857D01*
X151106190Y-122451904D01*
X151010952Y-123594761D02*
X150963333Y-123499523D01*
X150915714Y-123451904D01*
X150820476Y-123404285D01*
X150772857Y-123404285D01*
X150677619Y-123451904D01*
X150630000Y-123499523D01*
X150582380Y-123594761D01*
X150582380Y-123785238D01*
X150630000Y-123880476D01*
X150677619Y-123928095D01*
X150772857Y-123975714D01*
X150820476Y-123975714D01*
X150915714Y-123928095D01*
X150963333Y-123880476D01*
X151010952Y-123785238D01*
X151010952Y-123594761D01*
X151058571Y-123499523D01*
X151106190Y-123451904D01*
X151201428Y-123404285D01*
X151391904Y-123404285D01*
X151487142Y-123451904D01*
X151534761Y-123499523D01*
X151582380Y-123594761D01*
X151582380Y-123785238D01*
X151534761Y-123880476D01*
X151487142Y-123928095D01*
X151391904Y-123975714D01*
X151201428Y-123975714D01*
X151106190Y-123928095D01*
X151058571Y-123880476D01*
X151010952Y-123785238D01*
%TO.C,D23*%
X187269285Y-109672380D02*
X187269285Y-108672380D01*
X187031190Y-108672380D01*
X186888333Y-108720000D01*
X186793095Y-108815238D01*
X186745476Y-108910476D01*
X186697857Y-109100952D01*
X186697857Y-109243809D01*
X186745476Y-109434285D01*
X186793095Y-109529523D01*
X186888333Y-109624761D01*
X187031190Y-109672380D01*
X187269285Y-109672380D01*
X186316904Y-108767619D02*
X186269285Y-108720000D01*
X186174047Y-108672380D01*
X185935952Y-108672380D01*
X185840714Y-108720000D01*
X185793095Y-108767619D01*
X185745476Y-108862857D01*
X185745476Y-108958095D01*
X185793095Y-109100952D01*
X186364523Y-109672380D01*
X185745476Y-109672380D01*
X185412142Y-108672380D02*
X184793095Y-108672380D01*
X185126428Y-109053333D01*
X184983571Y-109053333D01*
X184888333Y-109100952D01*
X184840714Y-109148571D01*
X184793095Y-109243809D01*
X184793095Y-109481904D01*
X184840714Y-109577142D01*
X184888333Y-109624761D01*
X184983571Y-109672380D01*
X185269285Y-109672380D01*
X185364523Y-109624761D01*
X185412142Y-109577142D01*
%TO.C,D12*%
X145962380Y-87685714D02*
X144962380Y-87685714D01*
X144962380Y-87923809D01*
X145010000Y-88066666D01*
X145105238Y-88161904D01*
X145200476Y-88209523D01*
X145390952Y-88257142D01*
X145533809Y-88257142D01*
X145724285Y-88209523D01*
X145819523Y-88161904D01*
X145914761Y-88066666D01*
X145962380Y-87923809D01*
X145962380Y-87685714D01*
X145962380Y-89209523D02*
X145962380Y-88638095D01*
X145962380Y-88923809D02*
X144962380Y-88923809D01*
X145105238Y-88828571D01*
X145200476Y-88733333D01*
X145248095Y-88638095D01*
X145057619Y-89590476D02*
X145010000Y-89638095D01*
X144962380Y-89733333D01*
X144962380Y-89971428D01*
X145010000Y-90066666D01*
X145057619Y-90114285D01*
X145152857Y-90161904D01*
X145248095Y-90161904D01*
X145390952Y-90114285D01*
X145962380Y-89542857D01*
X145962380Y-90161904D01*
%TO.C,SW4*%
X146748333Y-114704761D02*
X146605476Y-114752380D01*
X146367380Y-114752380D01*
X146272142Y-114704761D01*
X146224523Y-114657142D01*
X146176904Y-114561904D01*
X146176904Y-114466666D01*
X146224523Y-114371428D01*
X146272142Y-114323809D01*
X146367380Y-114276190D01*
X146557857Y-114228571D01*
X146653095Y-114180952D01*
X146700714Y-114133333D01*
X146748333Y-114038095D01*
X146748333Y-113942857D01*
X146700714Y-113847619D01*
X146653095Y-113800000D01*
X146557857Y-113752380D01*
X146319761Y-113752380D01*
X146176904Y-113800000D01*
X145843571Y-113752380D02*
X145605476Y-114752380D01*
X145415000Y-114038095D01*
X145224523Y-114752380D01*
X144986428Y-113752380D01*
X144176904Y-114085714D02*
X144176904Y-114752380D01*
X144415000Y-113704761D02*
X144653095Y-114419047D01*
X144034047Y-114419047D01*
%TO.C,R3*%
X183681666Y-129357380D02*
X184015000Y-128881190D01*
X184253095Y-129357380D02*
X184253095Y-128357380D01*
X183872142Y-128357380D01*
X183776904Y-128405000D01*
X183729285Y-128452619D01*
X183681666Y-128547857D01*
X183681666Y-128690714D01*
X183729285Y-128785952D01*
X183776904Y-128833571D01*
X183872142Y-128881190D01*
X184253095Y-128881190D01*
X183348333Y-128357380D02*
X182729285Y-128357380D01*
X183062619Y-128738333D01*
X182919761Y-128738333D01*
X182824523Y-128785952D01*
X182776904Y-128833571D01*
X182729285Y-128928809D01*
X182729285Y-129166904D01*
X182776904Y-129262142D01*
X182824523Y-129309761D01*
X182919761Y-129357380D01*
X183205476Y-129357380D01*
X183300714Y-129309761D01*
X183348333Y-129262142D01*
%TO.C,R7*%
X151582380Y-117943333D02*
X151106190Y-117610000D01*
X151582380Y-117371904D02*
X150582380Y-117371904D01*
X150582380Y-117752857D01*
X150630000Y-117848095D01*
X150677619Y-117895714D01*
X150772857Y-117943333D01*
X150915714Y-117943333D01*
X151010952Y-117895714D01*
X151058571Y-117848095D01*
X151106190Y-117752857D01*
X151106190Y-117371904D01*
X150582380Y-118276666D02*
X150582380Y-118943333D01*
X151582380Y-118514761D01*
%TO.C,D32*%
X135110868Y-103365190D02*
X134110868Y-103365190D01*
X134110868Y-103603285D01*
X134158488Y-103746142D01*
X134253726Y-103841380D01*
X134348964Y-103888999D01*
X134539440Y-103936618D01*
X134682297Y-103936618D01*
X134872773Y-103888999D01*
X134968011Y-103841380D01*
X135063249Y-103746142D01*
X135110868Y-103603285D01*
X135110868Y-103365190D01*
X134110868Y-104269952D02*
X134110868Y-104888999D01*
X134491821Y-104555666D01*
X134491821Y-104698523D01*
X134539440Y-104793761D01*
X134587059Y-104841380D01*
X134682297Y-104888999D01*
X134920392Y-104888999D01*
X135015630Y-104841380D01*
X135063249Y-104793761D01*
X135110868Y-104698523D01*
X135110868Y-104412809D01*
X135063249Y-104317571D01*
X135015630Y-104269952D01*
X134206107Y-105269952D02*
X134158488Y-105317571D01*
X134110868Y-105412809D01*
X134110868Y-105650904D01*
X134158488Y-105746142D01*
X134206107Y-105793761D01*
X134301345Y-105841380D01*
X134396583Y-105841380D01*
X134539440Y-105793761D01*
X135110868Y-105222333D01*
X135110868Y-105841380D01*
%TO.C,C2*%
X157837142Y-131913333D02*
X157884761Y-131865714D01*
X157932380Y-131722857D01*
X157932380Y-131627619D01*
X157884761Y-131484761D01*
X157789523Y-131389523D01*
X157694285Y-131341904D01*
X157503809Y-131294285D01*
X157360952Y-131294285D01*
X157170476Y-131341904D01*
X157075238Y-131389523D01*
X156980000Y-131484761D01*
X156932380Y-131627619D01*
X156932380Y-131722857D01*
X156980000Y-131865714D01*
X157027619Y-131913333D01*
X157027619Y-132294285D02*
X156980000Y-132341904D01*
X156932380Y-132437142D01*
X156932380Y-132675238D01*
X156980000Y-132770476D01*
X157027619Y-132818095D01*
X157122857Y-132865714D01*
X157218095Y-132865714D01*
X157360952Y-132818095D01*
X157932380Y-132246666D01*
X157932380Y-132865714D01*
%TO.C,C3*%
X168632142Y-131913333D02*
X168679761Y-131865714D01*
X168727380Y-131722857D01*
X168727380Y-131627619D01*
X168679761Y-131484761D01*
X168584523Y-131389523D01*
X168489285Y-131341904D01*
X168298809Y-131294285D01*
X168155952Y-131294285D01*
X167965476Y-131341904D01*
X167870238Y-131389523D01*
X167775000Y-131484761D01*
X167727380Y-131627619D01*
X167727380Y-131722857D01*
X167775000Y-131865714D01*
X167822619Y-131913333D01*
X167727380Y-132246666D02*
X167727380Y-132865714D01*
X168108333Y-132532380D01*
X168108333Y-132675238D01*
X168155952Y-132770476D01*
X168203571Y-132818095D01*
X168298809Y-132865714D01*
X168536904Y-132865714D01*
X168632142Y-132818095D01*
X168679761Y-132770476D01*
X168727380Y-132675238D01*
X168727380Y-132389523D01*
X168679761Y-132294285D01*
X168632142Y-132246666D01*
%TO.C,D21*%
X140914285Y-109672380D02*
X140914285Y-108672380D01*
X140676190Y-108672380D01*
X140533333Y-108720000D01*
X140438095Y-108815238D01*
X140390476Y-108910476D01*
X140342857Y-109100952D01*
X140342857Y-109243809D01*
X140390476Y-109434285D01*
X140438095Y-109529523D01*
X140533333Y-109624761D01*
X140676190Y-109672380D01*
X140914285Y-109672380D01*
X139961904Y-108767619D02*
X139914285Y-108720000D01*
X139819047Y-108672380D01*
X139580952Y-108672380D01*
X139485714Y-108720000D01*
X139438095Y-108767619D01*
X139390476Y-108862857D01*
X139390476Y-108958095D01*
X139438095Y-109100952D01*
X140009523Y-109672380D01*
X139390476Y-109672380D01*
X138438095Y-109672380D02*
X139009523Y-109672380D01*
X138723809Y-109672380D02*
X138723809Y-108672380D01*
X138819047Y-108815238D01*
X138914285Y-108910476D01*
X139009523Y-108958095D01*
D11*
%TO.C,MX6*%
X183310000Y-97080000D02*
X183610000Y-97080000D01*
X183610000Y-97080000D02*
X183610000Y-96780000D01*
%TO.C,MX5*%
X164560000Y-97080000D02*
X164560000Y-96780000D01*
X164260000Y-97080000D02*
X164560000Y-97080000D01*
%TO.C,MX4*%
X145210000Y-97080000D02*
X145510000Y-97080000D01*
X145510000Y-97080000D02*
X145510000Y-96780000D01*
%TO.C,MX3*%
X174085000Y-77395000D02*
X174085000Y-77095000D01*
X173785000Y-77395000D02*
X174085000Y-77395000D01*
%TO.C,MX1*%
X135685000Y-77395000D02*
X135985000Y-77395000D01*
X135985000Y-77395000D02*
X135985000Y-77095000D01*
%TO.C,MX2*%
X154735000Y-77395000D02*
X155035000Y-77395000D01*
X155035000Y-77395000D02*
X155035000Y-77095000D01*
%TO.C,D2*%
X179865000Y-119170000D02*
X187165000Y-119170000D01*
X187165000Y-119170000D02*
X187165000Y-120320000D01*
X179865000Y-124670000D02*
X187165000Y-124670000D01*
D10*
%TO.C,U1*%
X157886400Y-113570000D02*
X158561400Y-113570000D01*
X168236400Y-113570000D02*
X167561400Y-113570000D01*
X168236400Y-123920000D02*
X167561400Y-123920000D01*
X157886400Y-123920000D02*
X157886400Y-123245000D01*
X168236400Y-113570000D02*
X168236400Y-114145000D01*
X168236400Y-123920000D02*
X168236400Y-123245000D01*
X157886400Y-113570000D02*
X157886400Y-114245000D01*
X168236400Y-114145000D02*
X169511400Y-114145000D01*
X157886400Y-123920000D02*
X158561400Y-123920000D01*
D11*
%TO.C,C7*%
X151865000Y-128643748D02*
X151865000Y-129166252D01*
X150395000Y-128643748D02*
X150395000Y-129166252D01*
%TO.C,R4*%
X146150000Y-68987936D02*
X146150000Y-69442064D01*
X144680000Y-68987936D02*
X144680000Y-69442064D01*
%TO.C,D33*%
X133079900Y-115597500D02*
X131079900Y-115597500D01*
X131079900Y-115597500D02*
X131079900Y-111697500D01*
X133079900Y-115597500D02*
X133079900Y-111697500D01*
%TO.C,D4*%
X138270000Y-71965000D02*
X130970000Y-71965000D01*
X138270000Y-66465000D02*
X130970000Y-66465000D01*
X130970000Y-71965000D02*
X130970000Y-70815000D01*
%TO.C,D13*%
X161560000Y-91150000D02*
X161560000Y-87250000D01*
X163560000Y-91150000D02*
X163560000Y-87250000D01*
X163560000Y-91150000D02*
X161560000Y-91150000D01*
%TO.C,C6*%
X172620000Y-120388748D02*
X172620000Y-120911252D01*
X174090000Y-120388748D02*
X174090000Y-120911252D01*
%TO.C,D1*%
X135730000Y-124670000D02*
X128430000Y-124670000D01*
X135730000Y-119170000D02*
X128430000Y-119170000D01*
X128430000Y-124670000D02*
X128430000Y-123520000D01*
%TO.C,C5*%
X175360000Y-129166252D02*
X175360000Y-128643748D01*
X173890000Y-129166252D02*
X173890000Y-128643748D01*
%TO.C,D3*%
X183990000Y-71965000D02*
X176690000Y-71965000D01*
X176690000Y-71965000D02*
X176690000Y-70815000D01*
X183990000Y-66465000D02*
X176690000Y-66465000D01*
%TO.C,C4*%
X153570000Y-128643748D02*
X153570000Y-129166252D01*
X155040000Y-128643748D02*
X155040000Y-129166252D01*
%TO.C,D31*%
X133079900Y-98928700D02*
X133079900Y-95028700D01*
X133079900Y-98928700D02*
X131079900Y-98928700D01*
X131079900Y-98928700D02*
X131079900Y-95028700D01*
%TO.C,R6*%
X153770000Y-113257064D02*
X153770000Y-112802936D01*
X152300000Y-113257064D02*
X152300000Y-112802936D01*
%TO.C,D22*%
X165445000Y-108220000D02*
X165445000Y-110220000D01*
X165445000Y-110220000D02*
X161545000Y-110220000D01*
X165445000Y-108220000D02*
X161545000Y-108220000D01*
%TO.C,D11*%
X123460000Y-91150000D02*
X123460000Y-87250000D01*
X125460000Y-91150000D02*
X123460000Y-91150000D01*
X125460000Y-91150000D02*
X125460000Y-87250000D01*
%TO.C,R5*%
X149325000Y-68987936D02*
X149325000Y-69442064D01*
X147855000Y-68987936D02*
X147855000Y-69442064D01*
%TO.C,C1*%
X170715000Y-129166252D02*
X170715000Y-128643748D01*
X172185000Y-129166252D02*
X172185000Y-128643748D01*
%TO.C,Y1*%
X165898900Y-126775000D02*
X165898900Y-131275000D01*
X165898900Y-131275000D02*
X160498900Y-131275000D01*
%TO.C,R8*%
X153770000Y-122962936D02*
X153770000Y-123417064D01*
X152300000Y-122962936D02*
X152300000Y-123417064D01*
%TO.C,D23*%
X184495000Y-108220000D02*
X180595000Y-108220000D01*
X184495000Y-110220000D02*
X180595000Y-110220000D01*
X184495000Y-108220000D02*
X184495000Y-110220000D01*
%TO.C,D12*%
X144510000Y-91150000D02*
X142510000Y-91150000D01*
X144510000Y-91150000D02*
X144510000Y-87250000D01*
X142510000Y-91150000D02*
X142510000Y-87250000D01*
D10*
%TO.C,SW4*%
X148015000Y-115510000D02*
X142815000Y-115510000D01*
X142815000Y-120710000D02*
X148015000Y-120710000D01*
X142815000Y-115510000D02*
X142815000Y-120710000D01*
X148015000Y-120710000D02*
X148015000Y-115510000D01*
X146415000Y-118110000D02*
G75*
G03*
X146415000Y-118110000I-1000000J0D01*
G01*
D11*
%TO.C,R3*%
X183742064Y-126265000D02*
X183287936Y-126265000D01*
X183742064Y-127735000D02*
X183287936Y-127735000D01*
%TO.C,R7*%
X152300000Y-117882936D02*
X152300000Y-118337064D01*
X153770000Y-117882936D02*
X153770000Y-118337064D01*
%TO.C,D32*%
X131079900Y-106866200D02*
X131079900Y-102966200D01*
X133079900Y-106866200D02*
X131079900Y-106866200D01*
X133079900Y-106866200D02*
X133079900Y-102966200D01*
%TO.C,C2*%
X158215000Y-129166252D02*
X158215000Y-128643748D01*
X156745000Y-129166252D02*
X156745000Y-128643748D01*
%TO.C,C3*%
X167540000Y-128643748D02*
X167540000Y-129166252D01*
X169010000Y-128643748D02*
X169010000Y-129166252D01*
%TO.C,D21*%
X145760000Y-110220000D02*
X141860000Y-110220000D01*
X145760000Y-108220000D02*
X145760000Y-110220000D01*
X145760000Y-108220000D02*
X141860000Y-108220000D01*
%TD*%
M02*
