M48
; DRILL file {KiCad (6.0.5)} date Mon May 30 19:57:46 2022
; FORMAT={-:-/ absolute / inch / decimal}
; #@! TF.CreationDate,2022-05-30T19:57:46+07:00
; #@! TF.GenerationSoftware,Kicad,Pcbnew,(6.0.5)
; #@! TF.FileFunction,Plated,1,2,PTH
FMAT,2
INCH
; #@! TA.AperFunction,Plated,PTH,ViaDrill
T1C0.0118
; #@! TA.AperFunction,Plated,PTH,ViaDrill
T2C0.0157
; #@! TA.AperFunction,Plated,PTH,ComponentDrill
T3C0.0236
; #@! TA.AperFunction,Plated,PTH,ComponentDrill
T4C0.0433
%
G90
G05
T1
X4.7536Y-2.8308
X4.9231Y-3.0032
X5.1174Y-2.7919
X5.4442Y-2.7772
X5.7827Y-3.4776
X5.8492Y-4.4176
X6.1274Y-2.6754
X6.139Y-4.3482
X6.214Y-2.8196
X6.2502Y-2.4885
X6.2665Y-2.8671
X6.2938Y-4.7009
X6.3058Y-4.6382
X6.3297Y-4.4668
X6.3567Y-4.5405
X6.4197Y-4.812
X6.4503Y-3.6126
X6.4702Y-4.0375
X6.484Y-3.9844
X6.5162Y-4.8714
X6.55Y-4.6776
X6.6179Y-2.7112
X6.9206Y-3.2318
X7.0253Y-2.8245
X7.0741Y-3.1472
X7.2115Y-3.4558
X7.2248Y-2.9938
X7.2884Y-4.5727
X7.4092Y-3.9589
T2
X6.2155Y-2.5265
X6.2717Y-3.4359
X6.75Y-3.491
X6.9616Y-4.2114
X7.2156Y-3.0336
T4
X4.823Y-3.4739
X4.823Y-3.6511
X4.823Y-4.1614
X4.823Y-4.3386
X4.823Y-3.8177
X4.823Y-3.9948
X5.0789Y-3.4739
X5.0789Y-3.6511
X5.0789Y-4.1614
X5.0789Y-4.3386
X5.0789Y-3.8177
X5.0789Y-3.9948
T3
G00X6.0309Y-2.2079
M15
G01X6.0309Y-2.1843
M16
G05
G00X6.0309Y-2.3823
M15
G01X6.0309Y-2.339
M16
G05
G00X6.3711Y-2.2079
M15
G01X6.3711Y-2.1843
M16
G05
G00X6.3711Y-2.3823
M15
G01X6.3711Y-2.339
M16
G05
T0
M30
