M48
; DRILL file {KiCad (6.0.5)} date Mon May 30 19:57:46 2022
; FORMAT={-:-/ absolute / inch / decimal}
; #@! TF.CreationDate,2022-05-30T19:57:46+07:00
; #@! TF.GenerationSoftware,Kicad,Pcbnew,(6.0.5)
; #@! TF.FileFunction,NonPlated,1,2,NPTH
FMAT,2
INCH
; #@! TA.AperFunction,NonPlated,NPTH,ComponentDrill
T1C0.0256
; #@! TA.AperFunction,NonPlated,NPTH,ComponentDrill
T2C0.0669
; #@! TA.AperFunction,NonPlated,NPTH,ComponentDrill
T3C0.0866
; #@! TA.AperFunction,NonPlated,NPTH,ComponentDrill
T4C0.1181
; #@! TA.AperFunction,NonPlated,NPTH,ComponentDrill
T5C0.1575
%
G90
G05
T1
X6.0872Y-2.3398
X6.3148Y-2.3398
T2
X5.075Y-2.975
X5.425Y-3.725
X5.475Y-2.975
X5.825Y-2.975
X5.825Y-3.725
X6.175Y-3.725
X6.225Y-2.975
X6.575Y-2.975
X6.575Y-3.725
X6.925Y-3.725
X6.975Y-2.975
X7.325Y-3.725
T3
X4.8Y-2.6
X4.8Y-5.1
X7.6Y-2.6
X7.6Y-5.1
T4
X5.175Y-3.175
X5.425Y-3.075
X5.525Y-3.925
X5.775Y-3.825
X5.925Y-3.175
X6.175Y-3.075
X6.275Y-3.925
X6.525Y-3.825
X6.675Y-3.175
X6.925Y-3.075
X7.025Y-3.925
X7.275Y-3.825
T5
X5.275Y-2.975
X5.625Y-3.725
X6.025Y-2.975
X6.375Y-3.725
X6.775Y-2.975
X7.125Y-3.725
T0
M30
