%TF.GenerationSoftware,KiCad,Pcbnew,(6.0.5)*%
%TF.CreationDate,2022-05-27T23:08:29+07:00*%
%TF.ProjectId,atelier-alter,6174656c-6965-4722-9d61-6c7465722e6b,rev?*%
%TF.SameCoordinates,Original*%
%TF.FileFunction,Copper,L1,Top*%
%TF.FilePolarity,Positive*%
%FSLAX46Y46*%
G04 Gerber Fmt 4.6, Leading zero omitted, Abs format (unit mm)*
G04 Created by KiCad (PCBNEW (6.0.5)) date 2022-05-27 23:08:29*
%MOMM*%
%LPD*%
G01*
G04 APERTURE LIST*
%TA.AperFunction,ComponentPad*%
%ADD10C,2.000000*%
%TD*%
%TA.AperFunction,SMDPad,CuDef*%
%ADD11R,0.600000X2.450000*%
%TD*%
%TA.AperFunction,SMDPad,CuDef*%
%ADD12R,0.300000X2.450000*%
%TD*%
%TA.AperFunction,ComponentPad*%
%ADD13O,1.000000X2.100000*%
%TD*%
%TA.AperFunction,ComponentPad*%
%ADD14O,1.000000X1.600000*%
%TD*%
%TA.AperFunction,ViaPad*%
%ADD15C,0.800000*%
%TD*%
%TA.AperFunction,ViaPad*%
%ADD16C,0.600000*%
%TD*%
%TA.AperFunction,Conductor*%
%ADD17C,0.150000*%
%TD*%
%TA.AperFunction,Conductor*%
%ADD18C,0.100000*%
%TD*%
G04 APERTURE END LIST*
D10*
%TO.P,SW2,1,1*%
%TO.N,Net-(D32-Pad2)*%
X115812600Y-94587500D03*
X122312600Y-94587500D03*
%TO.P,SW2,2,2*%
%TO.N,COL2*%
X115812600Y-99087500D03*
X122312600Y-99087500D03*
%TD*%
%TO.P,SW3,1,1*%
%TO.N,Net-(D33-Pad2)*%
X115812500Y-103318700D03*
X122312500Y-103318700D03*
%TO.P,SW3,2,2*%
%TO.N,COL3*%
X115812500Y-107818700D03*
X122312500Y-107818700D03*
%TD*%
%TO.P,SW1,1,1*%
%TO.N,Net-(D31-Pad2)*%
X115812500Y-85856200D03*
X122312500Y-85856200D03*
%TO.P,SW1,2,2*%
%TO.N,COL1*%
X115812500Y-90356200D03*
X122312500Y-90356200D03*
%TD*%
D11*
%TO.P,USB1,1,GND*%
%TO.N,GND*%
X154037500Y-58995000D03*
%TO.P,USB1,2,VBUS*%
%TO.N,+5V*%
X153262500Y-58995000D03*
D12*
%TO.P,USB1,3,SBU2*%
%TO.N,unconnected-(USB1-Pad3)*%
X152562500Y-58995000D03*
%TO.P,USB1,4,CC1*%
%TO.N,Net-(R4-Pad2)*%
X152062500Y-58995000D03*
%TO.P,USB1,5,DN2*%
%TO.N,D-*%
X151562500Y-58995000D03*
%TO.P,USB1,6,DP1*%
%TO.N,D+*%
X151062500Y-58995000D03*
%TO.P,USB1,7,DN1*%
%TO.N,D-*%
X150562500Y-58995000D03*
%TO.P,USB1,8,DP2*%
%TO.N,D+*%
X150062500Y-58995000D03*
%TO.P,USB1,9,SBU1*%
%TO.N,unconnected-(USB1-Pad9)*%
X149562500Y-58995000D03*
%TO.P,USB1,10,CC2*%
%TO.N,Net-(R5-Pad2)*%
X149062500Y-58995000D03*
D11*
%TO.P,USB1,11,VBUS*%
%TO.N,+5V*%
X148362500Y-58995000D03*
%TO.P,USB1,12,GND*%
%TO.N,GND*%
X147587500Y-58995000D03*
D13*
%TO.P,USB1,13,SHIELD*%
X155132500Y-57580000D03*
D14*
X146492500Y-53400000D03*
D13*
X146492500Y-57580000D03*
D14*
X155132500Y-53400000D03*
%TD*%
D15*
%TO.N,+5V*%
X125700500Y-66434500D03*
X122598900Y-64048000D03*
D16*
%TO.N,ROW1*%
X137937300Y-67610600D03*
X152395000Y-116698800D03*
X157399900Y-71347200D03*
%TO.N,ROW2*%
X161351100Y-89928800D03*
X147162100Y-85353900D03*
%TO.N,COL1*%
X151254900Y-118241700D03*
X148247400Y-108677100D03*
%TO.N,COL2*%
X154159400Y-108677700D03*
X162289000Y-97787200D03*
%TO.N,COL3*%
X152959600Y-114436500D03*
X162654100Y-101006400D03*
%TO.N,D-*%
X176055000Y-70875700D03*
%TO.N,D+*%
X173355000Y-78200500D03*
X164167600Y-102519300D03*
%TO.N,D21*%
X135113100Y-84737800D03*
X114695100Y-66173800D03*
%TO.N,RGB*%
X155275700Y-108669100D03*
X134981700Y-61693900D03*
%TO.N,Net-(C6-Pad2)*%
X163934900Y-114965700D03*
X174659300Y-116557500D03*
%TO.N,Net-(R4-Pad2)*%
X152538000Y-60814400D03*
%TO.N,Net-(R5-Pad2)*%
X137380200Y-61157900D03*
%TD*%
D17*
%TO.N,+5V*%
X148362500Y-58995000D02*
X148362500Y-57494700D01*
X125700500Y-66434500D02*
X131639700Y-60495300D01*
X131639700Y-60495300D02*
X148362500Y-60495300D01*
X122598900Y-64048000D02*
X123314000Y-64048000D01*
X123314000Y-64048000D02*
X125700500Y-66434500D01*
X153262500Y-58995000D02*
X153262500Y-57494700D01*
X148664900Y-57192300D02*
X152960100Y-57192300D01*
X152960100Y-57192300D02*
X153262500Y-57494700D01*
X148362500Y-57494700D02*
X148664900Y-57192300D01*
X148362500Y-58995000D02*
X148362500Y-60495300D01*
D18*
%TO.N,ROW1*%
X141673900Y-71347200D02*
X137937300Y-67610600D01*
X157399900Y-71347200D02*
X141673900Y-71347200D01*
X163234200Y-105859600D02*
X163234200Y-89885500D01*
X157399900Y-84051200D02*
X157399900Y-71347200D01*
X152395000Y-116698800D02*
X163234200Y-105859600D01*
X163234200Y-89885500D02*
X157399900Y-84051200D01*
%TO.N,ROW2*%
X151737000Y-89928800D02*
X161351100Y-89928800D01*
X147162100Y-85353900D02*
X151737000Y-89928800D01*
%TO.N,COL1*%
X115812500Y-90356200D02*
X122312500Y-90356200D01*
X151254900Y-118241700D02*
X148247400Y-115234200D01*
X148247400Y-115234200D02*
X148247400Y-108677100D01*
%TO.N,COL2*%
X153153300Y-105534000D02*
X128759200Y-105534000D01*
X128759200Y-105534000D02*
X123878200Y-100653000D01*
X123878200Y-100653000D02*
X123878100Y-100653000D01*
X154159400Y-108677700D02*
X154159400Y-106540100D01*
X153847800Y-106228400D02*
X153153300Y-105534000D01*
X162289000Y-97787200D02*
X153847800Y-106228400D01*
X123878100Y-100653000D02*
X122312600Y-99087500D01*
X154159400Y-106540100D02*
X153847800Y-106228400D01*
X122312600Y-99087500D02*
X115812600Y-99087500D01*
%TO.N,COL3*%
X152959600Y-111084400D02*
X153675600Y-111084400D01*
X152959600Y-114436500D02*
X152959600Y-111084400D01*
X153675600Y-111084400D02*
X162654100Y-102105900D01*
X152959600Y-111084400D02*
X149693900Y-107818700D01*
X162654100Y-102105900D02*
X162654100Y-101006400D01*
X122312500Y-107818700D02*
X115812500Y-107818700D01*
X149693900Y-107818700D02*
X122312500Y-107818700D01*
%TO.N,D-*%
X150562500Y-58995000D02*
X150562500Y-57519700D01*
X176055000Y-70875700D02*
X161775300Y-70875700D01*
X151562500Y-58995000D02*
X151562500Y-57519700D01*
X161775300Y-70875700D02*
X151562500Y-60662900D01*
X151562500Y-57519700D02*
X150562500Y-57519700D01*
X151562500Y-60662900D02*
X151562500Y-58995000D01*
%TO.N,D+*%
X166279700Y-78200500D02*
X151062500Y-62983300D01*
X166279700Y-78200500D02*
X166279700Y-100407200D01*
X150062500Y-60470300D02*
X151062500Y-60470300D01*
X151062500Y-58995000D02*
X151062500Y-60470300D01*
X166279700Y-100407200D02*
X164167600Y-102519300D01*
X150062500Y-58995000D02*
X150062500Y-60470300D01*
X173355000Y-78200500D02*
X166279700Y-78200500D01*
X151062500Y-62983300D02*
X151062500Y-60470300D01*
%TO.N,D21*%
X114695100Y-66173800D02*
X115937300Y-66173800D01*
X115937300Y-66173800D02*
X134501300Y-84737800D01*
X134501300Y-84737800D02*
X135113100Y-84737800D01*
%TO.N,RGB*%
X134981700Y-61693900D02*
X134981700Y-65943000D01*
X162845000Y-98366600D02*
X155275700Y-105935900D01*
X134981700Y-65943000D02*
X147147800Y-78109100D01*
X155275700Y-105935900D02*
X155275700Y-108669100D01*
X150309700Y-78109100D02*
X162845000Y-90644400D01*
X162845000Y-90644400D02*
X162845000Y-98366600D01*
X147147800Y-78109100D02*
X150309700Y-78109100D01*
%TO.N,Net-(C6-Pad2)*%
X174659300Y-116557500D02*
X165526700Y-116557500D01*
X165526700Y-116557500D02*
X163934900Y-114965700D01*
%TO.N,Net-(R4-Pad2)*%
X152193900Y-60470300D02*
X152062500Y-60470300D01*
X152538000Y-60814400D02*
X152193900Y-60470300D01*
X152062500Y-58995000D02*
X152062500Y-60470300D01*
%TO.N,Net-(R5-Pad2)*%
X137380200Y-61157900D02*
X148374900Y-61157900D01*
X148374900Y-61157900D02*
X149062500Y-60470300D01*
X149062500Y-58995000D02*
X149062500Y-60470300D01*
%TO.N,Net-(D31-Pad2)*%
X122312500Y-85856200D02*
X115812500Y-85856200D01*
%TO.N,Net-(D32-Pad2)*%
X122312600Y-94587500D02*
X115812600Y-94587500D01*
%TO.N,Net-(D33-Pad2)*%
X122312500Y-103318700D02*
X115812500Y-103318700D01*
%TD*%
%TA.AperFunction,Conductor*%
%TO.N,GND*%
G36*
X155910371Y-51220502D02*
G01*
X155956864Y-51274158D01*
X155968250Y-51326500D01*
X155968250Y-52215354D01*
X155948248Y-52283475D01*
X155894592Y-52329968D01*
X155824318Y-52340072D01*
X155761935Y-52312439D01*
X155703644Y-52264216D01*
X155693473Y-52257356D01*
X155530424Y-52169196D01*
X155519119Y-52164444D01*
X155403808Y-52128750D01*
X155389705Y-52128544D01*
X155386500Y-52135299D01*
X155386500Y-54657924D01*
X155390473Y-54671455D01*
X155398268Y-54672575D01*
X155506021Y-54640862D01*
X155517389Y-54636269D01*
X155681654Y-54550393D01*
X155691915Y-54543679D01*
X155763298Y-54486286D01*
X155828921Y-54459190D01*
X155898775Y-54471874D01*
X155950683Y-54520310D01*
X155968250Y-54584483D01*
X155968250Y-56145354D01*
X155948248Y-56213475D01*
X155894592Y-56259968D01*
X155824318Y-56270072D01*
X155761935Y-56242439D01*
X155703644Y-56194216D01*
X155693473Y-56187356D01*
X155530424Y-56099196D01*
X155519119Y-56094444D01*
X155403808Y-56058750D01*
X155389705Y-56058544D01*
X155386500Y-56065299D01*
X155386500Y-59087924D01*
X155390473Y-59101455D01*
X155398268Y-59102575D01*
X155506021Y-59070862D01*
X155517389Y-59066269D01*
X155681654Y-58980393D01*
X155691915Y-58973679D01*
X155836373Y-58857532D01*
X155845132Y-58848954D01*
X155964278Y-58706961D01*
X155971205Y-58696844D01*
X155986758Y-58668553D01*
X156037103Y-58618494D01*
X156106520Y-58603600D01*
X156172969Y-58628600D01*
X156192578Y-58648541D01*
X156193330Y-58647899D01*
X156315418Y-58790836D01*
X156458362Y-58912914D01*
X156618643Y-59011130D01*
X156711304Y-59049510D01*
X156787745Y-59081172D01*
X156787750Y-59081174D01*
X156792314Y-59083064D01*
X156797121Y-59084218D01*
X156797124Y-59084219D01*
X156913534Y-59112165D01*
X156975100Y-59126945D01*
X157070168Y-59134427D01*
X157141264Y-59140022D01*
X157151085Y-59141185D01*
X157152702Y-59141441D01*
X157152707Y-59141441D01*
X157162500Y-59142992D01*
X157184226Y-59139551D01*
X157203936Y-59138000D01*
X189664826Y-59138000D01*
X189684532Y-59139551D01*
X189686882Y-59139923D01*
X189696468Y-59141441D01*
X189706263Y-59142992D01*
X189716055Y-59141441D01*
X189725975Y-59141441D01*
X189725975Y-59141464D01*
X189742184Y-59140827D01*
X189817034Y-59146715D01*
X189882075Y-59151832D01*
X189901594Y-59154923D01*
X190052383Y-59191120D01*
X190063431Y-59193772D01*
X190082236Y-59199881D01*
X190236003Y-59263569D01*
X190253613Y-59272541D01*
X190342330Y-59326905D01*
X190395526Y-59359502D01*
X190411521Y-59371123D01*
X190538086Y-59479215D01*
X190552062Y-59493190D01*
X190660150Y-59619742D01*
X190671771Y-59635736D01*
X190758738Y-59777648D01*
X190767714Y-59795266D01*
X190831406Y-59949029D01*
X190837517Y-59967834D01*
X190876370Y-60129667D01*
X190879463Y-60149195D01*
X190890456Y-60288869D01*
X190889809Y-60305322D01*
X190889809Y-60315207D01*
X190888258Y-60325000D01*
X190889809Y-60334793D01*
X190891699Y-60346726D01*
X190893250Y-60366436D01*
X190893250Y-130927307D01*
X190891698Y-130947022D01*
X190889809Y-130958943D01*
X190889809Y-130958946D01*
X190888258Y-130968737D01*
X190889808Y-130978528D01*
X190889808Y-130988448D01*
X190889785Y-130988448D01*
X190890421Y-131004662D01*
X190879409Y-131144537D01*
X190876316Y-131164064D01*
X190837460Y-131325898D01*
X190831350Y-131344702D01*
X190767658Y-131498461D01*
X190758682Y-131516077D01*
X190671721Y-131657981D01*
X190660100Y-131673976D01*
X190552026Y-131800514D01*
X190552011Y-131800531D01*
X190538031Y-131814511D01*
X190411476Y-131922600D01*
X190395481Y-131934221D01*
X190253577Y-132021182D01*
X190235961Y-132030158D01*
X190082202Y-132093850D01*
X190063398Y-132099960D01*
X189901564Y-132138816D01*
X189882037Y-132141909D01*
X189742162Y-132152921D01*
X189725948Y-132152285D01*
X189725948Y-132152308D01*
X189716028Y-132152308D01*
X189706237Y-132150758D01*
X189696446Y-132152309D01*
X189696443Y-132152309D01*
X189684522Y-132154198D01*
X189664807Y-132155750D01*
X111166449Y-132155750D01*
X111146730Y-132154197D01*
X111134822Y-132152310D01*
X111134821Y-132152310D01*
X111125026Y-132150758D01*
X111115232Y-132152309D01*
X111105312Y-132152308D01*
X111105312Y-132152285D01*
X111089101Y-132152921D01*
X111046501Y-132149566D01*
X110949214Y-132141903D01*
X110929689Y-132138809D01*
X110767861Y-132099951D01*
X110749059Y-132093842D01*
X110672172Y-132061992D01*
X110595283Y-132030142D01*
X110577671Y-132021167D01*
X110485820Y-131964880D01*
X110435768Y-131934207D01*
X110419775Y-131922589D01*
X110293209Y-131814493D01*
X110279230Y-131800514D01*
X110171137Y-131673959D01*
X110159516Y-131657965D01*
X110116032Y-131587013D01*
X110072545Y-131516054D01*
X110063575Y-131498452D01*
X109999870Y-131344680D01*
X109993761Y-131325882D01*
X109954895Y-131164042D01*
X109951801Y-131144516D01*
X109940797Y-131004844D01*
X109941443Y-130988365D01*
X109941442Y-130978506D01*
X109942992Y-130968712D01*
X109939553Y-130947012D01*
X109938000Y-130927290D01*
X109938000Y-107784365D01*
X114407619Y-107784365D01*
X114420876Y-108014280D01*
X114422013Y-108019326D01*
X114422014Y-108019332D01*
X114436538Y-108083779D01*
X114471506Y-108238942D01*
X114473448Y-108243724D01*
X114473449Y-108243728D01*
X114542237Y-108413132D01*
X114558149Y-108452318D01*
X114678479Y-108648678D01*
X114829263Y-108822748D01*
X115006453Y-108969854D01*
X115205290Y-109086045D01*
X115420434Y-109168201D01*
X115425500Y-109169232D01*
X115425501Y-109169232D01*
X115526197Y-109189718D01*
X115646107Y-109214114D01*
X115775852Y-109218872D01*
X115871085Y-109222364D01*
X115871089Y-109222364D01*
X115876249Y-109222553D01*
X115881369Y-109221897D01*
X115881371Y-109221897D01*
X115950772Y-109213007D01*
X116104678Y-109193291D01*
X116109626Y-109191806D01*
X116109633Y-109191805D01*
X116320311Y-109128598D01*
X116320310Y-109128598D01*
X116325261Y-109127113D01*
X116532074Y-109025796D01*
X116719562Y-108892063D01*
X116882690Y-108729503D01*
X116919799Y-108677861D01*
X117014059Y-108546683D01*
X117017077Y-108542483D01*
X117117461Y-108339372D01*
X117165574Y-108287166D01*
X117230417Y-108269200D01*
X120898964Y-108269200D01*
X120967085Y-108289202D01*
X121015706Y-108347795D01*
X121033890Y-108392575D01*
X121058149Y-108452318D01*
X121178479Y-108648678D01*
X121329263Y-108822748D01*
X121506453Y-108969854D01*
X121705290Y-109086045D01*
X121920434Y-109168201D01*
X121925500Y-109169232D01*
X121925501Y-109169232D01*
X122026197Y-109189718D01*
X122146107Y-109214114D01*
X122275852Y-109218872D01*
X122371085Y-109222364D01*
X122371089Y-109222364D01*
X122376249Y-109222553D01*
X122381369Y-109221897D01*
X122381371Y-109221897D01*
X122450772Y-109213007D01*
X122604678Y-109193291D01*
X122609626Y-109191806D01*
X122609633Y-109191805D01*
X122820311Y-109128598D01*
X122820310Y-109128598D01*
X122825261Y-109127113D01*
X123032074Y-109025796D01*
X123219562Y-108892063D01*
X123382690Y-108729503D01*
X123419799Y-108677861D01*
X123514059Y-108546683D01*
X123517077Y-108542483D01*
X123617461Y-108339372D01*
X123665574Y-108287166D01*
X123730417Y-108269200D01*
X147470175Y-108269200D01*
X147538296Y-108289202D01*
X147584789Y-108342858D01*
X147594893Y-108413132D01*
X147587568Y-108440970D01*
X147563924Y-108501613D01*
X147562932Y-108509146D01*
X147562932Y-108509147D01*
X147557991Y-108546683D01*
X147541794Y-108669711D01*
X147560399Y-108838235D01*
X147581195Y-108895061D01*
X147607356Y-108966549D01*
X147618666Y-108997456D01*
X147622902Y-109003759D01*
X147622902Y-109003760D01*
X147635691Y-109022792D01*
X147713230Y-109138183D01*
X147718846Y-109143293D01*
X147755700Y-109176828D01*
X147792622Y-109237468D01*
X147796900Y-109270021D01*
X147796900Y-115199980D01*
X147796027Y-115214789D01*
X147792036Y-115248510D01*
X147793728Y-115257774D01*
X147793728Y-115257775D01*
X147802572Y-115306201D01*
X147803222Y-115310104D01*
X147811951Y-115368162D01*
X147815079Y-115374675D01*
X147816375Y-115381773D01*
X147843425Y-115433847D01*
X147845168Y-115437337D01*
X147870591Y-115490279D01*
X147875477Y-115495565D01*
X147875510Y-115495613D01*
X147878821Y-115501988D01*
X147883125Y-115507028D01*
X147920352Y-115544255D01*
X147923781Y-115547820D01*
X147962546Y-115589756D01*
X147968905Y-115593449D01*
X147975063Y-115598966D01*
X150513378Y-118137281D01*
X150547404Y-118199593D01*
X150550227Y-118227221D01*
X150549294Y-118234311D01*
X150567899Y-118402835D01*
X150626166Y-118562056D01*
X150630402Y-118568359D01*
X150630402Y-118568360D01*
X150643474Y-118587813D01*
X150720730Y-118702783D01*
X150726342Y-118707890D01*
X150726345Y-118707893D01*
X150840512Y-118811777D01*
X150840516Y-118811780D01*
X150846133Y-118816891D01*
X150852806Y-118820514D01*
X150852810Y-118820517D01*
X150988458Y-118894167D01*
X150988460Y-118894168D01*
X150995135Y-118897792D01*
X151002484Y-118899720D01*
X151151783Y-118938888D01*
X151151785Y-118938888D01*
X151159133Y-118940816D01*
X151245509Y-118942173D01*
X151321061Y-118943360D01*
X151321064Y-118943360D01*
X151328660Y-118943479D01*
X151336065Y-118941783D01*
X151336066Y-118941783D01*
X151396486Y-118927945D01*
X151493929Y-118905628D01*
X151645398Y-118829447D01*
X151774323Y-118719334D01*
X151873261Y-118581647D01*
X151881137Y-118562056D01*
X151933666Y-118431387D01*
X151933667Y-118431385D01*
X151936501Y-118424334D01*
X151960390Y-118256478D01*
X151960545Y-118241700D01*
X151940176Y-118073380D01*
X151880245Y-117914777D01*
X151784212Y-117775049D01*
X151778541Y-117769996D01*
X151663292Y-117667312D01*
X151663288Y-117667310D01*
X151657621Y-117662260D01*
X151507781Y-117582924D01*
X151343341Y-117541619D01*
X151335743Y-117541579D01*
X151335741Y-117541579D01*
X151242928Y-117541093D01*
X151174913Y-117520735D01*
X151154493Y-117504190D01*
X148734805Y-115084502D01*
X148700779Y-115022190D01*
X148697900Y-114995407D01*
X148697900Y-109271687D01*
X148717902Y-109203566D01*
X148742069Y-109175876D01*
X148761051Y-109159664D01*
X148761052Y-109159663D01*
X148766823Y-109154734D01*
X148865761Y-109017047D01*
X148871102Y-109003760D01*
X148926166Y-108866787D01*
X148926167Y-108866785D01*
X148929001Y-108859734D01*
X148952890Y-108691878D01*
X148953045Y-108677100D01*
X148952224Y-108670311D01*
X148948404Y-108638753D01*
X148932676Y-108508780D01*
X148906587Y-108439737D01*
X148901219Y-108368945D01*
X148934976Y-108306487D01*
X148997142Y-108272195D01*
X149024453Y-108269200D01*
X149455107Y-108269200D01*
X149523228Y-108289202D01*
X149544202Y-108306105D01*
X152472195Y-111234098D01*
X152506221Y-111296410D01*
X152509100Y-111323193D01*
X152509100Y-113842579D01*
X152489098Y-113910700D01*
X152465929Y-113937528D01*
X152435204Y-113964331D01*
X152337713Y-114103047D01*
X152276124Y-114261013D01*
X152275132Y-114268546D01*
X152275132Y-114268547D01*
X152260645Y-114378592D01*
X152253994Y-114429111D01*
X152272599Y-114597635D01*
X152330866Y-114756856D01*
X152335102Y-114763159D01*
X152335102Y-114763160D01*
X152348524Y-114783134D01*
X152425430Y-114897583D01*
X152431042Y-114902690D01*
X152431045Y-114902693D01*
X152545212Y-115006577D01*
X152545216Y-115006580D01*
X152550833Y-115011691D01*
X152557506Y-115015314D01*
X152557510Y-115015317D01*
X152693158Y-115088967D01*
X152693160Y-115088968D01*
X152699835Y-115092592D01*
X152707184Y-115094520D01*
X152856483Y-115133688D01*
X152856485Y-115133688D01*
X152863833Y-115135616D01*
X153005222Y-115137837D01*
X153016488Y-115138014D01*
X153084286Y-115159083D01*
X153129931Y-115213462D01*
X153138929Y-115283886D01*
X153103604Y-115353093D01*
X152495289Y-115961408D01*
X152432977Y-115995434D01*
X152405536Y-115998311D01*
X152313895Y-115997831D01*
X152306508Y-115999605D01*
X152306504Y-115999605D01*
X152163162Y-116034020D01*
X152149032Y-116037412D01*
X152142288Y-116040893D01*
X152142285Y-116040894D01*
X152033373Y-116097108D01*
X151998369Y-116115175D01*
X151870604Y-116226631D01*
X151773113Y-116365347D01*
X151711524Y-116523313D01*
X151710532Y-116530846D01*
X151710532Y-116530847D01*
X151696471Y-116637657D01*
X151689394Y-116691411D01*
X151707999Y-116859935D01*
X151718448Y-116888487D01*
X151762904Y-117009968D01*
X151766266Y-117019156D01*
X151770502Y-117025459D01*
X151770502Y-117025460D01*
X151780815Y-117040807D01*
X151860830Y-117159883D01*
X151866442Y-117164990D01*
X151866445Y-117164993D01*
X151980612Y-117268877D01*
X151980616Y-117268880D01*
X151986233Y-117273991D01*
X151992906Y-117277614D01*
X151992910Y-117277617D01*
X152128558Y-117351267D01*
X152128560Y-117351268D01*
X152135235Y-117354892D01*
X152142584Y-117356820D01*
X152291883Y-117395988D01*
X152291885Y-117395988D01*
X152299233Y-117397916D01*
X152385609Y-117399273D01*
X152461161Y-117400460D01*
X152461164Y-117400460D01*
X152468760Y-117400579D01*
X152476165Y-117398883D01*
X152476166Y-117398883D01*
X152536586Y-117385045D01*
X152634029Y-117362728D01*
X152785498Y-117286547D01*
X152914423Y-117176434D01*
X153013361Y-117038747D01*
X153021467Y-117018583D01*
X153073766Y-116888487D01*
X153073767Y-116888485D01*
X153076601Y-116881434D01*
X153100490Y-116713578D01*
X153100645Y-116698800D01*
X153100148Y-116694694D01*
X153099922Y-116690589D01*
X153102000Y-116690475D01*
X153112195Y-116628687D01*
X153136604Y-116594299D01*
X154772592Y-114958311D01*
X163229294Y-114958311D01*
X163247899Y-115126835D01*
X163277387Y-115207413D01*
X163295817Y-115257775D01*
X163306166Y-115286056D01*
X163400730Y-115426783D01*
X163406342Y-115431890D01*
X163406345Y-115431893D01*
X163520512Y-115535777D01*
X163520516Y-115535780D01*
X163526133Y-115540891D01*
X163532806Y-115544514D01*
X163532810Y-115544517D01*
X163668458Y-115618167D01*
X163668460Y-115618168D01*
X163675135Y-115621792D01*
X163682484Y-115623720D01*
X163831783Y-115662888D01*
X163831785Y-115662888D01*
X163839133Y-115664816D01*
X163948403Y-115666532D01*
X164016200Y-115687601D01*
X164035518Y-115703421D01*
X165183947Y-116851850D01*
X165193801Y-116862939D01*
X165202449Y-116873908D01*
X165214828Y-116889610D01*
X165222575Y-116894965D01*
X165222577Y-116894966D01*
X165263075Y-116922955D01*
X165266287Y-116925250D01*
X165313516Y-116960134D01*
X165320332Y-116962527D01*
X165326269Y-116966631D01*
X165335249Y-116969471D01*
X165335251Y-116969472D01*
X165355417Y-116975850D01*
X165382219Y-116984326D01*
X165385950Y-116985571D01*
X165432437Y-117001896D01*
X165432439Y-117001896D01*
X165441331Y-117005019D01*
X165448519Y-117005301D01*
X165448578Y-117005312D01*
X165455430Y-117007480D01*
X165462037Y-117008000D01*
X165514716Y-117008000D01*
X165519662Y-117008097D01*
X165576694Y-117010338D01*
X165583800Y-117008454D01*
X165592044Y-117008000D01*
X174064754Y-117008000D01*
X174132875Y-117028002D01*
X174149554Y-117040807D01*
X174244912Y-117127577D01*
X174244916Y-117127580D01*
X174250533Y-117132691D01*
X174257206Y-117136314D01*
X174257210Y-117136317D01*
X174392858Y-117209967D01*
X174392860Y-117209968D01*
X174399535Y-117213592D01*
X174406884Y-117215520D01*
X174556183Y-117254688D01*
X174556185Y-117254688D01*
X174563533Y-117256616D01*
X174649909Y-117257973D01*
X174725461Y-117259160D01*
X174725464Y-117259160D01*
X174733060Y-117259279D01*
X174740465Y-117257583D01*
X174740466Y-117257583D01*
X174800886Y-117243745D01*
X174898329Y-117221428D01*
X175049798Y-117145247D01*
X175129013Y-117077590D01*
X175172951Y-117040064D01*
X175172952Y-117040063D01*
X175178723Y-117035134D01*
X175277661Y-116897447D01*
X175280494Y-116890400D01*
X175338066Y-116747187D01*
X175338067Y-116747185D01*
X175340901Y-116740134D01*
X175364790Y-116572278D01*
X175364945Y-116557500D01*
X175344576Y-116389180D01*
X175284645Y-116230577D01*
X175202937Y-116111692D01*
X175192914Y-116097108D01*
X175192913Y-116097107D01*
X175188612Y-116090849D01*
X175171889Y-116075949D01*
X175067692Y-115983112D01*
X175067688Y-115983110D01*
X175062021Y-115978060D01*
X174912181Y-115898724D01*
X174747741Y-115857419D01*
X174740143Y-115857379D01*
X174740141Y-115857379D01*
X174662968Y-115856975D01*
X174578195Y-115856531D01*
X174570808Y-115858305D01*
X174570804Y-115858305D01*
X174427462Y-115892720D01*
X174413332Y-115896112D01*
X174406588Y-115899593D01*
X174406585Y-115899594D01*
X174401389Y-115902276D01*
X174262669Y-115973875D01*
X174256947Y-115978867D01*
X174256945Y-115978868D01*
X174234657Y-115998311D01*
X174152370Y-116070095D01*
X174145659Y-116075949D01*
X174081177Y-116105657D01*
X174062830Y-116107000D01*
X165765493Y-116107000D01*
X165697372Y-116086998D01*
X165676398Y-116070095D01*
X164677282Y-115070979D01*
X164643256Y-115008667D01*
X164641228Y-114980487D01*
X164640390Y-114980478D01*
X164640502Y-114969835D01*
X164640502Y-114969829D01*
X164640545Y-114965700D01*
X164638740Y-114950780D01*
X164632302Y-114897583D01*
X164620176Y-114797380D01*
X164560245Y-114638777D01*
X164543941Y-114615054D01*
X164468514Y-114505308D01*
X164468513Y-114505307D01*
X164464212Y-114499049D01*
X164415185Y-114455367D01*
X164343292Y-114391312D01*
X164343288Y-114391310D01*
X164337621Y-114386260D01*
X164187781Y-114306924D01*
X164023341Y-114265619D01*
X164015743Y-114265579D01*
X164015741Y-114265579D01*
X163938568Y-114265175D01*
X163853795Y-114264731D01*
X163846408Y-114266505D01*
X163846404Y-114266505D01*
X163703062Y-114300920D01*
X163688932Y-114304312D01*
X163682188Y-114307793D01*
X163682185Y-114307794D01*
X163676989Y-114310476D01*
X163538269Y-114382075D01*
X163410504Y-114493531D01*
X163406137Y-114499745D01*
X163337339Y-114597635D01*
X163313013Y-114632247D01*
X163251424Y-114790213D01*
X163250432Y-114797746D01*
X163250432Y-114797747D01*
X163235110Y-114914134D01*
X163229294Y-114958311D01*
X154772592Y-114958311D01*
X163528550Y-106202353D01*
X163539639Y-106192499D01*
X163558911Y-106177306D01*
X163558915Y-106177302D01*
X163566310Y-106171472D01*
X163571664Y-106163725D01*
X163571668Y-106163721D01*
X163599677Y-106123196D01*
X163601958Y-106120002D01*
X163636835Y-106072783D01*
X163639229Y-106065966D01*
X163643331Y-106060031D01*
X163661012Y-106004125D01*
X163662260Y-106000385D01*
X163678600Y-105953855D01*
X163678601Y-105953852D01*
X163681720Y-105944969D01*
X163682003Y-105937784D01*
X163682017Y-105937711D01*
X163684180Y-105930870D01*
X163684700Y-105924263D01*
X163684700Y-105871609D01*
X163684797Y-105866662D01*
X163684819Y-105866110D01*
X163687039Y-105809606D01*
X163685154Y-105802497D01*
X163684700Y-105794248D01*
X163684700Y-103266027D01*
X163704702Y-103197906D01*
X163758358Y-103151413D01*
X163828632Y-103141309D01*
X163870821Y-103155296D01*
X163901154Y-103171765D01*
X163901157Y-103171766D01*
X163907835Y-103175392D01*
X163915184Y-103177320D01*
X164064483Y-103216488D01*
X164064485Y-103216488D01*
X164071833Y-103218416D01*
X164158209Y-103219773D01*
X164233761Y-103220960D01*
X164233764Y-103220960D01*
X164241360Y-103221079D01*
X164248765Y-103219383D01*
X164248766Y-103219383D01*
X164342540Y-103197906D01*
X164406629Y-103183228D01*
X164558098Y-103107047D01*
X164637313Y-103039390D01*
X164681251Y-103001864D01*
X164681252Y-103001863D01*
X164687023Y-102996934D01*
X164785961Y-102859247D01*
X164798322Y-102828498D01*
X164846366Y-102708987D01*
X164846367Y-102708985D01*
X164849201Y-102701934D01*
X164873090Y-102534078D01*
X164873245Y-102519300D01*
X164872748Y-102515194D01*
X164872522Y-102511089D01*
X164874600Y-102510975D01*
X164884795Y-102449187D01*
X164909204Y-102414799D01*
X166574050Y-100749953D01*
X166585139Y-100740099D01*
X166604409Y-100724907D01*
X166604411Y-100724905D01*
X166611810Y-100719072D01*
X166645162Y-100670815D01*
X166647457Y-100667603D01*
X166676740Y-100627958D01*
X166676741Y-100627957D01*
X166682334Y-100620384D01*
X166684727Y-100613568D01*
X166688831Y-100607631D01*
X166706526Y-100551681D01*
X166707771Y-100547950D01*
X166724096Y-100501463D01*
X166724096Y-100501461D01*
X166727219Y-100492569D01*
X166727501Y-100485381D01*
X166727512Y-100485322D01*
X166729680Y-100478470D01*
X166730200Y-100471863D01*
X166730200Y-100419184D01*
X166730297Y-100414237D01*
X166732168Y-100366618D01*
X166732538Y-100357206D01*
X166730654Y-100350100D01*
X166730200Y-100341856D01*
X166730200Y-97929433D01*
X170179906Y-97929433D01*
X170206102Y-98203992D01*
X170207187Y-98208426D01*
X170207188Y-98208432D01*
X170260956Y-98428161D01*
X170271657Y-98471894D01*
X170375199Y-98727526D01*
X170377500Y-98731456D01*
X170377503Y-98731462D01*
X170512255Y-98961603D01*
X170512260Y-98961610D01*
X170514558Y-98965535D01*
X170517405Y-98969095D01*
X170635028Y-99116174D01*
X170686816Y-99180932D01*
X170690157Y-99184053D01*
X170796165Y-99283080D01*
X170888364Y-99369208D01*
X171114979Y-99526416D01*
X171119055Y-99528444D01*
X171119057Y-99528445D01*
X171357827Y-99647232D01*
X171357830Y-99647233D01*
X171361914Y-99649265D01*
X171623998Y-99735180D01*
X171628489Y-99735960D01*
X171628490Y-99735960D01*
X171891957Y-99781706D01*
X171891965Y-99781707D01*
X171895738Y-99782362D01*
X171899575Y-99782553D01*
X171981305Y-99786622D01*
X171981313Y-99786622D01*
X171982876Y-99786700D01*
X172155070Y-99786700D01*
X172157338Y-99786535D01*
X172157350Y-99786535D01*
X172304636Y-99775848D01*
X172360083Y-99771825D01*
X172364538Y-99770841D01*
X172364541Y-99770841D01*
X172624947Y-99713348D01*
X172624950Y-99713347D01*
X172629403Y-99712364D01*
X172887319Y-99614649D01*
X172913925Y-99599871D01*
X173124435Y-99482943D01*
X173124436Y-99482942D01*
X173128428Y-99480725D01*
X173347678Y-99313398D01*
X173382369Y-99277911D01*
X173537283Y-99119442D01*
X173537287Y-99119437D01*
X173540477Y-99116174D01*
X173563790Y-99084146D01*
X173700100Y-98896876D01*
X173700102Y-98896873D01*
X173702787Y-98893184D01*
X173831206Y-98649099D01*
X173923045Y-98389032D01*
X173959689Y-98203116D01*
X173975499Y-98122904D01*
X173975500Y-98122898D01*
X173976380Y-98118432D01*
X173982678Y-97991933D01*
X173989867Y-97847536D01*
X173989867Y-97847530D01*
X173990094Y-97842967D01*
X173963898Y-97568408D01*
X173934320Y-97447530D01*
X173899429Y-97304944D01*
X173898343Y-97300506D01*
X173794801Y-97044874D01*
X173792500Y-97040944D01*
X173792497Y-97040938D01*
X173657745Y-96810797D01*
X173657740Y-96810790D01*
X173655442Y-96806865D01*
X173652595Y-96803305D01*
X173486036Y-96595034D01*
X173486035Y-96595033D01*
X173483184Y-96591468D01*
X173466812Y-96576174D01*
X173284972Y-96406308D01*
X173284969Y-96406306D01*
X173281636Y-96403192D01*
X173055021Y-96245984D01*
X173050943Y-96243955D01*
X172812173Y-96125168D01*
X172812170Y-96125167D01*
X172808086Y-96123135D01*
X172546002Y-96037220D01*
X172541510Y-96036440D01*
X172278043Y-95990694D01*
X172278035Y-95990693D01*
X172274262Y-95990038D01*
X172264029Y-95989529D01*
X172188695Y-95985778D01*
X172188687Y-95985778D01*
X172187124Y-95985700D01*
X172014930Y-95985700D01*
X172012662Y-95985865D01*
X172012650Y-95985865D01*
X171878397Y-95995606D01*
X171809917Y-96000575D01*
X171805462Y-96001559D01*
X171805459Y-96001559D01*
X171545053Y-96059052D01*
X171545050Y-96059053D01*
X171540597Y-96060036D01*
X171282681Y-96157751D01*
X171278694Y-96159965D01*
X171278693Y-96159966D01*
X171166172Y-96222466D01*
X171041572Y-96291675D01*
X170822322Y-96459002D01*
X170819129Y-96462268D01*
X170819127Y-96462270D01*
X170632717Y-96652958D01*
X170632713Y-96652963D01*
X170629523Y-96656226D01*
X170626836Y-96659918D01*
X170626834Y-96659920D01*
X170476975Y-96865805D01*
X170467213Y-96879216D01*
X170338794Y-97123301D01*
X170246955Y-97383368D01*
X170246075Y-97387834D01*
X170203344Y-97604634D01*
X170193620Y-97653968D01*
X170193393Y-97658522D01*
X170193393Y-97658524D01*
X170180366Y-97920197D01*
X170179906Y-97929433D01*
X166730200Y-97929433D01*
X166730200Y-95389433D01*
X176529906Y-95389433D01*
X176556102Y-95663992D01*
X176557187Y-95668426D01*
X176557188Y-95668432D01*
X176613216Y-95897398D01*
X176621657Y-95931894D01*
X176725199Y-96187526D01*
X176727500Y-96191456D01*
X176727503Y-96191462D01*
X176862255Y-96421603D01*
X176862260Y-96421610D01*
X176864558Y-96425535D01*
X176867405Y-96429095D01*
X176994763Y-96588347D01*
X177036816Y-96640932D01*
X177040157Y-96644053D01*
X177116596Y-96715458D01*
X177238364Y-96829208D01*
X177464979Y-96986416D01*
X177469055Y-96988444D01*
X177469057Y-96988445D01*
X177707827Y-97107232D01*
X177707830Y-97107233D01*
X177711914Y-97109265D01*
X177973998Y-97195180D01*
X177978489Y-97195960D01*
X177978490Y-97195960D01*
X178241957Y-97241706D01*
X178241965Y-97241707D01*
X178245738Y-97242362D01*
X178249575Y-97242553D01*
X178331305Y-97246622D01*
X178331313Y-97246622D01*
X178332876Y-97246700D01*
X178505070Y-97246700D01*
X178507338Y-97246535D01*
X178507350Y-97246535D01*
X178654636Y-97235848D01*
X178710083Y-97231825D01*
X178714538Y-97230841D01*
X178714541Y-97230841D01*
X178974947Y-97173348D01*
X178974950Y-97173347D01*
X178979403Y-97172364D01*
X179237319Y-97074649D01*
X179279995Y-97050945D01*
X179474435Y-96942943D01*
X179474436Y-96942942D01*
X179478428Y-96940725D01*
X179697678Y-96773398D01*
X179700873Y-96770130D01*
X179887283Y-96579442D01*
X179887287Y-96579437D01*
X179890477Y-96576174D01*
X179930272Y-96521502D01*
X180050100Y-96356876D01*
X180050102Y-96356873D01*
X180052787Y-96353184D01*
X180181206Y-96109099D01*
X180273045Y-95849032D01*
X180310133Y-95660863D01*
X180325499Y-95582904D01*
X180325500Y-95582898D01*
X180326380Y-95578432D01*
X180332678Y-95451933D01*
X180339867Y-95307536D01*
X180339867Y-95307530D01*
X180340094Y-95302967D01*
X180313898Y-95028408D01*
X180311651Y-95019223D01*
X180249429Y-94764944D01*
X180248343Y-94760506D01*
X180144801Y-94504874D01*
X180142500Y-94500944D01*
X180142497Y-94500938D01*
X180007745Y-94270797D01*
X180007740Y-94270790D01*
X180005442Y-94266865D01*
X179963502Y-94214422D01*
X179936578Y-94148729D01*
X179949443Y-94078908D01*
X179998015Y-94027126D01*
X180028654Y-94014194D01*
X180142651Y-93983008D01*
X180147709Y-93980596D01*
X180147713Y-93980594D01*
X180264462Y-93924907D01*
X180344129Y-93886908D01*
X180525405Y-93756648D01*
X180607771Y-93671653D01*
X180676846Y-93600374D01*
X180676848Y-93600371D01*
X180680749Y-93596346D01*
X180805250Y-93411068D01*
X180809473Y-93401449D01*
X180856465Y-93294396D01*
X180894974Y-93206671D01*
X180896282Y-93201223D01*
X180896284Y-93201217D01*
X180945775Y-92995072D01*
X180945775Y-92995071D01*
X180947085Y-92989615D01*
X180956007Y-92834869D01*
X180959611Y-92772369D01*
X180959611Y-92772366D01*
X180959934Y-92766762D01*
X180933117Y-92545156D01*
X180867481Y-92331800D01*
X180765099Y-92133441D01*
X180761690Y-92128999D01*
X180761688Y-92128995D01*
X180632620Y-91960790D01*
X180629210Y-91956346D01*
X180464107Y-91806114D01*
X180275010Y-91687493D01*
X180067895Y-91604234D01*
X180062407Y-91603097D01*
X180062402Y-91603096D01*
X179881209Y-91565573D01*
X179849310Y-91558967D01*
X179844697Y-91558701D01*
X179794474Y-91555805D01*
X179794470Y-91555805D01*
X179792651Y-91555700D01*
X179648370Y-91555700D01*
X179645583Y-91555949D01*
X179645577Y-91555949D01*
X179576003Y-91562159D01*
X179482661Y-91570489D01*
X179477247Y-91571970D01*
X179477242Y-91571971D01*
X179363470Y-91603096D01*
X179267349Y-91629392D01*
X179262291Y-91631804D01*
X179262287Y-91631806D01*
X179190393Y-91666098D01*
X179065871Y-91725492D01*
X178884595Y-91855752D01*
X178880688Y-91859784D01*
X178737910Y-92007119D01*
X178729251Y-92016054D01*
X178604750Y-92201332D01*
X178515026Y-92405729D01*
X178513718Y-92411177D01*
X178513716Y-92411183D01*
X178469162Y-92596764D01*
X178462915Y-92622785D01*
X178462592Y-92628390D01*
X178451332Y-92823685D01*
X178450066Y-92845638D01*
X178476883Y-93067244D01*
X178521259Y-93211491D01*
X178542519Y-93280600D01*
X178540519Y-93281215D01*
X178546805Y-93342721D01*
X178514694Y-93406040D01*
X178453447Y-93441948D01*
X178422926Y-93445700D01*
X178364930Y-93445700D01*
X178362662Y-93445865D01*
X178362650Y-93445865D01*
X178228397Y-93455606D01*
X178159917Y-93460575D01*
X178155462Y-93461559D01*
X178155459Y-93461559D01*
X177895053Y-93519052D01*
X177895050Y-93519053D01*
X177890597Y-93520036D01*
X177632681Y-93617751D01*
X177628694Y-93619965D01*
X177628693Y-93619966D01*
X177437369Y-93726237D01*
X177391572Y-93751675D01*
X177172322Y-93919002D01*
X177169129Y-93922268D01*
X177169127Y-93922270D01*
X176982717Y-94112958D01*
X176982713Y-94112963D01*
X176979523Y-94116226D01*
X176976836Y-94119918D01*
X176976834Y-94119920D01*
X176826975Y-94325805D01*
X176817213Y-94339216D01*
X176688794Y-94583301D01*
X176596955Y-94843368D01*
X176584636Y-94905868D01*
X176546016Y-95101814D01*
X176543620Y-95113968D01*
X176543393Y-95118522D01*
X176543393Y-95118524D01*
X176530872Y-95370036D01*
X176529906Y-95389433D01*
X166730200Y-95389433D01*
X166730200Y-92845638D01*
X168290066Y-92845638D01*
X168316883Y-93067244D01*
X168382519Y-93280600D01*
X168385095Y-93285590D01*
X168385095Y-93285591D01*
X168447202Y-93405920D01*
X168484901Y-93478959D01*
X168488310Y-93483401D01*
X168488312Y-93483405D01*
X168574975Y-93596346D01*
X168620790Y-93656054D01*
X168785893Y-93806286D01*
X168974990Y-93924907D01*
X169182105Y-94008166D01*
X169187593Y-94009303D01*
X169187598Y-94009304D01*
X169337896Y-94040429D01*
X169400690Y-94053433D01*
X169405303Y-94053699D01*
X169455526Y-94056595D01*
X169455530Y-94056595D01*
X169457349Y-94056700D01*
X169601630Y-94056700D01*
X169604417Y-94056451D01*
X169604423Y-94056451D01*
X169673997Y-94050241D01*
X169767339Y-94041911D01*
X169772753Y-94040430D01*
X169772758Y-94040429D01*
X169958920Y-93989500D01*
X169982651Y-93983008D01*
X169987709Y-93980596D01*
X169987713Y-93980594D01*
X170104462Y-93924907D01*
X170184129Y-93886908D01*
X170365405Y-93756648D01*
X170447771Y-93671653D01*
X170516846Y-93600374D01*
X170516848Y-93600371D01*
X170520749Y-93596346D01*
X170645250Y-93411068D01*
X170649473Y-93401449D01*
X170696465Y-93294396D01*
X170734974Y-93206671D01*
X170736282Y-93201223D01*
X170736284Y-93201217D01*
X170785775Y-92995072D01*
X170785775Y-92995071D01*
X170787085Y-92989615D01*
X170796007Y-92834869D01*
X170799611Y-92772369D01*
X170799611Y-92772366D01*
X170799934Y-92766762D01*
X170792517Y-92705471D01*
X172221668Y-92705471D01*
X172221755Y-92709473D01*
X172221755Y-92709480D01*
X172227868Y-92989615D01*
X172228349Y-93011665D01*
X172273883Y-93314530D01*
X172274979Y-93318390D01*
X172274980Y-93318395D01*
X172299830Y-93405920D01*
X172357531Y-93609153D01*
X172477937Y-93890760D01*
X172633149Y-94154785D01*
X172820651Y-94396947D01*
X172823499Y-94399790D01*
X173003291Y-94579268D01*
X173037404Y-94613322D01*
X173040585Y-94615776D01*
X173040586Y-94615777D01*
X173276701Y-94797939D01*
X173276705Y-94797942D01*
X173279894Y-94800402D01*
X173283373Y-94802439D01*
X173460179Y-94905963D01*
X173544189Y-94955153D01*
X173547874Y-94956721D01*
X173547878Y-94956723D01*
X173679029Y-95012528D01*
X173826006Y-95075067D01*
X174120775Y-95158201D01*
X174274404Y-95181024D01*
X174420419Y-95202716D01*
X174420421Y-95202716D01*
X174423718Y-95203206D01*
X174427049Y-95203346D01*
X174427053Y-95203346D01*
X174463737Y-95204883D01*
X174507084Y-95206700D01*
X174702474Y-95206700D01*
X174825915Y-95198826D01*
X174926639Y-95192401D01*
X174926644Y-95192400D01*
X174930647Y-95192145D01*
X174934584Y-95191383D01*
X174934586Y-95191383D01*
X175227401Y-95134730D01*
X175227405Y-95134729D01*
X175231338Y-95133968D01*
X175522200Y-95038056D01*
X175798518Y-94905963D01*
X176055812Y-94739831D01*
X176289910Y-94542352D01*
X176485420Y-94329365D01*
X176494304Y-94319687D01*
X176494306Y-94319685D01*
X176497019Y-94316729D01*
X176532260Y-94266865D01*
X176613914Y-94151326D01*
X176673780Y-94066618D01*
X176817328Y-93796074D01*
X176860144Y-93682466D01*
X176923919Y-93513244D01*
X176923921Y-93513238D01*
X176925336Y-93509483D01*
X176952278Y-93395955D01*
X176995124Y-93215407D01*
X176995125Y-93215402D01*
X176996053Y-93211491D01*
X177028332Y-92906929D01*
X177028237Y-92902531D01*
X177021739Y-92604752D01*
X177021739Y-92604747D01*
X177021651Y-92600735D01*
X176976117Y-92297870D01*
X176892469Y-92003247D01*
X176772063Y-91721640D01*
X176616851Y-91457615D01*
X176429349Y-91215453D01*
X176212596Y-90999078D01*
X176126806Y-90932891D01*
X175973299Y-90814461D01*
X175973295Y-90814458D01*
X175970106Y-90811998D01*
X175793538Y-90708613D01*
X175709275Y-90659275D01*
X175709272Y-90659273D01*
X175705811Y-90657247D01*
X175702126Y-90655679D01*
X175702122Y-90655677D01*
X175515051Y-90576078D01*
X175423994Y-90537333D01*
X175129225Y-90454199D01*
X174884609Y-90417859D01*
X174829581Y-90409684D01*
X174829579Y-90409684D01*
X174826282Y-90409194D01*
X174822951Y-90409054D01*
X174822947Y-90409054D01*
X174786263Y-90407517D01*
X174742916Y-90405700D01*
X174547526Y-90405700D01*
X174424085Y-90413574D01*
X174323361Y-90419999D01*
X174323356Y-90420000D01*
X174319353Y-90420255D01*
X174315416Y-90421017D01*
X174315414Y-90421017D01*
X174022599Y-90477670D01*
X174022595Y-90477671D01*
X174018662Y-90478432D01*
X173727800Y-90574344D01*
X173451482Y-90706437D01*
X173194188Y-90872569D01*
X173191123Y-90875154D01*
X173191121Y-90875156D01*
X173187553Y-90878166D01*
X172960090Y-91070048D01*
X172849907Y-91190081D01*
X172779297Y-91267003D01*
X172752981Y-91295671D01*
X172576220Y-91545782D01*
X172432672Y-91816326D01*
X172431257Y-91820082D01*
X172431256Y-91820083D01*
X172332092Y-92083208D01*
X172324664Y-92102917D01*
X172323735Y-92106832D01*
X172264485Y-92356505D01*
X172253947Y-92400909D01*
X172221668Y-92705471D01*
X170792517Y-92705471D01*
X170773117Y-92545156D01*
X170707481Y-92331800D01*
X170605099Y-92133441D01*
X170601690Y-92128999D01*
X170601688Y-92128995D01*
X170472620Y-91960790D01*
X170469210Y-91956346D01*
X170304107Y-91806114D01*
X170115010Y-91687493D01*
X169907895Y-91604234D01*
X169902407Y-91603097D01*
X169902402Y-91603096D01*
X169721209Y-91565573D01*
X169689310Y-91558967D01*
X169684697Y-91558701D01*
X169634474Y-91555805D01*
X169634470Y-91555805D01*
X169632651Y-91555700D01*
X169488370Y-91555700D01*
X169485583Y-91555949D01*
X169485577Y-91555949D01*
X169416003Y-91562159D01*
X169322661Y-91570489D01*
X169317247Y-91571970D01*
X169317242Y-91571971D01*
X169203470Y-91603096D01*
X169107349Y-91629392D01*
X169102291Y-91631804D01*
X169102287Y-91631806D01*
X169030393Y-91666098D01*
X168905871Y-91725492D01*
X168724595Y-91855752D01*
X168720688Y-91859784D01*
X168577910Y-92007119D01*
X168569251Y-92016054D01*
X168444750Y-92201332D01*
X168355026Y-92405729D01*
X168353718Y-92411177D01*
X168353716Y-92411183D01*
X168309162Y-92596764D01*
X168302915Y-92622785D01*
X168302592Y-92628390D01*
X168291332Y-92823685D01*
X168290066Y-92845638D01*
X166730200Y-92845638D01*
X166730200Y-89256200D01*
X172519508Y-89256200D01*
X172524500Y-89287719D01*
X172539354Y-89381504D01*
X172596950Y-89494542D01*
X172686658Y-89584250D01*
X172799696Y-89641846D01*
X172809485Y-89643396D01*
X172809487Y-89643397D01*
X172915207Y-89660141D01*
X172925000Y-89661692D01*
X172946726Y-89658251D01*
X172966436Y-89656700D01*
X176283564Y-89656700D01*
X176303274Y-89658251D01*
X176325000Y-89661692D01*
X176334793Y-89660141D01*
X176440513Y-89643397D01*
X176440515Y-89643396D01*
X176450304Y-89641846D01*
X176563342Y-89584250D01*
X176653050Y-89494542D01*
X176710646Y-89381504D01*
X176713021Y-89366512D01*
X176725500Y-89287719D01*
X176728941Y-89265993D01*
X176730492Y-89256200D01*
X176727051Y-89234474D01*
X176725500Y-89214764D01*
X176725500Y-86297636D01*
X176727051Y-86277926D01*
X176728941Y-86265993D01*
X176730492Y-86256200D01*
X176714175Y-86153175D01*
X176712197Y-86140687D01*
X176712196Y-86140685D01*
X176710646Y-86130896D01*
X176653050Y-86017858D01*
X176563342Y-85928150D01*
X176450304Y-85870554D01*
X176440515Y-85869004D01*
X176440513Y-85869003D01*
X176356519Y-85855700D01*
X176334793Y-85852259D01*
X176325000Y-85850708D01*
X176315207Y-85852259D01*
X176303274Y-85854149D01*
X176283564Y-85855700D01*
X172966436Y-85855700D01*
X172946726Y-85854149D01*
X172934793Y-85852259D01*
X172925000Y-85850708D01*
X172893481Y-85855700D01*
X172799696Y-85870554D01*
X172686658Y-85928150D01*
X172596950Y-86017858D01*
X172539354Y-86130896D01*
X172537804Y-86140685D01*
X172537803Y-86140687D01*
X172535825Y-86153175D01*
X172519508Y-86256200D01*
X172521059Y-86265993D01*
X172522949Y-86277926D01*
X172524500Y-86297636D01*
X172524500Y-89214764D01*
X172522949Y-89234474D01*
X172519508Y-89256200D01*
X166730200Y-89256200D01*
X166730200Y-78777000D01*
X166750202Y-78708879D01*
X166803858Y-78662386D01*
X166856200Y-78651000D01*
X172760454Y-78651000D01*
X172828575Y-78671002D01*
X172845254Y-78683807D01*
X172940612Y-78770577D01*
X172940616Y-78770580D01*
X172946233Y-78775691D01*
X172952906Y-78779314D01*
X172952910Y-78779317D01*
X173088558Y-78852967D01*
X173088560Y-78852968D01*
X173095235Y-78856592D01*
X173102584Y-78858520D01*
X173251883Y-78897688D01*
X173251885Y-78897688D01*
X173259233Y-78899616D01*
X173345609Y-78900973D01*
X173421161Y-78902160D01*
X173421164Y-78902160D01*
X173428760Y-78902279D01*
X173436165Y-78900583D01*
X173436166Y-78900583D01*
X173508620Y-78883989D01*
X173594029Y-78864428D01*
X173745498Y-78788247D01*
X173824713Y-78720590D01*
X173868651Y-78683064D01*
X173868652Y-78683063D01*
X173874423Y-78678134D01*
X173973361Y-78540447D01*
X173982292Y-78518231D01*
X174033766Y-78390187D01*
X174033767Y-78390185D01*
X174036601Y-78383134D01*
X174054845Y-78254944D01*
X174059909Y-78219362D01*
X174059909Y-78219359D01*
X174060490Y-78215278D01*
X174060645Y-78200500D01*
X174040276Y-78032180D01*
X173980345Y-77873577D01*
X173920085Y-77785898D01*
X173888614Y-77740108D01*
X173888613Y-77740107D01*
X173884312Y-77733849D01*
X173878119Y-77728331D01*
X173763392Y-77626112D01*
X173763388Y-77626110D01*
X173757721Y-77621060D01*
X173738718Y-77610998D01*
X173614644Y-77545305D01*
X173607881Y-77541724D01*
X173443441Y-77500419D01*
X173435843Y-77500379D01*
X173435841Y-77500379D01*
X173358668Y-77499975D01*
X173273895Y-77499531D01*
X173266508Y-77501305D01*
X173266504Y-77501305D01*
X173123162Y-77535720D01*
X173109032Y-77539112D01*
X173102288Y-77542593D01*
X173102285Y-77542594D01*
X172983376Y-77603968D01*
X172958369Y-77616875D01*
X172952647Y-77621867D01*
X172952645Y-77621868D01*
X172902677Y-77665458D01*
X172848070Y-77713095D01*
X172841359Y-77718949D01*
X172776877Y-77748657D01*
X172758530Y-77750000D01*
X170495607Y-77750000D01*
X170427486Y-77729998D01*
X170380993Y-77676342D01*
X170370889Y-77606068D01*
X170393736Y-77549850D01*
X170397066Y-77545276D01*
X170496257Y-77409002D01*
X170525100Y-77369376D01*
X170525102Y-77369373D01*
X170527787Y-77365684D01*
X170656206Y-77121599D01*
X170748045Y-76861532D01*
X170784516Y-76676492D01*
X170800499Y-76595404D01*
X170800500Y-76595398D01*
X170801380Y-76590932D01*
X170804492Y-76528432D01*
X170814867Y-76320036D01*
X170814867Y-76320030D01*
X170815094Y-76315467D01*
X170788898Y-76040908D01*
X170775966Y-75988056D01*
X170724429Y-75777444D01*
X170723343Y-75773006D01*
X170619801Y-75517374D01*
X170617500Y-75513444D01*
X170617497Y-75513438D01*
X170482745Y-75283297D01*
X170482740Y-75283290D01*
X170480442Y-75279365D01*
X170438502Y-75226922D01*
X170411578Y-75161229D01*
X170424443Y-75091408D01*
X170473015Y-75039626D01*
X170503654Y-75026694D01*
X170617651Y-74995508D01*
X170622709Y-74993096D01*
X170622713Y-74993094D01*
X170745582Y-74934488D01*
X170819129Y-74899408D01*
X171000405Y-74769148D01*
X171155749Y-74608846D01*
X171280250Y-74423568D01*
X171286099Y-74410245D01*
X171318150Y-74337230D01*
X171369974Y-74219171D01*
X171371282Y-74213723D01*
X171371284Y-74213717D01*
X171420775Y-74007572D01*
X171420775Y-74007571D01*
X171422085Y-74002115D01*
X171430710Y-73852531D01*
X171434611Y-73784869D01*
X171434611Y-73784866D01*
X171434934Y-73779262D01*
X171408117Y-73557656D01*
X171342481Y-73344300D01*
X171240099Y-73145941D01*
X171236690Y-73141499D01*
X171236688Y-73141495D01*
X171107620Y-72973290D01*
X171104210Y-72968846D01*
X170939107Y-72818614D01*
X170750010Y-72699993D01*
X170542895Y-72616734D01*
X170537407Y-72615597D01*
X170537402Y-72615596D01*
X170362578Y-72579392D01*
X170324310Y-72571467D01*
X170319697Y-72571201D01*
X170269474Y-72568305D01*
X170269470Y-72568305D01*
X170267651Y-72568200D01*
X170123370Y-72568200D01*
X170120583Y-72568449D01*
X170120577Y-72568449D01*
X170051003Y-72574659D01*
X169957661Y-72582989D01*
X169952247Y-72584470D01*
X169952242Y-72584471D01*
X169838470Y-72615596D01*
X169742349Y-72641892D01*
X169737291Y-72644304D01*
X169737287Y-72644306D01*
X169671905Y-72675492D01*
X169540871Y-72737992D01*
X169359595Y-72868252D01*
X169355688Y-72872284D01*
X169212910Y-73019619D01*
X169204251Y-73028554D01*
X169079750Y-73213832D01*
X169077491Y-73218978D01*
X169077490Y-73218980D01*
X169041850Y-73300170D01*
X168990026Y-73418229D01*
X168988718Y-73423677D01*
X168988716Y-73423683D01*
X168954230Y-73567328D01*
X168937915Y-73635285D01*
X168937592Y-73640890D01*
X168928322Y-73801674D01*
X168925066Y-73858138D01*
X168951883Y-74079744D01*
X168996259Y-74223991D01*
X169017519Y-74293100D01*
X169015519Y-74293715D01*
X169021805Y-74355221D01*
X168989694Y-74418540D01*
X168928447Y-74454448D01*
X168897926Y-74458200D01*
X168839930Y-74458200D01*
X168837662Y-74458365D01*
X168837650Y-74458365D01*
X168703397Y-74468106D01*
X168634917Y-74473075D01*
X168630462Y-74474059D01*
X168630459Y-74474059D01*
X168370053Y-74531552D01*
X168370050Y-74531553D01*
X168365597Y-74532536D01*
X168107681Y-74630251D01*
X168103694Y-74632465D01*
X168103693Y-74632466D01*
X167880775Y-74756286D01*
X167866572Y-74764175D01*
X167647322Y-74931502D01*
X167644129Y-74934768D01*
X167644127Y-74934770D01*
X167457717Y-75125458D01*
X167457713Y-75125463D01*
X167454523Y-75128726D01*
X167451836Y-75132418D01*
X167451834Y-75132420D01*
X167306428Y-75332187D01*
X167292213Y-75351716D01*
X167163794Y-75595801D01*
X167071955Y-75855868D01*
X167059618Y-75918463D01*
X167026847Y-76084730D01*
X167018620Y-76126468D01*
X167018393Y-76131022D01*
X167018393Y-76131024D01*
X167006446Y-76371009D01*
X167004906Y-76401933D01*
X167031102Y-76676492D01*
X167096657Y-76944394D01*
X167200199Y-77200026D01*
X167202500Y-77203956D01*
X167202503Y-77203962D01*
X167337255Y-77434103D01*
X167337260Y-77434110D01*
X167339558Y-77438035D01*
X167342405Y-77441595D01*
X167425344Y-77545305D01*
X167452268Y-77610998D01*
X167439402Y-77680819D01*
X167390831Y-77732601D01*
X167326941Y-77750000D01*
X166518494Y-77750000D01*
X166450373Y-77729998D01*
X166429399Y-77713095D01*
X165147108Y-76430804D01*
X165113082Y-76368492D01*
X165118147Y-76297677D01*
X165160694Y-76240841D01*
X165228181Y-76215965D01*
X165319700Y-76210127D01*
X165401639Y-76204901D01*
X165401644Y-76204900D01*
X165405647Y-76204645D01*
X165409584Y-76203883D01*
X165409586Y-76203883D01*
X165702401Y-76147230D01*
X165702405Y-76147229D01*
X165706338Y-76146468D01*
X165997200Y-76050556D01*
X166273518Y-75918463D01*
X166530812Y-75752331D01*
X166764910Y-75554852D01*
X166972019Y-75329229D01*
X167000298Y-75289216D01*
X167088493Y-75164422D01*
X167148780Y-75079118D01*
X167292328Y-74808574D01*
X167314545Y-74749623D01*
X167398919Y-74525744D01*
X167398921Y-74525738D01*
X167400336Y-74521983D01*
X167430265Y-74395865D01*
X167470124Y-74227907D01*
X167470125Y-74227902D01*
X167471053Y-74223991D01*
X167503332Y-73919429D01*
X167502786Y-73894368D01*
X167496739Y-73617252D01*
X167496739Y-73617247D01*
X167496651Y-73613235D01*
X167451117Y-73310370D01*
X167444529Y-73287164D01*
X167385426Y-73078995D01*
X167367469Y-73015747D01*
X167247063Y-72734140D01*
X167091851Y-72470115D01*
X166904349Y-72227953D01*
X166687596Y-72011578D01*
X166606585Y-71949078D01*
X166448299Y-71826961D01*
X166448295Y-71826958D01*
X166445106Y-71824498D01*
X166359919Y-71774619D01*
X166184275Y-71671775D01*
X166184272Y-71671773D01*
X166180811Y-71669747D01*
X166177126Y-71668179D01*
X166177122Y-71668177D01*
X165942021Y-71568141D01*
X165887170Y-71523064D01*
X165865397Y-71455488D01*
X165883614Y-71386869D01*
X165936038Y-71338991D01*
X165991354Y-71326200D01*
X175460454Y-71326200D01*
X175528575Y-71346202D01*
X175545253Y-71359006D01*
X175545998Y-71359684D01*
X175640612Y-71445777D01*
X175640616Y-71445780D01*
X175646233Y-71450891D01*
X175652906Y-71454514D01*
X175652910Y-71454517D01*
X175788558Y-71528167D01*
X175788560Y-71528168D01*
X175795235Y-71531792D01*
X175802584Y-71533720D01*
X175951883Y-71572888D01*
X175951885Y-71572888D01*
X175959233Y-71574816D01*
X176045609Y-71576173D01*
X176121161Y-71577360D01*
X176121164Y-71577360D01*
X176128760Y-71577479D01*
X176136165Y-71575783D01*
X176136166Y-71575783D01*
X176196586Y-71561945D01*
X176294029Y-71539628D01*
X176445498Y-71463447D01*
X176574423Y-71353334D01*
X176673361Y-71215647D01*
X176676194Y-71208600D01*
X176733766Y-71065387D01*
X176733767Y-71065385D01*
X176736601Y-71058334D01*
X176743877Y-71007211D01*
X176759909Y-70894562D01*
X176759909Y-70894559D01*
X176760490Y-70890478D01*
X176760645Y-70875700D01*
X176740276Y-70707380D01*
X176680345Y-70548777D01*
X176645590Y-70498209D01*
X176588614Y-70415308D01*
X176588613Y-70415307D01*
X176584312Y-70409049D01*
X176567426Y-70394004D01*
X176463392Y-70301312D01*
X176463388Y-70301310D01*
X176457721Y-70296260D01*
X176428215Y-70280637D01*
X176346140Y-70237181D01*
X176307881Y-70216924D01*
X176143441Y-70175619D01*
X176135843Y-70175579D01*
X176135841Y-70175579D01*
X176058668Y-70175175D01*
X175973895Y-70174731D01*
X175966508Y-70176505D01*
X175966504Y-70176505D01*
X175842820Y-70206200D01*
X175809032Y-70214312D01*
X175802288Y-70217793D01*
X175802285Y-70217794D01*
X175680384Y-70280712D01*
X175658369Y-70292075D01*
X175548070Y-70388295D01*
X175541359Y-70394149D01*
X175476877Y-70423857D01*
X175458530Y-70425200D01*
X167328232Y-70425200D01*
X167260111Y-70405198D01*
X167213618Y-70351542D01*
X167205002Y-70288411D01*
X167203941Y-70288411D01*
X167203941Y-70280637D01*
X167203784Y-70279487D01*
X167203941Y-70278496D01*
X167203941Y-70278491D01*
X167205492Y-70268700D01*
X167202051Y-70246974D01*
X167200500Y-70227264D01*
X167200500Y-67310136D01*
X167202051Y-67290426D01*
X167203941Y-67278493D01*
X167205492Y-67268700D01*
X167185646Y-67143396D01*
X167128050Y-67030358D01*
X167038342Y-66940650D01*
X166925304Y-66883054D01*
X166915515Y-66881504D01*
X166915513Y-66881503D01*
X166831519Y-66868200D01*
X166809793Y-66864759D01*
X166800000Y-66863208D01*
X166790207Y-66864759D01*
X166778274Y-66866649D01*
X166758564Y-66868200D01*
X163441436Y-66868200D01*
X163421726Y-66866649D01*
X163409793Y-66864759D01*
X163400000Y-66863208D01*
X163368481Y-66868200D01*
X163274696Y-66883054D01*
X163161658Y-66940650D01*
X163071950Y-67030358D01*
X163014354Y-67143396D01*
X162994508Y-67268700D01*
X162996059Y-67278493D01*
X162997949Y-67290426D01*
X162999500Y-67310136D01*
X162999500Y-70227264D01*
X162997949Y-70246974D01*
X162994508Y-70268700D01*
X162996217Y-70279489D01*
X162996059Y-70280712D01*
X162996059Y-70288410D01*
X162995064Y-70288410D01*
X162987118Y-70349900D01*
X162941396Y-70404214D01*
X162871768Y-70425200D01*
X162014093Y-70425200D01*
X161945972Y-70405198D01*
X161924998Y-70388295D01*
X153030464Y-61493761D01*
X152996438Y-61431449D01*
X153001503Y-61360634D01*
X153037726Y-61308857D01*
X153040855Y-61306184D01*
X153057423Y-61292034D01*
X153156361Y-61154347D01*
X153199595Y-61046800D01*
X153216766Y-61004087D01*
X153216767Y-61004085D01*
X153219601Y-60997034D01*
X153233977Y-60896022D01*
X153242909Y-60833262D01*
X153242909Y-60833259D01*
X153243490Y-60829178D01*
X153243645Y-60814400D01*
X153238807Y-60774423D01*
X153237260Y-60761636D01*
X153248933Y-60691606D01*
X153296615Y-60639004D01*
X153362345Y-60620500D01*
X153382787Y-60620500D01*
X153450906Y-60640501D01*
X153458351Y-60645674D01*
X153483851Y-60664786D01*
X153499446Y-60673324D01*
X153619894Y-60718478D01*
X153635149Y-60722105D01*
X153686014Y-60727631D01*
X153692828Y-60728000D01*
X153765385Y-60728000D01*
X153780624Y-60723525D01*
X153781829Y-60722135D01*
X153783500Y-60714452D01*
X153783500Y-60709884D01*
X154291500Y-60709884D01*
X154295975Y-60725123D01*
X154297365Y-60726328D01*
X154305048Y-60727999D01*
X154382169Y-60727999D01*
X154388990Y-60727629D01*
X154439852Y-60722105D01*
X154455104Y-60718479D01*
X154575554Y-60673324D01*
X154591149Y-60664786D01*
X154693224Y-60588285D01*
X154705785Y-60575724D01*
X154782286Y-60473649D01*
X154790824Y-60458054D01*
X154835978Y-60337606D01*
X154839605Y-60322351D01*
X154845131Y-60271486D01*
X154845500Y-60264672D01*
X154845500Y-59267115D01*
X154841025Y-59251876D01*
X154839635Y-59250671D01*
X154831952Y-59249000D01*
X154309615Y-59249000D01*
X154294376Y-59253475D01*
X154293171Y-59254865D01*
X154291500Y-59262548D01*
X154291500Y-60709884D01*
X153783500Y-60709884D01*
X153783500Y-60617582D01*
X153803502Y-60549461D01*
X153820405Y-60528487D01*
X153890550Y-60458342D01*
X153948146Y-60345304D01*
X153951782Y-60322351D01*
X153957084Y-60288869D01*
X153963000Y-60251519D01*
X153962999Y-58866998D01*
X153983001Y-58798879D01*
X154036657Y-58752386D01*
X154088999Y-58741000D01*
X154860385Y-58741000D01*
X154875624Y-58736525D01*
X154876829Y-58735135D01*
X154878500Y-58727452D01*
X154878500Y-57852115D01*
X154874025Y-57836876D01*
X154872635Y-57835671D01*
X154864952Y-57834000D01*
X154249381Y-57834000D01*
X154181260Y-57813998D01*
X154134767Y-57760342D01*
X154124663Y-57690068D01*
X154154157Y-57625488D01*
X154166551Y-57613310D01*
X154171040Y-57610367D01*
X154176068Y-57605059D01*
X154176072Y-57605056D01*
X154282349Y-57492866D01*
X154287385Y-57487550D01*
X154344794Y-57388714D01*
X154396305Y-57339856D01*
X154453748Y-57326000D01*
X154860385Y-57326000D01*
X154875624Y-57321525D01*
X154876829Y-57320135D01*
X154878500Y-57312452D01*
X154878500Y-56072076D01*
X154874527Y-56058545D01*
X154866732Y-56057425D01*
X154758979Y-56089138D01*
X154747611Y-56093731D01*
X154583346Y-56179607D01*
X154573085Y-56186321D01*
X154428627Y-56302468D01*
X154419868Y-56311046D01*
X154307167Y-56445357D01*
X154248057Y-56484684D01*
X154177069Y-56485810D01*
X154129066Y-56460391D01*
X154113359Y-56447047D01*
X154113353Y-56447043D01*
X154107780Y-56442308D01*
X153957111Y-56365373D01*
X153950002Y-56363633D01*
X153949998Y-56363632D01*
X153834608Y-56335396D01*
X153792783Y-56325162D01*
X153787186Y-56324815D01*
X153787181Y-56324814D01*
X153784051Y-56324620D01*
X153784042Y-56324620D01*
X153782112Y-56324500D01*
X153660137Y-56324500D01*
X153571465Y-56334838D01*
X153541735Y-56338304D01*
X153541734Y-56338304D01*
X153534463Y-56339152D01*
X153527586Y-56341648D01*
X153527583Y-56341649D01*
X153462225Y-56365373D01*
X153375439Y-56396875D01*
X153233960Y-56489633D01*
X153117615Y-56612450D01*
X153113939Y-56618779D01*
X153113935Y-56618784D01*
X153093431Y-56654085D01*
X153041920Y-56702944D01*
X152984477Y-56716800D01*
X152982938Y-56716800D01*
X152973601Y-56716454D01*
X152959429Y-56715401D01*
X152927426Y-56713023D01*
X152918650Y-56714896D01*
X152909693Y-56715507D01*
X152909686Y-56715401D01*
X152896433Y-56716800D01*
X148732273Y-56716800D01*
X148721177Y-56715561D01*
X148721129Y-56716159D01*
X148712183Y-56715439D01*
X148703427Y-56713458D01*
X148655136Y-56716454D01*
X148653460Y-56716558D01*
X148645658Y-56716800D01*
X148641821Y-56716800D01*
X148573700Y-56696798D01*
X148540339Y-56665482D01*
X148461047Y-56557736D01*
X148461045Y-56557733D01*
X148456709Y-56551842D01*
X148418022Y-56518975D01*
X148333354Y-56447043D01*
X148333351Y-56447041D01*
X148327780Y-56442308D01*
X148177111Y-56365373D01*
X148170002Y-56363633D01*
X148169998Y-56363632D01*
X148054608Y-56335396D01*
X148012783Y-56325162D01*
X148007186Y-56324815D01*
X148007181Y-56324814D01*
X148004051Y-56324620D01*
X148004042Y-56324620D01*
X148002112Y-56324500D01*
X147880137Y-56324500D01*
X147791465Y-56334838D01*
X147761735Y-56338304D01*
X147761734Y-56338304D01*
X147754463Y-56339152D01*
X147747586Y-56341648D01*
X147747583Y-56341649D01*
X147682225Y-56365373D01*
X147595439Y-56396875D01*
X147540866Y-56432655D01*
X147482864Y-56470682D01*
X147414928Y-56491305D01*
X147346628Y-56471925D01*
X147316136Y-56444946D01*
X147215103Y-56321067D01*
X147206459Y-56312363D01*
X147063644Y-56194216D01*
X147053473Y-56187356D01*
X146890424Y-56099196D01*
X146879119Y-56094444D01*
X146763808Y-56058750D01*
X146749705Y-56058544D01*
X146746500Y-56065299D01*
X146746500Y-57307885D01*
X146750975Y-57323124D01*
X146752365Y-57324329D01*
X146760048Y-57326000D01*
X147168148Y-57326000D01*
X147236269Y-57346002D01*
X147281058Y-57399076D01*
X147281526Y-57398809D01*
X147282971Y-57401342D01*
X147284088Y-57402666D01*
X147288018Y-57411902D01*
X147292357Y-57417798D01*
X147383953Y-57542264D01*
X147383955Y-57542267D01*
X147388291Y-57548158D01*
X147393867Y-57552895D01*
X147463408Y-57611975D01*
X147502372Y-57671324D01*
X147503065Y-57742317D01*
X147465265Y-57802415D01*
X147400975Y-57832537D01*
X147381828Y-57834000D01*
X146764615Y-57834000D01*
X146749376Y-57838475D01*
X146748171Y-57839865D01*
X146746500Y-57847548D01*
X146746500Y-58722885D01*
X146750975Y-58738124D01*
X146752365Y-58739329D01*
X146760048Y-58741000D01*
X147536000Y-58741000D01*
X147604121Y-58761002D01*
X147650614Y-58814658D01*
X147662000Y-58867000D01*
X147662001Y-59123000D01*
X147641999Y-59191120D01*
X147588344Y-59237613D01*
X147536001Y-59249000D01*
X146797616Y-59249000D01*
X146782377Y-59253475D01*
X146781172Y-59254865D01*
X146779501Y-59262548D01*
X146779501Y-59893800D01*
X146759499Y-59961921D01*
X146705843Y-60008414D01*
X146653501Y-60019800D01*
X131707073Y-60019800D01*
X131695977Y-60018561D01*
X131695929Y-60019159D01*
X131686983Y-60018439D01*
X131678227Y-60016458D01*
X131628260Y-60019558D01*
X131620458Y-60019800D01*
X131605555Y-60019800D01*
X131596186Y-60021142D01*
X131586134Y-60022171D01*
X131542283Y-60024892D01*
X131533838Y-60027941D01*
X131527602Y-60029232D01*
X131519851Y-60031165D01*
X131513762Y-60032946D01*
X131504871Y-60034219D01*
X131496695Y-60037936D01*
X131496696Y-60037936D01*
X131464864Y-60052408D01*
X131455499Y-60056220D01*
X131422617Y-60068091D01*
X131422614Y-60068093D01*
X131414170Y-60071141D01*
X131406923Y-60076436D01*
X131401293Y-60079429D01*
X131394443Y-60083432D01*
X131389056Y-60086877D01*
X131380880Y-60090594D01*
X131374080Y-60096454D01*
X131374079Y-60096454D01*
X131347587Y-60119281D01*
X131339671Y-60125566D01*
X131333599Y-60130002D01*
X131333592Y-60130008D01*
X131329665Y-60132877D01*
X131319624Y-60142918D01*
X131312777Y-60149276D01*
X131277696Y-60179504D01*
X131272812Y-60187039D01*
X131266913Y-60193801D01*
X131266833Y-60193731D01*
X131258448Y-60204094D01*
X125863270Y-65599272D01*
X125800958Y-65633298D01*
X125759257Y-65635291D01*
X125706124Y-65628955D01*
X125699121Y-65629691D01*
X125699118Y-65629691D01*
X125640373Y-65635865D01*
X125570535Y-65623092D01*
X125538109Y-65599650D01*
X123697872Y-63759414D01*
X123690900Y-63750688D01*
X123690442Y-63751077D01*
X123684626Y-63744243D01*
X123679835Y-63736650D01*
X123642293Y-63703494D01*
X123636606Y-63698148D01*
X123626085Y-63687627D01*
X123618513Y-63681952D01*
X123610682Y-63675576D01*
X123584474Y-63652430D01*
X123584475Y-63652430D01*
X123577745Y-63646487D01*
X123569618Y-63642671D01*
X123564281Y-63639166D01*
X123557463Y-63635070D01*
X123551880Y-63632013D01*
X123544695Y-63626628D01*
X123536290Y-63623477D01*
X123536288Y-63623476D01*
X123503546Y-63611202D01*
X123494226Y-63607275D01*
X123491010Y-63605765D01*
X123454452Y-63588601D01*
X123445582Y-63587220D01*
X123439502Y-63585361D01*
X123431781Y-63583335D01*
X123425568Y-63581969D01*
X123417157Y-63578816D01*
X123390120Y-63576807D01*
X123373324Y-63575559D01*
X123363277Y-63574405D01*
X123355855Y-63573249D01*
X123355853Y-63573249D01*
X123351044Y-63572500D01*
X123336838Y-63572500D01*
X123327503Y-63572154D01*
X123308731Y-63570759D01*
X123295684Y-63569790D01*
X123229232Y-63544795D01*
X123215613Y-63532920D01*
X123108633Y-63425190D01*
X123108629Y-63425187D01*
X123103670Y-63420193D01*
X123092661Y-63413206D01*
X122982725Y-63343439D01*
X122952036Y-63323963D01*
X122922252Y-63313357D01*
X122789486Y-63266081D01*
X122789481Y-63266080D01*
X122782851Y-63263719D01*
X122775865Y-63262886D01*
X122775861Y-63262885D01*
X122648077Y-63247648D01*
X122604524Y-63242455D01*
X122597521Y-63243191D01*
X122597520Y-63243191D01*
X122432925Y-63260490D01*
X122432921Y-63260491D01*
X122425917Y-63261227D01*
X122419246Y-63263498D01*
X122262577Y-63316832D01*
X122262574Y-63316833D01*
X122255907Y-63319103D01*
X122249909Y-63322793D01*
X122249907Y-63322794D01*
X122235039Y-63331941D01*
X122102945Y-63413206D01*
X122097914Y-63418132D01*
X122097911Y-63418135D01*
X122090707Y-63425190D01*
X121974632Y-63538859D01*
X121970813Y-63544784D01*
X121970812Y-63544786D01*
X121912628Y-63635070D01*
X121877346Y-63689817D01*
X121874937Y-63696437D01*
X121874935Y-63696440D01*
X121873306Y-63700916D01*
X121815922Y-63858578D01*
X121793414Y-64036753D01*
X121810939Y-64215486D01*
X121867626Y-64385896D01*
X121960659Y-64539512D01*
X122085414Y-64668699D01*
X122235689Y-64767036D01*
X122404016Y-64829636D01*
X122410997Y-64830567D01*
X122410999Y-64830568D01*
X122575049Y-64852457D01*
X122575053Y-64852457D01*
X122582030Y-64853388D01*
X122589042Y-64852750D01*
X122589046Y-64852750D01*
X122753860Y-64837751D01*
X122753861Y-64837751D01*
X122760881Y-64837112D01*
X122931682Y-64781615D01*
X122962614Y-64763176D01*
X123079892Y-64693265D01*
X123079894Y-64693264D01*
X123085944Y-64689657D01*
X123091043Y-64684801D01*
X123091046Y-64684799D01*
X123097942Y-64678232D01*
X123161068Y-64645741D01*
X123231739Y-64652537D01*
X123273927Y-64680385D01*
X124104180Y-65510639D01*
X124865024Y-66271483D01*
X124899050Y-66333795D01*
X124900936Y-66376368D01*
X124897002Y-66407517D01*
X124895014Y-66423253D01*
X124895701Y-66430260D01*
X124895701Y-66430263D01*
X124896505Y-66438462D01*
X124912539Y-66601986D01*
X124914762Y-66608668D01*
X124914762Y-66608669D01*
X124962647Y-66752617D01*
X124969226Y-66772396D01*
X124992801Y-66811323D01*
X125010980Y-66879950D01*
X124989170Y-66947514D01*
X124984778Y-66952818D01*
X124984789Y-66952826D01*
X124978962Y-66960846D01*
X124971950Y-66967858D01*
X124914354Y-67080896D01*
X124894508Y-67206200D01*
X124896059Y-67215993D01*
X124897949Y-67227926D01*
X124899500Y-67247636D01*
X124899500Y-70164764D01*
X124897949Y-70184474D01*
X124894508Y-70206200D01*
X124899500Y-70237719D01*
X124914354Y-70331504D01*
X124971950Y-70444542D01*
X125061658Y-70534250D01*
X125174696Y-70591846D01*
X125184485Y-70593396D01*
X125184487Y-70593397D01*
X125290207Y-70610141D01*
X125300000Y-70611692D01*
X125321726Y-70608251D01*
X125341436Y-70606700D01*
X128658564Y-70606700D01*
X128678274Y-70608251D01*
X128700000Y-70611692D01*
X128709793Y-70610141D01*
X128815513Y-70593397D01*
X128815515Y-70593396D01*
X128825304Y-70591846D01*
X128938342Y-70534250D01*
X129028050Y-70444542D01*
X129085646Y-70331504D01*
X129092472Y-70288410D01*
X129100500Y-70237719D01*
X129103941Y-70215993D01*
X129105492Y-70206200D01*
X129102051Y-70184474D01*
X129100500Y-70164764D01*
X129100500Y-67247636D01*
X129102051Y-67227926D01*
X129103941Y-67215993D01*
X129105492Y-67206200D01*
X129085646Y-67080896D01*
X129028050Y-66967858D01*
X128938342Y-66878150D01*
X128825304Y-66820554D01*
X128815515Y-66819004D01*
X128815513Y-66819003D01*
X128731519Y-66805700D01*
X128709793Y-66802259D01*
X128700000Y-66800708D01*
X128690207Y-66802259D01*
X128678274Y-66804149D01*
X128658564Y-66805700D01*
X126598499Y-66805700D01*
X126530378Y-66785698D01*
X126483885Y-66732042D01*
X126473781Y-66661768D01*
X126477249Y-66648435D01*
X126476504Y-66648244D01*
X126478257Y-66641418D01*
X126480757Y-66634836D01*
X126505751Y-66456993D01*
X126506065Y-66434500D01*
X126504019Y-66416264D01*
X126499400Y-66375078D01*
X126511684Y-66305152D01*
X126535520Y-66271938D01*
X131799753Y-61007705D01*
X131862065Y-60973679D01*
X131888848Y-60970800D01*
X134408844Y-60970800D01*
X134476965Y-60990802D01*
X134523458Y-61044458D01*
X134533562Y-61114732D01*
X134504068Y-61179312D01*
X134491673Y-61191749D01*
X134457304Y-61221731D01*
X134359813Y-61360447D01*
X134298224Y-61518413D01*
X134297232Y-61525946D01*
X134297232Y-61525947D01*
X134285883Y-61612157D01*
X134276094Y-61686511D01*
X134294699Y-61855035D01*
X134352966Y-62014256D01*
X134357202Y-62020559D01*
X134357202Y-62020560D01*
X134370274Y-62040013D01*
X134447530Y-62154983D01*
X134453146Y-62160093D01*
X134490000Y-62193628D01*
X134526922Y-62254268D01*
X134531200Y-62286821D01*
X134531200Y-65908780D01*
X134530327Y-65923589D01*
X134526336Y-65957310D01*
X134528028Y-65966574D01*
X134528028Y-65966575D01*
X134536872Y-66015001D01*
X134537522Y-66018904D01*
X134546251Y-66076962D01*
X134549379Y-66083475D01*
X134550675Y-66090573D01*
X134577725Y-66142647D01*
X134579468Y-66146137D01*
X134604891Y-66199079D01*
X134609777Y-66204365D01*
X134609810Y-66204413D01*
X134613121Y-66210788D01*
X134617425Y-66215828D01*
X134654652Y-66253055D01*
X134658081Y-66256620D01*
X134696846Y-66298556D01*
X134703205Y-66302249D01*
X134709363Y-66307766D01*
X140780305Y-72378708D01*
X140814331Y-72441020D01*
X140809266Y-72511835D01*
X140766719Y-72568671D01*
X140724460Y-72589336D01*
X140532349Y-72641892D01*
X140527291Y-72644304D01*
X140527287Y-72644306D01*
X140461905Y-72675492D01*
X140330871Y-72737992D01*
X140149595Y-72868252D01*
X140145688Y-72872284D01*
X140002910Y-73019619D01*
X139994251Y-73028554D01*
X139869750Y-73213832D01*
X139867491Y-73218978D01*
X139867490Y-73218980D01*
X139831850Y-73300170D01*
X139780026Y-73418229D01*
X139778718Y-73423677D01*
X139778716Y-73423683D01*
X139744230Y-73567328D01*
X139727915Y-73635285D01*
X139727592Y-73640890D01*
X139718322Y-73801674D01*
X139715066Y-73858138D01*
X139741883Y-74079744D01*
X139807519Y-74293100D01*
X139810095Y-74298090D01*
X139810095Y-74298091D01*
X139863277Y-74401127D01*
X139909901Y-74491459D01*
X139913310Y-74495901D01*
X139913312Y-74495905D01*
X139997832Y-74606054D01*
X140045790Y-74668554D01*
X140210893Y-74818786D01*
X140399990Y-74937407D01*
X140607105Y-75020666D01*
X140612593Y-75021803D01*
X140612598Y-75021804D01*
X140762896Y-75052929D01*
X140825690Y-75065933D01*
X140830303Y-75066199D01*
X140880526Y-75069095D01*
X140880530Y-75069095D01*
X140882349Y-75069200D01*
X141026630Y-75069200D01*
X141029417Y-75068951D01*
X141029423Y-75068951D01*
X141098997Y-75062741D01*
X141192339Y-75054411D01*
X141197753Y-75052930D01*
X141197758Y-75052929D01*
X141366740Y-75006700D01*
X141407651Y-74995508D01*
X141412709Y-74993096D01*
X141412713Y-74993094D01*
X141535582Y-74934488D01*
X141609129Y-74899408D01*
X141790405Y-74769148D01*
X141945749Y-74608846D01*
X142070250Y-74423568D01*
X142076099Y-74410245D01*
X142108150Y-74337230D01*
X142159974Y-74219171D01*
X142196661Y-74066358D01*
X142232013Y-74004790D01*
X142295040Y-73972107D01*
X142365731Y-73978688D01*
X142408275Y-74006678D01*
X146805047Y-78403450D01*
X146814901Y-78414539D01*
X146830094Y-78433811D01*
X146830098Y-78433815D01*
X146835928Y-78441210D01*
X146843675Y-78446564D01*
X146843679Y-78446568D01*
X146884204Y-78474577D01*
X146887398Y-78476858D01*
X146934617Y-78511735D01*
X146941434Y-78514129D01*
X146947369Y-78518231D01*
X146956344Y-78521069D01*
X146956345Y-78521070D01*
X146978307Y-78528015D01*
X147003275Y-78535912D01*
X147007015Y-78537160D01*
X147053545Y-78553500D01*
X147053548Y-78553501D01*
X147062431Y-78556620D01*
X147069616Y-78556903D01*
X147069689Y-78556917D01*
X147076530Y-78559080D01*
X147083137Y-78559600D01*
X147135791Y-78559600D01*
X147140737Y-78559697D01*
X147197794Y-78561939D01*
X147204903Y-78560054D01*
X147213152Y-78559600D01*
X150070907Y-78559600D01*
X150139028Y-78579602D01*
X150160002Y-78596505D01*
X157266602Y-85703105D01*
X157300628Y-85765417D01*
X157295563Y-85836232D01*
X157253016Y-85893068D01*
X157186496Y-85917879D01*
X157177507Y-85918200D01*
X153916436Y-85918200D01*
X153896726Y-85916649D01*
X153884793Y-85914759D01*
X153875000Y-85913208D01*
X153843481Y-85918200D01*
X153749696Y-85933054D01*
X153636658Y-85990650D01*
X153546950Y-86080358D01*
X153489354Y-86193396D01*
X153487804Y-86203185D01*
X153487803Y-86203187D01*
X153476201Y-86276442D01*
X153469508Y-86318700D01*
X153471059Y-86328493D01*
X153472949Y-86340426D01*
X153474500Y-86360136D01*
X153474500Y-89277264D01*
X153472949Y-89296974D01*
X153469508Y-89318700D01*
X153471059Y-89328491D01*
X153471708Y-89332589D01*
X153471059Y-89337611D01*
X153471059Y-89338410D01*
X153470956Y-89338410D01*
X153462609Y-89403000D01*
X153416887Y-89457314D01*
X153347259Y-89478300D01*
X151975794Y-89478300D01*
X151907673Y-89458298D01*
X151886699Y-89441395D01*
X147904482Y-85459179D01*
X147870456Y-85396867D01*
X147868428Y-85368687D01*
X147867590Y-85368678D01*
X147867702Y-85358035D01*
X147867702Y-85358029D01*
X147867745Y-85353900D01*
X147865940Y-85338980D01*
X147862176Y-85307877D01*
X147847376Y-85185580D01*
X147787445Y-85026977D01*
X147765424Y-84994937D01*
X147695714Y-84893508D01*
X147695713Y-84893507D01*
X147691412Y-84887249D01*
X147629684Y-84832251D01*
X147570492Y-84779512D01*
X147570488Y-84779510D01*
X147564821Y-84774460D01*
X147531207Y-84756662D01*
X147487823Y-84733692D01*
X147414981Y-84695124D01*
X147250541Y-84653819D01*
X147242943Y-84653779D01*
X147242941Y-84653779D01*
X147165768Y-84653375D01*
X147080995Y-84652931D01*
X147073608Y-84654705D01*
X147073604Y-84654705D01*
X146954914Y-84683201D01*
X146916132Y-84692512D01*
X146909388Y-84695993D01*
X146909385Y-84695994D01*
X146772217Y-84766792D01*
X146765469Y-84770275D01*
X146759747Y-84775267D01*
X146759745Y-84775268D01*
X146694424Y-84832251D01*
X146637704Y-84881731D01*
X146610503Y-84920434D01*
X146555453Y-84998763D01*
X146540213Y-85020447D01*
X146478624Y-85178413D01*
X146477632Y-85185946D01*
X146477632Y-85185947D01*
X146458306Y-85332750D01*
X146456494Y-85346511D01*
X146475099Y-85515035D01*
X146533366Y-85674256D01*
X146627930Y-85814983D01*
X146633542Y-85820090D01*
X146633545Y-85820093D01*
X146747712Y-85923977D01*
X146747716Y-85923980D01*
X146753333Y-85929091D01*
X146760006Y-85932714D01*
X146760010Y-85932717D01*
X146895658Y-86006367D01*
X146895660Y-86006368D01*
X146902335Y-86009992D01*
X146909684Y-86011920D01*
X147058983Y-86051088D01*
X147058985Y-86051088D01*
X147066333Y-86053016D01*
X147175603Y-86054732D01*
X147243400Y-86075801D01*
X147262718Y-86091621D01*
X151394247Y-90223150D01*
X151404101Y-90234239D01*
X151419294Y-90253511D01*
X151419298Y-90253515D01*
X151425128Y-90260910D01*
X151432875Y-90266264D01*
X151432879Y-90266268D01*
X151473404Y-90294277D01*
X151476598Y-90296558D01*
X151523817Y-90331435D01*
X151530634Y-90333829D01*
X151536569Y-90337931D01*
X151545544Y-90340769D01*
X151545545Y-90340770D01*
X151567507Y-90347715D01*
X151592475Y-90355612D01*
X151596215Y-90356860D01*
X151642745Y-90373200D01*
X151642748Y-90373201D01*
X151651631Y-90376320D01*
X151658816Y-90376603D01*
X151658889Y-90376617D01*
X151665730Y-90378780D01*
X151672337Y-90379300D01*
X151724991Y-90379300D01*
X151729937Y-90379397D01*
X151786994Y-90381639D01*
X151794103Y-90379754D01*
X151802352Y-90379300D01*
X154674374Y-90379300D01*
X154742495Y-90399302D01*
X154788988Y-90452958D01*
X154799092Y-90523232D01*
X154769598Y-90587812D01*
X154713833Y-90624962D01*
X154681617Y-90635585D01*
X154681615Y-90635586D01*
X154677800Y-90636844D01*
X154401482Y-90768937D01*
X154389859Y-90776442D01*
X154232316Y-90878166D01*
X154144188Y-90935069D01*
X153910090Y-91132548D01*
X153702981Y-91358171D01*
X153526220Y-91608282D01*
X153382672Y-91878826D01*
X153381257Y-91882582D01*
X153381256Y-91882583D01*
X153286715Y-92133441D01*
X153274664Y-92165417D01*
X153273735Y-92169332D01*
X153229317Y-92356505D01*
X153203947Y-92463409D01*
X153171668Y-92767971D01*
X153171755Y-92771973D01*
X153171755Y-92771980D01*
X153177868Y-93052115D01*
X153178349Y-93074165D01*
X153223883Y-93377030D01*
X153224979Y-93380890D01*
X153224980Y-93380895D01*
X153234870Y-93415729D01*
X153307531Y-93671653D01*
X153309111Y-93675349D01*
X153309112Y-93675351D01*
X153325684Y-93714110D01*
X153427937Y-93953260D01*
X153583149Y-94217285D01*
X153770651Y-94459447D01*
X153816157Y-94504874D01*
X153953291Y-94641768D01*
X153987404Y-94675822D01*
X153990585Y-94678276D01*
X153990586Y-94678277D01*
X154226701Y-94860439D01*
X154226705Y-94860442D01*
X154229894Y-94862902D01*
X154233373Y-94864939D01*
X154410179Y-94968463D01*
X154494189Y-95017653D01*
X154497874Y-95019221D01*
X154497878Y-95019223D01*
X154625431Y-95073497D01*
X154776006Y-95137567D01*
X155070775Y-95220701D01*
X155291338Y-95253468D01*
X155370419Y-95265216D01*
X155370421Y-95265216D01*
X155373718Y-95265706D01*
X155377049Y-95265846D01*
X155377053Y-95265846D01*
X155413737Y-95267383D01*
X155457084Y-95269200D01*
X155652474Y-95269200D01*
X155775915Y-95261326D01*
X155876639Y-95254901D01*
X155876644Y-95254900D01*
X155880647Y-95254645D01*
X155884584Y-95253883D01*
X155884586Y-95253883D01*
X156177401Y-95197230D01*
X156177405Y-95197229D01*
X156181338Y-95196468D01*
X156472200Y-95100556D01*
X156748518Y-94968463D01*
X157005812Y-94802331D01*
X157011019Y-94797939D01*
X157191368Y-94645801D01*
X157239910Y-94604852D01*
X157447019Y-94379229D01*
X157458391Y-94363139D01*
X157563914Y-94213826D01*
X157623780Y-94129118D01*
X157767328Y-93858574D01*
X157789545Y-93799623D01*
X157873919Y-93575744D01*
X157873921Y-93575738D01*
X157875336Y-93571983D01*
X157905265Y-93445865D01*
X157945124Y-93277907D01*
X157945125Y-93277902D01*
X157946053Y-93273991D01*
X157978332Y-92969429D01*
X157977117Y-92913715D01*
X157971739Y-92667252D01*
X157971739Y-92667247D01*
X157971651Y-92663235D01*
X157926117Y-92360370D01*
X157919529Y-92337164D01*
X157860426Y-92128995D01*
X157842469Y-92065747D01*
X157722063Y-91784140D01*
X157566851Y-91520115D01*
X157379349Y-91277953D01*
X157231103Y-91129966D01*
X157165437Y-91064414D01*
X157162596Y-91061578D01*
X157081585Y-90999078D01*
X156923299Y-90876961D01*
X156923295Y-90876958D01*
X156920106Y-90874498D01*
X156834999Y-90824666D01*
X156659275Y-90721775D01*
X156659272Y-90721773D01*
X156655811Y-90719747D01*
X156652126Y-90718179D01*
X156652122Y-90718177D01*
X156440273Y-90628035D01*
X156424306Y-90621241D01*
X156369455Y-90576164D01*
X156347682Y-90508589D01*
X156365899Y-90439969D01*
X156418323Y-90392092D01*
X156473639Y-90379300D01*
X160756554Y-90379300D01*
X160824675Y-90399302D01*
X160841354Y-90412107D01*
X160936712Y-90498877D01*
X160936716Y-90498880D01*
X160942333Y-90503991D01*
X160949006Y-90507614D01*
X160949010Y-90507617D01*
X161084658Y-90581267D01*
X161084660Y-90581268D01*
X161091335Y-90584892D01*
X161098684Y-90586820D01*
X161247983Y-90625988D01*
X161247985Y-90625988D01*
X161255333Y-90627916D01*
X161341709Y-90629273D01*
X161417261Y-90630460D01*
X161417264Y-90630460D01*
X161424860Y-90630579D01*
X161432265Y-90628883D01*
X161432266Y-90628883D01*
X161559106Y-90599833D01*
X161590129Y-90592728D01*
X161741598Y-90516547D01*
X161835572Y-90436285D01*
X161900362Y-90407254D01*
X161970562Y-90417859D01*
X162006498Y-90443001D01*
X162357595Y-90794098D01*
X162391621Y-90856410D01*
X162394500Y-90883193D01*
X162394500Y-96960547D01*
X162374498Y-97028668D01*
X162320842Y-97075161D01*
X162267840Y-97086545D01*
X162207895Y-97086231D01*
X162200508Y-97088005D01*
X162200504Y-97088005D01*
X162070289Y-97119268D01*
X162043032Y-97125812D01*
X162036288Y-97129293D01*
X162036285Y-97129294D01*
X161934619Y-97181768D01*
X161892369Y-97203575D01*
X161886647Y-97208567D01*
X161886645Y-97208568D01*
X161848658Y-97241706D01*
X161764604Y-97315031D01*
X161667113Y-97453747D01*
X161605524Y-97611713D01*
X161604532Y-97619246D01*
X161604532Y-97619247D01*
X161590107Y-97728823D01*
X161583394Y-97779811D01*
X161584227Y-97787357D01*
X161584227Y-97787364D01*
X161584300Y-97788021D01*
X161584216Y-97788496D01*
X161584148Y-97794956D01*
X161583071Y-97794945D01*
X161571893Y-97857925D01*
X161548156Y-97890940D01*
X153936866Y-105502231D01*
X153874554Y-105536257D01*
X153803739Y-105531192D01*
X153758682Y-105502238D01*
X153758675Y-105502231D01*
X153496037Y-105239631D01*
X153486181Y-105228540D01*
X153471004Y-105209287D01*
X153471001Y-105209285D01*
X153465172Y-105201890D01*
X153457424Y-105196535D01*
X153416888Y-105168518D01*
X153413676Y-105166223D01*
X153374032Y-105136946D01*
X153366455Y-105131350D01*
X153359653Y-105128962D01*
X153353731Y-105124869D01*
X153344757Y-105122031D01*
X153344753Y-105122029D01*
X153297796Y-105107179D01*
X153294050Y-105105929D01*
X153247527Y-105089595D01*
X153247525Y-105089595D01*
X153238637Y-105086474D01*
X153231448Y-105086192D01*
X153231421Y-105086187D01*
X153224570Y-105084020D01*
X153217963Y-105083500D01*
X153165274Y-105083500D01*
X153160336Y-105083403D01*
X153112687Y-105081534D01*
X153112686Y-105081534D01*
X153103274Y-105081165D01*
X153096178Y-105083047D01*
X153087954Y-105083500D01*
X128997993Y-105083500D01*
X128929872Y-105063498D01*
X128908898Y-105046595D01*
X124220953Y-100358650D01*
X124211099Y-100347561D01*
X124195906Y-100328289D01*
X124195902Y-100328285D01*
X124190072Y-100320890D01*
X124182324Y-100315535D01*
X124182323Y-100315534D01*
X124176860Y-100311758D01*
X124159403Y-100297200D01*
X123632782Y-99770579D01*
X123598756Y-99708267D01*
X123603821Y-99637452D01*
X123608918Y-99625661D01*
X123616920Y-99609468D01*
X123619215Y-99604825D01*
X123657762Y-99477953D01*
X123684659Y-99389427D01*
X123684660Y-99389421D01*
X123686163Y-99384475D01*
X123705201Y-99239866D01*
X123715785Y-99159471D01*
X123715785Y-99159465D01*
X123716222Y-99156149D01*
X123717199Y-99116174D01*
X123717818Y-99090864D01*
X123717818Y-99090860D01*
X123717900Y-99087500D01*
X123699030Y-98857978D01*
X123642926Y-98634620D01*
X123551096Y-98423424D01*
X123474564Y-98305124D01*
X123428815Y-98234406D01*
X123428813Y-98234403D01*
X123426005Y-98230063D01*
X123406323Y-98208432D01*
X123274490Y-98063551D01*
X123274489Y-98063550D01*
X123271012Y-98059729D01*
X123266961Y-98056530D01*
X123266957Y-98056526D01*
X123185168Y-97991933D01*
X132079906Y-97991933D01*
X132106102Y-98266492D01*
X132171657Y-98534394D01*
X132275199Y-98790026D01*
X132277500Y-98793956D01*
X132277503Y-98793962D01*
X132412255Y-99024103D01*
X132412260Y-99024110D01*
X132414558Y-99028035D01*
X132417405Y-99031595D01*
X132535028Y-99178674D01*
X132586816Y-99243432D01*
X132590157Y-99246553D01*
X132743103Y-99389427D01*
X132788364Y-99431708D01*
X133014979Y-99588916D01*
X133019055Y-99590944D01*
X133019057Y-99590945D01*
X133257827Y-99709732D01*
X133257830Y-99709733D01*
X133261914Y-99711765D01*
X133523998Y-99797680D01*
X133528489Y-99798460D01*
X133528490Y-99798460D01*
X133791957Y-99844206D01*
X133791965Y-99844207D01*
X133795738Y-99844862D01*
X133799575Y-99845053D01*
X133881305Y-99849122D01*
X133881313Y-99849122D01*
X133882876Y-99849200D01*
X134055070Y-99849200D01*
X134057338Y-99849035D01*
X134057350Y-99849035D01*
X134191603Y-99839294D01*
X134260083Y-99834325D01*
X134264538Y-99833341D01*
X134264541Y-99833341D01*
X134524947Y-99775848D01*
X134524950Y-99775847D01*
X134529403Y-99774864D01*
X134787319Y-99677149D01*
X134899841Y-99614649D01*
X135024435Y-99545443D01*
X135024436Y-99545442D01*
X135028428Y-99543225D01*
X135229951Y-99389427D01*
X135244046Y-99378670D01*
X135244047Y-99378669D01*
X135247678Y-99375898D01*
X135250873Y-99372630D01*
X135437283Y-99181942D01*
X135437287Y-99181937D01*
X135440477Y-99178674D01*
X135443166Y-99174980D01*
X135600100Y-98959376D01*
X135600102Y-98959373D01*
X135602787Y-98955684D01*
X135731206Y-98711599D01*
X135823045Y-98451532D01*
X135859516Y-98266492D01*
X135875499Y-98185404D01*
X135875500Y-98185398D01*
X135876380Y-98180932D01*
X135879492Y-98118432D01*
X135885790Y-97991933D01*
X151129906Y-97991933D01*
X151156102Y-98266492D01*
X151221657Y-98534394D01*
X151325199Y-98790026D01*
X151327500Y-98793956D01*
X151327503Y-98793962D01*
X151462255Y-99024103D01*
X151462260Y-99024110D01*
X151464558Y-99028035D01*
X151467405Y-99031595D01*
X151585028Y-99178674D01*
X151636816Y-99243432D01*
X151640157Y-99246553D01*
X151793103Y-99389427D01*
X151838364Y-99431708D01*
X152064979Y-99588916D01*
X152069055Y-99590944D01*
X152069057Y-99590945D01*
X152307827Y-99709732D01*
X152307830Y-99709733D01*
X152311914Y-99711765D01*
X152573998Y-99797680D01*
X152578489Y-99798460D01*
X152578490Y-99798460D01*
X152841957Y-99844206D01*
X152841965Y-99844207D01*
X152845738Y-99844862D01*
X152849575Y-99845053D01*
X152931305Y-99849122D01*
X152931313Y-99849122D01*
X152932876Y-99849200D01*
X153105070Y-99849200D01*
X153107338Y-99849035D01*
X153107350Y-99849035D01*
X153241603Y-99839294D01*
X153310083Y-99834325D01*
X153314538Y-99833341D01*
X153314541Y-99833341D01*
X153574947Y-99775848D01*
X153574950Y-99775847D01*
X153579403Y-99774864D01*
X153837319Y-99677149D01*
X153949841Y-99614649D01*
X154074435Y-99545443D01*
X154074436Y-99545442D01*
X154078428Y-99543225D01*
X154279951Y-99389427D01*
X154294046Y-99378670D01*
X154294047Y-99378669D01*
X154297678Y-99375898D01*
X154300873Y-99372630D01*
X154487283Y-99181942D01*
X154487287Y-99181937D01*
X154490477Y-99178674D01*
X154493166Y-99174980D01*
X154650100Y-98959376D01*
X154650102Y-98959373D01*
X154652787Y-98955684D01*
X154781206Y-98711599D01*
X154873045Y-98451532D01*
X154909516Y-98266492D01*
X154925499Y-98185404D01*
X154925500Y-98185398D01*
X154926380Y-98180932D01*
X154929492Y-98118432D01*
X154939867Y-97910036D01*
X154939867Y-97910030D01*
X154940094Y-97905467D01*
X154913898Y-97630908D01*
X154899719Y-97572960D01*
X154849429Y-97367444D01*
X154848343Y-97363006D01*
X154744801Y-97107374D01*
X154742500Y-97103444D01*
X154742497Y-97103438D01*
X154607745Y-96873297D01*
X154607740Y-96873290D01*
X154605442Y-96869365D01*
X154602595Y-96865805D01*
X154436036Y-96657534D01*
X154436035Y-96657533D01*
X154433184Y-96653968D01*
X154415412Y-96637366D01*
X154234972Y-96468808D01*
X154234969Y-96468806D01*
X154231636Y-96465692D01*
X154005021Y-96308484D01*
X153971234Y-96291675D01*
X153762173Y-96187668D01*
X153762170Y-96187667D01*
X153758086Y-96185635D01*
X153496002Y-96099720D01*
X153491510Y-96098940D01*
X153228043Y-96053194D01*
X153228035Y-96053193D01*
X153224262Y-96052538D01*
X153214029Y-96052029D01*
X153138695Y-96048278D01*
X153138687Y-96048278D01*
X153137124Y-96048200D01*
X152964930Y-96048200D01*
X152962662Y-96048365D01*
X152962650Y-96048365D01*
X152828397Y-96058106D01*
X152759917Y-96063075D01*
X152755462Y-96064059D01*
X152755459Y-96064059D01*
X152495053Y-96121552D01*
X152495050Y-96121553D01*
X152490597Y-96122536D01*
X152232681Y-96220251D01*
X152228694Y-96222465D01*
X152228693Y-96222466D01*
X152104093Y-96291675D01*
X151991572Y-96354175D01*
X151772322Y-96521502D01*
X151769129Y-96524768D01*
X151769127Y-96524770D01*
X151582717Y-96715458D01*
X151582713Y-96715463D01*
X151579523Y-96718726D01*
X151576836Y-96722418D01*
X151576834Y-96722420D01*
X151462706Y-96879216D01*
X151417213Y-96941716D01*
X151288794Y-97185801D01*
X151196955Y-97445868D01*
X151196075Y-97450334D01*
X151149700Y-97685623D01*
X151143620Y-97716468D01*
X151143393Y-97721022D01*
X151143393Y-97721024D01*
X151132791Y-97933989D01*
X151129906Y-97991933D01*
X135885790Y-97991933D01*
X135889867Y-97910036D01*
X135889867Y-97910030D01*
X135890094Y-97905467D01*
X135863898Y-97630908D01*
X135849719Y-97572960D01*
X135799429Y-97367444D01*
X135798343Y-97363006D01*
X135694801Y-97107374D01*
X135692500Y-97103444D01*
X135692497Y-97103438D01*
X135557745Y-96873297D01*
X135557740Y-96873290D01*
X135555442Y-96869365D01*
X135552595Y-96865805D01*
X135386036Y-96657534D01*
X135386035Y-96657533D01*
X135383184Y-96653968D01*
X135365412Y-96637366D01*
X135184972Y-96468808D01*
X135184969Y-96468806D01*
X135181636Y-96465692D01*
X134955021Y-96308484D01*
X134921234Y-96291675D01*
X134712173Y-96187668D01*
X134712170Y-96187667D01*
X134708086Y-96185635D01*
X134446002Y-96099720D01*
X134441510Y-96098940D01*
X134178043Y-96053194D01*
X134178035Y-96053193D01*
X134174262Y-96052538D01*
X134164029Y-96052029D01*
X134088695Y-96048278D01*
X134088687Y-96048278D01*
X134087124Y-96048200D01*
X133914930Y-96048200D01*
X133912662Y-96048365D01*
X133912650Y-96048365D01*
X133778397Y-96058106D01*
X133709917Y-96063075D01*
X133705462Y-96064059D01*
X133705459Y-96064059D01*
X133445053Y-96121552D01*
X133445050Y-96121553D01*
X133440597Y-96122536D01*
X133182681Y-96220251D01*
X133178694Y-96222465D01*
X133178693Y-96222466D01*
X133054093Y-96291675D01*
X132941572Y-96354175D01*
X132722322Y-96521502D01*
X132719129Y-96524768D01*
X132719127Y-96524770D01*
X132532717Y-96715458D01*
X132532713Y-96715463D01*
X132529523Y-96718726D01*
X132526836Y-96722418D01*
X132526834Y-96722420D01*
X132412706Y-96879216D01*
X132367213Y-96941716D01*
X132238794Y-97185801D01*
X132146955Y-97445868D01*
X132146075Y-97450334D01*
X132099700Y-97685623D01*
X132093620Y-97716468D01*
X132093393Y-97721022D01*
X132093393Y-97721024D01*
X132082791Y-97933989D01*
X132079906Y-97991933D01*
X123185168Y-97991933D01*
X123094335Y-97920197D01*
X123094330Y-97920193D01*
X123090281Y-97916996D01*
X123085765Y-97914503D01*
X123085762Y-97914501D01*
X122893189Y-97808195D01*
X122893185Y-97808193D01*
X122888665Y-97805698D01*
X122883796Y-97803974D01*
X122883792Y-97803972D01*
X122676453Y-97730549D01*
X122676449Y-97730548D01*
X122671578Y-97728823D01*
X122666485Y-97727916D01*
X122666482Y-97727915D01*
X122570307Y-97710784D01*
X122444850Y-97688437D01*
X122358402Y-97687381D01*
X122219741Y-97685686D01*
X122219739Y-97685686D01*
X122214571Y-97685623D01*
X121986925Y-97720458D01*
X121768024Y-97792006D01*
X121563749Y-97898345D01*
X121379584Y-98036619D01*
X121220477Y-98203116D01*
X121090699Y-98393363D01*
X121065771Y-98447066D01*
X121011469Y-98564050D01*
X120964645Y-98617417D01*
X120897181Y-98637000D01*
X117226571Y-98637000D01*
X117158450Y-98616998D01*
X117111021Y-98561242D01*
X117053156Y-98428161D01*
X117053154Y-98428158D01*
X117051096Y-98423424D01*
X116974564Y-98305124D01*
X116928815Y-98234406D01*
X116928813Y-98234403D01*
X116926005Y-98230063D01*
X116906323Y-98208432D01*
X116774490Y-98063551D01*
X116774489Y-98063550D01*
X116771012Y-98059729D01*
X116766961Y-98056530D01*
X116766957Y-98056526D01*
X116594335Y-97920197D01*
X116594330Y-97920193D01*
X116590281Y-97916996D01*
X116585765Y-97914503D01*
X116585762Y-97914501D01*
X116393189Y-97808195D01*
X116393185Y-97808193D01*
X116388665Y-97805698D01*
X116383796Y-97803974D01*
X116383792Y-97803972D01*
X116176453Y-97730549D01*
X116176449Y-97730548D01*
X116171578Y-97728823D01*
X116166485Y-97727916D01*
X116166482Y-97727915D01*
X116070307Y-97710784D01*
X115944850Y-97688437D01*
X115858402Y-97687381D01*
X115719741Y-97685686D01*
X115719739Y-97685686D01*
X115714571Y-97685623D01*
X115486925Y-97720458D01*
X115268024Y-97792006D01*
X115063749Y-97898345D01*
X114879584Y-98036619D01*
X114720477Y-98203116D01*
X114590699Y-98393363D01*
X114588523Y-98398052D01*
X114588519Y-98398058D01*
X114495915Y-98597557D01*
X114493736Y-98602252D01*
X114432192Y-98824173D01*
X114431643Y-98829310D01*
X114410405Y-99028035D01*
X114407719Y-99053165D01*
X114408016Y-99058317D01*
X114408016Y-99058321D01*
X114413464Y-99152796D01*
X114420976Y-99283080D01*
X114422113Y-99288126D01*
X114422114Y-99288132D01*
X114443826Y-99384475D01*
X114471606Y-99507742D01*
X114473548Y-99512524D01*
X114473549Y-99512528D01*
X114555094Y-99713348D01*
X114558249Y-99721118D01*
X114678579Y-99917478D01*
X114829363Y-100091548D01*
X115006553Y-100238654D01*
X115205390Y-100354845D01*
X115420534Y-100437001D01*
X115425600Y-100438032D01*
X115425601Y-100438032D01*
X115526297Y-100458518D01*
X115646207Y-100482914D01*
X115775952Y-100487672D01*
X115871185Y-100491164D01*
X115871189Y-100491164D01*
X115876349Y-100491353D01*
X115881469Y-100490697D01*
X115881471Y-100490697D01*
X115976918Y-100478470D01*
X116104778Y-100462091D01*
X116109726Y-100460606D01*
X116109733Y-100460605D01*
X116297482Y-100404277D01*
X116325361Y-100395913D01*
X116532174Y-100294596D01*
X116719662Y-100160863D01*
X116882790Y-99998303D01*
X116940869Y-99917478D01*
X117014159Y-99815483D01*
X117017177Y-99811283D01*
X117024603Y-99796259D01*
X117084565Y-99674934D01*
X117117561Y-99608172D01*
X117165674Y-99555966D01*
X117230517Y-99538000D01*
X120899064Y-99538000D01*
X120967185Y-99558002D01*
X121015806Y-99616595D01*
X121028247Y-99647232D01*
X121058249Y-99721118D01*
X121178579Y-99917478D01*
X121329363Y-100091548D01*
X121506553Y-100238654D01*
X121705390Y-100354845D01*
X121920534Y-100437001D01*
X121925600Y-100438032D01*
X121925601Y-100438032D01*
X122026297Y-100458518D01*
X122146207Y-100482914D01*
X122275952Y-100487672D01*
X122371185Y-100491164D01*
X122371189Y-100491164D01*
X122376349Y-100491353D01*
X122381469Y-100490697D01*
X122381471Y-100490697D01*
X122476918Y-100478470D01*
X122604778Y-100462091D01*
X122609726Y-100460606D01*
X122609733Y-100460605D01*
X122747435Y-100419292D01*
X122825361Y-100395913D01*
X122830007Y-100393637D01*
X122850920Y-100383392D01*
X122920894Y-100371386D01*
X122986251Y-100399117D01*
X122995446Y-100407449D01*
X123535347Y-100947350D01*
X123545201Y-100958439D01*
X123560394Y-100977711D01*
X123560398Y-100977715D01*
X123566228Y-100985110D01*
X123573976Y-100990465D01*
X123573977Y-100990466D01*
X123579440Y-100994242D01*
X123596897Y-101008800D01*
X128416447Y-105828350D01*
X128426301Y-105839439D01*
X128441493Y-105858709D01*
X128447328Y-105866110D01*
X128455075Y-105871465D01*
X128455077Y-105871466D01*
X128495575Y-105899455D01*
X128498797Y-105901757D01*
X128529560Y-105924479D01*
X128546016Y-105936634D01*
X128552832Y-105939027D01*
X128558769Y-105943131D01*
X128567749Y-105945971D01*
X128567751Y-105945972D01*
X128587917Y-105952350D01*
X128614719Y-105960826D01*
X128618450Y-105962071D01*
X128664937Y-105978396D01*
X128664939Y-105978396D01*
X128673831Y-105981519D01*
X128681019Y-105981801D01*
X128681078Y-105981812D01*
X128687930Y-105983980D01*
X128694537Y-105984500D01*
X128747216Y-105984500D01*
X128752162Y-105984597D01*
X128809194Y-105986838D01*
X128816300Y-105984954D01*
X128824544Y-105984500D01*
X152914530Y-105984500D01*
X152982651Y-106004502D01*
X153003619Y-106021398D01*
X153482546Y-106500257D01*
X153489870Y-106509469D01*
X153490267Y-106509130D01*
X153496383Y-106516291D01*
X153501367Y-106524282D01*
X153518783Y-106539395D01*
X153537380Y-106555533D01*
X153543893Y-106561602D01*
X153672011Y-106689760D01*
X153706025Y-106752075D01*
X153708900Y-106778839D01*
X153708900Y-108083779D01*
X153688898Y-108151900D01*
X153665729Y-108178728D01*
X153635004Y-108205531D01*
X153608159Y-108243728D01*
X153543292Y-108336025D01*
X153537513Y-108344247D01*
X153475924Y-108502213D01*
X153474932Y-108509746D01*
X153474932Y-108509747D01*
X153470070Y-108546683D01*
X153453794Y-108670311D01*
X153472399Y-108838835D01*
X153475009Y-108845966D01*
X153527836Y-108990322D01*
X153530666Y-108998056D01*
X153625230Y-109138783D01*
X153630842Y-109143890D01*
X153630845Y-109143893D01*
X153745012Y-109247777D01*
X153745016Y-109247780D01*
X153750633Y-109252891D01*
X153757306Y-109256514D01*
X153757310Y-109256517D01*
X153892958Y-109330167D01*
X153892960Y-109330168D01*
X153899635Y-109333792D01*
X153906984Y-109335720D01*
X154056283Y-109374888D01*
X154056285Y-109374888D01*
X154063633Y-109376816D01*
X154150009Y-109378173D01*
X154225561Y-109379360D01*
X154225564Y-109379360D01*
X154233160Y-109379479D01*
X154240565Y-109377783D01*
X154240566Y-109377783D01*
X154300986Y-109363945D01*
X154398429Y-109341628D01*
X154469792Y-109305736D01*
X154539636Y-109292998D01*
X154605280Y-109320042D01*
X154645882Y-109378282D01*
X154648551Y-109449229D01*
X154615501Y-109507396D01*
X153525902Y-110596995D01*
X153463590Y-110631021D01*
X153436807Y-110633900D01*
X153198393Y-110633900D01*
X153130272Y-110613898D01*
X153109298Y-110596995D01*
X150036653Y-107524350D01*
X150026799Y-107513261D01*
X150011607Y-107493991D01*
X150011605Y-107493989D01*
X150005772Y-107486590D01*
X149998025Y-107481235D01*
X149998023Y-107481234D01*
X149957525Y-107453245D01*
X149954303Y-107450943D01*
X149914658Y-107421660D01*
X149914657Y-107421659D01*
X149907084Y-107416066D01*
X149900268Y-107413673D01*
X149894331Y-107409569D01*
X149885351Y-107406729D01*
X149885349Y-107406728D01*
X149865183Y-107400350D01*
X149838381Y-107391874D01*
X149834650Y-107390629D01*
X149788163Y-107374304D01*
X149788161Y-107374304D01*
X149779269Y-107371181D01*
X149772081Y-107370899D01*
X149772022Y-107370888D01*
X149765170Y-107368720D01*
X149758563Y-107368200D01*
X149705884Y-107368200D01*
X149700937Y-107368103D01*
X149643906Y-107365862D01*
X149636800Y-107367746D01*
X149628553Y-107368200D01*
X123726471Y-107368200D01*
X123658350Y-107348198D01*
X123610921Y-107292442D01*
X123553056Y-107159361D01*
X123553054Y-107159358D01*
X123550996Y-107154624D01*
X123425905Y-106961263D01*
X123405274Y-106938589D01*
X123274390Y-106794751D01*
X123274389Y-106794750D01*
X123270912Y-106790929D01*
X123266861Y-106787730D01*
X123266857Y-106787726D01*
X123094235Y-106651397D01*
X123094230Y-106651393D01*
X123090181Y-106648196D01*
X123085665Y-106645703D01*
X123085662Y-106645701D01*
X122893089Y-106539395D01*
X122893085Y-106539393D01*
X122888565Y-106536898D01*
X122883696Y-106535174D01*
X122883692Y-106535172D01*
X122676353Y-106461749D01*
X122676349Y-106461748D01*
X122671478Y-106460023D01*
X122666385Y-106459116D01*
X122666382Y-106459115D01*
X122570207Y-106441984D01*
X122444750Y-106419637D01*
X122358302Y-106418581D01*
X122219641Y-106416886D01*
X122219639Y-106416886D01*
X122214471Y-106416823D01*
X121986825Y-106451658D01*
X121767924Y-106523206D01*
X121563649Y-106629545D01*
X121379484Y-106767819D01*
X121220377Y-106934316D01*
X121090599Y-107124563D01*
X121012672Y-107292442D01*
X121011369Y-107295250D01*
X120964545Y-107348617D01*
X120897081Y-107368200D01*
X117226471Y-107368200D01*
X117158350Y-107348198D01*
X117110921Y-107292442D01*
X117053056Y-107159361D01*
X117053054Y-107159358D01*
X117050996Y-107154624D01*
X116925905Y-106961263D01*
X116905274Y-106938589D01*
X116774390Y-106794751D01*
X116774389Y-106794750D01*
X116770912Y-106790929D01*
X116766861Y-106787730D01*
X116766857Y-106787726D01*
X116594235Y-106651397D01*
X116594230Y-106651393D01*
X116590181Y-106648196D01*
X116585665Y-106645703D01*
X116585662Y-106645701D01*
X116393089Y-106539395D01*
X116393085Y-106539393D01*
X116388565Y-106536898D01*
X116383696Y-106535174D01*
X116383692Y-106535172D01*
X116176353Y-106461749D01*
X116176349Y-106461748D01*
X116171478Y-106460023D01*
X116166385Y-106459116D01*
X116166382Y-106459115D01*
X116070207Y-106441984D01*
X115944750Y-106419637D01*
X115858302Y-106418581D01*
X115719641Y-106416886D01*
X115719639Y-106416886D01*
X115714471Y-106416823D01*
X115486825Y-106451658D01*
X115267924Y-106523206D01*
X115063649Y-106629545D01*
X114879484Y-106767819D01*
X114720377Y-106934316D01*
X114590599Y-107124563D01*
X114588423Y-107129252D01*
X114588419Y-107129258D01*
X114495815Y-107328757D01*
X114493636Y-107333452D01*
X114432092Y-107555373D01*
X114407619Y-107784365D01*
X109938000Y-107784365D01*
X109938000Y-103284365D01*
X114407619Y-103284365D01*
X114407916Y-103289517D01*
X114407916Y-103289521D01*
X114413364Y-103383996D01*
X114420876Y-103514280D01*
X114422013Y-103519326D01*
X114422014Y-103519332D01*
X114443726Y-103615675D01*
X114471506Y-103738942D01*
X114473448Y-103743724D01*
X114473449Y-103743728D01*
X114556205Y-103947531D01*
X114558149Y-103952318D01*
X114678479Y-104148678D01*
X114829263Y-104322748D01*
X115006453Y-104469854D01*
X115205290Y-104586045D01*
X115420434Y-104668201D01*
X115425500Y-104669232D01*
X115425501Y-104669232D01*
X115526197Y-104689718D01*
X115646107Y-104714114D01*
X115775852Y-104718872D01*
X115871085Y-104722364D01*
X115871089Y-104722364D01*
X115876249Y-104722553D01*
X115881369Y-104721897D01*
X115881371Y-104721897D01*
X115950772Y-104713007D01*
X116104678Y-104693291D01*
X116109626Y-104691806D01*
X116109633Y-104691805D01*
X116320311Y-104628598D01*
X116320310Y-104628598D01*
X116325261Y-104627113D01*
X116532074Y-104525796D01*
X116719562Y-104392063D01*
X116882690Y-104229503D01*
X116940769Y-104148678D01*
X117014059Y-104046683D01*
X117017077Y-104042483D01*
X117117461Y-103839372D01*
X117165574Y-103787166D01*
X117230417Y-103769200D01*
X120898964Y-103769200D01*
X120967085Y-103789202D01*
X121015706Y-103847795D01*
X121058149Y-103952318D01*
X121178479Y-104148678D01*
X121329263Y-104322748D01*
X121506453Y-104469854D01*
X121705290Y-104586045D01*
X121920434Y-104668201D01*
X121925500Y-104669232D01*
X121925501Y-104669232D01*
X122026197Y-104689718D01*
X122146107Y-104714114D01*
X122275852Y-104718872D01*
X122371085Y-104722364D01*
X122371089Y-104722364D01*
X122376249Y-104722553D01*
X122381369Y-104721897D01*
X122381371Y-104721897D01*
X122450772Y-104713007D01*
X122604678Y-104693291D01*
X122609626Y-104691806D01*
X122609633Y-104691805D01*
X122820311Y-104628598D01*
X122820310Y-104628598D01*
X122825261Y-104627113D01*
X123032074Y-104525796D01*
X123219562Y-104392063D01*
X123382690Y-104229503D01*
X123440769Y-104148678D01*
X123514059Y-104046683D01*
X123517077Y-104042483D01*
X123619115Y-103836025D01*
X123650143Y-103733900D01*
X123684559Y-103620627D01*
X123684560Y-103620621D01*
X123686063Y-103615675D01*
X123716122Y-103387349D01*
X123717800Y-103318700D01*
X123698930Y-103089178D01*
X123642826Y-102865820D01*
X123571567Y-102701934D01*
X123553056Y-102659361D01*
X123553054Y-102659358D01*
X123550996Y-102654624D01*
X123425905Y-102461263D01*
X123405274Y-102438589D01*
X123274390Y-102294751D01*
X123274389Y-102294750D01*
X123270912Y-102290929D01*
X123266861Y-102287730D01*
X123266857Y-102287726D01*
X123094235Y-102151397D01*
X123094230Y-102151393D01*
X123090181Y-102148196D01*
X123085665Y-102145703D01*
X123085662Y-102145701D01*
X122893089Y-102039395D01*
X122893085Y-102039393D01*
X122888565Y-102036898D01*
X122883696Y-102035174D01*
X122883692Y-102035172D01*
X122676353Y-101961749D01*
X122676349Y-101961748D01*
X122671478Y-101960023D01*
X122666385Y-101959116D01*
X122666382Y-101959115D01*
X122570207Y-101941984D01*
X122444750Y-101919637D01*
X122358302Y-101918581D01*
X122219641Y-101916886D01*
X122219639Y-101916886D01*
X122214471Y-101916823D01*
X121986825Y-101951658D01*
X121767924Y-102023206D01*
X121563649Y-102129545D01*
X121379484Y-102267819D01*
X121220377Y-102434316D01*
X121090599Y-102624563D01*
X121058178Y-102694408D01*
X121011369Y-102795250D01*
X120964545Y-102848617D01*
X120897081Y-102868200D01*
X117226471Y-102868200D01*
X117158350Y-102848198D01*
X117110921Y-102792442D01*
X117053056Y-102659361D01*
X117053054Y-102659358D01*
X117050996Y-102654624D01*
X116925905Y-102461263D01*
X116905274Y-102438589D01*
X116774390Y-102294751D01*
X116774389Y-102294750D01*
X116770912Y-102290929D01*
X116766861Y-102287730D01*
X116766857Y-102287726D01*
X116594235Y-102151397D01*
X116594230Y-102151393D01*
X116590181Y-102148196D01*
X116585665Y-102145703D01*
X116585662Y-102145701D01*
X116393089Y-102039395D01*
X116393085Y-102039393D01*
X116388565Y-102036898D01*
X116383696Y-102035174D01*
X116383692Y-102035172D01*
X116176353Y-101961749D01*
X116176349Y-101961748D01*
X116171478Y-101960023D01*
X116166385Y-101959116D01*
X116166382Y-101959115D01*
X116070207Y-101941984D01*
X115944750Y-101919637D01*
X115858302Y-101918581D01*
X115719641Y-101916886D01*
X115719639Y-101916886D01*
X115714471Y-101916823D01*
X115486825Y-101951658D01*
X115267924Y-102023206D01*
X115063649Y-102129545D01*
X114879484Y-102267819D01*
X114720377Y-102434316D01*
X114590599Y-102624563D01*
X114588423Y-102629252D01*
X114588419Y-102629258D01*
X114495815Y-102828757D01*
X114493636Y-102833452D01*
X114484660Y-102865820D01*
X114448299Y-102996934D01*
X114432092Y-103055373D01*
X114431543Y-103060510D01*
X114409579Y-103266027D01*
X114407619Y-103284365D01*
X109938000Y-103284365D01*
X109938000Y-94553165D01*
X114407719Y-94553165D01*
X114408016Y-94558317D01*
X114408016Y-94558321D01*
X114411329Y-94615777D01*
X114420976Y-94783080D01*
X114422113Y-94788126D01*
X114422114Y-94788132D01*
X114443826Y-94884475D01*
X114471606Y-95007742D01*
X114473548Y-95012524D01*
X114473549Y-95012528D01*
X114552342Y-95206571D01*
X114558249Y-95221118D01*
X114678579Y-95417478D01*
X114829363Y-95591548D01*
X115006553Y-95738654D01*
X115205390Y-95854845D01*
X115420534Y-95937001D01*
X115425600Y-95938032D01*
X115425601Y-95938032D01*
X115526297Y-95958518D01*
X115646207Y-95982914D01*
X115775952Y-95987672D01*
X115871185Y-95991164D01*
X115871189Y-95991164D01*
X115876349Y-95991353D01*
X115881469Y-95990697D01*
X115881471Y-95990697D01*
X115950872Y-95981807D01*
X116104778Y-95962091D01*
X116109726Y-95960606D01*
X116109733Y-95960605D01*
X116320411Y-95897398D01*
X116320410Y-95897398D01*
X116325361Y-95895913D01*
X116532174Y-95794596D01*
X116719662Y-95660863D01*
X116882790Y-95498303D01*
X116940869Y-95417478D01*
X117014159Y-95315483D01*
X117017177Y-95311283D01*
X117038004Y-95269144D01*
X117092835Y-95158201D01*
X117117561Y-95108172D01*
X117165674Y-95055966D01*
X117230517Y-95038000D01*
X120899064Y-95038000D01*
X120967185Y-95058002D01*
X121015806Y-95116595D01*
X121022351Y-95132712D01*
X121058249Y-95221118D01*
X121087714Y-95269200D01*
X121146707Y-95365467D01*
X121178579Y-95417478D01*
X121329363Y-95591548D01*
X121506553Y-95738654D01*
X121705390Y-95854845D01*
X121920534Y-95937001D01*
X121925600Y-95938032D01*
X121925601Y-95938032D01*
X122026297Y-95958518D01*
X122146207Y-95982914D01*
X122275952Y-95987672D01*
X122371185Y-95991164D01*
X122371189Y-95991164D01*
X122376349Y-95991353D01*
X122381469Y-95990697D01*
X122381471Y-95990697D01*
X122450872Y-95981807D01*
X122604778Y-95962091D01*
X122609726Y-95960606D01*
X122609733Y-95960605D01*
X122820411Y-95897398D01*
X122820410Y-95897398D01*
X122825361Y-95895913D01*
X123032174Y-95794596D01*
X123219662Y-95660863D01*
X123382790Y-95498303D01*
X123416110Y-95451933D01*
X138429906Y-95451933D01*
X138456102Y-95726492D01*
X138457187Y-95730926D01*
X138457188Y-95730932D01*
X138513913Y-95962748D01*
X138521657Y-95994394D01*
X138625199Y-96250026D01*
X138627500Y-96253956D01*
X138627503Y-96253962D01*
X138762255Y-96484103D01*
X138762260Y-96484110D01*
X138764558Y-96488035D01*
X138767405Y-96491595D01*
X138894763Y-96650847D01*
X138936816Y-96703432D01*
X138940157Y-96706553D01*
X139074242Y-96831808D01*
X139138364Y-96891708D01*
X139364979Y-97048916D01*
X139369055Y-97050944D01*
X139369057Y-97050945D01*
X139607827Y-97169732D01*
X139607830Y-97169733D01*
X139611914Y-97171765D01*
X139873998Y-97257680D01*
X139878489Y-97258460D01*
X139878490Y-97258460D01*
X140141957Y-97304206D01*
X140141965Y-97304207D01*
X140145738Y-97304862D01*
X140149575Y-97305053D01*
X140231305Y-97309122D01*
X140231313Y-97309122D01*
X140232876Y-97309200D01*
X140405070Y-97309200D01*
X140407338Y-97309035D01*
X140407350Y-97309035D01*
X140541603Y-97299294D01*
X140610083Y-97294325D01*
X140614538Y-97293341D01*
X140614541Y-97293341D01*
X140874947Y-97235848D01*
X140874950Y-97235847D01*
X140879403Y-97234864D01*
X141137319Y-97137149D01*
X141157730Y-97125812D01*
X141374435Y-97005443D01*
X141374436Y-97005442D01*
X141378428Y-97003225D01*
X141597678Y-96835898D01*
X141600873Y-96832630D01*
X141787283Y-96641942D01*
X141787287Y-96641937D01*
X141790477Y-96638674D01*
X141822242Y-96595034D01*
X141950100Y-96419376D01*
X141950102Y-96419373D01*
X141952787Y-96415684D01*
X142081206Y-96171599D01*
X142173045Y-95911532D01*
X142209516Y-95726492D01*
X142225499Y-95645404D01*
X142225500Y-95645398D01*
X142226380Y-95640932D01*
X142229492Y-95578432D01*
X142235790Y-95451933D01*
X157479906Y-95451933D01*
X157506102Y-95726492D01*
X157507187Y-95730926D01*
X157507188Y-95730932D01*
X157563913Y-95962748D01*
X157571657Y-95994394D01*
X157675199Y-96250026D01*
X157677500Y-96253956D01*
X157677503Y-96253962D01*
X157812255Y-96484103D01*
X157812260Y-96484110D01*
X157814558Y-96488035D01*
X157817405Y-96491595D01*
X157944763Y-96650847D01*
X157986816Y-96703432D01*
X157990157Y-96706553D01*
X158124242Y-96831808D01*
X158188364Y-96891708D01*
X158414979Y-97048916D01*
X158419055Y-97050944D01*
X158419057Y-97050945D01*
X158657827Y-97169732D01*
X158657830Y-97169733D01*
X158661914Y-97171765D01*
X158923998Y-97257680D01*
X158928489Y-97258460D01*
X158928490Y-97258460D01*
X159191957Y-97304206D01*
X159191965Y-97304207D01*
X159195738Y-97304862D01*
X159199575Y-97305053D01*
X159281305Y-97309122D01*
X159281313Y-97309122D01*
X159282876Y-97309200D01*
X159455070Y-97309200D01*
X159457338Y-97309035D01*
X159457350Y-97309035D01*
X159591603Y-97299294D01*
X159660083Y-97294325D01*
X159664538Y-97293341D01*
X159664541Y-97293341D01*
X159924947Y-97235848D01*
X159924950Y-97235847D01*
X159929403Y-97234864D01*
X160187319Y-97137149D01*
X160207730Y-97125812D01*
X160424435Y-97005443D01*
X160424436Y-97005442D01*
X160428428Y-97003225D01*
X160647678Y-96835898D01*
X160650873Y-96832630D01*
X160837283Y-96641942D01*
X160837287Y-96641937D01*
X160840477Y-96638674D01*
X160872242Y-96595034D01*
X161000100Y-96419376D01*
X161000102Y-96419373D01*
X161002787Y-96415684D01*
X161131206Y-96171599D01*
X161223045Y-95911532D01*
X161259516Y-95726492D01*
X161275499Y-95645404D01*
X161275500Y-95645398D01*
X161276380Y-95640932D01*
X161279492Y-95578432D01*
X161289867Y-95370036D01*
X161289867Y-95370030D01*
X161290094Y-95365467D01*
X161263898Y-95090908D01*
X161260289Y-95076156D01*
X161199429Y-94827444D01*
X161198343Y-94823006D01*
X161094801Y-94567374D01*
X161092500Y-94563444D01*
X161092497Y-94563438D01*
X160957745Y-94333297D01*
X160957740Y-94333290D01*
X160955442Y-94329365D01*
X160913502Y-94276922D01*
X160886578Y-94211229D01*
X160899443Y-94141408D01*
X160948015Y-94089626D01*
X160978654Y-94076694D01*
X161092651Y-94045508D01*
X161097709Y-94043096D01*
X161097713Y-94043094D01*
X161220582Y-93984488D01*
X161294129Y-93949408D01*
X161475405Y-93819148D01*
X161577194Y-93714110D01*
X161626846Y-93662874D01*
X161626848Y-93662871D01*
X161630749Y-93658846D01*
X161755250Y-93473568D01*
X161761099Y-93460245D01*
X161799369Y-93373063D01*
X161844974Y-93269171D01*
X161846282Y-93263723D01*
X161846284Y-93263717D01*
X161895775Y-93057572D01*
X161895775Y-93057571D01*
X161897085Y-93052115D01*
X161905710Y-92902531D01*
X161909611Y-92834869D01*
X161909611Y-92834866D01*
X161909934Y-92829262D01*
X161883117Y-92607656D01*
X161817481Y-92394300D01*
X161715099Y-92195941D01*
X161711690Y-92191499D01*
X161711688Y-92191495D01*
X161582620Y-92023290D01*
X161579210Y-92018846D01*
X161414107Y-91868614D01*
X161225010Y-91749993D01*
X161017895Y-91666734D01*
X161012407Y-91665597D01*
X161012402Y-91665596D01*
X160837578Y-91629392D01*
X160799310Y-91621467D01*
X160790136Y-91620938D01*
X160744474Y-91618305D01*
X160744470Y-91618305D01*
X160742651Y-91618200D01*
X160598370Y-91618200D01*
X160595583Y-91618449D01*
X160595577Y-91618449D01*
X160526003Y-91624659D01*
X160432661Y-91632989D01*
X160427247Y-91634470D01*
X160427242Y-91634471D01*
X160309311Y-91666734D01*
X160217349Y-91691892D01*
X160212291Y-91694304D01*
X160212287Y-91694306D01*
X160146905Y-91725492D01*
X160015871Y-91787992D01*
X159834595Y-91918252D01*
X159830688Y-91922284D01*
X159687910Y-92069619D01*
X159679251Y-92078554D01*
X159554750Y-92263832D01*
X159552491Y-92268978D01*
X159552490Y-92268980D01*
X159516850Y-92350170D01*
X159465026Y-92468229D01*
X159463718Y-92473677D01*
X159463716Y-92473683D01*
X159429230Y-92617328D01*
X159412915Y-92685285D01*
X159412592Y-92690890D01*
X159403670Y-92845638D01*
X159400066Y-92908138D01*
X159426883Y-93129744D01*
X159483730Y-93314530D01*
X159492519Y-93343100D01*
X159490519Y-93343715D01*
X159496805Y-93405221D01*
X159464694Y-93468540D01*
X159403447Y-93504448D01*
X159372926Y-93508200D01*
X159314930Y-93508200D01*
X159312662Y-93508365D01*
X159312650Y-93508365D01*
X159178397Y-93518106D01*
X159109917Y-93523075D01*
X159105462Y-93524059D01*
X159105459Y-93524059D01*
X158845053Y-93581552D01*
X158845050Y-93581553D01*
X158840597Y-93582536D01*
X158582681Y-93680251D01*
X158578694Y-93682465D01*
X158578693Y-93682466D01*
X158355775Y-93806286D01*
X158341572Y-93814175D01*
X158122322Y-93981502D01*
X158119129Y-93984768D01*
X158119127Y-93984770D01*
X157932717Y-94175458D01*
X157932713Y-94175463D01*
X157929523Y-94178726D01*
X157926836Y-94182418D01*
X157926834Y-94182420D01*
X157773002Y-94393763D01*
X157767213Y-94401716D01*
X157638794Y-94645801D01*
X157546955Y-94905868D01*
X157534618Y-94968463D01*
X157497436Y-95157109D01*
X157493620Y-95176468D01*
X157493393Y-95181022D01*
X157493393Y-95181024D01*
X157482791Y-95393989D01*
X157479906Y-95451933D01*
X142235790Y-95451933D01*
X142239867Y-95370036D01*
X142239867Y-95370030D01*
X142240094Y-95365467D01*
X142213898Y-95090908D01*
X142210289Y-95076156D01*
X142149429Y-94827444D01*
X142148343Y-94823006D01*
X142044801Y-94567374D01*
X142042500Y-94563444D01*
X142042497Y-94563438D01*
X141907745Y-94333297D01*
X141907740Y-94333290D01*
X141905442Y-94329365D01*
X141863502Y-94276922D01*
X141836578Y-94211229D01*
X141849443Y-94141408D01*
X141898015Y-94089626D01*
X141928654Y-94076694D01*
X142042651Y-94045508D01*
X142047709Y-94043096D01*
X142047713Y-94043094D01*
X142170582Y-93984488D01*
X142244129Y-93949408D01*
X142425405Y-93819148D01*
X142527194Y-93714110D01*
X142576846Y-93662874D01*
X142576848Y-93662871D01*
X142580749Y-93658846D01*
X142705250Y-93473568D01*
X142711099Y-93460245D01*
X142749369Y-93373063D01*
X142794974Y-93269171D01*
X142796282Y-93263723D01*
X142796284Y-93263717D01*
X142845775Y-93057572D01*
X142845775Y-93057571D01*
X142847085Y-93052115D01*
X142855387Y-92908138D01*
X149240066Y-92908138D01*
X149266883Y-93129744D01*
X149332519Y-93343100D01*
X149335095Y-93348090D01*
X149335095Y-93348091D01*
X149388277Y-93451127D01*
X149434901Y-93541459D01*
X149438310Y-93545901D01*
X149438312Y-93545905D01*
X149522832Y-93656054D01*
X149570790Y-93718554D01*
X149735893Y-93868786D01*
X149924990Y-93987407D01*
X150132105Y-94070666D01*
X150137593Y-94071803D01*
X150137598Y-94071804D01*
X150261956Y-94097557D01*
X150350690Y-94115933D01*
X150355303Y-94116199D01*
X150405526Y-94119095D01*
X150405530Y-94119095D01*
X150407349Y-94119200D01*
X150551630Y-94119200D01*
X150554417Y-94118951D01*
X150554423Y-94118951D01*
X150623997Y-94112741D01*
X150717339Y-94104411D01*
X150722753Y-94102930D01*
X150722758Y-94102929D01*
X150891740Y-94056700D01*
X150932651Y-94045508D01*
X150937709Y-94043096D01*
X150937713Y-94043094D01*
X151060582Y-93984488D01*
X151134129Y-93949408D01*
X151315405Y-93819148D01*
X151417194Y-93714110D01*
X151466846Y-93662874D01*
X151466848Y-93662871D01*
X151470749Y-93658846D01*
X151595250Y-93473568D01*
X151601099Y-93460245D01*
X151639369Y-93373063D01*
X151684974Y-93269171D01*
X151686282Y-93263723D01*
X151686284Y-93263717D01*
X151735775Y-93057572D01*
X151735775Y-93057571D01*
X151737085Y-93052115D01*
X151745710Y-92902531D01*
X151749611Y-92834869D01*
X151749611Y-92834866D01*
X151749934Y-92829262D01*
X151723117Y-92607656D01*
X151657481Y-92394300D01*
X151555099Y-92195941D01*
X151551690Y-92191499D01*
X151551688Y-92191495D01*
X151422620Y-92023290D01*
X151419210Y-92018846D01*
X151254107Y-91868614D01*
X151065010Y-91749993D01*
X150857895Y-91666734D01*
X150852407Y-91665597D01*
X150852402Y-91665596D01*
X150677578Y-91629392D01*
X150639310Y-91621467D01*
X150630136Y-91620938D01*
X150584474Y-91618305D01*
X150584470Y-91618305D01*
X150582651Y-91618200D01*
X150438370Y-91618200D01*
X150435583Y-91618449D01*
X150435577Y-91618449D01*
X150366003Y-91624659D01*
X150272661Y-91632989D01*
X150267247Y-91634470D01*
X150267242Y-91634471D01*
X150149311Y-91666734D01*
X150057349Y-91691892D01*
X150052291Y-91694304D01*
X150052287Y-91694306D01*
X149986905Y-91725492D01*
X149855871Y-91787992D01*
X149674595Y-91918252D01*
X149670688Y-91922284D01*
X149527910Y-92069619D01*
X149519251Y-92078554D01*
X149394750Y-92263832D01*
X149392491Y-92268978D01*
X149392490Y-92268980D01*
X149356850Y-92350170D01*
X149305026Y-92468229D01*
X149303718Y-92473677D01*
X149303716Y-92473683D01*
X149269230Y-92617328D01*
X149252915Y-92685285D01*
X149252592Y-92690890D01*
X149243670Y-92845638D01*
X149240066Y-92908138D01*
X142855387Y-92908138D01*
X142855710Y-92902531D01*
X142859611Y-92834869D01*
X142859611Y-92834866D01*
X142859934Y-92829262D01*
X142833117Y-92607656D01*
X142767481Y-92394300D01*
X142665099Y-92195941D01*
X142661690Y-92191499D01*
X142661688Y-92191495D01*
X142532620Y-92023290D01*
X142529210Y-92018846D01*
X142364107Y-91868614D01*
X142175010Y-91749993D01*
X141967895Y-91666734D01*
X141962407Y-91665597D01*
X141962402Y-91665596D01*
X141787578Y-91629392D01*
X141749310Y-91621467D01*
X141740136Y-91620938D01*
X141694474Y-91618305D01*
X141694470Y-91618305D01*
X141692651Y-91618200D01*
X141548370Y-91618200D01*
X141545583Y-91618449D01*
X141545577Y-91618449D01*
X141476003Y-91624659D01*
X141382661Y-91632989D01*
X141377247Y-91634470D01*
X141377242Y-91634471D01*
X141259311Y-91666734D01*
X141167349Y-91691892D01*
X141162291Y-91694304D01*
X141162287Y-91694306D01*
X141096905Y-91725492D01*
X140965871Y-91787992D01*
X140784595Y-91918252D01*
X140780688Y-91922284D01*
X140637910Y-92069619D01*
X140629251Y-92078554D01*
X140504750Y-92263832D01*
X140502491Y-92268978D01*
X140502490Y-92268980D01*
X140466850Y-92350170D01*
X140415026Y-92468229D01*
X140413718Y-92473677D01*
X140413716Y-92473683D01*
X140379230Y-92617328D01*
X140362915Y-92685285D01*
X140362592Y-92690890D01*
X140353670Y-92845638D01*
X140350066Y-92908138D01*
X140376883Y-93129744D01*
X140433730Y-93314530D01*
X140442519Y-93343100D01*
X140440519Y-93343715D01*
X140446805Y-93405221D01*
X140414694Y-93468540D01*
X140353447Y-93504448D01*
X140322926Y-93508200D01*
X140264930Y-93508200D01*
X140262662Y-93508365D01*
X140262650Y-93508365D01*
X140128397Y-93518106D01*
X140059917Y-93523075D01*
X140055462Y-93524059D01*
X140055459Y-93524059D01*
X139795053Y-93581552D01*
X139795050Y-93581553D01*
X139790597Y-93582536D01*
X139532681Y-93680251D01*
X139528694Y-93682465D01*
X139528693Y-93682466D01*
X139305775Y-93806286D01*
X139291572Y-93814175D01*
X139072322Y-93981502D01*
X139069129Y-93984768D01*
X139069127Y-93984770D01*
X138882717Y-94175458D01*
X138882713Y-94175463D01*
X138879523Y-94178726D01*
X138876836Y-94182418D01*
X138876834Y-94182420D01*
X138723002Y-94393763D01*
X138717213Y-94401716D01*
X138588794Y-94645801D01*
X138496955Y-94905868D01*
X138484618Y-94968463D01*
X138447436Y-95157109D01*
X138443620Y-95176468D01*
X138443393Y-95181022D01*
X138443393Y-95181024D01*
X138432791Y-95393989D01*
X138429906Y-95451933D01*
X123416110Y-95451933D01*
X123440869Y-95417478D01*
X123514159Y-95315483D01*
X123517177Y-95311283D01*
X123538004Y-95269144D01*
X123592835Y-95158201D01*
X123619215Y-95104825D01*
X123640028Y-95036322D01*
X123684659Y-94889427D01*
X123684660Y-94889421D01*
X123686163Y-94884475D01*
X123701899Y-94764944D01*
X123715785Y-94659471D01*
X123715785Y-94659465D01*
X123716222Y-94656149D01*
X123717900Y-94587500D01*
X123699030Y-94357978D01*
X123642926Y-94134620D01*
X123587033Y-94006075D01*
X123553156Y-93928161D01*
X123553154Y-93928158D01*
X123551096Y-93923424D01*
X123471005Y-93799623D01*
X123428815Y-93734406D01*
X123428813Y-93734403D01*
X123426005Y-93730063D01*
X123418963Y-93722323D01*
X123274490Y-93563551D01*
X123274489Y-93563550D01*
X123271012Y-93559729D01*
X123266961Y-93556530D01*
X123266957Y-93556526D01*
X123094335Y-93420197D01*
X123094330Y-93420193D01*
X123090281Y-93416996D01*
X123085765Y-93414503D01*
X123085762Y-93414501D01*
X122893189Y-93308195D01*
X122893185Y-93308193D01*
X122888665Y-93305698D01*
X122883796Y-93303974D01*
X122883792Y-93303972D01*
X122676453Y-93230549D01*
X122676449Y-93230548D01*
X122671578Y-93228823D01*
X122666485Y-93227916D01*
X122666482Y-93227915D01*
X122547216Y-93206671D01*
X122444850Y-93188437D01*
X122358402Y-93187381D01*
X122219741Y-93185686D01*
X122219739Y-93185686D01*
X122214571Y-93185623D01*
X121986925Y-93220458D01*
X121768024Y-93292006D01*
X121563749Y-93398345D01*
X121379584Y-93536619D01*
X121220477Y-93703116D01*
X121217563Y-93707388D01*
X121217562Y-93707389D01*
X121144076Y-93815116D01*
X121090699Y-93893363D01*
X121021514Y-94042410D01*
X121011469Y-94064050D01*
X120964645Y-94117417D01*
X120897181Y-94137000D01*
X117226571Y-94137000D01*
X117158450Y-94116998D01*
X117111021Y-94061242D01*
X117053156Y-93928161D01*
X117053154Y-93928158D01*
X117051096Y-93923424D01*
X116971005Y-93799623D01*
X116928815Y-93734406D01*
X116928813Y-93734403D01*
X116926005Y-93730063D01*
X116918963Y-93722323D01*
X116774490Y-93563551D01*
X116774489Y-93563550D01*
X116771012Y-93559729D01*
X116766961Y-93556530D01*
X116766957Y-93556526D01*
X116594335Y-93420197D01*
X116594330Y-93420193D01*
X116590281Y-93416996D01*
X116585765Y-93414503D01*
X116585762Y-93414501D01*
X116393189Y-93308195D01*
X116393185Y-93308193D01*
X116388665Y-93305698D01*
X116383796Y-93303974D01*
X116383792Y-93303972D01*
X116176453Y-93230549D01*
X116176449Y-93230548D01*
X116171578Y-93228823D01*
X116166485Y-93227916D01*
X116166482Y-93227915D01*
X116047216Y-93206671D01*
X115944850Y-93188437D01*
X115858402Y-93187381D01*
X115719741Y-93185686D01*
X115719739Y-93185686D01*
X115714571Y-93185623D01*
X115486925Y-93220458D01*
X115268024Y-93292006D01*
X115063749Y-93398345D01*
X114879584Y-93536619D01*
X114720477Y-93703116D01*
X114717563Y-93707388D01*
X114717562Y-93707389D01*
X114644076Y-93815116D01*
X114590699Y-93893363D01*
X114588523Y-93898052D01*
X114588519Y-93898058D01*
X114495915Y-94097557D01*
X114493736Y-94102252D01*
X114432192Y-94324173D01*
X114431643Y-94329310D01*
X114408599Y-94544934D01*
X114407719Y-94553165D01*
X109938000Y-94553165D01*
X109938000Y-92908138D01*
X130190066Y-92908138D01*
X130216883Y-93129744D01*
X130282519Y-93343100D01*
X130285095Y-93348090D01*
X130285095Y-93348091D01*
X130338277Y-93451127D01*
X130384901Y-93541459D01*
X130388310Y-93545901D01*
X130388312Y-93545905D01*
X130472832Y-93656054D01*
X130520790Y-93718554D01*
X130685893Y-93868786D01*
X130874990Y-93987407D01*
X131082105Y-94070666D01*
X131087593Y-94071803D01*
X131087598Y-94071804D01*
X131211956Y-94097557D01*
X131300690Y-94115933D01*
X131305303Y-94116199D01*
X131355526Y-94119095D01*
X131355530Y-94119095D01*
X131357349Y-94119200D01*
X131501630Y-94119200D01*
X131504417Y-94118951D01*
X131504423Y-94118951D01*
X131573997Y-94112741D01*
X131667339Y-94104411D01*
X131672753Y-94102930D01*
X131672758Y-94102929D01*
X131841740Y-94056700D01*
X131882651Y-94045508D01*
X131887709Y-94043096D01*
X131887713Y-94043094D01*
X132010582Y-93984488D01*
X132084129Y-93949408D01*
X132265405Y-93819148D01*
X132367194Y-93714110D01*
X132416846Y-93662874D01*
X132416848Y-93662871D01*
X132420749Y-93658846D01*
X132545250Y-93473568D01*
X132551099Y-93460245D01*
X132589369Y-93373063D01*
X132634974Y-93269171D01*
X132636282Y-93263723D01*
X132636284Y-93263717D01*
X132685775Y-93057572D01*
X132685775Y-93057571D01*
X132687085Y-93052115D01*
X132695710Y-92902531D01*
X132699611Y-92834869D01*
X132699611Y-92834866D01*
X132699934Y-92829262D01*
X132692517Y-92767971D01*
X134121668Y-92767971D01*
X134121755Y-92771973D01*
X134121755Y-92771980D01*
X134127868Y-93052115D01*
X134128349Y-93074165D01*
X134173883Y-93377030D01*
X134174979Y-93380890D01*
X134174980Y-93380895D01*
X134184870Y-93415729D01*
X134257531Y-93671653D01*
X134259111Y-93675349D01*
X134259112Y-93675351D01*
X134275684Y-93714110D01*
X134377937Y-93953260D01*
X134533149Y-94217285D01*
X134720651Y-94459447D01*
X134766157Y-94504874D01*
X134903291Y-94641768D01*
X134937404Y-94675822D01*
X134940585Y-94678276D01*
X134940586Y-94678277D01*
X135176701Y-94860439D01*
X135176705Y-94860442D01*
X135179894Y-94862902D01*
X135183373Y-94864939D01*
X135360179Y-94968463D01*
X135444189Y-95017653D01*
X135447874Y-95019221D01*
X135447878Y-95019223D01*
X135575431Y-95073497D01*
X135726006Y-95137567D01*
X136020775Y-95220701D01*
X136241338Y-95253468D01*
X136320419Y-95265216D01*
X136320421Y-95265216D01*
X136323718Y-95265706D01*
X136327049Y-95265846D01*
X136327053Y-95265846D01*
X136363737Y-95267383D01*
X136407084Y-95269200D01*
X136602474Y-95269200D01*
X136725915Y-95261326D01*
X136826639Y-95254901D01*
X136826644Y-95254900D01*
X136830647Y-95254645D01*
X136834584Y-95253883D01*
X136834586Y-95253883D01*
X137127401Y-95197230D01*
X137127405Y-95197229D01*
X137131338Y-95196468D01*
X137422200Y-95100556D01*
X137698518Y-94968463D01*
X137955812Y-94802331D01*
X137961019Y-94797939D01*
X138141368Y-94645801D01*
X138189910Y-94604852D01*
X138397019Y-94379229D01*
X138408391Y-94363139D01*
X138513914Y-94213826D01*
X138573780Y-94129118D01*
X138717328Y-93858574D01*
X138739545Y-93799623D01*
X138823919Y-93575744D01*
X138823921Y-93575738D01*
X138825336Y-93571983D01*
X138855265Y-93445865D01*
X138895124Y-93277907D01*
X138895125Y-93277902D01*
X138896053Y-93273991D01*
X138928332Y-92969429D01*
X138927117Y-92913715D01*
X138921739Y-92667252D01*
X138921739Y-92667247D01*
X138921651Y-92663235D01*
X138876117Y-92360370D01*
X138869529Y-92337164D01*
X138810426Y-92128995D01*
X138792469Y-92065747D01*
X138672063Y-91784140D01*
X138516851Y-91520115D01*
X138329349Y-91277953D01*
X138181103Y-91129966D01*
X138115437Y-91064414D01*
X138112596Y-91061578D01*
X138031585Y-90999078D01*
X137873299Y-90876961D01*
X137873295Y-90876958D01*
X137870106Y-90874498D01*
X137784999Y-90824666D01*
X137609275Y-90721775D01*
X137609272Y-90721773D01*
X137605811Y-90719747D01*
X137602126Y-90718179D01*
X137602122Y-90718177D01*
X137415051Y-90638578D01*
X137323994Y-90599833D01*
X137029225Y-90516699D01*
X136771638Y-90478432D01*
X136729581Y-90472184D01*
X136729579Y-90472184D01*
X136726282Y-90471694D01*
X136722951Y-90471554D01*
X136722947Y-90471554D01*
X136686263Y-90470017D01*
X136642916Y-90468200D01*
X136447526Y-90468200D01*
X136324085Y-90476074D01*
X136223361Y-90482499D01*
X136223356Y-90482500D01*
X136219353Y-90482755D01*
X136215416Y-90483517D01*
X136215414Y-90483517D01*
X135922599Y-90540170D01*
X135922595Y-90540171D01*
X135918662Y-90540932D01*
X135627800Y-90636844D01*
X135351482Y-90768937D01*
X135339859Y-90776442D01*
X135182316Y-90878166D01*
X135094188Y-90935069D01*
X134860090Y-91132548D01*
X134652981Y-91358171D01*
X134476220Y-91608282D01*
X134332672Y-91878826D01*
X134331257Y-91882582D01*
X134331256Y-91882583D01*
X134236715Y-92133441D01*
X134224664Y-92165417D01*
X134223735Y-92169332D01*
X134179317Y-92356505D01*
X134153947Y-92463409D01*
X134121668Y-92767971D01*
X132692517Y-92767971D01*
X132673117Y-92607656D01*
X132607481Y-92394300D01*
X132505099Y-92195941D01*
X132501690Y-92191499D01*
X132501688Y-92191495D01*
X132372620Y-92023290D01*
X132369210Y-92018846D01*
X132204107Y-91868614D01*
X132015010Y-91749993D01*
X131807895Y-91666734D01*
X131802407Y-91665597D01*
X131802402Y-91665596D01*
X131627578Y-91629392D01*
X131589310Y-91621467D01*
X131580136Y-91620938D01*
X131534474Y-91618305D01*
X131534470Y-91618305D01*
X131532651Y-91618200D01*
X131388370Y-91618200D01*
X131385583Y-91618449D01*
X131385577Y-91618449D01*
X131316003Y-91624659D01*
X131222661Y-91632989D01*
X131217247Y-91634470D01*
X131217242Y-91634471D01*
X131099311Y-91666734D01*
X131007349Y-91691892D01*
X131002291Y-91694304D01*
X131002287Y-91694306D01*
X130936905Y-91725492D01*
X130805871Y-91787992D01*
X130624595Y-91918252D01*
X130620688Y-91922284D01*
X130477910Y-92069619D01*
X130469251Y-92078554D01*
X130344750Y-92263832D01*
X130342491Y-92268978D01*
X130342490Y-92268980D01*
X130306850Y-92350170D01*
X130255026Y-92468229D01*
X130253718Y-92473677D01*
X130253716Y-92473683D01*
X130219230Y-92617328D01*
X130202915Y-92685285D01*
X130202592Y-92690890D01*
X130193670Y-92845638D01*
X130190066Y-92908138D01*
X109938000Y-92908138D01*
X109938000Y-90321865D01*
X114407619Y-90321865D01*
X114407916Y-90327017D01*
X114407916Y-90327021D01*
X114414429Y-90439969D01*
X114420876Y-90551780D01*
X114422013Y-90556826D01*
X114422014Y-90556832D01*
X114443726Y-90653175D01*
X114471506Y-90776442D01*
X114473448Y-90781224D01*
X114473449Y-90781228D01*
X114536968Y-90937656D01*
X114558149Y-90989818D01*
X114678479Y-91186178D01*
X114829263Y-91360248D01*
X115006453Y-91507354D01*
X115205290Y-91623545D01*
X115210115Y-91625387D01*
X115210116Y-91625388D01*
X115226923Y-91631806D01*
X115420434Y-91705701D01*
X115425500Y-91706732D01*
X115425501Y-91706732D01*
X115481766Y-91718179D01*
X115646107Y-91751614D01*
X115775852Y-91756372D01*
X115871085Y-91759864D01*
X115871089Y-91759864D01*
X115876249Y-91760053D01*
X115881369Y-91759397D01*
X115881371Y-91759397D01*
X115971119Y-91747900D01*
X116104678Y-91730791D01*
X116109626Y-91729306D01*
X116109633Y-91729305D01*
X116320311Y-91666098D01*
X116320310Y-91666098D01*
X116325261Y-91664613D01*
X116532074Y-91563296D01*
X116719562Y-91429563D01*
X116882690Y-91267003D01*
X116940769Y-91186178D01*
X117014059Y-91084183D01*
X117017077Y-91079983D01*
X117023264Y-91067466D01*
X117113298Y-90885295D01*
X117117461Y-90876872D01*
X117165574Y-90824666D01*
X117230417Y-90806700D01*
X120898964Y-90806700D01*
X120967085Y-90826702D01*
X121015706Y-90885295D01*
X121058149Y-90989818D01*
X121178479Y-91186178D01*
X121329263Y-91360248D01*
X121506453Y-91507354D01*
X121705290Y-91623545D01*
X121710115Y-91625387D01*
X121710116Y-91625388D01*
X121726923Y-91631806D01*
X121920434Y-91705701D01*
X121925500Y-91706732D01*
X121925501Y-91706732D01*
X121981766Y-91718179D01*
X122146107Y-91751614D01*
X122275852Y-91756372D01*
X122371085Y-91759864D01*
X122371089Y-91759864D01*
X122376249Y-91760053D01*
X122381369Y-91759397D01*
X122381371Y-91759397D01*
X122471119Y-91747900D01*
X122604678Y-91730791D01*
X122609626Y-91729306D01*
X122609633Y-91729305D01*
X122820311Y-91666098D01*
X122820310Y-91666098D01*
X122825261Y-91664613D01*
X123032074Y-91563296D01*
X123219562Y-91429563D01*
X123382690Y-91267003D01*
X123440769Y-91186178D01*
X123514059Y-91084183D01*
X123517077Y-91079983D01*
X123523264Y-91067466D01*
X123616821Y-90878166D01*
X123619115Y-90873525D01*
X123637060Y-90814461D01*
X123684559Y-90658127D01*
X123684560Y-90658121D01*
X123686063Y-90653175D01*
X123706376Y-90498877D01*
X123715685Y-90428171D01*
X123715685Y-90428165D01*
X123716122Y-90424849D01*
X123716293Y-90417859D01*
X123717718Y-90359564D01*
X123717718Y-90359560D01*
X123717800Y-90356200D01*
X123698930Y-90126678D01*
X123642826Y-89903320D01*
X123567278Y-89729571D01*
X123553056Y-89696861D01*
X123553054Y-89696858D01*
X123550996Y-89692124D01*
X123468143Y-89564053D01*
X123428715Y-89503106D01*
X123428713Y-89503103D01*
X123425905Y-89498763D01*
X123422065Y-89494542D01*
X123274390Y-89332251D01*
X123274389Y-89332250D01*
X123270912Y-89328429D01*
X123266861Y-89325230D01*
X123266857Y-89325226D01*
X123258594Y-89318700D01*
X134419508Y-89318700D01*
X134424500Y-89350219D01*
X134439354Y-89444004D01*
X134496950Y-89557042D01*
X134586658Y-89646750D01*
X134699696Y-89704346D01*
X134709485Y-89705896D01*
X134709487Y-89705897D01*
X134815207Y-89722641D01*
X134825000Y-89724192D01*
X134846726Y-89720751D01*
X134866436Y-89719200D01*
X138183564Y-89719200D01*
X138203274Y-89720751D01*
X138225000Y-89724192D01*
X138234793Y-89722641D01*
X138340513Y-89705897D01*
X138340515Y-89705896D01*
X138350304Y-89704346D01*
X138463342Y-89646750D01*
X138553050Y-89557042D01*
X138610646Y-89444004D01*
X138617141Y-89403000D01*
X138625500Y-89350219D01*
X138628941Y-89328493D01*
X138628941Y-89328491D01*
X138630492Y-89318700D01*
X138627051Y-89296974D01*
X138625500Y-89277264D01*
X138625500Y-86360136D01*
X138627051Y-86340426D01*
X138628941Y-86328493D01*
X138630492Y-86318700D01*
X138623799Y-86276442D01*
X138612197Y-86203187D01*
X138612196Y-86203185D01*
X138610646Y-86193396D01*
X138553050Y-86080358D01*
X138463342Y-85990650D01*
X138350304Y-85933054D01*
X138340515Y-85931504D01*
X138340513Y-85931503D01*
X138256519Y-85918200D01*
X138234793Y-85914759D01*
X138225000Y-85913208D01*
X138215207Y-85914759D01*
X138203274Y-85916649D01*
X138183564Y-85918200D01*
X134866436Y-85918200D01*
X134846726Y-85916649D01*
X134834793Y-85914759D01*
X134825000Y-85913208D01*
X134793481Y-85918200D01*
X134699696Y-85933054D01*
X134586658Y-85990650D01*
X134496950Y-86080358D01*
X134439354Y-86193396D01*
X134437804Y-86203185D01*
X134437803Y-86203187D01*
X134426201Y-86276442D01*
X134419508Y-86318700D01*
X134421059Y-86328493D01*
X134422949Y-86340426D01*
X134424500Y-86360136D01*
X134424500Y-89277264D01*
X134422949Y-89296974D01*
X134419508Y-89318700D01*
X123258594Y-89318700D01*
X123094235Y-89188897D01*
X123094230Y-89188893D01*
X123090181Y-89185696D01*
X123085665Y-89183203D01*
X123085662Y-89183201D01*
X122893089Y-89076895D01*
X122893085Y-89076893D01*
X122888565Y-89074398D01*
X122883696Y-89072674D01*
X122883692Y-89072672D01*
X122676353Y-88999249D01*
X122676349Y-88999248D01*
X122671478Y-88997523D01*
X122666385Y-88996616D01*
X122666382Y-88996615D01*
X122570207Y-88979484D01*
X122444750Y-88957137D01*
X122358302Y-88956081D01*
X122219641Y-88954386D01*
X122219639Y-88954386D01*
X122214471Y-88954323D01*
X121986825Y-88989158D01*
X121767924Y-89060706D01*
X121563649Y-89167045D01*
X121379484Y-89305319D01*
X121220377Y-89471816D01*
X121217463Y-89476088D01*
X121217462Y-89476089D01*
X121168265Y-89548209D01*
X121090599Y-89662063D01*
X121051159Y-89747029D01*
X121011369Y-89832750D01*
X120964545Y-89886117D01*
X120897081Y-89905700D01*
X117226471Y-89905700D01*
X117158350Y-89885698D01*
X117110921Y-89829942D01*
X117053056Y-89696861D01*
X117053054Y-89696858D01*
X117050996Y-89692124D01*
X116968143Y-89564053D01*
X116928715Y-89503106D01*
X116928713Y-89503103D01*
X116925905Y-89498763D01*
X116922065Y-89494542D01*
X116774390Y-89332251D01*
X116774389Y-89332250D01*
X116770912Y-89328429D01*
X116766861Y-89325230D01*
X116766857Y-89325226D01*
X116594235Y-89188897D01*
X116594230Y-89188893D01*
X116590181Y-89185696D01*
X116585665Y-89183203D01*
X116585662Y-89183201D01*
X116393089Y-89076895D01*
X116393085Y-89076893D01*
X116388565Y-89074398D01*
X116383696Y-89072674D01*
X116383692Y-89072672D01*
X116176353Y-88999249D01*
X116176349Y-88999248D01*
X116171478Y-88997523D01*
X116166385Y-88996616D01*
X116166382Y-88996615D01*
X116070207Y-88979484D01*
X115944750Y-88957137D01*
X115858302Y-88956081D01*
X115719641Y-88954386D01*
X115719639Y-88954386D01*
X115714471Y-88954323D01*
X115486825Y-88989158D01*
X115267924Y-89060706D01*
X115063649Y-89167045D01*
X114879484Y-89305319D01*
X114720377Y-89471816D01*
X114717463Y-89476088D01*
X114717462Y-89476089D01*
X114668265Y-89548209D01*
X114590599Y-89662063D01*
X114588423Y-89666752D01*
X114588419Y-89666758D01*
X114497829Y-89861919D01*
X114493636Y-89870952D01*
X114432092Y-90092873D01*
X114431543Y-90098010D01*
X114410322Y-90296577D01*
X114407619Y-90321865D01*
X109938000Y-90321865D01*
X109938000Y-85821865D01*
X114407619Y-85821865D01*
X114407916Y-85827017D01*
X114407916Y-85827021D01*
X114412886Y-85913208D01*
X114420876Y-86051780D01*
X114422013Y-86056826D01*
X114422014Y-86056832D01*
X114443726Y-86153175D01*
X114471506Y-86276442D01*
X114473448Y-86281224D01*
X114473449Y-86281228D01*
X114528253Y-86416193D01*
X114558149Y-86489818D01*
X114678479Y-86686178D01*
X114829263Y-86860248D01*
X115006453Y-87007354D01*
X115205290Y-87123545D01*
X115420434Y-87205701D01*
X115425500Y-87206732D01*
X115425501Y-87206732D01*
X115526197Y-87227218D01*
X115646107Y-87251614D01*
X115775852Y-87256372D01*
X115871085Y-87259864D01*
X115871089Y-87259864D01*
X115876249Y-87260053D01*
X115881369Y-87259397D01*
X115881371Y-87259397D01*
X115950772Y-87250507D01*
X116104678Y-87230791D01*
X116109626Y-87229306D01*
X116109633Y-87229305D01*
X116320311Y-87166098D01*
X116320310Y-87166098D01*
X116325261Y-87164613D01*
X116532074Y-87063296D01*
X116719562Y-86929563D01*
X116882690Y-86767003D01*
X116940769Y-86686178D01*
X117014059Y-86584183D01*
X117017077Y-86579983D01*
X117117461Y-86376872D01*
X117165574Y-86324666D01*
X117230417Y-86306700D01*
X120898964Y-86306700D01*
X120967085Y-86326702D01*
X121015706Y-86385295D01*
X121058149Y-86489818D01*
X121178479Y-86686178D01*
X121329263Y-86860248D01*
X121506453Y-87007354D01*
X121705290Y-87123545D01*
X121920434Y-87205701D01*
X121925500Y-87206732D01*
X121925501Y-87206732D01*
X122026197Y-87227218D01*
X122146107Y-87251614D01*
X122275852Y-87256372D01*
X122371085Y-87259864D01*
X122371089Y-87259864D01*
X122376249Y-87260053D01*
X122381369Y-87259397D01*
X122381371Y-87259397D01*
X122450772Y-87250507D01*
X122604678Y-87230791D01*
X122609626Y-87229306D01*
X122609633Y-87229305D01*
X122820311Y-87166098D01*
X122820310Y-87166098D01*
X122825261Y-87164613D01*
X123032074Y-87063296D01*
X123219562Y-86929563D01*
X123382690Y-86767003D01*
X123440769Y-86686178D01*
X123514059Y-86584183D01*
X123517077Y-86579983D01*
X123619115Y-86373525D01*
X123647157Y-86281228D01*
X123684559Y-86158127D01*
X123684560Y-86158121D01*
X123686063Y-86153175D01*
X123702715Y-86026691D01*
X123715685Y-85928171D01*
X123715687Y-85928150D01*
X123716122Y-85924849D01*
X123717800Y-85856200D01*
X123698930Y-85626678D01*
X123642826Y-85403320D01*
X123563275Y-85220364D01*
X123553056Y-85196861D01*
X123553054Y-85196858D01*
X123550996Y-85192124D01*
X123546778Y-85185604D01*
X123428715Y-85003106D01*
X123428713Y-85003103D01*
X123425905Y-84998763D01*
X123405274Y-84976089D01*
X123274390Y-84832251D01*
X123274389Y-84832250D01*
X123270912Y-84828429D01*
X123266861Y-84825230D01*
X123266857Y-84825226D01*
X123094235Y-84688897D01*
X123094230Y-84688893D01*
X123090181Y-84685696D01*
X123085665Y-84683203D01*
X123085662Y-84683201D01*
X122893089Y-84576895D01*
X122893085Y-84576893D01*
X122888565Y-84574398D01*
X122883696Y-84572674D01*
X122883692Y-84572672D01*
X122676353Y-84499249D01*
X122676349Y-84499248D01*
X122671478Y-84497523D01*
X122666385Y-84496616D01*
X122666382Y-84496615D01*
X122570207Y-84479484D01*
X122444750Y-84457137D01*
X122358302Y-84456081D01*
X122219641Y-84454386D01*
X122219639Y-84454386D01*
X122214471Y-84454323D01*
X121986825Y-84489158D01*
X121767924Y-84560706D01*
X121563649Y-84667045D01*
X121379484Y-84805319D01*
X121220377Y-84971816D01*
X121217463Y-84976088D01*
X121217462Y-84976089D01*
X121182749Y-85026977D01*
X121090599Y-85162063D01*
X121012672Y-85329942D01*
X121011369Y-85332750D01*
X120964545Y-85386117D01*
X120897081Y-85405700D01*
X117226471Y-85405700D01*
X117158350Y-85385698D01*
X117110921Y-85329942D01*
X117053056Y-85196861D01*
X117053054Y-85196858D01*
X117050996Y-85192124D01*
X117046778Y-85185604D01*
X116928715Y-85003106D01*
X116928713Y-85003103D01*
X116925905Y-84998763D01*
X116905274Y-84976089D01*
X116774390Y-84832251D01*
X116774389Y-84832250D01*
X116770912Y-84828429D01*
X116766861Y-84825230D01*
X116766857Y-84825226D01*
X116594235Y-84688897D01*
X116594230Y-84688893D01*
X116590181Y-84685696D01*
X116585665Y-84683203D01*
X116585662Y-84683201D01*
X116393089Y-84576895D01*
X116393085Y-84576893D01*
X116388565Y-84574398D01*
X116383696Y-84572674D01*
X116383692Y-84572672D01*
X116176353Y-84499249D01*
X116176349Y-84499248D01*
X116171478Y-84497523D01*
X116166385Y-84496616D01*
X116166382Y-84496615D01*
X116070207Y-84479484D01*
X115944750Y-84457137D01*
X115858302Y-84456081D01*
X115719641Y-84454386D01*
X115719639Y-84454386D01*
X115714471Y-84454323D01*
X115486825Y-84489158D01*
X115267924Y-84560706D01*
X115063649Y-84667045D01*
X114879484Y-84805319D01*
X114720377Y-84971816D01*
X114717463Y-84976088D01*
X114717462Y-84976089D01*
X114682749Y-85026977D01*
X114590599Y-85162063D01*
X114588423Y-85166752D01*
X114588419Y-85166758D01*
X114499632Y-85358035D01*
X114493636Y-85370952D01*
X114432092Y-85592873D01*
X114431543Y-85598010D01*
X114409028Y-85808683D01*
X114407619Y-85821865D01*
X109938000Y-85821865D01*
X109938000Y-78879433D01*
X122554906Y-78879433D01*
X122581102Y-79153992D01*
X122582187Y-79158426D01*
X122582188Y-79158432D01*
X122597482Y-79220932D01*
X122646657Y-79421894D01*
X122750199Y-79677526D01*
X122752500Y-79681456D01*
X122752503Y-79681462D01*
X122887255Y-79911603D01*
X122887260Y-79911610D01*
X122889558Y-79915535D01*
X122892405Y-79919095D01*
X123010028Y-80066174D01*
X123061816Y-80130932D01*
X123263364Y-80319208D01*
X123489979Y-80476416D01*
X123494055Y-80478444D01*
X123494057Y-80478445D01*
X123732827Y-80597232D01*
X123732830Y-80597233D01*
X123736914Y-80599265D01*
X123998998Y-80685180D01*
X124003489Y-80685960D01*
X124003490Y-80685960D01*
X124266957Y-80731706D01*
X124266965Y-80731707D01*
X124270738Y-80732362D01*
X124274575Y-80732553D01*
X124356305Y-80736622D01*
X124356313Y-80736622D01*
X124357876Y-80736700D01*
X124530070Y-80736700D01*
X124532338Y-80736535D01*
X124532350Y-80736535D01*
X124679636Y-80725848D01*
X124735083Y-80721825D01*
X124739538Y-80720841D01*
X124739541Y-80720841D01*
X124999947Y-80663348D01*
X124999950Y-80663347D01*
X125004403Y-80662364D01*
X125262319Y-80564649D01*
X125304995Y-80540945D01*
X125499435Y-80432943D01*
X125499436Y-80432942D01*
X125503428Y-80430725D01*
X125722678Y-80263398D01*
X125725873Y-80260130D01*
X125912283Y-80069442D01*
X125912287Y-80069437D01*
X125915477Y-80066174D01*
X125918166Y-80062480D01*
X126075100Y-79846876D01*
X126075102Y-79846873D01*
X126077787Y-79843184D01*
X126206206Y-79599099D01*
X126298045Y-79339032D01*
X126334516Y-79153992D01*
X126350499Y-79072904D01*
X126350500Y-79072898D01*
X126351380Y-79068432D01*
X126357678Y-78941933D01*
X126364867Y-78797536D01*
X126364867Y-78797530D01*
X126365094Y-78792967D01*
X126338898Y-78518408D01*
X126337266Y-78511735D01*
X126274429Y-78254944D01*
X126273343Y-78250506D01*
X126169801Y-77994874D01*
X126167500Y-77990944D01*
X126167497Y-77990938D01*
X126032745Y-77760797D01*
X126032740Y-77760790D01*
X126030442Y-77756865D01*
X126007623Y-77728331D01*
X125861036Y-77545034D01*
X125861035Y-77545033D01*
X125858184Y-77541468D01*
X125841812Y-77526174D01*
X125659972Y-77356308D01*
X125659969Y-77356306D01*
X125656636Y-77353192D01*
X125430021Y-77195984D01*
X125425943Y-77193955D01*
X125187173Y-77075168D01*
X125187170Y-77075167D01*
X125183086Y-77073135D01*
X124921002Y-76987220D01*
X124916510Y-76986440D01*
X124653043Y-76940694D01*
X124653035Y-76940693D01*
X124649262Y-76940038D01*
X124639029Y-76939529D01*
X124563695Y-76935778D01*
X124563687Y-76935778D01*
X124562124Y-76935700D01*
X124389930Y-76935700D01*
X124387662Y-76935865D01*
X124387650Y-76935865D01*
X124253397Y-76945606D01*
X124184917Y-76950575D01*
X124180462Y-76951559D01*
X124180459Y-76951559D01*
X123920053Y-77009052D01*
X123920050Y-77009053D01*
X123915597Y-77010036D01*
X123657681Y-77107751D01*
X123653694Y-77109965D01*
X123653693Y-77109966D01*
X123541172Y-77172466D01*
X123416572Y-77241675D01*
X123197322Y-77409002D01*
X123194129Y-77412268D01*
X123194127Y-77412270D01*
X123007717Y-77602958D01*
X123007713Y-77602963D01*
X123004523Y-77606226D01*
X123001836Y-77609918D01*
X123001834Y-77609920D01*
X122851975Y-77815805D01*
X122842213Y-77829216D01*
X122713794Y-78073301D01*
X122621955Y-78333368D01*
X122621075Y-78337834D01*
X122573423Y-78579602D01*
X122568620Y-78603968D01*
X122568393Y-78608522D01*
X122568393Y-78608524D01*
X122555569Y-78866123D01*
X122554906Y-78879433D01*
X109938000Y-78879433D01*
X109938000Y-66166411D01*
X113989494Y-66166411D01*
X114008099Y-66334935D01*
X114066366Y-66494156D01*
X114160930Y-66634883D01*
X114166542Y-66639990D01*
X114166545Y-66639993D01*
X114280712Y-66743877D01*
X114280716Y-66743880D01*
X114286333Y-66748991D01*
X114293006Y-66752614D01*
X114293010Y-66752617D01*
X114428658Y-66826267D01*
X114428660Y-66826268D01*
X114435335Y-66829892D01*
X114442684Y-66831820D01*
X114591983Y-66870988D01*
X114591985Y-66870988D01*
X114599333Y-66872916D01*
X114685709Y-66874273D01*
X114761261Y-66875460D01*
X114761264Y-66875460D01*
X114768860Y-66875579D01*
X114776265Y-66873883D01*
X114776266Y-66873883D01*
X114836686Y-66860045D01*
X114934129Y-66837728D01*
X115085598Y-66761547D01*
X115210946Y-66654489D01*
X115275736Y-66625458D01*
X115292777Y-66624300D01*
X115698507Y-66624300D01*
X115766628Y-66644302D01*
X115787602Y-66661205D01*
X121507564Y-72381167D01*
X121541590Y-72443479D01*
X121536525Y-72514294D01*
X121493978Y-72571130D01*
X121472713Y-72583988D01*
X121461499Y-72589337D01*
X121280871Y-72675492D01*
X121099595Y-72805752D01*
X121095688Y-72809784D01*
X120952910Y-72957119D01*
X120944251Y-72966054D01*
X120819750Y-73151332D01*
X120730026Y-73355729D01*
X120728718Y-73361177D01*
X120728716Y-73361183D01*
X120684162Y-73546764D01*
X120677915Y-73572785D01*
X120677592Y-73578390D01*
X120666332Y-73773685D01*
X120665066Y-73795638D01*
X120691883Y-74017244D01*
X120757519Y-74230600D01*
X120760095Y-74235590D01*
X120760095Y-74235591D01*
X120822202Y-74355920D01*
X120859901Y-74428959D01*
X120863310Y-74433401D01*
X120863312Y-74433405D01*
X120949975Y-74546346D01*
X120995790Y-74606054D01*
X121160893Y-74756286D01*
X121349990Y-74874907D01*
X121557105Y-74958166D01*
X121562593Y-74959303D01*
X121562598Y-74959304D01*
X121712896Y-74990429D01*
X121775690Y-75003433D01*
X121780303Y-75003699D01*
X121830526Y-75006595D01*
X121830530Y-75006595D01*
X121832349Y-75006700D01*
X121976630Y-75006700D01*
X121979417Y-75006451D01*
X121979423Y-75006451D01*
X122048997Y-75000241D01*
X122142339Y-74991911D01*
X122147753Y-74990430D01*
X122147758Y-74990429D01*
X122333920Y-74939500D01*
X122357651Y-74933008D01*
X122362709Y-74930596D01*
X122362713Y-74930594D01*
X122484991Y-74872270D01*
X122559129Y-74836908D01*
X122740405Y-74706648D01*
X122895749Y-74546346D01*
X123020250Y-74361068D01*
X123050252Y-74292721D01*
X123088674Y-74205194D01*
X123134370Y-74150859D01*
X123202188Y-74129854D01*
X123270597Y-74148849D01*
X123293142Y-74166745D01*
X134158547Y-85032150D01*
X134168401Y-85043239D01*
X134183594Y-85062511D01*
X134183598Y-85062515D01*
X134189428Y-85069910D01*
X134197175Y-85075264D01*
X134197179Y-85075268D01*
X134237704Y-85103277D01*
X134240898Y-85105558D01*
X134288117Y-85140435D01*
X134294934Y-85142829D01*
X134300869Y-85146931D01*
X134309844Y-85149769D01*
X134309845Y-85149770D01*
X134331807Y-85156715D01*
X134356775Y-85164612D01*
X134360515Y-85165860D01*
X134407045Y-85182200D01*
X134407048Y-85182201D01*
X134415931Y-85185320D01*
X134423116Y-85185603D01*
X134423189Y-85185617D01*
X134430030Y-85187780D01*
X134436637Y-85188300D01*
X134489291Y-85188300D01*
X134494236Y-85188397D01*
X134502204Y-85188710D01*
X134524823Y-85189599D01*
X134592106Y-85212261D01*
X134604675Y-85222309D01*
X134698712Y-85307877D01*
X134698716Y-85307880D01*
X134704333Y-85312991D01*
X134711006Y-85316614D01*
X134711010Y-85316617D01*
X134846658Y-85390267D01*
X134846660Y-85390268D01*
X134853335Y-85393892D01*
X134860684Y-85395820D01*
X135009983Y-85434988D01*
X135009985Y-85434988D01*
X135017333Y-85436916D01*
X135103709Y-85438273D01*
X135179261Y-85439460D01*
X135179264Y-85439460D01*
X135186860Y-85439579D01*
X135194265Y-85437883D01*
X135194266Y-85437883D01*
X135254686Y-85424045D01*
X135352129Y-85401728D01*
X135503598Y-85325547D01*
X135582813Y-85257890D01*
X135626751Y-85220364D01*
X135626752Y-85220363D01*
X135632523Y-85215434D01*
X135731461Y-85077747D01*
X135734294Y-85070700D01*
X135791866Y-84927487D01*
X135791867Y-84927485D01*
X135794701Y-84920434D01*
X135815476Y-84774460D01*
X135818009Y-84756662D01*
X135818009Y-84756659D01*
X135818590Y-84752578D01*
X135818745Y-84737800D01*
X135798376Y-84569480D01*
X135738445Y-84410877D01*
X135642412Y-84271149D01*
X135636741Y-84266096D01*
X135521492Y-84163412D01*
X135521488Y-84163410D01*
X135515821Y-84158360D01*
X135365981Y-84079024D01*
X135201541Y-84037719D01*
X135193943Y-84037679D01*
X135193941Y-84037679D01*
X135116768Y-84037275D01*
X135031995Y-84036831D01*
X135024608Y-84038605D01*
X135024604Y-84038605D01*
X134912541Y-84065510D01*
X134867132Y-84076412D01*
X134860388Y-84079893D01*
X134860385Y-84079894D01*
X134731246Y-84146548D01*
X134716469Y-84154175D01*
X134710749Y-84159165D01*
X134707067Y-84161667D01*
X134639482Y-84183411D01*
X134570870Y-84165165D01*
X134547152Y-84146548D01*
X129342537Y-78941933D01*
X141604906Y-78941933D01*
X141631102Y-79216492D01*
X141696657Y-79484394D01*
X141800199Y-79740026D01*
X141802500Y-79743956D01*
X141802503Y-79743962D01*
X141937255Y-79974103D01*
X141937260Y-79974110D01*
X141939558Y-79978035D01*
X141942405Y-79981595D01*
X142060028Y-80128674D01*
X142111816Y-80193432D01*
X142115157Y-80196553D01*
X142249242Y-80321808D01*
X142313364Y-80381708D01*
X142539979Y-80538916D01*
X142544055Y-80540944D01*
X142544057Y-80540945D01*
X142782827Y-80659732D01*
X142782830Y-80659733D01*
X142786914Y-80661765D01*
X143048998Y-80747680D01*
X143053489Y-80748460D01*
X143053490Y-80748460D01*
X143316957Y-80794206D01*
X143316965Y-80794207D01*
X143320738Y-80794862D01*
X143324575Y-80795053D01*
X143406305Y-80799122D01*
X143406313Y-80799122D01*
X143407876Y-80799200D01*
X143580070Y-80799200D01*
X143582338Y-80799035D01*
X143582350Y-80799035D01*
X143716603Y-80789294D01*
X143785083Y-80784325D01*
X143789538Y-80783341D01*
X143789541Y-80783341D01*
X144049947Y-80725848D01*
X144049950Y-80725847D01*
X144054403Y-80724864D01*
X144312319Y-80627149D01*
X144424841Y-80564649D01*
X144549435Y-80495443D01*
X144549436Y-80495442D01*
X144553428Y-80493225D01*
X144772678Y-80325898D01*
X144775873Y-80322630D01*
X144962283Y-80131942D01*
X144962287Y-80131937D01*
X144965477Y-80128674D01*
X145010970Y-80066174D01*
X145125100Y-79909376D01*
X145125102Y-79909373D01*
X145127787Y-79905684D01*
X145256206Y-79661599D01*
X145348045Y-79401532D01*
X145384516Y-79216492D01*
X145400499Y-79135404D01*
X145400500Y-79135398D01*
X145401380Y-79130932D01*
X145404492Y-79068432D01*
X145414867Y-78860036D01*
X145414867Y-78860030D01*
X145415094Y-78855467D01*
X145388898Y-78580908D01*
X145384257Y-78561939D01*
X145324429Y-78317444D01*
X145323343Y-78313006D01*
X145219801Y-78057374D01*
X145217500Y-78053444D01*
X145217497Y-78053438D01*
X145082745Y-77823297D01*
X145082740Y-77823290D01*
X145080442Y-77819365D01*
X145077595Y-77815805D01*
X144911036Y-77607534D01*
X144911035Y-77607533D01*
X144908184Y-77603968D01*
X144890412Y-77587366D01*
X144709972Y-77418808D01*
X144709969Y-77418806D01*
X144706636Y-77415692D01*
X144480021Y-77258484D01*
X144446234Y-77241675D01*
X144237173Y-77137668D01*
X144237170Y-77137667D01*
X144233086Y-77135635D01*
X143971002Y-77049720D01*
X143966510Y-77048940D01*
X143703043Y-77003194D01*
X143703035Y-77003193D01*
X143699262Y-77002538D01*
X143689029Y-77002029D01*
X143613695Y-76998278D01*
X143613687Y-76998278D01*
X143612124Y-76998200D01*
X143439930Y-76998200D01*
X143437662Y-76998365D01*
X143437650Y-76998365D01*
X143303397Y-77008106D01*
X143234917Y-77013075D01*
X143230462Y-77014059D01*
X143230459Y-77014059D01*
X142970053Y-77071552D01*
X142970050Y-77071553D01*
X142965597Y-77072536D01*
X142707681Y-77170251D01*
X142703694Y-77172465D01*
X142703693Y-77172466D01*
X142579093Y-77241675D01*
X142466572Y-77304175D01*
X142247322Y-77471502D01*
X142244129Y-77474768D01*
X142244127Y-77474770D01*
X142057717Y-77665458D01*
X142057713Y-77665463D01*
X142054523Y-77668726D01*
X142051836Y-77672418D01*
X142051834Y-77672420D01*
X141937706Y-77829216D01*
X141892213Y-77891716D01*
X141763794Y-78135801D01*
X141671955Y-78395868D01*
X141663396Y-78439293D01*
X141619583Y-78661583D01*
X141618620Y-78666468D01*
X141618393Y-78671022D01*
X141618393Y-78671024D01*
X141606965Y-78900583D01*
X141604906Y-78941933D01*
X129342537Y-78941933D01*
X126771613Y-76371009D01*
X126754371Y-76339433D01*
X128904906Y-76339433D01*
X128931102Y-76613992D01*
X128932187Y-76618426D01*
X128932188Y-76618432D01*
X128947482Y-76680932D01*
X128996657Y-76881894D01*
X129100199Y-77137526D01*
X129102500Y-77141456D01*
X129102503Y-77141462D01*
X129237255Y-77371603D01*
X129237260Y-77371610D01*
X129239558Y-77375535D01*
X129242405Y-77379095D01*
X129370985Y-77539875D01*
X129411816Y-77590932D01*
X129415157Y-77594053D01*
X129571508Y-77740108D01*
X129613364Y-77779208D01*
X129839979Y-77936416D01*
X129844055Y-77938444D01*
X129844057Y-77938445D01*
X130082827Y-78057232D01*
X130082830Y-78057233D01*
X130086914Y-78059265D01*
X130348998Y-78145180D01*
X130353489Y-78145960D01*
X130353490Y-78145960D01*
X130616957Y-78191706D01*
X130616965Y-78191707D01*
X130620738Y-78192362D01*
X130624575Y-78192553D01*
X130706305Y-78196622D01*
X130706313Y-78196622D01*
X130707876Y-78196700D01*
X130880070Y-78196700D01*
X130882338Y-78196535D01*
X130882350Y-78196535D01*
X131016603Y-78186794D01*
X131085083Y-78181825D01*
X131089538Y-78180841D01*
X131089541Y-78180841D01*
X131349947Y-78123348D01*
X131349950Y-78123347D01*
X131354403Y-78122364D01*
X131612319Y-78024649D01*
X131658313Y-77999102D01*
X131849435Y-77892943D01*
X131849436Y-77892942D01*
X131853428Y-77890725D01*
X132072678Y-77723398D01*
X132075873Y-77720130D01*
X132262283Y-77529442D01*
X132262287Y-77529437D01*
X132265477Y-77526174D01*
X132305272Y-77471502D01*
X132425100Y-77306876D01*
X132425102Y-77306873D01*
X132427787Y-77303184D01*
X132556206Y-77059099D01*
X132648045Y-76799032D01*
X132684516Y-76613992D01*
X132700499Y-76532904D01*
X132700500Y-76532898D01*
X132701380Y-76528432D01*
X132701607Y-76523876D01*
X132714867Y-76257536D01*
X132714867Y-76257530D01*
X132715094Y-76252967D01*
X132688898Y-75978408D01*
X132659360Y-75857693D01*
X132624429Y-75714944D01*
X132623343Y-75710506D01*
X132519801Y-75454874D01*
X132517500Y-75450944D01*
X132517497Y-75450938D01*
X132382745Y-75220797D01*
X132382740Y-75220790D01*
X132380442Y-75216865D01*
X132338502Y-75164422D01*
X132311578Y-75098729D01*
X132324443Y-75028908D01*
X132373015Y-74977126D01*
X132403654Y-74964194D01*
X132517651Y-74933008D01*
X132522709Y-74930596D01*
X132522713Y-74930594D01*
X132644991Y-74872270D01*
X132719129Y-74836908D01*
X132900405Y-74706648D01*
X133055749Y-74546346D01*
X133180250Y-74361068D01*
X133212441Y-74287736D01*
X133231023Y-74245404D01*
X133269974Y-74156671D01*
X133271282Y-74151223D01*
X133271284Y-74151217D01*
X133320775Y-73945072D01*
X133320775Y-73945071D01*
X133322085Y-73939615D01*
X133330386Y-73795638D01*
X133334611Y-73722369D01*
X133334611Y-73722366D01*
X133334934Y-73716762D01*
X133308117Y-73495156D01*
X133242481Y-73281800D01*
X133140099Y-73083441D01*
X133136690Y-73078999D01*
X133136688Y-73078995D01*
X133007620Y-72910790D01*
X133004210Y-72906346D01*
X132839107Y-72756114D01*
X132650010Y-72637493D01*
X132485102Y-72571201D01*
X132448097Y-72556325D01*
X132448095Y-72556324D01*
X132442895Y-72554234D01*
X132437407Y-72553097D01*
X132437402Y-72553096D01*
X132250033Y-72514294D01*
X132224310Y-72508967D01*
X132219697Y-72508701D01*
X132169474Y-72505805D01*
X132169470Y-72505805D01*
X132167651Y-72505700D01*
X132023370Y-72505700D01*
X132020583Y-72505949D01*
X132020577Y-72505949D01*
X131954628Y-72511835D01*
X131857661Y-72520489D01*
X131852247Y-72521970D01*
X131852242Y-72521971D01*
X131738470Y-72553096D01*
X131642349Y-72579392D01*
X131637291Y-72581804D01*
X131637287Y-72581806D01*
X131564060Y-72616734D01*
X131440871Y-72675492D01*
X131259595Y-72805752D01*
X131255688Y-72809784D01*
X131112910Y-72957119D01*
X131104251Y-72966054D01*
X130979750Y-73151332D01*
X130890026Y-73355729D01*
X130888718Y-73361177D01*
X130888716Y-73361183D01*
X130844162Y-73546764D01*
X130837915Y-73572785D01*
X130837592Y-73578390D01*
X130826332Y-73773685D01*
X130825066Y-73795638D01*
X130851883Y-74017244D01*
X130896259Y-74161491D01*
X130917519Y-74230600D01*
X130915519Y-74231215D01*
X130921805Y-74292721D01*
X130889694Y-74356040D01*
X130828447Y-74391948D01*
X130797926Y-74395700D01*
X130739930Y-74395700D01*
X130737662Y-74395865D01*
X130737650Y-74395865D01*
X130603397Y-74405606D01*
X130534917Y-74410575D01*
X130530462Y-74411559D01*
X130530459Y-74411559D01*
X130270053Y-74469052D01*
X130270050Y-74469053D01*
X130265597Y-74470036D01*
X130007681Y-74567751D01*
X130003694Y-74569965D01*
X130003693Y-74569966D01*
X129770565Y-74699457D01*
X129766572Y-74701675D01*
X129547322Y-74869002D01*
X129544129Y-74872268D01*
X129544127Y-74872270D01*
X129357717Y-75062958D01*
X129357713Y-75062963D01*
X129354523Y-75066226D01*
X129351836Y-75069918D01*
X129351834Y-75069920D01*
X129201975Y-75275805D01*
X129192213Y-75289216D01*
X129063794Y-75533301D01*
X128971955Y-75793368D01*
X128959636Y-75855868D01*
X128921016Y-76051814D01*
X128918620Y-76063968D01*
X128918393Y-76068522D01*
X128918393Y-76068524D01*
X128905872Y-76320036D01*
X128904906Y-76339433D01*
X126754371Y-76339433D01*
X126737587Y-76308697D01*
X126742652Y-76237882D01*
X126785199Y-76181046D01*
X126851719Y-76156235D01*
X126865981Y-76156025D01*
X126882084Y-76156700D01*
X127077474Y-76156700D01*
X127200915Y-76148826D01*
X127301639Y-76142401D01*
X127301644Y-76142400D01*
X127305647Y-76142145D01*
X127309584Y-76141383D01*
X127309586Y-76141383D01*
X127602401Y-76084730D01*
X127602405Y-76084729D01*
X127606338Y-76083968D01*
X127897200Y-75988056D01*
X128173518Y-75855963D01*
X128430812Y-75689831D01*
X128664910Y-75492352D01*
X128872019Y-75266729D01*
X128907260Y-75216865D01*
X128971859Y-75125458D01*
X129048780Y-75016618D01*
X129192328Y-74746074D01*
X129235144Y-74632466D01*
X129298919Y-74463244D01*
X129298921Y-74463238D01*
X129300336Y-74459483D01*
X129341094Y-74287736D01*
X129370124Y-74165407D01*
X129370125Y-74165402D01*
X129371053Y-74161491D01*
X129403332Y-73856929D01*
X129403237Y-73852531D01*
X129396739Y-73554752D01*
X129396739Y-73554747D01*
X129396651Y-73550735D01*
X129351117Y-73247870D01*
X129267469Y-72953247D01*
X129147063Y-72671640D01*
X128991851Y-72407615D01*
X128804349Y-72165453D01*
X128587596Y-71949078D01*
X128504629Y-71885069D01*
X128348299Y-71764461D01*
X128348295Y-71764458D01*
X128345106Y-71761998D01*
X128268609Y-71717207D01*
X128084275Y-71609275D01*
X128084272Y-71609273D01*
X128080811Y-71607247D01*
X128077126Y-71605679D01*
X128077122Y-71605677D01*
X127925879Y-71541323D01*
X127798994Y-71487333D01*
X127504225Y-71404199D01*
X127247513Y-71366062D01*
X127204581Y-71359684D01*
X127204579Y-71359684D01*
X127201282Y-71359194D01*
X127197951Y-71359054D01*
X127197947Y-71359054D01*
X127161263Y-71357517D01*
X127117916Y-71355700D01*
X126922526Y-71355700D01*
X126799085Y-71363574D01*
X126698361Y-71369999D01*
X126698356Y-71370000D01*
X126694353Y-71370255D01*
X126690416Y-71371017D01*
X126690414Y-71371017D01*
X126397599Y-71427670D01*
X126397595Y-71427671D01*
X126393662Y-71428432D01*
X126102800Y-71524344D01*
X125826482Y-71656437D01*
X125823112Y-71658613D01*
X125575227Y-71818670D01*
X125569188Y-71822569D01*
X125566123Y-71825154D01*
X125566121Y-71825156D01*
X125540311Y-71846929D01*
X125335090Y-72020048D01*
X125127981Y-72245671D01*
X124951220Y-72495782D01*
X124807672Y-72766326D01*
X124806257Y-72770082D01*
X124806256Y-72770083D01*
X124707092Y-73033208D01*
X124699664Y-73052917D01*
X124698735Y-73056832D01*
X124639485Y-73306505D01*
X124628947Y-73350909D01*
X124596668Y-73655471D01*
X124596755Y-73659473D01*
X124596755Y-73659480D01*
X124601881Y-73894368D01*
X124583370Y-73962909D01*
X124530741Y-74010561D01*
X124460704Y-74022196D01*
X124395496Y-73994119D01*
X124386816Y-73986212D01*
X116280053Y-65879450D01*
X116270199Y-65868361D01*
X116255007Y-65849091D01*
X116255005Y-65849089D01*
X116249172Y-65841690D01*
X116241425Y-65836335D01*
X116241423Y-65836334D01*
X116200925Y-65808345D01*
X116197703Y-65806043D01*
X116158058Y-65776760D01*
X116158057Y-65776759D01*
X116150484Y-65771166D01*
X116143668Y-65768773D01*
X116137731Y-65764669D01*
X116128751Y-65761829D01*
X116128749Y-65761828D01*
X116108583Y-65755450D01*
X116081781Y-65746974D01*
X116078050Y-65745729D01*
X116031563Y-65729404D01*
X116031561Y-65729404D01*
X116022669Y-65726281D01*
X116015481Y-65725999D01*
X116015422Y-65725988D01*
X116008570Y-65723820D01*
X116001963Y-65723300D01*
X115949284Y-65723300D01*
X115944337Y-65723203D01*
X115887306Y-65720962D01*
X115880200Y-65722846D01*
X115871953Y-65723300D01*
X115290528Y-65723300D01*
X115222407Y-65703298D01*
X115206709Y-65691376D01*
X115103492Y-65599413D01*
X115097821Y-65594360D01*
X114947981Y-65515024D01*
X114783541Y-65473719D01*
X114775943Y-65473679D01*
X114775941Y-65473679D01*
X114698768Y-65473275D01*
X114613995Y-65472831D01*
X114606608Y-65474605D01*
X114606604Y-65474605D01*
X114463262Y-65509020D01*
X114449132Y-65512412D01*
X114442388Y-65515893D01*
X114442385Y-65515894D01*
X114437189Y-65518576D01*
X114298469Y-65590175D01*
X114292747Y-65595167D01*
X114292745Y-65595168D01*
X114260735Y-65623092D01*
X114170704Y-65701631D01*
X114139253Y-65746381D01*
X114096501Y-65807212D01*
X114073213Y-65840347D01*
X114011624Y-65998313D01*
X114010632Y-66005846D01*
X114010632Y-66005847D01*
X113992396Y-66144370D01*
X113989494Y-66166411D01*
X109938000Y-66166411D01*
X109938000Y-60366449D01*
X109939553Y-60346730D01*
X109941440Y-60334822D01*
X109941440Y-60334821D01*
X109942992Y-60325026D01*
X109941441Y-60315232D01*
X109941442Y-60305312D01*
X109941465Y-60305312D01*
X109940829Y-60289100D01*
X109951847Y-60149219D01*
X109954941Y-60129694D01*
X109976974Y-60037936D01*
X109993801Y-59967860D01*
X109999907Y-59949069D01*
X110063608Y-59795296D01*
X110072581Y-59777686D01*
X110072605Y-59777648D01*
X110159545Y-59635781D01*
X110171163Y-59619791D01*
X110279255Y-59493233D01*
X110293233Y-59479255D01*
X110298963Y-59474361D01*
X110419791Y-59371163D01*
X110435781Y-59359545D01*
X110485870Y-59328849D01*
X110577690Y-59272579D01*
X110595296Y-59263608D01*
X110749069Y-59199907D01*
X110767860Y-59193801D01*
X110875228Y-59168019D01*
X110929694Y-59154941D01*
X110949219Y-59151847D01*
X111040513Y-59144656D01*
X111089101Y-59140829D01*
X111105312Y-59141465D01*
X111105312Y-59141442D01*
X111115232Y-59141441D01*
X111125026Y-59142992D01*
X111134821Y-59141440D01*
X111134822Y-59141440D01*
X111146730Y-59139553D01*
X111166449Y-59138000D01*
X144421064Y-59138000D01*
X144440774Y-59139551D01*
X144462500Y-59142992D01*
X144474536Y-59141086D01*
X144484359Y-59139923D01*
X144649892Y-59126896D01*
X144683592Y-59118806D01*
X144827860Y-59084171D01*
X144827863Y-59084170D01*
X144832670Y-59083016D01*
X144837234Y-59081126D01*
X144837239Y-59081124D01*
X145001765Y-59012978D01*
X145001766Y-59012977D01*
X145006335Y-59011085D01*
X145010551Y-59008501D01*
X145010556Y-59008499D01*
X145161127Y-58916233D01*
X145166609Y-58912874D01*
X145170371Y-58909662D01*
X145170374Y-58909659D01*
X145305781Y-58794017D01*
X145305786Y-58794012D01*
X145309547Y-58790800D01*
X145431352Y-58648196D01*
X145490802Y-58609390D01*
X145561796Y-58608886D01*
X145621794Y-58646844D01*
X145638409Y-58670877D01*
X145645957Y-58685072D01*
X145652749Y-58695294D01*
X145769897Y-58838933D01*
X145778541Y-58847637D01*
X145921356Y-58965784D01*
X145931527Y-58972644D01*
X146094576Y-59060804D01*
X146105881Y-59065556D01*
X146221192Y-59101250D01*
X146235295Y-59101456D01*
X146238500Y-59094701D01*
X146238500Y-56072076D01*
X146234527Y-56058545D01*
X146226732Y-56057425D01*
X146118979Y-56089138D01*
X146107611Y-56093731D01*
X145943346Y-56179607D01*
X145933085Y-56186321D01*
X145861702Y-56243714D01*
X145796079Y-56270810D01*
X145726225Y-56258126D01*
X145674317Y-56209690D01*
X145656750Y-56145517D01*
X145656750Y-54584646D01*
X145676752Y-54516525D01*
X145730408Y-54470032D01*
X145800682Y-54459928D01*
X145863065Y-54487561D01*
X145921356Y-54535784D01*
X145931527Y-54542644D01*
X146094576Y-54630804D01*
X146105881Y-54635556D01*
X146221192Y-54671250D01*
X146235295Y-54671456D01*
X146238500Y-54664701D01*
X146238500Y-54657924D01*
X146746500Y-54657924D01*
X146750473Y-54671455D01*
X146758268Y-54672575D01*
X146866021Y-54640862D01*
X146877389Y-54636269D01*
X147041654Y-54550393D01*
X147051915Y-54543679D01*
X147196373Y-54427532D01*
X147205132Y-54418954D01*
X147324278Y-54276961D01*
X147331208Y-54266841D01*
X147420502Y-54104415D01*
X147425334Y-54093142D01*
X147481380Y-53916462D01*
X147483930Y-53904468D01*
X147500107Y-53760239D01*
X147500500Y-53753215D01*
X147500500Y-53746657D01*
X154124500Y-53746657D01*
X154124801Y-53752805D01*
X154138312Y-53890603D01*
X154140695Y-53902638D01*
X154194267Y-54080076D01*
X154198941Y-54091416D01*
X154285960Y-54255077D01*
X154292749Y-54265294D01*
X154409897Y-54408933D01*
X154418541Y-54417637D01*
X154561356Y-54535784D01*
X154571527Y-54542644D01*
X154734576Y-54630804D01*
X154745881Y-54635556D01*
X154861192Y-54671250D01*
X154875295Y-54671456D01*
X154878500Y-54664701D01*
X154878500Y-53672115D01*
X154874025Y-53656876D01*
X154872635Y-53655671D01*
X154864952Y-53654000D01*
X154142615Y-53654000D01*
X154127376Y-53658475D01*
X154126171Y-53659865D01*
X154124500Y-53667548D01*
X154124500Y-53746657D01*
X147500500Y-53746657D01*
X147500500Y-53672115D01*
X147496025Y-53656876D01*
X147494635Y-53655671D01*
X147486952Y-53654000D01*
X146764615Y-53654000D01*
X146749376Y-53658475D01*
X146748171Y-53659865D01*
X146746500Y-53667548D01*
X146746500Y-54657924D01*
X146238500Y-54657924D01*
X146238500Y-53127885D01*
X146746500Y-53127885D01*
X146750975Y-53143124D01*
X146752365Y-53144329D01*
X146760048Y-53146000D01*
X147482385Y-53146000D01*
X147497624Y-53141525D01*
X147498829Y-53140135D01*
X147500500Y-53132452D01*
X147500500Y-53127885D01*
X154124500Y-53127885D01*
X154128975Y-53143124D01*
X154130365Y-53144329D01*
X154138048Y-53146000D01*
X154860385Y-53146000D01*
X154875624Y-53141525D01*
X154876829Y-53140135D01*
X154878500Y-53132452D01*
X154878500Y-52142076D01*
X154874527Y-52128545D01*
X154866732Y-52127425D01*
X154758979Y-52159138D01*
X154747611Y-52163731D01*
X154583346Y-52249607D01*
X154573085Y-52256321D01*
X154428627Y-52372468D01*
X154419868Y-52381046D01*
X154300722Y-52523039D01*
X154293792Y-52533159D01*
X154204498Y-52695585D01*
X154199666Y-52706858D01*
X154143620Y-52883538D01*
X154141070Y-52895532D01*
X154124893Y-53039761D01*
X154124500Y-53046785D01*
X154124500Y-53127885D01*
X147500500Y-53127885D01*
X147500500Y-53053343D01*
X147500199Y-53047195D01*
X147486688Y-52909397D01*
X147484305Y-52897362D01*
X147430733Y-52719924D01*
X147426059Y-52708584D01*
X147339040Y-52544923D01*
X147332251Y-52534706D01*
X147215103Y-52391067D01*
X147206459Y-52382363D01*
X147063644Y-52264216D01*
X147053473Y-52257356D01*
X146890424Y-52169196D01*
X146879119Y-52164444D01*
X146763808Y-52128750D01*
X146749705Y-52128544D01*
X146746500Y-52135299D01*
X146746500Y-53127885D01*
X146238500Y-53127885D01*
X146238500Y-52142076D01*
X146234527Y-52128545D01*
X146226732Y-52127425D01*
X146118979Y-52159138D01*
X146107611Y-52163731D01*
X145943346Y-52249607D01*
X145933085Y-52256321D01*
X145861702Y-52313714D01*
X145796079Y-52340810D01*
X145726225Y-52328126D01*
X145674317Y-52279690D01*
X145656750Y-52215517D01*
X145656750Y-51326500D01*
X145676752Y-51258379D01*
X145730408Y-51211886D01*
X145782750Y-51200500D01*
X155842250Y-51200500D01*
X155910371Y-51220502D01*
G37*
%TD.AperFunction*%
%TD*%
M02*
