M48
; DRILL file {KiCad (6.0.5)} date Fri Jun  3 20:06:59 2022
; FORMAT={-:-/ absolute / inch / decimal}
; #@! TF.CreationDate,2022-06-03T20:06:59+07:00
; #@! TF.GenerationSoftware,Kicad,Pcbnew,(6.0.5)
; #@! TF.FileFunction,Plated,1,2,PTH
FMAT,2
INCH
; #@! TA.AperFunction,Plated,PTH,ViaDrill
T1C0.0118
; #@! TA.AperFunction,Plated,PTH,ViaDrill
T2C0.0157
; #@! TA.AperFunction,Plated,PTH,ComponentDrill
T3C0.0236
; #@! TA.AperFunction,Plated,PTH,ComponentDrill
T4C0.0433
%
G90
G05
T1
X5.1891Y-3.05
X5.3031Y-4.3922
X5.4971Y-3.064
X5.5695Y-3.5019
X5.7069Y-4.09
X5.7337Y-4.2179
X5.8933Y-4.6814
X5.9645Y-3.0558
X6.0087Y-4.689
X6.0512Y-4.6026
X6.1274Y-2.8928
X6.1291Y-2.7355
X6.1919Y-2.5835
X6.2251Y-3.6131
X6.2842Y-3.825
X6.3071Y-4.621
X6.3703Y-4.6707
X6.5457Y-4.8202
X6.6492Y-3.19
X6.651Y-2.8951
X6.75Y-4.5
X6.75Y-4.6
X6.7616Y-4.5548
X7.0727Y-4.6951
X7.3524Y-4.1143
T2
X6.1427Y-2.8284
X6.2771Y-2.5939
X6.6234Y-2.7091
T4
X4.822Y-3.7177
X4.822Y-3.8948
X4.822Y-4.4052
X4.822Y-4.5823
X4.822Y-4.0614
X4.822Y-4.2386
X5.0779Y-3.7177
X5.0779Y-3.8948
X5.0779Y-4.4052
X5.0779Y-4.5823
X5.078Y-4.0614
X5.078Y-4.2386
T3
G00X6.0299Y-2.4587
M15
G01X6.0299Y-2.435
M16
G05
G00X6.0299Y-2.6331
M15
G01X6.0299Y-2.5898
M16
G05
G00X6.3701Y-2.4587
M15
G01X6.3701Y-2.435
M16
G05
G00X6.3701Y-2.6331
M15
G01X6.3701Y-2.5898
M16
G05
T0
M30
