%TF.GenerationSoftware,KiCad,Pcbnew,(6.0.5)*%
%TF.CreationDate,2022-06-05T05:51:03+07:00*%
%TF.ProjectId,atelier-alter,6174656c-6965-4722-9d61-6c7465722e6b,rev?*%
%TF.SameCoordinates,Original*%
%TF.FileFunction,Paste,Bot*%
%TF.FilePolarity,Positive*%
%FSLAX46Y46*%
G04 Gerber Fmt 4.6, Leading zero omitted, Abs format (unit mm)*
G04 Created by KiCad (PCBNEW (6.0.5)) date 2022-06-05 05:51:03*
%MOMM*%
%LPD*%
G01*
G04 APERTURE LIST*
G04 Aperture macros list*
%AMRoundRect*
0 Rectangle with rounded corners*
0 $1 Rounding radius*
0 $2 $3 $4 $5 $6 $7 $8 $9 X,Y pos of 4 corners*
0 Add a 4 corners polygon primitive as box body*
4,1,4,$2,$3,$4,$5,$6,$7,$8,$9,$2,$3,0*
0 Add four circle primitives for the rounded corners*
1,1,$1+$1,$2,$3*
1,1,$1+$1,$4,$5*
1,1,$1+$1,$6,$7*
1,1,$1+$1,$8,$9*
0 Add four rect primitives between the rounded corners*
20,1,$1+$1,$2,$3,$4,$5,0*
20,1,$1+$1,$4,$5,$6,$7,0*
20,1,$1+$1,$6,$7,$8,$9,0*
20,1,$1+$1,$8,$9,$2,$3,0*%
G04 Aperture macros list end*
%ADD10R,1.500000X1.000000*%
%ADD11RoundRect,0.250000X-0.450000X0.262500X-0.450000X-0.262500X0.450000X-0.262500X0.450000X0.262500X0*%
%ADD12R,1.800000X0.900000*%
%ADD13R,2.550000X2.500000*%
%ADD14R,1.500000X0.550000*%
%ADD15R,0.550000X1.500000*%
%ADD16RoundRect,0.250000X-0.475000X0.250000X-0.475000X-0.250000X0.475000X-0.250000X0.475000X0.250000X0*%
%ADD17R,1.200000X0.900000*%
%ADD18RoundRect,0.250000X0.475000X-0.250000X0.475000X0.250000X-0.475000X0.250000X-0.475000X-0.250000X0*%
%ADD19RoundRect,0.250000X0.450000X-0.262500X0.450000X0.262500X-0.450000X0.262500X-0.450000X-0.262500X0*%
%ADD20R,0.900000X1.200000*%
%ADD21R,2.100000X1.800000*%
%ADD22R,1.800000X1.100000*%
%ADD23RoundRect,0.250000X0.262500X0.450000X-0.262500X0.450000X-0.262500X-0.450000X0.262500X-0.450000X0*%
G04 APERTURE END LIST*
D10*
%TO.C,D1*%
X134530000Y-120320000D03*
X134530000Y-123520000D03*
X129630000Y-123520000D03*
X129630000Y-120320000D03*
%TD*%
D11*
%TO.C,R8*%
X153035000Y-122277500D03*
X153035000Y-124102500D03*
%TD*%
%TO.C,R7*%
X153035000Y-117197500D03*
X153035000Y-119022500D03*
%TD*%
D12*
%TO.C,MX6*%
X184210000Y-96030000D03*
X184210000Y-94530000D03*
X179010000Y-96030000D03*
X179010000Y-94530000D03*
D13*
X189020000Y-102870000D03*
X175595000Y-105410000D03*
%TD*%
D12*
%TO.C,MX5*%
X165160000Y-96030000D03*
X165160000Y-94530000D03*
X159960000Y-96030000D03*
X159960000Y-94530000D03*
D13*
X169970000Y-102870000D03*
X156545000Y-105410000D03*
%TD*%
D12*
%TO.C,MX4*%
X146110000Y-96030000D03*
X146110000Y-94530000D03*
X140910000Y-96030000D03*
X140910000Y-94530000D03*
D13*
X150920000Y-102870000D03*
X137495000Y-105410000D03*
%TD*%
D12*
%TO.C,MX3*%
X174685000Y-76345000D03*
X174685000Y-74845000D03*
X169485000Y-76345000D03*
X169485000Y-74845000D03*
D13*
X179495000Y-83185000D03*
X166070000Y-85725000D03*
%TD*%
D12*
%TO.C,MX1*%
X136585000Y-76345000D03*
X136585000Y-74845000D03*
X131385000Y-76345000D03*
X131385000Y-74845000D03*
D13*
X141395000Y-83185000D03*
X127970000Y-85725000D03*
%TD*%
D12*
%TO.C,MX2*%
X155635000Y-76345000D03*
X155635000Y-74845000D03*
X150435000Y-76345000D03*
X150435000Y-74845000D03*
D13*
X160445000Y-83185000D03*
X147020000Y-85725000D03*
%TD*%
D10*
%TO.C,D2*%
X181065000Y-123520000D03*
X181065000Y-120320000D03*
X185965000Y-120320000D03*
X185965000Y-123520000D03*
%TD*%
D14*
%TO.C,U1*%
X168761400Y-114745000D03*
X168761400Y-115545000D03*
X168761400Y-116345000D03*
X168761400Y-117145000D03*
X168761400Y-117945000D03*
X168761400Y-118745000D03*
X168761400Y-119545000D03*
X168761400Y-120345000D03*
X168761400Y-121145000D03*
X168761400Y-121945000D03*
X168761400Y-122745000D03*
D15*
X167061400Y-124445000D03*
X166261400Y-124445000D03*
X165461400Y-124445000D03*
X164661400Y-124445000D03*
X163861400Y-124445000D03*
X163061400Y-124445000D03*
X162261400Y-124445000D03*
X161461400Y-124445000D03*
X160661400Y-124445000D03*
X159861400Y-124445000D03*
X159061400Y-124445000D03*
D14*
X157361400Y-122745000D03*
X157361400Y-121945000D03*
X157361400Y-121145000D03*
X157361400Y-120345000D03*
X157361400Y-119545000D03*
X157361400Y-118745000D03*
X157361400Y-117945000D03*
X157361400Y-117145000D03*
X157361400Y-116345000D03*
X157361400Y-115545000D03*
X157361400Y-114745000D03*
D15*
X159061400Y-113045000D03*
X159861400Y-113045000D03*
X160661400Y-113045000D03*
X161461400Y-113045000D03*
X162261400Y-113045000D03*
X163061400Y-113045000D03*
X163861400Y-113045000D03*
X164661400Y-113045000D03*
X165461400Y-113045000D03*
X166261400Y-113045000D03*
X167061400Y-113045000D03*
%TD*%
D16*
%TO.C,C7*%
X151130000Y-127955000D03*
X151130000Y-129855000D03*
%TD*%
D11*
%TO.C,R4*%
X145415000Y-68302500D03*
X145415000Y-70127500D03*
%TD*%
D17*
%TO.C,D33*%
X132079900Y-114997500D03*
X132079900Y-111697500D03*
%TD*%
D10*
%TO.C,D4*%
X137070000Y-67615000D03*
X137070000Y-70815000D03*
X132170000Y-70815000D03*
X132170000Y-67615000D03*
%TD*%
D17*
%TO.C,D13*%
X162560000Y-90550000D03*
X162560000Y-87250000D03*
%TD*%
D16*
%TO.C,C6*%
X173355000Y-119700000D03*
X173355000Y-121600000D03*
%TD*%
D18*
%TO.C,C5*%
X174625000Y-129855000D03*
X174625000Y-127955000D03*
%TD*%
D10*
%TO.C,D3*%
X182790000Y-67615000D03*
X182790000Y-70815000D03*
X177890000Y-70815000D03*
X177890000Y-67615000D03*
%TD*%
D16*
%TO.C,C4*%
X154305000Y-127955000D03*
X154305000Y-129855000D03*
%TD*%
D17*
%TO.C,D31*%
X132079900Y-98328700D03*
X132079900Y-95028700D03*
%TD*%
D19*
%TO.C,R6*%
X153035000Y-113942500D03*
X153035000Y-112117500D03*
%TD*%
D20*
%TO.C,D22*%
X164845000Y-109220000D03*
X161545000Y-109220000D03*
%TD*%
D17*
%TO.C,D11*%
X124460000Y-90550000D03*
X124460000Y-87250000D03*
%TD*%
D11*
%TO.C,R5*%
X148590000Y-68302500D03*
X148590000Y-70127500D03*
%TD*%
D18*
%TO.C,C1*%
X171450000Y-129855000D03*
X171450000Y-127955000D03*
%TD*%
D21*
%TO.C,Y1*%
X164648900Y-130175000D03*
X161748900Y-130175000D03*
X161748900Y-127875000D03*
X164648900Y-127875000D03*
%TD*%
D20*
%TO.C,D23*%
X183895000Y-109220000D03*
X180595000Y-109220000D03*
%TD*%
D17*
%TO.C,D12*%
X143510000Y-90550000D03*
X143510000Y-87250000D03*
%TD*%
D22*
%TO.C,SW4*%
X142315000Y-119960000D03*
X148515000Y-116260000D03*
X142315000Y-116260000D03*
X148515000Y-119960000D03*
%TD*%
D23*
%TO.C,R3*%
X184427500Y-127000000D03*
X182602500Y-127000000D03*
%TD*%
D17*
%TO.C,D32*%
X132079900Y-106266200D03*
X132079900Y-102966200D03*
%TD*%
D18*
%TO.C,C2*%
X157480000Y-129855000D03*
X157480000Y-127955000D03*
%TD*%
D16*
%TO.C,C3*%
X168275000Y-127955000D03*
X168275000Y-129855000D03*
%TD*%
D20*
%TO.C,D21*%
X145160000Y-109220000D03*
X141860000Y-109220000D03*
%TD*%
M02*
