M48
; DRILL file {KiCad (6.0.5)} date Fri Jun  3 03:17:57 2022
; FORMAT={-:-/ absolute / inch / decimal}
; #@! TF.CreationDate,2022-06-03T03:17:57+07:00
; #@! TF.GenerationSoftware,Kicad,Pcbnew,(6.0.5)
; #@! TF.FileFunction,Plated,1,2,PTH
FMAT,2
INCH
; #@! TA.AperFunction,Plated,PTH,ViaDrill
T1C0.0118
; #@! TA.AperFunction,Plated,PTH,ViaDrill
T2C0.0157
; #@! TA.AperFunction,Plated,PTH,ComponentDrill
T3C0.0236
; #@! TA.AperFunction,Plated,PTH,ComponentDrill
T4C0.0433
%
G90
G05
T1
X5.1726Y-3.0526
X5.475Y-2.975
X5.525Y-2.6964
X5.5695Y-3.5071
X5.6843Y-3.6213
X5.8809Y-3.758
X5.975Y-2.625
X6.0387Y-4.0759
X6.0869Y-3.8276
X6.1082Y-4.7254
X6.1107Y-4.6863
X6.1274Y-2.9091
X6.1359Y-2.85
X6.1456Y-3.7987
X6.1887Y-2.3477
X6.2147Y-2.4856
X6.25Y-2.8984
X6.2836Y-4.6073
X6.29Y-4.5709
X6.2957Y-4.5109
X6.3Y-3.825
X6.3053Y-4.5409
X6.4197Y-4.9624
X6.4467Y-2.582
X6.5579Y-3.7231
X6.5822Y-5.1124
X6.5884Y-3.8024
X6.6024Y-4.323
X6.6117Y-3.7809
X6.6917Y-4.1262
X6.8365Y-4.225
X6.9Y-2.625
X6.9315Y-4.323
X7.0775Y-4.6932
X7.1064Y-3.6563
X7.3078Y-4.7562
T2
X5.9629Y-2.5466
X6.1435Y-2.5552
T4
X4.822Y-3.7177
X4.822Y-3.8948
X4.822Y-4.4052
X4.822Y-4.5823
X4.822Y-4.0614
X4.822Y-4.2386
X5.0779Y-3.7177
X5.0779Y-3.8948
X5.0779Y-4.4052
X5.0779Y-4.5823
X5.078Y-4.0614
X5.078Y-4.2386
T3
G00X6.0309Y-2.2079
M15
G01X6.0309Y-2.1843
M16
G05
G00X6.0309Y-2.3823
M15
G01X6.0309Y-2.339
M16
G05
G00X6.3711Y-2.2079
M15
G01X6.3711Y-2.1843
M16
G05
G00X6.3711Y-2.3823
M15
G01X6.3711Y-2.339
M16
G05
T0
M30
