%TF.GenerationSoftware,KiCad,Pcbnew,(6.0.5)*%
%TF.CreationDate,2022-06-03T03:18:00+07:00*%
%TF.ProjectId,atelier-alter,6174656c-6965-4722-9d61-6c7465722e6b,rev?*%
%TF.SameCoordinates,Original*%
%TF.FileFunction,Legend,Bot*%
%TF.FilePolarity,Positive*%
%FSLAX46Y46*%
G04 Gerber Fmt 4.6, Leading zero omitted, Abs format (unit mm)*
G04 Created by KiCad (PCBNEW (6.0.5)) date 2022-06-03 03:18:00*
%MOMM*%
%LPD*%
G01*
G04 APERTURE LIST*
%ADD10C,0.150000*%
%ADD11C,0.120000*%
G04 APERTURE END LIST*
D10*
%TO.C,D5*%
X188698095Y-121102380D02*
X188698095Y-120102380D01*
X188460000Y-120102380D01*
X188317142Y-120150000D01*
X188221904Y-120245238D01*
X188174285Y-120340476D01*
X188126666Y-120530952D01*
X188126666Y-120673809D01*
X188174285Y-120864285D01*
X188221904Y-120959523D01*
X188317142Y-121054761D01*
X188460000Y-121102380D01*
X188698095Y-121102380D01*
X187221904Y-120102380D02*
X187698095Y-120102380D01*
X187745714Y-120578571D01*
X187698095Y-120530952D01*
X187602857Y-120483333D01*
X187364761Y-120483333D01*
X187269523Y-120530952D01*
X187221904Y-120578571D01*
X187174285Y-120673809D01*
X187174285Y-120911904D01*
X187221904Y-121007142D01*
X187269523Y-121054761D01*
X187364761Y-121102380D01*
X187602857Y-121102380D01*
X187698095Y-121054761D01*
X187745714Y-121007142D01*
X179079285Y-122702380D02*
X179650714Y-122702380D01*
X179365000Y-122702380D02*
X179365000Y-121702380D01*
X179460238Y-121845238D01*
X179555476Y-121940476D01*
X179650714Y-121988095D01*
%TO.C,U1*%
X163956904Y-118197380D02*
X163956904Y-119006904D01*
X163909285Y-119102142D01*
X163861666Y-119149761D01*
X163766428Y-119197380D01*
X163575952Y-119197380D01*
X163480714Y-119149761D01*
X163433095Y-119102142D01*
X163385476Y-119006904D01*
X163385476Y-118197380D01*
X162385476Y-119197380D02*
X162956904Y-119197380D01*
X162671190Y-119197380D02*
X162671190Y-118197380D01*
X162766428Y-118340238D01*
X162861666Y-118435476D01*
X162956904Y-118483095D01*
%TO.C,C7*%
X180697142Y-115403333D02*
X180744761Y-115355714D01*
X180792380Y-115212857D01*
X180792380Y-115117619D01*
X180744761Y-114974761D01*
X180649523Y-114879523D01*
X180554285Y-114831904D01*
X180363809Y-114784285D01*
X180220952Y-114784285D01*
X180030476Y-114831904D01*
X179935238Y-114879523D01*
X179840000Y-114974761D01*
X179792380Y-115117619D01*
X179792380Y-115212857D01*
X179840000Y-115355714D01*
X179887619Y-115403333D01*
X179792380Y-115736666D02*
X179792380Y-116403333D01*
X180792380Y-115974761D01*
%TO.C,C14*%
X184792857Y-81002142D02*
X184840476Y-81049761D01*
X184983333Y-81097380D01*
X185078571Y-81097380D01*
X185221428Y-81049761D01*
X185316666Y-80954523D01*
X185364285Y-80859285D01*
X185411904Y-80668809D01*
X185411904Y-80525952D01*
X185364285Y-80335476D01*
X185316666Y-80240238D01*
X185221428Y-80145000D01*
X185078571Y-80097380D01*
X184983333Y-80097380D01*
X184840476Y-80145000D01*
X184792857Y-80192619D01*
X183840476Y-81097380D02*
X184411904Y-81097380D01*
X184126190Y-81097380D02*
X184126190Y-80097380D01*
X184221428Y-80240238D01*
X184316666Y-80335476D01*
X184411904Y-80383095D01*
X182983333Y-80430714D02*
X182983333Y-81097380D01*
X183221428Y-80049761D02*
X183459523Y-80764047D01*
X182840476Y-80764047D01*
%TO.C,R4*%
X150312380Y-69683333D02*
X149836190Y-69350000D01*
X150312380Y-69111904D02*
X149312380Y-69111904D01*
X149312380Y-69492857D01*
X149360000Y-69588095D01*
X149407619Y-69635714D01*
X149502857Y-69683333D01*
X149645714Y-69683333D01*
X149740952Y-69635714D01*
X149788571Y-69588095D01*
X149836190Y-69492857D01*
X149836190Y-69111904D01*
X149645714Y-70540476D02*
X150312380Y-70540476D01*
X149264761Y-70302380D02*
X149979047Y-70064285D01*
X149979047Y-70683333D01*
%TO.C,C17*%
X190222142Y-75557142D02*
X190269761Y-75509523D01*
X190317380Y-75366666D01*
X190317380Y-75271428D01*
X190269761Y-75128571D01*
X190174523Y-75033333D01*
X190079285Y-74985714D01*
X189888809Y-74938095D01*
X189745952Y-74938095D01*
X189555476Y-74985714D01*
X189460238Y-75033333D01*
X189365000Y-75128571D01*
X189317380Y-75271428D01*
X189317380Y-75366666D01*
X189365000Y-75509523D01*
X189412619Y-75557142D01*
X190317380Y-76509523D02*
X190317380Y-75938095D01*
X190317380Y-76223809D02*
X189317380Y-76223809D01*
X189460238Y-76128571D01*
X189555476Y-76033333D01*
X189603095Y-75938095D01*
X189317380Y-76842857D02*
X189317380Y-77509523D01*
X190317380Y-77080952D01*
%TO.C,R7*%
X129706666Y-128087380D02*
X130040000Y-127611190D01*
X130278095Y-128087380D02*
X130278095Y-127087380D01*
X129897142Y-127087380D01*
X129801904Y-127135000D01*
X129754285Y-127182619D01*
X129706666Y-127277857D01*
X129706666Y-127420714D01*
X129754285Y-127515952D01*
X129801904Y-127563571D01*
X129897142Y-127611190D01*
X130278095Y-127611190D01*
X129373333Y-127087380D02*
X128706666Y-127087380D01*
X129135238Y-128087380D01*
%TO.C,D33*%
X134498525Y-112110687D02*
X133498525Y-112110687D01*
X133498525Y-112348782D01*
X133546145Y-112491639D01*
X133641383Y-112586877D01*
X133736621Y-112634496D01*
X133927097Y-112682115D01*
X134069954Y-112682115D01*
X134260430Y-112634496D01*
X134355668Y-112586877D01*
X134450906Y-112491639D01*
X134498525Y-112348782D01*
X134498525Y-112110687D01*
X133498525Y-113015449D02*
X133498525Y-113634496D01*
X133879478Y-113301163D01*
X133879478Y-113444020D01*
X133927097Y-113539258D01*
X133974716Y-113586877D01*
X134069954Y-113634496D01*
X134308049Y-113634496D01*
X134403287Y-113586877D01*
X134450906Y-113539258D01*
X134498525Y-113444020D01*
X134498525Y-113158306D01*
X134450906Y-113063068D01*
X134403287Y-113015449D01*
X133498525Y-113967830D02*
X133498525Y-114586877D01*
X133879478Y-114253544D01*
X133879478Y-114396401D01*
X133927097Y-114491639D01*
X133974716Y-114539258D01*
X134069954Y-114586877D01*
X134308049Y-114586877D01*
X134403287Y-114539258D01*
X134450906Y-114491639D01*
X134498525Y-114396401D01*
X134498525Y-114110687D01*
X134450906Y-114015449D01*
X134403287Y-113967830D01*
%TO.C,D14*%
X135834285Y-64897380D02*
X135834285Y-63897380D01*
X135596190Y-63897380D01*
X135453333Y-63945000D01*
X135358095Y-64040238D01*
X135310476Y-64135476D01*
X135262857Y-64325952D01*
X135262857Y-64468809D01*
X135310476Y-64659285D01*
X135358095Y-64754523D01*
X135453333Y-64849761D01*
X135596190Y-64897380D01*
X135834285Y-64897380D01*
X134310476Y-64897380D02*
X134881904Y-64897380D01*
X134596190Y-64897380D02*
X134596190Y-63897380D01*
X134691428Y-64040238D01*
X134786666Y-64135476D01*
X134881904Y-64183095D01*
X133453333Y-64230714D02*
X133453333Y-64897380D01*
X133691428Y-63849761D02*
X133929523Y-64564047D01*
X133310476Y-64564047D01*
X138484285Y-66797380D02*
X139055714Y-66797380D01*
X138770000Y-66797380D02*
X138770000Y-65797380D01*
X138865238Y-65940238D01*
X138960476Y-66035476D01*
X139055714Y-66083095D01*
%TO.C,R1*%
X151931666Y-70937380D02*
X152265000Y-70461190D01*
X152503095Y-70937380D02*
X152503095Y-69937380D01*
X152122142Y-69937380D01*
X152026904Y-69985000D01*
X151979285Y-70032619D01*
X151931666Y-70127857D01*
X151931666Y-70270714D01*
X151979285Y-70365952D01*
X152026904Y-70413571D01*
X152122142Y-70461190D01*
X152503095Y-70461190D01*
X150979285Y-70937380D02*
X151550714Y-70937380D01*
X151265000Y-70937380D02*
X151265000Y-69937380D01*
X151360238Y-70080238D01*
X151455476Y-70175476D01*
X151550714Y-70223095D01*
%TO.C,D13*%
X160631130Y-87985714D02*
X159631130Y-87985714D01*
X159631130Y-88223809D01*
X159678750Y-88366666D01*
X159773988Y-88461904D01*
X159869226Y-88509523D01*
X160059702Y-88557142D01*
X160202559Y-88557142D01*
X160393035Y-88509523D01*
X160488273Y-88461904D01*
X160583511Y-88366666D01*
X160631130Y-88223809D01*
X160631130Y-87985714D01*
X160631130Y-89509523D02*
X160631130Y-88938095D01*
X160631130Y-89223809D02*
X159631130Y-89223809D01*
X159773988Y-89128571D01*
X159869226Y-89033333D01*
X159916845Y-88938095D01*
X159631130Y-89842857D02*
X159631130Y-90461904D01*
X160012083Y-90128571D01*
X160012083Y-90271428D01*
X160059702Y-90366666D01*
X160107321Y-90414285D01*
X160202559Y-90461904D01*
X160440654Y-90461904D01*
X160535892Y-90414285D01*
X160583511Y-90366666D01*
X160631130Y-90271428D01*
X160631130Y-89985714D01*
X160583511Y-89890476D01*
X160535892Y-89842857D01*
%TO.C,R2*%
X163004166Y-70937380D02*
X163337500Y-70461190D01*
X163575595Y-70937380D02*
X163575595Y-69937380D01*
X163194642Y-69937380D01*
X163099404Y-69985000D01*
X163051785Y-70032619D01*
X163004166Y-70127857D01*
X163004166Y-70270714D01*
X163051785Y-70365952D01*
X163099404Y-70413571D01*
X163194642Y-70461190D01*
X163575595Y-70461190D01*
X162623214Y-70032619D02*
X162575595Y-69985000D01*
X162480357Y-69937380D01*
X162242261Y-69937380D01*
X162147023Y-69985000D01*
X162099404Y-70032619D01*
X162051785Y-70127857D01*
X162051785Y-70223095D01*
X162099404Y-70365952D01*
X162670833Y-70937380D01*
X162051785Y-70937380D01*
%TO.C,C9*%
X145547142Y-76033333D02*
X145594761Y-75985714D01*
X145642380Y-75842857D01*
X145642380Y-75747619D01*
X145594761Y-75604761D01*
X145499523Y-75509523D01*
X145404285Y-75461904D01*
X145213809Y-75414285D01*
X145070952Y-75414285D01*
X144880476Y-75461904D01*
X144785238Y-75509523D01*
X144690000Y-75604761D01*
X144642380Y-75747619D01*
X144642380Y-75842857D01*
X144690000Y-75985714D01*
X144737619Y-76033333D01*
X145642380Y-76509523D02*
X145642380Y-76700000D01*
X145594761Y-76795238D01*
X145547142Y-76842857D01*
X145404285Y-76938095D01*
X145213809Y-76985714D01*
X144832857Y-76985714D01*
X144737619Y-76938095D01*
X144690000Y-76890476D01*
X144642380Y-76795238D01*
X144642380Y-76604761D01*
X144690000Y-76509523D01*
X144737619Y-76461904D01*
X144832857Y-76414285D01*
X145070952Y-76414285D01*
X145166190Y-76461904D01*
X145213809Y-76509523D01*
X145261428Y-76604761D01*
X145261428Y-76795238D01*
X145213809Y-76890476D01*
X145166190Y-76938095D01*
X145070952Y-76985714D01*
%TO.C,C15*%
X193172142Y-97147142D02*
X193219761Y-97099523D01*
X193267380Y-96956666D01*
X193267380Y-96861428D01*
X193219761Y-96718571D01*
X193124523Y-96623333D01*
X193029285Y-96575714D01*
X192838809Y-96528095D01*
X192695952Y-96528095D01*
X192505476Y-96575714D01*
X192410238Y-96623333D01*
X192315000Y-96718571D01*
X192267380Y-96861428D01*
X192267380Y-96956666D01*
X192315000Y-97099523D01*
X192362619Y-97147142D01*
X193267380Y-98099523D02*
X193267380Y-97528095D01*
X193267380Y-97813809D02*
X192267380Y-97813809D01*
X192410238Y-97718571D01*
X192505476Y-97623333D01*
X192553095Y-97528095D01*
X192267380Y-99004285D02*
X192267380Y-98528095D01*
X192743571Y-98480476D01*
X192695952Y-98528095D01*
X192648333Y-98623333D01*
X192648333Y-98861428D01*
X192695952Y-98956666D01*
X192743571Y-99004285D01*
X192838809Y-99051904D01*
X193076904Y-99051904D01*
X193172142Y-99004285D01*
X193219761Y-98956666D01*
X193267380Y-98861428D01*
X193267380Y-98623333D01*
X193219761Y-98528095D01*
X193172142Y-98480476D01*
%TO.C,C5*%
X183872142Y-115403333D02*
X183919761Y-115355714D01*
X183967380Y-115212857D01*
X183967380Y-115117619D01*
X183919761Y-114974761D01*
X183824523Y-114879523D01*
X183729285Y-114831904D01*
X183538809Y-114784285D01*
X183395952Y-114784285D01*
X183205476Y-114831904D01*
X183110238Y-114879523D01*
X183015000Y-114974761D01*
X182967380Y-115117619D01*
X182967380Y-115212857D01*
X183015000Y-115355714D01*
X183062619Y-115403333D01*
X182967380Y-116308095D02*
X182967380Y-115831904D01*
X183443571Y-115784285D01*
X183395952Y-115831904D01*
X183348333Y-115927142D01*
X183348333Y-116165238D01*
X183395952Y-116260476D01*
X183443571Y-116308095D01*
X183538809Y-116355714D01*
X183776904Y-116355714D01*
X183872142Y-116308095D01*
X183919761Y-116260476D01*
X183967380Y-116165238D01*
X183967380Y-115927142D01*
X183919761Y-115831904D01*
X183872142Y-115784285D01*
%TO.C,D9*%
X181078095Y-64897380D02*
X181078095Y-63897380D01*
X180840000Y-63897380D01*
X180697142Y-63945000D01*
X180601904Y-64040238D01*
X180554285Y-64135476D01*
X180506666Y-64325952D01*
X180506666Y-64468809D01*
X180554285Y-64659285D01*
X180601904Y-64754523D01*
X180697142Y-64849761D01*
X180840000Y-64897380D01*
X181078095Y-64897380D01*
X180030476Y-64897380D02*
X179840000Y-64897380D01*
X179744761Y-64849761D01*
X179697142Y-64802142D01*
X179601904Y-64659285D01*
X179554285Y-64468809D01*
X179554285Y-64087857D01*
X179601904Y-63992619D01*
X179649523Y-63945000D01*
X179744761Y-63897380D01*
X179935238Y-63897380D01*
X180030476Y-63945000D01*
X180078095Y-63992619D01*
X180125714Y-64087857D01*
X180125714Y-64325952D01*
X180078095Y-64421190D01*
X180030476Y-64468809D01*
X179935238Y-64516428D01*
X179744761Y-64516428D01*
X179649523Y-64468809D01*
X179601904Y-64421190D01*
X179554285Y-64325952D01*
X184204285Y-66797380D02*
X184775714Y-66797380D01*
X184490000Y-66797380D02*
X184490000Y-65797380D01*
X184585238Y-65940238D01*
X184680476Y-66035476D01*
X184775714Y-66083095D01*
%TO.C,C6*%
X171193903Y-114254195D02*
X171241522Y-114206576D01*
X171289141Y-114063719D01*
X171289141Y-113968481D01*
X171241522Y-113825623D01*
X171146284Y-113730385D01*
X171051046Y-113682766D01*
X170860570Y-113635147D01*
X170717713Y-113635147D01*
X170527237Y-113682766D01*
X170431999Y-113730385D01*
X170336761Y-113825623D01*
X170289141Y-113968481D01*
X170289141Y-114063719D01*
X170336761Y-114206576D01*
X170384380Y-114254195D01*
X170289141Y-115111338D02*
X170289141Y-114920862D01*
X170336761Y-114825623D01*
X170384380Y-114778004D01*
X170527237Y-114682766D01*
X170717713Y-114635147D01*
X171098665Y-114635147D01*
X171193903Y-114682766D01*
X171241522Y-114730385D01*
X171289141Y-114825623D01*
X171289141Y-115016100D01*
X171241522Y-115111338D01*
X171193903Y-115158957D01*
X171098665Y-115206576D01*
X170860570Y-115206576D01*
X170765332Y-115158957D01*
X170717713Y-115111338D01*
X170670094Y-115016100D01*
X170670094Y-114825623D01*
X170717713Y-114730385D01*
X170765332Y-114682766D01*
X170860570Y-114635147D01*
%TO.C,C4*%
X155297142Y-131598333D02*
X155344761Y-131550714D01*
X155392380Y-131407857D01*
X155392380Y-131312619D01*
X155344761Y-131169761D01*
X155249523Y-131074523D01*
X155154285Y-131026904D01*
X154963809Y-130979285D01*
X154820952Y-130979285D01*
X154630476Y-131026904D01*
X154535238Y-131074523D01*
X154440000Y-131169761D01*
X154392380Y-131312619D01*
X154392380Y-131407857D01*
X154440000Y-131550714D01*
X154487619Y-131598333D01*
X154725714Y-132455476D02*
X155392380Y-132455476D01*
X154344761Y-132217380D02*
X155059047Y-131979285D01*
X155059047Y-132598333D01*
%TO.C,D31*%
X135178839Y-95752529D02*
X134178839Y-95752529D01*
X134178839Y-95990624D01*
X134226459Y-96133481D01*
X134321697Y-96228719D01*
X134416935Y-96276338D01*
X134607411Y-96323957D01*
X134750268Y-96323957D01*
X134940744Y-96276338D01*
X135035982Y-96228719D01*
X135131220Y-96133481D01*
X135178839Y-95990624D01*
X135178839Y-95752529D01*
X134178839Y-96657291D02*
X134178839Y-97276338D01*
X134559792Y-96943005D01*
X134559792Y-97085862D01*
X134607411Y-97181100D01*
X134655030Y-97228719D01*
X134750268Y-97276338D01*
X134988363Y-97276338D01*
X135083601Y-97228719D01*
X135131220Y-97181100D01*
X135178839Y-97085862D01*
X135178839Y-96800148D01*
X135131220Y-96704910D01*
X135083601Y-96657291D01*
X135178839Y-98228719D02*
X135178839Y-97657291D01*
X135178839Y-97943005D02*
X134178839Y-97943005D01*
X134321697Y-97847767D01*
X134416935Y-97752529D01*
X134464554Y-97657291D01*
%TO.C,R6*%
X155392380Y-110958333D02*
X154916190Y-110625000D01*
X155392380Y-110386904D02*
X154392380Y-110386904D01*
X154392380Y-110767857D01*
X154440000Y-110863095D01*
X154487619Y-110910714D01*
X154582857Y-110958333D01*
X154725714Y-110958333D01*
X154820952Y-110910714D01*
X154868571Y-110863095D01*
X154916190Y-110767857D01*
X154916190Y-110386904D01*
X154392380Y-111815476D02*
X154392380Y-111625000D01*
X154440000Y-111529761D01*
X154487619Y-111482142D01*
X154630476Y-111386904D01*
X154820952Y-111339285D01*
X155201904Y-111339285D01*
X155297142Y-111386904D01*
X155344761Y-111434523D01*
X155392380Y-111529761D01*
X155392380Y-111720238D01*
X155344761Y-111815476D01*
X155297142Y-111863095D01*
X155201904Y-111910714D01*
X154963809Y-111910714D01*
X154868571Y-111863095D01*
X154820952Y-111815476D01*
X154773333Y-111720238D01*
X154773333Y-111529761D01*
X154820952Y-111434523D01*
X154868571Y-111386904D01*
X154963809Y-111339285D01*
%TO.C,C8*%
X151804642Y-97623333D02*
X151852261Y-97575714D01*
X151899880Y-97432857D01*
X151899880Y-97337619D01*
X151852261Y-97194761D01*
X151757023Y-97099523D01*
X151661785Y-97051904D01*
X151471309Y-97004285D01*
X151328452Y-97004285D01*
X151137976Y-97051904D01*
X151042738Y-97099523D01*
X150947500Y-97194761D01*
X150899880Y-97337619D01*
X150899880Y-97432857D01*
X150947500Y-97575714D01*
X150995119Y-97623333D01*
X151328452Y-98194761D02*
X151280833Y-98099523D01*
X151233214Y-98051904D01*
X151137976Y-98004285D01*
X151090357Y-98004285D01*
X150995119Y-98051904D01*
X150947500Y-98099523D01*
X150899880Y-98194761D01*
X150899880Y-98385238D01*
X150947500Y-98480476D01*
X150995119Y-98528095D01*
X151090357Y-98575714D01*
X151137976Y-98575714D01*
X151233214Y-98528095D01*
X151280833Y-98480476D01*
X151328452Y-98385238D01*
X151328452Y-98194761D01*
X151376071Y-98099523D01*
X151423690Y-98051904D01*
X151518928Y-98004285D01*
X151709404Y-98004285D01*
X151804642Y-98051904D01*
X151852261Y-98099523D01*
X151899880Y-98194761D01*
X151899880Y-98385238D01*
X151852261Y-98480476D01*
X151804642Y-98528095D01*
X151709404Y-98575714D01*
X151518928Y-98575714D01*
X151423690Y-98528095D01*
X151376071Y-98480476D01*
X151328452Y-98385238D01*
%TO.C,D2*%
X127738095Y-121737380D02*
X127738095Y-120737380D01*
X127500000Y-120737380D01*
X127357142Y-120785000D01*
X127261904Y-120880238D01*
X127214285Y-120975476D01*
X127166666Y-121165952D01*
X127166666Y-121308809D01*
X127214285Y-121499285D01*
X127261904Y-121594523D01*
X127357142Y-121689761D01*
X127500000Y-121737380D01*
X127738095Y-121737380D01*
X126785714Y-120832619D02*
X126738095Y-120785000D01*
X126642857Y-120737380D01*
X126404761Y-120737380D01*
X126309523Y-120785000D01*
X126261904Y-120832619D01*
X126214285Y-120927857D01*
X126214285Y-121023095D01*
X126261904Y-121165952D01*
X126833333Y-121737380D01*
X126214285Y-121737380D01*
X127644285Y-123337380D02*
X128215714Y-123337380D01*
X127930000Y-123337380D02*
X127930000Y-122337380D01*
X128025238Y-122480238D01*
X128120476Y-122575476D01*
X128215714Y-122623095D01*
%TO.C,C11*%
X181617857Y-127357142D02*
X181665476Y-127404761D01*
X181808333Y-127452380D01*
X181903571Y-127452380D01*
X182046428Y-127404761D01*
X182141666Y-127309523D01*
X182189285Y-127214285D01*
X182236904Y-127023809D01*
X182236904Y-126880952D01*
X182189285Y-126690476D01*
X182141666Y-126595238D01*
X182046428Y-126500000D01*
X181903571Y-126452380D01*
X181808333Y-126452380D01*
X181665476Y-126500000D01*
X181617857Y-126547619D01*
X180665476Y-127452380D02*
X181236904Y-127452380D01*
X180951190Y-127452380D02*
X180951190Y-126452380D01*
X181046428Y-126595238D01*
X181141666Y-126690476D01*
X181236904Y-126738095D01*
X179713095Y-127452380D02*
X180284523Y-127452380D01*
X179998809Y-127452380D02*
X179998809Y-126452380D01*
X180094047Y-126595238D01*
X180189285Y-126690476D01*
X180284523Y-126738095D01*
%TO.C,D22*%
X160599285Y-109672380D02*
X160599285Y-108672380D01*
X160361190Y-108672380D01*
X160218333Y-108720000D01*
X160123095Y-108815238D01*
X160075476Y-108910476D01*
X160027857Y-109100952D01*
X160027857Y-109243809D01*
X160075476Y-109434285D01*
X160123095Y-109529523D01*
X160218333Y-109624761D01*
X160361190Y-109672380D01*
X160599285Y-109672380D01*
X159646904Y-108767619D02*
X159599285Y-108720000D01*
X159504047Y-108672380D01*
X159265952Y-108672380D01*
X159170714Y-108720000D01*
X159123095Y-108767619D01*
X159075476Y-108862857D01*
X159075476Y-108958095D01*
X159123095Y-109100952D01*
X159694523Y-109672380D01*
X159075476Y-109672380D01*
X158694523Y-108767619D02*
X158646904Y-108720000D01*
X158551666Y-108672380D01*
X158313571Y-108672380D01*
X158218333Y-108720000D01*
X158170714Y-108767619D01*
X158123095Y-108862857D01*
X158123095Y-108958095D01*
X158170714Y-109100952D01*
X158742142Y-109672380D01*
X158123095Y-109672380D01*
%TO.C,C13*%
X161329642Y-75557142D02*
X161377261Y-75509523D01*
X161424880Y-75366666D01*
X161424880Y-75271428D01*
X161377261Y-75128571D01*
X161282023Y-75033333D01*
X161186785Y-74985714D01*
X160996309Y-74938095D01*
X160853452Y-74938095D01*
X160662976Y-74985714D01*
X160567738Y-75033333D01*
X160472500Y-75128571D01*
X160424880Y-75271428D01*
X160424880Y-75366666D01*
X160472500Y-75509523D01*
X160520119Y-75557142D01*
X161424880Y-76509523D02*
X161424880Y-75938095D01*
X161424880Y-76223809D02*
X160424880Y-76223809D01*
X160567738Y-76128571D01*
X160662976Y-76033333D01*
X160710595Y-75938095D01*
X160424880Y-76842857D02*
X160424880Y-77461904D01*
X160805833Y-77128571D01*
X160805833Y-77271428D01*
X160853452Y-77366666D01*
X160901071Y-77414285D01*
X160996309Y-77461904D01*
X161234404Y-77461904D01*
X161329642Y-77414285D01*
X161377261Y-77366666D01*
X161424880Y-77271428D01*
X161424880Y-76985714D01*
X161377261Y-76890476D01*
X161329642Y-76842857D01*
%TO.C,D11*%
X123007380Y-87685714D02*
X122007380Y-87685714D01*
X122007380Y-87923809D01*
X122055000Y-88066666D01*
X122150238Y-88161904D01*
X122245476Y-88209523D01*
X122435952Y-88257142D01*
X122578809Y-88257142D01*
X122769285Y-88209523D01*
X122864523Y-88161904D01*
X122959761Y-88066666D01*
X123007380Y-87923809D01*
X123007380Y-87685714D01*
X123007380Y-89209523D02*
X123007380Y-88638095D01*
X123007380Y-88923809D02*
X122007380Y-88923809D01*
X122150238Y-88828571D01*
X122245476Y-88733333D01*
X122293095Y-88638095D01*
X123007380Y-90161904D02*
X123007380Y-89590476D01*
X123007380Y-89876190D02*
X122007380Y-89876190D01*
X122150238Y-89780952D01*
X122245476Y-89685714D01*
X122293095Y-89590476D01*
%TO.C,R5*%
X165552380Y-69683333D02*
X165076190Y-69350000D01*
X165552380Y-69111904D02*
X164552380Y-69111904D01*
X164552380Y-69492857D01*
X164600000Y-69588095D01*
X164647619Y-69635714D01*
X164742857Y-69683333D01*
X164885714Y-69683333D01*
X164980952Y-69635714D01*
X165028571Y-69588095D01*
X165076190Y-69492857D01*
X165076190Y-69111904D01*
X164552380Y-70588095D02*
X164552380Y-70111904D01*
X165028571Y-70064285D01*
X164980952Y-70111904D01*
X164933333Y-70207142D01*
X164933333Y-70445238D01*
X164980952Y-70540476D01*
X165028571Y-70588095D01*
X165123809Y-70635714D01*
X165361904Y-70635714D01*
X165457142Y-70588095D01*
X165504761Y-70540476D01*
X165552380Y-70445238D01*
X165552380Y-70207142D01*
X165504761Y-70111904D01*
X165457142Y-70064285D01*
%TO.C,C1*%
X171807142Y-131598333D02*
X171854761Y-131550714D01*
X171902380Y-131407857D01*
X171902380Y-131312619D01*
X171854761Y-131169761D01*
X171759523Y-131074523D01*
X171664285Y-131026904D01*
X171473809Y-130979285D01*
X171330952Y-130979285D01*
X171140476Y-131026904D01*
X171045238Y-131074523D01*
X170950000Y-131169761D01*
X170902380Y-131312619D01*
X170902380Y-131407857D01*
X170950000Y-131550714D01*
X170997619Y-131598333D01*
X171902380Y-132550714D02*
X171902380Y-131979285D01*
X171902380Y-132265000D02*
X170902380Y-132265000D01*
X171045238Y-132169761D01*
X171140476Y-132074523D01*
X171188095Y-131979285D01*
%TO.C,C10*%
X135262857Y-127992142D02*
X135310476Y-128039761D01*
X135453333Y-128087380D01*
X135548571Y-128087380D01*
X135691428Y-128039761D01*
X135786666Y-127944523D01*
X135834285Y-127849285D01*
X135881904Y-127658809D01*
X135881904Y-127515952D01*
X135834285Y-127325476D01*
X135786666Y-127230238D01*
X135691428Y-127135000D01*
X135548571Y-127087380D01*
X135453333Y-127087380D01*
X135310476Y-127135000D01*
X135262857Y-127182619D01*
X134310476Y-128087380D02*
X134881904Y-128087380D01*
X134596190Y-128087380D02*
X134596190Y-127087380D01*
X134691428Y-127230238D01*
X134786666Y-127325476D01*
X134881904Y-127373095D01*
X133691428Y-127087380D02*
X133596190Y-127087380D01*
X133500952Y-127135000D01*
X133453333Y-127182619D01*
X133405714Y-127277857D01*
X133358095Y-127468333D01*
X133358095Y-127706428D01*
X133405714Y-127896904D01*
X133453333Y-127992142D01*
X133500952Y-128039761D01*
X133596190Y-128087380D01*
X133691428Y-128087380D01*
X133786666Y-128039761D01*
X133834285Y-127992142D01*
X133881904Y-127896904D01*
X133929523Y-127706428D01*
X133929523Y-127468333D01*
X133881904Y-127277857D01*
X133834285Y-127182619D01*
X133786666Y-127135000D01*
X133691428Y-127087380D01*
%TO.C,Y1*%
X163812590Y-132051190D02*
X163812590Y-132527380D01*
X164145923Y-131527380D02*
X163812590Y-132051190D01*
X163479257Y-131527380D01*
X162622114Y-132527380D02*
X163193542Y-132527380D01*
X162907828Y-132527380D02*
X162907828Y-131527380D01*
X163003066Y-131670238D01*
X163098304Y-131765476D01*
X163193542Y-131813095D01*
%TO.C,D23*%
X187269285Y-109672380D02*
X187269285Y-108672380D01*
X187031190Y-108672380D01*
X186888333Y-108720000D01*
X186793095Y-108815238D01*
X186745476Y-108910476D01*
X186697857Y-109100952D01*
X186697857Y-109243809D01*
X186745476Y-109434285D01*
X186793095Y-109529523D01*
X186888333Y-109624761D01*
X187031190Y-109672380D01*
X187269285Y-109672380D01*
X186316904Y-108767619D02*
X186269285Y-108720000D01*
X186174047Y-108672380D01*
X185935952Y-108672380D01*
X185840714Y-108720000D01*
X185793095Y-108767619D01*
X185745476Y-108862857D01*
X185745476Y-108958095D01*
X185793095Y-109100952D01*
X186364523Y-109672380D01*
X185745476Y-109672380D01*
X185412142Y-108672380D02*
X184793095Y-108672380D01*
X185126428Y-109053333D01*
X184983571Y-109053333D01*
X184888333Y-109100952D01*
X184840714Y-109148571D01*
X184793095Y-109243809D01*
X184793095Y-109481904D01*
X184840714Y-109577142D01*
X184888333Y-109624761D01*
X184983571Y-109672380D01*
X185269285Y-109672380D01*
X185364523Y-109624761D01*
X185412142Y-109577142D01*
%TO.C,D12*%
X145962380Y-87685714D02*
X144962380Y-87685714D01*
X144962380Y-87923809D01*
X145010000Y-88066666D01*
X145105238Y-88161904D01*
X145200476Y-88209523D01*
X145390952Y-88257142D01*
X145533809Y-88257142D01*
X145724285Y-88209523D01*
X145819523Y-88161904D01*
X145914761Y-88066666D01*
X145962380Y-87923809D01*
X145962380Y-87685714D01*
X145962380Y-89209523D02*
X145962380Y-88638095D01*
X145962380Y-88923809D02*
X144962380Y-88923809D01*
X145105238Y-88828571D01*
X145200476Y-88733333D01*
X145248095Y-88638095D01*
X145057619Y-89590476D02*
X145010000Y-89638095D01*
X144962380Y-89733333D01*
X144962380Y-89971428D01*
X145010000Y-90066666D01*
X145057619Y-90114285D01*
X145152857Y-90161904D01*
X145248095Y-90161904D01*
X145390952Y-90114285D01*
X145962380Y-89542857D01*
X145962380Y-90161904D01*
%TO.C,SW4*%
X147383333Y-116609761D02*
X147240476Y-116657380D01*
X147002380Y-116657380D01*
X146907142Y-116609761D01*
X146859523Y-116562142D01*
X146811904Y-116466904D01*
X146811904Y-116371666D01*
X146859523Y-116276428D01*
X146907142Y-116228809D01*
X147002380Y-116181190D01*
X147192857Y-116133571D01*
X147288095Y-116085952D01*
X147335714Y-116038333D01*
X147383333Y-115943095D01*
X147383333Y-115847857D01*
X147335714Y-115752619D01*
X147288095Y-115705000D01*
X147192857Y-115657380D01*
X146954761Y-115657380D01*
X146811904Y-115705000D01*
X146478571Y-115657380D02*
X146240476Y-116657380D01*
X146050000Y-115943095D01*
X145859523Y-116657380D01*
X145621428Y-115657380D01*
X144811904Y-115990714D02*
X144811904Y-116657380D01*
X145050000Y-115609761D02*
X145288095Y-116324047D01*
X144669047Y-116324047D01*
%TO.C,R3*%
X185586666Y-127452380D02*
X185920000Y-126976190D01*
X186158095Y-127452380D02*
X186158095Y-126452380D01*
X185777142Y-126452380D01*
X185681904Y-126500000D01*
X185634285Y-126547619D01*
X185586666Y-126642857D01*
X185586666Y-126785714D01*
X185634285Y-126880952D01*
X185681904Y-126928571D01*
X185777142Y-126976190D01*
X186158095Y-126976190D01*
X185253333Y-126452380D02*
X184634285Y-126452380D01*
X184967619Y-126833333D01*
X184824761Y-126833333D01*
X184729523Y-126880952D01*
X184681904Y-126928571D01*
X184634285Y-127023809D01*
X184634285Y-127261904D01*
X184681904Y-127357142D01*
X184729523Y-127404761D01*
X184824761Y-127452380D01*
X185110476Y-127452380D01*
X185205714Y-127404761D01*
X185253333Y-127357142D01*
%TO.C,U2*%
X158261904Y-64382380D02*
X158261904Y-65191904D01*
X158214285Y-65287142D01*
X158166666Y-65334761D01*
X158071428Y-65382380D01*
X157880952Y-65382380D01*
X157785714Y-65334761D01*
X157738095Y-65287142D01*
X157690476Y-65191904D01*
X157690476Y-64382380D01*
X157261904Y-64477619D02*
X157214285Y-64430000D01*
X157119047Y-64382380D01*
X156880952Y-64382380D01*
X156785714Y-64430000D01*
X156738095Y-64477619D01*
X156690476Y-64572857D01*
X156690476Y-64668095D01*
X156738095Y-64810952D01*
X157309523Y-65382380D01*
X156690476Y-65382380D01*
%TO.C,C16*%
X184792857Y-74017142D02*
X184840476Y-74064761D01*
X184983333Y-74112380D01*
X185078571Y-74112380D01*
X185221428Y-74064761D01*
X185316666Y-73969523D01*
X185364285Y-73874285D01*
X185411904Y-73683809D01*
X185411904Y-73540952D01*
X185364285Y-73350476D01*
X185316666Y-73255238D01*
X185221428Y-73160000D01*
X185078571Y-73112380D01*
X184983333Y-73112380D01*
X184840476Y-73160000D01*
X184792857Y-73207619D01*
X183840476Y-74112380D02*
X184411904Y-74112380D01*
X184126190Y-74112380D02*
X184126190Y-73112380D01*
X184221428Y-73255238D01*
X184316666Y-73350476D01*
X184411904Y-73398095D01*
X182983333Y-73112380D02*
X183173809Y-73112380D01*
X183269047Y-73160000D01*
X183316666Y-73207619D01*
X183411904Y-73350476D01*
X183459523Y-73540952D01*
X183459523Y-73921904D01*
X183411904Y-74017142D01*
X183364285Y-74064761D01*
X183269047Y-74112380D01*
X183078571Y-74112380D01*
X182983333Y-74064761D01*
X182935714Y-74017142D01*
X182888095Y-73921904D01*
X182888095Y-73683809D01*
X182935714Y-73588571D01*
X182983333Y-73540952D01*
X183078571Y-73493333D01*
X183269047Y-73493333D01*
X183364285Y-73540952D01*
X183411904Y-73588571D01*
X183459523Y-73683809D01*
%TO.C,C12*%
X174122142Y-97147142D02*
X174169761Y-97099523D01*
X174217380Y-96956666D01*
X174217380Y-96861428D01*
X174169761Y-96718571D01*
X174074523Y-96623333D01*
X173979285Y-96575714D01*
X173788809Y-96528095D01*
X173645952Y-96528095D01*
X173455476Y-96575714D01*
X173360238Y-96623333D01*
X173265000Y-96718571D01*
X173217380Y-96861428D01*
X173217380Y-96956666D01*
X173265000Y-97099523D01*
X173312619Y-97147142D01*
X174217380Y-98099523D02*
X174217380Y-97528095D01*
X174217380Y-97813809D02*
X173217380Y-97813809D01*
X173360238Y-97718571D01*
X173455476Y-97623333D01*
X173503095Y-97528095D01*
X173312619Y-98480476D02*
X173265000Y-98528095D01*
X173217380Y-98623333D01*
X173217380Y-98861428D01*
X173265000Y-98956666D01*
X173312619Y-99004285D01*
X173407857Y-99051904D01*
X173503095Y-99051904D01*
X173645952Y-99004285D01*
X174217380Y-98432857D01*
X174217380Y-99051904D01*
%TO.C,D32*%
X135110868Y-103365190D02*
X134110868Y-103365190D01*
X134110868Y-103603285D01*
X134158488Y-103746142D01*
X134253726Y-103841380D01*
X134348964Y-103888999D01*
X134539440Y-103936618D01*
X134682297Y-103936618D01*
X134872773Y-103888999D01*
X134968011Y-103841380D01*
X135063249Y-103746142D01*
X135110868Y-103603285D01*
X135110868Y-103365190D01*
X134110868Y-104269952D02*
X134110868Y-104888999D01*
X134491821Y-104555666D01*
X134491821Y-104698523D01*
X134539440Y-104793761D01*
X134587059Y-104841380D01*
X134682297Y-104888999D01*
X134920392Y-104888999D01*
X135015630Y-104841380D01*
X135063249Y-104793761D01*
X135110868Y-104698523D01*
X135110868Y-104412809D01*
X135063249Y-104317571D01*
X135015630Y-104269952D01*
X134206107Y-105269952D02*
X134158488Y-105317571D01*
X134110868Y-105412809D01*
X134110868Y-105650904D01*
X134158488Y-105746142D01*
X134206107Y-105793761D01*
X134301345Y-105841380D01*
X134396583Y-105841380D01*
X134539440Y-105793761D01*
X135110868Y-105222333D01*
X135110868Y-105841380D01*
%TO.C,C2*%
X169267142Y-131832083D02*
X169314761Y-131784464D01*
X169362380Y-131641607D01*
X169362380Y-131546369D01*
X169314761Y-131403511D01*
X169219523Y-131308273D01*
X169124285Y-131260654D01*
X168933809Y-131213035D01*
X168790952Y-131213035D01*
X168600476Y-131260654D01*
X168505238Y-131308273D01*
X168410000Y-131403511D01*
X168362380Y-131546369D01*
X168362380Y-131641607D01*
X168410000Y-131784464D01*
X168457619Y-131832083D01*
X168457619Y-132213035D02*
X168410000Y-132260654D01*
X168362380Y-132355892D01*
X168362380Y-132593988D01*
X168410000Y-132689226D01*
X168457619Y-132736845D01*
X168552857Y-132784464D01*
X168648095Y-132784464D01*
X168790952Y-132736845D01*
X169362380Y-132165416D01*
X169362380Y-132784464D01*
%TO.C,C3*%
X157837142Y-131832083D02*
X157884761Y-131784464D01*
X157932380Y-131641607D01*
X157932380Y-131546369D01*
X157884761Y-131403511D01*
X157789523Y-131308273D01*
X157694285Y-131260654D01*
X157503809Y-131213035D01*
X157360952Y-131213035D01*
X157170476Y-131260654D01*
X157075238Y-131308273D01*
X156980000Y-131403511D01*
X156932380Y-131546369D01*
X156932380Y-131641607D01*
X156980000Y-131784464D01*
X157027619Y-131832083D01*
X156932380Y-132165416D02*
X156932380Y-132784464D01*
X157313333Y-132451130D01*
X157313333Y-132593988D01*
X157360952Y-132689226D01*
X157408571Y-132736845D01*
X157503809Y-132784464D01*
X157741904Y-132784464D01*
X157837142Y-132736845D01*
X157884761Y-132689226D01*
X157932380Y-132593988D01*
X157932380Y-132308273D01*
X157884761Y-132213035D01*
X157837142Y-132165416D01*
%TO.C,D21*%
X140914285Y-109672380D02*
X140914285Y-108672380D01*
X140676190Y-108672380D01*
X140533333Y-108720000D01*
X140438095Y-108815238D01*
X140390476Y-108910476D01*
X140342857Y-109100952D01*
X140342857Y-109243809D01*
X140390476Y-109434285D01*
X140438095Y-109529523D01*
X140533333Y-109624761D01*
X140676190Y-109672380D01*
X140914285Y-109672380D01*
X139961904Y-108767619D02*
X139914285Y-108720000D01*
X139819047Y-108672380D01*
X139580952Y-108672380D01*
X139485714Y-108720000D01*
X139438095Y-108767619D01*
X139390476Y-108862857D01*
X139390476Y-108958095D01*
X139438095Y-109100952D01*
X140009523Y-109672380D01*
X139390476Y-109672380D01*
X138438095Y-109672380D02*
X139009523Y-109672380D01*
X138723809Y-109672380D02*
X138723809Y-108672380D01*
X138819047Y-108815238D01*
X138914285Y-108910476D01*
X139009523Y-108958095D01*
D11*
%TO.C,MX6*%
X183310000Y-97080000D02*
X183610000Y-97080000D01*
X183610000Y-97080000D02*
X183610000Y-96780000D01*
%TO.C,MX5*%
X164560000Y-97080000D02*
X164560000Y-96780000D01*
X164260000Y-97080000D02*
X164560000Y-97080000D01*
%TO.C,MX4*%
X145210000Y-97080000D02*
X145510000Y-97080000D01*
X145510000Y-97080000D02*
X145510000Y-96780000D01*
%TO.C,MX3*%
X174085000Y-77395000D02*
X174085000Y-77095000D01*
X173785000Y-77395000D02*
X174085000Y-77395000D01*
%TO.C,MX1*%
X135685000Y-77395000D02*
X135985000Y-77395000D01*
X135985000Y-77395000D02*
X135985000Y-77095000D01*
%TO.C,MX2*%
X154735000Y-77395000D02*
X155035000Y-77395000D01*
X155035000Y-77395000D02*
X155035000Y-77095000D01*
%TO.C,D5*%
X179865000Y-117900000D02*
X187165000Y-117900000D01*
X187165000Y-117900000D02*
X187165000Y-119050000D01*
X179865000Y-123400000D02*
X187165000Y-123400000D01*
D10*
%TO.C,U1*%
X157886400Y-113570000D02*
X158561400Y-113570000D01*
X168236400Y-113570000D02*
X167561400Y-113570000D01*
X168236400Y-123920000D02*
X167561400Y-123920000D01*
X157886400Y-123920000D02*
X157886400Y-123245000D01*
X168236400Y-113570000D02*
X168236400Y-114145000D01*
X168236400Y-123920000D02*
X168236400Y-123245000D01*
X157886400Y-113570000D02*
X157886400Y-114245000D01*
X168236400Y-114145000D02*
X169511400Y-114145000D01*
X157886400Y-123920000D02*
X158561400Y-123920000D01*
D11*
%TO.C,C7*%
X179605000Y-113291252D02*
X179605000Y-112768748D01*
X181075000Y-113291252D02*
X181075000Y-112768748D01*
%TO.C,C14*%
X183888748Y-79475000D02*
X184411252Y-79475000D01*
X183888748Y-78005000D02*
X184411252Y-78005000D01*
%TO.C,R4*%
X149125000Y-67537064D02*
X149125000Y-67082936D01*
X150595000Y-67537064D02*
X150595000Y-67082936D01*
%TO.C,C17*%
X187225000Y-75938748D02*
X187225000Y-76461252D01*
X188695000Y-75938748D02*
X188695000Y-76461252D01*
%TO.C,R7*%
X129489564Y-124995000D02*
X129035436Y-124995000D01*
X129489564Y-126465000D02*
X129035436Y-126465000D01*
%TO.C,D33*%
X133079900Y-115597500D02*
X131079900Y-115597500D01*
X131079900Y-115597500D02*
X131079900Y-111697500D01*
X133079900Y-115597500D02*
X133079900Y-111697500D01*
%TO.C,D14*%
X138270000Y-70695000D02*
X130970000Y-70695000D01*
X138270000Y-65195000D02*
X130970000Y-65195000D01*
X130970000Y-70695000D02*
X130970000Y-69545000D01*
%TO.C,R1*%
X154712936Y-69750000D02*
X155167064Y-69750000D01*
X154712936Y-71220000D02*
X155167064Y-71220000D01*
%TO.C,D13*%
X161560000Y-91150000D02*
X161560000Y-87250000D01*
X163560000Y-91150000D02*
X163560000Y-87250000D01*
X163560000Y-91150000D02*
X161560000Y-91150000D01*
%TO.C,R2*%
X159889564Y-69750000D02*
X159435436Y-69750000D01*
X159889564Y-71220000D02*
X159435436Y-71220000D01*
%TO.C,C9*%
X142775000Y-76461252D02*
X142775000Y-75938748D01*
X144245000Y-76461252D02*
X144245000Y-75938748D01*
%TO.C,C15*%
X191870000Y-98051252D02*
X191870000Y-97528748D01*
X190400000Y-98051252D02*
X190400000Y-97528748D01*
%TO.C,C5*%
X184250000Y-113291252D02*
X184250000Y-112768748D01*
X182780000Y-113291252D02*
X182780000Y-112768748D01*
%TO.C,D9*%
X183990000Y-70695000D02*
X176690000Y-70695000D01*
X176690000Y-70695000D02*
X176690000Y-69545000D01*
X183990000Y-65195000D02*
X176690000Y-65195000D01*
%TO.C,C6*%
X173455000Y-114038748D02*
X173455000Y-114561252D01*
X171985000Y-114038748D02*
X171985000Y-114561252D01*
%TO.C,C4*%
X154205000Y-128643748D02*
X154205000Y-129166252D01*
X155675000Y-128643748D02*
X155675000Y-129166252D01*
%TO.C,D31*%
X133079900Y-98928700D02*
X133079900Y-95028700D01*
X133079900Y-98928700D02*
X131079900Y-98928700D01*
X131079900Y-98928700D02*
X131079900Y-95028700D01*
%TO.C,R6*%
X155675000Y-113892064D02*
X155675000Y-113437936D01*
X154205000Y-113892064D02*
X154205000Y-113437936D01*
%TO.C,C8*%
X153770000Y-98051252D02*
X153770000Y-97528748D01*
X152300000Y-98051252D02*
X152300000Y-97528748D01*
%TO.C,D2*%
X128430000Y-118535000D02*
X135730000Y-118535000D01*
X128430000Y-124035000D02*
X135730000Y-124035000D01*
X135730000Y-118535000D02*
X135730000Y-119685000D01*
%TO.C,C11*%
X181236252Y-124360000D02*
X180713748Y-124360000D01*
X181236252Y-125830000D02*
X180713748Y-125830000D01*
%TO.C,D22*%
X165445000Y-108220000D02*
X165445000Y-110220000D01*
X165445000Y-110220000D02*
X161545000Y-110220000D01*
X165445000Y-108220000D02*
X161545000Y-108220000D01*
%TO.C,C13*%
X163295000Y-76461252D02*
X163295000Y-75938748D01*
X161825000Y-76461252D02*
X161825000Y-75938748D01*
%TO.C,D11*%
X123460000Y-91150000D02*
X123460000Y-87250000D01*
X125460000Y-91150000D02*
X123460000Y-91150000D01*
X125460000Y-91150000D02*
X125460000Y-87250000D01*
%TO.C,R5*%
X164365000Y-67537064D02*
X164365000Y-67082936D01*
X165835000Y-67537064D02*
X165835000Y-67082936D01*
%TO.C,C1*%
X170715000Y-129166252D02*
X170715000Y-128643748D01*
X172185000Y-129166252D02*
X172185000Y-128643748D01*
%TO.C,C10*%
X134566252Y-126465000D02*
X134043748Y-126465000D01*
X134566252Y-124995000D02*
X134043748Y-124995000D01*
%TO.C,Y1*%
X160498900Y-131275000D02*
X160498900Y-126775000D01*
X160498900Y-126775000D02*
X165898900Y-126775000D01*
%TO.C,D23*%
X184495000Y-108220000D02*
X180595000Y-108220000D01*
X184495000Y-110220000D02*
X180595000Y-110220000D01*
X184495000Y-108220000D02*
X184495000Y-110220000D01*
%TO.C,D12*%
X144510000Y-91150000D02*
X142510000Y-91150000D01*
X144510000Y-91150000D02*
X144510000Y-87250000D01*
X142510000Y-91150000D02*
X142510000Y-87250000D01*
D10*
%TO.C,SW4*%
X148650000Y-117415000D02*
X143450000Y-117415000D01*
X143450000Y-122615000D02*
X148650000Y-122615000D01*
X143450000Y-117415000D02*
X143450000Y-122615000D01*
X148650000Y-122615000D02*
X148650000Y-117415000D01*
X147050000Y-120015000D02*
G75*
G03*
X147050000Y-120015000I-1000000J0D01*
G01*
D11*
%TO.C,R3*%
X185647064Y-124360000D02*
X185192936Y-124360000D01*
X185647064Y-125830000D02*
X185192936Y-125830000D01*
%TO.C,U2*%
X156830000Y-65750000D02*
X159830000Y-65750000D01*
X158130000Y-68870000D02*
X156830000Y-68870000D01*
%TO.C,C16*%
X183888748Y-76300000D02*
X184411252Y-76300000D01*
X183888748Y-74830000D02*
X184411252Y-74830000D01*
%TO.C,C12*%
X171350000Y-98051252D02*
X171350000Y-97528748D01*
X172820000Y-98051252D02*
X172820000Y-97528748D01*
%TO.C,D32*%
X131079900Y-106866200D02*
X131079900Y-102966200D01*
X133079900Y-106866200D02*
X131079900Y-106866200D01*
X133079900Y-106866200D02*
X133079900Y-102966200D01*
%TO.C,C2*%
X168175000Y-128643748D02*
X168175000Y-129166252D01*
X169645000Y-128643748D02*
X169645000Y-129166252D01*
%TO.C,C3*%
X158215000Y-129166252D02*
X158215000Y-128643748D01*
X156745000Y-129166252D02*
X156745000Y-128643748D01*
%TO.C,D21*%
X145760000Y-110220000D02*
X141860000Y-110220000D01*
X145760000Y-108220000D02*
X145760000Y-110220000D01*
X145760000Y-108220000D02*
X141860000Y-108220000D01*
%TD*%
M02*
