M48
; DRILL file {KiCad (6.0.5)} date Sat Jun 18 08:01:01 2022
; FORMAT={-:-/ absolute / inch / decimal}
; #@! TF.CreationDate,2022-06-18T08:01:01+07:00
; #@! TF.GenerationSoftware,Kicad,Pcbnew,(6.0.5)
; #@! TF.FileFunction,Plated,1,2,PTH
FMAT,2
INCH
; #@! TA.AperFunction,Plated,PTH,ViaDrill
T1C0.0118
; #@! TA.AperFunction,Plated,PTH,ViaDrill
T2C0.0157
; #@! TA.AperFunction,Plated,PTH,ComponentDrill
T3C0.0236
; #@! TA.AperFunction,Plated,PTH,ComponentDrill
T4C0.0433
%
G90
G05
T1
X4.9816Y-3.6174
X5.1564Y-4.5467
X5.6538Y-3.6174
X5.95Y-4.575
X5.9774Y-4.667
X5.9885Y-4.1811
X6.05Y-4.775
X6.08Y-4.6548
X6.1311Y-2.7355
X6.2514Y-3.8517
X6.2539Y-2.5992
X6.2785Y-4.5329
X6.3026Y-4.6695
X6.3167Y-3.3493
X6.3253Y-4.5769
X6.3276Y-4.5197
X6.4031Y-4.7665
X6.5457Y-4.9488
X6.5993Y-3.8517
X6.6506Y-4.1193
X6.775Y-4.45
X6.8Y-4.525
X7.0882Y-4.6951
X7.2609Y-4.9488
X7.3196Y-4.1668
T2
X6.238Y-3.7258
X6.7093Y-3.6779
X6.7158Y-2.7151
T4
X4.822Y-3.7177
X4.822Y-3.8948
X4.822Y-4.4052
X4.822Y-4.5823
X4.822Y-4.0614
X4.822Y-4.2386
X5.0779Y-3.7177
X5.0779Y-3.8948
X5.0779Y-4.4052
X5.0779Y-4.5823
X5.078Y-4.0614
X5.078Y-4.2386
T3
G00X6.0299Y-2.4587
M15
G01X6.0299Y-2.435
M16
G05
G00X6.0299Y-2.6331
M15
G01X6.0299Y-2.5898
M16
G05
G00X6.3701Y-2.4587
M15
G01X6.3701Y-2.435
M16
G05
G00X6.3701Y-2.6331
M15
G01X6.3701Y-2.5898
M16
G05
T0
M30
