%TF.GenerationSoftware,KiCad,Pcbnew,(6.0.5)*%
%TF.CreationDate,2022-06-03T03:18:00+07:00*%
%TF.ProjectId,atelier-alter,6174656c-6965-4722-9d61-6c7465722e6b,rev?*%
%TF.SameCoordinates,Original*%
%TF.FileFunction,Soldermask,Top*%
%TF.FilePolarity,Negative*%
%FSLAX46Y46*%
G04 Gerber Fmt 4.6, Leading zero omitted, Abs format (unit mm)*
G04 Created by KiCad (PCBNEW (6.0.5)) date 2022-06-03 03:18:00*
%MOMM*%
%LPD*%
G01*
G04 APERTURE LIST*
%ADD10C,1.700000*%
%ADD11C,4.000000*%
%ADD12C,3.000000*%
%ADD13C,2.000000*%
%ADD14C,5.300000*%
%ADD15C,0.650000*%
%ADD16R,0.600000X2.450000*%
%ADD17R,0.300000X2.450000*%
%ADD18O,1.000000X1.600000*%
G04 APERTURE END LIST*
D10*
%TO.C,MX6*%
X176530000Y-100330000D03*
X186690000Y-100330000D03*
D11*
X181610000Y-100330000D03*
D12*
X179070000Y-105410000D03*
X185420000Y-102870000D03*
%TD*%
D13*
%TO.C,SW2*%
X122480000Y-103160000D03*
X128980000Y-103160000D03*
X122480000Y-107660000D03*
X128980000Y-107660000D03*
%TD*%
D10*
%TO.C,MX5*%
X157480000Y-100330000D03*
D12*
X160020000Y-105410000D03*
D11*
X162560000Y-100330000D03*
D10*
X167640000Y-100330000D03*
D12*
X166370000Y-102870000D03*
%TD*%
D10*
%TO.C,MX4*%
X138430000Y-100330000D03*
D12*
X147320000Y-102870000D03*
D10*
X148590000Y-100330000D03*
D11*
X143510000Y-100330000D03*
D12*
X140970000Y-105410000D03*
%TD*%
D13*
%TO.C,SW3*%
X122479900Y-111891200D03*
X128979900Y-111891200D03*
X122479900Y-116391200D03*
X128979900Y-116391200D03*
%TD*%
D14*
%TO.C,H4*%
X121920000Y-129540000D03*
%TD*%
%TO.C,H2*%
X193040000Y-66040000D03*
%TD*%
D13*
%TO.C,SW1*%
X122479900Y-94428700D03*
X128979900Y-94428700D03*
X122479900Y-98928700D03*
X128979900Y-98928700D03*
%TD*%
D14*
%TO.C,H1*%
X121920000Y-66040000D03*
%TD*%
D10*
%TO.C,MX3*%
X167005000Y-80645000D03*
D12*
X169545000Y-85725000D03*
X175895000Y-83185000D03*
D10*
X177165000Y-80645000D03*
D11*
X172085000Y-80645000D03*
%TD*%
D10*
%TO.C,MX1*%
X139065000Y-80645000D03*
X128905000Y-80645000D03*
D12*
X137795000Y-83185000D03*
X131445000Y-85725000D03*
D11*
X133985000Y-80645000D03*
%TD*%
D15*
%TO.C,USB1*%
X160395100Y-59431300D03*
X154615100Y-59431300D03*
D16*
X160730100Y-61376300D03*
X159955100Y-61376300D03*
D17*
X159255100Y-61376300D03*
X158755100Y-61376300D03*
X158255100Y-61376300D03*
X157755100Y-61376300D03*
X157255100Y-61376300D03*
X156755100Y-61376300D03*
X156255100Y-61376300D03*
X155755100Y-61376300D03*
D16*
X155055100Y-61376300D03*
X154280100Y-61376300D03*
D18*
X153185100Y-55781300D03*
%TD*%
D14*
%TO.C,H3*%
X193040000Y-129540000D03*
%TD*%
D10*
%TO.C,MX2*%
X158115000Y-80645000D03*
D12*
X156845000Y-83185000D03*
D10*
X147955000Y-80645000D03*
D11*
X153035000Y-80645000D03*
D12*
X150495000Y-85725000D03*
%TD*%
M02*
