M48
; DRILL file {KiCad (6.0.5)} date Sun Jun  5 05:50:59 2022
; FORMAT={-:-/ absolute / inch / decimal}
; #@! TF.CreationDate,2022-06-05T05:50:59+07:00
; #@! TF.GenerationSoftware,Kicad,Pcbnew,(6.0.5)
; #@! TF.FileFunction,NonPlated,1,2,NPTH
FMAT,2
INCH
; #@! TA.AperFunction,NonPlated,NPTH,ComponentDrill
T1C0.0256
; #@! TA.AperFunction,NonPlated,NPTH,ComponentDrill
T2C0.0669
; #@! TA.AperFunction,NonPlated,NPTH,ComponentDrill
T3C0.1181
; #@! TA.AperFunction,NonPlated,NPTH,ComponentDrill
T4C0.1575
; #@! TA.AperFunction,NonPlated,NPTH,ComponentDrill
T5C0.2087
%
G90
G05
T1
X6.0862Y-2.5906
X6.3138Y-2.5906
T2
X5.075Y-3.175
X5.45Y-3.95
X5.475Y-3.175
X5.825Y-3.175
X5.85Y-3.95
X6.2Y-3.95
X6.225Y-3.175
X6.575Y-3.175
X6.6Y-3.95
X6.95Y-3.95
X6.975Y-3.175
X7.35Y-3.95
T3
X5.175Y-3.375
X5.425Y-3.275
X5.55Y-4.15
X5.8Y-4.05
X5.925Y-3.375
X6.175Y-3.275
X6.3Y-4.15
X6.55Y-4.05
X6.675Y-3.375
X6.925Y-3.275
X7.05Y-4.15
X7.3Y-4.05
T4
X5.275Y-3.175
X5.65Y-3.95
X6.025Y-3.175
X6.4Y-3.95
X6.775Y-3.175
X7.15Y-3.95
T5
X4.8Y-2.6
X4.8Y-5.1
X7.6Y-2.6
X7.6Y-5.1
T0
M30
