%TF.GenerationSoftware,KiCad,Pcbnew,(6.0.5)*%
%TF.CreationDate,2022-05-30T19:57:47+07:00*%
%TF.ProjectId,atelier-alter,6174656c-6965-4722-9d61-6c7465722e6b,rev?*%
%TF.SameCoordinates,Original*%
%TF.FileFunction,Copper,L1,Top*%
%TF.FilePolarity,Positive*%
%FSLAX46Y46*%
G04 Gerber Fmt 4.6, Leading zero omitted, Abs format (unit mm)*
G04 Created by KiCad (PCBNEW (6.0.5)) date 2022-05-30 19:57:47*
%MOMM*%
%LPD*%
G01*
G04 APERTURE LIST*
%TA.AperFunction,ComponentPad*%
%ADD10C,2.000000*%
%TD*%
%TA.AperFunction,SMDPad,CuDef*%
%ADD11R,0.600000X2.450000*%
%TD*%
%TA.AperFunction,SMDPad,CuDef*%
%ADD12R,0.300000X2.450000*%
%TD*%
%TA.AperFunction,ComponentPad*%
%ADD13O,1.000000X2.100000*%
%TD*%
%TA.AperFunction,ComponentPad*%
%ADD14O,1.000000X1.600000*%
%TD*%
%TA.AperFunction,ViaPad*%
%ADD15C,0.800000*%
%TD*%
%TA.AperFunction,ViaPad*%
%ADD16C,0.600000*%
%TD*%
%TA.AperFunction,Conductor*%
%ADD17C,0.300000*%
%TD*%
%TA.AperFunction,Conductor*%
%ADD18C,0.150000*%
%TD*%
G04 APERTURE END LIST*
D10*
%TO.P,SW2,1,1*%
%TO.N,Net-(D32-Pad2)*%
X122505200Y-96968800D03*
X129005200Y-96968800D03*
%TO.P,SW2,2,2*%
%TO.N,COL2*%
X122505200Y-101468800D03*
X129005200Y-101468800D03*
%TD*%
%TO.P,SW3,1,1*%
%TO.N,Net-(D33-Pad2)*%
X122505100Y-105700000D03*
X129005100Y-105700000D03*
%TO.P,SW3,2,2*%
%TO.N,COL3*%
X122505100Y-110200000D03*
X129005100Y-110200000D03*
%TD*%
%TO.P,SW1,1,1*%
%TO.N,Net-(D31-Pad2)*%
X122505100Y-88237500D03*
X129005100Y-88237500D03*
%TO.P,SW1,2,2*%
%TO.N,COL1*%
X122505100Y-92737500D03*
X129005100Y-92737500D03*
%TD*%
D11*
%TO.P,USB1,1,GND*%
%TO.N,GND*%
X160730100Y-61376300D03*
%TO.P,USB1,2,VBUS*%
%TO.N,+5V*%
X159955100Y-61376300D03*
D12*
%TO.P,USB1,3,SBU2*%
%TO.N,unconnected-(USB1-Pad3)*%
X159255100Y-61376300D03*
%TO.P,USB1,4,CC1*%
%TO.N,Net-(R4-Pad2)*%
X158755100Y-61376300D03*
%TO.P,USB1,5,DN2*%
%TO.N,D-*%
X158255100Y-61376300D03*
%TO.P,USB1,6,DP1*%
%TO.N,D+*%
X157755100Y-61376300D03*
%TO.P,USB1,7,DN1*%
%TO.N,D-*%
X157255100Y-61376300D03*
%TO.P,USB1,8,DP2*%
%TO.N,D+*%
X156755100Y-61376300D03*
%TO.P,USB1,9,SBU1*%
%TO.N,unconnected-(USB1-Pad9)*%
X156255100Y-61376300D03*
%TO.P,USB1,10,CC2*%
%TO.N,Net-(R5-Pad2)*%
X155755100Y-61376300D03*
D11*
%TO.P,USB1,11,VBUS*%
%TO.N,+5V*%
X155055100Y-61376300D03*
%TO.P,USB1,12,GND*%
%TO.N,GND*%
X154280100Y-61376300D03*
D13*
%TO.P,USB1,13,SHIELD*%
X161825100Y-59961300D03*
D14*
X153185100Y-55781300D03*
D13*
X153185100Y-59961300D03*
D14*
X161825100Y-55781300D03*
%TD*%
D15*
%TO.N,+5V*%
X176824100Y-106968800D03*
X159301800Y-87271800D03*
X183275900Y-77052500D03*
X171450000Y-88672600D03*
X157873600Y-64172600D03*
D16*
%TO.N,Net-(C2-Pad2)*%
X165510700Y-123733400D03*
X163061400Y-122226000D03*
%TO.N,ROW1*%
X160167700Y-117811100D03*
X164694700Y-101203500D03*
%TO.N,COL1*%
X161461400Y-115328900D03*
X155931000Y-110443700D03*
%TO.N,COL2*%
X164342000Y-102551600D03*
X160773600Y-113456600D03*
%TO.N,COL3*%
X159861400Y-119404100D03*
X188193300Y-100555800D03*
X179683300Y-79938200D03*
%TO.N,D-*%
X183510000Y-76041500D03*
%TO.N,D+*%
X175782400Y-82088000D03*
%TO.N,Net-(R3-Pad1)*%
X166370500Y-118811700D03*
X148570400Y-112207900D03*
%TO.N,D11*%
X185125000Y-116147600D03*
X138283700Y-70540600D03*
%TO.N,D21*%
X146880900Y-88331800D03*
X120741800Y-71902400D03*
%TO.N,Net-(R4-Pad2)*%
X158755100Y-63208600D03*
%TO.N,Net-(R5-Pad2)*%
X125045800Y-76281400D03*
%TO.N,Net-(MX1-Pad3)*%
X129980800Y-70914000D03*
X155635000Y-67954200D03*
%TO.N,Net-(MX2-Pad3)*%
X157834700Y-71618500D03*
X168095700Y-68863600D03*
%TO.N,Net-(MX5-Pad3)*%
X183172500Y-87776100D03*
X163837500Y-91759400D03*
%TO.N,Net-(D14-Pad2)*%
X178441800Y-71741400D03*
X159168900Y-72824300D03*
%TD*%
D17*
%TO.N,+5V*%
X171559000Y-87271700D02*
X176432700Y-82398000D01*
X159226900Y-59434100D02*
X155750800Y-59434100D01*
X160858900Y-92214100D02*
X162848200Y-92214100D01*
X155055100Y-60129800D02*
X155055100Y-61376300D01*
X155750800Y-59434100D02*
X155055100Y-60129800D01*
X176824100Y-102713600D02*
X176824100Y-106968800D01*
X159955100Y-62951600D02*
X171340800Y-62951600D01*
X162848200Y-92214100D02*
X163744200Y-93110100D01*
X184204600Y-76345600D02*
X183497700Y-77052500D01*
X171450000Y-87271800D02*
X171450000Y-87271700D01*
X159955100Y-60162300D02*
X159226900Y-59434100D01*
X163744200Y-93110100D02*
X167220600Y-93110100D01*
X171450000Y-87271800D02*
X171450000Y-88672600D01*
X183497700Y-77052500D02*
X183275900Y-77052500D01*
X184204600Y-75815400D02*
X184204600Y-76345600D01*
X171450000Y-87271800D02*
X159854300Y-87271800D01*
X159854300Y-87271800D02*
X159301800Y-87271800D01*
X171340800Y-62951600D02*
X184204600Y-75815400D01*
X176432700Y-82398000D02*
X176432700Y-82211400D01*
X159854300Y-91209500D02*
X160858900Y-92214100D01*
X171450000Y-87271700D02*
X171559000Y-87271700D01*
X167220600Y-93110100D02*
X176824100Y-102713600D01*
X159854300Y-87271800D02*
X159854300Y-91209500D01*
X159955100Y-61376300D02*
X159955100Y-60162300D01*
X159955100Y-62951600D02*
X158734100Y-64172600D01*
X158734100Y-64172600D02*
X157873600Y-64172600D01*
X181591600Y-77052500D02*
X183275900Y-77052500D01*
X176432700Y-82211400D02*
X181591600Y-77052500D01*
X159955100Y-61376300D02*
X159955100Y-62951600D01*
%TO.N,GND*%
X160744800Y-61361600D02*
X160730100Y-61376300D01*
X153185100Y-59961300D02*
X153185100Y-61361600D01*
X161825100Y-56931600D02*
X161825100Y-59961300D01*
X161825100Y-55781300D02*
X161825100Y-56931600D01*
X153185100Y-61361600D02*
X154265400Y-61361600D01*
X161825100Y-61361600D02*
X160744800Y-61361600D01*
X154265400Y-61361600D02*
X154280100Y-61376300D01*
X161825100Y-59961300D02*
X161825100Y-61361600D01*
X153185100Y-56931600D02*
X153185100Y-59961300D01*
X153185100Y-56356400D02*
X153185100Y-56931600D01*
X153185100Y-56931600D02*
X161825100Y-56931600D01*
X153185100Y-55781300D02*
X153185100Y-56356400D01*
D18*
%TO.N,Net-(C2-Pad2)*%
X163061400Y-122226100D02*
X163061400Y-122226000D01*
X165510700Y-123733400D02*
X164003400Y-122226100D01*
X164003400Y-122226100D02*
X163061400Y-122226100D01*
%TO.N,ROW1*%
X164917300Y-113061500D02*
X164917300Y-101426100D01*
X160167700Y-117811100D02*
X164917300Y-113061500D01*
X164917300Y-101426100D02*
X164694700Y-101203500D01*
%TO.N,COL1*%
X160816200Y-115328900D02*
X155931000Y-110443700D01*
X129005100Y-92737500D02*
X122505100Y-92737500D01*
X161461400Y-115328900D02*
X160816200Y-115328900D01*
%TO.N,COL2*%
X159120000Y-107773600D02*
X164342000Y-102551600D01*
X159120000Y-107773600D02*
X135310000Y-107773600D01*
X135310000Y-107773600D02*
X129005200Y-101468800D01*
X129005200Y-101468800D02*
X122505200Y-101468800D01*
X160773600Y-113456600D02*
X160773600Y-109427200D01*
X160773600Y-109427200D02*
X159120000Y-107773600D01*
%TO.N,COL3*%
X141446000Y-110200000D02*
X150650100Y-119404100D01*
X129005100Y-110200000D02*
X141446000Y-110200000D01*
X150650100Y-119404100D02*
X159861400Y-119404100D01*
X188193300Y-88448200D02*
X188193300Y-100555800D01*
X188193300Y-100555800D02*
X188193300Y-113905600D01*
X129005100Y-110200000D02*
X122505100Y-110200000D01*
X188193300Y-113905600D02*
X182694800Y-119404100D01*
X179683300Y-79938200D02*
X188193300Y-88448200D01*
X182694800Y-119404100D02*
X159861400Y-119404100D01*
%TO.N,D-*%
X157180300Y-64458600D02*
X157180300Y-62951400D01*
X157255100Y-61376300D02*
X157255100Y-62789000D01*
X173749100Y-66177000D02*
X158898700Y-66177000D01*
X157180300Y-62951400D02*
X157255100Y-62876600D01*
X158255100Y-61376300D02*
X158255100Y-62876600D01*
X183510000Y-75937900D02*
X173749100Y-66177000D01*
X157255100Y-62876600D02*
X158255100Y-62876600D01*
X157255100Y-62789000D02*
X157255100Y-62876600D01*
X158898700Y-66177000D02*
X157180300Y-64458600D01*
X183510000Y-76041500D02*
X183510000Y-75937900D01*
%TO.N,D+*%
X171615500Y-77921100D02*
X163305200Y-77921100D01*
X156755100Y-71371000D02*
X156755100Y-61376300D01*
X157755100Y-61376300D02*
X157755100Y-59876000D01*
X163305200Y-77921100D02*
X156755100Y-71371000D01*
X156755100Y-61376300D02*
X156755100Y-59876000D01*
X156755100Y-59876000D02*
X157755100Y-59876000D01*
X175782400Y-82088000D02*
X171615500Y-77921100D01*
%TO.N,Net-(R3-Pad1)*%
X155174100Y-118811600D02*
X166370500Y-118811600D01*
X148570400Y-112207900D02*
X155174100Y-118811600D01*
X166370500Y-118811600D02*
X166370500Y-118811700D01*
%TO.N,D11*%
X163706300Y-99621300D02*
X168521600Y-99621300D01*
X144522200Y-76779100D02*
X144522200Y-80437200D01*
X168521600Y-99621300D02*
X185047900Y-116147600D01*
X138283700Y-70540600D02*
X144522200Y-76779100D01*
X185047900Y-116147600D02*
X185125000Y-116147600D01*
X144522200Y-80437200D02*
X163706300Y-99621300D01*
%TO.N,D21*%
X120741900Y-71902400D02*
X120741800Y-71902400D01*
X135710300Y-87789700D02*
X120741900Y-72821300D01*
X120741900Y-72821300D02*
X120741900Y-71902400D01*
X146880900Y-88331800D02*
X146338800Y-87789700D01*
X146338800Y-87789700D02*
X135710300Y-87789700D01*
%TO.N,Net-(R4-Pad2)*%
X158755100Y-63208600D02*
X158755100Y-61376300D01*
%TO.N,Net-(R5-Pad2)*%
X125045800Y-75017100D02*
X137186300Y-62876600D01*
X137186300Y-62876600D02*
X155755100Y-62876600D01*
X155755100Y-61376300D02*
X155755100Y-62876600D01*
X125045800Y-76281400D02*
X125045800Y-75017100D01*
%TO.N,Net-(MX1-Pad3)*%
X129980800Y-70914000D02*
X132940600Y-67954200D01*
X132940600Y-67954200D02*
X155635000Y-67954200D01*
%TO.N,Net-(MX2-Pad3)*%
X165340800Y-71618500D02*
X168095700Y-68863600D01*
X157834700Y-71618500D02*
X165340800Y-71618500D01*
%TO.N,Net-(MX5-Pad3)*%
X163837500Y-91759400D02*
X170905300Y-91759400D01*
X170905300Y-91759400D02*
X174888600Y-87776100D01*
X174888600Y-87776100D02*
X183172500Y-87776100D01*
%TO.N,Net-(D31-Pad2)*%
X129005100Y-88237500D02*
X122505100Y-88237500D01*
%TO.N,Net-(D32-Pad2)*%
X129005200Y-96968800D02*
X122505200Y-96968800D01*
%TO.N,Net-(D33-Pad2)*%
X129005100Y-105700000D02*
X122505100Y-105700000D01*
%TO.N,Net-(D14-Pad2)*%
X178441800Y-71741400D02*
X177358900Y-72824300D01*
X177358900Y-72824300D02*
X159168900Y-72824300D01*
%TD*%
%TA.AperFunction,Conductor*%
%TO.N,GND*%
G36*
X161037375Y-54631002D02*
G01*
X161083868Y-54684658D01*
X161093972Y-54754932D01*
X161065776Y-54817991D01*
X160993322Y-54904339D01*
X160986392Y-54914459D01*
X160897098Y-55076885D01*
X160892266Y-55088158D01*
X160836220Y-55264838D01*
X160833670Y-55276832D01*
X160817493Y-55421061D01*
X160817100Y-55428085D01*
X160817100Y-55509185D01*
X160821575Y-55524424D01*
X160822965Y-55525629D01*
X160830648Y-55527300D01*
X161953100Y-55527300D01*
X162021221Y-55547302D01*
X162067714Y-55600958D01*
X162079100Y-55653300D01*
X162079100Y-57039224D01*
X162083073Y-57052755D01*
X162090868Y-57053875D01*
X162198621Y-57022162D01*
X162209985Y-57017571D01*
X162374624Y-56931499D01*
X162444260Y-56917665D01*
X162510321Y-56943675D01*
X162551833Y-57001271D01*
X162559000Y-57043161D01*
X162559000Y-58450790D01*
X162538998Y-58518911D01*
X162485342Y-58565404D01*
X162415068Y-58575508D01*
X162373071Y-58561626D01*
X162223024Y-58480496D01*
X162211719Y-58475744D01*
X162096408Y-58440050D01*
X162082305Y-58439844D01*
X162079100Y-58446599D01*
X162079100Y-61469224D01*
X162083073Y-61482755D01*
X162090868Y-61483875D01*
X162198621Y-61452162D01*
X162209989Y-61447569D01*
X162374254Y-61361693D01*
X162384515Y-61354979D01*
X162528973Y-61238832D01*
X162537732Y-61230254D01*
X162656878Y-61088261D01*
X162663808Y-61078141D01*
X162753102Y-60915715D01*
X162757933Y-60904445D01*
X162814928Y-60724773D01*
X162854591Y-60665889D01*
X162919793Y-60637797D01*
X162989833Y-60649414D01*
X163015814Y-60666177D01*
X163092753Y-60730456D01*
X163266853Y-60834092D01*
X163455169Y-60908845D01*
X163554058Y-60930836D01*
X163648054Y-60951740D01*
X163648058Y-60951741D01*
X163652948Y-60952828D01*
X163855197Y-60964930D01*
X163855139Y-60961982D01*
X163863798Y-60961000D01*
X196845046Y-60961000D01*
X196854931Y-60961388D01*
X196963455Y-60969929D01*
X196964245Y-60969995D01*
X197044063Y-60976978D01*
X197062491Y-60979978D01*
X197155489Y-61002305D01*
X197162769Y-61004053D01*
X197165965Y-61004865D01*
X197248985Y-61027110D01*
X197264592Y-61032408D01*
X197358780Y-61071422D01*
X197363789Y-61073626D01*
X197442686Y-61110417D01*
X197455253Y-61117169D01*
X197541795Y-61170202D01*
X197548206Y-61174405D01*
X197578986Y-61195958D01*
X197619819Y-61224550D01*
X197629377Y-61231950D01*
X197706408Y-61297740D01*
X197713673Y-61304457D01*
X197775543Y-61366327D01*
X197782260Y-61373592D01*
X197848050Y-61450623D01*
X197855450Y-61460181D01*
X197905588Y-61531784D01*
X197909798Y-61538205D01*
X197962828Y-61624742D01*
X197969583Y-61637314D01*
X198006374Y-61716211D01*
X198008578Y-61721220D01*
X198047592Y-61815408D01*
X198052890Y-61831015D01*
X198075135Y-61914035D01*
X198075947Y-61917231D01*
X198100021Y-62017505D01*
X198103022Y-62035937D01*
X198110005Y-62115755D01*
X198110071Y-62116545D01*
X198118612Y-62225069D01*
X198119000Y-62234954D01*
X198119000Y-133345100D01*
X198118611Y-133354991D01*
X198110081Y-133463315D01*
X198109990Y-133464411D01*
X198103014Y-133544108D01*
X198100012Y-133562538D01*
X198086213Y-133620009D01*
X198075929Y-133662841D01*
X198075135Y-133665965D01*
X198052873Y-133749036D01*
X198047581Y-133764623D01*
X198008577Y-133858780D01*
X198008568Y-133858802D01*
X198006364Y-133863812D01*
X197969570Y-133942712D01*
X197962821Y-133955273D01*
X197917003Y-134030037D01*
X197909776Y-134041829D01*
X197905563Y-134048254D01*
X197872584Y-134095351D01*
X197855441Y-134119832D01*
X197848040Y-134129390D01*
X197782238Y-134206432D01*
X197775521Y-134213698D01*
X197713657Y-134275559D01*
X197706392Y-134282274D01*
X197629357Y-134348065D01*
X197619799Y-134355466D01*
X197548215Y-134405589D01*
X197541778Y-134409809D01*
X197455244Y-134462835D01*
X197442659Y-134469597D01*
X197363781Y-134506377D01*
X197358751Y-134508590D01*
X197317017Y-134525877D01*
X197264576Y-134547598D01*
X197248981Y-134552891D01*
X197225223Y-134559257D01*
X197165962Y-134575135D01*
X197162767Y-134575947D01*
X197115713Y-134587244D01*
X197062486Y-134600022D01*
X197044061Y-134603022D01*
X196964341Y-134609997D01*
X196963340Y-134610080D01*
X196854931Y-134618612D01*
X196845045Y-134619000D01*
X118114954Y-134619000D01*
X118105069Y-134618612D01*
X117996545Y-134610071D01*
X117995755Y-134610005D01*
X117915937Y-134603022D01*
X117897509Y-134600022D01*
X117797233Y-134575947D01*
X117794035Y-134575135D01*
X117711015Y-134552890D01*
X117695408Y-134547592D01*
X117601220Y-134508578D01*
X117596211Y-134506374D01*
X117517314Y-134469583D01*
X117504747Y-134462831D01*
X117418205Y-134409798D01*
X117411786Y-134405589D01*
X117376044Y-134380562D01*
X117340181Y-134355450D01*
X117330623Y-134348050D01*
X117253592Y-134282260D01*
X117246327Y-134275543D01*
X117184457Y-134213673D01*
X117177740Y-134206408D01*
X117111950Y-134129377D01*
X117104550Y-134119819D01*
X117079438Y-134083956D01*
X117054405Y-134048206D01*
X117050202Y-134041795D01*
X116997169Y-133955253D01*
X116990417Y-133942686D01*
X116953626Y-133863789D01*
X116951422Y-133858780D01*
X116912408Y-133764592D01*
X116907110Y-133748985D01*
X116884865Y-133665965D01*
X116884053Y-133662769D01*
X116882305Y-133655489D01*
X116859978Y-133562491D01*
X116856978Y-133544062D01*
X116849995Y-133464245D01*
X116849929Y-133463455D01*
X116841388Y-133354931D01*
X116841000Y-133345046D01*
X116841000Y-129540000D01*
X120564341Y-129540000D01*
X120584937Y-129775408D01*
X120646097Y-130003663D01*
X120745965Y-130217829D01*
X120881505Y-130411401D01*
X121048599Y-130578495D01*
X121242171Y-130714035D01*
X121247149Y-130716356D01*
X121247152Y-130716358D01*
X121451355Y-130811580D01*
X121456337Y-130813903D01*
X121461645Y-130815325D01*
X121461647Y-130815326D01*
X121679277Y-130873639D01*
X121684592Y-130875063D01*
X121787682Y-130884082D01*
X121858310Y-130890262D01*
X121858317Y-130890262D01*
X121861034Y-130890500D01*
X121978966Y-130890500D01*
X121981683Y-130890262D01*
X121981690Y-130890262D01*
X122052318Y-130884082D01*
X122155408Y-130875063D01*
X122160723Y-130873639D01*
X122378353Y-130815326D01*
X122378355Y-130815325D01*
X122383663Y-130813903D01*
X122388645Y-130811580D01*
X122592848Y-130716358D01*
X122592851Y-130716356D01*
X122597829Y-130714035D01*
X122791401Y-130578495D01*
X122958495Y-130411401D01*
X122961655Y-130406889D01*
X123090878Y-130222339D01*
X123090881Y-130222334D01*
X123094035Y-130217830D01*
X123096358Y-130212848D01*
X123096361Y-130212843D01*
X123191580Y-130008645D01*
X123191581Y-130008644D01*
X123193903Y-130003663D01*
X123255063Y-129775408D01*
X123275659Y-129540000D01*
X191684341Y-129540000D01*
X191704937Y-129775408D01*
X191766097Y-130003663D01*
X191865965Y-130217829D01*
X192001505Y-130411401D01*
X192168599Y-130578495D01*
X192362171Y-130714035D01*
X192367149Y-130716356D01*
X192367152Y-130716358D01*
X192571355Y-130811580D01*
X192576337Y-130813903D01*
X192581645Y-130815325D01*
X192581647Y-130815326D01*
X192799277Y-130873639D01*
X192804592Y-130875063D01*
X192907682Y-130884082D01*
X192978310Y-130890262D01*
X192978317Y-130890262D01*
X192981034Y-130890500D01*
X193098966Y-130890500D01*
X193101683Y-130890262D01*
X193101690Y-130890262D01*
X193172318Y-130884082D01*
X193275408Y-130875063D01*
X193280723Y-130873639D01*
X193498353Y-130815326D01*
X193498355Y-130815325D01*
X193503663Y-130813903D01*
X193508645Y-130811580D01*
X193712848Y-130716358D01*
X193712851Y-130716356D01*
X193717829Y-130714035D01*
X193911401Y-130578495D01*
X194078495Y-130411401D01*
X194081655Y-130406889D01*
X194210878Y-130222339D01*
X194210881Y-130222334D01*
X194214035Y-130217830D01*
X194216358Y-130212848D01*
X194216361Y-130212843D01*
X194311580Y-130008645D01*
X194311581Y-130008644D01*
X194313903Y-130003663D01*
X194375063Y-129775408D01*
X194395659Y-129540000D01*
X194375063Y-129304592D01*
X194313903Y-129076337D01*
X194214035Y-128862171D01*
X194078495Y-128668599D01*
X193911401Y-128501505D01*
X193717829Y-128365965D01*
X193712851Y-128363644D01*
X193712848Y-128363642D01*
X193508645Y-128268420D01*
X193508643Y-128268419D01*
X193503663Y-128266097D01*
X193498355Y-128264675D01*
X193498353Y-128264674D01*
X193280723Y-128206361D01*
X193280722Y-128206361D01*
X193275408Y-128204937D01*
X193172318Y-128195918D01*
X193101690Y-128189738D01*
X193101683Y-128189738D01*
X193098966Y-128189500D01*
X192981034Y-128189500D01*
X192978317Y-128189738D01*
X192978310Y-128189738D01*
X192907682Y-128195918D01*
X192804592Y-128204937D01*
X192799278Y-128206361D01*
X192799277Y-128206361D01*
X192581647Y-128264674D01*
X192581645Y-128264675D01*
X192576337Y-128266097D01*
X192571357Y-128268419D01*
X192571355Y-128268420D01*
X192367152Y-128363642D01*
X192367149Y-128363644D01*
X192362171Y-128365965D01*
X192168599Y-128501505D01*
X192001505Y-128668599D01*
X191998348Y-128673107D01*
X191998346Y-128673110D01*
X191869122Y-128857661D01*
X191865965Y-128862170D01*
X191863642Y-128867152D01*
X191863639Y-128867157D01*
X191768420Y-129071355D01*
X191766097Y-129076337D01*
X191704937Y-129304592D01*
X191684341Y-129540000D01*
X123275659Y-129540000D01*
X123255063Y-129304592D01*
X123193903Y-129076337D01*
X123094035Y-128862171D01*
X122958495Y-128668599D01*
X122791401Y-128501505D01*
X122597829Y-128365965D01*
X122592851Y-128363644D01*
X122592848Y-128363642D01*
X122388645Y-128268420D01*
X122388643Y-128268419D01*
X122383663Y-128266097D01*
X122378355Y-128264675D01*
X122378353Y-128264674D01*
X122160723Y-128206361D01*
X122160722Y-128206361D01*
X122155408Y-128204937D01*
X122052318Y-128195918D01*
X121981690Y-128189738D01*
X121981683Y-128189738D01*
X121978966Y-128189500D01*
X121861034Y-128189500D01*
X121858317Y-128189738D01*
X121858310Y-128189738D01*
X121787682Y-128195918D01*
X121684592Y-128204937D01*
X121679278Y-128206361D01*
X121679277Y-128206361D01*
X121461647Y-128264674D01*
X121461645Y-128264675D01*
X121456337Y-128266097D01*
X121451357Y-128268419D01*
X121451355Y-128268420D01*
X121247152Y-128363642D01*
X121247149Y-128363644D01*
X121242171Y-128365965D01*
X121048599Y-128501505D01*
X120881505Y-128668599D01*
X120878348Y-128673107D01*
X120878346Y-128673110D01*
X120749122Y-128857661D01*
X120745965Y-128862170D01*
X120743642Y-128867152D01*
X120743639Y-128867157D01*
X120648420Y-129071355D01*
X120646097Y-129076337D01*
X120584937Y-129304592D01*
X120564341Y-129540000D01*
X116841000Y-129540000D01*
X116841000Y-122219823D01*
X162555791Y-122219823D01*
X162574380Y-122361979D01*
X162632120Y-122493203D01*
X162724370Y-122602948D01*
X162843713Y-122682390D01*
X162980557Y-122725142D01*
X162989529Y-122725306D01*
X162989532Y-122725307D01*
X163054863Y-122726504D01*
X163123899Y-122727770D01*
X163132933Y-122725307D01*
X163253558Y-122692421D01*
X163253560Y-122692420D01*
X163262217Y-122690060D01*
X163384391Y-122615045D01*
X163390412Y-122608393D01*
X163390418Y-122608388D01*
X163449563Y-122543045D01*
X163510106Y-122505964D01*
X163542978Y-122501600D01*
X163837094Y-122501600D01*
X163905215Y-122521602D01*
X163926189Y-122538505D01*
X164974636Y-123586952D01*
X165008662Y-123649264D01*
X165010041Y-123695432D01*
X165005091Y-123727223D01*
X165006255Y-123736125D01*
X165006255Y-123736128D01*
X165007514Y-123745754D01*
X165023680Y-123869379D01*
X165081420Y-124000603D01*
X165087197Y-124007476D01*
X165087198Y-124007477D01*
X165094492Y-124016154D01*
X165173670Y-124110348D01*
X165293013Y-124189790D01*
X165429857Y-124232542D01*
X165438829Y-124232706D01*
X165438832Y-124232707D01*
X165504163Y-124233904D01*
X165573199Y-124235170D01*
X165582233Y-124232707D01*
X165702858Y-124199821D01*
X165702860Y-124199820D01*
X165711517Y-124197460D01*
X165833691Y-124122445D01*
X165929900Y-124016154D01*
X165992410Y-123887133D01*
X166016196Y-123745754D01*
X166016347Y-123733400D01*
X166004298Y-123649264D01*
X165997296Y-123600368D01*
X165997295Y-123600365D01*
X165996023Y-123591482D01*
X165936684Y-123460972D01*
X165918298Y-123439634D01*
X165848960Y-123359163D01*
X165848957Y-123359160D01*
X165843100Y-123352363D01*
X165722795Y-123274385D01*
X165585439Y-123233307D01*
X165576463Y-123233252D01*
X165576462Y-123233252D01*
X165450822Y-123232484D01*
X165382825Y-123212066D01*
X165362497Y-123195581D01*
X164226172Y-122059256D01*
X164210502Y-122040164D01*
X164208915Y-122037789D01*
X164202024Y-122027476D01*
X164179023Y-122012107D01*
X164180612Y-122009730D01*
X164180610Y-122009729D01*
X164179022Y-122012106D01*
X164152868Y-121994631D01*
X164152866Y-121994628D01*
X164152865Y-121994629D01*
X164121211Y-121973478D01*
X164110895Y-121966585D01*
X164098726Y-121964164D01*
X164098725Y-121964164D01*
X164030533Y-121950600D01*
X164015572Y-121947624D01*
X164015571Y-121947624D01*
X164003400Y-121945203D01*
X163991229Y-121947624D01*
X163988439Y-121948179D01*
X163963857Y-121950600D01*
X163542577Y-121950600D01*
X163474456Y-121930598D01*
X163447124Y-121906848D01*
X163399660Y-121851763D01*
X163399657Y-121851760D01*
X163393800Y-121844963D01*
X163273495Y-121766985D01*
X163136139Y-121725907D01*
X163127163Y-121725852D01*
X163127162Y-121725852D01*
X163066955Y-121725484D01*
X162992776Y-121725031D01*
X162854929Y-121764428D01*
X162733680Y-121840930D01*
X162638777Y-121948388D01*
X162577847Y-122078163D01*
X162555791Y-122219823D01*
X116841000Y-122219823D01*
X116841000Y-105668440D01*
X121299870Y-105668440D01*
X121314300Y-105888604D01*
X121315721Y-105894200D01*
X121315722Y-105894205D01*
X121355076Y-106049158D01*
X121368611Y-106102452D01*
X121371028Y-106107694D01*
X121371028Y-106107695D01*
X121409146Y-106190379D01*
X121460983Y-106302821D01*
X121588322Y-106483002D01*
X121746364Y-106636961D01*
X121751160Y-106640166D01*
X121751163Y-106640168D01*
X121835361Y-106696427D01*
X121929817Y-106759540D01*
X121935120Y-106761818D01*
X121935123Y-106761820D01*
X122034252Y-106804409D01*
X122132536Y-106846635D01*
X122212188Y-106864658D01*
X122342095Y-106894054D01*
X122342101Y-106894055D01*
X122347732Y-106895329D01*
X122353503Y-106895556D01*
X122353505Y-106895556D01*
X122421311Y-106898220D01*
X122568198Y-106903991D01*
X122677375Y-106888161D01*
X122780838Y-106873160D01*
X122780843Y-106873159D01*
X122786552Y-106872331D01*
X122792016Y-106870476D01*
X122792021Y-106870475D01*
X122990007Y-106803268D01*
X122990012Y-106803266D01*
X122995479Y-106801410D01*
X123187984Y-106693602D01*
X123357618Y-106552518D01*
X123412085Y-106487029D01*
X123495008Y-106387326D01*
X123495010Y-106387323D01*
X123498702Y-106382884D01*
X123606510Y-106190379D01*
X123650429Y-106060998D01*
X123691265Y-106002923D01*
X123757017Y-105976144D01*
X123769741Y-105975500D01*
X127738369Y-105975500D01*
X127806490Y-105995502D01*
X127852983Y-106049158D01*
X127860492Y-106070484D01*
X127868611Y-106102452D01*
X127871028Y-106107694D01*
X127871028Y-106107695D01*
X127909146Y-106190379D01*
X127960983Y-106302821D01*
X128088322Y-106483002D01*
X128246364Y-106636961D01*
X128251160Y-106640166D01*
X128251163Y-106640168D01*
X128335361Y-106696427D01*
X128429817Y-106759540D01*
X128435120Y-106761818D01*
X128435123Y-106761820D01*
X128534252Y-106804409D01*
X128632536Y-106846635D01*
X128712188Y-106864658D01*
X128842095Y-106894054D01*
X128842101Y-106894055D01*
X128847732Y-106895329D01*
X128853503Y-106895556D01*
X128853505Y-106895556D01*
X128921311Y-106898220D01*
X129068198Y-106903991D01*
X129177375Y-106888161D01*
X129280838Y-106873160D01*
X129280843Y-106873159D01*
X129286552Y-106872331D01*
X129292016Y-106870476D01*
X129292021Y-106870475D01*
X129490007Y-106803268D01*
X129490012Y-106803266D01*
X129495479Y-106801410D01*
X129687984Y-106693602D01*
X129857618Y-106552518D01*
X129912085Y-106487029D01*
X129995008Y-106387326D01*
X129995010Y-106387323D01*
X129998702Y-106382884D01*
X130106510Y-106190379D01*
X130108366Y-106184912D01*
X130108368Y-106184907D01*
X130175575Y-105986921D01*
X130175576Y-105986916D01*
X130177431Y-105981452D01*
X130178259Y-105975743D01*
X130178260Y-105975738D01*
X130208558Y-105766772D01*
X130209091Y-105763098D01*
X130210743Y-105700000D01*
X130190554Y-105480289D01*
X130130665Y-105267936D01*
X130033080Y-105070053D01*
X129901067Y-104893267D01*
X129739049Y-104743499D01*
X129552450Y-104625764D01*
X129347521Y-104544006D01*
X129341861Y-104542880D01*
X129341857Y-104542879D01*
X129136791Y-104502089D01*
X129136788Y-104502089D01*
X129131124Y-104500962D01*
X129125349Y-104500886D01*
X129125345Y-104500886D01*
X129014604Y-104499437D01*
X128910506Y-104498074D01*
X128904809Y-104499053D01*
X128904808Y-104499053D01*
X128698754Y-104534459D01*
X128698753Y-104534459D01*
X128693057Y-104535438D01*
X128486057Y-104611804D01*
X128296441Y-104724614D01*
X128130557Y-104870090D01*
X127993963Y-105043360D01*
X127891231Y-105238620D01*
X127889518Y-105244138D01*
X127861036Y-105335864D01*
X127821733Y-105394989D01*
X127756703Y-105423480D01*
X127740703Y-105424500D01*
X123770199Y-105424500D01*
X123702078Y-105404498D01*
X123655585Y-105350842D01*
X123648934Y-105332713D01*
X123630665Y-105267936D01*
X123533080Y-105070053D01*
X123401067Y-104893267D01*
X123239049Y-104743499D01*
X123052450Y-104625764D01*
X122847521Y-104544006D01*
X122841861Y-104542880D01*
X122841857Y-104542879D01*
X122636791Y-104502089D01*
X122636788Y-104502089D01*
X122631124Y-104500962D01*
X122625349Y-104500886D01*
X122625345Y-104500886D01*
X122514604Y-104499437D01*
X122410506Y-104498074D01*
X122404809Y-104499053D01*
X122404808Y-104499053D01*
X122198754Y-104534459D01*
X122198753Y-104534459D01*
X122193057Y-104535438D01*
X121986057Y-104611804D01*
X121796441Y-104724614D01*
X121630557Y-104870090D01*
X121493963Y-105043360D01*
X121391231Y-105238620D01*
X121325803Y-105449333D01*
X121299870Y-105668440D01*
X116841000Y-105668440D01*
X116841000Y-99802165D01*
X138582866Y-99802165D01*
X138617952Y-100059970D01*
X138690758Y-100309757D01*
X138799686Y-100546039D01*
X138802246Y-100549944D01*
X138802249Y-100549949D01*
X138939775Y-100759712D01*
X138939779Y-100759717D01*
X138942341Y-100763625D01*
X138994856Y-100822463D01*
X139104075Y-100944832D01*
X139115591Y-100957735D01*
X139315629Y-101124105D01*
X139538061Y-101259080D01*
X139542375Y-101260889D01*
X139542377Y-101260890D01*
X139773686Y-101357886D01*
X139773691Y-101357888D01*
X139778001Y-101359695D01*
X139782533Y-101360846D01*
X139782536Y-101360847D01*
X139907815Y-101392663D01*
X140030177Y-101423739D01*
X140246286Y-101445500D01*
X140401044Y-101445500D01*
X140403369Y-101445327D01*
X140403375Y-101445327D01*
X140589814Y-101431472D01*
X140589818Y-101431471D01*
X140594466Y-101431126D01*
X140848232Y-101373705D01*
X140852586Y-101372012D01*
X141086370Y-101281098D01*
X141086372Y-101281097D01*
X141090723Y-101279405D01*
X141126285Y-101259080D01*
X141223529Y-101203500D01*
X141316612Y-101150299D01*
X141520936Y-100989223D01*
X141699208Y-100799714D01*
X141847511Y-100585937D01*
X141865419Y-100549623D01*
X141960521Y-100356775D01*
X141960522Y-100356772D01*
X141962586Y-100352587D01*
X141982126Y-100291546D01*
X142040483Y-100109237D01*
X142041906Y-100104792D01*
X142075779Y-99896801D01*
X142082977Y-99852606D01*
X142082977Y-99852605D01*
X142083728Y-99847994D01*
X142084328Y-99802165D01*
X157632866Y-99802165D01*
X157667952Y-100059970D01*
X157740758Y-100309757D01*
X157849686Y-100546039D01*
X157852246Y-100549944D01*
X157852249Y-100549949D01*
X157989775Y-100759712D01*
X157989779Y-100759717D01*
X157992341Y-100763625D01*
X158044856Y-100822463D01*
X158154075Y-100944832D01*
X158165591Y-100957735D01*
X158365629Y-101124105D01*
X158588061Y-101259080D01*
X158592375Y-101260889D01*
X158592377Y-101260890D01*
X158823686Y-101357886D01*
X158823691Y-101357888D01*
X158828001Y-101359695D01*
X158832533Y-101360846D01*
X158832536Y-101360847D01*
X158957815Y-101392663D01*
X159080177Y-101423739D01*
X159296286Y-101445500D01*
X159451044Y-101445500D01*
X159453369Y-101445327D01*
X159453375Y-101445327D01*
X159639814Y-101431472D01*
X159639818Y-101431471D01*
X159644466Y-101431126D01*
X159898232Y-101373705D01*
X159902586Y-101372012D01*
X160136370Y-101281098D01*
X160136372Y-101281097D01*
X160140723Y-101279405D01*
X160176285Y-101259080D01*
X160273529Y-101203500D01*
X160366612Y-101150299D01*
X160570936Y-100989223D01*
X160749208Y-100799714D01*
X160897511Y-100585937D01*
X160915419Y-100549623D01*
X161010521Y-100356775D01*
X161010522Y-100356772D01*
X161012586Y-100352587D01*
X161032126Y-100291546D01*
X161090483Y-100109237D01*
X161091906Y-100104792D01*
X161125779Y-99896801D01*
X161132977Y-99852606D01*
X161132977Y-99852605D01*
X161133728Y-99847994D01*
X161137134Y-99587835D01*
X161102048Y-99330030D01*
X161029242Y-99080243D01*
X160920314Y-98843961D01*
X160891637Y-98800221D01*
X160780225Y-98630288D01*
X160780221Y-98630283D01*
X160777659Y-98626375D01*
X160604409Y-98432265D01*
X160404371Y-98265895D01*
X160181939Y-98130920D01*
X160148052Y-98116710D01*
X159946314Y-98032114D01*
X159946309Y-98032112D01*
X159941999Y-98030305D01*
X159937467Y-98029154D01*
X159937464Y-98029153D01*
X159812185Y-97997337D01*
X159689823Y-97966261D01*
X159473714Y-97944500D01*
X159318956Y-97944500D01*
X159316631Y-97944673D01*
X159316625Y-97944673D01*
X159130186Y-97958528D01*
X159130182Y-97958529D01*
X159125534Y-97958874D01*
X158871768Y-98016295D01*
X158867416Y-98017987D01*
X158867414Y-98017988D01*
X158633630Y-98108902D01*
X158633628Y-98108903D01*
X158629277Y-98110595D01*
X158625223Y-98112912D01*
X158625221Y-98112913D01*
X158545962Y-98158214D01*
X158403388Y-98239701D01*
X158199064Y-98400777D01*
X158020792Y-98590286D01*
X157872489Y-98804063D01*
X157870423Y-98808253D01*
X157870421Y-98808256D01*
X157850720Y-98848207D01*
X157757414Y-99037413D01*
X157678094Y-99285208D01*
X157636272Y-99542006D01*
X157636211Y-99546683D01*
X157632935Y-99796922D01*
X157632866Y-99802165D01*
X142084328Y-99802165D01*
X142087134Y-99587835D01*
X142052048Y-99330030D01*
X141979242Y-99080243D01*
X141870314Y-98843961D01*
X141841637Y-98800221D01*
X141730225Y-98630288D01*
X141730221Y-98630283D01*
X141727659Y-98626375D01*
X141554409Y-98432265D01*
X141354371Y-98265895D01*
X141131939Y-98130920D01*
X141098052Y-98116710D01*
X140896314Y-98032114D01*
X140896309Y-98032112D01*
X140891999Y-98030305D01*
X140887467Y-98029154D01*
X140887464Y-98029153D01*
X140762185Y-97997337D01*
X140639823Y-97966261D01*
X140423714Y-97944500D01*
X140268956Y-97944500D01*
X140266631Y-97944673D01*
X140266625Y-97944673D01*
X140080186Y-97958528D01*
X140080182Y-97958529D01*
X140075534Y-97958874D01*
X139821768Y-98016295D01*
X139817416Y-98017987D01*
X139817414Y-98017988D01*
X139583630Y-98108902D01*
X139583628Y-98108903D01*
X139579277Y-98110595D01*
X139575223Y-98112912D01*
X139575221Y-98112913D01*
X139495962Y-98158214D01*
X139353388Y-98239701D01*
X139149064Y-98400777D01*
X138970792Y-98590286D01*
X138822489Y-98804063D01*
X138820423Y-98808253D01*
X138820421Y-98808256D01*
X138800720Y-98848207D01*
X138707414Y-99037413D01*
X138628094Y-99285208D01*
X138586272Y-99542006D01*
X138586211Y-99546683D01*
X138582935Y-99796922D01*
X138582866Y-99802165D01*
X116841000Y-99802165D01*
X116841000Y-96937240D01*
X121299970Y-96937240D01*
X121314400Y-97157404D01*
X121315821Y-97163000D01*
X121315822Y-97163005D01*
X121352645Y-97307994D01*
X121368711Y-97371252D01*
X121371128Y-97376494D01*
X121371128Y-97376495D01*
X121409246Y-97459179D01*
X121461083Y-97571621D01*
X121588422Y-97751802D01*
X121746464Y-97905761D01*
X121751260Y-97908966D01*
X121751263Y-97908968D01*
X121890186Y-98001793D01*
X121929917Y-98028340D01*
X121935220Y-98030618D01*
X121935223Y-98030620D01*
X122126766Y-98112913D01*
X122132636Y-98115435D01*
X122193071Y-98129110D01*
X122342195Y-98162854D01*
X122342201Y-98162855D01*
X122347832Y-98164129D01*
X122353603Y-98164356D01*
X122353605Y-98164356D01*
X122421411Y-98167020D01*
X122568298Y-98172791D01*
X122677475Y-98156961D01*
X122780938Y-98141960D01*
X122780943Y-98141959D01*
X122786652Y-98141131D01*
X122792116Y-98139276D01*
X122792121Y-98139275D01*
X122990107Y-98072068D01*
X122990112Y-98072066D01*
X122995579Y-98070210D01*
X123066835Y-98030305D01*
X123103183Y-98009949D01*
X123188084Y-97962402D01*
X123357718Y-97821318D01*
X123498802Y-97651684D01*
X123606610Y-97459179D01*
X123650529Y-97329798D01*
X123691365Y-97271723D01*
X123757117Y-97244944D01*
X123769841Y-97244300D01*
X127738469Y-97244300D01*
X127806590Y-97264302D01*
X127853083Y-97317958D01*
X127860592Y-97339284D01*
X127868711Y-97371252D01*
X127871128Y-97376494D01*
X127871128Y-97376495D01*
X127909246Y-97459179D01*
X127961083Y-97571621D01*
X128088422Y-97751802D01*
X128246464Y-97905761D01*
X128251260Y-97908966D01*
X128251263Y-97908968D01*
X128390186Y-98001793D01*
X128429917Y-98028340D01*
X128435220Y-98030618D01*
X128435223Y-98030620D01*
X128626766Y-98112913D01*
X128632636Y-98115435D01*
X128693071Y-98129110D01*
X128842195Y-98162854D01*
X128842201Y-98162855D01*
X128847832Y-98164129D01*
X128853603Y-98164356D01*
X128853605Y-98164356D01*
X128921411Y-98167020D01*
X129068298Y-98172791D01*
X129177475Y-98156961D01*
X129280938Y-98141960D01*
X129280943Y-98141959D01*
X129286652Y-98141131D01*
X129292116Y-98139276D01*
X129292121Y-98139275D01*
X129490107Y-98072068D01*
X129490112Y-98072066D01*
X129495579Y-98070210D01*
X129566835Y-98030305D01*
X129603183Y-98009949D01*
X129688084Y-97962402D01*
X129857718Y-97821318D01*
X129998802Y-97651684D01*
X130106610Y-97459179D01*
X130108466Y-97453712D01*
X130108468Y-97453707D01*
X130173488Y-97262165D01*
X144932866Y-97262165D01*
X144967952Y-97519970D01*
X145040758Y-97769757D01*
X145149686Y-98006039D01*
X145152246Y-98009944D01*
X145152249Y-98009949D01*
X145289775Y-98219712D01*
X145289779Y-98219717D01*
X145292341Y-98223625D01*
X145465591Y-98417735D01*
X145665629Y-98584105D01*
X145888061Y-98719080D01*
X145892375Y-98720889D01*
X145892377Y-98720890D01*
X146123686Y-98817886D01*
X146123691Y-98817888D01*
X146128001Y-98819695D01*
X146132533Y-98820846D01*
X146132536Y-98820847D01*
X146223549Y-98843961D01*
X146380177Y-98883739D01*
X146596286Y-98905500D01*
X146751044Y-98905500D01*
X146753369Y-98905327D01*
X146753375Y-98905327D01*
X146939814Y-98891472D01*
X146939818Y-98891471D01*
X146944466Y-98891126D01*
X147198232Y-98833705D01*
X147202586Y-98832012D01*
X147436370Y-98741098D01*
X147436372Y-98741097D01*
X147440723Y-98739405D01*
X147476285Y-98719080D01*
X147631638Y-98630288D01*
X147666612Y-98610299D01*
X147870936Y-98449223D01*
X148049208Y-98259714D01*
X148197511Y-98045937D01*
X148204328Y-98032114D01*
X148310521Y-97816775D01*
X148310522Y-97816772D01*
X148312586Y-97812587D01*
X148330755Y-97755829D01*
X148364092Y-97651684D01*
X148391906Y-97564792D01*
X148433728Y-97307994D01*
X148437134Y-97047835D01*
X148402048Y-96790030D01*
X148329242Y-96540243D01*
X148220314Y-96303961D01*
X148194156Y-96264063D01*
X148080225Y-96090288D01*
X148080221Y-96090283D01*
X148077659Y-96086375D01*
X147932844Y-95924123D01*
X147902406Y-95859983D01*
X147911477Y-95789569D01*
X147957178Y-95735236D01*
X148014880Y-95714793D01*
X148049007Y-95711537D01*
X148164046Y-95700561D01*
X148169802Y-95698872D01*
X148169804Y-95698872D01*
X148335303Y-95650320D01*
X148365549Y-95641447D01*
X148503116Y-95570595D01*
X148546908Y-95548041D01*
X148546911Y-95548039D01*
X148552239Y-95545295D01*
X148627947Y-95485826D01*
X148712662Y-95419282D01*
X148712667Y-95419278D01*
X148717379Y-95415576D01*
X148726840Y-95404673D01*
X148851079Y-95261502D01*
X148851083Y-95261497D01*
X148855010Y-95256971D01*
X148960166Y-95075201D01*
X149029053Y-94876826D01*
X149045235Y-94765223D01*
X149058325Y-94674944D01*
X149058325Y-94674941D01*
X149059186Y-94669004D01*
X149049477Y-94459233D01*
X149000276Y-94255082D01*
X148957258Y-94160467D01*
X148915840Y-94069374D01*
X148913360Y-94063919D01*
X148804646Y-93910660D01*
X148795329Y-93897526D01*
X148795328Y-93897525D01*
X148791863Y-93892640D01*
X148679087Y-93784681D01*
X148644499Y-93751570D01*
X148640169Y-93747425D01*
X148569080Y-93701523D01*
X148468791Y-93636767D01*
X148468788Y-93636766D01*
X148463754Y-93633515D01*
X148422120Y-93616736D01*
X148274545Y-93557261D01*
X148274542Y-93557260D01*
X148268981Y-93555019D01*
X148263100Y-93553871D01*
X148263095Y-93553869D01*
X148067324Y-93515638D01*
X148067321Y-93515638D01*
X148062878Y-93514770D01*
X148057357Y-93514500D01*
X147902531Y-93514500D01*
X147745954Y-93529439D01*
X147740198Y-93531128D01*
X147740196Y-93531128D01*
X147729527Y-93534258D01*
X147544451Y-93588553D01*
X147489731Y-93616736D01*
X147363092Y-93681959D01*
X147363089Y-93681961D01*
X147357761Y-93684705D01*
X147341358Y-93697590D01*
X147197338Y-93810718D01*
X147197333Y-93810722D01*
X147192621Y-93814424D01*
X147188690Y-93818954D01*
X147188689Y-93818955D01*
X147058921Y-93968498D01*
X147058917Y-93968503D01*
X147054990Y-93973029D01*
X146949834Y-94154799D01*
X146880947Y-94353174D01*
X146880086Y-94359109D01*
X146880086Y-94359111D01*
X146861704Y-94485893D01*
X146850814Y-94560996D01*
X146860523Y-94770767D01*
X146861927Y-94776592D01*
X146861927Y-94776593D01*
X146886084Y-94876826D01*
X146909724Y-94974918D01*
X146912206Y-94980376D01*
X146912207Y-94980380D01*
X146955320Y-95075201D01*
X146996640Y-95166081D01*
X147000107Y-95170968D01*
X147035585Y-95220983D01*
X147058683Y-95288117D01*
X147041819Y-95357082D01*
X146990347Y-95405981D01*
X146920192Y-95419249D01*
X146776855Y-95404816D01*
X146776849Y-95404816D01*
X146773714Y-95404500D01*
X146618956Y-95404500D01*
X146616631Y-95404673D01*
X146616625Y-95404673D01*
X146430186Y-95418528D01*
X146430182Y-95418529D01*
X146425534Y-95418874D01*
X146171768Y-95476295D01*
X146167416Y-95477987D01*
X146167414Y-95477988D01*
X145933630Y-95568902D01*
X145933628Y-95568903D01*
X145929277Y-95570595D01*
X145925223Y-95572912D01*
X145925221Y-95572913D01*
X145883979Y-95596485D01*
X145703388Y-95699701D01*
X145499064Y-95860777D01*
X145320792Y-96050286D01*
X145240039Y-96166691D01*
X145177972Y-96256160D01*
X145172489Y-96264063D01*
X145170423Y-96268253D01*
X145170421Y-96268256D01*
X145082608Y-96446325D01*
X145057414Y-96497413D01*
X145055992Y-96501856D01*
X145055991Y-96501858D01*
X145042264Y-96544742D01*
X144978094Y-96745208D01*
X144936272Y-97002006D01*
X144936211Y-97006683D01*
X144934238Y-97157404D01*
X144932866Y-97262165D01*
X130173488Y-97262165D01*
X130175675Y-97255721D01*
X130175676Y-97255716D01*
X130177531Y-97250252D01*
X130178359Y-97244543D01*
X130178360Y-97244538D01*
X130208658Y-97035572D01*
X130209191Y-97031898D01*
X130210843Y-96968800D01*
X130190654Y-96749089D01*
X130130765Y-96536736D01*
X130033180Y-96338853D01*
X130010296Y-96308207D01*
X129904620Y-96166691D01*
X129904620Y-96166690D01*
X129901167Y-96162067D01*
X129780243Y-96050286D01*
X129743389Y-96016218D01*
X129743386Y-96016216D01*
X129739149Y-96012299D01*
X129552550Y-95894564D01*
X129347621Y-95812806D01*
X129341961Y-95811680D01*
X129341957Y-95811679D01*
X129136891Y-95770889D01*
X129136888Y-95770889D01*
X129131224Y-95769762D01*
X129125449Y-95769686D01*
X129125445Y-95769686D01*
X129014704Y-95768237D01*
X128910606Y-95766874D01*
X128904909Y-95767853D01*
X128904908Y-95767853D01*
X128698854Y-95803259D01*
X128698853Y-95803259D01*
X128693157Y-95804238D01*
X128486157Y-95880604D01*
X128296541Y-95993414D01*
X128130657Y-96138890D01*
X127994063Y-96312160D01*
X127891331Y-96507420D01*
X127866068Y-96588781D01*
X127861136Y-96604664D01*
X127821833Y-96663789D01*
X127756803Y-96692280D01*
X127740803Y-96693300D01*
X123770299Y-96693300D01*
X123702178Y-96673298D01*
X123655685Y-96619642D01*
X123649034Y-96601513D01*
X123630765Y-96536736D01*
X123533180Y-96338853D01*
X123510296Y-96308207D01*
X123404620Y-96166691D01*
X123404620Y-96166690D01*
X123401167Y-96162067D01*
X123280243Y-96050286D01*
X123243389Y-96016218D01*
X123243386Y-96016216D01*
X123239149Y-96012299D01*
X123052550Y-95894564D01*
X122847621Y-95812806D01*
X122841961Y-95811680D01*
X122841957Y-95811679D01*
X122636891Y-95770889D01*
X122636888Y-95770889D01*
X122631224Y-95769762D01*
X122625449Y-95769686D01*
X122625445Y-95769686D01*
X122514704Y-95768237D01*
X122410606Y-95766874D01*
X122404909Y-95767853D01*
X122404908Y-95767853D01*
X122198854Y-95803259D01*
X122198853Y-95803259D01*
X122193157Y-95804238D01*
X121986157Y-95880604D01*
X121796541Y-95993414D01*
X121630657Y-96138890D01*
X121494063Y-96312160D01*
X121391331Y-96507420D01*
X121325903Y-96718133D01*
X121299970Y-96937240D01*
X116841000Y-96937240D01*
X116841000Y-94560996D01*
X136690814Y-94560996D01*
X136700523Y-94770767D01*
X136701927Y-94776592D01*
X136701927Y-94776593D01*
X136726084Y-94876826D01*
X136749724Y-94974918D01*
X136752206Y-94980376D01*
X136752207Y-94980380D01*
X136795320Y-95075201D01*
X136836640Y-95166081D01*
X136958137Y-95337360D01*
X136962464Y-95341502D01*
X137074864Y-95449101D01*
X137109831Y-95482575D01*
X137114866Y-95485826D01*
X137281209Y-95593233D01*
X137281212Y-95593234D01*
X137286246Y-95596485D01*
X137291809Y-95598727D01*
X137475455Y-95672739D01*
X137475458Y-95672740D01*
X137481019Y-95674981D01*
X137486900Y-95676129D01*
X137486905Y-95676131D01*
X137682676Y-95714362D01*
X137682679Y-95714362D01*
X137687122Y-95715230D01*
X137692643Y-95715500D01*
X137847469Y-95715500D01*
X138004046Y-95700561D01*
X138009802Y-95698872D01*
X138009804Y-95698872D01*
X138175303Y-95650320D01*
X138205549Y-95641447D01*
X138343116Y-95570595D01*
X138386908Y-95548041D01*
X138386911Y-95548039D01*
X138392239Y-95545295D01*
X138467947Y-95485826D01*
X138552662Y-95419282D01*
X138552667Y-95419278D01*
X138557379Y-95415576D01*
X138566840Y-95404673D01*
X138691079Y-95261502D01*
X138691083Y-95261497D01*
X138695010Y-95256971D01*
X138800166Y-95075201D01*
X138869053Y-94876826D01*
X138885235Y-94765223D01*
X138898325Y-94674944D01*
X138898325Y-94674941D01*
X138899186Y-94669004D01*
X138898873Y-94662236D01*
X140619958Y-94662236D01*
X140620321Y-94666384D01*
X140620321Y-94666389D01*
X140622755Y-94694208D01*
X140646014Y-94960065D01*
X140711232Y-95251832D01*
X140814464Y-95532410D01*
X140816415Y-95536110D01*
X140816417Y-95536115D01*
X140940200Y-95770889D01*
X140953898Y-95796870D01*
X141127084Y-96040565D01*
X141330979Y-96259216D01*
X141562000Y-96448979D01*
X141816090Y-96606521D01*
X142088783Y-96729074D01*
X142263027Y-96781018D01*
X142371290Y-96813293D01*
X142371292Y-96813293D01*
X142375289Y-96814485D01*
X142379409Y-96815138D01*
X142379411Y-96815138D01*
X142497423Y-96833829D01*
X142670575Y-96861254D01*
X142713135Y-96863187D01*
X142762659Y-96865436D01*
X142762678Y-96865436D01*
X142764078Y-96865500D01*
X142950834Y-96865500D01*
X143173309Y-96850723D01*
X143466377Y-96791630D01*
X143749056Y-96694296D01*
X143752789Y-96692427D01*
X143752793Y-96692425D01*
X144012640Y-96562303D01*
X144012642Y-96562302D01*
X144016378Y-96560431D01*
X144263647Y-96392387D01*
X144347662Y-96317270D01*
X144483403Y-96195904D01*
X144483404Y-96195903D01*
X144486520Y-96193117D01*
X144681079Y-95966120D01*
X144780643Y-95812806D01*
X144841629Y-95718896D01*
X144841632Y-95718891D01*
X144843908Y-95715386D01*
X144850948Y-95700561D01*
X144952911Y-95485826D01*
X144972145Y-95445319D01*
X144981695Y-95415576D01*
X145062258Y-95164651D01*
X145062258Y-95164650D01*
X145063538Y-95160664D01*
X145088454Y-95022187D01*
X145115741Y-94870531D01*
X145115742Y-94870526D01*
X145116480Y-94866422D01*
X145120560Y-94776593D01*
X145129853Y-94571934D01*
X145129853Y-94571929D01*
X145130042Y-94567764D01*
X145128931Y-94555056D01*
X145117756Y-94427333D01*
X145103986Y-94269935D01*
X145038768Y-93978168D01*
X145021618Y-93931554D01*
X144936983Y-93701523D01*
X144935536Y-93697590D01*
X144930696Y-93688409D01*
X144798055Y-93436834D01*
X144798054Y-93436833D01*
X144796102Y-93433130D01*
X144622916Y-93189435D01*
X144419021Y-92970784D01*
X144188000Y-92781021D01*
X143933910Y-92623479D01*
X143661217Y-92500926D01*
X143441689Y-92435482D01*
X143378710Y-92416707D01*
X143378708Y-92416707D01*
X143374711Y-92415515D01*
X143370591Y-92414862D01*
X143370589Y-92414862D01*
X143252577Y-92396171D01*
X143079425Y-92368746D01*
X143036865Y-92366813D01*
X142987341Y-92364564D01*
X142987322Y-92364564D01*
X142985922Y-92364500D01*
X142799166Y-92364500D01*
X142576691Y-92379277D01*
X142283623Y-92438370D01*
X142000944Y-92535704D01*
X141997211Y-92537573D01*
X141997207Y-92537575D01*
X141821268Y-92625679D01*
X141733622Y-92669569D01*
X141486353Y-92837613D01*
X141483239Y-92840397D01*
X141483238Y-92840398D01*
X141283535Y-93018952D01*
X141263480Y-93036883D01*
X141068921Y-93263880D01*
X141066647Y-93267382D01*
X140909331Y-93509627D01*
X140906092Y-93514614D01*
X140904298Y-93518392D01*
X140904297Y-93518394D01*
X140896764Y-93534258D01*
X140777855Y-93784681D01*
X140776576Y-93788664D01*
X140776575Y-93788667D01*
X140714422Y-93982252D01*
X140686462Y-94069336D01*
X140685721Y-94073455D01*
X140634324Y-94359111D01*
X140633520Y-94363578D01*
X140633331Y-94367745D01*
X140633330Y-94367752D01*
X140620147Y-94658066D01*
X140619958Y-94662236D01*
X138898873Y-94662236D01*
X138889477Y-94459233D01*
X138840276Y-94255082D01*
X138797258Y-94160467D01*
X138755840Y-94069374D01*
X138753360Y-94063919D01*
X138644646Y-93910660D01*
X138635329Y-93897526D01*
X138635328Y-93897525D01*
X138631863Y-93892640D01*
X138519087Y-93784681D01*
X138484499Y-93751570D01*
X138480169Y-93747425D01*
X138409080Y-93701523D01*
X138308791Y-93636767D01*
X138308788Y-93636766D01*
X138303754Y-93633515D01*
X138262120Y-93616736D01*
X138114545Y-93557261D01*
X138114542Y-93557260D01*
X138108981Y-93555019D01*
X138103100Y-93553871D01*
X138103095Y-93553869D01*
X137907324Y-93515638D01*
X137907321Y-93515638D01*
X137902878Y-93514770D01*
X137897357Y-93514500D01*
X137742531Y-93514500D01*
X137585954Y-93529439D01*
X137580198Y-93531128D01*
X137580196Y-93531128D01*
X137569527Y-93534258D01*
X137384451Y-93588553D01*
X137329731Y-93616736D01*
X137203092Y-93681959D01*
X137203089Y-93681961D01*
X137197761Y-93684705D01*
X137181358Y-93697590D01*
X137037338Y-93810718D01*
X137037333Y-93810722D01*
X137032621Y-93814424D01*
X137028690Y-93818954D01*
X137028689Y-93818955D01*
X136898921Y-93968498D01*
X136898917Y-93968503D01*
X136894990Y-93973029D01*
X136789834Y-94154799D01*
X136720947Y-94353174D01*
X136720086Y-94359109D01*
X136720086Y-94359111D01*
X136701704Y-94485893D01*
X136690814Y-94560996D01*
X116841000Y-94560996D01*
X116841000Y-92705940D01*
X121299870Y-92705940D01*
X121314300Y-92926104D01*
X121315721Y-92931700D01*
X121315722Y-92931705D01*
X121355076Y-93086658D01*
X121368611Y-93139952D01*
X121371028Y-93145194D01*
X121371028Y-93145195D01*
X121409146Y-93227879D01*
X121460983Y-93340321D01*
X121588322Y-93520502D01*
X121746364Y-93674461D01*
X121751160Y-93677666D01*
X121751163Y-93677668D01*
X121861766Y-93751570D01*
X121929817Y-93797040D01*
X121935120Y-93799318D01*
X121935123Y-93799320D01*
X122127229Y-93881855D01*
X122132536Y-93884135D01*
X122170123Y-93892640D01*
X122342095Y-93931554D01*
X122342101Y-93931555D01*
X122347732Y-93932829D01*
X122353503Y-93933056D01*
X122353505Y-93933056D01*
X122421311Y-93935720D01*
X122568198Y-93941491D01*
X122677375Y-93925661D01*
X122780838Y-93910660D01*
X122780843Y-93910659D01*
X122786552Y-93909831D01*
X122792016Y-93907976D01*
X122792021Y-93907975D01*
X122990007Y-93840768D01*
X122990012Y-93840766D01*
X122995479Y-93838910D01*
X123045820Y-93810718D01*
X123099065Y-93780899D01*
X123187984Y-93731102D01*
X123232733Y-93693885D01*
X123353186Y-93593704D01*
X123357618Y-93590018D01*
X123416829Y-93518825D01*
X123495008Y-93424826D01*
X123495010Y-93424823D01*
X123498702Y-93420384D01*
X123584387Y-93267382D01*
X123603686Y-93232922D01*
X123603687Y-93232920D01*
X123606510Y-93227879D01*
X123650429Y-93098498D01*
X123691265Y-93040423D01*
X123757017Y-93013644D01*
X123769741Y-93013000D01*
X127738369Y-93013000D01*
X127806490Y-93033002D01*
X127852983Y-93086658D01*
X127860492Y-93107984D01*
X127868611Y-93139952D01*
X127871028Y-93145194D01*
X127871028Y-93145195D01*
X127909146Y-93227879D01*
X127960983Y-93340321D01*
X128088322Y-93520502D01*
X128246364Y-93674461D01*
X128251160Y-93677666D01*
X128251163Y-93677668D01*
X128361766Y-93751570D01*
X128429817Y-93797040D01*
X128435120Y-93799318D01*
X128435123Y-93799320D01*
X128627229Y-93881855D01*
X128632536Y-93884135D01*
X128670123Y-93892640D01*
X128842095Y-93931554D01*
X128842101Y-93931555D01*
X128847732Y-93932829D01*
X128853503Y-93933056D01*
X128853505Y-93933056D01*
X128921311Y-93935720D01*
X129068198Y-93941491D01*
X129177375Y-93925661D01*
X129280838Y-93910660D01*
X129280843Y-93910659D01*
X129286552Y-93909831D01*
X129292016Y-93907976D01*
X129292021Y-93907975D01*
X129490007Y-93840768D01*
X129490012Y-93840766D01*
X129495479Y-93838910D01*
X129545820Y-93810718D01*
X129599065Y-93780899D01*
X129687984Y-93731102D01*
X129732733Y-93693885D01*
X129853186Y-93593704D01*
X129857618Y-93590018D01*
X129916829Y-93518825D01*
X129995008Y-93424826D01*
X129995010Y-93424823D01*
X129998702Y-93420384D01*
X130084387Y-93267382D01*
X130103686Y-93232922D01*
X130103687Y-93232920D01*
X130106510Y-93227879D01*
X130108366Y-93222412D01*
X130108368Y-93222407D01*
X130175575Y-93024421D01*
X130175576Y-93024416D01*
X130177431Y-93018952D01*
X130178259Y-93013243D01*
X130178260Y-93013238D01*
X130202290Y-92847502D01*
X130209091Y-92800598D01*
X130210743Y-92737500D01*
X130190554Y-92517789D01*
X130185462Y-92499732D01*
X130147341Y-92364564D01*
X130130665Y-92305436D01*
X130033080Y-92107553D01*
X129986210Y-92044786D01*
X129904520Y-91935391D01*
X129904520Y-91935390D01*
X129901067Y-91930767D01*
X129739049Y-91780999D01*
X129552450Y-91663264D01*
X129347521Y-91581506D01*
X129341861Y-91580380D01*
X129341857Y-91580379D01*
X129136791Y-91539589D01*
X129136788Y-91539589D01*
X129131124Y-91538462D01*
X129125349Y-91538386D01*
X129125345Y-91538386D01*
X129014604Y-91536937D01*
X128910506Y-91535574D01*
X128904809Y-91536553D01*
X128904808Y-91536553D01*
X128698754Y-91571959D01*
X128698753Y-91571959D01*
X128693057Y-91572938D01*
X128486057Y-91649304D01*
X128481096Y-91652256D01*
X128481095Y-91652256D01*
X128326300Y-91744350D01*
X128296441Y-91762114D01*
X128130557Y-91907590D01*
X127993963Y-92080860D01*
X127891231Y-92276120D01*
X127889518Y-92281638D01*
X127861036Y-92373364D01*
X127821733Y-92432489D01*
X127756703Y-92460980D01*
X127740703Y-92462000D01*
X123770199Y-92462000D01*
X123702078Y-92441998D01*
X123655585Y-92388342D01*
X123648934Y-92370213D01*
X123630665Y-92305436D01*
X123533080Y-92107553D01*
X123486210Y-92044786D01*
X123404520Y-91935391D01*
X123404520Y-91935390D01*
X123401067Y-91930767D01*
X123239049Y-91780999D01*
X123052450Y-91663264D01*
X122847521Y-91581506D01*
X122841861Y-91580380D01*
X122841857Y-91580379D01*
X122636791Y-91539589D01*
X122636788Y-91539589D01*
X122631124Y-91538462D01*
X122625349Y-91538386D01*
X122625345Y-91538386D01*
X122514604Y-91536937D01*
X122410506Y-91535574D01*
X122404809Y-91536553D01*
X122404808Y-91536553D01*
X122198754Y-91571959D01*
X122198753Y-91571959D01*
X122193057Y-91572938D01*
X121986057Y-91649304D01*
X121981096Y-91652256D01*
X121981095Y-91652256D01*
X121826300Y-91744350D01*
X121796441Y-91762114D01*
X121630557Y-91907590D01*
X121493963Y-92080860D01*
X121391231Y-92276120D01*
X121361036Y-92373364D01*
X121329292Y-92475598D01*
X121325803Y-92486833D01*
X121299870Y-92705940D01*
X116841000Y-92705940D01*
X116841000Y-88205940D01*
X121299870Y-88205940D01*
X121314300Y-88426104D01*
X121315721Y-88431700D01*
X121315722Y-88431705D01*
X121358083Y-88598499D01*
X121368611Y-88639952D01*
X121371028Y-88645194D01*
X121371028Y-88645195D01*
X121452156Y-88821174D01*
X121460983Y-88840321D01*
X121588322Y-89020502D01*
X121746364Y-89174461D01*
X121751160Y-89177666D01*
X121751163Y-89177668D01*
X121872470Y-89258722D01*
X121929817Y-89297040D01*
X121935120Y-89299318D01*
X121935123Y-89299320D01*
X122127229Y-89381855D01*
X122132536Y-89384135D01*
X122212188Y-89402158D01*
X122342095Y-89431554D01*
X122342101Y-89431555D01*
X122347732Y-89432829D01*
X122353503Y-89433056D01*
X122353505Y-89433056D01*
X122421311Y-89435720D01*
X122568198Y-89441491D01*
X122677375Y-89425661D01*
X122780838Y-89410660D01*
X122780843Y-89410659D01*
X122786552Y-89409831D01*
X122792016Y-89407976D01*
X122792021Y-89407975D01*
X122990007Y-89340768D01*
X122990012Y-89340766D01*
X122995479Y-89338910D01*
X123187984Y-89231102D01*
X123228824Y-89197136D01*
X123338516Y-89105905D01*
X123357618Y-89090018D01*
X123447463Y-88981992D01*
X123495008Y-88924826D01*
X123495010Y-88924823D01*
X123498702Y-88920384D01*
X123572734Y-88788190D01*
X123603686Y-88732922D01*
X123603687Y-88732920D01*
X123606510Y-88727879D01*
X123650429Y-88598498D01*
X123691265Y-88540423D01*
X123757017Y-88513644D01*
X123769741Y-88513000D01*
X127738369Y-88513000D01*
X127806490Y-88533002D01*
X127852983Y-88586658D01*
X127860492Y-88607984D01*
X127868611Y-88639952D01*
X127871028Y-88645194D01*
X127871028Y-88645195D01*
X127952156Y-88821174D01*
X127960983Y-88840321D01*
X128088322Y-89020502D01*
X128246364Y-89174461D01*
X128251160Y-89177666D01*
X128251163Y-89177668D01*
X128372470Y-89258722D01*
X128429817Y-89297040D01*
X128435120Y-89299318D01*
X128435123Y-89299320D01*
X128627229Y-89381855D01*
X128632536Y-89384135D01*
X128712188Y-89402158D01*
X128842095Y-89431554D01*
X128842101Y-89431555D01*
X128847732Y-89432829D01*
X128853503Y-89433056D01*
X128853505Y-89433056D01*
X128921311Y-89435720D01*
X129068198Y-89441491D01*
X129177375Y-89425661D01*
X129280838Y-89410660D01*
X129280843Y-89410659D01*
X129286552Y-89409831D01*
X129292016Y-89407976D01*
X129292021Y-89407975D01*
X129490007Y-89340768D01*
X129490012Y-89340766D01*
X129495479Y-89338910D01*
X129687984Y-89231102D01*
X129728824Y-89197136D01*
X129838516Y-89105905D01*
X129857618Y-89090018D01*
X129947463Y-88981992D01*
X129995008Y-88924826D01*
X129995010Y-88924823D01*
X129998702Y-88920384D01*
X130072734Y-88788190D01*
X130103686Y-88732922D01*
X130103687Y-88732920D01*
X130106510Y-88727879D01*
X130108366Y-88722412D01*
X130108368Y-88722407D01*
X130175575Y-88524421D01*
X130175576Y-88524416D01*
X130177431Y-88518952D01*
X130178259Y-88513243D01*
X130178260Y-88513238D01*
X130204567Y-88331800D01*
X130209091Y-88300598D01*
X130210743Y-88237500D01*
X130190554Y-88017789D01*
X130168052Y-87938000D01*
X130138074Y-87831707D01*
X130130665Y-87805436D01*
X130033080Y-87607553D01*
X130018322Y-87587789D01*
X129904520Y-87435391D01*
X129904520Y-87435390D01*
X129901067Y-87430767D01*
X129778087Y-87317085D01*
X129743289Y-87284918D01*
X129743286Y-87284916D01*
X129739049Y-87280999D01*
X129552450Y-87163264D01*
X129347521Y-87081506D01*
X129341861Y-87080380D01*
X129341857Y-87080379D01*
X129136791Y-87039589D01*
X129136788Y-87039589D01*
X129131124Y-87038462D01*
X129125349Y-87038386D01*
X129125345Y-87038386D01*
X129014604Y-87036937D01*
X128910506Y-87035574D01*
X128904809Y-87036553D01*
X128904808Y-87036553D01*
X128698754Y-87071959D01*
X128698753Y-87071959D01*
X128693057Y-87072938D01*
X128486057Y-87149304D01*
X128296441Y-87262114D01*
X128130557Y-87407590D01*
X127993963Y-87580860D01*
X127891231Y-87776120D01*
X127873988Y-87831652D01*
X127861036Y-87873364D01*
X127821733Y-87932489D01*
X127756703Y-87960980D01*
X127740703Y-87962000D01*
X123770199Y-87962000D01*
X123702078Y-87941998D01*
X123655585Y-87888342D01*
X123648933Y-87870212D01*
X123630665Y-87805436D01*
X123533080Y-87607553D01*
X123518322Y-87587789D01*
X123404520Y-87435391D01*
X123404520Y-87435390D01*
X123401067Y-87430767D01*
X123278087Y-87317085D01*
X123243289Y-87284918D01*
X123243286Y-87284916D01*
X123239049Y-87280999D01*
X123052450Y-87163264D01*
X122847521Y-87081506D01*
X122841861Y-87080380D01*
X122841857Y-87080379D01*
X122636791Y-87039589D01*
X122636788Y-87039589D01*
X122631124Y-87038462D01*
X122625349Y-87038386D01*
X122625345Y-87038386D01*
X122514604Y-87036937D01*
X122410506Y-87035574D01*
X122404809Y-87036553D01*
X122404808Y-87036553D01*
X122198754Y-87071959D01*
X122198753Y-87071959D01*
X122193057Y-87072938D01*
X121986057Y-87149304D01*
X121796441Y-87262114D01*
X121630557Y-87407590D01*
X121493963Y-87580860D01*
X121391231Y-87776120D01*
X121325803Y-87986833D01*
X121299870Y-88205940D01*
X116841000Y-88205940D01*
X116841000Y-71896223D01*
X120236191Y-71896223D01*
X120237355Y-71905125D01*
X120237355Y-71905128D01*
X120238614Y-71914754D01*
X120254780Y-72038379D01*
X120312520Y-72169603D01*
X120318297Y-72176476D01*
X120318298Y-72176477D01*
X120391585Y-72263663D01*
X120404770Y-72279348D01*
X120412239Y-72284320D01*
X120418935Y-72290307D01*
X120417611Y-72291788D01*
X120455843Y-72337376D01*
X120466400Y-72387863D01*
X120466400Y-72781757D01*
X120463979Y-72806339D01*
X120461003Y-72821300D01*
X120466400Y-72848432D01*
X120466400Y-72848433D01*
X120482385Y-72928795D01*
X120543276Y-73019924D01*
X120553592Y-73026817D01*
X120553593Y-73026818D01*
X120555964Y-73028402D01*
X120575056Y-73044072D01*
X135487529Y-87956545D01*
X135503196Y-87975634D01*
X135511676Y-87988324D01*
X135521989Y-87995215D01*
X135534677Y-88003693D01*
X135534677Y-88003694D01*
X135555771Y-88017788D01*
X135555773Y-88017789D01*
X135602805Y-88049215D01*
X135677135Y-88064000D01*
X135710300Y-88070597D01*
X135725261Y-88067621D01*
X135749843Y-88065200D01*
X141048000Y-88065200D01*
X141116121Y-88085202D01*
X141162614Y-88138858D01*
X141174000Y-88191200D01*
X141174000Y-91064802D01*
X141173918Y-91065000D01*
X141174000Y-91065198D01*
X141174235Y-91065765D01*
X141175000Y-91066082D01*
X141175198Y-91066000D01*
X144574802Y-91066000D01*
X144575000Y-91066082D01*
X144575765Y-91065765D01*
X144576000Y-91065198D01*
X144576082Y-91065000D01*
X144576000Y-91064802D01*
X144576000Y-88191200D01*
X144596002Y-88123079D01*
X144649658Y-88076586D01*
X144702000Y-88065200D01*
X146172494Y-88065200D01*
X146240615Y-88085202D01*
X146261589Y-88102105D01*
X146344836Y-88185352D01*
X146378862Y-88247664D01*
X146380241Y-88293832D01*
X146375291Y-88325623D01*
X146376455Y-88334525D01*
X146376455Y-88334528D01*
X146380206Y-88363208D01*
X146393880Y-88467779D01*
X146451620Y-88599003D01*
X146457397Y-88605876D01*
X146457398Y-88605877D01*
X146520367Y-88680788D01*
X146543870Y-88708748D01*
X146663213Y-88788190D01*
X146800057Y-88830942D01*
X146809029Y-88831106D01*
X146809032Y-88831107D01*
X146874363Y-88832304D01*
X146943399Y-88833570D01*
X146952433Y-88831107D01*
X147073058Y-88798221D01*
X147073060Y-88798220D01*
X147081717Y-88795860D01*
X147203891Y-88720845D01*
X147240149Y-88680788D01*
X147294078Y-88621207D01*
X147300100Y-88614554D01*
X147349187Y-88513238D01*
X147358695Y-88493614D01*
X147358695Y-88493613D01*
X147362610Y-88485533D01*
X147386396Y-88344154D01*
X147386547Y-88331800D01*
X147373785Y-88242685D01*
X147367496Y-88198768D01*
X147367495Y-88198765D01*
X147366223Y-88189882D01*
X147351951Y-88158491D01*
X147318628Y-88085202D01*
X147306884Y-88059372D01*
X147271053Y-88017788D01*
X147219160Y-87957563D01*
X147219157Y-87957560D01*
X147213300Y-87950763D01*
X147092995Y-87872785D01*
X146955639Y-87831707D01*
X146946663Y-87831652D01*
X146946662Y-87831652D01*
X146821022Y-87830884D01*
X146753025Y-87810466D01*
X146732697Y-87793981D01*
X146561572Y-87622856D01*
X146545902Y-87603764D01*
X146544315Y-87601389D01*
X146537424Y-87591076D01*
X146514423Y-87575707D01*
X146514421Y-87575705D01*
X146479809Y-87552578D01*
X146456614Y-87537079D01*
X146456610Y-87537077D01*
X146446295Y-87530185D01*
X146434126Y-87527764D01*
X146434125Y-87527764D01*
X146365933Y-87514200D01*
X146350972Y-87511224D01*
X146350971Y-87511224D01*
X146338800Y-87508803D01*
X146326629Y-87511224D01*
X146323839Y-87511779D01*
X146299257Y-87514200D01*
X135876606Y-87514200D01*
X135808485Y-87494198D01*
X135787511Y-87477295D01*
X130852657Y-82542441D01*
X130818631Y-82480129D01*
X130823696Y-82409314D01*
X130866243Y-82352478D01*
X130932763Y-82327667D01*
X130972767Y-82331223D01*
X131023397Y-82344081D01*
X131140177Y-82373739D01*
X131356286Y-82395500D01*
X131511044Y-82395500D01*
X131513369Y-82395327D01*
X131513375Y-82395327D01*
X131699814Y-82381472D01*
X131699818Y-82381471D01*
X131704466Y-82381126D01*
X131958232Y-82323705D01*
X131970606Y-82318893D01*
X132196370Y-82231098D01*
X132196372Y-82231097D01*
X132200723Y-82229405D01*
X132236285Y-82209080D01*
X132284038Y-82181786D01*
X132426612Y-82100299D01*
X132630936Y-81939223D01*
X132809208Y-81749714D01*
X132922066Y-81587031D01*
X132954846Y-81539779D01*
X132954848Y-81539776D01*
X132957511Y-81535937D01*
X132975258Y-81499949D01*
X133070521Y-81306775D01*
X133070522Y-81306772D01*
X133072586Y-81302587D01*
X133085174Y-81263264D01*
X133150483Y-81059237D01*
X133151906Y-81054792D01*
X133193728Y-80797994D01*
X133197134Y-80537835D01*
X133162048Y-80280030D01*
X133089242Y-80030243D01*
X132980314Y-79793961D01*
X132951637Y-79750221D01*
X132840225Y-79580288D01*
X132840221Y-79580283D01*
X132837659Y-79576375D01*
X132664409Y-79382265D01*
X132464371Y-79215895D01*
X132241939Y-79080920D01*
X132237623Y-79079110D01*
X132006314Y-78982114D01*
X132006309Y-78982112D01*
X132001999Y-78980305D01*
X131997467Y-78979154D01*
X131997464Y-78979153D01*
X131872185Y-78947337D01*
X131749823Y-78916261D01*
X131533714Y-78894500D01*
X131378956Y-78894500D01*
X131376631Y-78894673D01*
X131376625Y-78894673D01*
X131190186Y-78908528D01*
X131190182Y-78908529D01*
X131185534Y-78908874D01*
X130931768Y-78966295D01*
X130927416Y-78967987D01*
X130927414Y-78967988D01*
X130693630Y-79058902D01*
X130693628Y-79058903D01*
X130689277Y-79060595D01*
X130685223Y-79062912D01*
X130685221Y-79062913D01*
X130649467Y-79083348D01*
X130463388Y-79189701D01*
X130259064Y-79350777D01*
X130080792Y-79540286D01*
X129932489Y-79754063D01*
X129930423Y-79758253D01*
X129930421Y-79758256D01*
X129835591Y-79950554D01*
X129817414Y-79987413D01*
X129815992Y-79991856D01*
X129815991Y-79991858D01*
X129777754Y-80111311D01*
X129738094Y-80235208D01*
X129723783Y-80323084D01*
X129703216Y-80449371D01*
X129696272Y-80492006D01*
X129692866Y-80752165D01*
X129727952Y-81009970D01*
X129729260Y-81014456D01*
X129729260Y-81014458D01*
X129758127Y-81113497D01*
X129757986Y-81184493D01*
X129719484Y-81244143D01*
X129654845Y-81273508D01*
X129584591Y-81263264D01*
X129548066Y-81237850D01*
X126522381Y-78212165D01*
X136042866Y-78212165D01*
X136077952Y-78469970D01*
X136150758Y-78719757D01*
X136259686Y-78956039D01*
X136262246Y-78959944D01*
X136262249Y-78959949D01*
X136399775Y-79169712D01*
X136399779Y-79169717D01*
X136402341Y-79173625D01*
X136575591Y-79367735D01*
X136775629Y-79534105D01*
X136998061Y-79669080D01*
X137002375Y-79670889D01*
X137002377Y-79670890D01*
X137233686Y-79767886D01*
X137233691Y-79767888D01*
X137238001Y-79769695D01*
X137242533Y-79770846D01*
X137242536Y-79770847D01*
X137333549Y-79793961D01*
X137490177Y-79833739D01*
X137706286Y-79855500D01*
X137861044Y-79855500D01*
X137863369Y-79855327D01*
X137863375Y-79855327D01*
X138049814Y-79841472D01*
X138049818Y-79841471D01*
X138054466Y-79841126D01*
X138308232Y-79783705D01*
X138312586Y-79782012D01*
X138546370Y-79691098D01*
X138546372Y-79691097D01*
X138550723Y-79689405D01*
X138586285Y-79669080D01*
X138741638Y-79580288D01*
X138776612Y-79560299D01*
X138980936Y-79399223D01*
X139159208Y-79209714D01*
X139307511Y-78995937D01*
X139325258Y-78959949D01*
X139420521Y-78766775D01*
X139420522Y-78766772D01*
X139422586Y-78762587D01*
X139501906Y-78514792D01*
X139543728Y-78257994D01*
X139547134Y-77997835D01*
X139512048Y-77740030D01*
X139439242Y-77490243D01*
X139434881Y-77480782D01*
X139398183Y-77401180D01*
X139330314Y-77253961D01*
X139306905Y-77218256D01*
X139190225Y-77040288D01*
X139190221Y-77040283D01*
X139187659Y-77036375D01*
X139042844Y-76874123D01*
X139012406Y-76809983D01*
X139021477Y-76739569D01*
X139067178Y-76685236D01*
X139124880Y-76664793D01*
X139161636Y-76661286D01*
X139274046Y-76650561D01*
X139279802Y-76648872D01*
X139279804Y-76648872D01*
X139387406Y-76617305D01*
X139475549Y-76591447D01*
X139589048Y-76532991D01*
X139656908Y-76498041D01*
X139656911Y-76498039D01*
X139662239Y-76495295D01*
X139738829Y-76435133D01*
X139822662Y-76369282D01*
X139822667Y-76369278D01*
X139827379Y-76365576D01*
X139836840Y-76354673D01*
X139961079Y-76211502D01*
X139961083Y-76211497D01*
X139965010Y-76206971D01*
X140070166Y-76025201D01*
X140139053Y-75826826D01*
X140141167Y-75812248D01*
X140168325Y-75624944D01*
X140168325Y-75624941D01*
X140169186Y-75619004D01*
X140159477Y-75409233D01*
X140110276Y-75205082D01*
X140076692Y-75131216D01*
X140037142Y-75044232D01*
X140023360Y-75013919D01*
X139901863Y-74842640D01*
X139789087Y-74734681D01*
X139754499Y-74701570D01*
X139750169Y-74697425D01*
X139679080Y-74651523D01*
X139578791Y-74586767D01*
X139578788Y-74586766D01*
X139573754Y-74583515D01*
X139568191Y-74581273D01*
X139384545Y-74507261D01*
X139384542Y-74507260D01*
X139378981Y-74505019D01*
X139373100Y-74503871D01*
X139373095Y-74503869D01*
X139177324Y-74465638D01*
X139177321Y-74465638D01*
X139172878Y-74464770D01*
X139167357Y-74464500D01*
X139012531Y-74464500D01*
X138855954Y-74479439D01*
X138850198Y-74481128D01*
X138850196Y-74481128D01*
X138772679Y-74503869D01*
X138654451Y-74538553D01*
X138571505Y-74581273D01*
X138473092Y-74631959D01*
X138473089Y-74631961D01*
X138467761Y-74634705D01*
X138451358Y-74647590D01*
X138307338Y-74760718D01*
X138307333Y-74760722D01*
X138302621Y-74764424D01*
X138298690Y-74768954D01*
X138298689Y-74768955D01*
X138168921Y-74918498D01*
X138168917Y-74918503D01*
X138164990Y-74923029D01*
X138059834Y-75104799D01*
X137990947Y-75303174D01*
X137990086Y-75309109D01*
X137990086Y-75309111D01*
X137974701Y-75415223D01*
X137960814Y-75510996D01*
X137970523Y-75720767D01*
X137971927Y-75726592D01*
X137971927Y-75726593D01*
X138014456Y-75903058D01*
X138019724Y-75924918D01*
X138022206Y-75930376D01*
X138022207Y-75930380D01*
X138067682Y-76030397D01*
X138106640Y-76116081D01*
X138110107Y-76120968D01*
X138145585Y-76170983D01*
X138168683Y-76238117D01*
X138151819Y-76307082D01*
X138100347Y-76355981D01*
X138030192Y-76369249D01*
X137886855Y-76354816D01*
X137886849Y-76354816D01*
X137883714Y-76354500D01*
X137728956Y-76354500D01*
X137726631Y-76354673D01*
X137726625Y-76354673D01*
X137540186Y-76368528D01*
X137540182Y-76368529D01*
X137535534Y-76368874D01*
X137281768Y-76426295D01*
X137277416Y-76427987D01*
X137277414Y-76427988D01*
X137043630Y-76518902D01*
X137043628Y-76518903D01*
X137039277Y-76520595D01*
X137035223Y-76522912D01*
X137035221Y-76522913D01*
X136993979Y-76546485D01*
X136813388Y-76649701D01*
X136609064Y-76810777D01*
X136430792Y-77000286D01*
X136403042Y-77040288D01*
X136285820Y-77209262D01*
X136282489Y-77214063D01*
X136280423Y-77218253D01*
X136280421Y-77218256D01*
X136171117Y-77439905D01*
X136167414Y-77447413D01*
X136165992Y-77451856D01*
X136165991Y-77451858D01*
X136133192Y-77554321D01*
X136088094Y-77695208D01*
X136046272Y-77952006D01*
X136042866Y-78212165D01*
X126522381Y-78212165D01*
X125241230Y-76931014D01*
X125207204Y-76868702D01*
X125212269Y-76797887D01*
X125254816Y-76741051D01*
X125264396Y-76734544D01*
X125304304Y-76710040D01*
X125368791Y-76670445D01*
X125389667Y-76647382D01*
X125450134Y-76580578D01*
X125465000Y-76564154D01*
X125501937Y-76487916D01*
X125523595Y-76443214D01*
X125523595Y-76443213D01*
X125527510Y-76435133D01*
X125551296Y-76293754D01*
X125551447Y-76281400D01*
X125540052Y-76201832D01*
X125532396Y-76148368D01*
X125532395Y-76148365D01*
X125531123Y-76139482D01*
X125471784Y-76008972D01*
X125450938Y-75984779D01*
X125384059Y-75907162D01*
X125384057Y-75907160D01*
X125378200Y-75900363D01*
X125370669Y-75895482D01*
X125364471Y-75890075D01*
X125326286Y-75830222D01*
X125321300Y-75795126D01*
X125321300Y-75510996D01*
X127800814Y-75510996D01*
X127810523Y-75720767D01*
X127811927Y-75726592D01*
X127811927Y-75726593D01*
X127854456Y-75903058D01*
X127859724Y-75924918D01*
X127862206Y-75930376D01*
X127862207Y-75930380D01*
X127907682Y-76030397D01*
X127946640Y-76116081D01*
X128068137Y-76287360D01*
X128072464Y-76291502D01*
X128184864Y-76399101D01*
X128219831Y-76432575D01*
X128224866Y-76435826D01*
X128391209Y-76543233D01*
X128391212Y-76543234D01*
X128396246Y-76546485D01*
X128401809Y-76548727D01*
X128585455Y-76622739D01*
X128585458Y-76622740D01*
X128591019Y-76624981D01*
X128596900Y-76626129D01*
X128596905Y-76626131D01*
X128792676Y-76664362D01*
X128792679Y-76664362D01*
X128797122Y-76665230D01*
X128802643Y-76665500D01*
X128957469Y-76665500D01*
X129114046Y-76650561D01*
X129119802Y-76648872D01*
X129119804Y-76648872D01*
X129227406Y-76617305D01*
X129315549Y-76591447D01*
X129429048Y-76532991D01*
X129496908Y-76498041D01*
X129496911Y-76498039D01*
X129502239Y-76495295D01*
X129578829Y-76435133D01*
X129662662Y-76369282D01*
X129662667Y-76369278D01*
X129667379Y-76365576D01*
X129676840Y-76354673D01*
X129801079Y-76211502D01*
X129801083Y-76211497D01*
X129805010Y-76206971D01*
X129910166Y-76025201D01*
X129979053Y-75826826D01*
X129981167Y-75812248D01*
X130008325Y-75624944D01*
X130008325Y-75624941D01*
X130009186Y-75619004D01*
X130008873Y-75612236D01*
X131729958Y-75612236D01*
X131730321Y-75616384D01*
X131730321Y-75616389D01*
X131733571Y-75653538D01*
X131756014Y-75910065D01*
X131821232Y-76201832D01*
X131822676Y-76205756D01*
X131822676Y-76205757D01*
X131856817Y-76298549D01*
X131924464Y-76482410D01*
X131926415Y-76486110D01*
X131926417Y-76486115D01*
X132061945Y-76743166D01*
X132063898Y-76746870D01*
X132237084Y-76990565D01*
X132339031Y-77099890D01*
X132389196Y-77153685D01*
X132440979Y-77209216D01*
X132672000Y-77398979D01*
X132926090Y-77556521D01*
X133198783Y-77679074D01*
X133373027Y-77731018D01*
X133481290Y-77763293D01*
X133481292Y-77763293D01*
X133485289Y-77764485D01*
X133489409Y-77765138D01*
X133489411Y-77765138D01*
X133607423Y-77783829D01*
X133780575Y-77811254D01*
X133823135Y-77813187D01*
X133872659Y-77815436D01*
X133872678Y-77815436D01*
X133874078Y-77815500D01*
X134060834Y-77815500D01*
X134283309Y-77800723D01*
X134576377Y-77741630D01*
X134859056Y-77644296D01*
X134862789Y-77642427D01*
X134862793Y-77642425D01*
X135122640Y-77512303D01*
X135122642Y-77512302D01*
X135126378Y-77510431D01*
X135373647Y-77342387D01*
X135596520Y-77143117D01*
X135791079Y-76916120D01*
X135881924Y-76776232D01*
X135951629Y-76668896D01*
X135951632Y-76668891D01*
X135953908Y-76665386D01*
X135960948Y-76650561D01*
X136028255Y-76508811D01*
X136082145Y-76395319D01*
X136084065Y-76389341D01*
X136172258Y-76114651D01*
X136172258Y-76114650D01*
X136173538Y-76110664D01*
X136209631Y-75910065D01*
X136225741Y-75820531D01*
X136225742Y-75820526D01*
X136226480Y-75816422D01*
X136226981Y-75805409D01*
X136239853Y-75521934D01*
X136239853Y-75521929D01*
X136240042Y-75517764D01*
X136238931Y-75505056D01*
X136229189Y-75393712D01*
X136213986Y-75219935D01*
X136148768Y-74928168D01*
X136045536Y-74647590D01*
X136040696Y-74638409D01*
X135908055Y-74386834D01*
X135908054Y-74386833D01*
X135906102Y-74383130D01*
X135732916Y-74139435D01*
X135529021Y-73920784D01*
X135298000Y-73731021D01*
X135043910Y-73573479D01*
X134771217Y-73450926D01*
X134515458Y-73374681D01*
X134488710Y-73366707D01*
X134488708Y-73366707D01*
X134484711Y-73365515D01*
X134480591Y-73364862D01*
X134480589Y-73364862D01*
X134362577Y-73346171D01*
X134189425Y-73318746D01*
X134146865Y-73316813D01*
X134097341Y-73314564D01*
X134097322Y-73314564D01*
X134095922Y-73314500D01*
X133909166Y-73314500D01*
X133686691Y-73329277D01*
X133393623Y-73388370D01*
X133110944Y-73485704D01*
X133107211Y-73487573D01*
X133107207Y-73487575D01*
X132931268Y-73575679D01*
X132843622Y-73619569D01*
X132596353Y-73787613D01*
X132373480Y-73986883D01*
X132178921Y-74213880D01*
X132016092Y-74464614D01*
X132014298Y-74468392D01*
X132014297Y-74468394D01*
X131997452Y-74503869D01*
X131887855Y-74734681D01*
X131886576Y-74738664D01*
X131886575Y-74738667D01*
X131824501Y-74932005D01*
X131796462Y-75019336D01*
X131782972Y-75094311D01*
X131744324Y-75309111D01*
X131743520Y-75313578D01*
X131743331Y-75317745D01*
X131743330Y-75317752D01*
X131730190Y-75607126D01*
X131729958Y-75612236D01*
X130008873Y-75612236D01*
X129999477Y-75409233D01*
X129950276Y-75205082D01*
X129916692Y-75131216D01*
X129877142Y-75044232D01*
X129863360Y-75013919D01*
X129741863Y-74842640D01*
X129629087Y-74734681D01*
X129594499Y-74701570D01*
X129590169Y-74697425D01*
X129519080Y-74651523D01*
X129418791Y-74586767D01*
X129418788Y-74586766D01*
X129413754Y-74583515D01*
X129408191Y-74581273D01*
X129224545Y-74507261D01*
X129224542Y-74507260D01*
X129218981Y-74505019D01*
X129213100Y-74503871D01*
X129213095Y-74503869D01*
X129017324Y-74465638D01*
X129017321Y-74465638D01*
X129012878Y-74464770D01*
X129007357Y-74464500D01*
X128852531Y-74464500D01*
X128695954Y-74479439D01*
X128690198Y-74481128D01*
X128690196Y-74481128D01*
X128612679Y-74503869D01*
X128494451Y-74538553D01*
X128411505Y-74581273D01*
X128313092Y-74631959D01*
X128313089Y-74631961D01*
X128307761Y-74634705D01*
X128291358Y-74647590D01*
X128147338Y-74760718D01*
X128147333Y-74760722D01*
X128142621Y-74764424D01*
X128138690Y-74768954D01*
X128138689Y-74768955D01*
X128008921Y-74918498D01*
X128008917Y-74918503D01*
X128004990Y-74923029D01*
X127899834Y-75104799D01*
X127830947Y-75303174D01*
X127830086Y-75309109D01*
X127830086Y-75309111D01*
X127814701Y-75415223D01*
X127800814Y-75510996D01*
X125321300Y-75510996D01*
X125321300Y-75183406D01*
X125341302Y-75115285D01*
X125358205Y-75094311D01*
X129335658Y-71116858D01*
X129397970Y-71082832D01*
X129468785Y-71087897D01*
X129525621Y-71130444D01*
X129540080Y-71155205D01*
X129551520Y-71181203D01*
X129557297Y-71188076D01*
X129557298Y-71188077D01*
X129601306Y-71240431D01*
X129643770Y-71290948D01*
X129651247Y-71295925D01*
X129731001Y-71349014D01*
X129763113Y-71370390D01*
X129899957Y-71413142D01*
X129908929Y-71413306D01*
X129908932Y-71413307D01*
X129974263Y-71414504D01*
X130043299Y-71415770D01*
X130052333Y-71413307D01*
X130172958Y-71380421D01*
X130172960Y-71380420D01*
X130181617Y-71378060D01*
X130303791Y-71303045D01*
X130323569Y-71281195D01*
X130393978Y-71203407D01*
X130400000Y-71196754D01*
X130437985Y-71118352D01*
X130458595Y-71075814D01*
X130458595Y-71075813D01*
X130462510Y-71067733D01*
X130486296Y-70926354D01*
X130486447Y-70914000D01*
X130484624Y-70901273D01*
X130480847Y-70874892D01*
X130490991Y-70804623D01*
X130516480Y-70767936D01*
X132068905Y-69215511D01*
X132131217Y-69181485D01*
X132202032Y-69186550D01*
X132258868Y-69229097D01*
X132283679Y-69295617D01*
X132284000Y-69304606D01*
X132284000Y-72014802D01*
X132283918Y-72015000D01*
X132284000Y-72015198D01*
X132284235Y-72015765D01*
X132285000Y-72016082D01*
X132285198Y-72016000D01*
X135684802Y-72016000D01*
X135685000Y-72016082D01*
X135685765Y-72015765D01*
X135686000Y-72015198D01*
X135686082Y-72015000D01*
X135686000Y-72014802D01*
X135686000Y-69015198D01*
X135686082Y-69015000D01*
X135685765Y-69014235D01*
X135685198Y-69014000D01*
X135685000Y-69013918D01*
X135684802Y-69014000D01*
X132574606Y-69014000D01*
X132506485Y-68993998D01*
X132459992Y-68940342D01*
X132449888Y-68870068D01*
X132479382Y-68805488D01*
X132485511Y-68798905D01*
X133017811Y-68266605D01*
X133080123Y-68232579D01*
X133106906Y-68229700D01*
X155154006Y-68229700D01*
X155222127Y-68249702D01*
X155250455Y-68274623D01*
X155297970Y-68331148D01*
X155346499Y-68363452D01*
X155404451Y-68402028D01*
X155417313Y-68410590D01*
X155554157Y-68453342D01*
X155563129Y-68453506D01*
X155563132Y-68453507D01*
X155628463Y-68454704D01*
X155697499Y-68455970D01*
X155706533Y-68453507D01*
X155827158Y-68420621D01*
X155827160Y-68420620D01*
X155835817Y-68418260D01*
X155957991Y-68343245D01*
X156054200Y-68236954D01*
X156116710Y-68107933D01*
X156140496Y-67966554D01*
X156140647Y-67954200D01*
X156120323Y-67812282D01*
X156060984Y-67681772D01*
X155994869Y-67605042D01*
X155973260Y-67579963D01*
X155973257Y-67579960D01*
X155967400Y-67573163D01*
X155847095Y-67495185D01*
X155709739Y-67454107D01*
X155700763Y-67454052D01*
X155700762Y-67454052D01*
X155640555Y-67453684D01*
X155566376Y-67453231D01*
X155428529Y-67492628D01*
X155307280Y-67569130D01*
X155301338Y-67575858D01*
X155301337Y-67575859D01*
X155248127Y-67636108D01*
X155188042Y-67673926D01*
X155153686Y-67678700D01*
X133078006Y-67678700D01*
X133009885Y-67658698D01*
X132963392Y-67605042D01*
X132953288Y-67534768D01*
X132982782Y-67470188D01*
X132988911Y-67463605D01*
X137263511Y-63189005D01*
X137325823Y-63154979D01*
X137352606Y-63152100D01*
X155715557Y-63152100D01*
X155740137Y-63154521D01*
X155742927Y-63155076D01*
X155742929Y-63155076D01*
X155755100Y-63157497D01*
X155767271Y-63155076D01*
X155770062Y-63154521D01*
X155792670Y-63150024D01*
X155862595Y-63136115D01*
X155953724Y-63075224D01*
X156014615Y-62984095D01*
X156025179Y-62930988D01*
X156030600Y-62903733D01*
X156030691Y-62903273D01*
X156063570Y-62840350D01*
X156125249Y-62805190D01*
X156154281Y-62801800D01*
X156353600Y-62801800D01*
X156421721Y-62821802D01*
X156468214Y-62875458D01*
X156479600Y-62927800D01*
X156479600Y-71331457D01*
X156477179Y-71356039D01*
X156474203Y-71371000D01*
X156479600Y-71398132D01*
X156479600Y-71398133D01*
X156495585Y-71478495D01*
X156502480Y-71488814D01*
X156521534Y-71517330D01*
X156521535Y-71517332D01*
X156538536Y-71542776D01*
X156549579Y-71559303D01*
X156549581Y-71559305D01*
X156556476Y-71569624D01*
X156566792Y-71576517D01*
X156566793Y-71576518D01*
X156569164Y-71578102D01*
X156588256Y-71593772D01*
X163082429Y-78087945D01*
X163098096Y-78107034D01*
X163106576Y-78119724D01*
X163129577Y-78135093D01*
X163129578Y-78135094D01*
X163197705Y-78180615D01*
X163305200Y-78201997D01*
X163320161Y-78199021D01*
X163344743Y-78196600D01*
X171449194Y-78196600D01*
X171517315Y-78216602D01*
X171538289Y-78233505D01*
X175246336Y-81941551D01*
X175280362Y-82003863D01*
X175281741Y-82050031D01*
X175278172Y-82072950D01*
X175278172Y-82072954D01*
X175276791Y-82081823D01*
X175277955Y-82090725D01*
X175277955Y-82090728D01*
X175279207Y-82100299D01*
X175295380Y-82223979D01*
X175298997Y-82232199D01*
X175342569Y-82331223D01*
X175353120Y-82355203D01*
X175358897Y-82362076D01*
X175358898Y-82362077D01*
X175417782Y-82432128D01*
X175445370Y-82464948D01*
X175558079Y-82539974D01*
X175558080Y-82539975D01*
X175564713Y-82544390D01*
X175564076Y-82545347D01*
X175610578Y-82587012D01*
X175629447Y-82655455D01*
X175608317Y-82723234D01*
X175592559Y-82742459D01*
X171450623Y-86884395D01*
X171388311Y-86918421D01*
X171361528Y-86921300D01*
X159875174Y-86921300D01*
X159864302Y-86920830D01*
X159839374Y-86918671D01*
X159773233Y-86892866D01*
X159750283Y-86869844D01*
X159735108Y-86850067D01*
X159735105Y-86850064D01*
X159730082Y-86843518D01*
X159604641Y-86747264D01*
X159458562Y-86686756D01*
X159301800Y-86666118D01*
X159145038Y-86686756D01*
X158998959Y-86747264D01*
X158873518Y-86843518D01*
X158777264Y-86968959D01*
X158716756Y-87115038D01*
X158696118Y-87271800D01*
X158716756Y-87428562D01*
X158777264Y-87574641D01*
X158873518Y-87700082D01*
X158998959Y-87796336D01*
X159145038Y-87856844D01*
X159301800Y-87877482D01*
X159309988Y-87876404D01*
X159309990Y-87876404D01*
X159361355Y-87869642D01*
X159431503Y-87880582D01*
X159484602Y-87927710D01*
X159503800Y-87994564D01*
X159503800Y-91158676D01*
X159501767Y-91177775D01*
X159501540Y-91182583D01*
X159499349Y-91192761D01*
X159500573Y-91203100D01*
X159502927Y-91222991D01*
X159503237Y-91228246D01*
X159503372Y-91228235D01*
X159503800Y-91233414D01*
X159503800Y-91238615D01*
X159504654Y-91243743D01*
X159504654Y-91243749D01*
X159506689Y-91255973D01*
X159507526Y-91261849D01*
X159511785Y-91297828D01*
X159513064Y-91308638D01*
X159516723Y-91316258D01*
X159518112Y-91324603D01*
X159523057Y-91333767D01*
X159540492Y-91366080D01*
X159543184Y-91371365D01*
X159563574Y-91413826D01*
X159566892Y-91417774D01*
X159568825Y-91419707D01*
X159570290Y-91421304D01*
X159570554Y-91421794D01*
X159570534Y-91421813D01*
X159570613Y-91421902D01*
X159573522Y-91427294D01*
X159581170Y-91434364D01*
X159581171Y-91434365D01*
X159609924Y-91460944D01*
X159613490Y-91464372D01*
X160096830Y-91947711D01*
X160575117Y-92425998D01*
X160587197Y-92440955D01*
X160590427Y-92444504D01*
X160596075Y-92453252D01*
X160604252Y-92459698D01*
X160619990Y-92472105D01*
X160623920Y-92475598D01*
X160624008Y-92475494D01*
X160627972Y-92478853D01*
X160631647Y-92482528D01*
X160635872Y-92485548D01*
X160635874Y-92485549D01*
X160645959Y-92492756D01*
X160650705Y-92496319D01*
X160687711Y-92525492D01*
X160686889Y-92526534D01*
X160729393Y-92569279D01*
X160744288Y-92638695D01*
X160719289Y-92705145D01*
X160689457Y-92733563D01*
X160550698Y-92827864D01*
X160536353Y-92837613D01*
X160533239Y-92840397D01*
X160533238Y-92840398D01*
X160333535Y-93018952D01*
X160313480Y-93036883D01*
X160118921Y-93263880D01*
X160116647Y-93267382D01*
X159959331Y-93509627D01*
X159956092Y-93514614D01*
X159954298Y-93518392D01*
X159954297Y-93518394D01*
X159946764Y-93534258D01*
X159827855Y-93784681D01*
X159826576Y-93788664D01*
X159826575Y-93788667D01*
X159764422Y-93982252D01*
X159736462Y-94069336D01*
X159735721Y-94073455D01*
X159684324Y-94359111D01*
X159683520Y-94363578D01*
X159683331Y-94367745D01*
X159683330Y-94367752D01*
X159670147Y-94658066D01*
X159669958Y-94662236D01*
X159670321Y-94666384D01*
X159670321Y-94666389D01*
X159690898Y-94901590D01*
X159676909Y-94971195D01*
X159627509Y-95022187D01*
X159558383Y-95038377D01*
X159491478Y-95014624D01*
X159476282Y-95001666D01*
X145226781Y-80752165D01*
X148742866Y-80752165D01*
X148777952Y-81009970D01*
X148850758Y-81259757D01*
X148959686Y-81496039D01*
X148962246Y-81499944D01*
X148962249Y-81499949D01*
X149099775Y-81709712D01*
X149099779Y-81709717D01*
X149102341Y-81713625D01*
X149161242Y-81779618D01*
X149269698Y-81901132D01*
X149275591Y-81907735D01*
X149475629Y-82074105D01*
X149698061Y-82209080D01*
X149702375Y-82210889D01*
X149702377Y-82210890D01*
X149933686Y-82307886D01*
X149933691Y-82307888D01*
X149938001Y-82309695D01*
X149942533Y-82310846D01*
X149942536Y-82310847D01*
X150022768Y-82331223D01*
X150190177Y-82373739D01*
X150406286Y-82395500D01*
X150561044Y-82395500D01*
X150563369Y-82395327D01*
X150563375Y-82395327D01*
X150749814Y-82381472D01*
X150749818Y-82381471D01*
X150754466Y-82381126D01*
X151008232Y-82323705D01*
X151020606Y-82318893D01*
X151246370Y-82231098D01*
X151246372Y-82231097D01*
X151250723Y-82229405D01*
X151286285Y-82209080D01*
X151334038Y-82181786D01*
X151476612Y-82100299D01*
X151680936Y-81939223D01*
X151859208Y-81749714D01*
X151972066Y-81587031D01*
X152004846Y-81539779D01*
X152004848Y-81539776D01*
X152007511Y-81535937D01*
X152025258Y-81499949D01*
X152120521Y-81306775D01*
X152120522Y-81306772D01*
X152122586Y-81302587D01*
X152135174Y-81263264D01*
X152200483Y-81059237D01*
X152201906Y-81054792D01*
X152243728Y-80797994D01*
X152244328Y-80752165D01*
X167792866Y-80752165D01*
X167827952Y-81009970D01*
X167900758Y-81259757D01*
X168009686Y-81496039D01*
X168012246Y-81499944D01*
X168012249Y-81499949D01*
X168149775Y-81709712D01*
X168149779Y-81709717D01*
X168152341Y-81713625D01*
X168211242Y-81779618D01*
X168319698Y-81901132D01*
X168325591Y-81907735D01*
X168525629Y-82074105D01*
X168748061Y-82209080D01*
X168752375Y-82210889D01*
X168752377Y-82210890D01*
X168983686Y-82307886D01*
X168983691Y-82307888D01*
X168988001Y-82309695D01*
X168992533Y-82310846D01*
X168992536Y-82310847D01*
X169072768Y-82331223D01*
X169240177Y-82373739D01*
X169456286Y-82395500D01*
X169611044Y-82395500D01*
X169613369Y-82395327D01*
X169613375Y-82395327D01*
X169799814Y-82381472D01*
X169799818Y-82381471D01*
X169804466Y-82381126D01*
X170058232Y-82323705D01*
X170070606Y-82318893D01*
X170296370Y-82231098D01*
X170296372Y-82231097D01*
X170300723Y-82229405D01*
X170336285Y-82209080D01*
X170384038Y-82181786D01*
X170526612Y-82100299D01*
X170730936Y-81939223D01*
X170909208Y-81749714D01*
X171022066Y-81587031D01*
X171054846Y-81539779D01*
X171054848Y-81539776D01*
X171057511Y-81535937D01*
X171075258Y-81499949D01*
X171170521Y-81306775D01*
X171170522Y-81306772D01*
X171172586Y-81302587D01*
X171185174Y-81263264D01*
X171250483Y-81059237D01*
X171251906Y-81054792D01*
X171293728Y-80797994D01*
X171297134Y-80537835D01*
X171262048Y-80280030D01*
X171189242Y-80030243D01*
X171080314Y-79793961D01*
X171051637Y-79750221D01*
X170940225Y-79580288D01*
X170940221Y-79580283D01*
X170937659Y-79576375D01*
X170764409Y-79382265D01*
X170564371Y-79215895D01*
X170341939Y-79080920D01*
X170337623Y-79079110D01*
X170106314Y-78982114D01*
X170106309Y-78982112D01*
X170101999Y-78980305D01*
X170097467Y-78979154D01*
X170097464Y-78979153D01*
X169972185Y-78947337D01*
X169849823Y-78916261D01*
X169633714Y-78894500D01*
X169478956Y-78894500D01*
X169476631Y-78894673D01*
X169476625Y-78894673D01*
X169290186Y-78908528D01*
X169290182Y-78908529D01*
X169285534Y-78908874D01*
X169031768Y-78966295D01*
X169027416Y-78967987D01*
X169027414Y-78967988D01*
X168793630Y-79058902D01*
X168793628Y-79058903D01*
X168789277Y-79060595D01*
X168785223Y-79062912D01*
X168785221Y-79062913D01*
X168749467Y-79083348D01*
X168563388Y-79189701D01*
X168359064Y-79350777D01*
X168180792Y-79540286D01*
X168032489Y-79754063D01*
X168030423Y-79758253D01*
X168030421Y-79758256D01*
X167935591Y-79950554D01*
X167917414Y-79987413D01*
X167915992Y-79991856D01*
X167915991Y-79991858D01*
X167877754Y-80111311D01*
X167838094Y-80235208D01*
X167823783Y-80323084D01*
X167803216Y-80449371D01*
X167796272Y-80492006D01*
X167792866Y-80752165D01*
X152244328Y-80752165D01*
X152247134Y-80537835D01*
X152212048Y-80280030D01*
X152139242Y-80030243D01*
X152030314Y-79793961D01*
X152001637Y-79750221D01*
X151890225Y-79580288D01*
X151890221Y-79580283D01*
X151887659Y-79576375D01*
X151714409Y-79382265D01*
X151514371Y-79215895D01*
X151291939Y-79080920D01*
X151287623Y-79079110D01*
X151056314Y-78982114D01*
X151056309Y-78982112D01*
X151051999Y-78980305D01*
X151047467Y-78979154D01*
X151047464Y-78979153D01*
X150922185Y-78947337D01*
X150799823Y-78916261D01*
X150583714Y-78894500D01*
X150428956Y-78894500D01*
X150426631Y-78894673D01*
X150426625Y-78894673D01*
X150240186Y-78908528D01*
X150240182Y-78908529D01*
X150235534Y-78908874D01*
X149981768Y-78966295D01*
X149977416Y-78967987D01*
X149977414Y-78967988D01*
X149743630Y-79058902D01*
X149743628Y-79058903D01*
X149739277Y-79060595D01*
X149735223Y-79062912D01*
X149735221Y-79062913D01*
X149699467Y-79083348D01*
X149513388Y-79189701D01*
X149309064Y-79350777D01*
X149130792Y-79540286D01*
X148982489Y-79754063D01*
X148980423Y-79758253D01*
X148980421Y-79758256D01*
X148885591Y-79950554D01*
X148867414Y-79987413D01*
X148865992Y-79991856D01*
X148865991Y-79991858D01*
X148827754Y-80111311D01*
X148788094Y-80235208D01*
X148773783Y-80323084D01*
X148753216Y-80449371D01*
X148746272Y-80492006D01*
X148742866Y-80752165D01*
X145226781Y-80752165D01*
X144834605Y-80359989D01*
X144800579Y-80297677D01*
X144797700Y-80270894D01*
X144797700Y-78212165D01*
X155092866Y-78212165D01*
X155127952Y-78469970D01*
X155200758Y-78719757D01*
X155309686Y-78956039D01*
X155312246Y-78959944D01*
X155312249Y-78959949D01*
X155449775Y-79169712D01*
X155449779Y-79169717D01*
X155452341Y-79173625D01*
X155625591Y-79367735D01*
X155825629Y-79534105D01*
X156048061Y-79669080D01*
X156052375Y-79670889D01*
X156052377Y-79670890D01*
X156283686Y-79767886D01*
X156283691Y-79767888D01*
X156288001Y-79769695D01*
X156292533Y-79770846D01*
X156292536Y-79770847D01*
X156383549Y-79793961D01*
X156540177Y-79833739D01*
X156756286Y-79855500D01*
X156911044Y-79855500D01*
X156913369Y-79855327D01*
X156913375Y-79855327D01*
X157099814Y-79841472D01*
X157099818Y-79841471D01*
X157104466Y-79841126D01*
X157358232Y-79783705D01*
X157362586Y-79782012D01*
X157596370Y-79691098D01*
X157596372Y-79691097D01*
X157600723Y-79689405D01*
X157636285Y-79669080D01*
X157791638Y-79580288D01*
X157826612Y-79560299D01*
X158030936Y-79399223D01*
X158209208Y-79209714D01*
X158357511Y-78995937D01*
X158375258Y-78959949D01*
X158470521Y-78766775D01*
X158470522Y-78766772D01*
X158472586Y-78762587D01*
X158551906Y-78514792D01*
X158593728Y-78257994D01*
X158597134Y-77997835D01*
X158562048Y-77740030D01*
X158489242Y-77490243D01*
X158484881Y-77480782D01*
X158448183Y-77401180D01*
X158380314Y-77253961D01*
X158356905Y-77218256D01*
X158240225Y-77040288D01*
X158240221Y-77040283D01*
X158237659Y-77036375D01*
X158092844Y-76874123D01*
X158062406Y-76809983D01*
X158071477Y-76739569D01*
X158117178Y-76685236D01*
X158174880Y-76664793D01*
X158211636Y-76661286D01*
X158324046Y-76650561D01*
X158329802Y-76648872D01*
X158329804Y-76648872D01*
X158437406Y-76617305D01*
X158525549Y-76591447D01*
X158639048Y-76532991D01*
X158706908Y-76498041D01*
X158706911Y-76498039D01*
X158712239Y-76495295D01*
X158788829Y-76435133D01*
X158872662Y-76369282D01*
X158872667Y-76369278D01*
X158877379Y-76365576D01*
X158886840Y-76354673D01*
X159011079Y-76211502D01*
X159011083Y-76211497D01*
X159015010Y-76206971D01*
X159120166Y-76025201D01*
X159189053Y-75826826D01*
X159191167Y-75812248D01*
X159218325Y-75624944D01*
X159218325Y-75624941D01*
X159219186Y-75619004D01*
X159209477Y-75409233D01*
X159160276Y-75205082D01*
X159126692Y-75131216D01*
X159087142Y-75044232D01*
X159073360Y-75013919D01*
X158951863Y-74842640D01*
X158839087Y-74734681D01*
X158804499Y-74701570D01*
X158800169Y-74697425D01*
X158729080Y-74651523D01*
X158628791Y-74586767D01*
X158628788Y-74586766D01*
X158623754Y-74583515D01*
X158618191Y-74581273D01*
X158434545Y-74507261D01*
X158434542Y-74507260D01*
X158428981Y-74505019D01*
X158423100Y-74503871D01*
X158423095Y-74503869D01*
X158227324Y-74465638D01*
X158227321Y-74465638D01*
X158222878Y-74464770D01*
X158217357Y-74464500D01*
X158062531Y-74464500D01*
X157905954Y-74479439D01*
X157900198Y-74481128D01*
X157900196Y-74481128D01*
X157822679Y-74503869D01*
X157704451Y-74538553D01*
X157621505Y-74581273D01*
X157523092Y-74631959D01*
X157523089Y-74631961D01*
X157517761Y-74634705D01*
X157501358Y-74647590D01*
X157357338Y-74760718D01*
X157357333Y-74760722D01*
X157352621Y-74764424D01*
X157348690Y-74768954D01*
X157348689Y-74768955D01*
X157218921Y-74918498D01*
X157218917Y-74918503D01*
X157214990Y-74923029D01*
X157109834Y-75104799D01*
X157040947Y-75303174D01*
X157040086Y-75309109D01*
X157040086Y-75309111D01*
X157024701Y-75415223D01*
X157010814Y-75510996D01*
X157020523Y-75720767D01*
X157021927Y-75726592D01*
X157021927Y-75726593D01*
X157064456Y-75903058D01*
X157069724Y-75924918D01*
X157072206Y-75930376D01*
X157072207Y-75930380D01*
X157117682Y-76030397D01*
X157156640Y-76116081D01*
X157160107Y-76120968D01*
X157195585Y-76170983D01*
X157218683Y-76238117D01*
X157201819Y-76307082D01*
X157150347Y-76355981D01*
X157080192Y-76369249D01*
X156936855Y-76354816D01*
X156936849Y-76354816D01*
X156933714Y-76354500D01*
X156778956Y-76354500D01*
X156776631Y-76354673D01*
X156776625Y-76354673D01*
X156590186Y-76368528D01*
X156590182Y-76368529D01*
X156585534Y-76368874D01*
X156331768Y-76426295D01*
X156327416Y-76427987D01*
X156327414Y-76427988D01*
X156093630Y-76518902D01*
X156093628Y-76518903D01*
X156089277Y-76520595D01*
X156085223Y-76522912D01*
X156085221Y-76522913D01*
X156043979Y-76546485D01*
X155863388Y-76649701D01*
X155659064Y-76810777D01*
X155480792Y-77000286D01*
X155453042Y-77040288D01*
X155335820Y-77209262D01*
X155332489Y-77214063D01*
X155330423Y-77218253D01*
X155330421Y-77218256D01*
X155221117Y-77439905D01*
X155217414Y-77447413D01*
X155215992Y-77451856D01*
X155215991Y-77451858D01*
X155183192Y-77554321D01*
X155138094Y-77695208D01*
X155096272Y-77952006D01*
X155092866Y-78212165D01*
X144797700Y-78212165D01*
X144797700Y-76818643D01*
X144800121Y-76794061D01*
X144800676Y-76791271D01*
X144803097Y-76779100D01*
X144781715Y-76671605D01*
X144736194Y-76603478D01*
X144736193Y-76603477D01*
X144720824Y-76580476D01*
X144708136Y-76571998D01*
X144689044Y-76556328D01*
X143643712Y-75510996D01*
X146850814Y-75510996D01*
X146860523Y-75720767D01*
X146861927Y-75726592D01*
X146861927Y-75726593D01*
X146904456Y-75903058D01*
X146909724Y-75924918D01*
X146912206Y-75930376D01*
X146912207Y-75930380D01*
X146957682Y-76030397D01*
X146996640Y-76116081D01*
X147118137Y-76287360D01*
X147122464Y-76291502D01*
X147234864Y-76399101D01*
X147269831Y-76432575D01*
X147274866Y-76435826D01*
X147441209Y-76543233D01*
X147441212Y-76543234D01*
X147446246Y-76546485D01*
X147451809Y-76548727D01*
X147635455Y-76622739D01*
X147635458Y-76622740D01*
X147641019Y-76624981D01*
X147646900Y-76626129D01*
X147646905Y-76626131D01*
X147842676Y-76664362D01*
X147842679Y-76664362D01*
X147847122Y-76665230D01*
X147852643Y-76665500D01*
X148007469Y-76665500D01*
X148164046Y-76650561D01*
X148169802Y-76648872D01*
X148169804Y-76648872D01*
X148277406Y-76617305D01*
X148365549Y-76591447D01*
X148479048Y-76532991D01*
X148546908Y-76498041D01*
X148546911Y-76498039D01*
X148552239Y-76495295D01*
X148628829Y-76435133D01*
X148712662Y-76369282D01*
X148712667Y-76369278D01*
X148717379Y-76365576D01*
X148726840Y-76354673D01*
X148851079Y-76211502D01*
X148851083Y-76211497D01*
X148855010Y-76206971D01*
X148960166Y-76025201D01*
X149029053Y-75826826D01*
X149031167Y-75812248D01*
X149058325Y-75624944D01*
X149058325Y-75624941D01*
X149059186Y-75619004D01*
X149058873Y-75612236D01*
X150779958Y-75612236D01*
X150780321Y-75616384D01*
X150780321Y-75616389D01*
X150783571Y-75653538D01*
X150806014Y-75910065D01*
X150871232Y-76201832D01*
X150872676Y-76205756D01*
X150872676Y-76205757D01*
X150906817Y-76298549D01*
X150974464Y-76482410D01*
X150976415Y-76486110D01*
X150976417Y-76486115D01*
X151111945Y-76743166D01*
X151113898Y-76746870D01*
X151287084Y-76990565D01*
X151389031Y-77099890D01*
X151439196Y-77153685D01*
X151490979Y-77209216D01*
X151722000Y-77398979D01*
X151976090Y-77556521D01*
X152248783Y-77679074D01*
X152423027Y-77731018D01*
X152531290Y-77763293D01*
X152531292Y-77763293D01*
X152535289Y-77764485D01*
X152539409Y-77765138D01*
X152539411Y-77765138D01*
X152657423Y-77783829D01*
X152830575Y-77811254D01*
X152873135Y-77813187D01*
X152922659Y-77815436D01*
X152922678Y-77815436D01*
X152924078Y-77815500D01*
X153110834Y-77815500D01*
X153333309Y-77800723D01*
X153626377Y-77741630D01*
X153909056Y-77644296D01*
X153912789Y-77642427D01*
X153912793Y-77642425D01*
X154172640Y-77512303D01*
X154172642Y-77512302D01*
X154176378Y-77510431D01*
X154423647Y-77342387D01*
X154646520Y-77143117D01*
X154841079Y-76916120D01*
X154931924Y-76776232D01*
X155001629Y-76668896D01*
X155001632Y-76668891D01*
X155003908Y-76665386D01*
X155010948Y-76650561D01*
X155078255Y-76508811D01*
X155132145Y-76395319D01*
X155134065Y-76389341D01*
X155222258Y-76114651D01*
X155222258Y-76114650D01*
X155223538Y-76110664D01*
X155259631Y-75910065D01*
X155275741Y-75820531D01*
X155275742Y-75820526D01*
X155276480Y-75816422D01*
X155276981Y-75805409D01*
X155289853Y-75521934D01*
X155289853Y-75521929D01*
X155290042Y-75517764D01*
X155288931Y-75505056D01*
X155279189Y-75393712D01*
X155263986Y-75219935D01*
X155198768Y-74928168D01*
X155095536Y-74647590D01*
X155090696Y-74638409D01*
X154958055Y-74386834D01*
X154958054Y-74386833D01*
X154956102Y-74383130D01*
X154782916Y-74139435D01*
X154579021Y-73920784D01*
X154348000Y-73731021D01*
X154093910Y-73573479D01*
X153821217Y-73450926D01*
X153565458Y-73374681D01*
X153538710Y-73366707D01*
X153538708Y-73366707D01*
X153534711Y-73365515D01*
X153530591Y-73364862D01*
X153530589Y-73364862D01*
X153412577Y-73346171D01*
X153239425Y-73318746D01*
X153196865Y-73316813D01*
X153147341Y-73314564D01*
X153147322Y-73314564D01*
X153145922Y-73314500D01*
X152959166Y-73314500D01*
X152736691Y-73329277D01*
X152443623Y-73388370D01*
X152160944Y-73485704D01*
X152157211Y-73487573D01*
X152157207Y-73487575D01*
X151981268Y-73575679D01*
X151893622Y-73619569D01*
X151646353Y-73787613D01*
X151423480Y-73986883D01*
X151228921Y-74213880D01*
X151066092Y-74464614D01*
X151064298Y-74468392D01*
X151064297Y-74468394D01*
X151047452Y-74503869D01*
X150937855Y-74734681D01*
X150936576Y-74738664D01*
X150936575Y-74738667D01*
X150874501Y-74932005D01*
X150846462Y-75019336D01*
X150832972Y-75094311D01*
X150794324Y-75309111D01*
X150793520Y-75313578D01*
X150793331Y-75317745D01*
X150793330Y-75317752D01*
X150780190Y-75607126D01*
X150779958Y-75612236D01*
X149058873Y-75612236D01*
X149049477Y-75409233D01*
X149000276Y-75205082D01*
X148966692Y-75131216D01*
X148927142Y-75044232D01*
X148913360Y-75013919D01*
X148791863Y-74842640D01*
X148679087Y-74734681D01*
X148644499Y-74701570D01*
X148640169Y-74697425D01*
X148569080Y-74651523D01*
X148468791Y-74586767D01*
X148468788Y-74586766D01*
X148463754Y-74583515D01*
X148458191Y-74581273D01*
X148274545Y-74507261D01*
X148274542Y-74507260D01*
X148268981Y-74505019D01*
X148263100Y-74503871D01*
X148263095Y-74503869D01*
X148067324Y-74465638D01*
X148067321Y-74465638D01*
X148062878Y-74464770D01*
X148057357Y-74464500D01*
X147902531Y-74464500D01*
X147745954Y-74479439D01*
X147740198Y-74481128D01*
X147740196Y-74481128D01*
X147662679Y-74503869D01*
X147544451Y-74538553D01*
X147461505Y-74581273D01*
X147363092Y-74631959D01*
X147363089Y-74631961D01*
X147357761Y-74634705D01*
X147341358Y-74647590D01*
X147197338Y-74760718D01*
X147197333Y-74760722D01*
X147192621Y-74764424D01*
X147188690Y-74768954D01*
X147188689Y-74768955D01*
X147058921Y-74918498D01*
X147058917Y-74918503D01*
X147054990Y-74923029D01*
X146949834Y-75104799D01*
X146880947Y-75303174D01*
X146880086Y-75309109D01*
X146880086Y-75309111D01*
X146864701Y-75415223D01*
X146850814Y-75510996D01*
X143643712Y-75510996D01*
X140147716Y-72015000D01*
X151333918Y-72015000D01*
X151334000Y-72015198D01*
X151334235Y-72015765D01*
X151335000Y-72016082D01*
X151335198Y-72016000D01*
X154734802Y-72016000D01*
X154735000Y-72016082D01*
X154735765Y-72015765D01*
X154736000Y-72015198D01*
X154736082Y-72015000D01*
X154736000Y-72014802D01*
X154736000Y-69015198D01*
X154736082Y-69015000D01*
X154735765Y-69014235D01*
X154735198Y-69014000D01*
X154735000Y-69013918D01*
X154734802Y-69014000D01*
X151335198Y-69014000D01*
X151335000Y-69013918D01*
X151334802Y-69014000D01*
X151334235Y-69014235D01*
X151333918Y-69015000D01*
X151334000Y-69015198D01*
X151334000Y-72014802D01*
X151333918Y-72015000D01*
X140147716Y-72015000D01*
X138820224Y-70687508D01*
X138786198Y-70625196D01*
X138785065Y-70577508D01*
X138788389Y-70557749D01*
X138789196Y-70552954D01*
X138789347Y-70540600D01*
X138772382Y-70422134D01*
X138770296Y-70407568D01*
X138770295Y-70407565D01*
X138769023Y-70398682D01*
X138709684Y-70268172D01*
X138691298Y-70246834D01*
X138621960Y-70166363D01*
X138621957Y-70166360D01*
X138616100Y-70159563D01*
X138495795Y-70081585D01*
X138358439Y-70040507D01*
X138349463Y-70040452D01*
X138349462Y-70040452D01*
X138289255Y-70040084D01*
X138215076Y-70039631D01*
X138077229Y-70079028D01*
X137955980Y-70155530D01*
X137861077Y-70262988D01*
X137800147Y-70392763D01*
X137778091Y-70534423D01*
X137779255Y-70543325D01*
X137779255Y-70543328D01*
X137780514Y-70552954D01*
X137796680Y-70676579D01*
X137854420Y-70807803D01*
X137860197Y-70814676D01*
X137860198Y-70814677D01*
X137940890Y-70910672D01*
X137946670Y-70917548D01*
X138066013Y-70996990D01*
X138202857Y-71039742D01*
X138211829Y-71039906D01*
X138211832Y-71039907D01*
X138284876Y-71041246D01*
X138345948Y-71042365D01*
X138413690Y-71063612D01*
X138432733Y-71079249D01*
X144209795Y-76856311D01*
X144243821Y-76918623D01*
X144246700Y-76945406D01*
X144246700Y-80397657D01*
X144244279Y-80422239D01*
X144241303Y-80437200D01*
X144246700Y-80464332D01*
X144246700Y-80464333D01*
X144262685Y-80544695D01*
X144323576Y-80635824D01*
X144333892Y-80642717D01*
X144333893Y-80642718D01*
X144336264Y-80644302D01*
X144355356Y-80659972D01*
X156994789Y-93299405D01*
X157028815Y-93361717D01*
X157023750Y-93432532D01*
X156981203Y-93489368D01*
X156914683Y-93514179D01*
X156905694Y-93514500D01*
X156792531Y-93514500D01*
X156635954Y-93529439D01*
X156630198Y-93531128D01*
X156630196Y-93531128D01*
X156619527Y-93534258D01*
X156434451Y-93588553D01*
X156379731Y-93616736D01*
X156253092Y-93681959D01*
X156253089Y-93681961D01*
X156247761Y-93684705D01*
X156231358Y-93697590D01*
X156087338Y-93810718D01*
X156087333Y-93810722D01*
X156082621Y-93814424D01*
X156078690Y-93818954D01*
X156078689Y-93818955D01*
X155948921Y-93968498D01*
X155948917Y-93968503D01*
X155944990Y-93973029D01*
X155839834Y-94154799D01*
X155770947Y-94353174D01*
X155770086Y-94359109D01*
X155770086Y-94359111D01*
X155751704Y-94485893D01*
X155740814Y-94560996D01*
X155750523Y-94770767D01*
X155751927Y-94776592D01*
X155751927Y-94776593D01*
X155776084Y-94876826D01*
X155799724Y-94974918D01*
X155802206Y-94980376D01*
X155802207Y-94980380D01*
X155845320Y-95075201D01*
X155886640Y-95166081D01*
X156008137Y-95337360D01*
X156012464Y-95341502D01*
X156124864Y-95449101D01*
X156159831Y-95482575D01*
X156164866Y-95485826D01*
X156331209Y-95593233D01*
X156331212Y-95593234D01*
X156336246Y-95596485D01*
X156341809Y-95598727D01*
X156525455Y-95672739D01*
X156525458Y-95672740D01*
X156531019Y-95674981D01*
X156536900Y-95676129D01*
X156536905Y-95676131D01*
X156732676Y-95714362D01*
X156732679Y-95714362D01*
X156737122Y-95715230D01*
X156742643Y-95715500D01*
X156897469Y-95715500D01*
X157054046Y-95700561D01*
X157059802Y-95698872D01*
X157059804Y-95698872D01*
X157225303Y-95650320D01*
X157255549Y-95641447D01*
X157393116Y-95570595D01*
X157436908Y-95548041D01*
X157436911Y-95548039D01*
X157442239Y-95545295D01*
X157517947Y-95485826D01*
X157602662Y-95419282D01*
X157602667Y-95419278D01*
X157607379Y-95415576D01*
X157616840Y-95404673D01*
X157741079Y-95261502D01*
X157741083Y-95261497D01*
X157745010Y-95256971D01*
X157850166Y-95075201D01*
X157919053Y-94876826D01*
X157935235Y-94765223D01*
X157948325Y-94674944D01*
X157948325Y-94674941D01*
X157949186Y-94669004D01*
X157944075Y-94558571D01*
X157960906Y-94489599D01*
X158012355Y-94440675D01*
X158082087Y-94427333D01*
X158147962Y-94453809D01*
X158159035Y-94463651D01*
X163483529Y-99788145D01*
X163499196Y-99807234D01*
X163507676Y-99819924D01*
X163530677Y-99835293D01*
X163530678Y-99835294D01*
X163549685Y-99847994D01*
X163598805Y-99880815D01*
X163643644Y-99889734D01*
X163679160Y-99896799D01*
X163679165Y-99896800D01*
X163679168Y-99896800D01*
X163679176Y-99896801D01*
X163706300Y-99902196D01*
X163721257Y-99899221D01*
X163745837Y-99896800D01*
X168355294Y-99896800D01*
X168423415Y-99916802D01*
X168444389Y-99933705D01*
X184584182Y-116073498D01*
X184618208Y-116135810D01*
X184620023Y-116146256D01*
X184637980Y-116283579D01*
X184695720Y-116414803D01*
X184787970Y-116524548D01*
X184795447Y-116529525D01*
X184898141Y-116597885D01*
X184943764Y-116652283D01*
X184952734Y-116722710D01*
X184917417Y-116791867D01*
X182617589Y-119091695D01*
X182555277Y-119125721D01*
X182528494Y-119128600D01*
X166971274Y-119128600D01*
X166903153Y-119108598D01*
X166856660Y-119054942D01*
X166846556Y-118984668D01*
X166849863Y-118970276D01*
X166852210Y-118965433D01*
X166875996Y-118824054D01*
X166876147Y-118811700D01*
X166855823Y-118669782D01*
X166796484Y-118539272D01*
X166730283Y-118462442D01*
X166708760Y-118437463D01*
X166708757Y-118437460D01*
X166702900Y-118430663D01*
X166582595Y-118352685D01*
X166445239Y-118311607D01*
X166436263Y-118311552D01*
X166436262Y-118311552D01*
X166376055Y-118311184D01*
X166301876Y-118310731D01*
X166164029Y-118350128D01*
X166042780Y-118426630D01*
X166009417Y-118464407D01*
X165983717Y-118493507D01*
X165923631Y-118531326D01*
X165889275Y-118536100D01*
X160352593Y-118536100D01*
X160284472Y-118516098D01*
X160237979Y-118462442D01*
X160227875Y-118392168D01*
X160257369Y-118327588D01*
X160319451Y-118288537D01*
X160359858Y-118277521D01*
X160359860Y-118277520D01*
X160368517Y-118275160D01*
X160490691Y-118200145D01*
X160586900Y-118093854D01*
X160649410Y-117964833D01*
X160673196Y-117823454D01*
X160673347Y-117811100D01*
X160671192Y-117796050D01*
X160667747Y-117771992D01*
X160677891Y-117701723D01*
X160703380Y-117665036D01*
X165084144Y-113284272D01*
X165103236Y-113268602D01*
X165105607Y-113267018D01*
X165105608Y-113267017D01*
X165115924Y-113260124D01*
X165176815Y-113168995D01*
X165192800Y-113088633D01*
X165192800Y-113088632D01*
X165198197Y-113061500D01*
X165195221Y-113046537D01*
X165192800Y-113021957D01*
X165192800Y-101465643D01*
X165195221Y-101441061D01*
X165195776Y-101438271D01*
X165198197Y-101426100D01*
X165189202Y-101380880D01*
X165184628Y-101357885D01*
X165183953Y-101312398D01*
X165199389Y-101220649D01*
X165200196Y-101215854D01*
X165200347Y-101203500D01*
X165180023Y-101061582D01*
X165171253Y-101042292D01*
X165148438Y-100992114D01*
X165120684Y-100931072D01*
X165041223Y-100838853D01*
X165032960Y-100829263D01*
X165032957Y-100829260D01*
X165027100Y-100822463D01*
X164906795Y-100744485D01*
X164769439Y-100703407D01*
X164760463Y-100703352D01*
X164760462Y-100703352D01*
X164700255Y-100702984D01*
X164626076Y-100702531D01*
X164488229Y-100741928D01*
X164366980Y-100818430D01*
X164361038Y-100825158D01*
X164361037Y-100825159D01*
X164319529Y-100872159D01*
X164272077Y-100925888D01*
X164211147Y-101055663D01*
X164209766Y-101064535D01*
X164192832Y-101173298D01*
X164189091Y-101197323D01*
X164190255Y-101206225D01*
X164190255Y-101206228D01*
X164195860Y-101249089D01*
X164207680Y-101339479D01*
X164225897Y-101380880D01*
X164257733Y-101453232D01*
X164265420Y-101470703D01*
X164271197Y-101477576D01*
X164271198Y-101477577D01*
X164319948Y-101535572D01*
X164357670Y-101580448D01*
X164477013Y-101659890D01*
X164485588Y-101662569D01*
X164553373Y-101683746D01*
X164612430Y-101723151D01*
X164640808Y-101788230D01*
X164641800Y-101804013D01*
X164641800Y-101949619D01*
X164621798Y-102017740D01*
X164568142Y-102064233D01*
X164497868Y-102074337D01*
X164479705Y-102070338D01*
X164416739Y-102051507D01*
X164407763Y-102051452D01*
X164407762Y-102051452D01*
X164347555Y-102051084D01*
X164273376Y-102050631D01*
X164135529Y-102090028D01*
X164014280Y-102166530D01*
X163919377Y-102273988D01*
X163858447Y-102403763D01*
X163857066Y-102412635D01*
X163838696Y-102530620D01*
X163836391Y-102545423D01*
X163842133Y-102589333D01*
X163842472Y-102591923D01*
X163831470Y-102662062D01*
X163806630Y-102697354D01*
X159042789Y-107461195D01*
X158980477Y-107495221D01*
X158953694Y-107498100D01*
X135476306Y-107498100D01*
X135408185Y-107478098D01*
X135387211Y-107461195D01*
X130094569Y-102168553D01*
X130060543Y-102106241D01*
X130065608Y-102035426D01*
X130073729Y-102017892D01*
X130074620Y-102016301D01*
X130106610Y-101959179D01*
X130108466Y-101953712D01*
X130108468Y-101953707D01*
X130175675Y-101755721D01*
X130175676Y-101755716D01*
X130177531Y-101750252D01*
X130178359Y-101744543D01*
X130178360Y-101744538D01*
X130201430Y-101585425D01*
X130209191Y-101531898D01*
X130210843Y-101468800D01*
X130190654Y-101249089D01*
X130176439Y-101198684D01*
X130132334Y-101042300D01*
X130130765Y-101036736D01*
X130033180Y-100838853D01*
X130017930Y-100818430D01*
X129904620Y-100666691D01*
X129904620Y-100666690D01*
X129901167Y-100662067D01*
X129775649Y-100546039D01*
X129743389Y-100516218D01*
X129743386Y-100516216D01*
X129739149Y-100512299D01*
X129552550Y-100394564D01*
X129347621Y-100312806D01*
X129341961Y-100311680D01*
X129341957Y-100311679D01*
X129136891Y-100270889D01*
X129136888Y-100270889D01*
X129131224Y-100269762D01*
X129125449Y-100269686D01*
X129125445Y-100269686D01*
X129014704Y-100268237D01*
X128910606Y-100266874D01*
X128904909Y-100267853D01*
X128904908Y-100267853D01*
X128698854Y-100303259D01*
X128698853Y-100303259D01*
X128693157Y-100304238D01*
X128486157Y-100380604D01*
X128296541Y-100493414D01*
X128130657Y-100638890D01*
X127994063Y-100812160D01*
X127891331Y-101007420D01*
X127871754Y-101070468D01*
X127861136Y-101104664D01*
X127821833Y-101163789D01*
X127756803Y-101192280D01*
X127740803Y-101193300D01*
X123770299Y-101193300D01*
X123702178Y-101173298D01*
X123655685Y-101119642D01*
X123649034Y-101101513D01*
X123630765Y-101036736D01*
X123533180Y-100838853D01*
X123517930Y-100818430D01*
X123404620Y-100666691D01*
X123404620Y-100666690D01*
X123401167Y-100662067D01*
X123275649Y-100546039D01*
X123243389Y-100516218D01*
X123243386Y-100516216D01*
X123239149Y-100512299D01*
X123052550Y-100394564D01*
X122847621Y-100312806D01*
X122841961Y-100311680D01*
X122841957Y-100311679D01*
X122636891Y-100270889D01*
X122636888Y-100270889D01*
X122631224Y-100269762D01*
X122625449Y-100269686D01*
X122625445Y-100269686D01*
X122514704Y-100268237D01*
X122410606Y-100266874D01*
X122404909Y-100267853D01*
X122404908Y-100267853D01*
X122198854Y-100303259D01*
X122198853Y-100303259D01*
X122193157Y-100304238D01*
X121986157Y-100380604D01*
X121796541Y-100493414D01*
X121630657Y-100638890D01*
X121494063Y-100812160D01*
X121391331Y-101007420D01*
X121325903Y-101218133D01*
X121299970Y-101437240D01*
X121314400Y-101657404D01*
X121315821Y-101663000D01*
X121315822Y-101663005D01*
X121347626Y-101788230D01*
X121368711Y-101871252D01*
X121371128Y-101876494D01*
X121371128Y-101876495D01*
X121409246Y-101959179D01*
X121461083Y-102071621D01*
X121588422Y-102251802D01*
X121746464Y-102405761D01*
X121751260Y-102408966D01*
X121751263Y-102408968D01*
X121894084Y-102504397D01*
X121929917Y-102528340D01*
X121935220Y-102530618D01*
X121935223Y-102530620D01*
X122127329Y-102613155D01*
X122132636Y-102615435D01*
X122174028Y-102624801D01*
X122342195Y-102662854D01*
X122342201Y-102662855D01*
X122347832Y-102664129D01*
X122353603Y-102664356D01*
X122353605Y-102664356D01*
X122421411Y-102667020D01*
X122568298Y-102672791D01*
X122677475Y-102656961D01*
X122780938Y-102641960D01*
X122780943Y-102641959D01*
X122786652Y-102641131D01*
X122792116Y-102639276D01*
X122792121Y-102639275D01*
X122990107Y-102572068D01*
X122990112Y-102572066D01*
X122995579Y-102570210D01*
X123019132Y-102557020D01*
X123082564Y-102521496D01*
X123188084Y-102462402D01*
X123258590Y-102403763D01*
X123353286Y-102325004D01*
X123357718Y-102321318D01*
X123486455Y-102166530D01*
X123495108Y-102156126D01*
X123495110Y-102156123D01*
X123498802Y-102151684D01*
X123606610Y-101959179D01*
X123650529Y-101829798D01*
X123691365Y-101771723D01*
X123757117Y-101744944D01*
X123769841Y-101744300D01*
X127738469Y-101744300D01*
X127806590Y-101764302D01*
X127853083Y-101817958D01*
X127860592Y-101839284D01*
X127868711Y-101871252D01*
X127871128Y-101876494D01*
X127871128Y-101876495D01*
X127909246Y-101959179D01*
X127961083Y-102071621D01*
X128088422Y-102251802D01*
X128246464Y-102405761D01*
X128251260Y-102408966D01*
X128251263Y-102408968D01*
X128394084Y-102504397D01*
X128429917Y-102528340D01*
X128435220Y-102530618D01*
X128435223Y-102530620D01*
X128627329Y-102613155D01*
X128632636Y-102615435D01*
X128674028Y-102624801D01*
X128842195Y-102662854D01*
X128842201Y-102662855D01*
X128847832Y-102664129D01*
X128853603Y-102664356D01*
X128853605Y-102664356D01*
X128921411Y-102667020D01*
X129068298Y-102672791D01*
X129177475Y-102656961D01*
X129280938Y-102641960D01*
X129280943Y-102641959D01*
X129286652Y-102641131D01*
X129292116Y-102639276D01*
X129292121Y-102639275D01*
X129490107Y-102572068D01*
X129490112Y-102572066D01*
X129495579Y-102570210D01*
X129554292Y-102537329D01*
X129623501Y-102521496D01*
X129690283Y-102545593D01*
X129704953Y-102558169D01*
X135087229Y-107940445D01*
X135102896Y-107959534D01*
X135111376Y-107972224D01*
X135121689Y-107979115D01*
X135134377Y-107987593D01*
X135132788Y-107989970D01*
X135132790Y-107989971D01*
X135134378Y-107987594D01*
X135160532Y-108005069D01*
X135160534Y-108005072D01*
X135160535Y-108005071D01*
X135202505Y-108033115D01*
X135214674Y-108035536D01*
X135214675Y-108035536D01*
X135282867Y-108049100D01*
X135297828Y-108052076D01*
X135297829Y-108052076D01*
X135310000Y-108054497D01*
X135322171Y-108052076D01*
X135322173Y-108052076D01*
X135324963Y-108051521D01*
X135349543Y-108049100D01*
X158953694Y-108049100D01*
X159021815Y-108069102D01*
X159042789Y-108086005D01*
X160461195Y-109504411D01*
X160495221Y-109566723D01*
X160498100Y-109593506D01*
X160498100Y-112970538D01*
X160478098Y-113038659D01*
X160453764Y-113066491D01*
X160453470Y-113066741D01*
X160445880Y-113071530D01*
X160350977Y-113178988D01*
X160290047Y-113308763D01*
X160267991Y-113450423D01*
X160269155Y-113459325D01*
X160269155Y-113459328D01*
X160270414Y-113468954D01*
X160286580Y-113592579D01*
X160344320Y-113723803D01*
X160350097Y-113730676D01*
X160350098Y-113730677D01*
X160414603Y-113807415D01*
X160436570Y-113833548D01*
X160555913Y-113912990D01*
X160692757Y-113955742D01*
X160701729Y-113955906D01*
X160701732Y-113955907D01*
X160767063Y-113957104D01*
X160836099Y-113958370D01*
X160845133Y-113955907D01*
X160965758Y-113923021D01*
X160965760Y-113923020D01*
X160974417Y-113920660D01*
X161096591Y-113845645D01*
X161192800Y-113739354D01*
X161255310Y-113610333D01*
X161279096Y-113468954D01*
X161279247Y-113456600D01*
X161258923Y-113314682D01*
X161245097Y-113284272D01*
X161203300Y-113192346D01*
X161199584Y-113184172D01*
X161117262Y-113088633D01*
X161111859Y-113082362D01*
X161111857Y-113082360D01*
X161106000Y-113075563D01*
X161098469Y-113070682D01*
X161092271Y-113065275D01*
X161054086Y-113005422D01*
X161049100Y-112970326D01*
X161049100Y-109466742D01*
X161051521Y-109442162D01*
X161052076Y-109439372D01*
X161054497Y-109427200D01*
X161033116Y-109319706D01*
X160987594Y-109251578D01*
X160987593Y-109251577D01*
X160972224Y-109228576D01*
X160959536Y-109220098D01*
X160940444Y-109204428D01*
X159598711Y-107862695D01*
X159564685Y-107800383D01*
X159569750Y-107729568D01*
X159598711Y-107684505D01*
X164195125Y-103088091D01*
X164257437Y-103054065D01*
X164286528Y-103051207D01*
X164404499Y-103053370D01*
X164482659Y-103032061D01*
X164553641Y-103033440D01*
X164612610Y-103072977D01*
X164640842Y-103138119D01*
X164641800Y-103153624D01*
X164641800Y-112895194D01*
X164621798Y-112963315D01*
X164604895Y-112984289D01*
X162181369Y-115407815D01*
X162119057Y-115441841D01*
X162048242Y-115436776D01*
X161991406Y-115394229D01*
X161967266Y-115328869D01*
X161967047Y-115328900D01*
X161966901Y-115327882D01*
X161946723Y-115186982D01*
X161887384Y-115056472D01*
X161846930Y-115009523D01*
X161799660Y-114954663D01*
X161799657Y-114954660D01*
X161793800Y-114947863D01*
X161673495Y-114869885D01*
X161536139Y-114828807D01*
X161527163Y-114828752D01*
X161527162Y-114828752D01*
X161466955Y-114828384D01*
X161392776Y-114827931D01*
X161254929Y-114867328D01*
X161133680Y-114943830D01*
X161127738Y-114950558D01*
X161127737Y-114950559D01*
X161075662Y-115009523D01*
X161015577Y-115047341D01*
X160944583Y-115046671D01*
X160892126Y-115015210D01*
X156467524Y-110590608D01*
X156433498Y-110528296D01*
X156432365Y-110480608D01*
X156435689Y-110460849D01*
X156436496Y-110456054D01*
X156436647Y-110443700D01*
X156416323Y-110301782D01*
X156356984Y-110171272D01*
X156338598Y-110149934D01*
X156269260Y-110069463D01*
X156269257Y-110069460D01*
X156263400Y-110062663D01*
X156143095Y-109984685D01*
X156005739Y-109943607D01*
X155996763Y-109943552D01*
X155996762Y-109943552D01*
X155936555Y-109943184D01*
X155862376Y-109942731D01*
X155724529Y-109982128D01*
X155603280Y-110058630D01*
X155508377Y-110166088D01*
X155447447Y-110295863D01*
X155446066Y-110304735D01*
X155433008Y-110388604D01*
X155425391Y-110437523D01*
X155426555Y-110446425D01*
X155426555Y-110446428D01*
X155427814Y-110456054D01*
X155443980Y-110579679D01*
X155501720Y-110710903D01*
X155593970Y-110820648D01*
X155713313Y-110900090D01*
X155850157Y-110942842D01*
X155859129Y-110943006D01*
X155859132Y-110943007D01*
X155932176Y-110944346D01*
X155993248Y-110945465D01*
X156060990Y-110966712D01*
X156080033Y-110982349D01*
X160593428Y-115495744D01*
X160609098Y-115514836D01*
X160617576Y-115527524D01*
X160627889Y-115534415D01*
X160640577Y-115542893D01*
X160638988Y-115545270D01*
X160638990Y-115545271D01*
X160640578Y-115542894D01*
X160666732Y-115560369D01*
X160666734Y-115560372D01*
X160666735Y-115560371D01*
X160708705Y-115588415D01*
X160720874Y-115590836D01*
X160720875Y-115590836D01*
X160789067Y-115604400D01*
X160804028Y-115607376D01*
X160804029Y-115607376D01*
X160816200Y-115609797D01*
X160831161Y-115606821D01*
X160855743Y-115604400D01*
X160980406Y-115604400D01*
X161048527Y-115624402D01*
X161076855Y-115649323D01*
X161124370Y-115705848D01*
X161131847Y-115710825D01*
X161208245Y-115761680D01*
X161243713Y-115785290D01*
X161380557Y-115828042D01*
X161389529Y-115828206D01*
X161389532Y-115828207D01*
X161428252Y-115828916D01*
X161457866Y-115829459D01*
X161525608Y-115850706D01*
X161571110Y-115905205D01*
X161579924Y-115975652D01*
X161544651Y-116044533D01*
X160315185Y-117273999D01*
X160252873Y-117308025D01*
X160225321Y-117310902D01*
X160141314Y-117310389D01*
X160099076Y-117310131D01*
X159961229Y-117349528D01*
X159839980Y-117426030D01*
X159745077Y-117533488D01*
X159684147Y-117663263D01*
X159662091Y-117804923D01*
X159663255Y-117813825D01*
X159663255Y-117813828D01*
X159664514Y-117823454D01*
X159680680Y-117947079D01*
X159738420Y-118078303D01*
X159744197Y-118085176D01*
X159744198Y-118085177D01*
X159751492Y-118093854D01*
X159830670Y-118188048D01*
X159950013Y-118267490D01*
X159958588Y-118270169D01*
X160021530Y-118289833D01*
X160080587Y-118329238D01*
X160108965Y-118394317D01*
X160097653Y-118464407D01*
X160050244Y-118517254D01*
X159983957Y-118536100D01*
X155340406Y-118536100D01*
X155272285Y-118516098D01*
X155251311Y-118499195D01*
X149106924Y-112354808D01*
X149072898Y-112292496D01*
X149071765Y-112244808D01*
X149075089Y-112225049D01*
X149075896Y-112220254D01*
X149076047Y-112207900D01*
X149055723Y-112065982D01*
X148996384Y-111935472D01*
X148977998Y-111914134D01*
X148908660Y-111833663D01*
X148908657Y-111833660D01*
X148902800Y-111826863D01*
X148782495Y-111748885D01*
X148645139Y-111707807D01*
X148636163Y-111707752D01*
X148636162Y-111707752D01*
X148575955Y-111707384D01*
X148501776Y-111706931D01*
X148363929Y-111746328D01*
X148242680Y-111822830D01*
X148147777Y-111930288D01*
X148086847Y-112060063D01*
X148064791Y-112201723D01*
X148065955Y-112210625D01*
X148065955Y-112210628D01*
X148067214Y-112220254D01*
X148083380Y-112343879D01*
X148141120Y-112475103D01*
X148233370Y-112584848D01*
X148352713Y-112664290D01*
X148489557Y-112707042D01*
X148498529Y-112707206D01*
X148498532Y-112707207D01*
X148571576Y-112708546D01*
X148632648Y-112709665D01*
X148700390Y-112730912D01*
X148719433Y-112746549D01*
X154886389Y-118913505D01*
X154920415Y-118975817D01*
X154915350Y-119046632D01*
X154872803Y-119103468D01*
X154806283Y-119128279D01*
X154797294Y-119128600D01*
X150816406Y-119128600D01*
X150748285Y-119108598D01*
X150727311Y-119091695D01*
X141668772Y-110033156D01*
X141653102Y-110014064D01*
X141651515Y-110011689D01*
X141644624Y-110001376D01*
X141621623Y-109986007D01*
X141623212Y-109983630D01*
X141623210Y-109983629D01*
X141621622Y-109986006D01*
X141595468Y-109968531D01*
X141595466Y-109968528D01*
X141595465Y-109968529D01*
X141563811Y-109947378D01*
X141553495Y-109940485D01*
X141541326Y-109938064D01*
X141541325Y-109938064D01*
X141473133Y-109924500D01*
X141458172Y-109921524D01*
X141458171Y-109921524D01*
X141446000Y-109919103D01*
X141433829Y-109921524D01*
X141431039Y-109922079D01*
X141406457Y-109924500D01*
X130270199Y-109924500D01*
X130202078Y-109904498D01*
X130155585Y-109850842D01*
X130148934Y-109832713D01*
X130130665Y-109767936D01*
X130033080Y-109570053D01*
X129935496Y-109439372D01*
X129904520Y-109397891D01*
X129904520Y-109397890D01*
X129901067Y-109393267D01*
X129739049Y-109243499D01*
X129552450Y-109125764D01*
X129347521Y-109044006D01*
X129341861Y-109042880D01*
X129341857Y-109042879D01*
X129136791Y-109002089D01*
X129136788Y-109002089D01*
X129131124Y-109000962D01*
X129125349Y-109000886D01*
X129125345Y-109000886D01*
X129014604Y-108999437D01*
X128910506Y-108998074D01*
X128904809Y-108999053D01*
X128904808Y-108999053D01*
X128698754Y-109034459D01*
X128698753Y-109034459D01*
X128693057Y-109035438D01*
X128486057Y-109111804D01*
X128481096Y-109114756D01*
X128481095Y-109114756D01*
X128304032Y-109220098D01*
X128296441Y-109224614D01*
X128130557Y-109370090D01*
X127993963Y-109543360D01*
X127891231Y-109738620D01*
X127889518Y-109744138D01*
X127861036Y-109835864D01*
X127821733Y-109894989D01*
X127756703Y-109923480D01*
X127740703Y-109924500D01*
X123770199Y-109924500D01*
X123702078Y-109904498D01*
X123655585Y-109850842D01*
X123648934Y-109832713D01*
X123630665Y-109767936D01*
X123533080Y-109570053D01*
X123435496Y-109439372D01*
X123404520Y-109397891D01*
X123404520Y-109397890D01*
X123401067Y-109393267D01*
X123239049Y-109243499D01*
X123052450Y-109125764D01*
X122847521Y-109044006D01*
X122841861Y-109042880D01*
X122841857Y-109042879D01*
X122636791Y-109002089D01*
X122636788Y-109002089D01*
X122631124Y-109000962D01*
X122625349Y-109000886D01*
X122625345Y-109000886D01*
X122514604Y-108999437D01*
X122410506Y-108998074D01*
X122404809Y-108999053D01*
X122404808Y-108999053D01*
X122198754Y-109034459D01*
X122198753Y-109034459D01*
X122193057Y-109035438D01*
X121986057Y-109111804D01*
X121981096Y-109114756D01*
X121981095Y-109114756D01*
X121804032Y-109220098D01*
X121796441Y-109224614D01*
X121630557Y-109370090D01*
X121493963Y-109543360D01*
X121391231Y-109738620D01*
X121325803Y-109949333D01*
X121299870Y-110168440D01*
X121314300Y-110388604D01*
X121315721Y-110394200D01*
X121315722Y-110394205D01*
X121353936Y-110544671D01*
X121368611Y-110602452D01*
X121371028Y-110607694D01*
X121371028Y-110607695D01*
X121409146Y-110690379D01*
X121460983Y-110802821D01*
X121588322Y-110983002D01*
X121746364Y-111136961D01*
X121751160Y-111140166D01*
X121751163Y-111140168D01*
X121835361Y-111196427D01*
X121929817Y-111259540D01*
X121935120Y-111261818D01*
X121935123Y-111261820D01*
X122127229Y-111344355D01*
X122132536Y-111346635D01*
X122212188Y-111364658D01*
X122342095Y-111394054D01*
X122342101Y-111394055D01*
X122347732Y-111395329D01*
X122353503Y-111395556D01*
X122353505Y-111395556D01*
X122421311Y-111398220D01*
X122568198Y-111403991D01*
X122677375Y-111388161D01*
X122780838Y-111373160D01*
X122780843Y-111373159D01*
X122786552Y-111372331D01*
X122792016Y-111370476D01*
X122792021Y-111370475D01*
X122990007Y-111303268D01*
X122990012Y-111303266D01*
X122995479Y-111301410D01*
X123187984Y-111193602D01*
X123357618Y-111052518D01*
X123428983Y-110966712D01*
X123495008Y-110887326D01*
X123495010Y-110887323D01*
X123498702Y-110882884D01*
X123563706Y-110766812D01*
X123603686Y-110695422D01*
X123603687Y-110695420D01*
X123606510Y-110690379D01*
X123650429Y-110560998D01*
X123691265Y-110502923D01*
X123757017Y-110476144D01*
X123769741Y-110475500D01*
X127738369Y-110475500D01*
X127806490Y-110495502D01*
X127852983Y-110549158D01*
X127860492Y-110570484D01*
X127868611Y-110602452D01*
X127871028Y-110607694D01*
X127871028Y-110607695D01*
X127909146Y-110690379D01*
X127960983Y-110802821D01*
X128088322Y-110983002D01*
X128246364Y-111136961D01*
X128251160Y-111140166D01*
X128251163Y-111140168D01*
X128335361Y-111196427D01*
X128429817Y-111259540D01*
X128435120Y-111261818D01*
X128435123Y-111261820D01*
X128627229Y-111344355D01*
X128632536Y-111346635D01*
X128712188Y-111364658D01*
X128842095Y-111394054D01*
X128842101Y-111394055D01*
X128847732Y-111395329D01*
X128853503Y-111395556D01*
X128853505Y-111395556D01*
X128921311Y-111398220D01*
X129068198Y-111403991D01*
X129177375Y-111388161D01*
X129280838Y-111373160D01*
X129280843Y-111373159D01*
X129286552Y-111372331D01*
X129292016Y-111370476D01*
X129292021Y-111370475D01*
X129490007Y-111303268D01*
X129490012Y-111303266D01*
X129495479Y-111301410D01*
X129687984Y-111193602D01*
X129857618Y-111052518D01*
X129928983Y-110966712D01*
X129995008Y-110887326D01*
X129995010Y-110887323D01*
X129998702Y-110882884D01*
X130063706Y-110766812D01*
X130103686Y-110695422D01*
X130103687Y-110695420D01*
X130106510Y-110690379D01*
X130150429Y-110560998D01*
X130191265Y-110502923D01*
X130257017Y-110476144D01*
X130269741Y-110475500D01*
X141279694Y-110475500D01*
X141347815Y-110495502D01*
X141368789Y-110512405D01*
X150427328Y-119570944D01*
X150442998Y-119590036D01*
X150451476Y-119602724D01*
X150461789Y-119609615D01*
X150474477Y-119618093D01*
X150472888Y-119620470D01*
X150472890Y-119620471D01*
X150474478Y-119618094D01*
X150500632Y-119635569D01*
X150500634Y-119635572D01*
X150500635Y-119635571D01*
X150542605Y-119663615D01*
X150554774Y-119666036D01*
X150554775Y-119666036D01*
X150622967Y-119679600D01*
X150637928Y-119682576D01*
X150637929Y-119682576D01*
X150650100Y-119684997D01*
X150665061Y-119682021D01*
X150689643Y-119679600D01*
X159380406Y-119679600D01*
X159448527Y-119699602D01*
X159476855Y-119724523D01*
X159524370Y-119781048D01*
X159643713Y-119860490D01*
X159780557Y-119903242D01*
X159789529Y-119903406D01*
X159789532Y-119903407D01*
X159854863Y-119904604D01*
X159923899Y-119905870D01*
X159932933Y-119903407D01*
X160053558Y-119870521D01*
X160053560Y-119870520D01*
X160062217Y-119868160D01*
X160184391Y-119793145D01*
X160249652Y-119721045D01*
X160310196Y-119683964D01*
X160343068Y-119679600D01*
X182655257Y-119679600D01*
X182679839Y-119682021D01*
X182694800Y-119684997D01*
X182721932Y-119679600D01*
X182721933Y-119679600D01*
X182802295Y-119663615D01*
X182844265Y-119635571D01*
X182844265Y-119635572D01*
X182844268Y-119635569D01*
X182870422Y-119618094D01*
X182872989Y-119621935D01*
X182872990Y-119621934D01*
X182870423Y-119618093D01*
X182883111Y-119609615D01*
X182893424Y-119602724D01*
X182901902Y-119590036D01*
X182917572Y-119570944D01*
X188360144Y-114128372D01*
X188379236Y-114112702D01*
X188381607Y-114111118D01*
X188381608Y-114111117D01*
X188391924Y-114104224D01*
X188452815Y-114013095D01*
X188468800Y-113932733D01*
X188474197Y-113905600D01*
X188471221Y-113890639D01*
X188468800Y-113866057D01*
X188468800Y-101041776D01*
X188488802Y-100973655D01*
X188511937Y-100947518D01*
X188516291Y-100944845D01*
X188612500Y-100838554D01*
X188675010Y-100709533D01*
X188698796Y-100568154D01*
X188698947Y-100555800D01*
X188678623Y-100413882D01*
X188663493Y-100380604D01*
X188648733Y-100348142D01*
X188619284Y-100283372D01*
X188598438Y-100259179D01*
X188531559Y-100181562D01*
X188531557Y-100181560D01*
X188525700Y-100174763D01*
X188518169Y-100169882D01*
X188511971Y-100164475D01*
X188473786Y-100104622D01*
X188468800Y-100069526D01*
X188468800Y-88487737D01*
X188471221Y-88463157D01*
X188471775Y-88460372D01*
X188474196Y-88448200D01*
X188468800Y-88421071D01*
X188468800Y-88421067D01*
X188452815Y-88340705D01*
X188446865Y-88331800D01*
X188428472Y-88304272D01*
X188407294Y-88272578D01*
X188407293Y-88272577D01*
X188398815Y-88259889D01*
X188391924Y-88249576D01*
X188379236Y-88241098D01*
X188360144Y-88225428D01*
X180219824Y-80085108D01*
X180185798Y-80022796D01*
X180184665Y-79975108D01*
X180187989Y-79955349D01*
X180188796Y-79950554D01*
X180188947Y-79938200D01*
X180175045Y-79841126D01*
X180169896Y-79805168D01*
X180169895Y-79805165D01*
X180168623Y-79796282D01*
X180163374Y-79784736D01*
X180113000Y-79673946D01*
X180109284Y-79665772D01*
X180035626Y-79580288D01*
X180021560Y-79563963D01*
X180021557Y-79563960D01*
X180015700Y-79557163D01*
X179974714Y-79530597D01*
X179902928Y-79484067D01*
X179902924Y-79484065D01*
X179895395Y-79479185D01*
X179894681Y-79478971D01*
X179844351Y-79434965D01*
X179824654Y-79366755D01*
X179844961Y-79298724D01*
X179861558Y-79278224D01*
X181699877Y-77439905D01*
X181762189Y-77405879D01*
X181788972Y-77403000D01*
X182725797Y-77403000D01*
X182793918Y-77423002D01*
X182825760Y-77452296D01*
X182847618Y-77480782D01*
X182973059Y-77577036D01*
X183119138Y-77637544D01*
X183275900Y-77658182D01*
X183284088Y-77657104D01*
X183424474Y-77638622D01*
X183432662Y-77637544D01*
X183578741Y-77577036D01*
X183704182Y-77480782D01*
X183800436Y-77355341D01*
X183860944Y-77209262D01*
X183861191Y-77207389D01*
X183892197Y-77153685D01*
X184416499Y-76629383D01*
X184431453Y-76617305D01*
X184435005Y-76614073D01*
X184443752Y-76608425D01*
X184462602Y-76584514D01*
X184466100Y-76580578D01*
X184465996Y-76580490D01*
X184469351Y-76576531D01*
X184473029Y-76572853D01*
X184476048Y-76568628D01*
X184476055Y-76568620D01*
X184483269Y-76558524D01*
X184486836Y-76553774D01*
X184509544Y-76524969D01*
X184509545Y-76524966D01*
X184515992Y-76516789D01*
X184518794Y-76508811D01*
X184523711Y-76501930D01*
X184537221Y-76456757D01*
X184539042Y-76451153D01*
X184542852Y-76440305D01*
X184554655Y-76406694D01*
X184555100Y-76401556D01*
X184555100Y-76398851D01*
X184555195Y-76396654D01*
X184555355Y-76396120D01*
X184555382Y-76396121D01*
X184555389Y-76396003D01*
X184557144Y-76390136D01*
X184555197Y-76340581D01*
X184555100Y-76335634D01*
X184555100Y-75866224D01*
X184557133Y-75847125D01*
X184557360Y-75842317D01*
X184559551Y-75832139D01*
X184555973Y-75801909D01*
X184555663Y-75796654D01*
X184555528Y-75796665D01*
X184555100Y-75791487D01*
X184555100Y-75786285D01*
X184552209Y-75768915D01*
X184551373Y-75763044D01*
X184547060Y-75726600D01*
X184547059Y-75726598D01*
X184545836Y-75716261D01*
X184542177Y-75708640D01*
X184540788Y-75700297D01*
X184535843Y-75691132D01*
X184518413Y-75658828D01*
X184515718Y-75653538D01*
X184498762Y-75618227D01*
X184498759Y-75618223D01*
X184495326Y-75611073D01*
X184492007Y-75607126D01*
X184490075Y-75605194D01*
X184488612Y-75603599D01*
X184488352Y-75603119D01*
X184488376Y-75603097D01*
X184488285Y-75602994D01*
X184485378Y-75597606D01*
X184448951Y-75563933D01*
X184445385Y-75560504D01*
X174924882Y-66040000D01*
X191684341Y-66040000D01*
X191704937Y-66275408D01*
X191706361Y-66280722D01*
X191706361Y-66280723D01*
X191762277Y-66489405D01*
X191766097Y-66503663D01*
X191865965Y-66717829D01*
X192001505Y-66911401D01*
X192168599Y-67078495D01*
X192362171Y-67214035D01*
X192367149Y-67216356D01*
X192367152Y-67216358D01*
X192571355Y-67311580D01*
X192576337Y-67313903D01*
X192581645Y-67315325D01*
X192581647Y-67315326D01*
X192799277Y-67373639D01*
X192804592Y-67375063D01*
X192907682Y-67384082D01*
X192978310Y-67390262D01*
X192978317Y-67390262D01*
X192981034Y-67390500D01*
X193098966Y-67390500D01*
X193101683Y-67390262D01*
X193101690Y-67390262D01*
X193172318Y-67384082D01*
X193275408Y-67375063D01*
X193280723Y-67373639D01*
X193498353Y-67315326D01*
X193498355Y-67315325D01*
X193503663Y-67313903D01*
X193508645Y-67311580D01*
X193712848Y-67216358D01*
X193712851Y-67216356D01*
X193717829Y-67214035D01*
X193911401Y-67078495D01*
X194078495Y-66911401D01*
X194081655Y-66906889D01*
X194210878Y-66722339D01*
X194210881Y-66722334D01*
X194214035Y-66717830D01*
X194216358Y-66712848D01*
X194216361Y-66712843D01*
X194311580Y-66508645D01*
X194311581Y-66508644D01*
X194313903Y-66503663D01*
X194317724Y-66489405D01*
X194373639Y-66280723D01*
X194373639Y-66280722D01*
X194375063Y-66275408D01*
X194395659Y-66040000D01*
X194375063Y-65804592D01*
X194313903Y-65576337D01*
X194214035Y-65362171D01*
X194078495Y-65168599D01*
X193911401Y-65001505D01*
X193717829Y-64865965D01*
X193712851Y-64863644D01*
X193712848Y-64863642D01*
X193508645Y-64768420D01*
X193508643Y-64768419D01*
X193503663Y-64766097D01*
X193498355Y-64764675D01*
X193498353Y-64764674D01*
X193280723Y-64706361D01*
X193280722Y-64706361D01*
X193275408Y-64704937D01*
X193172318Y-64695918D01*
X193101690Y-64689738D01*
X193101683Y-64689738D01*
X193098966Y-64689500D01*
X192981034Y-64689500D01*
X192978317Y-64689738D01*
X192978310Y-64689738D01*
X192907682Y-64695918D01*
X192804592Y-64704937D01*
X192799278Y-64706361D01*
X192799277Y-64706361D01*
X192581647Y-64764674D01*
X192581645Y-64764675D01*
X192576337Y-64766097D01*
X192571357Y-64768419D01*
X192571355Y-64768420D01*
X192367152Y-64863642D01*
X192367149Y-64863644D01*
X192362171Y-64865965D01*
X192168599Y-65001505D01*
X192001505Y-65168599D01*
X191998348Y-65173107D01*
X191998346Y-65173110D01*
X191869122Y-65357661D01*
X191865965Y-65362170D01*
X191863642Y-65367152D01*
X191863639Y-65367157D01*
X191768420Y-65571355D01*
X191766097Y-65576337D01*
X191704937Y-65804592D01*
X191684341Y-66040000D01*
X174924882Y-66040000D01*
X171624583Y-62739701D01*
X171612505Y-62724747D01*
X171609273Y-62721195D01*
X171603625Y-62712448D01*
X171579714Y-62693598D01*
X171575779Y-62690101D01*
X171575691Y-62690205D01*
X171571732Y-62686850D01*
X171568054Y-62683172D01*
X171563829Y-62680153D01*
X171563821Y-62680146D01*
X171553720Y-62672928D01*
X171548973Y-62669364D01*
X171538518Y-62661122D01*
X171511989Y-62640208D01*
X171504013Y-62637407D01*
X171497131Y-62632489D01*
X171451964Y-62618981D01*
X171446358Y-62617159D01*
X171409377Y-62604172D01*
X171409371Y-62604171D01*
X171401894Y-62601545D01*
X171396756Y-62601100D01*
X171394037Y-62601100D01*
X171391855Y-62601005D01*
X171391320Y-62600845D01*
X171391321Y-62600818D01*
X171391203Y-62600811D01*
X171385336Y-62599056D01*
X171335781Y-62601003D01*
X171330834Y-62601100D01*
X161664100Y-62601100D01*
X161595979Y-62581098D01*
X161549486Y-62527442D01*
X161538100Y-62475100D01*
X161538100Y-61648415D01*
X161533625Y-61633176D01*
X161532235Y-61631971D01*
X161524552Y-61630300D01*
X160602100Y-61630300D01*
X160533979Y-61610298D01*
X160487486Y-61556642D01*
X160476100Y-61504300D01*
X160476100Y-61248300D01*
X160496102Y-61180179D01*
X160549758Y-61133686D01*
X160602100Y-61122300D01*
X161552985Y-61122300D01*
X161568224Y-61117825D01*
X161569429Y-61116435D01*
X161571100Y-61108752D01*
X161571100Y-60233415D01*
X161566625Y-60218176D01*
X161565235Y-60216971D01*
X161557552Y-60215300D01*
X160903100Y-60215300D01*
X160834979Y-60195298D01*
X160788486Y-60141642D01*
X160777100Y-60089300D01*
X160777100Y-59920868D01*
X160797102Y-59852747D01*
X160805806Y-59841947D01*
X160805551Y-59841751D01*
X160870893Y-59756596D01*
X160928231Y-59714729D01*
X160970855Y-59707300D01*
X161552985Y-59707300D01*
X161568224Y-59702825D01*
X161569429Y-59701435D01*
X161571100Y-59693752D01*
X161571100Y-58453376D01*
X161567127Y-58439845D01*
X161559332Y-58438725D01*
X161451579Y-58470438D01*
X161440211Y-58475031D01*
X161275946Y-58560907D01*
X161265685Y-58567621D01*
X161121227Y-58683768D01*
X161112468Y-58692346D01*
X160993322Y-58834339D01*
X160986398Y-58844452D01*
X160935235Y-58937516D01*
X160884889Y-58987575D01*
X160815472Y-59002468D01*
X160748118Y-58976779D01*
X160685333Y-58928602D01*
X160545336Y-58870613D01*
X160432820Y-58855800D01*
X160357380Y-58855800D01*
X160244864Y-58870613D01*
X160104867Y-58928602D01*
X159984649Y-59020849D01*
X159892402Y-59141067D01*
X159834413Y-59281064D01*
X159834202Y-59282663D01*
X159798857Y-59340656D01*
X159734998Y-59371681D01*
X159664503Y-59363255D01*
X159625003Y-59336521D01*
X159510683Y-59222201D01*
X159498605Y-59207247D01*
X159495373Y-59203695D01*
X159489725Y-59194948D01*
X159465814Y-59176098D01*
X159461879Y-59172601D01*
X159461791Y-59172705D01*
X159457832Y-59169350D01*
X159454154Y-59165672D01*
X159449929Y-59162653D01*
X159449921Y-59162646D01*
X159439820Y-59155428D01*
X159435073Y-59151864D01*
X159421377Y-59141067D01*
X159398089Y-59122708D01*
X159390113Y-59119907D01*
X159383231Y-59114989D01*
X159338064Y-59101481D01*
X159332458Y-59099659D01*
X159295477Y-59086672D01*
X159295471Y-59086671D01*
X159287994Y-59084045D01*
X159282856Y-59083600D01*
X159280137Y-59083600D01*
X159277955Y-59083505D01*
X159277420Y-59083345D01*
X159277421Y-59083318D01*
X159277303Y-59083311D01*
X159271436Y-59081556D01*
X159221881Y-59083503D01*
X159216934Y-59083600D01*
X155801624Y-59083600D01*
X155782525Y-59081567D01*
X155777717Y-59081340D01*
X155767539Y-59079149D01*
X155738323Y-59082607D01*
X155737309Y-59082727D01*
X155732054Y-59083037D01*
X155732065Y-59083172D01*
X155726887Y-59083600D01*
X155721685Y-59083600D01*
X155704315Y-59086491D01*
X155698444Y-59087327D01*
X155662000Y-59091640D01*
X155661998Y-59091641D01*
X155651661Y-59092864D01*
X155644040Y-59096523D01*
X155635697Y-59097912D01*
X155626533Y-59102857D01*
X155626532Y-59102857D01*
X155594228Y-59120287D01*
X155588938Y-59122982D01*
X155553620Y-59139941D01*
X155553613Y-59139945D01*
X155546473Y-59143374D01*
X155542526Y-59146692D01*
X155540591Y-59148627D01*
X155538996Y-59150090D01*
X155538506Y-59150354D01*
X155538487Y-59150334D01*
X155538398Y-59150413D01*
X155533006Y-59153322D01*
X155525936Y-59160970D01*
X155525935Y-59160971D01*
X155499345Y-59189736D01*
X155495916Y-59193302D01*
X155377186Y-59312032D01*
X155314874Y-59346058D01*
X155244059Y-59340993D01*
X155187223Y-59298446D01*
X155171684Y-59271158D01*
X155117798Y-59141067D01*
X155025551Y-59020849D01*
X154905333Y-58928602D01*
X154765336Y-58870613D01*
X154652820Y-58855800D01*
X154577380Y-58855800D01*
X154464864Y-58870613D01*
X154324867Y-58928602D01*
X154262083Y-58976778D01*
X154262022Y-58976825D01*
X154195802Y-59002426D01*
X154126253Y-58988161D01*
X154074066Y-58936016D01*
X154031640Y-58856223D01*
X154024851Y-58846006D01*
X153907703Y-58702367D01*
X153899059Y-58693663D01*
X153756244Y-58575516D01*
X153746073Y-58568656D01*
X153583024Y-58480496D01*
X153571719Y-58475744D01*
X153456408Y-58440050D01*
X153442305Y-58439844D01*
X153439100Y-58446599D01*
X153439100Y-59689185D01*
X153443575Y-59704424D01*
X153444965Y-59705629D01*
X153452648Y-59707300D01*
X154039345Y-59707300D01*
X154107466Y-59727302D01*
X154139307Y-59756596D01*
X154204649Y-59841751D01*
X154202531Y-59843376D01*
X154230221Y-59894085D01*
X154233100Y-59920868D01*
X154233100Y-60089300D01*
X154213098Y-60157421D01*
X154159442Y-60203914D01*
X154107100Y-60215300D01*
X153457215Y-60215300D01*
X153441976Y-60219775D01*
X153440771Y-60221165D01*
X153439100Y-60228848D01*
X153439100Y-61104185D01*
X153443575Y-61119424D01*
X153444965Y-61120629D01*
X153452648Y-61122300D01*
X154408100Y-61122300D01*
X154476221Y-61142302D01*
X154522714Y-61195958D01*
X154534100Y-61248300D01*
X154534100Y-61504300D01*
X154514098Y-61572421D01*
X154460442Y-61618914D01*
X154408100Y-61630300D01*
X153490216Y-61630300D01*
X153474977Y-61634775D01*
X153473772Y-61636165D01*
X153472101Y-61643848D01*
X153472101Y-62475100D01*
X153452099Y-62543221D01*
X153398443Y-62589714D01*
X153346101Y-62601100D01*
X137225843Y-62601100D01*
X137201263Y-62598679D01*
X137198473Y-62598124D01*
X137198471Y-62598124D01*
X137186300Y-62595703D01*
X137159168Y-62601100D01*
X137159167Y-62601100D01*
X137078805Y-62617085D01*
X137044199Y-62640208D01*
X137010678Y-62662606D01*
X137010677Y-62662607D01*
X136987676Y-62677976D01*
X136980785Y-62688289D01*
X136979198Y-62690664D01*
X136963528Y-62709756D01*
X124878956Y-74794328D01*
X124859864Y-74809998D01*
X124847176Y-74818476D01*
X124786285Y-74909605D01*
X124786285Y-74909606D01*
X124764903Y-75017100D01*
X124767324Y-75029271D01*
X124767879Y-75032061D01*
X124770300Y-75056643D01*
X124770300Y-75795338D01*
X124750298Y-75863459D01*
X124725964Y-75891291D01*
X124725670Y-75891541D01*
X124718080Y-75896330D01*
X124623177Y-76003788D01*
X124619361Y-76011915D01*
X124619360Y-76011917D01*
X124600660Y-76051747D01*
X124553604Y-76104910D01*
X124485276Y-76124192D01*
X124417370Y-76103472D01*
X124397510Y-76087294D01*
X121054305Y-72744089D01*
X121020279Y-72681777D01*
X121017400Y-72654994D01*
X121017400Y-72388292D01*
X121037402Y-72320171D01*
X121060494Y-72294083D01*
X121064791Y-72291445D01*
X121161000Y-72185154D01*
X121214999Y-72073700D01*
X121219595Y-72064214D01*
X121219595Y-72064213D01*
X121223510Y-72056133D01*
X121247296Y-71914754D01*
X121247447Y-71902400D01*
X121231941Y-71794123D01*
X121228396Y-71769368D01*
X121228395Y-71769365D01*
X121227123Y-71760482D01*
X121215639Y-71735223D01*
X121171500Y-71638146D01*
X121167784Y-71629972D01*
X121149398Y-71608634D01*
X121080060Y-71528163D01*
X121080057Y-71528160D01*
X121074200Y-71521363D01*
X120953895Y-71443385D01*
X120816539Y-71402307D01*
X120807563Y-71402252D01*
X120807562Y-71402252D01*
X120747355Y-71401884D01*
X120673176Y-71401431D01*
X120535329Y-71440828D01*
X120414080Y-71517330D01*
X120319177Y-71624788D01*
X120258247Y-71754563D01*
X120252088Y-71794123D01*
X120239026Y-71878015D01*
X120236191Y-71896223D01*
X116841000Y-71896223D01*
X116841000Y-66040000D01*
X120564341Y-66040000D01*
X120584937Y-66275408D01*
X120586361Y-66280722D01*
X120586361Y-66280723D01*
X120642277Y-66489405D01*
X120646097Y-66503663D01*
X120745965Y-66717829D01*
X120881505Y-66911401D01*
X121048599Y-67078495D01*
X121242171Y-67214035D01*
X121247149Y-67216356D01*
X121247152Y-67216358D01*
X121451355Y-67311580D01*
X121456337Y-67313903D01*
X121461645Y-67315325D01*
X121461647Y-67315326D01*
X121679277Y-67373639D01*
X121684592Y-67375063D01*
X121787682Y-67384082D01*
X121858310Y-67390262D01*
X121858317Y-67390262D01*
X121861034Y-67390500D01*
X121978966Y-67390500D01*
X121981683Y-67390262D01*
X121981690Y-67390262D01*
X122052318Y-67384082D01*
X122155408Y-67375063D01*
X122160723Y-67373639D01*
X122378353Y-67315326D01*
X122378355Y-67315325D01*
X122383663Y-67313903D01*
X122388645Y-67311580D01*
X122592848Y-67216358D01*
X122592851Y-67216356D01*
X122597829Y-67214035D01*
X122791401Y-67078495D01*
X122958495Y-66911401D01*
X122961655Y-66906889D01*
X123090878Y-66722339D01*
X123090881Y-66722334D01*
X123094035Y-66717830D01*
X123096358Y-66712848D01*
X123096361Y-66712843D01*
X123191580Y-66508645D01*
X123191581Y-66508644D01*
X123193903Y-66503663D01*
X123197724Y-66489405D01*
X123253639Y-66280723D01*
X123253639Y-66280722D01*
X123255063Y-66275408D01*
X123275659Y-66040000D01*
X123255063Y-65804592D01*
X123193903Y-65576337D01*
X123094035Y-65362171D01*
X122958495Y-65168599D01*
X122791401Y-65001505D01*
X122597829Y-64865965D01*
X122592851Y-64863644D01*
X122592848Y-64863642D01*
X122388645Y-64768420D01*
X122388643Y-64768419D01*
X122383663Y-64766097D01*
X122378355Y-64764675D01*
X122378353Y-64764674D01*
X122160723Y-64706361D01*
X122160722Y-64706361D01*
X122155408Y-64704937D01*
X122052318Y-64695918D01*
X121981690Y-64689738D01*
X121981683Y-64689738D01*
X121978966Y-64689500D01*
X121861034Y-64689500D01*
X121858317Y-64689738D01*
X121858310Y-64689738D01*
X121787682Y-64695918D01*
X121684592Y-64704937D01*
X121679278Y-64706361D01*
X121679277Y-64706361D01*
X121461647Y-64764674D01*
X121461645Y-64764675D01*
X121456337Y-64766097D01*
X121451357Y-64768419D01*
X121451355Y-64768420D01*
X121247152Y-64863642D01*
X121247149Y-64863644D01*
X121242171Y-64865965D01*
X121048599Y-65001505D01*
X120881505Y-65168599D01*
X120878348Y-65173107D01*
X120878346Y-65173110D01*
X120749122Y-65357661D01*
X120745965Y-65362170D01*
X120743642Y-65367152D01*
X120743639Y-65367157D01*
X120648420Y-65571355D01*
X120646097Y-65576337D01*
X120584937Y-65804592D01*
X120564341Y-66040000D01*
X116841000Y-66040000D01*
X116841000Y-62234954D01*
X116841388Y-62225069D01*
X116849929Y-62116545D01*
X116849995Y-62115755D01*
X116856978Y-62035937D01*
X116859979Y-62017505D01*
X116884053Y-61917231D01*
X116884865Y-61914035D01*
X116907110Y-61831015D01*
X116912408Y-61815408D01*
X116951422Y-61721220D01*
X116953626Y-61716211D01*
X116990417Y-61637314D01*
X116997172Y-61624742D01*
X117050202Y-61538205D01*
X117054412Y-61531784D01*
X117104550Y-61460181D01*
X117111950Y-61450623D01*
X117177740Y-61373592D01*
X117184457Y-61366327D01*
X117246327Y-61304457D01*
X117253592Y-61297740D01*
X117330623Y-61231950D01*
X117340181Y-61224550D01*
X117381014Y-61195958D01*
X117411794Y-61174405D01*
X117418205Y-61170202D01*
X117504747Y-61117169D01*
X117517314Y-61110417D01*
X117596211Y-61073626D01*
X117601220Y-61071422D01*
X117695408Y-61032408D01*
X117711015Y-61027110D01*
X117794035Y-61004865D01*
X117797231Y-61004053D01*
X117804511Y-61002305D01*
X117897509Y-60979978D01*
X117915937Y-60976978D01*
X117995755Y-60969995D01*
X117996545Y-60969929D01*
X118105069Y-60961388D01*
X118114954Y-60961000D01*
X151119845Y-60961000D01*
X151130000Y-60961891D01*
X151130000Y-60964930D01*
X151329443Y-60949233D01*
X151334250Y-60948079D01*
X151334256Y-60948078D01*
X151455992Y-60918851D01*
X151523975Y-60902530D01*
X151537589Y-60896891D01*
X151704232Y-60827866D01*
X151704236Y-60827864D01*
X151708806Y-60825971D01*
X151879385Y-60721440D01*
X151883145Y-60718228D01*
X151883150Y-60718225D01*
X151985525Y-60630788D01*
X152050314Y-60601757D01*
X152120514Y-60612362D01*
X152173837Y-60659237D01*
X152190955Y-60702121D01*
X152193296Y-60713941D01*
X152246867Y-60891376D01*
X152251541Y-60902716D01*
X152338560Y-61066377D01*
X152345349Y-61076594D01*
X152462497Y-61220233D01*
X152471141Y-61228937D01*
X152613956Y-61347084D01*
X152624127Y-61353944D01*
X152787176Y-61442104D01*
X152798481Y-61446856D01*
X152913792Y-61482550D01*
X152927895Y-61482756D01*
X152931100Y-61476001D01*
X152931100Y-58453376D01*
X152927127Y-58439845D01*
X152919332Y-58438725D01*
X152811579Y-58470438D01*
X152800211Y-58475031D01*
X152635946Y-58560907D01*
X152625679Y-58567625D01*
X152605952Y-58583486D01*
X152540330Y-58610583D01*
X152470476Y-58597900D01*
X152418567Y-58549464D01*
X152401000Y-58485290D01*
X152401000Y-57008675D01*
X152421002Y-56940554D01*
X152474658Y-56894061D01*
X152544932Y-56883957D01*
X152607313Y-56911588D01*
X152613957Y-56917084D01*
X152624127Y-56923944D01*
X152787176Y-57012104D01*
X152798481Y-57016856D01*
X152913792Y-57052550D01*
X152927895Y-57052756D01*
X152931100Y-57046001D01*
X152931100Y-57039224D01*
X153439100Y-57039224D01*
X153443073Y-57052755D01*
X153450868Y-57053875D01*
X153558621Y-57022162D01*
X153569989Y-57017569D01*
X153734254Y-56931693D01*
X153744515Y-56924979D01*
X153888973Y-56808832D01*
X153897732Y-56800254D01*
X154016878Y-56658261D01*
X154023808Y-56648141D01*
X154113102Y-56485715D01*
X154117934Y-56474442D01*
X154173980Y-56297762D01*
X154176530Y-56285768D01*
X154192707Y-56141539D01*
X154193100Y-56134515D01*
X154193100Y-56127957D01*
X160817100Y-56127957D01*
X160817401Y-56134105D01*
X160830912Y-56271903D01*
X160833295Y-56283938D01*
X160886867Y-56461376D01*
X160891541Y-56472716D01*
X160978560Y-56636377D01*
X160985349Y-56646594D01*
X161102497Y-56790233D01*
X161111141Y-56798937D01*
X161253956Y-56917084D01*
X161264127Y-56923944D01*
X161427176Y-57012104D01*
X161438481Y-57016856D01*
X161553792Y-57052550D01*
X161567895Y-57052756D01*
X161571100Y-57046001D01*
X161571100Y-56053415D01*
X161566625Y-56038176D01*
X161565235Y-56036971D01*
X161557552Y-56035300D01*
X160835215Y-56035300D01*
X160819976Y-56039775D01*
X160818771Y-56041165D01*
X160817100Y-56048848D01*
X160817100Y-56127957D01*
X154193100Y-56127957D01*
X154193100Y-56053415D01*
X154188625Y-56038176D01*
X154187235Y-56036971D01*
X154179552Y-56035300D01*
X153457215Y-56035300D01*
X153441976Y-56039775D01*
X153440771Y-56041165D01*
X153439100Y-56048848D01*
X153439100Y-57039224D01*
X152931100Y-57039224D01*
X152931100Y-55653300D01*
X152951102Y-55585179D01*
X153004758Y-55538686D01*
X153057100Y-55527300D01*
X154174985Y-55527300D01*
X154190224Y-55522825D01*
X154191429Y-55521435D01*
X154193100Y-55513752D01*
X154193100Y-55434643D01*
X154192799Y-55428495D01*
X154179288Y-55290697D01*
X154176905Y-55278662D01*
X154123333Y-55101224D01*
X154118659Y-55089884D01*
X154031640Y-54926223D01*
X154024852Y-54916006D01*
X153943807Y-54816636D01*
X153916253Y-54751204D01*
X153928448Y-54681263D01*
X153976521Y-54629018D01*
X154041450Y-54611000D01*
X160969254Y-54611000D01*
X161037375Y-54631002D01*
G37*
%TD.AperFunction*%
%TD*%
M02*
