M48
; DRILL file {KiCad (6.0.5)} date Sun May 29 01:25:04 2022
; FORMAT={-:-/ absolute / inch / decimal}
; #@! TF.CreationDate,2022-05-29T01:25:04+07:00
; #@! TF.GenerationSoftware,Kicad,Pcbnew,(6.0.5)
; #@! TF.FileFunction,NonPlated,1,2,NPTH
FMAT,2
INCH
; #@! TA.AperFunction,NonPlated,NPTH,ComponentDrill
T1C0.0256
; #@! TA.AperFunction,NonPlated,NPTH,ComponentDrill
T2C0.0669
; #@! TA.AperFunction,NonPlated,NPTH,ComponentDrill
T3C0.0984
; #@! TA.AperFunction,NonPlated,NPTH,ComponentDrill
T4C0.1181
; #@! TA.AperFunction,NonPlated,NPTH,ComponentDrill
T5C0.1575
%
G90
G05
T1
X6.0872Y-2.3398
X6.3148Y-2.3398
T2
X5.0635Y-2.9975
X5.4385Y-3.75
X5.4635Y-2.9975
X5.8135Y-3.0
X5.8385Y-3.75
X6.1885Y-3.75
X6.2135Y-3.0
X6.5635Y-3.0
X6.5885Y-3.75
X6.9385Y-3.7475
X6.9635Y-3.0
X7.3385Y-3.7475
T3
X4.8Y-2.6
X4.8Y-5.1
X7.6Y-2.6
X7.6Y-5.1
T4
X5.1635Y-3.1975
X5.4135Y-3.0975
X5.5385Y-3.95
X5.7885Y-3.85
X5.9135Y-3.2
X6.1635Y-3.1
X6.2885Y-3.95
X6.5385Y-3.85
X6.6635Y-3.2
X6.9135Y-3.1
X7.0385Y-3.9475
X7.2885Y-3.8475
T5
X5.2635Y-2.9975
X5.6385Y-3.75
X6.0135Y-3.0
X6.3885Y-3.75
X6.7635Y-3.0
X7.1385Y-3.7475
T0
M30
