%TF.GenerationSoftware,KiCad,Pcbnew,(6.0.5)*%
%TF.CreationDate,2022-05-27T23:08:30+07:00*%
%TF.ProjectId,atelier-alter,6174656c-6965-4722-9d61-6c7465722e6b,rev?*%
%TF.SameCoordinates,Original*%
%TF.FileFunction,Legend,Bot*%
%TF.FilePolarity,Positive*%
%FSLAX46Y46*%
G04 Gerber Fmt 4.6, Leading zero omitted, Abs format (unit mm)*
G04 Created by KiCad (PCBNEW (6.0.5)) date 2022-05-27 23:08:30*
%MOMM*%
%LPD*%
G01*
G04 APERTURE LIST*
%ADD10C,0.150000*%
%ADD11C,0.120000*%
G04 APERTURE END LIST*
D10*
%TO.C,D5*%
X184094345Y-126658580D02*
X184094345Y-125658580D01*
X183856250Y-125658580D01*
X183713392Y-125706200D01*
X183618154Y-125801438D01*
X183570535Y-125896676D01*
X183522916Y-126087152D01*
X183522916Y-126230009D01*
X183570535Y-126420485D01*
X183618154Y-126515723D01*
X183713392Y-126610961D01*
X183856250Y-126658580D01*
X184094345Y-126658580D01*
X182618154Y-125658580D02*
X183094345Y-125658580D01*
X183141964Y-126134771D01*
X183094345Y-126087152D01*
X182999107Y-126039533D01*
X182761011Y-126039533D01*
X182665773Y-126087152D01*
X182618154Y-126134771D01*
X182570535Y-126230009D01*
X182570535Y-126468104D01*
X182618154Y-126563342D01*
X182665773Y-126610961D01*
X182761011Y-126658580D01*
X182999107Y-126658580D01*
X183094345Y-126610961D01*
X183141964Y-126563342D01*
%TO.C,U1*%
X154736954Y-109927380D02*
X154736954Y-110736904D01*
X154689335Y-110832142D01*
X154641716Y-110879761D01*
X154546478Y-110927380D01*
X154356002Y-110927380D01*
X154260764Y-110879761D01*
X154213145Y-110832142D01*
X154165526Y-110736904D01*
X154165526Y-109927380D01*
X153165526Y-110927380D02*
X153736954Y-110927380D01*
X153451240Y-110927380D02*
X153451240Y-109927380D01*
X153546478Y-110070238D01*
X153641716Y-110165476D01*
X153736954Y-110213095D01*
%TO.C,C7*%
X171013392Y-117308333D02*
X171061011Y-117260714D01*
X171108630Y-117117857D01*
X171108630Y-117022619D01*
X171061011Y-116879761D01*
X170965773Y-116784523D01*
X170870535Y-116736904D01*
X170680059Y-116689285D01*
X170537202Y-116689285D01*
X170346726Y-116736904D01*
X170251488Y-116784523D01*
X170156250Y-116879761D01*
X170108630Y-117022619D01*
X170108630Y-117117857D01*
X170156250Y-117260714D01*
X170203869Y-117308333D01*
X170108630Y-117641666D02*
X170108630Y-118308333D01*
X171108630Y-117879761D01*
%TO.C,C14*%
X184531605Y-71794592D02*
X184579224Y-71842211D01*
X184722081Y-71889830D01*
X184817319Y-71889830D01*
X184960176Y-71842211D01*
X185055414Y-71746973D01*
X185103033Y-71651735D01*
X185150652Y-71461259D01*
X185150652Y-71318402D01*
X185103033Y-71127926D01*
X185055414Y-71032688D01*
X184960176Y-70937450D01*
X184817319Y-70889830D01*
X184722081Y-70889830D01*
X184579224Y-70937450D01*
X184531605Y-70985069D01*
X183579224Y-71889830D02*
X184150652Y-71889830D01*
X183864938Y-71889830D02*
X183864938Y-70889830D01*
X183960176Y-71032688D01*
X184055414Y-71127926D01*
X184150652Y-71175545D01*
X182722081Y-71223164D02*
X182722081Y-71889830D01*
X182960176Y-70842211D02*
X183198271Y-71556497D01*
X182579224Y-71556497D01*
%TO.C,R4*%
X114758630Y-74289533D02*
X114282440Y-73956200D01*
X114758630Y-73718104D02*
X113758630Y-73718104D01*
X113758630Y-74099057D01*
X113806250Y-74194295D01*
X113853869Y-74241914D01*
X113949107Y-74289533D01*
X114091964Y-74289533D01*
X114187202Y-74241914D01*
X114234821Y-74194295D01*
X114282440Y-74099057D01*
X114282440Y-73718104D01*
X114091964Y-75146676D02*
X114758630Y-75146676D01*
X113711011Y-74908580D02*
X114425297Y-74670485D01*
X114425297Y-75289533D01*
%TO.C,C17*%
X117167857Y-71093342D02*
X117215476Y-71140961D01*
X117358333Y-71188580D01*
X117453571Y-71188580D01*
X117596428Y-71140961D01*
X117691666Y-71045723D01*
X117739285Y-70950485D01*
X117786904Y-70760009D01*
X117786904Y-70617152D01*
X117739285Y-70426676D01*
X117691666Y-70331438D01*
X117596428Y-70236200D01*
X117453571Y-70188580D01*
X117358333Y-70188580D01*
X117215476Y-70236200D01*
X117167857Y-70283819D01*
X116215476Y-71188580D02*
X116786904Y-71188580D01*
X116501190Y-71188580D02*
X116501190Y-70188580D01*
X116596428Y-70331438D01*
X116691666Y-70426676D01*
X116786904Y-70474295D01*
X115882142Y-70188580D02*
X115215476Y-70188580D01*
X115644047Y-71188580D01*
%TO.C,R7*%
X132922966Y-60708580D02*
X133256300Y-60232390D01*
X133494395Y-60708580D02*
X133494395Y-59708580D01*
X133113442Y-59708580D01*
X133018204Y-59756200D01*
X132970585Y-59803819D01*
X132922966Y-59899057D01*
X132922966Y-60041914D01*
X132970585Y-60137152D01*
X133018204Y-60184771D01*
X133113442Y-60232390D01*
X133494395Y-60232390D01*
X132589633Y-59708580D02*
X131922966Y-59708580D01*
X132351538Y-60708580D01*
%TO.C,F1*%
X122958333Y-60014771D02*
X123291666Y-60014771D01*
X123291666Y-60538580D02*
X123291666Y-59538580D01*
X122815476Y-59538580D01*
X121910714Y-60538580D02*
X122482142Y-60538580D01*
X122196428Y-60538580D02*
X122196428Y-59538580D01*
X122291666Y-59681438D01*
X122386904Y-59776676D01*
X122482142Y-59824295D01*
%TO.C,D33*%
X127452430Y-103560714D02*
X126452430Y-103560714D01*
X126452430Y-103798809D01*
X126500050Y-103941666D01*
X126595288Y-104036904D01*
X126690526Y-104084523D01*
X126881002Y-104132142D01*
X127023859Y-104132142D01*
X127214335Y-104084523D01*
X127309573Y-104036904D01*
X127404811Y-103941666D01*
X127452430Y-103798809D01*
X127452430Y-103560714D01*
X126452430Y-104465476D02*
X126452430Y-105084523D01*
X126833383Y-104751190D01*
X126833383Y-104894047D01*
X126881002Y-104989285D01*
X126928621Y-105036904D01*
X127023859Y-105084523D01*
X127261954Y-105084523D01*
X127357192Y-105036904D01*
X127404811Y-104989285D01*
X127452430Y-104894047D01*
X127452430Y-104608333D01*
X127404811Y-104513095D01*
X127357192Y-104465476D01*
X126452430Y-105417857D02*
X126452430Y-106036904D01*
X126833383Y-105703571D01*
X126833383Y-105846428D01*
X126881002Y-105941666D01*
X126928621Y-105989285D01*
X127023859Y-106036904D01*
X127261954Y-106036904D01*
X127357192Y-105989285D01*
X127404811Y-105941666D01*
X127452430Y-105846428D01*
X127452430Y-105560714D01*
X127404811Y-105465476D01*
X127357192Y-105417857D01*
%TO.C,DT11*%
X116689038Y-64746080D02*
X116689038Y-63746080D01*
X116450942Y-63746080D01*
X116308085Y-63793700D01*
X116212847Y-63888938D01*
X116165228Y-63984176D01*
X116117609Y-64174652D01*
X116117609Y-64317509D01*
X116165228Y-64507985D01*
X116212847Y-64603223D01*
X116308085Y-64698461D01*
X116450942Y-64746080D01*
X116689038Y-64746080D01*
X115831895Y-63746080D02*
X115260466Y-63746080D01*
X115546180Y-64746080D02*
X115546180Y-63746080D01*
X114403323Y-64746080D02*
X114974752Y-64746080D01*
X114689038Y-64746080D02*
X114689038Y-63746080D01*
X114784276Y-63888938D01*
X114879514Y-63984176D01*
X114974752Y-64031795D01*
X113450942Y-64746080D02*
X114022371Y-64746080D01*
X113736657Y-64746080D02*
X113736657Y-63746080D01*
X113831895Y-63888938D01*
X113927133Y-63984176D01*
X114022371Y-64031795D01*
%TO.C,R1*%
X150185466Y-103581030D02*
X150518800Y-103104840D01*
X150756895Y-103581030D02*
X150756895Y-102581030D01*
X150375942Y-102581030D01*
X150280704Y-102628650D01*
X150233085Y-102676269D01*
X150185466Y-102771507D01*
X150185466Y-102914364D01*
X150233085Y-103009602D01*
X150280704Y-103057221D01*
X150375942Y-103104840D01*
X150756895Y-103104840D01*
X149233085Y-103581030D02*
X149804514Y-103581030D01*
X149518800Y-103581030D02*
X149518800Y-102581030D01*
X149614038Y-102723888D01*
X149709276Y-102819126D01*
X149804514Y-102866745D01*
%TO.C,D13*%
X172696130Y-64966914D02*
X171696130Y-64966914D01*
X171696130Y-65205009D01*
X171743750Y-65347866D01*
X171838988Y-65443104D01*
X171934226Y-65490723D01*
X172124702Y-65538342D01*
X172267559Y-65538342D01*
X172458035Y-65490723D01*
X172553273Y-65443104D01*
X172648511Y-65347866D01*
X172696130Y-65205009D01*
X172696130Y-64966914D01*
X172696130Y-66490723D02*
X172696130Y-65919295D01*
X172696130Y-66205009D02*
X171696130Y-66205009D01*
X171838988Y-66109771D01*
X171934226Y-66014533D01*
X171981845Y-65919295D01*
X171696130Y-66824057D02*
X171696130Y-67443104D01*
X172077083Y-67109771D01*
X172077083Y-67252628D01*
X172124702Y-67347866D01*
X172172321Y-67395485D01*
X172267559Y-67443104D01*
X172505654Y-67443104D01*
X172600892Y-67395485D01*
X172648511Y-67347866D01*
X172696130Y-67252628D01*
X172696130Y-66966914D01*
X172648511Y-66871676D01*
X172600892Y-66824057D01*
%TO.C,R2*%
X156535466Y-103639880D02*
X156868800Y-103163690D01*
X157106895Y-103639880D02*
X157106895Y-102639880D01*
X156725942Y-102639880D01*
X156630704Y-102687500D01*
X156583085Y-102735119D01*
X156535466Y-102830357D01*
X156535466Y-102973214D01*
X156583085Y-103068452D01*
X156630704Y-103116071D01*
X156725942Y-103163690D01*
X157106895Y-103163690D01*
X156154514Y-102735119D02*
X156106895Y-102687500D01*
X156011657Y-102639880D01*
X155773561Y-102639880D01*
X155678323Y-102687500D01*
X155630704Y-102735119D01*
X155583085Y-102830357D01*
X155583085Y-102925595D01*
X155630704Y-103068452D01*
X156202133Y-103639880D01*
X155583085Y-103639880D01*
%TO.C,C9*%
X138562142Y-71270833D02*
X138609761Y-71223214D01*
X138657380Y-71080357D01*
X138657380Y-70985119D01*
X138609761Y-70842261D01*
X138514523Y-70747023D01*
X138419285Y-70699404D01*
X138228809Y-70651785D01*
X138085952Y-70651785D01*
X137895476Y-70699404D01*
X137800238Y-70747023D01*
X137705000Y-70842261D01*
X137657380Y-70985119D01*
X137657380Y-71080357D01*
X137705000Y-71223214D01*
X137752619Y-71270833D01*
X138657380Y-71747023D02*
X138657380Y-71937500D01*
X138609761Y-72032738D01*
X138562142Y-72080357D01*
X138419285Y-72175595D01*
X138228809Y-72223214D01*
X137847857Y-72223214D01*
X137752619Y-72175595D01*
X137705000Y-72127976D01*
X137657380Y-72032738D01*
X137657380Y-71842261D01*
X137705000Y-71747023D01*
X137752619Y-71699404D01*
X137847857Y-71651785D01*
X138085952Y-71651785D01*
X138181190Y-71699404D01*
X138228809Y-71747023D01*
X138276428Y-71842261D01*
X138276428Y-72032738D01*
X138228809Y-72127976D01*
X138181190Y-72175595D01*
X138085952Y-72223214D01*
%TO.C,C15*%
X185393442Y-89050842D02*
X185441061Y-89003223D01*
X185488680Y-88860366D01*
X185488680Y-88765128D01*
X185441061Y-88622271D01*
X185345823Y-88527033D01*
X185250585Y-88479414D01*
X185060109Y-88431795D01*
X184917252Y-88431795D01*
X184726776Y-88479414D01*
X184631538Y-88527033D01*
X184536300Y-88622271D01*
X184488680Y-88765128D01*
X184488680Y-88860366D01*
X184536300Y-89003223D01*
X184583919Y-89050842D01*
X185488680Y-90003223D02*
X185488680Y-89431795D01*
X185488680Y-89717509D02*
X184488680Y-89717509D01*
X184631538Y-89622271D01*
X184726776Y-89527033D01*
X184774395Y-89431795D01*
X184488680Y-90907985D02*
X184488680Y-90431795D01*
X184964871Y-90384176D01*
X184917252Y-90431795D01*
X184869633Y-90527033D01*
X184869633Y-90765128D01*
X184917252Y-90860366D01*
X184964871Y-90907985D01*
X185060109Y-90955604D01*
X185298204Y-90955604D01*
X185393442Y-90907985D01*
X185441061Y-90860366D01*
X185488680Y-90765128D01*
X185488680Y-90527033D01*
X185441061Y-90431795D01*
X185393442Y-90384176D01*
%TO.C,D17*%
X115164880Y-103498214D02*
X114164880Y-103498214D01*
X114164880Y-103736309D01*
X114212500Y-103879166D01*
X114307738Y-103974404D01*
X114402976Y-104022023D01*
X114593452Y-104069642D01*
X114736309Y-104069642D01*
X114926785Y-104022023D01*
X115022023Y-103974404D01*
X115117261Y-103879166D01*
X115164880Y-103736309D01*
X115164880Y-103498214D01*
X115164880Y-105022023D02*
X115164880Y-104450595D01*
X115164880Y-104736309D02*
X114164880Y-104736309D01*
X114307738Y-104641071D01*
X114402976Y-104545833D01*
X114450595Y-104450595D01*
X114164880Y-105355357D02*
X114164880Y-106022023D01*
X115164880Y-105593452D01*
%TO.C,C5*%
X171013392Y-112545833D02*
X171061011Y-112498214D01*
X171108630Y-112355357D01*
X171108630Y-112260119D01*
X171061011Y-112117261D01*
X170965773Y-112022023D01*
X170870535Y-111974404D01*
X170680059Y-111926785D01*
X170537202Y-111926785D01*
X170346726Y-111974404D01*
X170251488Y-112022023D01*
X170156250Y-112117261D01*
X170108630Y-112260119D01*
X170108630Y-112355357D01*
X170156250Y-112498214D01*
X170203869Y-112545833D01*
X170108630Y-113450595D02*
X170108630Y-112974404D01*
X170584821Y-112926785D01*
X170537202Y-112974404D01*
X170489583Y-113069642D01*
X170489583Y-113307738D01*
X170537202Y-113402976D01*
X170584821Y-113450595D01*
X170680059Y-113498214D01*
X170918154Y-113498214D01*
X171013392Y-113450595D01*
X171061011Y-113402976D01*
X171108630Y-113307738D01*
X171108630Y-113069642D01*
X171061011Y-112974404D01*
X171013392Y-112926785D01*
%TO.C,D9*%
X186475595Y-64746080D02*
X186475595Y-63746080D01*
X186237500Y-63746080D01*
X186094642Y-63793700D01*
X185999404Y-63888938D01*
X185951785Y-63984176D01*
X185904166Y-64174652D01*
X185904166Y-64317509D01*
X185951785Y-64507985D01*
X185999404Y-64603223D01*
X186094642Y-64698461D01*
X186237500Y-64746080D01*
X186475595Y-64746080D01*
X185427976Y-64746080D02*
X185237500Y-64746080D01*
X185142261Y-64698461D01*
X185094642Y-64650842D01*
X184999404Y-64507985D01*
X184951785Y-64317509D01*
X184951785Y-63936557D01*
X184999404Y-63841319D01*
X185047023Y-63793700D01*
X185142261Y-63746080D01*
X185332738Y-63746080D01*
X185427976Y-63793700D01*
X185475595Y-63841319D01*
X185523214Y-63936557D01*
X185523214Y-64174652D01*
X185475595Y-64269890D01*
X185427976Y-64317509D01*
X185332738Y-64365128D01*
X185142261Y-64365128D01*
X185047023Y-64317509D01*
X184999404Y-64269890D01*
X184951785Y-64174652D01*
%TO.C,C6*%
X178950892Y-117308333D02*
X178998511Y-117260714D01*
X179046130Y-117117857D01*
X179046130Y-117022619D01*
X178998511Y-116879761D01*
X178903273Y-116784523D01*
X178808035Y-116736904D01*
X178617559Y-116689285D01*
X178474702Y-116689285D01*
X178284226Y-116736904D01*
X178188988Y-116784523D01*
X178093750Y-116879761D01*
X178046130Y-117022619D01*
X178046130Y-117117857D01*
X178093750Y-117260714D01*
X178141369Y-117308333D01*
X178046130Y-118165476D02*
X178046130Y-117975000D01*
X178093750Y-117879761D01*
X178141369Y-117832142D01*
X178284226Y-117736904D01*
X178474702Y-117689285D01*
X178855654Y-117689285D01*
X178950892Y-117736904D01*
X178998511Y-117784523D01*
X179046130Y-117879761D01*
X179046130Y-118070238D01*
X178998511Y-118165476D01*
X178950892Y-118213095D01*
X178855654Y-118260714D01*
X178617559Y-118260714D01*
X178522321Y-118213095D01*
X178474702Y-118165476D01*
X178427083Y-118070238D01*
X178427083Y-117879761D01*
X178474702Y-117784523D01*
X178522321Y-117736904D01*
X178617559Y-117689285D01*
%TO.C,C4*%
X164663442Y-123020783D02*
X164711061Y-122973164D01*
X164758680Y-122830307D01*
X164758680Y-122735069D01*
X164711061Y-122592211D01*
X164615823Y-122496973D01*
X164520585Y-122449354D01*
X164330109Y-122401735D01*
X164187252Y-122401735D01*
X163996776Y-122449354D01*
X163901538Y-122496973D01*
X163806300Y-122592211D01*
X163758680Y-122735069D01*
X163758680Y-122830307D01*
X163806300Y-122973164D01*
X163853919Y-123020783D01*
X164092014Y-123877926D02*
X164758680Y-123877926D01*
X163711061Y-123639830D02*
X164425347Y-123401735D01*
X164425347Y-124020783D01*
%TO.C,D31*%
X127452430Y-87191914D02*
X126452430Y-87191914D01*
X126452430Y-87430009D01*
X126500050Y-87572866D01*
X126595288Y-87668104D01*
X126690526Y-87715723D01*
X126881002Y-87763342D01*
X127023859Y-87763342D01*
X127214335Y-87715723D01*
X127309573Y-87668104D01*
X127404811Y-87572866D01*
X127452430Y-87430009D01*
X127452430Y-87191914D01*
X126452430Y-88096676D02*
X126452430Y-88715723D01*
X126833383Y-88382390D01*
X126833383Y-88525247D01*
X126881002Y-88620485D01*
X126928621Y-88668104D01*
X127023859Y-88715723D01*
X127261954Y-88715723D01*
X127357192Y-88668104D01*
X127404811Y-88620485D01*
X127452430Y-88525247D01*
X127452430Y-88239533D01*
X127404811Y-88144295D01*
X127357192Y-88096676D01*
X127452430Y-89668104D02*
X127452430Y-89096676D01*
X127452430Y-89382390D02*
X126452430Y-89382390D01*
X126595288Y-89287152D01*
X126690526Y-89191914D01*
X126738145Y-89096676D01*
%TO.C,R6*%
X114758630Y-79014533D02*
X114282440Y-78681200D01*
X114758630Y-78443104D02*
X113758630Y-78443104D01*
X113758630Y-78824057D01*
X113806250Y-78919295D01*
X113853869Y-78966914D01*
X113949107Y-79014533D01*
X114091964Y-79014533D01*
X114187202Y-78966914D01*
X114234821Y-78919295D01*
X114282440Y-78824057D01*
X114282440Y-78443104D01*
X113758630Y-79871676D02*
X113758630Y-79681200D01*
X113806250Y-79585961D01*
X113853869Y-79538342D01*
X113996726Y-79443104D01*
X114187202Y-79395485D01*
X114568154Y-79395485D01*
X114663392Y-79443104D01*
X114711011Y-79490723D01*
X114758630Y-79585961D01*
X114758630Y-79776438D01*
X114711011Y-79871676D01*
X114663392Y-79919295D01*
X114568154Y-79966914D01*
X114330059Y-79966914D01*
X114234821Y-79919295D01*
X114187202Y-79871676D01*
X114139583Y-79776438D01*
X114139583Y-79585961D01*
X114187202Y-79490723D01*
X114234821Y-79443104D01*
X114330059Y-79395485D01*
%TO.C,D19*%
X115164880Y-94767014D02*
X114164880Y-94767014D01*
X114164880Y-95005109D01*
X114212500Y-95147966D01*
X114307738Y-95243204D01*
X114402976Y-95290823D01*
X114593452Y-95338442D01*
X114736309Y-95338442D01*
X114926785Y-95290823D01*
X115022023Y-95243204D01*
X115117261Y-95147966D01*
X115164880Y-95005109D01*
X115164880Y-94767014D01*
X115164880Y-96290823D02*
X115164880Y-95719395D01*
X115164880Y-96005109D02*
X114164880Y-96005109D01*
X114307738Y-95909871D01*
X114402976Y-95814633D01*
X114450595Y-95719395D01*
X115164880Y-96767014D02*
X115164880Y-96957490D01*
X115117261Y-97052728D01*
X115069642Y-97100347D01*
X114926785Y-97195585D01*
X114736309Y-97243204D01*
X114355357Y-97243204D01*
X114260119Y-97195585D01*
X114212500Y-97147966D01*
X114164880Y-97052728D01*
X114164880Y-96862252D01*
X114212500Y-96767014D01*
X114260119Y-96719395D01*
X114355357Y-96671776D01*
X114593452Y-96671776D01*
X114688690Y-96719395D01*
X114736309Y-96767014D01*
X114783928Y-96862252D01*
X114783928Y-97052728D01*
X114736309Y-97147966D01*
X114688690Y-97195585D01*
X114593452Y-97243204D01*
%TO.C,C8*%
X144025942Y-89527033D02*
X144073561Y-89479414D01*
X144121180Y-89336557D01*
X144121180Y-89241319D01*
X144073561Y-89098461D01*
X143978323Y-89003223D01*
X143883085Y-88955604D01*
X143692609Y-88907985D01*
X143549752Y-88907985D01*
X143359276Y-88955604D01*
X143264038Y-89003223D01*
X143168800Y-89098461D01*
X143121180Y-89241319D01*
X143121180Y-89336557D01*
X143168800Y-89479414D01*
X143216419Y-89527033D01*
X143549752Y-90098461D02*
X143502133Y-90003223D01*
X143454514Y-89955604D01*
X143359276Y-89907985D01*
X143311657Y-89907985D01*
X143216419Y-89955604D01*
X143168800Y-90003223D01*
X143121180Y-90098461D01*
X143121180Y-90288938D01*
X143168800Y-90384176D01*
X143216419Y-90431795D01*
X143311657Y-90479414D01*
X143359276Y-90479414D01*
X143454514Y-90431795D01*
X143502133Y-90384176D01*
X143549752Y-90288938D01*
X143549752Y-90098461D01*
X143597371Y-90003223D01*
X143644990Y-89955604D01*
X143740228Y-89907985D01*
X143930704Y-89907985D01*
X144025942Y-89955604D01*
X144073561Y-90003223D01*
X144121180Y-90098461D01*
X144121180Y-90288938D01*
X144073561Y-90384176D01*
X144025942Y-90431795D01*
X143930704Y-90479414D01*
X143740228Y-90479414D01*
X143644990Y-90431795D01*
X143597371Y-90384176D01*
X143549752Y-90288938D01*
%TO.C,D2*%
X118213095Y-126658580D02*
X118213095Y-125658580D01*
X117975000Y-125658580D01*
X117832142Y-125706200D01*
X117736904Y-125801438D01*
X117689285Y-125896676D01*
X117641666Y-126087152D01*
X117641666Y-126230009D01*
X117689285Y-126420485D01*
X117736904Y-126515723D01*
X117832142Y-126610961D01*
X117975000Y-126658580D01*
X118213095Y-126658580D01*
X117260714Y-125753819D02*
X117213095Y-125706200D01*
X117117857Y-125658580D01*
X116879761Y-125658580D01*
X116784523Y-125706200D01*
X116736904Y-125753819D01*
X116689285Y-125849057D01*
X116689285Y-125944295D01*
X116736904Y-126087152D01*
X117308333Y-126658580D01*
X116689285Y-126658580D01*
%TO.C,C11*%
X179236657Y-121800842D02*
X179284276Y-121848461D01*
X179427133Y-121896080D01*
X179522371Y-121896080D01*
X179665228Y-121848461D01*
X179760466Y-121753223D01*
X179808085Y-121657985D01*
X179855704Y-121467509D01*
X179855704Y-121324652D01*
X179808085Y-121134176D01*
X179760466Y-121038938D01*
X179665228Y-120943700D01*
X179522371Y-120896080D01*
X179427133Y-120896080D01*
X179284276Y-120943700D01*
X179236657Y-120991319D01*
X178284276Y-121896080D02*
X178855704Y-121896080D01*
X178569990Y-121896080D02*
X178569990Y-120896080D01*
X178665228Y-121038938D01*
X178760466Y-121134176D01*
X178855704Y-121181795D01*
X177331895Y-121896080D02*
X177903323Y-121896080D01*
X177617609Y-121896080D02*
X177617609Y-120896080D01*
X177712847Y-121038938D01*
X177808085Y-121134176D01*
X177903323Y-121181795D01*
%TO.C,D22*%
X150089880Y-83716914D02*
X149089880Y-83716914D01*
X149089880Y-83955009D01*
X149137500Y-84097866D01*
X149232738Y-84193104D01*
X149327976Y-84240723D01*
X149518452Y-84288342D01*
X149661309Y-84288342D01*
X149851785Y-84240723D01*
X149947023Y-84193104D01*
X150042261Y-84097866D01*
X150089880Y-83955009D01*
X150089880Y-83716914D01*
X149185119Y-84669295D02*
X149137500Y-84716914D01*
X149089880Y-84812152D01*
X149089880Y-85050247D01*
X149137500Y-85145485D01*
X149185119Y-85193104D01*
X149280357Y-85240723D01*
X149375595Y-85240723D01*
X149518452Y-85193104D01*
X150089880Y-84621676D01*
X150089880Y-85240723D01*
X149185119Y-85621676D02*
X149137500Y-85669295D01*
X149089880Y-85764533D01*
X149089880Y-86002628D01*
X149137500Y-86097866D01*
X149185119Y-86145485D01*
X149280357Y-86193104D01*
X149375595Y-86193104D01*
X149518452Y-86145485D01*
X150089880Y-85574057D01*
X150089880Y-86193104D01*
%TO.C,C13*%
X157519642Y-70794642D02*
X157567261Y-70747023D01*
X157614880Y-70604166D01*
X157614880Y-70508928D01*
X157567261Y-70366071D01*
X157472023Y-70270833D01*
X157376785Y-70223214D01*
X157186309Y-70175595D01*
X157043452Y-70175595D01*
X156852976Y-70223214D01*
X156757738Y-70270833D01*
X156662500Y-70366071D01*
X156614880Y-70508928D01*
X156614880Y-70604166D01*
X156662500Y-70747023D01*
X156710119Y-70794642D01*
X157614880Y-71747023D02*
X157614880Y-71175595D01*
X157614880Y-71461309D02*
X156614880Y-71461309D01*
X156757738Y-71366071D01*
X156852976Y-71270833D01*
X156900595Y-71175595D01*
X156614880Y-72080357D02*
X156614880Y-72699404D01*
X156995833Y-72366071D01*
X156995833Y-72508928D01*
X157043452Y-72604166D01*
X157091071Y-72651785D01*
X157186309Y-72699404D01*
X157424404Y-72699404D01*
X157519642Y-72651785D01*
X157567261Y-72604166D01*
X157614880Y-72508928D01*
X157614880Y-72223214D01*
X157567261Y-72127976D01*
X157519642Y-72080357D01*
%TO.C,D11*%
X134596130Y-64966914D02*
X133596130Y-64966914D01*
X133596130Y-65205009D01*
X133643750Y-65347866D01*
X133738988Y-65443104D01*
X133834226Y-65490723D01*
X134024702Y-65538342D01*
X134167559Y-65538342D01*
X134358035Y-65490723D01*
X134453273Y-65443104D01*
X134548511Y-65347866D01*
X134596130Y-65205009D01*
X134596130Y-64966914D01*
X134596130Y-66490723D02*
X134596130Y-65919295D01*
X134596130Y-66205009D02*
X133596130Y-66205009D01*
X133738988Y-66109771D01*
X133834226Y-66014533D01*
X133881845Y-65919295D01*
X134596130Y-67443104D02*
X134596130Y-66871676D01*
X134596130Y-67157390D02*
X133596130Y-67157390D01*
X133738988Y-67062152D01*
X133834226Y-66966914D01*
X133881845Y-66871676D01*
%TO.C,R5*%
X128041666Y-60678580D02*
X128375000Y-60202390D01*
X128613095Y-60678580D02*
X128613095Y-59678580D01*
X128232142Y-59678580D01*
X128136904Y-59726200D01*
X128089285Y-59773819D01*
X128041666Y-59869057D01*
X128041666Y-60011914D01*
X128089285Y-60107152D01*
X128136904Y-60154771D01*
X128232142Y-60202390D01*
X128613095Y-60202390D01*
X127136904Y-59678580D02*
X127613095Y-59678580D01*
X127660714Y-60154771D01*
X127613095Y-60107152D01*
X127517857Y-60059533D01*
X127279761Y-60059533D01*
X127184523Y-60107152D01*
X127136904Y-60154771D01*
X127089285Y-60250009D01*
X127089285Y-60488104D01*
X127136904Y-60583342D01*
X127184523Y-60630961D01*
X127279761Y-60678580D01*
X127517857Y-60678580D01*
X127613095Y-60630961D01*
X127660714Y-60583342D01*
%TO.C,C1*%
X151444642Y-129133283D02*
X151492261Y-129085664D01*
X151539880Y-128942807D01*
X151539880Y-128847569D01*
X151492261Y-128704711D01*
X151397023Y-128609473D01*
X151301785Y-128561854D01*
X151111309Y-128514235D01*
X150968452Y-128514235D01*
X150777976Y-128561854D01*
X150682738Y-128609473D01*
X150587500Y-128704711D01*
X150539880Y-128847569D01*
X150539880Y-128942807D01*
X150587500Y-129085664D01*
X150635119Y-129133283D01*
X151539880Y-130085664D02*
X151539880Y-129514235D01*
X151539880Y-129799950D02*
X150539880Y-129799950D01*
X150682738Y-129704711D01*
X150777976Y-129609473D01*
X150825595Y-129514235D01*
%TO.C,C10*%
X119966609Y-120213342D02*
X120014228Y-120260961D01*
X120157085Y-120308580D01*
X120252323Y-120308580D01*
X120395180Y-120260961D01*
X120490418Y-120165723D01*
X120538037Y-120070485D01*
X120585656Y-119880009D01*
X120585656Y-119737152D01*
X120538037Y-119546676D01*
X120490418Y-119451438D01*
X120395180Y-119356200D01*
X120252323Y-119308580D01*
X120157085Y-119308580D01*
X120014228Y-119356200D01*
X119966609Y-119403819D01*
X119014228Y-120308580D02*
X119585656Y-120308580D01*
X119299942Y-120308580D02*
X119299942Y-119308580D01*
X119395180Y-119451438D01*
X119490418Y-119546676D01*
X119585656Y-119594295D01*
X118395180Y-119308580D02*
X118299942Y-119308580D01*
X118204704Y-119356200D01*
X118157085Y-119403819D01*
X118109466Y-119499057D01*
X118061847Y-119689533D01*
X118061847Y-119927628D01*
X118109466Y-120118104D01*
X118157085Y-120213342D01*
X118204704Y-120260961D01*
X118299942Y-120308580D01*
X118395180Y-120308580D01*
X118490418Y-120260961D01*
X118538037Y-120213342D01*
X118585656Y-120118104D01*
X118633275Y-119927628D01*
X118633275Y-119689533D01*
X118585656Y-119499057D01*
X118538037Y-119403819D01*
X118490418Y-119356200D01*
X118395180Y-119308580D01*
%TO.C,Y1*%
X157119990Y-129588590D02*
X157119990Y-130064780D01*
X157453323Y-129064780D02*
X157119990Y-129588590D01*
X156786657Y-129064780D01*
X155929514Y-130064780D02*
X156500942Y-130064780D01*
X156215228Y-130064780D02*
X156215228Y-129064780D01*
X156310466Y-129207638D01*
X156405704Y-129302876D01*
X156500942Y-129350495D01*
%TO.C,D18*%
X115164880Y-86891914D02*
X114164880Y-86891914D01*
X114164880Y-87130009D01*
X114212500Y-87272866D01*
X114307738Y-87368104D01*
X114402976Y-87415723D01*
X114593452Y-87463342D01*
X114736309Y-87463342D01*
X114926785Y-87415723D01*
X115022023Y-87368104D01*
X115117261Y-87272866D01*
X115164880Y-87130009D01*
X115164880Y-86891914D01*
X115164880Y-88415723D02*
X115164880Y-87844295D01*
X115164880Y-88130009D02*
X114164880Y-88130009D01*
X114307738Y-88034771D01*
X114402976Y-87939533D01*
X114450595Y-87844295D01*
X114593452Y-88987152D02*
X114545833Y-88891914D01*
X114498214Y-88844295D01*
X114402976Y-88796676D01*
X114355357Y-88796676D01*
X114260119Y-88844295D01*
X114212500Y-88891914D01*
X114164880Y-88987152D01*
X114164880Y-89177628D01*
X114212500Y-89272866D01*
X114260119Y-89320485D01*
X114355357Y-89368104D01*
X114402976Y-89368104D01*
X114498214Y-89320485D01*
X114545833Y-89272866D01*
X114593452Y-89177628D01*
X114593452Y-88987152D01*
X114641071Y-88891914D01*
X114688690Y-88844295D01*
X114783928Y-88796676D01*
X114974404Y-88796676D01*
X115069642Y-88844295D01*
X115117261Y-88891914D01*
X115164880Y-88987152D01*
X115164880Y-89177628D01*
X115117261Y-89272866D01*
X115069642Y-89320485D01*
X114974404Y-89368104D01*
X114783928Y-89368104D01*
X114688690Y-89320485D01*
X114641071Y-89272866D01*
X114593452Y-89177628D01*
%TO.C,D23*%
X169139880Y-83716914D02*
X168139880Y-83716914D01*
X168139880Y-83955009D01*
X168187500Y-84097866D01*
X168282738Y-84193104D01*
X168377976Y-84240723D01*
X168568452Y-84288342D01*
X168711309Y-84288342D01*
X168901785Y-84240723D01*
X168997023Y-84193104D01*
X169092261Y-84097866D01*
X169139880Y-83955009D01*
X169139880Y-83716914D01*
X168235119Y-84669295D02*
X168187500Y-84716914D01*
X168139880Y-84812152D01*
X168139880Y-85050247D01*
X168187500Y-85145485D01*
X168235119Y-85193104D01*
X168330357Y-85240723D01*
X168425595Y-85240723D01*
X168568452Y-85193104D01*
X169139880Y-84621676D01*
X169139880Y-85240723D01*
X168139880Y-85574057D02*
X168139880Y-86193104D01*
X168520833Y-85859771D01*
X168520833Y-86002628D01*
X168568452Y-86097866D01*
X168616071Y-86145485D01*
X168711309Y-86193104D01*
X168949404Y-86193104D01*
X169044642Y-86145485D01*
X169092261Y-86097866D01*
X169139880Y-86002628D01*
X169139880Y-85716914D01*
X169092261Y-85621676D01*
X169044642Y-85574057D01*
%TO.C,D12*%
X158027380Y-64666914D02*
X157027380Y-64666914D01*
X157027380Y-64905009D01*
X157075000Y-65047866D01*
X157170238Y-65143104D01*
X157265476Y-65190723D01*
X157455952Y-65238342D01*
X157598809Y-65238342D01*
X157789285Y-65190723D01*
X157884523Y-65143104D01*
X157979761Y-65047866D01*
X158027380Y-64905009D01*
X158027380Y-64666914D01*
X158027380Y-66190723D02*
X158027380Y-65619295D01*
X158027380Y-65905009D02*
X157027380Y-65905009D01*
X157170238Y-65809771D01*
X157265476Y-65714533D01*
X157313095Y-65619295D01*
X157122619Y-66571676D02*
X157075000Y-66619295D01*
X157027380Y-66714533D01*
X157027380Y-66952628D01*
X157075000Y-67047866D01*
X157122619Y-67095485D01*
X157217857Y-67143104D01*
X157313095Y-67143104D01*
X157455952Y-67095485D01*
X158027380Y-66524057D01*
X158027380Y-67143104D01*
%TO.C,SW4*%
X182308333Y-105973461D02*
X182165476Y-106021080D01*
X181927380Y-106021080D01*
X181832142Y-105973461D01*
X181784523Y-105925842D01*
X181736904Y-105830604D01*
X181736904Y-105735366D01*
X181784523Y-105640128D01*
X181832142Y-105592509D01*
X181927380Y-105544890D01*
X182117857Y-105497271D01*
X182213095Y-105449652D01*
X182260714Y-105402033D01*
X182308333Y-105306795D01*
X182308333Y-105211557D01*
X182260714Y-105116319D01*
X182213095Y-105068700D01*
X182117857Y-105021080D01*
X181879761Y-105021080D01*
X181736904Y-105068700D01*
X181403571Y-105021080D02*
X181165476Y-106021080D01*
X180975000Y-105306795D01*
X180784523Y-106021080D01*
X180546428Y-105021080D01*
X179736904Y-105354414D02*
X179736904Y-106021080D01*
X179975000Y-104973461D02*
X180213095Y-105687747D01*
X179594047Y-105687747D01*
%TO.C,R3*%
X179046130Y-112318769D02*
X178569940Y-111985436D01*
X179046130Y-111747340D02*
X178046130Y-111747340D01*
X178046130Y-112128293D01*
X178093750Y-112223531D01*
X178141369Y-112271150D01*
X178236607Y-112318769D01*
X178379464Y-112318769D01*
X178474702Y-112271150D01*
X178522321Y-112223531D01*
X178569940Y-112128293D01*
X178569940Y-111747340D01*
X178046130Y-112652102D02*
X178046130Y-113271150D01*
X178427083Y-112937816D01*
X178427083Y-113080674D01*
X178474702Y-113175912D01*
X178522321Y-113223531D01*
X178617559Y-113271150D01*
X178855654Y-113271150D01*
X178950892Y-113223531D01*
X178998511Y-113175912D01*
X179046130Y-113080674D01*
X179046130Y-112794959D01*
X178998511Y-112699721D01*
X178950892Y-112652102D01*
%TO.C,U2*%
X184098204Y-78826080D02*
X184098204Y-79635604D01*
X184050585Y-79730842D01*
X184002966Y-79778461D01*
X183907728Y-79826080D01*
X183717252Y-79826080D01*
X183622014Y-79778461D01*
X183574395Y-79730842D01*
X183526776Y-79635604D01*
X183526776Y-78826080D01*
X183098204Y-78921319D02*
X183050585Y-78873700D01*
X182955347Y-78826080D01*
X182717252Y-78826080D01*
X182622014Y-78873700D01*
X182574395Y-78921319D01*
X182526776Y-79016557D01*
X182526776Y-79111795D01*
X182574395Y-79254652D01*
X183145823Y-79826080D01*
X182526776Y-79826080D01*
%TO.C,C16*%
X176662142Y-70794642D02*
X176709761Y-70747023D01*
X176757380Y-70604166D01*
X176757380Y-70508928D01*
X176709761Y-70366071D01*
X176614523Y-70270833D01*
X176519285Y-70223214D01*
X176328809Y-70175595D01*
X176185952Y-70175595D01*
X175995476Y-70223214D01*
X175900238Y-70270833D01*
X175805000Y-70366071D01*
X175757380Y-70508928D01*
X175757380Y-70604166D01*
X175805000Y-70747023D01*
X175852619Y-70794642D01*
X176757380Y-71747023D02*
X176757380Y-71175595D01*
X176757380Y-71461309D02*
X175757380Y-71461309D01*
X175900238Y-71366071D01*
X175995476Y-71270833D01*
X176043095Y-71175595D01*
X175757380Y-72604166D02*
X175757380Y-72413690D01*
X175805000Y-72318452D01*
X175852619Y-72270833D01*
X175995476Y-72175595D01*
X176185952Y-72127976D01*
X176566904Y-72127976D01*
X176662142Y-72175595D01*
X176709761Y-72223214D01*
X176757380Y-72318452D01*
X176757380Y-72508928D01*
X176709761Y-72604166D01*
X176662142Y-72651785D01*
X176566904Y-72699404D01*
X176328809Y-72699404D01*
X176233571Y-72651785D01*
X176185952Y-72604166D01*
X176138333Y-72508928D01*
X176138333Y-72318452D01*
X176185952Y-72223214D01*
X176233571Y-72175595D01*
X176328809Y-72127976D01*
%TO.C,C12*%
X166343442Y-89050842D02*
X166391061Y-89003223D01*
X166438680Y-88860366D01*
X166438680Y-88765128D01*
X166391061Y-88622271D01*
X166295823Y-88527033D01*
X166200585Y-88479414D01*
X166010109Y-88431795D01*
X165867252Y-88431795D01*
X165676776Y-88479414D01*
X165581538Y-88527033D01*
X165486300Y-88622271D01*
X165438680Y-88765128D01*
X165438680Y-88860366D01*
X165486300Y-89003223D01*
X165533919Y-89050842D01*
X166438680Y-90003223D02*
X166438680Y-89431795D01*
X166438680Y-89717509D02*
X165438680Y-89717509D01*
X165581538Y-89622271D01*
X165676776Y-89527033D01*
X165724395Y-89431795D01*
X165533919Y-90384176D02*
X165486300Y-90431795D01*
X165438680Y-90527033D01*
X165438680Y-90765128D01*
X165486300Y-90860366D01*
X165533919Y-90907985D01*
X165629157Y-90955604D01*
X165724395Y-90955604D01*
X165867252Y-90907985D01*
X166438680Y-90336557D01*
X166438680Y-90955604D01*
%TO.C,D32*%
X127452430Y-94829414D02*
X126452430Y-94829414D01*
X126452430Y-95067509D01*
X126500050Y-95210366D01*
X126595288Y-95305604D01*
X126690526Y-95353223D01*
X126881002Y-95400842D01*
X127023859Y-95400842D01*
X127214335Y-95353223D01*
X127309573Y-95305604D01*
X127404811Y-95210366D01*
X127452430Y-95067509D01*
X127452430Y-94829414D01*
X126452430Y-95734176D02*
X126452430Y-96353223D01*
X126833383Y-96019890D01*
X126833383Y-96162747D01*
X126881002Y-96257985D01*
X126928621Y-96305604D01*
X127023859Y-96353223D01*
X127261954Y-96353223D01*
X127357192Y-96305604D01*
X127404811Y-96257985D01*
X127452430Y-96162747D01*
X127452430Y-95877033D01*
X127404811Y-95781795D01*
X127357192Y-95734176D01*
X126547669Y-96734176D02*
X126500050Y-96781795D01*
X126452430Y-96877033D01*
X126452430Y-97115128D01*
X126500050Y-97210366D01*
X126547669Y-97257985D01*
X126642907Y-97305604D01*
X126738145Y-97305604D01*
X126881002Y-97257985D01*
X127452430Y-96686557D01*
X127452430Y-97305604D01*
%TO.C,C2*%
X162007142Y-122945783D02*
X162054761Y-122898164D01*
X162102380Y-122755307D01*
X162102380Y-122660069D01*
X162054761Y-122517211D01*
X161959523Y-122421973D01*
X161864285Y-122374354D01*
X161673809Y-122326735D01*
X161530952Y-122326735D01*
X161340476Y-122374354D01*
X161245238Y-122421973D01*
X161150000Y-122517211D01*
X161102380Y-122660069D01*
X161102380Y-122755307D01*
X161150000Y-122898164D01*
X161197619Y-122945783D01*
X161197619Y-123326735D02*
X161150000Y-123374354D01*
X161102380Y-123469592D01*
X161102380Y-123707688D01*
X161150000Y-123802926D01*
X161197619Y-123850545D01*
X161292857Y-123898164D01*
X161388095Y-123898164D01*
X161530952Y-123850545D01*
X162102380Y-123279116D01*
X162102380Y-123898164D01*
%TO.C,C3*%
X148788442Y-129133283D02*
X148836061Y-129085664D01*
X148883680Y-128942807D01*
X148883680Y-128847569D01*
X148836061Y-128704711D01*
X148740823Y-128609473D01*
X148645585Y-128561854D01*
X148455109Y-128514235D01*
X148312252Y-128514235D01*
X148121776Y-128561854D01*
X148026538Y-128609473D01*
X147931300Y-128704711D01*
X147883680Y-128847569D01*
X147883680Y-128942807D01*
X147931300Y-129085664D01*
X147978919Y-129133283D01*
X147883680Y-129466616D02*
X147883680Y-130085664D01*
X148264633Y-129752330D01*
X148264633Y-129895188D01*
X148312252Y-129990426D01*
X148359871Y-130038045D01*
X148455109Y-130085664D01*
X148693204Y-130085664D01*
X148788442Y-130038045D01*
X148836061Y-129990426D01*
X148883680Y-129895188D01*
X148883680Y-129609473D01*
X148836061Y-129514235D01*
X148788442Y-129466616D01*
%TO.C,D21*%
X127039880Y-83716914D02*
X126039880Y-83716914D01*
X126039880Y-83955009D01*
X126087500Y-84097866D01*
X126182738Y-84193104D01*
X126277976Y-84240723D01*
X126468452Y-84288342D01*
X126611309Y-84288342D01*
X126801785Y-84240723D01*
X126897023Y-84193104D01*
X126992261Y-84097866D01*
X127039880Y-83955009D01*
X127039880Y-83716914D01*
X126135119Y-84669295D02*
X126087500Y-84716914D01*
X126039880Y-84812152D01*
X126039880Y-85050247D01*
X126087500Y-85145485D01*
X126135119Y-85193104D01*
X126230357Y-85240723D01*
X126325595Y-85240723D01*
X126468452Y-85193104D01*
X127039880Y-84621676D01*
X127039880Y-85240723D01*
X127039880Y-86193104D02*
X127039880Y-85621676D01*
X127039880Y-85907390D02*
X126039880Y-85907390D01*
X126182738Y-85812152D01*
X126277976Y-85716914D01*
X126325595Y-85621676D01*
D11*
%TO.C,MX6*%
X176325000Y-89556200D02*
X176625000Y-89556200D01*
X176625000Y-89556200D02*
X176625000Y-89256200D01*
%TO.C,MX5*%
X157575000Y-89618700D02*
X157575000Y-89318700D01*
X157275000Y-89618700D02*
X157575000Y-89618700D01*
%TO.C,MX4*%
X138225000Y-89618700D02*
X138525000Y-89618700D01*
X138525000Y-89618700D02*
X138525000Y-89318700D01*
%TO.C,MX3*%
X167100000Y-70568700D02*
X167100000Y-70268700D01*
X166800000Y-70568700D02*
X167100000Y-70568700D01*
%TO.C,MX1*%
X128700000Y-70506200D02*
X129000000Y-70506200D01*
X129000000Y-70506200D02*
X129000000Y-70206200D01*
%TO.C,MX2*%
X147750000Y-70568700D02*
X148050000Y-70568700D01*
X148050000Y-70568700D02*
X148050000Y-70268700D01*
%TO.C,D5*%
X187006300Y-123456200D02*
X187006300Y-124606200D01*
X179706300Y-123456200D02*
X187006300Y-123456200D01*
X179706300Y-128956200D02*
X187006300Y-128956200D01*
D10*
%TO.C,U1*%
X151193800Y-107537500D02*
X151868800Y-107537500D01*
X161543800Y-107537500D02*
X160868800Y-107537500D01*
X161543800Y-117887500D02*
X160868800Y-117887500D01*
X151193800Y-117887500D02*
X151193800Y-117212500D01*
X161543800Y-107537500D02*
X161543800Y-108112500D01*
X161543800Y-117887500D02*
X161543800Y-117212500D01*
X151193800Y-107537500D02*
X151193800Y-108212500D01*
X161543800Y-108112500D02*
X162818800Y-108112500D01*
X151193800Y-117887500D02*
X151868800Y-117887500D01*
D11*
%TO.C,C7*%
X173772500Y-117213748D02*
X173772500Y-117736252D01*
X172302500Y-117213748D02*
X172302500Y-117736252D01*
%TO.C,C14*%
X184411252Y-68321200D02*
X183888748Y-68321200D01*
X184411252Y-69791200D02*
X183888748Y-69791200D01*
%TO.C,R4*%
X116622500Y-74717452D02*
X116622500Y-74194948D01*
X115152500Y-74717452D02*
X115152500Y-74194948D01*
%TO.C,C17*%
X116263748Y-69791200D02*
X116786252Y-69791200D01*
X116263748Y-68321200D02*
X116786252Y-68321200D01*
%TO.C,R7*%
X132983364Y-61171200D02*
X132529236Y-61171200D01*
X132983364Y-62641200D02*
X132529236Y-62641200D01*
%TO.C,F1*%
X123227064Y-62816200D02*
X122022936Y-62816200D01*
X123227064Y-60996200D02*
X122022936Y-60996200D01*
%TO.C,D33*%
X126412500Y-107025000D02*
X124412500Y-107025000D01*
X124412500Y-107025000D02*
X124412500Y-103125000D01*
X126412500Y-107025000D02*
X126412500Y-103125000D01*
%TO.C,DT11*%
X118743800Y-61543700D02*
X118743800Y-62693700D01*
X111443800Y-67043700D02*
X118743800Y-67043700D01*
X111443800Y-61543700D02*
X118743800Y-61543700D01*
%TO.C,R1*%
X153420864Y-103922400D02*
X152966736Y-103922400D01*
X153420864Y-102452400D02*
X152966736Y-102452400D01*
%TO.C,D13*%
X173625000Y-68131200D02*
X173625000Y-64231200D01*
X175625000Y-68131200D02*
X175625000Y-64231200D01*
X175625000Y-68131200D02*
X173625000Y-68131200D01*
%TO.C,R2*%
X159770864Y-102452500D02*
X159316736Y-102452500D01*
X159770864Y-103922500D02*
X159316736Y-103922500D01*
%TO.C,C9*%
X135790000Y-71698752D02*
X135790000Y-71176248D01*
X137260000Y-71698752D02*
X137260000Y-71176248D01*
%TO.C,C15*%
X184091300Y-89954952D02*
X184091300Y-89432448D01*
X182621300Y-89954952D02*
X182621300Y-89432448D01*
%TO.C,D17*%
X113712500Y-106962500D02*
X111712500Y-106962500D01*
X113712500Y-106962500D02*
X113712500Y-103062500D01*
X111712500Y-106962500D02*
X111712500Y-103062500D01*
%TO.C,C5*%
X173772500Y-112973752D02*
X173772500Y-112451248D01*
X172302500Y-112973752D02*
X172302500Y-112451248D01*
%TO.C,D9*%
X189387500Y-61543700D02*
X189387500Y-62693700D01*
X182087500Y-61543700D02*
X189387500Y-61543700D01*
X182087500Y-67043700D02*
X189387500Y-67043700D01*
%TO.C,C6*%
X175477500Y-117736252D02*
X175477500Y-117213748D01*
X176947500Y-117736252D02*
X176947500Y-117213748D01*
%TO.C,C4*%
X163571300Y-125944948D02*
X163571300Y-126467452D01*
X165041300Y-125944948D02*
X165041300Y-126467452D01*
%TO.C,D31*%
X126412500Y-90356200D02*
X126412500Y-86456200D01*
X126412500Y-90356200D02*
X124412500Y-90356200D01*
X124412500Y-90356200D02*
X124412500Y-86456200D01*
%TO.C,R6*%
X116622500Y-79408264D02*
X116622500Y-78954136D01*
X115152500Y-79408264D02*
X115152500Y-78954136D01*
%TO.C,D19*%
X113712500Y-98231300D02*
X113712500Y-94331300D01*
X111712500Y-98231300D02*
X111712500Y-94331300D01*
X113712500Y-98231300D02*
X111712500Y-98231300D01*
%TO.C,C8*%
X145991300Y-89954952D02*
X145991300Y-89432448D01*
X144521300Y-89954952D02*
X144521300Y-89432448D01*
%TO.C,D2*%
X113825000Y-128956200D02*
X113825000Y-127806200D01*
X121125000Y-123456200D02*
X113825000Y-123456200D01*
X121125000Y-128956200D02*
X113825000Y-128956200D01*
%TO.C,C11*%
X181507548Y-122178700D02*
X182030052Y-122178700D01*
X181507548Y-120708700D02*
X182030052Y-120708700D01*
%TO.C,D22*%
X148637500Y-87181200D02*
X146637500Y-87181200D01*
X146637500Y-87181200D02*
X146637500Y-83281200D01*
X148637500Y-87181200D02*
X148637500Y-83281200D01*
%TO.C,C13*%
X154840000Y-71176248D02*
X154840000Y-71698752D01*
X156310000Y-71176248D02*
X156310000Y-71698752D01*
%TO.C,D11*%
X135525000Y-68131200D02*
X135525000Y-64231200D01*
X137525000Y-68131200D02*
X135525000Y-68131200D01*
X137525000Y-68131200D02*
X137525000Y-64231200D01*
%TO.C,R5*%
X128136252Y-61171200D02*
X127613748Y-61171200D01*
X128136252Y-62641200D02*
X127613748Y-62641200D01*
%TO.C,C1*%
X151547500Y-125944948D02*
X151547500Y-126467452D01*
X150077500Y-125944948D02*
X150077500Y-126467452D01*
%TO.C,C10*%
X119323752Y-122178700D02*
X118801248Y-122178700D01*
X119323752Y-120708700D02*
X118801248Y-120708700D01*
%TO.C,Y1*%
X153806300Y-128812400D02*
X153806300Y-124312400D01*
X153806300Y-124312400D02*
X159206300Y-124312400D01*
%TO.C,D18*%
X113712500Y-90356200D02*
X113712500Y-86456200D01*
X111712500Y-90356200D02*
X111712500Y-86456200D01*
X113712500Y-90356200D02*
X111712500Y-90356200D01*
%TO.C,D23*%
X167687500Y-87181200D02*
X167687500Y-83281200D01*
X165687500Y-87181200D02*
X165687500Y-83281200D01*
X167687500Y-87181200D02*
X165687500Y-87181200D01*
%TO.C,D12*%
X156575000Y-68131200D02*
X154575000Y-68131200D01*
X156575000Y-68131200D02*
X156575000Y-64231200D01*
X154575000Y-68131200D02*
X154575000Y-64231200D01*
D10*
%TO.C,SW4*%
X177225000Y-102968700D02*
X172025000Y-102968700D01*
X172025000Y-108168700D02*
X177225000Y-108168700D01*
X172025000Y-102968700D02*
X172025000Y-108168700D01*
X177225000Y-108168700D02*
X177225000Y-102968700D01*
X175625000Y-105568700D02*
G75*
G03*
X175625000Y-105568700I-1000000J0D01*
G01*
D11*
%TO.C,R3*%
X175477500Y-112485436D02*
X175477500Y-112939564D01*
X176947500Y-112485436D02*
X176947500Y-112939564D01*
%TO.C,U2*%
X184006300Y-78553700D02*
X181006300Y-78553700D01*
X182706300Y-75433700D02*
X184006300Y-75433700D01*
%TO.C,C16*%
X175360000Y-71698752D02*
X175360000Y-71176248D01*
X173890000Y-71698752D02*
X173890000Y-71176248D01*
%TO.C,C12*%
X163571300Y-89954952D02*
X163571300Y-89432448D01*
X165041300Y-89954952D02*
X165041300Y-89432448D01*
%TO.C,D32*%
X124412500Y-98293700D02*
X124412500Y-94393700D01*
X126412500Y-98293700D02*
X124412500Y-98293700D01*
X126412500Y-98293700D02*
X126412500Y-94393700D01*
%TO.C,C2*%
X162660000Y-126467452D02*
X162660000Y-125944948D01*
X161190000Y-126467452D02*
X161190000Y-125944948D01*
%TO.C,C3*%
X149166300Y-126467452D02*
X149166300Y-125944948D01*
X147696300Y-126467452D02*
X147696300Y-125944948D01*
%TO.C,D21*%
X129587500Y-82681200D02*
X129587500Y-86581200D01*
X127587500Y-82681200D02*
X129587500Y-82681200D01*
X127587500Y-82681200D02*
X127587500Y-86581200D01*
%TD*%
M02*
