%TF.GenerationSoftware,KiCad,Pcbnew,(6.0.5)*%
%TF.CreationDate,2022-05-29T01:25:08+07:00*%
%TF.ProjectId,atelier-alter,6174656c-6965-4722-9d61-6c7465722e6b,rev?*%
%TF.SameCoordinates,Original*%
%TF.FileFunction,Copper,L1,Top*%
%TF.FilePolarity,Positive*%
%FSLAX46Y46*%
G04 Gerber Fmt 4.6, Leading zero omitted, Abs format (unit mm)*
G04 Created by KiCad (PCBNEW (6.0.5)) date 2022-05-29 01:25:08*
%MOMM*%
%LPD*%
G01*
G04 APERTURE LIST*
%TA.AperFunction,ComponentPad*%
%ADD10C,2.000000*%
%TD*%
%TA.AperFunction,SMDPad,CuDef*%
%ADD11R,0.600000X2.450000*%
%TD*%
%TA.AperFunction,SMDPad,CuDef*%
%ADD12R,0.300000X2.450000*%
%TD*%
%TA.AperFunction,ComponentPad*%
%ADD13O,1.000000X2.100000*%
%TD*%
%TA.AperFunction,ComponentPad*%
%ADD14O,1.000000X1.600000*%
%TD*%
%TA.AperFunction,ViaPad*%
%ADD15C,0.800000*%
%TD*%
%TA.AperFunction,ViaPad*%
%ADD16C,0.600000*%
%TD*%
%TA.AperFunction,Conductor*%
%ADD17C,0.300000*%
%TD*%
%TA.AperFunction,Conductor*%
%ADD18C,0.150000*%
%TD*%
G04 APERTURE END LIST*
D10*
%TO.P,SW2,1,1*%
%TO.N,Net-(D32-Pad2)*%
X122505200Y-96968800D03*
X129005200Y-96968800D03*
%TO.P,SW2,2,2*%
%TO.N,COL2*%
X122505200Y-101468800D03*
X129005200Y-101468800D03*
%TD*%
%TO.P,SW3,1,1*%
%TO.N,Net-(D33-Pad2)*%
X122505100Y-105700000D03*
X129005100Y-105700000D03*
%TO.P,SW3,2,2*%
%TO.N,COL3*%
X122505100Y-110200000D03*
X129005100Y-110200000D03*
%TD*%
%TO.P,SW1,1,1*%
%TO.N,Net-(D31-Pad2)*%
X122505100Y-88237500D03*
X129005100Y-88237500D03*
%TO.P,SW1,2,2*%
%TO.N,COL1*%
X122505100Y-92737500D03*
X129005100Y-92737500D03*
%TD*%
D11*
%TO.P,USB1,1,GND*%
%TO.N,GND*%
X160730100Y-61376300D03*
%TO.P,USB1,2,VBUS*%
%TO.N,+5V*%
X159955100Y-61376300D03*
D12*
%TO.P,USB1,3,SBU2*%
%TO.N,unconnected-(USB1-Pad3)*%
X159255100Y-61376300D03*
%TO.P,USB1,4,CC1*%
%TO.N,Net-(R4-Pad2)*%
X158755100Y-61376300D03*
%TO.P,USB1,5,DN2*%
%TO.N,D-*%
X158255100Y-61376300D03*
%TO.P,USB1,6,DP1*%
%TO.N,D+*%
X157755100Y-61376300D03*
%TO.P,USB1,7,DN1*%
%TO.N,D-*%
X157255100Y-61376300D03*
%TO.P,USB1,8,DP2*%
%TO.N,D+*%
X156755100Y-61376300D03*
%TO.P,USB1,9,SBU1*%
%TO.N,unconnected-(USB1-Pad9)*%
X156255100Y-61376300D03*
%TO.P,USB1,10,CC2*%
%TO.N,Net-(R5-Pad2)*%
X155755100Y-61376300D03*
D11*
%TO.P,USB1,11,VBUS*%
%TO.N,+5V*%
X155055100Y-61376300D03*
%TO.P,USB1,12,GND*%
%TO.N,GND*%
X154280100Y-61376300D03*
D13*
%TO.P,USB1,13,SHIELD*%
X161825100Y-59961300D03*
D14*
X153185100Y-55781300D03*
D13*
X153185100Y-59961300D03*
D14*
X161825100Y-55781300D03*
%TD*%
D15*
%TO.N,+5V*%
X157480000Y-58420000D03*
X167280200Y-69182100D03*
D16*
%TO.N,ROW1*%
X164651100Y-87687500D03*
X160468700Y-116221900D03*
%TO.N,COL1*%
X160338100Y-114793900D03*
X150531000Y-103005800D03*
%TO.N,COL2*%
X169677600Y-99619900D03*
X160919300Y-115515600D03*
X166775900Y-88247600D03*
%TO.N,COL3*%
X178734000Y-88437200D03*
X160419000Y-117094500D03*
X186518100Y-99937000D03*
%TO.N,D-*%
X178481800Y-114698300D03*
X185589800Y-81907800D03*
%TO.N,D+*%
X179600700Y-82943200D03*
X177444400Y-112514100D03*
%TO.N,Net-(R3-Pad1)*%
X166261400Y-118911900D03*
X188939700Y-115547200D03*
X148015300Y-112439000D03*
%TO.N,D11*%
X137708100Y-70619400D03*
X187016800Y-91553500D03*
%TO.N,D12*%
X193194700Y-73839000D03*
X173469100Y-73839000D03*
%TO.N,D21*%
X147400800Y-88991700D03*
X120739100Y-71386100D03*
%TO.N,RGB*%
X162261400Y-118762700D03*
X135640100Y-114762200D03*
%TO.N,Net-(R4-Pad2)*%
X165811700Y-71290700D03*
%TO.N,Net-(R5-Pad2)*%
X124850300Y-76653200D03*
%TO.N,Net-(MX1-Pad3)*%
X155342600Y-69115500D03*
X129687100Y-71682300D03*
%TO.N,Net-(MX2-Pad3)*%
X166937100Y-72637100D03*
X165140800Y-72925300D03*
X175823500Y-70771600D03*
X148870300Y-72728200D03*
%TO.N,Net-(MX4-Pad3)*%
X166291700Y-89826500D03*
X142224000Y-92414400D03*
%TO.N,Net-(MX5-Pad3)*%
X182727000Y-87103400D03*
X158251300Y-90623300D03*
%TD*%
D17*
%TO.N,+5V*%
X159955100Y-61376300D02*
X159955100Y-62951600D01*
X156765000Y-58420000D02*
X155055100Y-60129900D01*
X159955100Y-60015929D02*
X159955100Y-61376300D01*
X159670579Y-59731408D02*
X159955100Y-60015929D01*
X158750000Y-58420000D02*
X159670579Y-59340579D01*
X166185600Y-69182100D02*
X159955100Y-62951600D01*
X157480000Y-58420000D02*
X158750000Y-58420000D01*
X167280200Y-69182100D02*
X166185600Y-69182100D01*
X159670579Y-59340579D02*
X159670579Y-59731408D01*
X155055100Y-60129900D02*
X155055100Y-61376300D01*
X157480000Y-58420000D02*
X156765000Y-58420000D01*
%TO.N,GND*%
X160744800Y-61361600D02*
X160730100Y-61376300D01*
X153185100Y-61361600D02*
X154265400Y-61361600D01*
X161825100Y-59961300D02*
X161825100Y-61361600D01*
X153185100Y-59961300D02*
X153185100Y-61361600D01*
X154265400Y-61361600D02*
X154280100Y-61376300D01*
X161825100Y-61361600D02*
X160744800Y-61361600D01*
D18*
%TO.N,ROW1*%
X170266800Y-107006800D02*
X170266800Y-90894600D01*
X160468700Y-116221900D02*
X161051700Y-116221900D01*
X164666300Y-87672300D02*
X164651100Y-87687500D01*
X170266800Y-90894600D02*
X167044500Y-87672300D01*
X161051700Y-116221900D02*
X170266800Y-107006800D01*
X167044500Y-87672300D02*
X164666300Y-87672300D01*
%TO.N,COL1*%
X150531000Y-103005800D02*
X122227200Y-103005800D01*
X121192600Y-101971200D02*
X121192600Y-94050000D01*
X150531000Y-103005800D02*
X150531000Y-104986800D01*
X122505100Y-92737500D02*
X129005100Y-92737500D01*
X150531000Y-104986800D02*
X160338100Y-114793900D01*
X121192600Y-94050000D02*
X122505100Y-92737500D01*
X122227200Y-103005800D02*
X121192600Y-101971200D01*
%TO.N,COL2*%
X168522200Y-99619900D02*
X168522200Y-89993900D01*
X122505200Y-101468800D02*
X129005200Y-101468800D01*
X129461000Y-101924600D02*
X129005200Y-101468800D01*
X168522200Y-99619900D02*
X158594900Y-109547200D01*
X129461100Y-101924600D02*
X129461000Y-101924600D01*
X158594900Y-109547200D02*
X151428100Y-102380500D01*
X151428100Y-102380500D02*
X129917000Y-102380500D01*
X160919300Y-111871700D02*
X160919300Y-115515600D01*
X129917000Y-102380500D02*
X129461100Y-101924600D01*
X169677600Y-99619900D02*
X168522200Y-99619900D01*
X168522200Y-89993900D02*
X166775900Y-88247600D01*
X158594900Y-109547200D02*
X160919300Y-111871700D01*
%TO.N,COL3*%
X160419000Y-117003400D02*
X160419000Y-117094500D01*
X153615600Y-110200000D02*
X129005100Y-110200000D01*
X178734000Y-96802800D02*
X178734000Y-88437200D01*
X129005100Y-110200000D02*
X122505100Y-110200000D01*
X164560700Y-117003400D02*
X180582600Y-100981500D01*
X160419000Y-117003400D02*
X153615600Y-110200000D01*
X180582600Y-99937000D02*
X180582600Y-98651400D01*
X180582600Y-99937000D02*
X186518100Y-99937000D01*
X160419000Y-117003400D02*
X164560700Y-117003400D01*
X180582600Y-98651400D02*
X178734000Y-96802800D01*
X180582600Y-100981500D02*
X180582600Y-99937000D01*
%TO.N,D-*%
X173605700Y-74792100D02*
X178474100Y-74792100D01*
X172116400Y-73302800D02*
X173605700Y-74792100D01*
X166776800Y-73302800D02*
X172116400Y-73302800D01*
X158255100Y-59876000D02*
X157255100Y-59876000D01*
X166277500Y-72571200D02*
X166277500Y-72803500D01*
X166277500Y-72803500D02*
X166776800Y-73302800D01*
X187965400Y-84283400D02*
X187965400Y-105214700D01*
X185589800Y-81907800D02*
X187965400Y-84283400D01*
X158255100Y-61376300D02*
X158255100Y-64548800D01*
X158255100Y-64548800D02*
X166277500Y-72571200D01*
X187965400Y-105214700D02*
X178481800Y-114698300D01*
X178474100Y-74792100D02*
X185589800Y-81907800D01*
X157255100Y-61376300D02*
X157255100Y-59876000D01*
X158255100Y-61376300D02*
X158255100Y-59876000D01*
%TO.N,D+*%
X187592100Y-90563000D02*
X187592100Y-102366400D01*
X156755100Y-61376300D02*
X156755100Y-62876600D01*
X179600700Y-82943200D02*
X179972300Y-82943200D01*
X157755100Y-62876600D02*
X157755100Y-64544300D01*
X165892800Y-72682000D02*
X165892800Y-73524600D01*
X187592100Y-102366400D02*
X177444400Y-112514100D01*
X175311400Y-82943200D02*
X179600700Y-82943200D01*
X179972300Y-82943200D02*
X187592100Y-90563000D01*
X157755100Y-61376300D02*
X157755100Y-62876600D01*
X165892800Y-73524600D02*
X175311400Y-82943200D01*
X156755100Y-62876600D02*
X157755100Y-62876600D01*
X157755100Y-64544300D02*
X165892800Y-72682000D01*
%TO.N,Net-(R3-Pad1)*%
X154858700Y-112439000D02*
X148015300Y-112439000D01*
X166261400Y-118911900D02*
X165110500Y-117761000D01*
X165110500Y-117761000D02*
X160180700Y-117761000D01*
X160180700Y-117761000D02*
X154858700Y-112439000D01*
X169626100Y-115547200D02*
X166261400Y-118911900D01*
X188939700Y-115547200D02*
X169626100Y-115547200D01*
%TO.N,D11*%
X169342400Y-78432800D02*
X177094200Y-86184600D01*
X140977400Y-73888700D02*
X160423600Y-73888700D01*
X164967700Y-78432800D02*
X169342400Y-78432800D01*
X137708100Y-70619400D02*
X140977400Y-73888700D01*
X177094200Y-86184600D02*
X182625400Y-86184600D01*
X182625400Y-86184600D02*
X187016800Y-90576000D01*
X160423600Y-73888700D02*
X164967700Y-78432800D01*
X187016800Y-90576000D02*
X187016800Y-91553500D01*
%TO.N,D12*%
X193194700Y-73839000D02*
X173469100Y-73839000D01*
%TO.N,D21*%
X146833800Y-88424700D02*
X135730100Y-88424700D01*
X120739200Y-71386100D02*
X120739100Y-71386100D01*
X120739200Y-73433800D02*
X120739200Y-71386100D01*
X135730100Y-88424700D02*
X120739200Y-73433800D01*
X147400800Y-88991700D02*
X146833800Y-88424700D01*
%TO.N,RGB*%
X162261400Y-118762700D02*
X160395600Y-118762700D01*
X156395100Y-114762200D02*
X135640100Y-114762200D01*
X160395600Y-118762700D02*
X156395100Y-114762200D01*
%TO.N,Net-(R4-Pad2)*%
X158755100Y-64234100D02*
X165811700Y-71290700D01*
X158755100Y-61376300D02*
X158755100Y-64234100D01*
%TO.N,Net-(R5-Pad2)*%
X155755100Y-61376300D02*
X155755100Y-62876600D01*
X124850300Y-75691700D02*
X124850300Y-76653200D01*
X155755100Y-62876600D02*
X137665400Y-62876600D01*
X137665400Y-62876600D02*
X124850300Y-75691700D01*
%TO.N,Net-(MX1-Pad3)*%
X129687100Y-71682300D02*
X129687100Y-71491000D01*
X132062600Y-69115500D02*
X155342600Y-69115500D01*
X129687100Y-71491000D02*
X132062600Y-69115500D01*
%TO.N,Net-(MX2-Pad3)*%
X149067400Y-72925300D02*
X148870300Y-72728200D01*
X173669700Y-72925400D02*
X167225400Y-72925400D01*
X165140800Y-72925300D02*
X149067400Y-72925300D01*
X167225400Y-72925400D02*
X166937100Y-72637100D01*
X175823500Y-70771600D02*
X173669700Y-72925400D01*
%TO.N,Net-(MX4-Pad3)*%
X142224000Y-92414400D02*
X163703800Y-92414400D01*
X163703800Y-92414400D02*
X166291700Y-89826500D01*
%TO.N,Net-(MX5-Pad3)*%
X161771200Y-87103400D02*
X182727000Y-87103400D01*
X158251300Y-90623300D02*
X161771200Y-87103400D01*
%TO.N,Net-(D31-Pad2)*%
X129005100Y-88237500D02*
X122505100Y-88237500D01*
%TO.N,Net-(D32-Pad2)*%
X129005200Y-96968800D02*
X122505200Y-96968800D01*
%TO.N,Net-(D33-Pad2)*%
X129005100Y-105700000D02*
X122505100Y-105700000D01*
%TD*%
%TA.AperFunction,Conductor*%
%TO.N,GND*%
G36*
X161037375Y-54631002D02*
G01*
X161083868Y-54684658D01*
X161093972Y-54754932D01*
X161065776Y-54817991D01*
X160993322Y-54904339D01*
X160986392Y-54914459D01*
X160897098Y-55076885D01*
X160892266Y-55088158D01*
X160836220Y-55264838D01*
X160833670Y-55276832D01*
X160817493Y-55421061D01*
X160817100Y-55428085D01*
X160817100Y-55509185D01*
X160821575Y-55524424D01*
X160822965Y-55525629D01*
X160830648Y-55527300D01*
X161953100Y-55527300D01*
X162021221Y-55547302D01*
X162067714Y-55600958D01*
X162079100Y-55653300D01*
X162079100Y-57039224D01*
X162083073Y-57052755D01*
X162090868Y-57053875D01*
X162198621Y-57022162D01*
X162209985Y-57017571D01*
X162374624Y-56931499D01*
X162444260Y-56917665D01*
X162510321Y-56943675D01*
X162551833Y-57001271D01*
X162559000Y-57043161D01*
X162559000Y-58450790D01*
X162538998Y-58518911D01*
X162485342Y-58565404D01*
X162415068Y-58575508D01*
X162373071Y-58561626D01*
X162223024Y-58480496D01*
X162211719Y-58475744D01*
X162096408Y-58440050D01*
X162082305Y-58439844D01*
X162079100Y-58446599D01*
X162079100Y-61469224D01*
X162083073Y-61482755D01*
X162090868Y-61483875D01*
X162198621Y-61452162D01*
X162209989Y-61447569D01*
X162374254Y-61361693D01*
X162384515Y-61354979D01*
X162528973Y-61238832D01*
X162537732Y-61230254D01*
X162656878Y-61088261D01*
X162663808Y-61078141D01*
X162753102Y-60915715D01*
X162757933Y-60904445D01*
X162814928Y-60724773D01*
X162854591Y-60665889D01*
X162919793Y-60637797D01*
X162989833Y-60649414D01*
X163015814Y-60666177D01*
X163092753Y-60730456D01*
X163266853Y-60834092D01*
X163455169Y-60908845D01*
X163554058Y-60930836D01*
X163648054Y-60951740D01*
X163648058Y-60951741D01*
X163652948Y-60952828D01*
X163855197Y-60964930D01*
X163855139Y-60961982D01*
X163863798Y-60961000D01*
X196845046Y-60961000D01*
X196854931Y-60961388D01*
X196963455Y-60969929D01*
X196964245Y-60969995D01*
X197044063Y-60976978D01*
X197062491Y-60979978D01*
X197155489Y-61002305D01*
X197162769Y-61004053D01*
X197165965Y-61004865D01*
X197248985Y-61027110D01*
X197264592Y-61032408D01*
X197358780Y-61071422D01*
X197363789Y-61073626D01*
X197442686Y-61110417D01*
X197455253Y-61117169D01*
X197541795Y-61170202D01*
X197548206Y-61174405D01*
X197578986Y-61195958D01*
X197619819Y-61224550D01*
X197629377Y-61231950D01*
X197706408Y-61297740D01*
X197713673Y-61304457D01*
X197775543Y-61366327D01*
X197782260Y-61373592D01*
X197848050Y-61450623D01*
X197855450Y-61460181D01*
X197905588Y-61531784D01*
X197909798Y-61538205D01*
X197962828Y-61624742D01*
X197969583Y-61637314D01*
X198006374Y-61716211D01*
X198008578Y-61721220D01*
X198047592Y-61815408D01*
X198052890Y-61831015D01*
X198075135Y-61914035D01*
X198075947Y-61917231D01*
X198100021Y-62017505D01*
X198103022Y-62035937D01*
X198110005Y-62115755D01*
X198110071Y-62116545D01*
X198118612Y-62225069D01*
X198119000Y-62234954D01*
X198119000Y-133345100D01*
X198118611Y-133354991D01*
X198110081Y-133463315D01*
X198109990Y-133464411D01*
X198103014Y-133544108D01*
X198100012Y-133562538D01*
X198086213Y-133620009D01*
X198075929Y-133662841D01*
X198075135Y-133665965D01*
X198052873Y-133749036D01*
X198047581Y-133764623D01*
X198008577Y-133858780D01*
X198008568Y-133858802D01*
X198006364Y-133863812D01*
X197969570Y-133942712D01*
X197962821Y-133955273D01*
X197917003Y-134030037D01*
X197909776Y-134041829D01*
X197905563Y-134048254D01*
X197872584Y-134095351D01*
X197855441Y-134119832D01*
X197848040Y-134129390D01*
X197782238Y-134206432D01*
X197775521Y-134213698D01*
X197713657Y-134275559D01*
X197706392Y-134282274D01*
X197629357Y-134348065D01*
X197619799Y-134355466D01*
X197548215Y-134405589D01*
X197541778Y-134409809D01*
X197455244Y-134462835D01*
X197442659Y-134469597D01*
X197363781Y-134506377D01*
X197358751Y-134508590D01*
X197317017Y-134525877D01*
X197264576Y-134547598D01*
X197248981Y-134552891D01*
X197225223Y-134559257D01*
X197165962Y-134575135D01*
X197162767Y-134575947D01*
X197115713Y-134587244D01*
X197062486Y-134600022D01*
X197044061Y-134603022D01*
X196964341Y-134609997D01*
X196963340Y-134610080D01*
X196854931Y-134618612D01*
X196845045Y-134619000D01*
X118114954Y-134619000D01*
X118105069Y-134618612D01*
X117996545Y-134610071D01*
X117995755Y-134610005D01*
X117915937Y-134603022D01*
X117897509Y-134600022D01*
X117797233Y-134575947D01*
X117794035Y-134575135D01*
X117711015Y-134552890D01*
X117695408Y-134547592D01*
X117601220Y-134508578D01*
X117596211Y-134506374D01*
X117517314Y-134469583D01*
X117504747Y-134462831D01*
X117418205Y-134409798D01*
X117411786Y-134405589D01*
X117376044Y-134380562D01*
X117340181Y-134355450D01*
X117330623Y-134348050D01*
X117253592Y-134282260D01*
X117246327Y-134275543D01*
X117184457Y-134213673D01*
X117177740Y-134206408D01*
X117111950Y-134129377D01*
X117104550Y-134119819D01*
X117079438Y-134083956D01*
X117054405Y-134048206D01*
X117050202Y-134041795D01*
X116997169Y-133955253D01*
X116990417Y-133942686D01*
X116953626Y-133863789D01*
X116951422Y-133858780D01*
X116912408Y-133764592D01*
X116907110Y-133748985D01*
X116884865Y-133665965D01*
X116884053Y-133662769D01*
X116882305Y-133655489D01*
X116859978Y-133562491D01*
X116856978Y-133544062D01*
X116849995Y-133464245D01*
X116849929Y-133463455D01*
X116841388Y-133354931D01*
X116841000Y-133345046D01*
X116841000Y-129645028D01*
X120418025Y-129645028D01*
X120455347Y-129888930D01*
X120532003Y-130123460D01*
X120645935Y-130342321D01*
X120794083Y-130539636D01*
X120972468Y-130710104D01*
X120976740Y-130713018D01*
X120976741Y-130713019D01*
X121005893Y-130732905D01*
X121176300Y-130849149D01*
X121288202Y-130901092D01*
X121395409Y-130950856D01*
X121395413Y-130950857D01*
X121400104Y-130953035D01*
X121637871Y-131018974D01*
X121643008Y-131019523D01*
X121835957Y-131040144D01*
X121835965Y-131040144D01*
X121839292Y-131040500D01*
X121982554Y-131040500D01*
X121985127Y-131040288D01*
X121985138Y-131040288D01*
X122160760Y-131025849D01*
X122160766Y-131025848D01*
X122165911Y-131025425D01*
X122405217Y-130965316D01*
X122631493Y-130866928D01*
X122838661Y-130732905D01*
X122860516Y-130713019D01*
X122896536Y-130680243D01*
X123021158Y-130566846D01*
X123024357Y-130562795D01*
X123024361Y-130562791D01*
X123170881Y-130377264D01*
X123170884Y-130377259D01*
X123174082Y-130373210D01*
X123176577Y-130368691D01*
X123290830Y-130161722D01*
X123290832Y-130161718D01*
X123293327Y-130157198D01*
X123305275Y-130123460D01*
X123373965Y-129929485D01*
X123373966Y-129929481D01*
X123375691Y-129924610D01*
X123418961Y-129681694D01*
X123419409Y-129645028D01*
X191538025Y-129645028D01*
X191575347Y-129888930D01*
X191652003Y-130123460D01*
X191765935Y-130342321D01*
X191914083Y-130539636D01*
X192092468Y-130710104D01*
X192096740Y-130713018D01*
X192096741Y-130713019D01*
X192125893Y-130732905D01*
X192296300Y-130849149D01*
X192408202Y-130901092D01*
X192515409Y-130950856D01*
X192515413Y-130950857D01*
X192520104Y-130953035D01*
X192757871Y-131018974D01*
X192763008Y-131019523D01*
X192955957Y-131040144D01*
X192955965Y-131040144D01*
X192959292Y-131040500D01*
X193102554Y-131040500D01*
X193105127Y-131040288D01*
X193105138Y-131040288D01*
X193280760Y-131025849D01*
X193280766Y-131025848D01*
X193285911Y-131025425D01*
X193525217Y-130965316D01*
X193751493Y-130866928D01*
X193958661Y-130732905D01*
X193980516Y-130713019D01*
X194016536Y-130680243D01*
X194141158Y-130566846D01*
X194144357Y-130562795D01*
X194144361Y-130562791D01*
X194290881Y-130377264D01*
X194290884Y-130377259D01*
X194294082Y-130373210D01*
X194296577Y-130368691D01*
X194410830Y-130161722D01*
X194410832Y-130161718D01*
X194413327Y-130157198D01*
X194425275Y-130123460D01*
X194493965Y-129929485D01*
X194493966Y-129929481D01*
X194495691Y-129924610D01*
X194538961Y-129681694D01*
X194541975Y-129434972D01*
X194504653Y-129191070D01*
X194427997Y-128956540D01*
X194314065Y-128737679D01*
X194165917Y-128540364D01*
X193987532Y-128369896D01*
X193959212Y-128350577D01*
X193787979Y-128233770D01*
X193787980Y-128233770D01*
X193783700Y-128230851D01*
X193671798Y-128178908D01*
X193564591Y-128129144D01*
X193564587Y-128129143D01*
X193559896Y-128126965D01*
X193322129Y-128061026D01*
X193316992Y-128060477D01*
X193124043Y-128039856D01*
X193124035Y-128039856D01*
X193120708Y-128039500D01*
X192977446Y-128039500D01*
X192974873Y-128039712D01*
X192974862Y-128039712D01*
X192799240Y-128054151D01*
X192799234Y-128054152D01*
X192794089Y-128054575D01*
X192554783Y-128114684D01*
X192328507Y-128213072D01*
X192121339Y-128347095D01*
X192117514Y-128350575D01*
X192117512Y-128350577D01*
X192096281Y-128369896D01*
X191938842Y-128513154D01*
X191935643Y-128517205D01*
X191935639Y-128517209D01*
X191789119Y-128702736D01*
X191789116Y-128702741D01*
X191785918Y-128706790D01*
X191783425Y-128711306D01*
X191783423Y-128711309D01*
X191771150Y-128733543D01*
X191666673Y-128922802D01*
X191664949Y-128927671D01*
X191664947Y-128927675D01*
X191652984Y-128961458D01*
X191584309Y-129155390D01*
X191541039Y-129398306D01*
X191538025Y-129645028D01*
X123419409Y-129645028D01*
X123421975Y-129434972D01*
X123384653Y-129191070D01*
X123307997Y-128956540D01*
X123194065Y-128737679D01*
X123045917Y-128540364D01*
X122867532Y-128369896D01*
X122839212Y-128350577D01*
X122667979Y-128233770D01*
X122667980Y-128233770D01*
X122663700Y-128230851D01*
X122551798Y-128178908D01*
X122444591Y-128129144D01*
X122444587Y-128129143D01*
X122439896Y-128126965D01*
X122202129Y-128061026D01*
X122196992Y-128060477D01*
X122004043Y-128039856D01*
X122004035Y-128039856D01*
X122000708Y-128039500D01*
X121857446Y-128039500D01*
X121854873Y-128039712D01*
X121854862Y-128039712D01*
X121679240Y-128054151D01*
X121679234Y-128054152D01*
X121674089Y-128054575D01*
X121434783Y-128114684D01*
X121208507Y-128213072D01*
X121001339Y-128347095D01*
X120997514Y-128350575D01*
X120997512Y-128350577D01*
X120976281Y-128369896D01*
X120818842Y-128513154D01*
X120815643Y-128517205D01*
X120815639Y-128517209D01*
X120669119Y-128702736D01*
X120669116Y-128702741D01*
X120665918Y-128706790D01*
X120663425Y-128711306D01*
X120663423Y-128711309D01*
X120651150Y-128733543D01*
X120546673Y-128922802D01*
X120544949Y-128927671D01*
X120544947Y-128927675D01*
X120532984Y-128961458D01*
X120464309Y-129155390D01*
X120421039Y-129398306D01*
X120418025Y-129645028D01*
X116841000Y-129645028D01*
X116841000Y-105668440D01*
X121299870Y-105668440D01*
X121314300Y-105888604D01*
X121315721Y-105894200D01*
X121315722Y-105894205D01*
X121355076Y-106049158D01*
X121368611Y-106102452D01*
X121371028Y-106107694D01*
X121371028Y-106107695D01*
X121409146Y-106190379D01*
X121460983Y-106302821D01*
X121588322Y-106483002D01*
X121746364Y-106636961D01*
X121751160Y-106640166D01*
X121751163Y-106640168D01*
X121835361Y-106696427D01*
X121929817Y-106759540D01*
X121935120Y-106761818D01*
X121935123Y-106761820D01*
X122118242Y-106840494D01*
X122132536Y-106846635D01*
X122212188Y-106864658D01*
X122342095Y-106894054D01*
X122342101Y-106894055D01*
X122347732Y-106895329D01*
X122353503Y-106895556D01*
X122353505Y-106895556D01*
X122421311Y-106898220D01*
X122568198Y-106903991D01*
X122677375Y-106888161D01*
X122780838Y-106873160D01*
X122780843Y-106873159D01*
X122786552Y-106872331D01*
X122792016Y-106870476D01*
X122792021Y-106870475D01*
X122990007Y-106803268D01*
X122990012Y-106803266D01*
X122995479Y-106801410D01*
X123187984Y-106693602D01*
X123357618Y-106552518D01*
X123498702Y-106382884D01*
X123606510Y-106190379D01*
X123650429Y-106060998D01*
X123691265Y-106002923D01*
X123757017Y-105976144D01*
X123769741Y-105975500D01*
X127738369Y-105975500D01*
X127806490Y-105995502D01*
X127852983Y-106049158D01*
X127860492Y-106070484D01*
X127868611Y-106102452D01*
X127871028Y-106107694D01*
X127871028Y-106107695D01*
X127909146Y-106190379D01*
X127960983Y-106302821D01*
X128088322Y-106483002D01*
X128246364Y-106636961D01*
X128251160Y-106640166D01*
X128251163Y-106640168D01*
X128335361Y-106696427D01*
X128429817Y-106759540D01*
X128435120Y-106761818D01*
X128435123Y-106761820D01*
X128618242Y-106840494D01*
X128632536Y-106846635D01*
X128712188Y-106864658D01*
X128842095Y-106894054D01*
X128842101Y-106894055D01*
X128847732Y-106895329D01*
X128853503Y-106895556D01*
X128853505Y-106895556D01*
X128921311Y-106898220D01*
X129068198Y-106903991D01*
X129177375Y-106888161D01*
X129280838Y-106873160D01*
X129280843Y-106873159D01*
X129286552Y-106872331D01*
X129292016Y-106870476D01*
X129292021Y-106870475D01*
X129490007Y-106803268D01*
X129490012Y-106803266D01*
X129495479Y-106801410D01*
X129687984Y-106693602D01*
X129857618Y-106552518D01*
X129998702Y-106382884D01*
X130106510Y-106190379D01*
X130108366Y-106184912D01*
X130108368Y-106184907D01*
X130175575Y-105986921D01*
X130175576Y-105986916D01*
X130177431Y-105981452D01*
X130178259Y-105975743D01*
X130178260Y-105975738D01*
X130208558Y-105766772D01*
X130209091Y-105763098D01*
X130210743Y-105700000D01*
X130190554Y-105480289D01*
X130173613Y-105420218D01*
X130132234Y-105273500D01*
X130130665Y-105267936D01*
X130033080Y-105070053D01*
X130016907Y-105048394D01*
X129904520Y-104897891D01*
X129904520Y-104897890D01*
X129901067Y-104893267D01*
X129739049Y-104743499D01*
X129552450Y-104625764D01*
X129347521Y-104544006D01*
X129341861Y-104542880D01*
X129341857Y-104542879D01*
X129136791Y-104502089D01*
X129136788Y-104502089D01*
X129131124Y-104500962D01*
X129125349Y-104500886D01*
X129125345Y-104500886D01*
X129014604Y-104499437D01*
X128910506Y-104498074D01*
X128904809Y-104499053D01*
X128904808Y-104499053D01*
X128698754Y-104534459D01*
X128698753Y-104534459D01*
X128693057Y-104535438D01*
X128486057Y-104611804D01*
X128296441Y-104724614D01*
X128130557Y-104870090D01*
X127993963Y-105043360D01*
X127891231Y-105238620D01*
X127889518Y-105244138D01*
X127861036Y-105335864D01*
X127821733Y-105394989D01*
X127756703Y-105423480D01*
X127740703Y-105424500D01*
X123770199Y-105424500D01*
X123702078Y-105404498D01*
X123655585Y-105350842D01*
X123648934Y-105332713D01*
X123630665Y-105267936D01*
X123533080Y-105070053D01*
X123516907Y-105048394D01*
X123404520Y-104897891D01*
X123404520Y-104897890D01*
X123401067Y-104893267D01*
X123239049Y-104743499D01*
X123052450Y-104625764D01*
X122847521Y-104544006D01*
X122841861Y-104542880D01*
X122841857Y-104542879D01*
X122636791Y-104502089D01*
X122636788Y-104502089D01*
X122631124Y-104500962D01*
X122625349Y-104500886D01*
X122625345Y-104500886D01*
X122514604Y-104499437D01*
X122410506Y-104498074D01*
X122404809Y-104499053D01*
X122404808Y-104499053D01*
X122198754Y-104534459D01*
X122198753Y-104534459D01*
X122193057Y-104535438D01*
X121986057Y-104611804D01*
X121796441Y-104724614D01*
X121630557Y-104870090D01*
X121493963Y-105043360D01*
X121391231Y-105238620D01*
X121325803Y-105449333D01*
X121299870Y-105668440D01*
X116841000Y-105668440D01*
X116841000Y-88205940D01*
X121299870Y-88205940D01*
X121314300Y-88426104D01*
X121315721Y-88431700D01*
X121315722Y-88431705D01*
X121364388Y-88623324D01*
X121368611Y-88639952D01*
X121371028Y-88645194D01*
X121371028Y-88645195D01*
X121408560Y-88726607D01*
X121460983Y-88840321D01*
X121588322Y-89020502D01*
X121746364Y-89174461D01*
X121751160Y-89177666D01*
X121751163Y-89177668D01*
X121872741Y-89258903D01*
X121929817Y-89297040D01*
X121935120Y-89299318D01*
X121935123Y-89299320D01*
X122127229Y-89381855D01*
X122132536Y-89384135D01*
X122212188Y-89402158D01*
X122342095Y-89431554D01*
X122342101Y-89431555D01*
X122347732Y-89432829D01*
X122353503Y-89433056D01*
X122353505Y-89433056D01*
X122421311Y-89435720D01*
X122568198Y-89441491D01*
X122677375Y-89425661D01*
X122780838Y-89410660D01*
X122780843Y-89410659D01*
X122786552Y-89409831D01*
X122792016Y-89407976D01*
X122792021Y-89407975D01*
X122990007Y-89340768D01*
X122990012Y-89340766D01*
X122995479Y-89338910D01*
X123013211Y-89328980D01*
X123126067Y-89265777D01*
X123187984Y-89231102D01*
X123301633Y-89136581D01*
X123353186Y-89093704D01*
X123357618Y-89090018D01*
X123470967Y-88953732D01*
X123495008Y-88924826D01*
X123495010Y-88924823D01*
X123498702Y-88920384D01*
X123589597Y-88758079D01*
X123603686Y-88732922D01*
X123603687Y-88732920D01*
X123606510Y-88727879D01*
X123650429Y-88598498D01*
X123691265Y-88540423D01*
X123757017Y-88513644D01*
X123769741Y-88513000D01*
X127738369Y-88513000D01*
X127806490Y-88533002D01*
X127852983Y-88586658D01*
X127860492Y-88607984D01*
X127864388Y-88623324D01*
X127868611Y-88639952D01*
X127871028Y-88645194D01*
X127871028Y-88645195D01*
X127908560Y-88726607D01*
X127960983Y-88840321D01*
X128088322Y-89020502D01*
X128246364Y-89174461D01*
X128251160Y-89177666D01*
X128251163Y-89177668D01*
X128372741Y-89258903D01*
X128429817Y-89297040D01*
X128435120Y-89299318D01*
X128435123Y-89299320D01*
X128627229Y-89381855D01*
X128632536Y-89384135D01*
X128712188Y-89402158D01*
X128842095Y-89431554D01*
X128842101Y-89431555D01*
X128847732Y-89432829D01*
X128853503Y-89433056D01*
X128853505Y-89433056D01*
X128921311Y-89435720D01*
X129068198Y-89441491D01*
X129177375Y-89425661D01*
X129280838Y-89410660D01*
X129280843Y-89410659D01*
X129286552Y-89409831D01*
X129292016Y-89407976D01*
X129292021Y-89407975D01*
X129490007Y-89340768D01*
X129490012Y-89340766D01*
X129495479Y-89338910D01*
X129513211Y-89328980D01*
X129626067Y-89265777D01*
X129687984Y-89231102D01*
X129801633Y-89136581D01*
X129853186Y-89093704D01*
X129857618Y-89090018D01*
X129970967Y-88953732D01*
X129995008Y-88924826D01*
X129995010Y-88924823D01*
X129998702Y-88920384D01*
X130089597Y-88758079D01*
X130103686Y-88732922D01*
X130103687Y-88732920D01*
X130106510Y-88727879D01*
X130108366Y-88722412D01*
X130108368Y-88722407D01*
X130175575Y-88524421D01*
X130175576Y-88524416D01*
X130177431Y-88518952D01*
X130178259Y-88513243D01*
X130178260Y-88513238D01*
X130208558Y-88304272D01*
X130209091Y-88300598D01*
X130210743Y-88237500D01*
X130190554Y-88017789D01*
X130130665Y-87805436D01*
X130033080Y-87607553D01*
X129921632Y-87458306D01*
X129904520Y-87435391D01*
X129904520Y-87435390D01*
X129901067Y-87430767D01*
X129759564Y-87299963D01*
X129743289Y-87284918D01*
X129743286Y-87284916D01*
X129739049Y-87280999D01*
X129552450Y-87163264D01*
X129347521Y-87081506D01*
X129341861Y-87080380D01*
X129341857Y-87080379D01*
X129136791Y-87039589D01*
X129136788Y-87039589D01*
X129131124Y-87038462D01*
X129125349Y-87038386D01*
X129125345Y-87038386D01*
X129014604Y-87036937D01*
X128910506Y-87035574D01*
X128904809Y-87036553D01*
X128904808Y-87036553D01*
X128698754Y-87071959D01*
X128698753Y-87071959D01*
X128693057Y-87072938D01*
X128486057Y-87149304D01*
X128296441Y-87262114D01*
X128130557Y-87407590D01*
X127993963Y-87580860D01*
X127891231Y-87776120D01*
X127889518Y-87781638D01*
X127861036Y-87873364D01*
X127821733Y-87932489D01*
X127756703Y-87960980D01*
X127740703Y-87962000D01*
X123770199Y-87962000D01*
X123702078Y-87941998D01*
X123655585Y-87888342D01*
X123648934Y-87870213D01*
X123630665Y-87805436D01*
X123533080Y-87607553D01*
X123421632Y-87458306D01*
X123404520Y-87435391D01*
X123404520Y-87435390D01*
X123401067Y-87430767D01*
X123259564Y-87299963D01*
X123243289Y-87284918D01*
X123243286Y-87284916D01*
X123239049Y-87280999D01*
X123052450Y-87163264D01*
X122847521Y-87081506D01*
X122841861Y-87080380D01*
X122841857Y-87080379D01*
X122636791Y-87039589D01*
X122636788Y-87039589D01*
X122631124Y-87038462D01*
X122625349Y-87038386D01*
X122625345Y-87038386D01*
X122514604Y-87036937D01*
X122410506Y-87035574D01*
X122404809Y-87036553D01*
X122404808Y-87036553D01*
X122198754Y-87071959D01*
X122198753Y-87071959D01*
X122193057Y-87072938D01*
X121986057Y-87149304D01*
X121796441Y-87262114D01*
X121630557Y-87407590D01*
X121493963Y-87580860D01*
X121391231Y-87776120D01*
X121361036Y-87873364D01*
X121331034Y-87969988D01*
X121325803Y-87986833D01*
X121299870Y-88205940D01*
X116841000Y-88205940D01*
X116841000Y-71379923D01*
X120233491Y-71379923D01*
X120234655Y-71388825D01*
X120234655Y-71388828D01*
X120235914Y-71398454D01*
X120252080Y-71522079D01*
X120309820Y-71653303D01*
X120315597Y-71660176D01*
X120315598Y-71660177D01*
X120376622Y-71732774D01*
X120402070Y-71763048D01*
X120409539Y-71768020D01*
X120416235Y-71774007D01*
X120414911Y-71775488D01*
X120453143Y-71821076D01*
X120463700Y-71871563D01*
X120463700Y-73394257D01*
X120461279Y-73418839D01*
X120458303Y-73433800D01*
X120463700Y-73460932D01*
X120463700Y-73460933D01*
X120479685Y-73541295D01*
X120487737Y-73553346D01*
X120494522Y-73563500D01*
X120512744Y-73590770D01*
X120524125Y-73607803D01*
X120540576Y-73632424D01*
X120550892Y-73639317D01*
X120550893Y-73639318D01*
X120553264Y-73640902D01*
X120572356Y-73656572D01*
X135507329Y-88591545D01*
X135522996Y-88610634D01*
X135531476Y-88623324D01*
X135541789Y-88630215D01*
X135554477Y-88638693D01*
X135554477Y-88638694D01*
X135556341Y-88639939D01*
X135556361Y-88639952D01*
X135622605Y-88684215D01*
X135696522Y-88698918D01*
X135702967Y-88700200D01*
X135717928Y-88703176D01*
X135717929Y-88703176D01*
X135730100Y-88705597D01*
X135745061Y-88702621D01*
X135769643Y-88700200D01*
X141390600Y-88700200D01*
X141458721Y-88720202D01*
X141505214Y-88773858D01*
X141516600Y-88826200D01*
X141516600Y-91699802D01*
X141516518Y-91700000D01*
X141516600Y-91700198D01*
X141516835Y-91700765D01*
X141517600Y-91701082D01*
X141517798Y-91701000D01*
X141999275Y-91701000D01*
X142067396Y-91721002D01*
X142113889Y-91774658D01*
X142123993Y-91844932D01*
X142094499Y-91909512D01*
X142033901Y-91948149D01*
X142017529Y-91952828D01*
X141896280Y-92029330D01*
X141801377Y-92136788D01*
X141740447Y-92266563D01*
X141718391Y-92408223D01*
X141719555Y-92417125D01*
X141719555Y-92417128D01*
X141725290Y-92460980D01*
X141736980Y-92550379D01*
X141794720Y-92681603D01*
X141800497Y-92688476D01*
X141800498Y-92688477D01*
X141815177Y-92705940D01*
X141886970Y-92791348D01*
X142006313Y-92870790D01*
X142143157Y-92913542D01*
X142152129Y-92913706D01*
X142152132Y-92913707D01*
X142217463Y-92914904D01*
X142286499Y-92916170D01*
X142296139Y-92913542D01*
X142397267Y-92885971D01*
X142409841Y-92886215D01*
X142422485Y-92879096D01*
X142424817Y-92878460D01*
X142546991Y-92803445D01*
X142612252Y-92731345D01*
X142672796Y-92694264D01*
X142705668Y-92689900D01*
X163664257Y-92689900D01*
X163688839Y-92692321D01*
X163703800Y-92695297D01*
X163730932Y-92689900D01*
X163730933Y-92689900D01*
X163811295Y-92673915D01*
X163877009Y-92630006D01*
X163879401Y-92628408D01*
X163881016Y-92630824D01*
X163881041Y-92630814D01*
X163879423Y-92628393D01*
X163892111Y-92619915D01*
X163902424Y-92613024D01*
X163910902Y-92600336D01*
X163926572Y-92581244D01*
X166144825Y-90362991D01*
X166207137Y-90328965D01*
X166236228Y-90326107D01*
X166354199Y-90328270D01*
X166362863Y-90325908D01*
X166483858Y-90292921D01*
X166483860Y-90292920D01*
X166492517Y-90290560D01*
X166614691Y-90215545D01*
X166710900Y-90109254D01*
X166766455Y-89994588D01*
X166769495Y-89988314D01*
X166769495Y-89988313D01*
X166773410Y-89980233D01*
X166797196Y-89838854D01*
X166797347Y-89826500D01*
X166777023Y-89684582D01*
X166717684Y-89554072D01*
X166665324Y-89493305D01*
X166629960Y-89452263D01*
X166629957Y-89452260D01*
X166624100Y-89445463D01*
X166503795Y-89367485D01*
X166366439Y-89326407D01*
X166357463Y-89326352D01*
X166357462Y-89326352D01*
X166297255Y-89325984D01*
X166223076Y-89325531D01*
X166085229Y-89364928D01*
X165963980Y-89441430D01*
X165958038Y-89448158D01*
X165958037Y-89448159D01*
X165954413Y-89452263D01*
X165869077Y-89548888D01*
X165808147Y-89678663D01*
X165806766Y-89687535D01*
X165789991Y-89795276D01*
X165786091Y-89820323D01*
X165792172Y-89866823D01*
X165781170Y-89936962D01*
X165756330Y-89972254D01*
X164183695Y-91544889D01*
X164121383Y-91578915D01*
X164050568Y-91573850D01*
X163993732Y-91531303D01*
X163968921Y-91464783D01*
X163968600Y-91455794D01*
X163968600Y-88700198D01*
X163968682Y-88700000D01*
X163968365Y-88699235D01*
X163967798Y-88699000D01*
X163967600Y-88698918D01*
X163967402Y-88699000D01*
X160869406Y-88699000D01*
X160801285Y-88678998D01*
X160754792Y-88625342D01*
X160744688Y-88555068D01*
X160774182Y-88490488D01*
X160780311Y-88483905D01*
X161848411Y-87415805D01*
X161910723Y-87381779D01*
X161937506Y-87378900D01*
X164047749Y-87378900D01*
X164115870Y-87398902D01*
X164162363Y-87452558D01*
X164172467Y-87522832D01*
X164169760Y-87534950D01*
X164167547Y-87539663D01*
X164161839Y-87576324D01*
X164157716Y-87602808D01*
X164145491Y-87681323D01*
X164164080Y-87823479D01*
X164167697Y-87831699D01*
X164214078Y-87937107D01*
X164221820Y-87954703D01*
X164227597Y-87961576D01*
X164227598Y-87961577D01*
X164243435Y-87980417D01*
X164314070Y-88064448D01*
X164433413Y-88143890D01*
X164570257Y-88186642D01*
X164579229Y-88186806D01*
X164579232Y-88186807D01*
X164644563Y-88188004D01*
X164713599Y-88189270D01*
X164722633Y-88186807D01*
X164843258Y-88153921D01*
X164843260Y-88153920D01*
X164851917Y-88151560D01*
X164974091Y-88076545D01*
X164990100Y-88058859D01*
X165032310Y-88012225D01*
X165053111Y-87989245D01*
X165113653Y-87952164D01*
X165146526Y-87947800D01*
X166169858Y-87947800D01*
X166237979Y-87967802D01*
X166284472Y-88021458D01*
X166294576Y-88091732D01*
X166293176Y-88097997D01*
X166292347Y-88099763D01*
X166291348Y-88106182D01*
X166291346Y-88106189D01*
X166274918Y-88211706D01*
X166270291Y-88241423D01*
X166271455Y-88250325D01*
X166271455Y-88250328D01*
X166276560Y-88289363D01*
X166288880Y-88383579D01*
X166309756Y-88431023D01*
X166336414Y-88491607D01*
X166346620Y-88514803D01*
X166352397Y-88521676D01*
X166352398Y-88521677D01*
X166427198Y-88610663D01*
X166438870Y-88624548D01*
X166488231Y-88657406D01*
X166550717Y-88699000D01*
X166558213Y-88703990D01*
X166695057Y-88746742D01*
X166704029Y-88746906D01*
X166704032Y-88746907D01*
X166777076Y-88748246D01*
X166838148Y-88749365D01*
X166905890Y-88770612D01*
X166924933Y-88786249D01*
X168209795Y-90071111D01*
X168243821Y-90133423D01*
X168246700Y-90160206D01*
X168246700Y-94292173D01*
X168226698Y-94360294D01*
X168173042Y-94406787D01*
X168102768Y-94416891D01*
X168043570Y-94388057D01*
X168041808Y-94390289D01*
X168037099Y-94386570D01*
X168032769Y-94382425D01*
X167961680Y-94336523D01*
X167861391Y-94271767D01*
X167861388Y-94271766D01*
X167856354Y-94268515D01*
X167837481Y-94260909D01*
X167667145Y-94192261D01*
X167667142Y-94192260D01*
X167661581Y-94190019D01*
X167655700Y-94188871D01*
X167655695Y-94188869D01*
X167459924Y-94150638D01*
X167459921Y-94150638D01*
X167455478Y-94149770D01*
X167449957Y-94149500D01*
X167295131Y-94149500D01*
X167138554Y-94164439D01*
X167132798Y-94166128D01*
X167132796Y-94166128D01*
X167055279Y-94188869D01*
X166937051Y-94223553D01*
X166888181Y-94248723D01*
X166755692Y-94316959D01*
X166755689Y-94316961D01*
X166750361Y-94319705D01*
X166733958Y-94332590D01*
X166589938Y-94445718D01*
X166589933Y-94445722D01*
X166585221Y-94449424D01*
X166581290Y-94453954D01*
X166581289Y-94453955D01*
X166451521Y-94603498D01*
X166451517Y-94603503D01*
X166447590Y-94608029D01*
X166342434Y-94789799D01*
X166329314Y-94827582D01*
X166295251Y-94925674D01*
X166273547Y-94988174D01*
X166272686Y-94994109D01*
X166272686Y-94994111D01*
X166251607Y-95139493D01*
X166243414Y-95195996D01*
X166253123Y-95405767D01*
X166254527Y-95411592D01*
X166254527Y-95411593D01*
X166288578Y-95552880D01*
X166302324Y-95609918D01*
X166304806Y-95615376D01*
X166304807Y-95615380D01*
X166347920Y-95710201D01*
X166389240Y-95801081D01*
X166412593Y-95834002D01*
X166428185Y-95855983D01*
X166451283Y-95923117D01*
X166434419Y-95992082D01*
X166382947Y-96040981D01*
X166312792Y-96054249D01*
X166169455Y-96039816D01*
X166169449Y-96039816D01*
X166166314Y-96039500D01*
X166011556Y-96039500D01*
X166009231Y-96039673D01*
X166009225Y-96039673D01*
X165822786Y-96053528D01*
X165822782Y-96053529D01*
X165818134Y-96053874D01*
X165564368Y-96111295D01*
X165560016Y-96112987D01*
X165560014Y-96112988D01*
X165326230Y-96203902D01*
X165326228Y-96203903D01*
X165321877Y-96205595D01*
X165317823Y-96207912D01*
X165317821Y-96207913D01*
X165238562Y-96253214D01*
X165095988Y-96334701D01*
X164891664Y-96495777D01*
X164713392Y-96685286D01*
X164655731Y-96768404D01*
X164570572Y-96891160D01*
X164565089Y-96899063D01*
X164563023Y-96903253D01*
X164563021Y-96903256D01*
X164475208Y-97081325D01*
X164450014Y-97132413D01*
X164370694Y-97380208D01*
X164361282Y-97438000D01*
X164337904Y-97581550D01*
X164328872Y-97637006D01*
X164328811Y-97641683D01*
X164325886Y-97865117D01*
X164325466Y-97897165D01*
X164360552Y-98154970D01*
X164361860Y-98159456D01*
X164361860Y-98159458D01*
X164363288Y-98164356D01*
X164433358Y-98404757D01*
X164542286Y-98641039D01*
X164544846Y-98644944D01*
X164544849Y-98644949D01*
X164682375Y-98854712D01*
X164682379Y-98854717D01*
X164684941Y-98858625D01*
X164725337Y-98903885D01*
X164830580Y-99021799D01*
X164858191Y-99052735D01*
X165058229Y-99219105D01*
X165280661Y-99354080D01*
X165284975Y-99355889D01*
X165284977Y-99355890D01*
X165516286Y-99452886D01*
X165516291Y-99452888D01*
X165520601Y-99454695D01*
X165525133Y-99455846D01*
X165525136Y-99455847D01*
X165602175Y-99475412D01*
X165772777Y-99518739D01*
X165988886Y-99540500D01*
X166143644Y-99540500D01*
X166145969Y-99540327D01*
X166145975Y-99540327D01*
X166332414Y-99526472D01*
X166332418Y-99526471D01*
X166337066Y-99526126D01*
X166590832Y-99468705D01*
X166603893Y-99463626D01*
X166828970Y-99376098D01*
X166828972Y-99376097D01*
X166833323Y-99374405D01*
X166868885Y-99354080D01*
X166946731Y-99309587D01*
X167059212Y-99245299D01*
X167263536Y-99084223D01*
X167441808Y-98894714D01*
X167590111Y-98680937D01*
X167607858Y-98644949D01*
X167703121Y-98451775D01*
X167703122Y-98451772D01*
X167705186Y-98447587D01*
X167725193Y-98385087D01*
X167783083Y-98204237D01*
X167784506Y-98199792D01*
X167826328Y-97942994D01*
X167829734Y-97682835D01*
X167794648Y-97425030D01*
X167721842Y-97175243D01*
X167612914Y-96938961D01*
X167586140Y-96898123D01*
X167472825Y-96725288D01*
X167472821Y-96725283D01*
X167470259Y-96721375D01*
X167325444Y-96559123D01*
X167295006Y-96494983D01*
X167304077Y-96424569D01*
X167349778Y-96370236D01*
X167407480Y-96349793D01*
X167441607Y-96346537D01*
X167556646Y-96335561D01*
X167562402Y-96333872D01*
X167562404Y-96333872D01*
X167707192Y-96291396D01*
X167758149Y-96276447D01*
X167895716Y-96205595D01*
X167939508Y-96183041D01*
X167939511Y-96183039D01*
X167944839Y-96180295D01*
X168042867Y-96103293D01*
X168108793Y-96076943D01*
X168178499Y-96090418D01*
X168229854Y-96139440D01*
X168246700Y-96202379D01*
X168246700Y-99453594D01*
X168226698Y-99521715D01*
X168209795Y-99542689D01*
X158683994Y-109068490D01*
X158621682Y-109102516D01*
X158550867Y-109097451D01*
X158505804Y-109068491D01*
X152819981Y-103382748D01*
X151650868Y-102213652D01*
X151635199Y-102194560D01*
X151634807Y-102193972D01*
X151626724Y-102181876D01*
X151535595Y-102120985D01*
X151535594Y-102120985D01*
X151535593Y-102120984D01*
X151517260Y-102117338D01*
X151517259Y-102117337D01*
X151473659Y-102108665D01*
X151455268Y-102105007D01*
X151455233Y-102105000D01*
X151455232Y-102105000D01*
X151428098Y-102099603D01*
X151415927Y-102102024D01*
X151413137Y-102102579D01*
X151388555Y-102105000D01*
X141574226Y-102105000D01*
X141506105Y-102084998D01*
X141459612Y-102031342D01*
X141449508Y-101961068D01*
X141479002Y-101896488D01*
X141511703Y-101869607D01*
X141655155Y-101787618D01*
X141655157Y-101787616D01*
X141659212Y-101785299D01*
X141863536Y-101624223D01*
X142041808Y-101434714D01*
X142147231Y-101282748D01*
X142187446Y-101224779D01*
X142187448Y-101224776D01*
X142190111Y-101220937D01*
X142207858Y-101184949D01*
X142303121Y-100991775D01*
X142303122Y-100991772D01*
X142305186Y-100987587D01*
X142307135Y-100981500D01*
X142383083Y-100744237D01*
X142384506Y-100739792D01*
X142426328Y-100482994D01*
X142426928Y-100437165D01*
X157975466Y-100437165D01*
X158010552Y-100694970D01*
X158083358Y-100944757D01*
X158192286Y-101181039D01*
X158194846Y-101184944D01*
X158194849Y-101184949D01*
X158332375Y-101394712D01*
X158332379Y-101394717D01*
X158334941Y-101398625D01*
X158394277Y-101465105D01*
X158452408Y-101530235D01*
X158508191Y-101592735D01*
X158708229Y-101759105D01*
X158930661Y-101894080D01*
X158934975Y-101895889D01*
X158934977Y-101895890D01*
X159166286Y-101992886D01*
X159166291Y-101992888D01*
X159170601Y-101994695D01*
X159175133Y-101995846D01*
X159175136Y-101995847D01*
X159261121Y-102017684D01*
X159422777Y-102058739D01*
X159638886Y-102080500D01*
X159793644Y-102080500D01*
X159795969Y-102080327D01*
X159795975Y-102080327D01*
X159982414Y-102066472D01*
X159982418Y-102066471D01*
X159987066Y-102066126D01*
X160240832Y-102008705D01*
X160253893Y-102003626D01*
X160478970Y-101916098D01*
X160478972Y-101916097D01*
X160483323Y-101914405D01*
X160514672Y-101896488D01*
X160568614Y-101865657D01*
X160709212Y-101785299D01*
X160913536Y-101624223D01*
X161091808Y-101434714D01*
X161197231Y-101282748D01*
X161237446Y-101224779D01*
X161237448Y-101224776D01*
X161240111Y-101220937D01*
X161257858Y-101184949D01*
X161353121Y-100991775D01*
X161353122Y-100991772D01*
X161355186Y-100987587D01*
X161357135Y-100981500D01*
X161433083Y-100744237D01*
X161434506Y-100739792D01*
X161476328Y-100482994D01*
X161479145Y-100267853D01*
X161479673Y-100227512D01*
X161479673Y-100227509D01*
X161479734Y-100222835D01*
X161444648Y-99965030D01*
X161441477Y-99954149D01*
X161373153Y-99719742D01*
X161371842Y-99715243D01*
X161262914Y-99478961D01*
X161246283Y-99453594D01*
X161122825Y-99265288D01*
X161122821Y-99265283D01*
X161120259Y-99261375D01*
X161029223Y-99159378D01*
X160950126Y-99070757D01*
X160950124Y-99070755D01*
X160947009Y-99067265D01*
X160746971Y-98900895D01*
X160524539Y-98765920D01*
X160520223Y-98764110D01*
X160288914Y-98667114D01*
X160288909Y-98667112D01*
X160284599Y-98665305D01*
X160280067Y-98664154D01*
X160280064Y-98664153D01*
X160083544Y-98614244D01*
X160032423Y-98601261D01*
X159816314Y-98579500D01*
X159661556Y-98579500D01*
X159659231Y-98579673D01*
X159659225Y-98579673D01*
X159472786Y-98593528D01*
X159472782Y-98593529D01*
X159468134Y-98593874D01*
X159214368Y-98651295D01*
X159210016Y-98652987D01*
X159210014Y-98652988D01*
X158976230Y-98743902D01*
X158976228Y-98743903D01*
X158971877Y-98745595D01*
X158967823Y-98747912D01*
X158967821Y-98747913D01*
X158932067Y-98768348D01*
X158745988Y-98874701D01*
X158541664Y-99035777D01*
X158363392Y-99225286D01*
X158261552Y-99372087D01*
X158236921Y-99407593D01*
X158215089Y-99439063D01*
X158213023Y-99443253D01*
X158213021Y-99443256D01*
X158103881Y-99664572D01*
X158100014Y-99672413D01*
X158020694Y-99920208D01*
X157978872Y-100177006D01*
X157977683Y-100267853D01*
X157976224Y-100379299D01*
X157975466Y-100437165D01*
X142426928Y-100437165D01*
X142429145Y-100267853D01*
X142429673Y-100227512D01*
X142429673Y-100227509D01*
X142429734Y-100222835D01*
X142394648Y-99965030D01*
X142391477Y-99954149D01*
X142323153Y-99719742D01*
X142321842Y-99715243D01*
X142212914Y-99478961D01*
X142196283Y-99453594D01*
X142072825Y-99265288D01*
X142072821Y-99265283D01*
X142070259Y-99261375D01*
X141979223Y-99159378D01*
X141900126Y-99070757D01*
X141900124Y-99070755D01*
X141897009Y-99067265D01*
X141696971Y-98900895D01*
X141474539Y-98765920D01*
X141470223Y-98764110D01*
X141238914Y-98667114D01*
X141238909Y-98667112D01*
X141234599Y-98665305D01*
X141230067Y-98664154D01*
X141230064Y-98664153D01*
X141033544Y-98614244D01*
X140982423Y-98601261D01*
X140766314Y-98579500D01*
X140611556Y-98579500D01*
X140609231Y-98579673D01*
X140609225Y-98579673D01*
X140422786Y-98593528D01*
X140422782Y-98593529D01*
X140418134Y-98593874D01*
X140164368Y-98651295D01*
X140160016Y-98652987D01*
X140160014Y-98652988D01*
X139926230Y-98743902D01*
X139926228Y-98743903D01*
X139921877Y-98745595D01*
X139917823Y-98747912D01*
X139917821Y-98747913D01*
X139882067Y-98768348D01*
X139695988Y-98874701D01*
X139491664Y-99035777D01*
X139313392Y-99225286D01*
X139211552Y-99372087D01*
X139186921Y-99407593D01*
X139165089Y-99439063D01*
X139163023Y-99443253D01*
X139163021Y-99443256D01*
X139053881Y-99664572D01*
X139050014Y-99672413D01*
X138970694Y-99920208D01*
X138928872Y-100177006D01*
X138927683Y-100267853D01*
X138926224Y-100379299D01*
X138925466Y-100437165D01*
X138960552Y-100694970D01*
X139033358Y-100944757D01*
X139142286Y-101181039D01*
X139144846Y-101184944D01*
X139144849Y-101184949D01*
X139282375Y-101394712D01*
X139282379Y-101394717D01*
X139284941Y-101398625D01*
X139344277Y-101465105D01*
X139402408Y-101530235D01*
X139458191Y-101592735D01*
X139658229Y-101759105D01*
X139843091Y-101871282D01*
X139890950Y-101923720D01*
X139902862Y-101993711D01*
X139875044Y-102059030D01*
X139816327Y-102098941D01*
X139777724Y-102105000D01*
X130232943Y-102105000D01*
X130164822Y-102084998D01*
X130118329Y-102031342D01*
X130108225Y-101961068D01*
X130113630Y-101938499D01*
X130175675Y-101755721D01*
X130175676Y-101755716D01*
X130177531Y-101750252D01*
X130178359Y-101744543D01*
X130178360Y-101744538D01*
X130208658Y-101535572D01*
X130209191Y-101531898D01*
X130210843Y-101468800D01*
X130190654Y-101249089D01*
X130182715Y-101220937D01*
X130132334Y-101042300D01*
X130130765Y-101036736D01*
X130033180Y-100838853D01*
X129901167Y-100662067D01*
X129739149Y-100512299D01*
X129552550Y-100394564D01*
X129347621Y-100312806D01*
X129341961Y-100311680D01*
X129341957Y-100311679D01*
X129136891Y-100270889D01*
X129136888Y-100270889D01*
X129131224Y-100269762D01*
X129125449Y-100269686D01*
X129125445Y-100269686D01*
X129014704Y-100268237D01*
X128910606Y-100266874D01*
X128904909Y-100267853D01*
X128904908Y-100267853D01*
X128698854Y-100303259D01*
X128698853Y-100303259D01*
X128693157Y-100304238D01*
X128486157Y-100380604D01*
X128481196Y-100383556D01*
X128481195Y-100383556D01*
X128321917Y-100478317D01*
X128296541Y-100493414D01*
X128130657Y-100638890D01*
X127994063Y-100812160D01*
X127891331Y-101007420D01*
X127889618Y-101012938D01*
X127861136Y-101104664D01*
X127821833Y-101163789D01*
X127756803Y-101192280D01*
X127740803Y-101193300D01*
X123770299Y-101193300D01*
X123702178Y-101173298D01*
X123655685Y-101119642D01*
X123649034Y-101101513D01*
X123630765Y-101036736D01*
X123533180Y-100838853D01*
X123401167Y-100662067D01*
X123239149Y-100512299D01*
X123052550Y-100394564D01*
X122847621Y-100312806D01*
X122841961Y-100311680D01*
X122841957Y-100311679D01*
X122636891Y-100270889D01*
X122636888Y-100270889D01*
X122631224Y-100269762D01*
X122625449Y-100269686D01*
X122625445Y-100269686D01*
X122514704Y-100268237D01*
X122410606Y-100266874D01*
X122404909Y-100267853D01*
X122404908Y-100267853D01*
X122198854Y-100303259D01*
X122198853Y-100303259D01*
X122193157Y-100304238D01*
X121986157Y-100380604D01*
X121981196Y-100383556D01*
X121981195Y-100383556D01*
X121821917Y-100478317D01*
X121796541Y-100493414D01*
X121792197Y-100497224D01*
X121677177Y-100598093D01*
X121612773Y-100627970D01*
X121542440Y-100618284D01*
X121488509Y-100572111D01*
X121468100Y-100503361D01*
X121468100Y-97933238D01*
X121488102Y-97865117D01*
X121541758Y-97818624D01*
X121612032Y-97808520D01*
X121676612Y-97838014D01*
X121682022Y-97842984D01*
X121746464Y-97905761D01*
X121751260Y-97908966D01*
X121751263Y-97908968D01*
X121835461Y-97965227D01*
X121929917Y-98028340D01*
X121935220Y-98030618D01*
X121935223Y-98030620D01*
X122127329Y-98113155D01*
X122132636Y-98115435D01*
X122208874Y-98132686D01*
X122342195Y-98162854D01*
X122342201Y-98162855D01*
X122347832Y-98164129D01*
X122353603Y-98164356D01*
X122353605Y-98164356D01*
X122421411Y-98167020D01*
X122568298Y-98172791D01*
X122691207Y-98154970D01*
X122780938Y-98141960D01*
X122780943Y-98141959D01*
X122786652Y-98141131D01*
X122792116Y-98139276D01*
X122792121Y-98139275D01*
X122990107Y-98072068D01*
X122990112Y-98072066D01*
X122995579Y-98070210D01*
X123188084Y-97962402D01*
X123205875Y-97947606D01*
X123341670Y-97834665D01*
X123357718Y-97821318D01*
X123498802Y-97651684D01*
X123585847Y-97496254D01*
X123603786Y-97464222D01*
X123603787Y-97464220D01*
X123606610Y-97459179D01*
X123650529Y-97329798D01*
X123691365Y-97271723D01*
X123757117Y-97244944D01*
X123769841Y-97244300D01*
X127738469Y-97244300D01*
X127806590Y-97264302D01*
X127853083Y-97317958D01*
X127860592Y-97339284D01*
X127868711Y-97371252D01*
X127871128Y-97376494D01*
X127871128Y-97376495D01*
X127909246Y-97459179D01*
X127961083Y-97571621D01*
X128088422Y-97751802D01*
X128246464Y-97905761D01*
X128251260Y-97908966D01*
X128251263Y-97908968D01*
X128335461Y-97965227D01*
X128429917Y-98028340D01*
X128435220Y-98030618D01*
X128435223Y-98030620D01*
X128627329Y-98113155D01*
X128632636Y-98115435D01*
X128708874Y-98132686D01*
X128842195Y-98162854D01*
X128842201Y-98162855D01*
X128847832Y-98164129D01*
X128853603Y-98164356D01*
X128853605Y-98164356D01*
X128921411Y-98167020D01*
X129068298Y-98172791D01*
X129191207Y-98154970D01*
X129280938Y-98141960D01*
X129280943Y-98141959D01*
X129286652Y-98141131D01*
X129292116Y-98139276D01*
X129292121Y-98139275D01*
X129490107Y-98072068D01*
X129490112Y-98072066D01*
X129495579Y-98070210D01*
X129688084Y-97962402D01*
X129705875Y-97947606D01*
X129766523Y-97897165D01*
X145275466Y-97897165D01*
X145310552Y-98154970D01*
X145311860Y-98159456D01*
X145311860Y-98159458D01*
X145313288Y-98164356D01*
X145383358Y-98404757D01*
X145492286Y-98641039D01*
X145494846Y-98644944D01*
X145494849Y-98644949D01*
X145632375Y-98854712D01*
X145632379Y-98854717D01*
X145634941Y-98858625D01*
X145675337Y-98903885D01*
X145780580Y-99021799D01*
X145808191Y-99052735D01*
X146008229Y-99219105D01*
X146230661Y-99354080D01*
X146234975Y-99355889D01*
X146234977Y-99355890D01*
X146466286Y-99452886D01*
X146466291Y-99452888D01*
X146470601Y-99454695D01*
X146475133Y-99455846D01*
X146475136Y-99455847D01*
X146552175Y-99475412D01*
X146722777Y-99518739D01*
X146938886Y-99540500D01*
X147093644Y-99540500D01*
X147095969Y-99540327D01*
X147095975Y-99540327D01*
X147282414Y-99526472D01*
X147282418Y-99526471D01*
X147287066Y-99526126D01*
X147540832Y-99468705D01*
X147553893Y-99463626D01*
X147778970Y-99376098D01*
X147778972Y-99376097D01*
X147783323Y-99374405D01*
X147818885Y-99354080D01*
X147896731Y-99309587D01*
X148009212Y-99245299D01*
X148213536Y-99084223D01*
X148391808Y-98894714D01*
X148540111Y-98680937D01*
X148557858Y-98644949D01*
X148653121Y-98451775D01*
X148653122Y-98451772D01*
X148655186Y-98447587D01*
X148675193Y-98385087D01*
X148733083Y-98204237D01*
X148734506Y-98199792D01*
X148776328Y-97942994D01*
X148779734Y-97682835D01*
X148744648Y-97425030D01*
X148671842Y-97175243D01*
X148562914Y-96938961D01*
X148536140Y-96898123D01*
X148422825Y-96725288D01*
X148422821Y-96725283D01*
X148420259Y-96721375D01*
X148275444Y-96559123D01*
X148245006Y-96494983D01*
X148254077Y-96424569D01*
X148299778Y-96370236D01*
X148357480Y-96349793D01*
X148391607Y-96346537D01*
X148506646Y-96335561D01*
X148512402Y-96333872D01*
X148512404Y-96333872D01*
X148657192Y-96291396D01*
X148708149Y-96276447D01*
X148845716Y-96205595D01*
X148889508Y-96183041D01*
X148889511Y-96183039D01*
X148894839Y-96180295D01*
X148964845Y-96125305D01*
X149055262Y-96054282D01*
X149055267Y-96054278D01*
X149059979Y-96050576D01*
X149069440Y-96039673D01*
X149193679Y-95896502D01*
X149193683Y-95896497D01*
X149197610Y-95891971D01*
X149302766Y-95710201D01*
X149357397Y-95552880D01*
X149369686Y-95517491D01*
X149369686Y-95517489D01*
X149371653Y-95511826D01*
X149387031Y-95405767D01*
X149400925Y-95309944D01*
X149400925Y-95309941D01*
X149401786Y-95304004D01*
X149396787Y-95195996D01*
X156083414Y-95195996D01*
X156093123Y-95405767D01*
X156094527Y-95411592D01*
X156094527Y-95411593D01*
X156128578Y-95552880D01*
X156142324Y-95609918D01*
X156144806Y-95615376D01*
X156144807Y-95615380D01*
X156187920Y-95710201D01*
X156229240Y-95801081D01*
X156350737Y-95972360D01*
X156440539Y-96058326D01*
X156467464Y-96084101D01*
X156502431Y-96117575D01*
X156507466Y-96120826D01*
X156673809Y-96228233D01*
X156673812Y-96228234D01*
X156678846Y-96231485D01*
X156684409Y-96233727D01*
X156868055Y-96307739D01*
X156868058Y-96307740D01*
X156873619Y-96309981D01*
X156879500Y-96311129D01*
X156879505Y-96311131D01*
X157075276Y-96349362D01*
X157075279Y-96349362D01*
X157079722Y-96350230D01*
X157085243Y-96350500D01*
X157240069Y-96350500D01*
X157396646Y-96335561D01*
X157402402Y-96333872D01*
X157402404Y-96333872D01*
X157547192Y-96291396D01*
X157598149Y-96276447D01*
X157735716Y-96205595D01*
X157779508Y-96183041D01*
X157779511Y-96183039D01*
X157784839Y-96180295D01*
X157854845Y-96125305D01*
X157945262Y-96054282D01*
X157945267Y-96054278D01*
X157949979Y-96050576D01*
X157959440Y-96039673D01*
X158083679Y-95896502D01*
X158083683Y-95896497D01*
X158087610Y-95891971D01*
X158192766Y-95710201D01*
X158247397Y-95552880D01*
X158259686Y-95517491D01*
X158259686Y-95517489D01*
X158261653Y-95511826D01*
X158277031Y-95405767D01*
X158290925Y-95309944D01*
X158290925Y-95309941D01*
X158291786Y-95304004D01*
X158291473Y-95297236D01*
X160012558Y-95297236D01*
X160012921Y-95301384D01*
X160012921Y-95301389D01*
X160016061Y-95337277D01*
X160038614Y-95595065D01*
X160103832Y-95886832D01*
X160105276Y-95890756D01*
X160105276Y-95890757D01*
X160152026Y-96017819D01*
X160207064Y-96167410D01*
X160209015Y-96171110D01*
X160209017Y-96171115D01*
X160313545Y-96369370D01*
X160346498Y-96431870D01*
X160519684Y-96675565D01*
X160566332Y-96725589D01*
X160710982Y-96880707D01*
X160723579Y-96894216D01*
X160954600Y-97083979D01*
X161208690Y-97241521D01*
X161481383Y-97364074D01*
X161558237Y-97386985D01*
X161763890Y-97448293D01*
X161763892Y-97448293D01*
X161767889Y-97449485D01*
X161772009Y-97450138D01*
X161772011Y-97450138D01*
X161794545Y-97453707D01*
X162063175Y-97496254D01*
X162105735Y-97498187D01*
X162155259Y-97500436D01*
X162155278Y-97500436D01*
X162156678Y-97500500D01*
X162343434Y-97500500D01*
X162565909Y-97485723D01*
X162858977Y-97426630D01*
X163141656Y-97329296D01*
X163145389Y-97327427D01*
X163145393Y-97327425D01*
X163405240Y-97197303D01*
X163405242Y-97197302D01*
X163408978Y-97195431D01*
X163656247Y-97027387D01*
X163696826Y-96991106D01*
X163876003Y-96830904D01*
X163876004Y-96830903D01*
X163879120Y-96828117D01*
X164073679Y-96601120D01*
X164182678Y-96433277D01*
X164234229Y-96353896D01*
X164234232Y-96353891D01*
X164236508Y-96350386D01*
X164243548Y-96335561D01*
X164323733Y-96166691D01*
X164364745Y-96080319D01*
X164367381Y-96072111D01*
X164454858Y-95799651D01*
X164454858Y-95799650D01*
X164456138Y-95795664D01*
X164481826Y-95652897D01*
X164508341Y-95505531D01*
X164508342Y-95505526D01*
X164509080Y-95501422D01*
X164511189Y-95454991D01*
X164522453Y-95206934D01*
X164522453Y-95206929D01*
X164522642Y-95202764D01*
X164521531Y-95190056D01*
X164507169Y-95025905D01*
X164496586Y-94904935D01*
X164431368Y-94613168D01*
X164408393Y-94550722D01*
X164329583Y-94336523D01*
X164328136Y-94332590D01*
X164323296Y-94323409D01*
X164190655Y-94071834D01*
X164190654Y-94071833D01*
X164188702Y-94068130D01*
X164015516Y-93824435D01*
X163811621Y-93605784D01*
X163580600Y-93416021D01*
X163326510Y-93258479D01*
X163053817Y-93135926D01*
X162841203Y-93072543D01*
X162771310Y-93051707D01*
X162771308Y-93051707D01*
X162767311Y-93050515D01*
X162763191Y-93049862D01*
X162763189Y-93049862D01*
X162568031Y-93018952D01*
X162472025Y-93003746D01*
X162429465Y-93001813D01*
X162379941Y-92999564D01*
X162379922Y-92999564D01*
X162378522Y-92999500D01*
X162191766Y-92999500D01*
X161969291Y-93014277D01*
X161676223Y-93073370D01*
X161393544Y-93170704D01*
X161389811Y-93172573D01*
X161389807Y-93172575D01*
X161129960Y-93302697D01*
X161126222Y-93304569D01*
X160878953Y-93472613D01*
X160656080Y-93671883D01*
X160461521Y-93898880D01*
X160433849Y-93941491D01*
X160311585Y-94129761D01*
X160298692Y-94149614D01*
X160296898Y-94153392D01*
X160296897Y-94153394D01*
X160280052Y-94188869D01*
X160170455Y-94419681D01*
X160169176Y-94423664D01*
X160169175Y-94423667D01*
X160099116Y-94641874D01*
X160079062Y-94704336D01*
X160078321Y-94708455D01*
X160026924Y-94994111D01*
X160026120Y-94998578D01*
X160025931Y-95002745D01*
X160025930Y-95002752D01*
X160014819Y-95247444D01*
X160012558Y-95297236D01*
X158291473Y-95297236D01*
X158282077Y-95094233D01*
X158241454Y-94925674D01*
X158234282Y-94895915D01*
X158234281Y-94895913D01*
X158232876Y-94890082D01*
X158211213Y-94842435D01*
X158177492Y-94768270D01*
X158145960Y-94698919D01*
X158024463Y-94527640D01*
X157908773Y-94416891D01*
X157877099Y-94386570D01*
X157872769Y-94382425D01*
X157801680Y-94336523D01*
X157701391Y-94271767D01*
X157701388Y-94271766D01*
X157696354Y-94268515D01*
X157677481Y-94260909D01*
X157507145Y-94192261D01*
X157507142Y-94192260D01*
X157501581Y-94190019D01*
X157495700Y-94188871D01*
X157495695Y-94188869D01*
X157299924Y-94150638D01*
X157299921Y-94150638D01*
X157295478Y-94149770D01*
X157289957Y-94149500D01*
X157135131Y-94149500D01*
X156978554Y-94164439D01*
X156972798Y-94166128D01*
X156972796Y-94166128D01*
X156895279Y-94188869D01*
X156777051Y-94223553D01*
X156728181Y-94248723D01*
X156595692Y-94316959D01*
X156595689Y-94316961D01*
X156590361Y-94319705D01*
X156573958Y-94332590D01*
X156429938Y-94445718D01*
X156429933Y-94445722D01*
X156425221Y-94449424D01*
X156421290Y-94453954D01*
X156421289Y-94453955D01*
X156291521Y-94603498D01*
X156291517Y-94603503D01*
X156287590Y-94608029D01*
X156182434Y-94789799D01*
X156169314Y-94827582D01*
X156135251Y-94925674D01*
X156113547Y-94988174D01*
X156112686Y-94994109D01*
X156112686Y-94994111D01*
X156091607Y-95139493D01*
X156083414Y-95195996D01*
X149396787Y-95195996D01*
X149392077Y-95094233D01*
X149351454Y-94925674D01*
X149344282Y-94895915D01*
X149344281Y-94895913D01*
X149342876Y-94890082D01*
X149321213Y-94842435D01*
X149287492Y-94768270D01*
X149255960Y-94698919D01*
X149134463Y-94527640D01*
X149018773Y-94416891D01*
X148987099Y-94386570D01*
X148982769Y-94382425D01*
X148911680Y-94336523D01*
X148811391Y-94271767D01*
X148811388Y-94271766D01*
X148806354Y-94268515D01*
X148787481Y-94260909D01*
X148617145Y-94192261D01*
X148617142Y-94192260D01*
X148611581Y-94190019D01*
X148605700Y-94188871D01*
X148605695Y-94188869D01*
X148409924Y-94150638D01*
X148409921Y-94150638D01*
X148405478Y-94149770D01*
X148399957Y-94149500D01*
X148245131Y-94149500D01*
X148088554Y-94164439D01*
X148082798Y-94166128D01*
X148082796Y-94166128D01*
X148005279Y-94188869D01*
X147887051Y-94223553D01*
X147838181Y-94248723D01*
X147705692Y-94316959D01*
X147705689Y-94316961D01*
X147700361Y-94319705D01*
X147683958Y-94332590D01*
X147539938Y-94445718D01*
X147539933Y-94445722D01*
X147535221Y-94449424D01*
X147531290Y-94453954D01*
X147531289Y-94453955D01*
X147401521Y-94603498D01*
X147401517Y-94603503D01*
X147397590Y-94608029D01*
X147292434Y-94789799D01*
X147279314Y-94827582D01*
X147245251Y-94925674D01*
X147223547Y-94988174D01*
X147222686Y-94994109D01*
X147222686Y-94994111D01*
X147201607Y-95139493D01*
X147193414Y-95195996D01*
X147203123Y-95405767D01*
X147204527Y-95411592D01*
X147204527Y-95411593D01*
X147238578Y-95552880D01*
X147252324Y-95609918D01*
X147254806Y-95615376D01*
X147254807Y-95615380D01*
X147297920Y-95710201D01*
X147339240Y-95801081D01*
X147362593Y-95834002D01*
X147378185Y-95855983D01*
X147401283Y-95923117D01*
X147384419Y-95992082D01*
X147332947Y-96040981D01*
X147262792Y-96054249D01*
X147119455Y-96039816D01*
X147119449Y-96039816D01*
X147116314Y-96039500D01*
X146961556Y-96039500D01*
X146959231Y-96039673D01*
X146959225Y-96039673D01*
X146772786Y-96053528D01*
X146772782Y-96053529D01*
X146768134Y-96053874D01*
X146514368Y-96111295D01*
X146510016Y-96112987D01*
X146510014Y-96112988D01*
X146276230Y-96203902D01*
X146276228Y-96203903D01*
X146271877Y-96205595D01*
X146267823Y-96207912D01*
X146267821Y-96207913D01*
X146188562Y-96253214D01*
X146045988Y-96334701D01*
X145841664Y-96495777D01*
X145663392Y-96685286D01*
X145605731Y-96768404D01*
X145520572Y-96891160D01*
X145515089Y-96899063D01*
X145513023Y-96903253D01*
X145513021Y-96903256D01*
X145425208Y-97081325D01*
X145400014Y-97132413D01*
X145320694Y-97380208D01*
X145311282Y-97438000D01*
X145287904Y-97581550D01*
X145278872Y-97637006D01*
X145278811Y-97641683D01*
X145275886Y-97865117D01*
X145275466Y-97897165D01*
X129766523Y-97897165D01*
X129841670Y-97834665D01*
X129857718Y-97821318D01*
X129998802Y-97651684D01*
X130085847Y-97496254D01*
X130103786Y-97464222D01*
X130103787Y-97464220D01*
X130106610Y-97459179D01*
X130108466Y-97453712D01*
X130108468Y-97453707D01*
X130175675Y-97255721D01*
X130175676Y-97255716D01*
X130177531Y-97250252D01*
X130178359Y-97244543D01*
X130178360Y-97244538D01*
X130201320Y-97086180D01*
X130209191Y-97031898D01*
X130210843Y-96968800D01*
X130190654Y-96749089D01*
X130184027Y-96725589D01*
X130149922Y-96604664D01*
X130130765Y-96536736D01*
X130033180Y-96338853D01*
X130029461Y-96333872D01*
X129904620Y-96166691D01*
X129904620Y-96166690D01*
X129901167Y-96162067D01*
X129753063Y-96025161D01*
X129743389Y-96016218D01*
X129743386Y-96016216D01*
X129739149Y-96012299D01*
X129552550Y-95894564D01*
X129347621Y-95812806D01*
X129341961Y-95811680D01*
X129341957Y-95811679D01*
X129136891Y-95770889D01*
X129136888Y-95770889D01*
X129131224Y-95769762D01*
X129125449Y-95769686D01*
X129125445Y-95769686D01*
X129014704Y-95768237D01*
X128910606Y-95766874D01*
X128904909Y-95767853D01*
X128904908Y-95767853D01*
X128698854Y-95803259D01*
X128698853Y-95803259D01*
X128693157Y-95804238D01*
X128486157Y-95880604D01*
X128481196Y-95883556D01*
X128481195Y-95883556D01*
X128323840Y-95977173D01*
X128296541Y-95993414D01*
X128130657Y-96138890D01*
X127994063Y-96312160D01*
X127891331Y-96507420D01*
X127889618Y-96512938D01*
X127861136Y-96604664D01*
X127821833Y-96663789D01*
X127756803Y-96692280D01*
X127740803Y-96693300D01*
X123770299Y-96693300D01*
X123702178Y-96673298D01*
X123655685Y-96619642D01*
X123649034Y-96601513D01*
X123630765Y-96536736D01*
X123533180Y-96338853D01*
X123529461Y-96333872D01*
X123404620Y-96166691D01*
X123404620Y-96166690D01*
X123401167Y-96162067D01*
X123253063Y-96025161D01*
X123243389Y-96016218D01*
X123243386Y-96016216D01*
X123239149Y-96012299D01*
X123052550Y-95894564D01*
X122847621Y-95812806D01*
X122841961Y-95811680D01*
X122841957Y-95811679D01*
X122636891Y-95770889D01*
X122636888Y-95770889D01*
X122631224Y-95769762D01*
X122625449Y-95769686D01*
X122625445Y-95769686D01*
X122514704Y-95768237D01*
X122410606Y-95766874D01*
X122404909Y-95767853D01*
X122404908Y-95767853D01*
X122198854Y-95803259D01*
X122198853Y-95803259D01*
X122193157Y-95804238D01*
X121986157Y-95880604D01*
X121981196Y-95883556D01*
X121981195Y-95883556D01*
X121823840Y-95977173D01*
X121796541Y-95993414D01*
X121727172Y-96054249D01*
X121677177Y-96098093D01*
X121612773Y-96127970D01*
X121542440Y-96118284D01*
X121488509Y-96072111D01*
X121468100Y-96003361D01*
X121468100Y-95195996D01*
X137033414Y-95195996D01*
X137043123Y-95405767D01*
X137044527Y-95411592D01*
X137044527Y-95411593D01*
X137078578Y-95552880D01*
X137092324Y-95609918D01*
X137094806Y-95615376D01*
X137094807Y-95615380D01*
X137137920Y-95710201D01*
X137179240Y-95801081D01*
X137300737Y-95972360D01*
X137390539Y-96058326D01*
X137417464Y-96084101D01*
X137452431Y-96117575D01*
X137457466Y-96120826D01*
X137623809Y-96228233D01*
X137623812Y-96228234D01*
X137628846Y-96231485D01*
X137634409Y-96233727D01*
X137818055Y-96307739D01*
X137818058Y-96307740D01*
X137823619Y-96309981D01*
X137829500Y-96311129D01*
X137829505Y-96311131D01*
X138025276Y-96349362D01*
X138025279Y-96349362D01*
X138029722Y-96350230D01*
X138035243Y-96350500D01*
X138190069Y-96350500D01*
X138346646Y-96335561D01*
X138352402Y-96333872D01*
X138352404Y-96333872D01*
X138497192Y-96291396D01*
X138548149Y-96276447D01*
X138685716Y-96205595D01*
X138729508Y-96183041D01*
X138729511Y-96183039D01*
X138734839Y-96180295D01*
X138804845Y-96125305D01*
X138895262Y-96054282D01*
X138895267Y-96054278D01*
X138899979Y-96050576D01*
X138909440Y-96039673D01*
X139033679Y-95896502D01*
X139033683Y-95896497D01*
X139037610Y-95891971D01*
X139142766Y-95710201D01*
X139197397Y-95552880D01*
X139209686Y-95517491D01*
X139209686Y-95517489D01*
X139211653Y-95511826D01*
X139227031Y-95405767D01*
X139240925Y-95309944D01*
X139240925Y-95309941D01*
X139241786Y-95304004D01*
X139241473Y-95297236D01*
X140962558Y-95297236D01*
X140962921Y-95301384D01*
X140962921Y-95301389D01*
X140966061Y-95337277D01*
X140988614Y-95595065D01*
X141053832Y-95886832D01*
X141055276Y-95890756D01*
X141055276Y-95890757D01*
X141102026Y-96017819D01*
X141157064Y-96167410D01*
X141159015Y-96171110D01*
X141159017Y-96171115D01*
X141263545Y-96369370D01*
X141296498Y-96431870D01*
X141469684Y-96675565D01*
X141516332Y-96725589D01*
X141660982Y-96880707D01*
X141673579Y-96894216D01*
X141904600Y-97083979D01*
X142158690Y-97241521D01*
X142431383Y-97364074D01*
X142508237Y-97386985D01*
X142713890Y-97448293D01*
X142713892Y-97448293D01*
X142717889Y-97449485D01*
X142722009Y-97450138D01*
X142722011Y-97450138D01*
X142744545Y-97453707D01*
X143013175Y-97496254D01*
X143055735Y-97498187D01*
X143105259Y-97500436D01*
X143105278Y-97500436D01*
X143106678Y-97500500D01*
X143293434Y-97500500D01*
X143515909Y-97485723D01*
X143808977Y-97426630D01*
X144091656Y-97329296D01*
X144095389Y-97327427D01*
X144095393Y-97327425D01*
X144355240Y-97197303D01*
X144355242Y-97197302D01*
X144358978Y-97195431D01*
X144606247Y-97027387D01*
X144646826Y-96991106D01*
X144826003Y-96830904D01*
X144826004Y-96830903D01*
X144829120Y-96828117D01*
X145023679Y-96601120D01*
X145132678Y-96433277D01*
X145184229Y-96353896D01*
X145184232Y-96353891D01*
X145186508Y-96350386D01*
X145193548Y-96335561D01*
X145273733Y-96166691D01*
X145314745Y-96080319D01*
X145317381Y-96072111D01*
X145404858Y-95799651D01*
X145404858Y-95799650D01*
X145406138Y-95795664D01*
X145431826Y-95652897D01*
X145458341Y-95505531D01*
X145458342Y-95505526D01*
X145459080Y-95501422D01*
X145461189Y-95454991D01*
X145472453Y-95206934D01*
X145472453Y-95206929D01*
X145472642Y-95202764D01*
X145471531Y-95190056D01*
X145457169Y-95025905D01*
X145446586Y-94904935D01*
X145381368Y-94613168D01*
X145358393Y-94550722D01*
X145279583Y-94336523D01*
X145278136Y-94332590D01*
X145273296Y-94323409D01*
X145140655Y-94071834D01*
X145140654Y-94071833D01*
X145138702Y-94068130D01*
X144965516Y-93824435D01*
X144761621Y-93605784D01*
X144530600Y-93416021D01*
X144276510Y-93258479D01*
X144003817Y-93135926D01*
X143791203Y-93072543D01*
X143721310Y-93051707D01*
X143721308Y-93051707D01*
X143717311Y-93050515D01*
X143713191Y-93049862D01*
X143713189Y-93049862D01*
X143518031Y-93018952D01*
X143422025Y-93003746D01*
X143379465Y-93001813D01*
X143329941Y-92999564D01*
X143329922Y-92999564D01*
X143328522Y-92999500D01*
X143141766Y-92999500D01*
X142919291Y-93014277D01*
X142626223Y-93073370D01*
X142525058Y-93108204D01*
X142521323Y-93109490D01*
X142500406Y-93110453D01*
X142496457Y-93114836D01*
X142471431Y-93126669D01*
X142448014Y-93134732D01*
X142343544Y-93170704D01*
X142339811Y-93172573D01*
X142339807Y-93172575D01*
X142079960Y-93302697D01*
X142076222Y-93304569D01*
X141828953Y-93472613D01*
X141606080Y-93671883D01*
X141411521Y-93898880D01*
X141383849Y-93941491D01*
X141261585Y-94129761D01*
X141248692Y-94149614D01*
X141246898Y-94153392D01*
X141246897Y-94153394D01*
X141230052Y-94188869D01*
X141120455Y-94419681D01*
X141119176Y-94423664D01*
X141119175Y-94423667D01*
X141049116Y-94641874D01*
X141029062Y-94704336D01*
X141028321Y-94708455D01*
X140976924Y-94994111D01*
X140976120Y-94998578D01*
X140975931Y-95002745D01*
X140975930Y-95002752D01*
X140964819Y-95247444D01*
X140962558Y-95297236D01*
X139241473Y-95297236D01*
X139232077Y-95094233D01*
X139191454Y-94925674D01*
X139184282Y-94895915D01*
X139184281Y-94895913D01*
X139182876Y-94890082D01*
X139161213Y-94842435D01*
X139127492Y-94768270D01*
X139095960Y-94698919D01*
X138974463Y-94527640D01*
X138858773Y-94416891D01*
X138827099Y-94386570D01*
X138822769Y-94382425D01*
X138751680Y-94336523D01*
X138651391Y-94271767D01*
X138651388Y-94271766D01*
X138646354Y-94268515D01*
X138627481Y-94260909D01*
X138457145Y-94192261D01*
X138457142Y-94192260D01*
X138451581Y-94190019D01*
X138445700Y-94188871D01*
X138445695Y-94188869D01*
X138249924Y-94150638D01*
X138249921Y-94150638D01*
X138245478Y-94149770D01*
X138239957Y-94149500D01*
X138085131Y-94149500D01*
X137928554Y-94164439D01*
X137922798Y-94166128D01*
X137922796Y-94166128D01*
X137845279Y-94188869D01*
X137727051Y-94223553D01*
X137678181Y-94248723D01*
X137545692Y-94316959D01*
X137545689Y-94316961D01*
X137540361Y-94319705D01*
X137523958Y-94332590D01*
X137379938Y-94445718D01*
X137379933Y-94445722D01*
X137375221Y-94449424D01*
X137371290Y-94453954D01*
X137371289Y-94453955D01*
X137241521Y-94603498D01*
X137241517Y-94603503D01*
X137237590Y-94608029D01*
X137132434Y-94789799D01*
X137119314Y-94827582D01*
X137085251Y-94925674D01*
X137063547Y-94988174D01*
X137062686Y-94994109D01*
X137062686Y-94994111D01*
X137041607Y-95139493D01*
X137033414Y-95195996D01*
X121468100Y-95195996D01*
X121468100Y-94216306D01*
X121488102Y-94148185D01*
X121505005Y-94127211D01*
X121803238Y-93828978D01*
X121865550Y-93794952D01*
X121942071Y-93802305D01*
X122036554Y-93842898D01*
X122132536Y-93884135D01*
X122212188Y-93902158D01*
X122342095Y-93931554D01*
X122342101Y-93931555D01*
X122347732Y-93932829D01*
X122353503Y-93933056D01*
X122353505Y-93933056D01*
X122421311Y-93935720D01*
X122568198Y-93941491D01*
X122677375Y-93925661D01*
X122780838Y-93910660D01*
X122780843Y-93910659D01*
X122786552Y-93909831D01*
X122792016Y-93907976D01*
X122792021Y-93907975D01*
X122990007Y-93840768D01*
X122990012Y-93840766D01*
X122995479Y-93838910D01*
X123015243Y-93827842D01*
X123126844Y-93765342D01*
X123187984Y-93731102D01*
X123357618Y-93590018D01*
X123396487Y-93543284D01*
X123495008Y-93424826D01*
X123495010Y-93424823D01*
X123498702Y-93420384D01*
X123589373Y-93258479D01*
X123603686Y-93232922D01*
X123603687Y-93232920D01*
X123606510Y-93227879D01*
X123650429Y-93098498D01*
X123691265Y-93040423D01*
X123757017Y-93013644D01*
X123769741Y-93013000D01*
X127738369Y-93013000D01*
X127806490Y-93033002D01*
X127852983Y-93086658D01*
X127860492Y-93107984D01*
X127867190Y-93134357D01*
X127868611Y-93139952D01*
X127871026Y-93145190D01*
X127871028Y-93145195D01*
X127909146Y-93227879D01*
X127960983Y-93340321D01*
X128088322Y-93520502D01*
X128246364Y-93674461D01*
X128251160Y-93677666D01*
X128251163Y-93677668D01*
X128335361Y-93733927D01*
X128429817Y-93797040D01*
X128435120Y-93799318D01*
X128435123Y-93799320D01*
X128536554Y-93842898D01*
X128632536Y-93884135D01*
X128712188Y-93902158D01*
X128842095Y-93931554D01*
X128842101Y-93931555D01*
X128847732Y-93932829D01*
X128853503Y-93933056D01*
X128853505Y-93933056D01*
X128921311Y-93935720D01*
X129068198Y-93941491D01*
X129177375Y-93925661D01*
X129280838Y-93910660D01*
X129280843Y-93910659D01*
X129286552Y-93909831D01*
X129292016Y-93907976D01*
X129292021Y-93907975D01*
X129490007Y-93840768D01*
X129490012Y-93840766D01*
X129495479Y-93838910D01*
X129515243Y-93827842D01*
X129626844Y-93765342D01*
X129687984Y-93731102D01*
X129857618Y-93590018D01*
X129896487Y-93543284D01*
X129995008Y-93424826D01*
X129995010Y-93424823D01*
X129998702Y-93420384D01*
X130089373Y-93258479D01*
X130103686Y-93232922D01*
X130103687Y-93232920D01*
X130106510Y-93227879D01*
X130108366Y-93222412D01*
X130108368Y-93222407D01*
X130175575Y-93024421D01*
X130175576Y-93024416D01*
X130177431Y-93018952D01*
X130178259Y-93013243D01*
X130178260Y-93013238D01*
X130198344Y-92874718D01*
X130209091Y-92800598D01*
X130210743Y-92737500D01*
X130190554Y-92517789D01*
X130130665Y-92305436D01*
X130033080Y-92107553D01*
X129992275Y-92052908D01*
X129904520Y-91935391D01*
X129904520Y-91935390D01*
X129901067Y-91930767D01*
X129739049Y-91780999D01*
X129552450Y-91663264D01*
X129437999Y-91617603D01*
X129352885Y-91583646D01*
X129347521Y-91581506D01*
X129341861Y-91580380D01*
X129341857Y-91580379D01*
X129136791Y-91539589D01*
X129136788Y-91539589D01*
X129131124Y-91538462D01*
X129125349Y-91538386D01*
X129125345Y-91538386D01*
X129014604Y-91536937D01*
X128910506Y-91535574D01*
X128904809Y-91536553D01*
X128904808Y-91536553D01*
X128698754Y-91571959D01*
X128698753Y-91571959D01*
X128693057Y-91572938D01*
X128486057Y-91649304D01*
X128481096Y-91652256D01*
X128481095Y-91652256D01*
X128366114Y-91720663D01*
X128296441Y-91762114D01*
X128130557Y-91907590D01*
X127993963Y-92080860D01*
X127891231Y-92276120D01*
X127889518Y-92281638D01*
X127861036Y-92373364D01*
X127821733Y-92432489D01*
X127756703Y-92460980D01*
X127740703Y-92462000D01*
X123770199Y-92462000D01*
X123702078Y-92441998D01*
X123655585Y-92388342D01*
X123648934Y-92370213D01*
X123630665Y-92305436D01*
X123533080Y-92107553D01*
X123492275Y-92052908D01*
X123404520Y-91935391D01*
X123404520Y-91935390D01*
X123401067Y-91930767D01*
X123239049Y-91780999D01*
X123052450Y-91663264D01*
X122937999Y-91617603D01*
X122852885Y-91583646D01*
X122847521Y-91581506D01*
X122841861Y-91580380D01*
X122841857Y-91580379D01*
X122636791Y-91539589D01*
X122636788Y-91539589D01*
X122631124Y-91538462D01*
X122625349Y-91538386D01*
X122625345Y-91538386D01*
X122514604Y-91536937D01*
X122410506Y-91535574D01*
X122404809Y-91536553D01*
X122404808Y-91536553D01*
X122198754Y-91571959D01*
X122198753Y-91571959D01*
X122193057Y-91572938D01*
X121986057Y-91649304D01*
X121981096Y-91652256D01*
X121981095Y-91652256D01*
X121866114Y-91720663D01*
X121796441Y-91762114D01*
X121630557Y-91907590D01*
X121493963Y-92080860D01*
X121391231Y-92276120D01*
X121325803Y-92486833D01*
X121299870Y-92705940D01*
X121314300Y-92926104D01*
X121315721Y-92931700D01*
X121315722Y-92931705D01*
X121367190Y-93134357D01*
X121368611Y-93139952D01*
X121440525Y-93295945D01*
X121450880Y-93366181D01*
X121421618Y-93430867D01*
X121415194Y-93437790D01*
X121025756Y-93827228D01*
X121006664Y-93842898D01*
X120993976Y-93851376D01*
X120933085Y-93942505D01*
X120933085Y-93942506D01*
X120911703Y-94050000D01*
X120914124Y-94062171D01*
X120914679Y-94064961D01*
X120917100Y-94089543D01*
X120917100Y-101931657D01*
X120914679Y-101956239D01*
X120911703Y-101971200D01*
X120917100Y-101998332D01*
X120917100Y-101998333D01*
X120933085Y-102078695D01*
X120939978Y-102089011D01*
X120961128Y-102120664D01*
X120967115Y-102129624D01*
X120973109Y-102138594D01*
X120993976Y-102169824D01*
X121004292Y-102176717D01*
X121004293Y-102176718D01*
X121006664Y-102178302D01*
X121025756Y-102193972D01*
X122004428Y-103172644D01*
X122020098Y-103191736D01*
X122028576Y-103204424D01*
X122051577Y-103219793D01*
X122051578Y-103219794D01*
X122119705Y-103265315D01*
X122227200Y-103286697D01*
X122242161Y-103283721D01*
X122266743Y-103281300D01*
X150050006Y-103281300D01*
X150118127Y-103301302D01*
X150146455Y-103326223D01*
X150193970Y-103382748D01*
X150201446Y-103387725D01*
X150208135Y-103393705D01*
X150206788Y-103395212D01*
X150244944Y-103440712D01*
X150255500Y-103491196D01*
X150255500Y-104947257D01*
X150253079Y-104971839D01*
X150250103Y-104986800D01*
X150255500Y-105013932D01*
X150255500Y-105013933D01*
X150271485Y-105094295D01*
X150332376Y-105185424D01*
X150342692Y-105192317D01*
X150342693Y-105192318D01*
X150345064Y-105193902D01*
X150364156Y-105209572D01*
X159802036Y-114647452D01*
X159836062Y-114709764D01*
X159837441Y-114755932D01*
X159832491Y-114787723D01*
X159851080Y-114929879D01*
X159908820Y-115061103D01*
X159914597Y-115067976D01*
X159914598Y-115067977D01*
X159978607Y-115144125D01*
X160001070Y-115170848D01*
X160008547Y-115175825D01*
X160084314Y-115226260D01*
X160120413Y-115250290D01*
X160257257Y-115293042D01*
X160266229Y-115293206D01*
X160266232Y-115293207D01*
X160293223Y-115293701D01*
X160302429Y-115293870D01*
X160370171Y-115315117D01*
X160415673Y-115369616D01*
X160424619Y-115439233D01*
X160420433Y-115466123D01*
X160413691Y-115509423D01*
X160414855Y-115518325D01*
X160414855Y-115518327D01*
X160425785Y-115601907D01*
X160414785Y-115672047D01*
X160367611Y-115725104D01*
X160335474Y-115739394D01*
X160291394Y-115751993D01*
X160262229Y-115760328D01*
X160140980Y-115836830D01*
X160046077Y-115944288D01*
X160042262Y-115952413D01*
X160042261Y-115952415D01*
X160027584Y-115983675D01*
X159980527Y-116036836D01*
X159912198Y-116056117D01*
X159844293Y-116035396D01*
X159824435Y-116019219D01*
X153838372Y-110033156D01*
X153822702Y-110014064D01*
X153821115Y-110011689D01*
X153814224Y-110001376D01*
X153791223Y-109986007D01*
X153792812Y-109983630D01*
X153792810Y-109983629D01*
X153791222Y-109986006D01*
X153765068Y-109968531D01*
X153765066Y-109968528D01*
X153765065Y-109968529D01*
X153733411Y-109947378D01*
X153723095Y-109940485D01*
X153710926Y-109938064D01*
X153710925Y-109938064D01*
X153642733Y-109924500D01*
X153627772Y-109921524D01*
X153627771Y-109921524D01*
X153615600Y-109919103D01*
X153603429Y-109921524D01*
X153600639Y-109922079D01*
X153576057Y-109924500D01*
X130270199Y-109924500D01*
X130202078Y-109904498D01*
X130155585Y-109850842D01*
X130148934Y-109832713D01*
X130130665Y-109767936D01*
X130033080Y-109570053D01*
X129901067Y-109393267D01*
X129739049Y-109243499D01*
X129552450Y-109125764D01*
X129347521Y-109044006D01*
X129341861Y-109042880D01*
X129341857Y-109042879D01*
X129136791Y-109002089D01*
X129136788Y-109002089D01*
X129131124Y-109000962D01*
X129125349Y-109000886D01*
X129125345Y-109000886D01*
X129014604Y-108999437D01*
X128910506Y-108998074D01*
X128904809Y-108999053D01*
X128904808Y-108999053D01*
X128698754Y-109034459D01*
X128698753Y-109034459D01*
X128693057Y-109035438D01*
X128486057Y-109111804D01*
X128296441Y-109224614D01*
X128130557Y-109370090D01*
X127993963Y-109543360D01*
X127891231Y-109738620D01*
X127884223Y-109761191D01*
X127861036Y-109835864D01*
X127821733Y-109894989D01*
X127756703Y-109923480D01*
X127740703Y-109924500D01*
X123770199Y-109924500D01*
X123702078Y-109904498D01*
X123655585Y-109850842D01*
X123648934Y-109832713D01*
X123630665Y-109767936D01*
X123533080Y-109570053D01*
X123401067Y-109393267D01*
X123239049Y-109243499D01*
X123052450Y-109125764D01*
X122847521Y-109044006D01*
X122841861Y-109042880D01*
X122841857Y-109042879D01*
X122636791Y-109002089D01*
X122636788Y-109002089D01*
X122631124Y-109000962D01*
X122625349Y-109000886D01*
X122625345Y-109000886D01*
X122514604Y-108999437D01*
X122410506Y-108998074D01*
X122404809Y-108999053D01*
X122404808Y-108999053D01*
X122198754Y-109034459D01*
X122198753Y-109034459D01*
X122193057Y-109035438D01*
X121986057Y-109111804D01*
X121796441Y-109224614D01*
X121630557Y-109370090D01*
X121493963Y-109543360D01*
X121391231Y-109738620D01*
X121325803Y-109949333D01*
X121299870Y-110168440D01*
X121314300Y-110388604D01*
X121315721Y-110394200D01*
X121315722Y-110394205D01*
X121345742Y-110512405D01*
X121368611Y-110602452D01*
X121371028Y-110607694D01*
X121371028Y-110607695D01*
X121409146Y-110690379D01*
X121460983Y-110802821D01*
X121588322Y-110983002D01*
X121746364Y-111136961D01*
X121751160Y-111140166D01*
X121751163Y-111140168D01*
X121835361Y-111196427D01*
X121929817Y-111259540D01*
X121935120Y-111261818D01*
X121935123Y-111261820D01*
X122127229Y-111344355D01*
X122132536Y-111346635D01*
X122212188Y-111364658D01*
X122342095Y-111394054D01*
X122342101Y-111394055D01*
X122347732Y-111395329D01*
X122353503Y-111395556D01*
X122353505Y-111395556D01*
X122421311Y-111398220D01*
X122568198Y-111403991D01*
X122677375Y-111388161D01*
X122780838Y-111373160D01*
X122780843Y-111373159D01*
X122786552Y-111372331D01*
X122792016Y-111370476D01*
X122792021Y-111370475D01*
X122990007Y-111303268D01*
X122990012Y-111303266D01*
X122995479Y-111301410D01*
X123187984Y-111193602D01*
X123357618Y-111052518D01*
X123498702Y-110882884D01*
X123606510Y-110690379D01*
X123650429Y-110560998D01*
X123691265Y-110502923D01*
X123757017Y-110476144D01*
X123769741Y-110475500D01*
X127738369Y-110475500D01*
X127806490Y-110495502D01*
X127852983Y-110549158D01*
X127860492Y-110570484D01*
X127868611Y-110602452D01*
X127871028Y-110607694D01*
X127871028Y-110607695D01*
X127909146Y-110690379D01*
X127960983Y-110802821D01*
X128088322Y-110983002D01*
X128246364Y-111136961D01*
X128251160Y-111140166D01*
X128251163Y-111140168D01*
X128335361Y-111196427D01*
X128429817Y-111259540D01*
X128435120Y-111261818D01*
X128435123Y-111261820D01*
X128627229Y-111344355D01*
X128632536Y-111346635D01*
X128712188Y-111364658D01*
X128842095Y-111394054D01*
X128842101Y-111394055D01*
X128847732Y-111395329D01*
X128853503Y-111395556D01*
X128853505Y-111395556D01*
X128921311Y-111398220D01*
X129068198Y-111403991D01*
X129177375Y-111388161D01*
X129280838Y-111373160D01*
X129280843Y-111373159D01*
X129286552Y-111372331D01*
X129292016Y-111370476D01*
X129292021Y-111370475D01*
X129490007Y-111303268D01*
X129490012Y-111303266D01*
X129495479Y-111301410D01*
X129687984Y-111193602D01*
X129857618Y-111052518D01*
X129998702Y-110882884D01*
X130106510Y-110690379D01*
X130150429Y-110560998D01*
X130191265Y-110502923D01*
X130257017Y-110476144D01*
X130269741Y-110475500D01*
X153449294Y-110475500D01*
X153517415Y-110495502D01*
X153538389Y-110512405D01*
X154971413Y-111945429D01*
X155005439Y-112007741D01*
X155000374Y-112078556D01*
X154957827Y-112135392D01*
X154891307Y-112160203D01*
X154882318Y-112160524D01*
X154870871Y-112160524D01*
X154858700Y-112158103D01*
X154846529Y-112160524D01*
X154843739Y-112161079D01*
X154819157Y-112163500D01*
X148496391Y-112163500D01*
X148428270Y-112143498D01*
X148400938Y-112119748D01*
X148353560Y-112064763D01*
X148353557Y-112064760D01*
X148347700Y-112057963D01*
X148227395Y-111979985D01*
X148090039Y-111938907D01*
X148081063Y-111938852D01*
X148081062Y-111938852D01*
X148020855Y-111938484D01*
X147946676Y-111938031D01*
X147808829Y-111977428D01*
X147687580Y-112053930D01*
X147592677Y-112161388D01*
X147531747Y-112291163D01*
X147530366Y-112300035D01*
X147521320Y-112358136D01*
X147509691Y-112432823D01*
X147528280Y-112574979D01*
X147531897Y-112583199D01*
X147572693Y-112675914D01*
X147586020Y-112706203D01*
X147591797Y-112713076D01*
X147591798Y-112713077D01*
X147599092Y-112721754D01*
X147678270Y-112815948D01*
X147685747Y-112820925D01*
X147780761Y-112884172D01*
X147797613Y-112895390D01*
X147934457Y-112938142D01*
X147943429Y-112938306D01*
X147943432Y-112938307D01*
X148008763Y-112939504D01*
X148077799Y-112940770D01*
X148086833Y-112938307D01*
X148207458Y-112905421D01*
X148207460Y-112905420D01*
X148216117Y-112903060D01*
X148338291Y-112828045D01*
X148403552Y-112755945D01*
X148464096Y-112718864D01*
X148496968Y-112714500D01*
X154692394Y-112714500D01*
X154760515Y-112734502D01*
X154781489Y-112751405D01*
X156301689Y-114271605D01*
X156335715Y-114333917D01*
X156330650Y-114404732D01*
X156288103Y-114461568D01*
X156221583Y-114486379D01*
X156212594Y-114486700D01*
X136121191Y-114486700D01*
X136053070Y-114466698D01*
X136025738Y-114442948D01*
X135978360Y-114387963D01*
X135978357Y-114387960D01*
X135972500Y-114381163D01*
X135852195Y-114303185D01*
X135714839Y-114262107D01*
X135705863Y-114262052D01*
X135705862Y-114262052D01*
X135645655Y-114261684D01*
X135571476Y-114261231D01*
X135433629Y-114300628D01*
X135312380Y-114377130D01*
X135217477Y-114484588D01*
X135156547Y-114614363D01*
X135155166Y-114623235D01*
X135142312Y-114705793D01*
X135134491Y-114756023D01*
X135135655Y-114764925D01*
X135135655Y-114764928D01*
X135143560Y-114825374D01*
X135153080Y-114898179D01*
X135210820Y-115029403D01*
X135216597Y-115036276D01*
X135216598Y-115036277D01*
X135297290Y-115132272D01*
X135303070Y-115139148D01*
X135422413Y-115218590D01*
X135559257Y-115261342D01*
X135568229Y-115261506D01*
X135568232Y-115261507D01*
X135633563Y-115262704D01*
X135702599Y-115263970D01*
X135711633Y-115261507D01*
X135832258Y-115228621D01*
X135832260Y-115228620D01*
X135840917Y-115226260D01*
X135963091Y-115151245D01*
X136028352Y-115079145D01*
X136088896Y-115042064D01*
X136121768Y-115037700D01*
X156228794Y-115037700D01*
X156296915Y-115057702D01*
X156317889Y-115074605D01*
X160172828Y-118929544D01*
X160188498Y-118948636D01*
X160196976Y-118961324D01*
X160219977Y-118976693D01*
X160219978Y-118976694D01*
X160288105Y-119022215D01*
X160395600Y-119043597D01*
X160410561Y-119040621D01*
X160435143Y-119038200D01*
X161780406Y-119038200D01*
X161848527Y-119058202D01*
X161876855Y-119083123D01*
X161924370Y-119139648D01*
X162043713Y-119219090D01*
X162180557Y-119261842D01*
X162189529Y-119262006D01*
X162189532Y-119262007D01*
X162254863Y-119263204D01*
X162323899Y-119264470D01*
X162332933Y-119262007D01*
X162453558Y-119229121D01*
X162453560Y-119229120D01*
X162462217Y-119226760D01*
X162584391Y-119151745D01*
X162680600Y-119045454D01*
X162727508Y-118948636D01*
X162739195Y-118924514D01*
X162739195Y-118924513D01*
X162743110Y-118916433D01*
X162766896Y-118775054D01*
X162767047Y-118762700D01*
X162746723Y-118620782D01*
X162687384Y-118490272D01*
X162667502Y-118467198D01*
X162599660Y-118388463D01*
X162599657Y-118388460D01*
X162593800Y-118381663D01*
X162473495Y-118303685D01*
X162405054Y-118283217D01*
X162345521Y-118244536D01*
X162316350Y-118179808D01*
X162326805Y-118109586D01*
X162373566Y-118056163D01*
X162441156Y-118036500D01*
X164944194Y-118036500D01*
X165012315Y-118056502D01*
X165033289Y-118073405D01*
X165725336Y-118765452D01*
X165759362Y-118827764D01*
X165760741Y-118873932D01*
X165755791Y-118905723D01*
X165756955Y-118914625D01*
X165756955Y-118914628D01*
X165761713Y-118951011D01*
X165774380Y-119047879D01*
X165832120Y-119179103D01*
X165837897Y-119185976D01*
X165837898Y-119185977D01*
X165903878Y-119264470D01*
X165924370Y-119288848D01*
X166043713Y-119368290D01*
X166180557Y-119411042D01*
X166189529Y-119411206D01*
X166189532Y-119411207D01*
X166254863Y-119412404D01*
X166323899Y-119413670D01*
X166332933Y-119411207D01*
X166453558Y-119378321D01*
X166453560Y-119378320D01*
X166462217Y-119375960D01*
X166584391Y-119300945D01*
X166680600Y-119194654D01*
X166743110Y-119065633D01*
X166766896Y-118924254D01*
X166767047Y-118911900D01*
X166761610Y-118873932D01*
X166761447Y-118872792D01*
X166771591Y-118802523D01*
X166797080Y-118765836D01*
X169703311Y-115859605D01*
X169765623Y-115825579D01*
X169792406Y-115822700D01*
X188458706Y-115822700D01*
X188526827Y-115842702D01*
X188555155Y-115867623D01*
X188602670Y-115924148D01*
X188722013Y-116003590D01*
X188858857Y-116046342D01*
X188867829Y-116046506D01*
X188867832Y-116046507D01*
X188933163Y-116047704D01*
X189002199Y-116048970D01*
X189011233Y-116046507D01*
X189131858Y-116013621D01*
X189131860Y-116013620D01*
X189140517Y-116011260D01*
X189262691Y-115936245D01*
X189358900Y-115829954D01*
X189421410Y-115700933D01*
X189445196Y-115559554D01*
X189445347Y-115547200D01*
X189425023Y-115405282D01*
X189365684Y-115274772D01*
X189319583Y-115221269D01*
X189277960Y-115172963D01*
X189277957Y-115172960D01*
X189272100Y-115166163D01*
X189151795Y-115088185D01*
X189014439Y-115047107D01*
X189005463Y-115047052D01*
X189005462Y-115047052D01*
X188945255Y-115046684D01*
X188871076Y-115046231D01*
X188733229Y-115085628D01*
X188611980Y-115162130D01*
X188606038Y-115168858D01*
X188606037Y-115168859D01*
X188552827Y-115229108D01*
X188492742Y-115266926D01*
X188458386Y-115271700D01*
X178921922Y-115271700D01*
X178853801Y-115251698D01*
X178807308Y-115198042D01*
X178797204Y-115127768D01*
X178828506Y-115061145D01*
X178894978Y-114987707D01*
X178901000Y-114981054D01*
X178963510Y-114852033D01*
X178987296Y-114710654D01*
X178987447Y-114698300D01*
X178985292Y-114683250D01*
X178981847Y-114659192D01*
X178991991Y-114588923D01*
X179017480Y-114552236D01*
X188132244Y-105437472D01*
X188151336Y-105421802D01*
X188153707Y-105420218D01*
X188153708Y-105420217D01*
X188164024Y-105413324D01*
X188224915Y-105322195D01*
X188240900Y-105241833D01*
X188240900Y-105241832D01*
X188246297Y-105214700D01*
X188243321Y-105199737D01*
X188240900Y-105175157D01*
X188240900Y-84322943D01*
X188243321Y-84298363D01*
X188243876Y-84295573D01*
X188243876Y-84295571D01*
X188246297Y-84283400D01*
X188224915Y-84175906D01*
X188224915Y-84175905D01*
X188164024Y-84084776D01*
X188151336Y-84076298D01*
X188132244Y-84060628D01*
X186126324Y-82054708D01*
X186092298Y-81992396D01*
X186091165Y-81944708D01*
X186094489Y-81924949D01*
X186095296Y-81920154D01*
X186095447Y-81907800D01*
X186083398Y-81823664D01*
X186076396Y-81774768D01*
X186076395Y-81774765D01*
X186075123Y-81765882D01*
X186015784Y-81635372D01*
X185997398Y-81614034D01*
X185928060Y-81533563D01*
X185928057Y-81533560D01*
X185922200Y-81526763D01*
X185801895Y-81448785D01*
X185664539Y-81407707D01*
X185655563Y-81407652D01*
X185655562Y-81407652D01*
X185529922Y-81406884D01*
X185461925Y-81386466D01*
X185441597Y-81369981D01*
X178696872Y-74625256D01*
X178681202Y-74606164D01*
X178679615Y-74603789D01*
X178672724Y-74593476D01*
X178649723Y-74578107D01*
X178649722Y-74578106D01*
X178616314Y-74555784D01*
X178581595Y-74532585D01*
X178501233Y-74516600D01*
X178486272Y-74513624D01*
X178486271Y-74513624D01*
X178474100Y-74511203D01*
X178461929Y-74513624D01*
X178459139Y-74514179D01*
X178434557Y-74516600D01*
X173772006Y-74516600D01*
X173703885Y-74496598D01*
X173682911Y-74479695D01*
X173681444Y-74478228D01*
X173647418Y-74415916D01*
X173652483Y-74345101D01*
X173695030Y-74288265D01*
X173704611Y-74281758D01*
X173784440Y-74232744D01*
X173784446Y-74232739D01*
X173792091Y-74228045D01*
X173857352Y-74155945D01*
X173917896Y-74118864D01*
X173950768Y-74114500D01*
X192713706Y-74114500D01*
X192781827Y-74134502D01*
X192810155Y-74159423D01*
X192857670Y-74215948D01*
X192977013Y-74295390D01*
X193113857Y-74338142D01*
X193122829Y-74338306D01*
X193122832Y-74338307D01*
X193188163Y-74339504D01*
X193257199Y-74340770D01*
X193266233Y-74338307D01*
X193386858Y-74305421D01*
X193386860Y-74305420D01*
X193395517Y-74303060D01*
X193517691Y-74228045D01*
X193613900Y-74121754D01*
X193660906Y-74024733D01*
X193672495Y-74000814D01*
X193672495Y-74000813D01*
X193676410Y-73992733D01*
X193700196Y-73851354D01*
X193700347Y-73839000D01*
X193682314Y-73713077D01*
X193681296Y-73705968D01*
X193681295Y-73705965D01*
X193680023Y-73697082D01*
X193673705Y-73683185D01*
X193649152Y-73629185D01*
X193620684Y-73566572D01*
X193588416Y-73529123D01*
X193532960Y-73464763D01*
X193532957Y-73464760D01*
X193527100Y-73457963D01*
X193406795Y-73379985D01*
X193269439Y-73338907D01*
X193260463Y-73338852D01*
X193260462Y-73338852D01*
X193200255Y-73338484D01*
X193126076Y-73338031D01*
X192988229Y-73377428D01*
X192866980Y-73453930D01*
X192861038Y-73460658D01*
X192861037Y-73460659D01*
X192807827Y-73520908D01*
X192747742Y-73558726D01*
X192713386Y-73563500D01*
X173950191Y-73563500D01*
X173882070Y-73543498D01*
X173854738Y-73519748D01*
X173807360Y-73464763D01*
X173807357Y-73464760D01*
X173801500Y-73457963D01*
X173733718Y-73414029D01*
X173687434Y-73360193D01*
X173677604Y-73289880D01*
X173707349Y-73225414D01*
X173754033Y-73191888D01*
X173765022Y-73187336D01*
X173777195Y-73184915D01*
X173787512Y-73178021D01*
X173787515Y-73178020D01*
X173825103Y-73152904D01*
X173845321Y-73139395D01*
X173845323Y-73139393D01*
X173858011Y-73130915D01*
X173868324Y-73124024D01*
X173876802Y-73111336D01*
X173892472Y-73092244D01*
X175676625Y-71308091D01*
X175738937Y-71274065D01*
X175768028Y-71271207D01*
X175885999Y-71273370D01*
X175894663Y-71271008D01*
X176015658Y-71238021D01*
X176015660Y-71238020D01*
X176024317Y-71235660D01*
X176146491Y-71160645D01*
X176189009Y-71113672D01*
X176236678Y-71061007D01*
X176242700Y-71054354D01*
X176305210Y-70925333D01*
X176328996Y-70783954D01*
X176329147Y-70771600D01*
X176320973Y-70714524D01*
X176310096Y-70638568D01*
X176310095Y-70638565D01*
X176308823Y-70629682D01*
X176301959Y-70614584D01*
X176253200Y-70507346D01*
X176249484Y-70499172D01*
X176218692Y-70463436D01*
X176161760Y-70397363D01*
X176161757Y-70397360D01*
X176155900Y-70390563D01*
X176035595Y-70312585D01*
X175898239Y-70271507D01*
X175889263Y-70271452D01*
X175889262Y-70271452D01*
X175829055Y-70271084D01*
X175754876Y-70270631D01*
X175617029Y-70310028D01*
X175495780Y-70386530D01*
X175400877Y-70493988D01*
X175339947Y-70623763D01*
X175337642Y-70638568D01*
X175319455Y-70755379D01*
X175317891Y-70765423D01*
X175321521Y-70793180D01*
X175323972Y-70811923D01*
X175312970Y-70882062D01*
X175288130Y-70917354D01*
X173708695Y-72496789D01*
X173646383Y-72530815D01*
X173575568Y-72525750D01*
X173518732Y-72483203D01*
X173493921Y-72416683D01*
X173493600Y-72407694D01*
X173493600Y-69650198D01*
X173493682Y-69650000D01*
X173493365Y-69649235D01*
X173492798Y-69649000D01*
X173492600Y-69648918D01*
X173492402Y-69649000D01*
X170092798Y-69649000D01*
X170092600Y-69648918D01*
X170092402Y-69649000D01*
X170091835Y-69649235D01*
X170091518Y-69650000D01*
X170091600Y-69650198D01*
X170091600Y-72523900D01*
X170071598Y-72592021D01*
X170017942Y-72638514D01*
X169965600Y-72649900D01*
X167553821Y-72649900D01*
X167485700Y-72629898D01*
X167439207Y-72576242D01*
X167429094Y-72541763D01*
X167423695Y-72504067D01*
X167422423Y-72495182D01*
X167363084Y-72364672D01*
X167304523Y-72296709D01*
X167275360Y-72262863D01*
X167275357Y-72262860D01*
X167269500Y-72256063D01*
X167149195Y-72178085D01*
X167011839Y-72137007D01*
X167002863Y-72136952D01*
X167002862Y-72136952D01*
X166942655Y-72136584D01*
X166868476Y-72136131D01*
X166730629Y-72175528D01*
X166609380Y-72252030D01*
X166575515Y-72290375D01*
X166515431Y-72328193D01*
X166444438Y-72327524D01*
X166391979Y-72296063D01*
X166025160Y-71929244D01*
X165991134Y-71866932D01*
X165996199Y-71796117D01*
X166038746Y-71739281D01*
X166048326Y-71732774D01*
X166127042Y-71684442D01*
X166127044Y-71684440D01*
X166134691Y-71679745D01*
X166230900Y-71573454D01*
X166293410Y-71444433D01*
X166317196Y-71303054D01*
X166317347Y-71290700D01*
X166308674Y-71230136D01*
X166298296Y-71157668D01*
X166298295Y-71157665D01*
X166297023Y-71148782D01*
X166237684Y-71018272D01*
X166212868Y-70989472D01*
X166149960Y-70916463D01*
X166149957Y-70916460D01*
X166144100Y-70909663D01*
X166023795Y-70831685D01*
X165886439Y-70790607D01*
X165877463Y-70790552D01*
X165877462Y-70790552D01*
X165751822Y-70789784D01*
X165683825Y-70769366D01*
X165663497Y-70752881D01*
X159067505Y-64156889D01*
X159033479Y-64094577D01*
X159030600Y-64067794D01*
X159030600Y-62927800D01*
X159050602Y-62859679D01*
X159104258Y-62813186D01*
X159156600Y-62801800D01*
X159424848Y-62801800D01*
X159451840Y-62796431D01*
X159522554Y-62802759D01*
X159578621Y-62846314D01*
X159602240Y-62913266D01*
X159602278Y-62924973D01*
X159600149Y-62934861D01*
X159601373Y-62945201D01*
X159603727Y-62965091D01*
X159604037Y-62970346D01*
X159604172Y-62970335D01*
X159604600Y-62975514D01*
X159604600Y-62980715D01*
X159605454Y-62985843D01*
X159605454Y-62985849D01*
X159607489Y-62998073D01*
X159608326Y-63003949D01*
X159613864Y-63050738D01*
X159617523Y-63058358D01*
X159618912Y-63066703D01*
X159641292Y-63108180D01*
X159643984Y-63113465D01*
X159664374Y-63155926D01*
X159667692Y-63159874D01*
X159669625Y-63161807D01*
X159671090Y-63163404D01*
X159671354Y-63163894D01*
X159671334Y-63163913D01*
X159671413Y-63164002D01*
X159674322Y-63169394D01*
X159681970Y-63176464D01*
X159681971Y-63176465D01*
X159710736Y-63203055D01*
X159714302Y-63206484D01*
X165901817Y-69393999D01*
X165913895Y-69408953D01*
X165917127Y-69412505D01*
X165922775Y-69421252D01*
X165930952Y-69427698D01*
X165946686Y-69440102D01*
X165950622Y-69443600D01*
X165950710Y-69443496D01*
X165954669Y-69446851D01*
X165958347Y-69450529D01*
X165962572Y-69453548D01*
X165962580Y-69453555D01*
X165972676Y-69460769D01*
X165977426Y-69464336D01*
X166006231Y-69487044D01*
X166006234Y-69487045D01*
X166014411Y-69493492D01*
X166022389Y-69496294D01*
X166029270Y-69501211D01*
X166074443Y-69514721D01*
X166080040Y-69516540D01*
X166124506Y-69532155D01*
X166129644Y-69532600D01*
X166132349Y-69532600D01*
X166134546Y-69532695D01*
X166135080Y-69532855D01*
X166135079Y-69532882D01*
X166135197Y-69532889D01*
X166141064Y-69534644D01*
X166190619Y-69532697D01*
X166195566Y-69532600D01*
X166730097Y-69532600D01*
X166798218Y-69552602D01*
X166830060Y-69581896D01*
X166851918Y-69610382D01*
X166858464Y-69615405D01*
X166860895Y-69617270D01*
X166977359Y-69706636D01*
X167123438Y-69767144D01*
X167280200Y-69787782D01*
X167288388Y-69786704D01*
X167428774Y-69768222D01*
X167436962Y-69767144D01*
X167583041Y-69706636D01*
X167699505Y-69617270D01*
X167701936Y-69615405D01*
X167708482Y-69610382D01*
X167732133Y-69579560D01*
X167767950Y-69532882D01*
X167804736Y-69484941D01*
X167865244Y-69338862D01*
X167885882Y-69182100D01*
X167865244Y-69025338D01*
X167804736Y-68879259D01*
X167708482Y-68753818D01*
X167583041Y-68657564D01*
X167436962Y-68597056D01*
X167280200Y-68576418D01*
X167123438Y-68597056D01*
X166977359Y-68657564D01*
X166851918Y-68753818D01*
X166846895Y-68760364D01*
X166830060Y-68782304D01*
X166772722Y-68824171D01*
X166730097Y-68831600D01*
X166382972Y-68831600D01*
X166314851Y-68811598D01*
X166293877Y-68794695D01*
X163644210Y-66145028D01*
X191538025Y-66145028D01*
X191575347Y-66388930D01*
X191652003Y-66623460D01*
X191765935Y-66842321D01*
X191914083Y-67039636D01*
X192092468Y-67210104D01*
X192096740Y-67213018D01*
X192096741Y-67213019D01*
X192125893Y-67232905D01*
X192296300Y-67349149D01*
X192408202Y-67401092D01*
X192515409Y-67450856D01*
X192515413Y-67450857D01*
X192520104Y-67453035D01*
X192757871Y-67518974D01*
X192763008Y-67519523D01*
X192955957Y-67540144D01*
X192955965Y-67540144D01*
X192959292Y-67540500D01*
X193102554Y-67540500D01*
X193105127Y-67540288D01*
X193105138Y-67540288D01*
X193280760Y-67525849D01*
X193280766Y-67525848D01*
X193285911Y-67525425D01*
X193525217Y-67465316D01*
X193751493Y-67366928D01*
X193958661Y-67232905D01*
X193980516Y-67213019D01*
X194016536Y-67180243D01*
X194141158Y-67066846D01*
X194144357Y-67062795D01*
X194144361Y-67062791D01*
X194290881Y-66877264D01*
X194290884Y-66877259D01*
X194294082Y-66873210D01*
X194296577Y-66868691D01*
X194410830Y-66661722D01*
X194410832Y-66661718D01*
X194413327Y-66657198D01*
X194425275Y-66623460D01*
X194493965Y-66429485D01*
X194493966Y-66429481D01*
X194495691Y-66424610D01*
X194538961Y-66181694D01*
X194541975Y-65934972D01*
X194504653Y-65691070D01*
X194427997Y-65456540D01*
X194314065Y-65237679D01*
X194165917Y-65040364D01*
X193987532Y-64869896D01*
X193959212Y-64850577D01*
X193813827Y-64751402D01*
X193783700Y-64730851D01*
X193671798Y-64678908D01*
X193564591Y-64629144D01*
X193564587Y-64629143D01*
X193559896Y-64626965D01*
X193322129Y-64561026D01*
X193316992Y-64560477D01*
X193124043Y-64539856D01*
X193124035Y-64539856D01*
X193120708Y-64539500D01*
X192977446Y-64539500D01*
X192974873Y-64539712D01*
X192974862Y-64539712D01*
X192799240Y-64554151D01*
X192799234Y-64554152D01*
X192794089Y-64554575D01*
X192554783Y-64614684D01*
X192328507Y-64713072D01*
X192121339Y-64847095D01*
X192117514Y-64850575D01*
X192117512Y-64850577D01*
X192096281Y-64869896D01*
X191938842Y-65013154D01*
X191935643Y-65017205D01*
X191935639Y-65017209D01*
X191789119Y-65202736D01*
X191789116Y-65202741D01*
X191785918Y-65206790D01*
X191783425Y-65211306D01*
X191783423Y-65211309D01*
X191771150Y-65233543D01*
X191666673Y-65422802D01*
X191664949Y-65427671D01*
X191664947Y-65427675D01*
X191652984Y-65461458D01*
X191584309Y-65655390D01*
X191541039Y-65898306D01*
X191538025Y-66145028D01*
X163644210Y-66145028D01*
X160823576Y-63324394D01*
X160789550Y-63262082D01*
X160794615Y-63191267D01*
X160837162Y-63134431D01*
X160903682Y-63109620D01*
X160912671Y-63109299D01*
X161074769Y-63109299D01*
X161081590Y-63108929D01*
X161132452Y-63103405D01*
X161147704Y-63099779D01*
X161268154Y-63054624D01*
X161283749Y-63046086D01*
X161385824Y-62969585D01*
X161398385Y-62957024D01*
X161474886Y-62854949D01*
X161483424Y-62839354D01*
X161528578Y-62718906D01*
X161532205Y-62703651D01*
X161537731Y-62652786D01*
X161538100Y-62645972D01*
X161538100Y-61648415D01*
X161533625Y-61633176D01*
X161532235Y-61631971D01*
X161524552Y-61630300D01*
X160602100Y-61630300D01*
X160533979Y-61610298D01*
X160487486Y-61556642D01*
X160476100Y-61504300D01*
X160476100Y-61248300D01*
X160496102Y-61180179D01*
X160549758Y-61133686D01*
X160602100Y-61122300D01*
X161552985Y-61122300D01*
X161568224Y-61117825D01*
X161569429Y-61116435D01*
X161571100Y-61108752D01*
X161571100Y-60233415D01*
X161566625Y-60218176D01*
X161565235Y-60216971D01*
X161557552Y-60215300D01*
X160903100Y-60215300D01*
X160834979Y-60195298D01*
X160788486Y-60141642D01*
X160777100Y-60089300D01*
X160777100Y-59920868D01*
X160797102Y-59852747D01*
X160805806Y-59841947D01*
X160805551Y-59841751D01*
X160870893Y-59756596D01*
X160928231Y-59714729D01*
X160970855Y-59707300D01*
X161552985Y-59707300D01*
X161568224Y-59702825D01*
X161569429Y-59701435D01*
X161571100Y-59693752D01*
X161571100Y-58453376D01*
X161567127Y-58439845D01*
X161559332Y-58438725D01*
X161451579Y-58470438D01*
X161440211Y-58475031D01*
X161275946Y-58560907D01*
X161265685Y-58567621D01*
X161121227Y-58683768D01*
X161112468Y-58692346D01*
X160993322Y-58834339D01*
X160986398Y-58844452D01*
X160935235Y-58937516D01*
X160884889Y-58987575D01*
X160815472Y-59002468D01*
X160748118Y-58976779D01*
X160685333Y-58928602D01*
X160545336Y-58870613D01*
X160432820Y-58855800D01*
X160357380Y-58855800D01*
X160244864Y-58870613D01*
X160104867Y-58928602D01*
X160098317Y-58933628D01*
X160098314Y-58933630D01*
X160079983Y-58947696D01*
X159994162Y-59013549D01*
X159927943Y-59039150D01*
X159858394Y-59024886D01*
X159828364Y-59002682D01*
X159033783Y-58208101D01*
X159021705Y-58193147D01*
X159018473Y-58189595D01*
X159012825Y-58180848D01*
X158988914Y-58161998D01*
X158984979Y-58158501D01*
X158984891Y-58158605D01*
X158980932Y-58155250D01*
X158977254Y-58151572D01*
X158973029Y-58148553D01*
X158973021Y-58148546D01*
X158962920Y-58141328D01*
X158958173Y-58137764D01*
X158943052Y-58125844D01*
X158921189Y-58108608D01*
X158913213Y-58105807D01*
X158906331Y-58100889D01*
X158861164Y-58087381D01*
X158855558Y-58085559D01*
X158818577Y-58072572D01*
X158818571Y-58072571D01*
X158811094Y-58069945D01*
X158805956Y-58069500D01*
X158803237Y-58069500D01*
X158801055Y-58069405D01*
X158800520Y-58069245D01*
X158800521Y-58069218D01*
X158800403Y-58069211D01*
X158794536Y-58067456D01*
X158744981Y-58069403D01*
X158740034Y-58069500D01*
X158030103Y-58069500D01*
X157961982Y-58049498D01*
X157930140Y-58020204D01*
X157913305Y-57998264D01*
X157908282Y-57991718D01*
X157782841Y-57895464D01*
X157636762Y-57834956D01*
X157480000Y-57814318D01*
X157323238Y-57834956D01*
X157177159Y-57895464D01*
X157051718Y-57991718D01*
X157046695Y-57998264D01*
X157029860Y-58020204D01*
X156972522Y-58062071D01*
X156929897Y-58069500D01*
X156815826Y-58069500D01*
X156796727Y-58067467D01*
X156791923Y-58067240D01*
X156781740Y-58065048D01*
X156771398Y-58066272D01*
X156771395Y-58066272D01*
X156751512Y-58068626D01*
X156746253Y-58068936D01*
X156746264Y-58069072D01*
X156741087Y-58069500D01*
X156735885Y-58069500D01*
X156718521Y-58072390D01*
X156712651Y-58073226D01*
X156676201Y-58077540D01*
X156676199Y-58077540D01*
X156665862Y-58078764D01*
X156658242Y-58082423D01*
X156649897Y-58083812D01*
X156608420Y-58106192D01*
X156603135Y-58108884D01*
X156560674Y-58129274D01*
X156556726Y-58132592D01*
X156554793Y-58134525D01*
X156553196Y-58135990D01*
X156552706Y-58136254D01*
X156552687Y-58136234D01*
X156552598Y-58136313D01*
X156547206Y-58139222D01*
X156540136Y-58146870D01*
X156540135Y-58146871D01*
X156513545Y-58175636D01*
X156510116Y-58179202D01*
X155377216Y-59312102D01*
X155314904Y-59346128D01*
X155244089Y-59341063D01*
X155187253Y-59298516D01*
X155171712Y-59271226D01*
X155167547Y-59261171D01*
X155117798Y-59141067D01*
X155025551Y-59020849D01*
X154905333Y-58928602D01*
X154765336Y-58870613D01*
X154652820Y-58855800D01*
X154577380Y-58855800D01*
X154464864Y-58870613D01*
X154324867Y-58928602D01*
X154262083Y-58976778D01*
X154262022Y-58976825D01*
X154195802Y-59002426D01*
X154126253Y-58988161D01*
X154074066Y-58936016D01*
X154031640Y-58856223D01*
X154024851Y-58846006D01*
X153907703Y-58702367D01*
X153899059Y-58693663D01*
X153756244Y-58575516D01*
X153746073Y-58568656D01*
X153583024Y-58480496D01*
X153571719Y-58475744D01*
X153456408Y-58440050D01*
X153442305Y-58439844D01*
X153439100Y-58446599D01*
X153439100Y-59689185D01*
X153443575Y-59704424D01*
X153444965Y-59705629D01*
X153452648Y-59707300D01*
X154039345Y-59707300D01*
X154107466Y-59727302D01*
X154139307Y-59756596D01*
X154204649Y-59841751D01*
X154202531Y-59843376D01*
X154230221Y-59894085D01*
X154233100Y-59920868D01*
X154233100Y-60089300D01*
X154213098Y-60157421D01*
X154159442Y-60203914D01*
X154107100Y-60215300D01*
X153457215Y-60215300D01*
X153441976Y-60219775D01*
X153440771Y-60221165D01*
X153439100Y-60228848D01*
X153439100Y-61104185D01*
X153443575Y-61119424D01*
X153444965Y-61120629D01*
X153452648Y-61122300D01*
X154408100Y-61122300D01*
X154476221Y-61142302D01*
X154522714Y-61195958D01*
X154534100Y-61248300D01*
X154534100Y-61504300D01*
X154514098Y-61572421D01*
X154460442Y-61618914D01*
X154408100Y-61630300D01*
X153490216Y-61630300D01*
X153474977Y-61634775D01*
X153473772Y-61636165D01*
X153472101Y-61643848D01*
X153472101Y-62475100D01*
X153452099Y-62543221D01*
X153398443Y-62589714D01*
X153346101Y-62601100D01*
X137704943Y-62601100D01*
X137680361Y-62598679D01*
X137677571Y-62598124D01*
X137665400Y-62595703D01*
X137557905Y-62617085D01*
X137489778Y-62662606D01*
X137489777Y-62662607D01*
X137466776Y-62677976D01*
X137459885Y-62688289D01*
X137458298Y-62690664D01*
X137442628Y-62709756D01*
X124683456Y-75468928D01*
X124664364Y-75484598D01*
X124651676Y-75493076D01*
X124590785Y-75584205D01*
X124590785Y-75584206D01*
X124569403Y-75691700D01*
X124571824Y-75703871D01*
X124572379Y-75706661D01*
X124574800Y-75731243D01*
X124574800Y-76167138D01*
X124554798Y-76235259D01*
X124530464Y-76263091D01*
X124530170Y-76263341D01*
X124522580Y-76268130D01*
X124427677Y-76375588D01*
X124389976Y-76455889D01*
X124389856Y-76456144D01*
X124342799Y-76509306D01*
X124274471Y-76528588D01*
X124206566Y-76507868D01*
X124186706Y-76491690D01*
X121051605Y-73356589D01*
X121017579Y-73294277D01*
X121014700Y-73267494D01*
X121014700Y-71871992D01*
X121034702Y-71803871D01*
X121057794Y-71777783D01*
X121062091Y-71775145D01*
X121158300Y-71668854D01*
X121193189Y-71596843D01*
X121216895Y-71547914D01*
X121216895Y-71547913D01*
X121220810Y-71539833D01*
X121244596Y-71398454D01*
X121244747Y-71386100D01*
X121228603Y-71273370D01*
X121225696Y-71253068D01*
X121225695Y-71253065D01*
X121224423Y-71244182D01*
X121165084Y-71113672D01*
X121113972Y-71054354D01*
X121077360Y-71011863D01*
X121077357Y-71011860D01*
X121071500Y-71005063D01*
X120951195Y-70927085D01*
X120813839Y-70886007D01*
X120804863Y-70885952D01*
X120804862Y-70885952D01*
X120744655Y-70885584D01*
X120670476Y-70885131D01*
X120532629Y-70924528D01*
X120411380Y-71001030D01*
X120405438Y-71007758D01*
X120405437Y-71007759D01*
X120371419Y-71046277D01*
X120316477Y-71108488D01*
X120255547Y-71238263D01*
X120233491Y-71379923D01*
X116841000Y-71379923D01*
X116841000Y-66145028D01*
X120418025Y-66145028D01*
X120455347Y-66388930D01*
X120532003Y-66623460D01*
X120645935Y-66842321D01*
X120794083Y-67039636D01*
X120972468Y-67210104D01*
X120976740Y-67213018D01*
X120976741Y-67213019D01*
X121005893Y-67232905D01*
X121176300Y-67349149D01*
X121288202Y-67401092D01*
X121395409Y-67450856D01*
X121395413Y-67450857D01*
X121400104Y-67453035D01*
X121637871Y-67518974D01*
X121643008Y-67519523D01*
X121835957Y-67540144D01*
X121835965Y-67540144D01*
X121839292Y-67540500D01*
X121982554Y-67540500D01*
X121985127Y-67540288D01*
X121985138Y-67540288D01*
X122160760Y-67525849D01*
X122160766Y-67525848D01*
X122165911Y-67525425D01*
X122405217Y-67465316D01*
X122631493Y-67366928D01*
X122838661Y-67232905D01*
X122860516Y-67213019D01*
X122896536Y-67180243D01*
X123021158Y-67066846D01*
X123024357Y-67062795D01*
X123024361Y-67062791D01*
X123170881Y-66877264D01*
X123170884Y-66877259D01*
X123174082Y-66873210D01*
X123176577Y-66868691D01*
X123290830Y-66661722D01*
X123290832Y-66661718D01*
X123293327Y-66657198D01*
X123305275Y-66623460D01*
X123373965Y-66429485D01*
X123373966Y-66429481D01*
X123375691Y-66424610D01*
X123418961Y-66181694D01*
X123421975Y-65934972D01*
X123384653Y-65691070D01*
X123307997Y-65456540D01*
X123194065Y-65237679D01*
X123045917Y-65040364D01*
X122867532Y-64869896D01*
X122839212Y-64850577D01*
X122693827Y-64751402D01*
X122663700Y-64730851D01*
X122551798Y-64678908D01*
X122444591Y-64629144D01*
X122444587Y-64629143D01*
X122439896Y-64626965D01*
X122202129Y-64561026D01*
X122196992Y-64560477D01*
X122004043Y-64539856D01*
X122004035Y-64539856D01*
X122000708Y-64539500D01*
X121857446Y-64539500D01*
X121854873Y-64539712D01*
X121854862Y-64539712D01*
X121679240Y-64554151D01*
X121679234Y-64554152D01*
X121674089Y-64554575D01*
X121434783Y-64614684D01*
X121208507Y-64713072D01*
X121001339Y-64847095D01*
X120997514Y-64850575D01*
X120997512Y-64850577D01*
X120976281Y-64869896D01*
X120818842Y-65013154D01*
X120815643Y-65017205D01*
X120815639Y-65017209D01*
X120669119Y-65202736D01*
X120669116Y-65202741D01*
X120665918Y-65206790D01*
X120663425Y-65211306D01*
X120663423Y-65211309D01*
X120651150Y-65233543D01*
X120546673Y-65422802D01*
X120544949Y-65427671D01*
X120544947Y-65427675D01*
X120532984Y-65461458D01*
X120464309Y-65655390D01*
X120421039Y-65898306D01*
X120418025Y-66145028D01*
X116841000Y-66145028D01*
X116841000Y-62234954D01*
X116841388Y-62225069D01*
X116849929Y-62116545D01*
X116849995Y-62115755D01*
X116856978Y-62035937D01*
X116859979Y-62017505D01*
X116884053Y-61917231D01*
X116884865Y-61914035D01*
X116907110Y-61831015D01*
X116912408Y-61815408D01*
X116951422Y-61721220D01*
X116953626Y-61716211D01*
X116990417Y-61637314D01*
X116997172Y-61624742D01*
X117050202Y-61538205D01*
X117054412Y-61531784D01*
X117104550Y-61460181D01*
X117111950Y-61450623D01*
X117177740Y-61373592D01*
X117184457Y-61366327D01*
X117246327Y-61304457D01*
X117253592Y-61297740D01*
X117330623Y-61231950D01*
X117340181Y-61224550D01*
X117381014Y-61195958D01*
X117411794Y-61174405D01*
X117418205Y-61170202D01*
X117504747Y-61117169D01*
X117517314Y-61110417D01*
X117596211Y-61073626D01*
X117601220Y-61071422D01*
X117695408Y-61032408D01*
X117711015Y-61027110D01*
X117794035Y-61004865D01*
X117797231Y-61004053D01*
X117804511Y-61002305D01*
X117897509Y-60979978D01*
X117915937Y-60976978D01*
X117995755Y-60969995D01*
X117996545Y-60969929D01*
X118105069Y-60961388D01*
X118114954Y-60961000D01*
X151119845Y-60961000D01*
X151130000Y-60961891D01*
X151130000Y-60964930D01*
X151329443Y-60949233D01*
X151334250Y-60948079D01*
X151334256Y-60948078D01*
X151455992Y-60918851D01*
X151523975Y-60902530D01*
X151537589Y-60896891D01*
X151704232Y-60827866D01*
X151704236Y-60827864D01*
X151708806Y-60825971D01*
X151879385Y-60721440D01*
X151883145Y-60718228D01*
X151883150Y-60718225D01*
X151985525Y-60630788D01*
X152050314Y-60601757D01*
X152120514Y-60612362D01*
X152173837Y-60659237D01*
X152190955Y-60702121D01*
X152193296Y-60713941D01*
X152246867Y-60891376D01*
X152251541Y-60902716D01*
X152338560Y-61066377D01*
X152345349Y-61076594D01*
X152462497Y-61220233D01*
X152471141Y-61228937D01*
X152613956Y-61347084D01*
X152624127Y-61353944D01*
X152787176Y-61442104D01*
X152798481Y-61446856D01*
X152913792Y-61482550D01*
X152927895Y-61482756D01*
X152931100Y-61476001D01*
X152931100Y-58453376D01*
X152927127Y-58439845D01*
X152919332Y-58438725D01*
X152811579Y-58470438D01*
X152800211Y-58475031D01*
X152635946Y-58560907D01*
X152625679Y-58567625D01*
X152605952Y-58583486D01*
X152540330Y-58610583D01*
X152470476Y-58597900D01*
X152418567Y-58549464D01*
X152401000Y-58485290D01*
X152401000Y-57008675D01*
X152421002Y-56940554D01*
X152474658Y-56894061D01*
X152544932Y-56883957D01*
X152607313Y-56911588D01*
X152613957Y-56917084D01*
X152624127Y-56923944D01*
X152787176Y-57012104D01*
X152798481Y-57016856D01*
X152913792Y-57052550D01*
X152927895Y-57052756D01*
X152931100Y-57046001D01*
X152931100Y-57039224D01*
X153439100Y-57039224D01*
X153443073Y-57052755D01*
X153450868Y-57053875D01*
X153558621Y-57022162D01*
X153569989Y-57017569D01*
X153734254Y-56931693D01*
X153744515Y-56924979D01*
X153888973Y-56808832D01*
X153897732Y-56800254D01*
X154016878Y-56658261D01*
X154023808Y-56648141D01*
X154113102Y-56485715D01*
X154117934Y-56474442D01*
X154173980Y-56297762D01*
X154176530Y-56285768D01*
X154192707Y-56141539D01*
X154193100Y-56134515D01*
X154193100Y-56127957D01*
X160817100Y-56127957D01*
X160817401Y-56134105D01*
X160830912Y-56271903D01*
X160833295Y-56283938D01*
X160886867Y-56461376D01*
X160891541Y-56472716D01*
X160978560Y-56636377D01*
X160985349Y-56646594D01*
X161102497Y-56790233D01*
X161111141Y-56798937D01*
X161253956Y-56917084D01*
X161264127Y-56923944D01*
X161427176Y-57012104D01*
X161438481Y-57016856D01*
X161553792Y-57052550D01*
X161567895Y-57052756D01*
X161571100Y-57046001D01*
X161571100Y-56053415D01*
X161566625Y-56038176D01*
X161565235Y-56036971D01*
X161557552Y-56035300D01*
X160835215Y-56035300D01*
X160819976Y-56039775D01*
X160818771Y-56041165D01*
X160817100Y-56048848D01*
X160817100Y-56127957D01*
X154193100Y-56127957D01*
X154193100Y-56053415D01*
X154188625Y-56038176D01*
X154187235Y-56036971D01*
X154179552Y-56035300D01*
X153457215Y-56035300D01*
X153441976Y-56039775D01*
X153440771Y-56041165D01*
X153439100Y-56048848D01*
X153439100Y-57039224D01*
X152931100Y-57039224D01*
X152931100Y-55653300D01*
X152951102Y-55585179D01*
X153004758Y-55538686D01*
X153057100Y-55527300D01*
X154174985Y-55527300D01*
X154190224Y-55522825D01*
X154191429Y-55521435D01*
X154193100Y-55513752D01*
X154193100Y-55434643D01*
X154192799Y-55428495D01*
X154179288Y-55290697D01*
X154176905Y-55278662D01*
X154123333Y-55101224D01*
X154118659Y-55089884D01*
X154031640Y-54926223D01*
X154024852Y-54916006D01*
X153943807Y-54816636D01*
X153916253Y-54751204D01*
X153928448Y-54681263D01*
X153976521Y-54629018D01*
X154041450Y-54611000D01*
X160969254Y-54611000D01*
X161037375Y-54631002D01*
G37*
%TD.AperFunction*%
%TD*%
M02*
