%TF.GenerationSoftware,KiCad,Pcbnew,(6.0.5)*%
%TF.CreationDate,2022-05-29T01:25:08+07:00*%
%TF.ProjectId,atelier-alter,6174656c-6965-4722-9d61-6c7465722e6b,rev?*%
%TF.SameCoordinates,Original*%
%TF.FileFunction,Profile,NP*%
%FSLAX46Y46*%
G04 Gerber Fmt 4.6, Leading zero omitted, Abs format (unit mm)*
G04 Created by KiCad (PCBNEW (6.0.5)) date 2022-05-29 01:25:08*
%MOMM*%
%LPD*%
G01*
G04 APERTURE LIST*
%TA.AperFunction,Profile*%
%ADD10C,0.100000*%
%TD*%
%TA.AperFunction,Profile*%
%ADD11C,0.010000*%
%TD*%
G04 APERTURE END LIST*
D10*
X163855100Y-60960000D02*
X196850000Y-60960000D01*
X152400000Y-54610000D02*
X162560000Y-54610000D01*
X198120000Y-62230000D02*
X198120000Y-133350050D01*
X196850000Y-134620000D02*
G75*
G03*
X198120000Y-133350050I0J1270000D01*
G01*
X118110000Y-134620000D02*
X196850000Y-134620000D01*
X118110000Y-60960000D02*
X151130000Y-60960000D01*
X198120000Y-62230000D02*
G75*
G03*
X196850000Y-60960000I-1270000J0D01*
G01*
X152400000Y-54610000D02*
X152400000Y-59690000D01*
X162559752Y-59690000D02*
G75*
G03*
X163855100Y-60960000I1270248J0D01*
G01*
X116840000Y-133350000D02*
G75*
G03*
X118110000Y-134620000I1270000J0D01*
G01*
X116840000Y-133350000D02*
X116840000Y-62230000D01*
X118110000Y-60960000D02*
G75*
G03*
X116840000Y-62230000I0J-1270000D01*
G01*
X162560000Y-54610000D02*
X162560000Y-59690000D01*
X151130000Y-60960000D02*
G75*
G03*
X152400000Y-59690000I0J1270000D01*
G01*
%TO.C,MX6*%
D11*
X183017600Y-91637500D02*
X179617600Y-91637500D01*
X179617600Y-88637500D01*
X183017600Y-88637500D01*
X183017600Y-91637500D01*
%TO.C,MX5*%
X163967600Y-91700000D02*
X160567600Y-91700000D01*
X160567600Y-88700000D01*
X163967600Y-88700000D01*
X163967600Y-91700000D01*
%TO.C,MX4*%
X144917600Y-91700000D02*
X141517600Y-91700000D01*
X141517600Y-88700000D01*
X144917600Y-88700000D01*
X144917600Y-91700000D01*
%TO.C,MX3*%
X173492600Y-72650000D02*
X170092600Y-72650000D01*
X170092600Y-69650000D01*
X173492600Y-69650000D01*
X173492600Y-72650000D01*
%TO.C,MX1*%
X135392600Y-72587500D02*
X131992600Y-72587500D01*
X131992600Y-69587500D01*
X135392600Y-69587500D01*
X135392600Y-72587500D01*
%TO.C,MX2*%
X154442600Y-72650000D02*
X151042600Y-72650000D01*
X151042600Y-69650000D01*
X154442600Y-69650000D01*
X154442600Y-72650000D01*
%TD*%
M02*
