%TF.GenerationSoftware,KiCad,Pcbnew,(6.0.5)*%
%TF.CreationDate,2022-06-05T05:51:04+07:00*%
%TF.ProjectId,atelier-alter,6174656c-6965-4722-9d61-6c7465722e6b,rev?*%
%TF.SameCoordinates,Original*%
%TF.FileFunction,Profile,NP*%
%FSLAX46Y46*%
G04 Gerber Fmt 4.6, Leading zero omitted, Abs format (unit mm)*
G04 Created by KiCad (PCBNEW (6.0.5)) date 2022-06-05 05:51:04*
%MOMM*%
%LPD*%
G01*
G04 APERTURE LIST*
%TA.AperFunction,Profile*%
%ADD10C,0.100000*%
%TD*%
%TA.AperFunction,Profile*%
%ADD11C,0.010000*%
%TD*%
G04 APERTURE END LIST*
D10*
X151130000Y-60960000D02*
X196850000Y-60960000D01*
X198120000Y-62230000D02*
X198120000Y-133350050D01*
X196850000Y-134620000D02*
G75*
G03*
X198120000Y-133350050I0J1270000D01*
G01*
X118110000Y-134620000D02*
X196850000Y-134620000D01*
X118110000Y-60960000D02*
X151130000Y-60960000D01*
X198120000Y-62230000D02*
G75*
G03*
X196850000Y-60960000I-1270000J0D01*
G01*
X116840000Y-133350000D02*
G75*
G03*
X118110000Y-134620000I1270000J0D01*
G01*
X116840000Y-133350000D02*
X116840000Y-62230000D01*
X118110000Y-60960000D02*
G75*
G03*
X116840000Y-62230000I0J-1270000D01*
G01*
%TO.C,MX6*%
D11*
X183310000Y-96780000D02*
X179910000Y-96780000D01*
X179910000Y-93780000D01*
X183310000Y-93780000D01*
X183310000Y-96780000D01*
%TO.C,MX5*%
X164260000Y-96780000D02*
X160860000Y-96780000D01*
X160860000Y-93780000D01*
X164260000Y-93780000D01*
X164260000Y-96780000D01*
%TO.C,MX4*%
X145210000Y-96780000D02*
X141810000Y-96780000D01*
X141810000Y-93780000D01*
X145210000Y-93780000D01*
X145210000Y-96780000D01*
%TO.C,MX3*%
X173785000Y-77095000D02*
X170385000Y-77095000D01*
X170385000Y-74095000D01*
X173785000Y-74095000D01*
X173785000Y-77095000D01*
%TO.C,MX1*%
X135685000Y-77095000D02*
X132285000Y-77095000D01*
X132285000Y-74095000D01*
X135685000Y-74095000D01*
X135685000Y-77095000D01*
%TO.C,MX2*%
X154735000Y-77095000D02*
X151335000Y-77095000D01*
X151335000Y-74095000D01*
X154735000Y-74095000D01*
X154735000Y-77095000D01*
%TD*%
M02*
