%TF.GenerationSoftware,KiCad,Pcbnew,(6.0.5)*%
%TF.CreationDate,2022-05-27T23:08:30+07:00*%
%TF.ProjectId,atelier-alter,6174656c-6965-4722-9d61-6c7465722e6b,rev?*%
%TF.SameCoordinates,Original*%
%TF.FileFunction,Soldermask,Bot*%
%TF.FilePolarity,Negative*%
%FSLAX46Y46*%
G04 Gerber Fmt 4.6, Leading zero omitted, Abs format (unit mm)*
G04 Created by KiCad (PCBNEW (6.0.5)) date 2022-05-27 23:08:30*
%MOMM*%
%LPD*%
G01*
G04 APERTURE LIST*
G04 Aperture macros list*
%AMRoundRect*
0 Rectangle with rounded corners*
0 $1 Rounding radius*
0 $2 $3 $4 $5 $6 $7 $8 $9 X,Y pos of 4 corners*
0 Add a 4 corners polygon primitive as box body*
4,1,4,$2,$3,$4,$5,$6,$7,$8,$9,$2,$3,0*
0 Add four circle primitives for the rounded corners*
1,1,$1+$1,$2,$3*
1,1,$1+$1,$4,$5*
1,1,$1+$1,$6,$7*
1,1,$1+$1,$8,$9*
0 Add four rect primitives between the rounded corners*
20,1,$1+$1,$2,$3,$4,$5,0*
20,1,$1+$1,$4,$5,$6,$7,0*
20,1,$1+$1,$6,$7,$8,$9,0*
20,1,$1+$1,$8,$9,$2,$3,0*%
G04 Aperture macros list end*
%ADD10C,1.700000*%
%ADD11C,4.000000*%
%ADD12C,3.000000*%
%ADD13R,1.800000X0.900000*%
%ADD14R,2.550000X2.500000*%
%ADD15C,2.000000*%
%ADD16C,0.650000*%
%ADD17O,1.000000X2.100000*%
%ADD18O,1.000000X1.600000*%
%ADD19R,1.500000X1.000000*%
%ADD20R,1.500000X0.550000*%
%ADD21R,0.550000X1.500000*%
%ADD22RoundRect,0.250000X-0.475000X0.250000X-0.475000X-0.250000X0.475000X-0.250000X0.475000X0.250000X0*%
%ADD23RoundRect,0.250000X0.250000X0.475000X-0.250000X0.475000X-0.250000X-0.475000X0.250000X-0.475000X0*%
%ADD24RoundRect,0.250000X0.475000X-0.250000X0.475000X0.250000X-0.475000X0.250000X-0.475000X-0.250000X0*%
%ADD25RoundRect,0.250000X-0.250000X-0.475000X0.250000X-0.475000X0.250000X0.475000X-0.250000X0.475000X0*%
%ADD26RoundRect,0.250000X0.262500X0.450000X-0.262500X0.450000X-0.262500X-0.450000X0.262500X-0.450000X0*%
%ADD27RoundRect,0.250000X0.375000X0.625000X-0.375000X0.625000X-0.375000X-0.625000X0.375000X-0.625000X0*%
%ADD28R,1.200000X0.900000*%
%ADD29RoundRect,0.250000X0.450000X-0.262500X0.450000X0.262500X-0.450000X0.262500X-0.450000X-0.262500X0*%
%ADD30R,2.100000X1.800000*%
%ADD31R,1.800000X1.100000*%
%ADD32RoundRect,0.250000X-0.450000X0.262500X-0.450000X-0.262500X0.450000X-0.262500X0.450000X0.262500X0*%
%ADD33R,1.700000X1.000000*%
%ADD34R,1.700000X0.600000*%
G04 APERTURE END LIST*
D10*
%TO.C,MX6*%
X169545000Y-92806200D03*
X179705000Y-92806200D03*
D11*
X174625000Y-92806200D03*
D12*
X172085000Y-97886200D03*
X178435000Y-95346200D03*
D13*
X177225000Y-88506200D03*
X177225000Y-87006200D03*
X172025000Y-88506200D03*
X172025000Y-87006200D03*
D14*
X182035000Y-95346200D03*
X168610000Y-97886200D03*
%TD*%
D15*
%TO.C,SW2*%
X115812600Y-94587500D03*
X122312600Y-94587500D03*
X115812600Y-99087500D03*
X122312600Y-99087500D03*
%TD*%
D10*
%TO.C,MX5*%
X150495000Y-92868700D03*
D12*
X153035000Y-97948700D03*
D11*
X155575000Y-92868700D03*
D10*
X160655000Y-92868700D03*
D12*
X159385000Y-95408700D03*
D13*
X158175000Y-88568700D03*
X158175000Y-87068700D03*
X152975000Y-88568700D03*
X152975000Y-87068700D03*
D14*
X162985000Y-95408700D03*
X149560000Y-97948700D03*
%TD*%
D10*
%TO.C,MX4*%
X131445000Y-92868700D03*
D12*
X140335000Y-95408700D03*
D10*
X141605000Y-92868700D03*
D11*
X136525000Y-92868700D03*
D12*
X133985000Y-97948700D03*
D13*
X139125000Y-88568700D03*
X139125000Y-87068700D03*
X133925000Y-88568700D03*
X133925000Y-87068700D03*
D14*
X143935000Y-95408700D03*
X130510000Y-97948700D03*
%TD*%
D15*
%TO.C,SW3*%
X115812500Y-103318700D03*
X122312500Y-103318700D03*
X115812500Y-107818700D03*
X122312500Y-107818700D03*
%TD*%
%TO.C,SW1*%
X115812500Y-85856200D03*
X122312500Y-85856200D03*
X115812500Y-90356200D03*
X122312500Y-90356200D03*
%TD*%
D10*
%TO.C,MX3*%
X160020000Y-73818700D03*
D12*
X162560000Y-78898700D03*
X168910000Y-76358700D03*
D10*
X170180000Y-73818700D03*
D11*
X165100000Y-73818700D03*
D13*
X167700000Y-69518700D03*
X167700000Y-68018700D03*
X162500000Y-69518700D03*
X162500000Y-68018700D03*
D14*
X172510000Y-76358700D03*
X159085000Y-78898700D03*
%TD*%
D10*
%TO.C,MX1*%
X132080000Y-73756200D03*
X121920000Y-73756200D03*
D12*
X130810000Y-76296200D03*
X124460000Y-78836200D03*
D11*
X127000000Y-73756200D03*
D13*
X129600000Y-69456200D03*
X129600000Y-67956200D03*
X124400000Y-69456200D03*
X124400000Y-67956200D03*
D14*
X134410000Y-76296200D03*
X120985000Y-78836200D03*
%TD*%
D16*
%TO.C,USB1*%
X153702500Y-57050000D03*
X147922500Y-57050000D03*
D17*
X155132500Y-57580000D03*
D18*
X146492500Y-53400000D03*
D17*
X146492500Y-57580000D03*
D18*
X155132500Y-53400000D03*
%TD*%
D10*
%TO.C,MX2*%
X151130000Y-73818700D03*
D12*
X149860000Y-76358700D03*
D10*
X140970000Y-73818700D03*
D11*
X146050000Y-73818700D03*
D12*
X143510000Y-78898700D03*
D13*
X148650000Y-69518700D03*
X148650000Y-68018700D03*
X143450000Y-69518700D03*
X143450000Y-68018700D03*
D14*
X153460000Y-76358700D03*
X140035000Y-78898700D03*
%TD*%
D19*
%TO.C,D5*%
X185806300Y-124606200D03*
X185806300Y-127806200D03*
X180906300Y-127806200D03*
X180906300Y-124606200D03*
%TD*%
D20*
%TO.C,U1*%
X162068800Y-108712500D03*
X162068800Y-109512500D03*
X162068800Y-110312500D03*
X162068800Y-111112500D03*
X162068800Y-111912500D03*
X162068800Y-112712500D03*
X162068800Y-113512500D03*
X162068800Y-114312500D03*
X162068800Y-115112500D03*
X162068800Y-115912500D03*
X162068800Y-116712500D03*
D21*
X160368800Y-118412500D03*
X159568800Y-118412500D03*
X158768800Y-118412500D03*
X157968800Y-118412500D03*
X157168800Y-118412500D03*
X156368800Y-118412500D03*
X155568800Y-118412500D03*
X154768800Y-118412500D03*
X153968800Y-118412500D03*
X153168800Y-118412500D03*
X152368800Y-118412500D03*
D20*
X150668800Y-116712500D03*
X150668800Y-115912500D03*
X150668800Y-115112500D03*
X150668800Y-114312500D03*
X150668800Y-113512500D03*
X150668800Y-112712500D03*
X150668800Y-111912500D03*
X150668800Y-111112500D03*
X150668800Y-110312500D03*
X150668800Y-109512500D03*
X150668800Y-108712500D03*
D21*
X152368800Y-107012500D03*
X153168800Y-107012500D03*
X153968800Y-107012500D03*
X154768800Y-107012500D03*
X155568800Y-107012500D03*
X156368800Y-107012500D03*
X157168800Y-107012500D03*
X157968800Y-107012500D03*
X158768800Y-107012500D03*
X159568800Y-107012500D03*
X160368800Y-107012500D03*
%TD*%
D22*
%TO.C,C7*%
X173037500Y-116525000D03*
X173037500Y-118425000D03*
%TD*%
D23*
%TO.C,C14*%
X185100000Y-69056200D03*
X183200000Y-69056200D03*
%TD*%
D24*
%TO.C,R4*%
X115887500Y-75406200D03*
X115887500Y-73506200D03*
%TD*%
D25*
%TO.C,C17*%
X115575000Y-69056200D03*
X117475000Y-69056200D03*
%TD*%
D26*
%TO.C,R7*%
X133668800Y-61906200D03*
X131843800Y-61906200D03*
%TD*%
D27*
%TO.C,F1*%
X124025000Y-61906200D03*
X121225000Y-61906200D03*
%TD*%
D28*
%TO.C,D33*%
X125412500Y-106425000D03*
X125412500Y-103125000D03*
%TD*%
D19*
%TO.C,DT11*%
X117543800Y-62693700D03*
X117543800Y-65893700D03*
X112643800Y-65893700D03*
X112643800Y-62693700D03*
%TD*%
D26*
%TO.C,R1*%
X154106300Y-103187400D03*
X152281300Y-103187400D03*
%TD*%
D28*
%TO.C,D13*%
X174625000Y-67531200D03*
X174625000Y-64231200D03*
%TD*%
D26*
%TO.C,R2*%
X160456300Y-103187500D03*
X158631300Y-103187500D03*
%TD*%
D24*
%TO.C,C9*%
X136525000Y-72387500D03*
X136525000Y-70487500D03*
%TD*%
%TO.C,C15*%
X183356300Y-90643700D03*
X183356300Y-88743700D03*
%TD*%
D28*
%TO.C,D17*%
X112712500Y-106362500D03*
X112712500Y-103062500D03*
%TD*%
D24*
%TO.C,C5*%
X173037500Y-113662500D03*
X173037500Y-111762500D03*
%TD*%
D19*
%TO.C,D9*%
X188187500Y-62693700D03*
X188187500Y-65893700D03*
X183287500Y-65893700D03*
X183287500Y-62693700D03*
%TD*%
D24*
%TO.C,C6*%
X176212500Y-118425000D03*
X176212500Y-116525000D03*
%TD*%
D22*
%TO.C,C4*%
X164306300Y-125256200D03*
X164306300Y-127156200D03*
%TD*%
D28*
%TO.C,D31*%
X125412500Y-89756200D03*
X125412500Y-86456200D03*
%TD*%
D29*
%TO.C,R6*%
X115887500Y-80093700D03*
X115887500Y-78268700D03*
%TD*%
D28*
%TO.C,D19*%
X112712500Y-97631300D03*
X112712500Y-94331300D03*
%TD*%
D24*
%TO.C,C8*%
X145256300Y-90643700D03*
X145256300Y-88743700D03*
%TD*%
D19*
%TO.C,D2*%
X115025000Y-127806200D03*
X115025000Y-124606200D03*
X119925000Y-124606200D03*
X119925000Y-127806200D03*
%TD*%
D25*
%TO.C,C11*%
X180818800Y-121443700D03*
X182718800Y-121443700D03*
%TD*%
D28*
%TO.C,D22*%
X147637500Y-86581200D03*
X147637500Y-83281200D03*
%TD*%
D22*
%TO.C,C13*%
X155575000Y-70487500D03*
X155575000Y-72387500D03*
%TD*%
D28*
%TO.C,D11*%
X136525000Y-67531200D03*
X136525000Y-64231200D03*
%TD*%
D23*
%TO.C,R5*%
X128825000Y-61906200D03*
X126925000Y-61906200D03*
%TD*%
D22*
%TO.C,C1*%
X150812500Y-125256200D03*
X150812500Y-127156200D03*
%TD*%
D23*
%TO.C,C10*%
X120012500Y-121443700D03*
X118112500Y-121443700D03*
%TD*%
D30*
%TO.C,Y1*%
X155056300Y-125412400D03*
X157956300Y-125412400D03*
X157956300Y-127712400D03*
X155056300Y-127712400D03*
%TD*%
D28*
%TO.C,D18*%
X112712500Y-89756200D03*
X112712500Y-86456200D03*
%TD*%
%TO.C,D23*%
X166687500Y-86581200D03*
X166687500Y-83281200D03*
%TD*%
%TO.C,D12*%
X155575000Y-67531200D03*
X155575000Y-64231200D03*
%TD*%
D31*
%TO.C,SW4*%
X171525000Y-107418700D03*
X177725000Y-103718700D03*
X171525000Y-103718700D03*
X177725000Y-107418700D03*
%TD*%
D32*
%TO.C,R3*%
X176212500Y-111800000D03*
X176212500Y-113625000D03*
%TD*%
D33*
%TO.C,U2*%
X181856300Y-77743700D03*
D34*
X181856300Y-76043700D03*
X184856300Y-76043700D03*
X184856300Y-77943700D03*
%TD*%
D24*
%TO.C,C16*%
X174625000Y-72387500D03*
X174625000Y-70487500D03*
%TD*%
%TO.C,C12*%
X164306300Y-90643700D03*
X164306300Y-88743700D03*
%TD*%
D28*
%TO.C,D32*%
X125412500Y-97693700D03*
X125412500Y-94393700D03*
%TD*%
D24*
%TO.C,C2*%
X161925000Y-127156200D03*
X161925000Y-125256200D03*
%TD*%
%TO.C,C3*%
X148431300Y-127156200D03*
X148431300Y-125256200D03*
%TD*%
D28*
%TO.C,D21*%
X128587500Y-83281200D03*
X128587500Y-86581200D03*
%TD*%
M02*
