%TF.GenerationSoftware,KiCad,Pcbnew,(6.0.5)*%
%TF.CreationDate,2022-05-27T23:08:30+07:00*%
%TF.ProjectId,atelier-alter,6174656c-6965-4722-9d61-6c7465722e6b,rev?*%
%TF.SameCoordinates,Original*%
%TF.FileFunction,Soldermask,Top*%
%TF.FilePolarity,Negative*%
%FSLAX46Y46*%
G04 Gerber Fmt 4.6, Leading zero omitted, Abs format (unit mm)*
G04 Created by KiCad (PCBNEW (6.0.5)) date 2022-05-27 23:08:30*
%MOMM*%
%LPD*%
G01*
G04 APERTURE LIST*
%ADD10C,1.700000*%
%ADD11C,4.000000*%
%ADD12C,3.000000*%
%ADD13C,2.000000*%
%ADD14C,0.650000*%
%ADD15R,0.600000X2.450000*%
%ADD16R,0.300000X2.450000*%
G04 APERTURE END LIST*
D10*
%TO.C,MX6*%
X169545000Y-92806200D03*
X179705000Y-92806200D03*
D11*
X174625000Y-92806200D03*
D12*
X172085000Y-97886200D03*
X178435000Y-95346200D03*
%TD*%
D13*
%TO.C,SW2*%
X115812600Y-94587500D03*
X122312600Y-94587500D03*
X115812600Y-99087500D03*
X122312600Y-99087500D03*
%TD*%
D10*
%TO.C,MX5*%
X150495000Y-92868700D03*
D12*
X153035000Y-97948700D03*
D11*
X155575000Y-92868700D03*
D10*
X160655000Y-92868700D03*
D12*
X159385000Y-95408700D03*
%TD*%
D10*
%TO.C,MX4*%
X131445000Y-92868700D03*
D12*
X140335000Y-95408700D03*
D10*
X141605000Y-92868700D03*
D11*
X136525000Y-92868700D03*
D12*
X133985000Y-97948700D03*
%TD*%
D13*
%TO.C,SW3*%
X115812500Y-103318700D03*
X122312500Y-103318700D03*
X115812500Y-107818700D03*
X122312500Y-107818700D03*
%TD*%
%TO.C,SW1*%
X115812500Y-85856200D03*
X122312500Y-85856200D03*
X115812500Y-90356200D03*
X122312500Y-90356200D03*
%TD*%
D10*
%TO.C,MX3*%
X160020000Y-73818700D03*
D12*
X162560000Y-78898700D03*
X168910000Y-76358700D03*
D10*
X170180000Y-73818700D03*
D11*
X165100000Y-73818700D03*
%TD*%
D10*
%TO.C,MX1*%
X132080000Y-73756200D03*
X121920000Y-73756200D03*
D12*
X130810000Y-76296200D03*
X124460000Y-78836200D03*
D11*
X127000000Y-73756200D03*
%TD*%
D14*
%TO.C,USB1*%
X153702500Y-57050000D03*
X147922500Y-57050000D03*
D15*
X154037500Y-58995000D03*
X153262500Y-58995000D03*
D16*
X152562500Y-58995000D03*
X152062500Y-58995000D03*
X151562500Y-58995000D03*
X151062500Y-58995000D03*
X150562500Y-58995000D03*
X150062500Y-58995000D03*
X149562500Y-58995000D03*
X149062500Y-58995000D03*
D15*
X148362500Y-58995000D03*
X147587500Y-58995000D03*
%TD*%
D10*
%TO.C,MX2*%
X151130000Y-73818700D03*
D12*
X149860000Y-76358700D03*
D10*
X140970000Y-73818700D03*
D11*
X146050000Y-73818700D03*
D12*
X143510000Y-78898700D03*
%TD*%
M02*
