M48
; DRILL file {KiCad (6.0.5)} date Fri May 27 23:08:25 2022
; FORMAT={-:-/ absolute / inch / decimal}
; #@! TF.CreationDate,2022-05-27T23:08:25+07:00
; #@! TF.GenerationSoftware,Kicad,Pcbnew,(6.0.5)
; #@! TF.FileFunction,Plated,1,2,PTH
FMAT,2
INCH
; #@! TA.AperFunction,Plated,PTH,ViaDrill
T1C0.0118
; #@! TA.AperFunction,Plated,PTH,ViaDrill
T2C0.0157
; #@! TA.AperFunction,Plated,PTH,ComponentDrill
T3C0.0236
; #@! TA.AperFunction,Plated,PTH,ComponentDrill
T4C0.0433
%
G90
G05
T1
X4.5156Y-2.6053
X5.3142Y-2.4289
X5.3194Y-3.3361
X5.4087Y-2.4078
X5.4306Y-2.6618
X5.7938Y-3.3604
X5.8365Y-4.2786
X5.9549Y-4.6552
X5.9998Y-4.5944
X6.0054Y-2.3943
X6.022Y-4.5054
X6.0693Y-4.2786
X6.1132Y-4.2783
X6.1968Y-2.8089
X6.3524Y-3.5405
X6.3893Y-3.8499
X6.4037Y-3.9766
X6.4541Y-4.5262
X6.4633Y-4.0362
X6.825Y-3.0788
X6.8764Y-4.5889
X6.9313Y-2.7904
T2
X4.8267Y-2.5216
X4.9488Y-2.6155
T4
X4.5595Y-3.3802
X4.5595Y-3.5573
X4.5595Y-4.0677
X4.5595Y-4.2448
X4.5596Y-3.7239
X4.5596Y-3.9011
X4.8155Y-3.3802
X4.8155Y-3.5573
X4.8155Y-4.0677
X4.8155Y-4.2448
X4.8155Y-3.7239
X4.8155Y-3.9011
T3
G00X5.7674Y-2.1142
M15
G01X5.7674Y-2.0906
M16
G05
G00X5.7674Y-2.2886
M15
G01X5.7674Y-2.2453
M16
G05
G00X6.1076Y-2.1142
M15
G01X6.1076Y-2.0906
M16
G05
G00X6.1076Y-2.2886
M15
G01X6.1076Y-2.2453
M16
G05
T0
M30
