%TF.GenerationSoftware,KiCad,Pcbnew,(6.0.5)*%
%TF.CreationDate,2022-05-27T18:29:41+07:00*%
%TF.ProjectId,atelier-alter,6174656c-6965-4722-9d61-6c7465722e6b,rev?*%
%TF.SameCoordinates,Original*%
%TF.FileFunction,Soldermask,Bot*%
%TF.FilePolarity,Negative*%
%FSLAX46Y46*%
G04 Gerber Fmt 4.6, Leading zero omitted, Abs format (unit mm)*
G04 Created by KiCad (PCBNEW (6.0.5)) date 2022-05-27 18:29:41*
%MOMM*%
%LPD*%
G01*
G04 APERTURE LIST*
G04 Aperture macros list*
%AMRoundRect*
0 Rectangle with rounded corners*
0 $1 Rounding radius*
0 $2 $3 $4 $5 $6 $7 $8 $9 X,Y pos of 4 corners*
0 Add a 4 corners polygon primitive as box body*
4,1,4,$2,$3,$4,$5,$6,$7,$8,$9,$2,$3,0*
0 Add four circle primitives for the rounded corners*
1,1,$1+$1,$2,$3*
1,1,$1+$1,$4,$5*
1,1,$1+$1,$6,$7*
1,1,$1+$1,$8,$9*
0 Add four rect primitives between the rounded corners*
20,1,$1+$1,$2,$3,$4,$5,0*
20,1,$1+$1,$4,$5,$6,$7,0*
20,1,$1+$1,$6,$7,$8,$9,0*
20,1,$1+$1,$8,$9,$2,$3,0*%
G04 Aperture macros list end*
%ADD10C,1.750000*%
%ADD11C,3.987800*%
%ADD12C,3.000000*%
%ADD13R,2.550000X2.500000*%
%ADD14C,2.000000*%
%ADD15C,0.650000*%
%ADD16O,1.000000X2.100000*%
%ADD17O,1.000000X1.600000*%
%ADD18R,1.200000X0.900000*%
%ADD19R,1.500000X1.000000*%
%ADD20R,0.550000X1.500000*%
%ADD21R,1.500000X0.550000*%
%ADD22RoundRect,0.250000X-0.250000X-0.475000X0.250000X-0.475000X0.250000X0.475000X-0.250000X0.475000X0*%
%ADD23RoundRect,0.250000X0.475000X-0.250000X0.475000X0.250000X-0.475000X0.250000X-0.475000X-0.250000X0*%
%ADD24RoundRect,0.250000X0.262500X0.450000X-0.262500X0.450000X-0.262500X-0.450000X0.262500X-0.450000X0*%
%ADD25RoundRect,0.250000X0.250000X0.475000X-0.250000X0.475000X-0.250000X-0.475000X0.250000X-0.475000X0*%
%ADD26RoundRect,0.250000X0.375000X0.625000X-0.375000X0.625000X-0.375000X-0.625000X0.375000X-0.625000X0*%
%ADD27R,1.800000X1.100000*%
%ADD28RoundRect,0.250000X-0.262500X-0.450000X0.262500X-0.450000X0.262500X0.450000X-0.262500X0.450000X0*%
%ADD29RoundRect,0.250000X-0.475000X0.250000X-0.475000X-0.250000X0.475000X-0.250000X0.475000X0.250000X0*%
%ADD30R,1.800000X2.100000*%
%ADD31RoundRect,0.250000X-0.450000X0.262500X-0.450000X-0.262500X0.450000X-0.262500X0.450000X0.262500X0*%
G04 APERTURE END LIST*
D10*
%TO.C,MX6*%
X179705000Y-92806200D03*
D11*
X174625000Y-92806200D03*
D12*
X178435000Y-95346200D03*
X172085000Y-97886200D03*
D10*
X169545000Y-92806200D03*
D13*
X181710000Y-95346200D03*
X168783000Y-97886200D03*
%TD*%
D14*
%TO.C,SW2*%
X118193800Y-101600000D03*
X124693800Y-101600000D03*
X118193800Y-106100000D03*
X124693800Y-106100000D03*
%TD*%
D11*
%TO.C,MX5*%
X165100000Y-73756200D03*
D12*
X162560000Y-78836200D03*
X168910000Y-76296200D03*
D10*
X160020000Y-73756200D03*
X170180000Y-73756200D03*
D13*
X172185000Y-76296200D03*
X159258000Y-78836200D03*
%TD*%
D10*
%TO.C,MX4*%
X160655000Y-92806200D03*
D11*
X155575000Y-92806200D03*
D12*
X159385000Y-95346200D03*
X153035000Y-97886200D03*
D10*
X150495000Y-92806200D03*
D13*
X162660000Y-95346200D03*
X149733000Y-97886200D03*
%TD*%
D14*
%TO.C,SW3*%
X118193800Y-85062500D03*
X124693800Y-85062500D03*
X118193800Y-89562500D03*
X124693800Y-89562500D03*
%TD*%
D12*
%TO.C,MX3*%
X143510000Y-78836200D03*
D11*
X146050000Y-73756200D03*
D10*
X140970000Y-73756200D03*
D12*
X149860000Y-76296200D03*
D10*
X151130000Y-73756200D03*
D13*
X153135000Y-76296200D03*
X140208000Y-78836200D03*
%TD*%
D11*
%TO.C,MX1*%
X127000000Y-73756200D03*
D10*
X121920000Y-73756200D03*
D12*
X124460000Y-78836200D03*
X130810000Y-76296200D03*
D10*
X132080000Y-73756200D03*
D13*
X134085000Y-76296200D03*
X121158000Y-78836200D03*
%TD*%
D15*
%TO.C,USB1*%
X153702500Y-57050000D03*
X147922500Y-57050000D03*
D16*
X155132500Y-57580000D03*
D17*
X146492500Y-53400000D03*
D16*
X146492500Y-57580000D03*
D17*
X155132500Y-53400000D03*
%TD*%
D14*
%TO.C,SW4*%
X118193800Y-93000000D03*
X124693800Y-93000000D03*
X124693800Y-97500000D03*
X118193800Y-97500000D03*
%TD*%
D11*
%TO.C,MX2*%
X136525000Y-92806200D03*
D10*
X141605000Y-92806200D03*
X131445000Y-92806200D03*
D12*
X133985000Y-97886200D03*
X140335000Y-95346200D03*
D13*
X143610000Y-95346200D03*
X130683000Y-97886200D03*
%TD*%
D18*
%TO.C,D5*%
X157162500Y-72168700D03*
X157162500Y-75468700D03*
%TD*%
D19*
%TO.C,D10*%
X179318800Y-121456200D03*
X179318800Y-118256200D03*
X184218800Y-118256200D03*
X184218800Y-121456200D03*
%TD*%
D20*
%TO.C,U1*%
X153162500Y-110981200D03*
X153962500Y-110981200D03*
X154762500Y-110981200D03*
X155562500Y-110981200D03*
X156362500Y-110981200D03*
X157162500Y-110981200D03*
X157962500Y-110981200D03*
X158762500Y-110981200D03*
X159562500Y-110981200D03*
X160362500Y-110981200D03*
X161162500Y-110981200D03*
D21*
X162862500Y-112681200D03*
X162862500Y-113481200D03*
X162862500Y-114281200D03*
X162862500Y-115081200D03*
X162862500Y-115881200D03*
X162862500Y-116681200D03*
X162862500Y-117481200D03*
X162862500Y-118281200D03*
X162862500Y-119081200D03*
X162862500Y-119881200D03*
X162862500Y-120681200D03*
D20*
X161162500Y-122381200D03*
X160362500Y-122381200D03*
X159562500Y-122381200D03*
X158762500Y-122381200D03*
X157962500Y-122381200D03*
X157162500Y-122381200D03*
X156362500Y-122381200D03*
X155562500Y-122381200D03*
X154762500Y-122381200D03*
X153962500Y-122381200D03*
X153162500Y-122381200D03*
D21*
X151462500Y-120681200D03*
X151462500Y-119881200D03*
X151462500Y-119081200D03*
X151462500Y-118281200D03*
X151462500Y-117481200D03*
X151462500Y-116681200D03*
X151462500Y-115881200D03*
X151462500Y-115081200D03*
X151462500Y-114281200D03*
X151462500Y-113481200D03*
X151462500Y-112681200D03*
%TD*%
D22*
%TO.C,C7*%
X159709100Y-127000000D03*
X161609100Y-127000000D03*
%TD*%
D23*
%TO.C,C14*%
X141287500Y-67781200D03*
X141287500Y-65881200D03*
%TD*%
D24*
%TO.C,R4*%
X185856300Y-69056200D03*
X184031300Y-69056200D03*
%TD*%
D18*
%TO.C,D1*%
X119062500Y-72168700D03*
X119062500Y-75468700D03*
%TD*%
D23*
%TO.C,C17*%
X169862500Y-86675000D03*
X169862500Y-84775000D03*
%TD*%
D25*
%TO.C,R7*%
X135093800Y-62706200D03*
X133193800Y-62706200D03*
%TD*%
D26*
%TO.C,F1*%
X125412500Y-62706200D03*
X122612500Y-62706200D03*
%TD*%
D24*
%TO.C,R1*%
X154900000Y-107156200D03*
X153075000Y-107156200D03*
%TD*%
D27*
%TO.C,SW1*%
X171525000Y-108212500D03*
X177725000Y-104512500D03*
X171525000Y-104512500D03*
X177725000Y-108212500D03*
%TD*%
D28*
%TO.C,R2*%
X159425000Y-107156200D03*
X161250000Y-107156200D03*
%TD*%
D23*
%TO.C,C9*%
X125412500Y-120806200D03*
X125412500Y-118906200D03*
%TD*%
%TO.C,C15*%
X150812500Y-86675000D03*
X150812500Y-84775000D03*
%TD*%
D18*
%TO.C,D4*%
X147637500Y-91218700D03*
X147637500Y-94518700D03*
%TD*%
%TO.C,D17*%
X115093800Y-105693700D03*
X115093800Y-102393700D03*
%TD*%
D22*
%TO.C,C5*%
X153037500Y-103981200D03*
X154937500Y-103981200D03*
%TD*%
D19*
%TO.C,D9*%
X182493800Y-65893700D03*
X182493800Y-62693700D03*
X187393800Y-62693700D03*
X187393800Y-65893700D03*
%TD*%
D22*
%TO.C,C6*%
X159387500Y-103981200D03*
X161287500Y-103981200D03*
%TD*%
D29*
%TO.C,C4*%
X146843800Y-114143700D03*
X146843800Y-116043700D03*
%TD*%
D22*
%TO.C,R6*%
X137643800Y-62706200D03*
X139543800Y-62706200D03*
%TD*%
D18*
%TO.C,D19*%
X115093800Y-96962500D03*
X115093800Y-93662500D03*
%TD*%
D19*
%TO.C,D7*%
X113437500Y-65893700D03*
X113437500Y-62693700D03*
X118337500Y-62693700D03*
X118337500Y-65893700D03*
%TD*%
D23*
%TO.C,C8*%
X115887500Y-72387500D03*
X115887500Y-70487500D03*
%TD*%
D18*
%TO.C,D2*%
X128587500Y-91156200D03*
X128587500Y-94456200D03*
%TD*%
D29*
%TO.C,C11*%
X176212500Y-118906200D03*
X176212500Y-120806200D03*
%TD*%
D19*
%TO.C,D8*%
X121512500Y-118256200D03*
X121512500Y-121456200D03*
X116612500Y-121456200D03*
X116612500Y-118256200D03*
%TD*%
D23*
%TO.C,C13*%
X131762500Y-86518700D03*
X131762500Y-84618700D03*
%TD*%
D24*
%TO.C,R5*%
X130175000Y-62706200D03*
X128350000Y-62706200D03*
%TD*%
D25*
%TO.C,C1*%
X169462500Y-111918700D03*
X167562500Y-111918700D03*
%TD*%
D18*
%TO.C,D3*%
X138112500Y-72168700D03*
X138112500Y-75468700D03*
%TD*%
D22*
%TO.C,C10*%
X167325000Y-127000000D03*
X169225000Y-127000000D03*
%TD*%
D30*
%TO.C,Y1*%
X169425000Y-115093700D03*
X169425000Y-117993700D03*
X167125000Y-117993700D03*
X167125000Y-115093700D03*
%TD*%
D18*
%TO.C,D18*%
X115093800Y-88231200D03*
X115093800Y-84931200D03*
%TD*%
%TO.C,D6*%
X166687500Y-91156200D03*
X166687500Y-94456200D03*
%TD*%
D31*
%TO.C,R3*%
X181688800Y-106243700D03*
X181688800Y-108068700D03*
%TD*%
D23*
%TO.C,C16*%
X160337500Y-67781200D03*
X160337500Y-65881200D03*
%TD*%
%TO.C,C12*%
X122237500Y-67625000D03*
X122237500Y-65725000D03*
%TD*%
D25*
%TO.C,C2*%
X169225000Y-121443700D03*
X167325000Y-121443700D03*
%TD*%
D29*
%TO.C,C3*%
X146843800Y-120493700D03*
X146843800Y-122393700D03*
%TD*%
M02*
