M48
; DRILL file {KiCad (6.0.5)} date Fri May 27 18:29:37 2022
; FORMAT={-:-/ absolute / inch / decimal}
; #@! TF.CreationDate,2022-05-27T18:29:37+07:00
; #@! TF.GenerationSoftware,Kicad,Pcbnew,(6.0.5)
; #@! TF.FileFunction,Plated,1,2,PTH
FMAT,2
INCH
; #@! TA.AperFunction,Plated,PTH,ViaDrill
T1C0.0118
; #@! TA.AperFunction,Plated,PTH,ViaDrill
T2C0.0157
; #@! TA.AperFunction,Plated,PTH,ComponentDrill
T3C0.0236
; #@! TA.AperFunction,Plated,PTH,ComponentDrill
T4C0.0433
%
G90
G05
T1
X4.6228Y-3.24
X4.7176Y-4.2009
X5.0528Y-2.5222
X5.8259Y-3.5514
X5.8829Y-2.4237
X6.0166Y-2.4019
X6.1862Y-2.6004
X6.2013Y-4.3064
X6.2476Y-2.654
X6.2982Y-4.6233
X6.301Y-4.6598
X6.3447Y-3.9565
X6.3476Y-4.6752
X6.3582Y-4.7571
X6.4641Y-4.6662
X6.4822Y-3.5775
X6.49Y-2.5992
X6.533Y-4.7662
X7.2471Y-4.7267
T2
X5.8792Y-3.333
T4
X4.6533Y-3.3489
X4.6533Y-3.5261
X4.6533Y-3.6614
X4.6533Y-3.8386
X4.6533Y-4.0
X4.6533Y-4.1772
X4.9092Y-3.3489
X4.9092Y-3.5261
X4.9092Y-3.6614
X4.9092Y-3.8386
X4.9092Y-4.0
X4.9092Y-4.1772
T3
G00X5.7674Y-2.1142
M15
G01X5.7674Y-2.0906
M16
G05
G00X5.7674Y-2.2886
M15
G01X5.7674Y-2.2453
M16
G05
G00X6.1076Y-2.1142
M15
G01X6.1076Y-2.0906
M16
G05
G00X6.1076Y-2.2886
M15
G01X6.1076Y-2.2453
M16
G05
T0
M30
